#N canvas 89 60 980 424 10;
#X text 548 138 There must be a matching delwrite~ in your patch;
#N canvas 537 164 740 697 REFERENCE 0;
#X text 114 155 Argument 0: name for state saving (required);
#X text 115 409 Tags: delay \, effect \, clickless;
#X text 114 115 Name: e_noclickdel;
#X text 114 135 Summary: variable clickless delread~;
#X text 114 175 Argument 1: delayline name (required);
#X text 114 246 Outlet 0: delayed audio signal;
#X text 114 195 Inlet 0: delay time;
#X text 114 214 Inlet 1: declick latency (default 200 ms);
#X text 115 267 Description: e_noclickdel is a tap from a delay line
with an adjustable delay time that doesn't introduce audible clicks
when changed. Note that you will hear clicks if the delay time is being
changed too often \, try using m_speedlimit to control it. The declick
latency controls the speed of the declicker inside the object and will
affect how fast the delay time is allowed to change. The default value
is 200 msec \, so that changes in delay times will only be registered
every 200 msec. Smaller values increase the risk of clicks.;
#X coords 0 -1 1 1 450 350 1 100 100;
#X restore 16 27 pd REFERENCE;
#X text 13 9 e_noclickdel - clickless delread~ object;
#X floatatom 597 177 5 0 0 0 - - -;
#X obj 516 117 delwrite~ \$0-delay 1000;
#X obj 566 22 adc~;
#X obj 566 68 *~;
#X obj 581 45 tgl 15 0 empty empty empty 17 7 0 10 -262144 -1 -1 1
1;
#X floatatom 741 179 5 0 0 1 latency - -;
#X obj 597 197 e_noclickdel \$0-delay;
#X text 759 199 Default latency is 200 ms.;
#X obj 494 237 dac~ 1 2;
#X connect 3 0 9 0;
#X connect 5 0 6 0;
#X connect 6 0 4 0;
#X connect 6 0 11 0;
#X connect 7 0 6 1;
#X connect 8 0 9 1;
#X connect 9 0 11 1;
#X connect 9 0 11 0;
