#N canvas 249 124 465 471 10;
#X obj 41 28 loadbang;
#X obj 41 52 f \$1;
#X floatatom 41 76 5 0 0 0 - - -;
#X text 99 30 if you call this patch from another patch as an abstraction
you can add your own id#;
#X obj 19 125 loadbang;
#X floatatom 19 170 5 0 0 0 - - -;
#X obj 19 146 f \$0;
#X obj 20 28 bng 15 250 50 0 empty empty empty 17 7 0 10 -262144 -1
-1;
#X obj 132 153 print foo \$1;
#N canvas 990 94 570 461 \$0-tact-handler 0;
#X obj 35 17 inlet;
#X obj 35 44 route 1 2 3;
#X obj 35 326 route short long;
#X obj 56 218 route short long;
#X text 164 217 button 2 (gpio 25);
#X text 145 325 button 1 (gpio 23);
#X obj 98 69 print bad msg on TTi:tact route;
#X obj 77 102 route short long;
#X obj 170 129 print bad msg on TTi:tact:3 route;
#X obj 149 244 print bad msg on TTi:tact:2 route;
#X obj 128 351 print bad msg on TTi:tact:1 route;
#X text 184 101 button 3 (gpio 24);
#X obj 35 409 print \$1 button 1 short press;
#X obj 81 383 print \$1 button 1 long press;
#X obj 56 299 print \$1 button 2 short press;
#X obj 102 273 print \$1 button 2 long press;
#X obj 123 158 print \$1 button 3 long press;
#X obj 77 184 print \$1 button 3 short press;
#X connect 0 0 1 0;
#X connect 1 0 2 0;
#X connect 1 1 3 0;
#X connect 1 2 7 0;
#X connect 1 3 6 0;
#X connect 2 0 12 0;
#X connect 2 1 13 0;
#X connect 2 2 10 0;
#X connect 3 0 14 0;
#X connect 3 1 15 0;
#X connect 3 2 9 0;
#X connect 7 0 17 0;
#X connect 7 1 16 0;
#X connect 7 2 8 0;
#X restore 138 295 pd \$0-tact-handler;
#N canvas 669 137 515 400 \$0-adc-handler 0;
#X obj 20 22 inlet;
#X obj 20 51 route 1 2 3 4 5 6;
#X obj 119 76 print bad msg on TTi:adc route;
#X obj 20 259 s \$0-adc1;
#X obj 36 230 s \$0-adc2;
#X obj 53 202 s \$0-adc3;
#X obj 69 168 s \$0-adc4;
#X obj 86 139 s \$0-adc5;
#X obj 102 108 s \$0-adc6;
#X obj 18 320 r \$0-adc1;
#X obj 101 320 r \$0-adc2;
#X obj 192 320 r \$0-adc3;
#X obj 275 320 r \$0-adc4;
#X obj 351 320 r \$0-adc5;
#X obj 428 320 r \$0-adc6;
#X floatatom 18 341 5 0 0 0 - - -;
#X floatatom 101 341 5 0 0 0 - - -;
#X floatatom 192 341 5 0 0 0 - - -;
#X floatatom 275 341 5 0 0 0 - - -;
#X floatatom 351 341 5 0 0 0 - - -;
#X floatatom 428 341 5 0 0 0 - - -;
#X connect 0 0 1 0;
#X connect 1 0 3 0;
#X connect 1 1 4 0;
#X connect 1 2 5 0;
#X connect 1 3 6 0;
#X connect 1 4 7 0;
#X connect 1 5 8 0;
#X connect 1 6 2 0;
#X connect 9 0 15 0;
#X connect 10 0 16 0;
#X connect 11 0 17 0;
#X connect 12 0 18 0;
#X connect 13 0 19 0;
#X connect 14 0 20 0;
#X restore 21 295 pd \$0-adc-handler;
#N canvas 990 91 450 300 \$0-digi-in-handler 0;
#X obj 25 56 route 1 2 3 4;
#X text 137 55 tie digital inputs to patch controls;
#X obj 25 25 inlet;
#X obj 100 89 print bad msg on TTi:digital route;
#X obj 25 204 print \$1 digi-in #1;
#X obj 43 176 print \$1 digi-in #2;
#X obj 62 147 print \$1 digi-in #3;
#X obj 81 118 print \$1 digi-in #4;
#X connect 0 0 4 0;
#X connect 0 1 5 0;
#X connect 0 2 6 0;
#X connect 0 3 7 0;
#X connect 0 4 3 0;
#X connect 2 0 0 0;
#X restore 257 295 pd \$0-digi-in-handler;
#X obj 21 270 r \$1-adc-ctl;
#X obj 138 270 r \$1-tact-ctl;
#X obj 257 270 r \$1-digi-in;
#X obj 132 128 r \$1-adc-ctl;
#X obj 35 384 tgl 15 0 empty empty empty 17 7 0 10 -262144 -1 -1 0
1;
#X obj 116 383 hradio 15 1 0 3 empty empty empty 0 -8 0 10 -262144
-1 -1 2;
#X text 169 383 <-choose your LED;
#X obj 116 361 loadbang;
#X obj 35 429 s TTo-\$1;
#N canvas 1090 678 450 300 tt_digi_out 0;
#X obj 37 8 inlet;
#X floatatom 82 76 5 0 0 0 - - -;
#X obj 82 55 + 1;
#X msg 37 121 \$2 \$1;
#X text 83 120 output address \, output value;
#X obj 37 98 pack f f;
#X obj 82 34 inlet;
#X obj 37 142 outlet;
#X obj 37 55 t f b;
#X text 83 8 <- send 0 or 1 here;
#X text 132 34 <- send pos int 0 thru 2;
#X connect 0 0 8 0;
#X connect 1 0 5 1;
#X connect 2 0 1 0;
#X connect 3 0 7 0;
#X connect 5 0 3 0;
#X connect 6 0 2 0;
#X connect 8 0 5 0;
#X connect 8 1 1 0;
#X restore 35 406 pd tt_digi_out;
#X connect 0 0 1 0;
#X connect 1 0 2 0;
#X connect 4 0 6 0;
#X connect 6 0 5 0;
#X connect 7 0 1 0;
#X connect 12 0 10 0;
#X connect 13 0 9 0;
#X connect 14 0 11 0;
#X connect 15 0 8 0;
#X connect 16 0 21 0;
#X connect 17 0 21 1;
#X connect 19 0 17 0;
#X connect 21 0 20 0;
