#N canvas 140 41 1564 916 10;
#N canvas 0 0 1797 849 triggercycles8 0;
#X obj -323 -21 inlet;
#X obj -374 516 outlet;
#X floatatom -122 72 4 -999 999 0 - - -;
#X floatatom -122 90 3 0 999 0 - - -;
#X obj -422 372 +;
#X obj -409 405 mod;
#X obj -397 425 == 0;
#X obj -395 448 moses 0.1;
#X obj -373 487 t b;
#X obj -148 509 outlet;
#X floatatom -42 117 4 -999 999 0 - - -;
#X floatatom -42 135 3 0 999 0 - - -;
#X obj -210 365 +;
#X obj -205 396 mod;
#X obj -193 420 == 0;
#X obj -191 443 moses 0.1;
#X obj -147 480 t b;
#X obj 19 503 outlet;
#X floatatom 57 169 4 -999 999 0 - - -;
#X floatatom 57 187 3 0 999 0 - - -;
#X obj -25 363 +;
#X obj -12 396 mod;
#X obj 0 416 == 0;
#X obj 2 439 moses 0.1;
#X obj 20 474 t b;
#X obj 209 498 outlet;
#X floatatom 179 125 4 -999 999 0 - - -;
#X floatatom 179 143 3 0 999 0 - - -;
#X obj 183 371 +;
#X obj 188 406 mod;
#X obj 200 426 == 0;
#X obj 202 449 moses 0.1;
#X obj 210 469 t b;
#X obj 417 489 outlet;
#X floatatom 332 125 4 -999 999 0 - - -;
#X floatatom 332 143 3 0 999 0 - - -;
#X obj 375 356 +;
#X obj 388 389 mod;
#X obj 400 409 == 0;
#X obj 402 432 moses 0.1;
#X obj 418 460 t b;
#X obj 618 498 outlet;
#X floatatom 503 119 4 -999 999 0 - - -;
#X floatatom 503 137 3 0 999 0 - - -;
#X obj 583 364 +;
#X obj 588 399 mod;
#X obj 600 419 == 0;
#X obj 602 442 moses 0.1;
#X obj 619 469 t b;
#X obj 811 499 outlet;
#X floatatom 594 119 4 -999 999 0 - - -;
#X floatatom 594 137 3 0 999 0 - - -;
#X obj 768 362 +;
#X obj 781 395 mod;
#X obj 793 415 == 0;
#X obj 795 438 moses 0.1;
#X obj 812 470 t b;
#X obj 1010 501 outlet;
#X floatatom 709 136 4 -999 999 0 - - -;
#X floatatom 709 154 3 0 999 0 - - -;
#X obj 976 370 +;
#X obj 981 405 mod;
#X obj 993 425 == 0;
#X obj 995 448 moses 0.1;
#X obj 1011 472 t b;
#X obj 352 -267 inlet;
#X obj 497 -282 inlet;
#X obj -142 -22 random;
#X obj -122 -92 t b b;
#X msg 344 -243 bang;
#X obj 488 -257 select 0 1 2 3 4 5 6 7;
#X obj -23 -7 random;
#X obj -3 -77 t b b;
#X obj -89 -69 random 48;
#X obj 30 -54 random 48;
#X obj 89 2 random;
#X obj 109 -68 t b b;
#X obj 142 -45 random 48;
#X obj 202 21 random;
#X obj 222 -49 t b b;
#X obj 254 -3 + 11;
#X obj 316 24 random;
#X obj 336 -46 t b b;
#X obj 369 -23 random 48;
#X obj 435 25 random;
#X obj 455 -45 t b b;
#X obj 557 22 random;
#X obj 577 -48 t b b;
#X obj 673 16 random;
#X obj 693 -54 t b b;
#X obj 488 -22 random 48;
#X obj 610 -25 random 48;
#X obj 726 -31 random 48;
#X obj 255 -26 random 48;
#X obj -91 -45 + 11;
#X obj 29 -31 + 11;
#X obj 141 -22 + 11;
#X obj 725 -8 + 17;
#X obj 609 -2 + 23;
#X obj 488 2 + 19;
#X obj 368 0 + 15;
#X connect 0 0 4 0;
#X connect 0 0 12 0;
#X connect 0 0 20 0;
#X connect 0 0 28 0;
#X connect 0 0 36 0;
#X connect 0 0 44 0;
#X connect 0 0 52 0;
#X connect 0 0 60 0;
#X connect 2 0 4 1;
#X connect 3 0 5 1;
#X connect 4 0 5 0;
#X connect 5 0 6 0;
#X connect 6 0 7 0;
#X connect 7 1 8 0;
#X connect 8 0 1 0;
#X connect 10 0 12 1;
#X connect 11 0 13 1;
#X connect 12 0 13 0;
#X connect 13 0 14 0;
#X connect 14 0 15 0;
#X connect 15 1 16 0;
#X connect 16 0 9 0;
#X connect 18 0 20 1;
#X connect 19 0 21 1;
#X connect 20 0 21 0;
#X connect 21 0 22 0;
#X connect 22 0 23 0;
#X connect 23 1 24 0;
#X connect 24 0 17 0;
#X connect 26 0 28 1;
#X connect 27 0 29 1;
#X connect 28 0 29 0;
#X connect 29 0 30 0;
#X connect 30 0 31 0;
#X connect 31 1 32 0;
#X connect 32 0 25 0;
#X connect 34 0 36 1;
#X connect 35 0 37 1;
#X connect 36 0 37 0;
#X connect 37 0 38 0;
#X connect 38 0 39 0;
#X connect 39 1 40 0;
#X connect 40 0 33 0;
#X connect 42 0 44 1;
#X connect 43 0 45 1;
#X connect 44 0 45 0;
#X connect 45 0 46 0;
#X connect 46 0 47 0;
#X connect 47 1 48 0;
#X connect 48 0 41 0;
#X connect 50 0 52 1;
#X connect 51 0 53 1;
#X connect 52 0 53 0;
#X connect 53 0 54 0;
#X connect 54 0 55 0;
#X connect 55 1 56 0;
#X connect 56 0 49 0;
#X connect 58 0 60 1;
#X connect 59 0 61 1;
#X connect 60 0 61 0;
#X connect 61 0 62 0;
#X connect 62 0 63 0;
#X connect 63 1 64 0;
#X connect 64 0 57 0;
#X connect 65 0 69 0;
#X connect 66 0 70 0;
#X connect 67 0 2 0;
#X connect 68 0 67 0;
#X connect 68 1 73 0;
#X connect 69 0 68 0;
#X connect 69 0 72 0;
#X connect 69 0 76 0;
#X connect 69 0 79 0;
#X connect 69 0 82 0;
#X connect 69 0 85 0;
#X connect 69 0 87 0;
#X connect 69 0 89 0;
#X connect 70 0 68 0;
#X connect 70 1 72 0;
#X connect 70 2 76 0;
#X connect 70 3 79 0;
#X connect 70 4 82 0;
#X connect 70 5 85 0;
#X connect 70 6 87 0;
#X connect 70 7 89 0;
#X connect 71 0 10 0;
#X connect 72 0 71 0;
#X connect 72 1 74 0;
#X connect 73 0 94 0;
#X connect 74 0 95 0;
#X connect 75 0 18 0;
#X connect 76 0 75 0;
#X connect 76 1 77 0;
#X connect 77 0 96 0;
#X connect 78 0 26 0;
#X connect 79 0 78 0;
#X connect 79 1 93 0;
#X connect 80 0 78 1;
#X connect 80 0 27 0;
#X connect 81 0 34 0;
#X connect 82 0 81 0;
#X connect 82 1 83 0;
#X connect 83 0 100 0;
#X connect 84 0 42 0;
#X connect 85 0 84 0;
#X connect 85 1 90 0;
#X connect 86 0 50 0;
#X connect 87 0 86 0;
#X connect 87 1 91 0;
#X connect 88 0 58 0;
#X connect 89 0 88 0;
#X connect 89 1 92 0;
#X connect 90 0 99 0;
#X connect 91 0 98 0;
#X connect 92 0 97 0;
#X connect 93 0 80 0;
#X connect 94 0 67 1;
#X connect 94 0 3 0;
#X connect 95 0 71 1;
#X connect 95 0 11 0;
#X connect 96 0 75 1;
#X connect 96 0 19 0;
#X connect 97 0 88 1;
#X connect 97 0 59 0;
#X connect 98 0 86 1;
#X connect 98 0 51 0;
#X connect 99 0 84 1;
#X connect 99 0 43 0;
#X connect 100 0 81 1;
#X connect 100 0 35 0;
#X coords 0 0 1 1 272 65 0;
#X restore 445 300 pd triggercycles8;
#N canvas 311 117 713 632 counter 0;
#X obj 278 497 + 1;
#X obj 227 493 float;
#X msg 206 296 1;
#X obj 218 321 /;
#X obj 209 273 t f f;
#X obj 228 344 * 15000;
#X obj 353 306 t b f;
#X obj 218 459 metro 125;
#X msg 348 270 -2;
#X text 141 455 1/16 in ms;
#X floatatom 244 136 3 30 300 0 - - -;
#X text 248 116 bpm;
#X obj 255 548 outlet;
#X obj 498 203 outlet;
#X text 546 204 bpm->;
#X text 306 549 pos->;
#X obj 130 69 t b b b;
#X obj 131 39 inlet;
#X obj 234 66 random 40;
#X obj 236 92 + 65;
#X connect 0 0 1 1;
#X connect 0 0 12 0;
#X connect 1 0 0 0;
#X connect 2 0 3 0;
#X connect 3 0 5 0;
#X connect 4 0 2 0;
#X connect 4 1 3 1;
#X connect 5 0 7 1;
#X connect 6 0 7 0;
#X connect 6 1 1 0;
#X connect 7 0 1 0;
#X connect 8 0 6 0;
#X connect 10 0 4 0;
#X connect 10 0 13 0;
#X connect 16 0 8 0;
#X connect 16 1 10 0;
#X connect 16 2 18 0;
#X connect 17 0 16 0;
#X connect 18 0 19 0;
#X connect 19 0 10 0;
#X coords 0 0 1 1 120 40 0;
#X restore 390 223 pd counter;
#X msg 633 67 bang;
#X obj 634 43 loadbang;
#N canvas 235 186 450 300 sineoscfm 0;
#X obj 35 62 osc~;
#X obj 12 -45 mtof;
#X obj -11 -153 inlet;
#X obj 92 -94 t b b;
#X obj 121 47 line~;
#X obj 56 127 *~;
#X obj 97 90 clip~ 0 1;
#X obj 53 155 outlet~;
#X msg 144 -24 100;
#X obj 64 -35 pack f f;
#X msg 70 -66 0;
#X obj 176 -98 inlet;
#X obj 25 -92 inlet;
#X obj 31 32 +~;
#X obj 308 -33 inlet~;
#X obj 26 -3 sig~;
#X text -5 -174 bang;
#X text 25 -113 pitch;
#X text 182 -115 len;
#X text 319 -51 fm;
#X connect 0 0 5 0;
#X connect 1 0 15 0;
#X connect 2 0 3 0;
#X connect 3 0 10 0;
#X connect 3 1 8 0;
#X connect 4 0 6 0;
#X connect 5 0 7 0;
#X connect 6 0 5 1;
#X connect 8 0 4 0;
#X connect 9 0 4 0;
#X connect 10 0 9 0;
#X connect 11 0 9 1;
#X connect 12 0 1 0;
#X connect 13 0 0 0;
#X connect 14 0 13 1;
#X connect 15 0 13 0;
#X restore 371 452 pd sineoscfm;
#X obj 660 1147 dac~;
#X msg 638 866 bang;
#X obj 390 365 random 24;
#X obj 395 392 + 24;
#X msg 695 321 bang;
#X obj 434 416 + 200;
#X obj 459 376 random 900;
#N canvas 235 186 450 300 sineoscfm 0;
#X obj 35 62 osc~;
#X obj 12 -45 mtof;
#X obj -11 -153 inlet;
#X obj 92 -94 t b b;
#X obj 121 47 line~;
#X obj 56 127 *~;
#X obj 97 90 clip~ 0 1;
#X obj 53 155 outlet~;
#X msg 144 -24 100;
#X obj 64 -35 pack f f;
#X msg 70 -66 0;
#X obj 176 -98 inlet;
#X obj 25 -92 inlet;
#X obj 31 32 +~;
#X obj 308 -33 inlet~;
#X obj 26 -3 sig~;
#X text -5 -174 bang;
#X text 25 -113 pitch;
#X text 182 -115 len;
#X text 319 -51 fm;
#X connect 0 0 5 0;
#X connect 1 0 15 0;
#X connect 2 0 3 0;
#X connect 3 0 10 0;
#X connect 3 1 8 0;
#X connect 4 0 6 0;
#X connect 5 0 7 0;
#X connect 6 0 5 1;
#X connect 8 0 4 0;
#X connect 9 0 4 0;
#X connect 10 0 9 0;
#X connect 11 0 9 1;
#X connect 12 0 1 0;
#X connect 13 0 0 0;
#X connect 14 0 13 1;
#X connect 15 0 13 0;
#X restore 470 515 pd sineoscfm;
#X obj 493 431 random 24;
#X obj 494 455 + 24;
#X obj 528 486 + 200;
#X obj 532 459 random 900;
#N canvas 235 186 450 300 sineoscfm 0;
#X obj 35 62 osc~;
#X obj 12 -45 mtof;
#X obj -11 -153 inlet;
#X obj 92 -94 t b b;
#X obj 121 47 line~;
#X obj 56 127 *~;
#X obj 97 90 clip~ 0 1;
#X obj 53 155 outlet~;
#X msg 144 -24 100;
#X obj 64 -35 pack f f;
#X msg 70 -66 0;
#X obj 176 -98 inlet;
#X obj 25 -92 inlet;
#X obj 31 32 +~;
#X obj 308 -33 inlet~;
#X obj 26 -3 sig~;
#X text -5 -174 bang;
#X text 25 -113 pitch;
#X text 182 -115 len;
#X text 319 -51 fm;
#X connect 0 0 5 0;
#X connect 1 0 15 0;
#X connect 2 0 3 0;
#X connect 3 0 10 0;
#X connect 3 1 8 0;
#X connect 4 0 6 0;
#X connect 5 0 7 0;
#X connect 6 0 5 1;
#X connect 8 0 4 0;
#X connect 9 0 4 0;
#X connect 10 0 9 0;
#X connect 11 0 9 1;
#X connect 12 0 1 0;
#X connect 13 0 0 0;
#X connect 14 0 13 1;
#X connect 15 0 13 0;
#X restore 526 570 pd sineoscfm;
#X obj 581 490 random 24;
#X obj 582 514 + 24;
#X obj 589 536 + 200;
#X obj 622 512 random 900;
#N canvas 235 186 450 300 sineoscfm 0;
#X obj 35 62 osc~;
#X obj 12 -45 mtof;
#X obj -11 -153 inlet;
#X obj 92 -94 t b b;
#X obj 121 47 line~;
#X obj 56 127 *~;
#X obj 97 90 clip~ 0 1;
#X obj 53 155 outlet~;
#X msg 144 -24 100;
#X obj 64 -35 pack f f;
#X msg 70 -66 0;
#X obj 176 -98 inlet;
#X obj 25 -92 inlet;
#X obj 31 32 +~;
#X obj 308 -33 inlet~;
#X obj 26 -3 sig~;
#X text -5 -174 bang;
#X text 25 -113 pitch;
#X text 182 -115 len;
#X text 319 -51 fm;
#X connect 0 0 5 0;
#X connect 1 0 15 0;
#X connect 2 0 3 0;
#X connect 3 0 10 0;
#X connect 3 1 8 0;
#X connect 4 0 6 0;
#X connect 5 0 7 0;
#X connect 6 0 5 1;
#X connect 8 0 4 0;
#X connect 9 0 4 0;
#X connect 10 0 9 0;
#X connect 11 0 9 1;
#X connect 12 0 1 0;
#X connect 13 0 0 0;
#X connect 14 0 13 1;
#X connect 15 0 13 0;
#X restore 628 602 pd sineoscfm;
#X obj 667 570 + 24;
#X obj 735 533 random 900;
#X obj 662 540 random 48;
#X obj 720 574 + 200;
#X obj 741 245 catch~ \$0sinefm;
#X msg 749 766 bang;
#N canvas 17 88 1025 581 fix-pan-mix-8chan 0;
#X obj 30 39 inlet~;
#X obj 101 41 inlet~;
#X obj 139 320 outlet~;
#X obj 292 310 outlet~;
#X obj 186 42 inlet~;
#X obj 269 44 inlet~;
#X obj 354 42 inlet~;
#X obj 430 44 inlet~;
#N canvas 0 0 450 300 pan1 0;
#X obj 120 15 inlet;
#X obj 297 51 inlet~;
#X obj 256 225 outlet~;
#X obj 336 218 outlet~;
#X obj 251 149 *~;
#X obj 323 154 *~;
#X obj 276 122 + 1;
#X obj 335 113 * -1;
#X obj 208 75 * -1;
#X obj 160 42 clip 0 1;
#X connect 0 0 9 0;
#X connect 1 0 4 0;
#X connect 1 0 5 1;
#X connect 4 0 2 0;
#X connect 5 0 3 0;
#X connect 6 0 4 1;
#X connect 7 0 5 0;
#X connect 8 0 6 0;
#X connect 8 0 7 0;
#X connect 9 0 8 0;
#X restore 42 187 pd pan1;
#N canvas 0 0 450 300 pan1 0;
#X obj 120 15 inlet;
#X obj 297 51 inlet~;
#X obj 256 225 outlet~;
#X obj 336 218 outlet~;
#X obj 251 149 *~;
#X obj 323 154 *~;
#X obj 276 122 + 1;
#X obj 335 113 * -1;
#X obj 208 75 * -1;
#X obj 160 42 clip 0 1;
#X connect 0 0 9 0;
#X connect 1 0 4 0;
#X connect 1 0 5 1;
#X connect 4 0 2 0;
#X connect 5 0 3 0;
#X connect 6 0 4 1;
#X connect 7 0 5 0;
#X connect 8 0 6 0;
#X connect 8 0 7 0;
#X connect 9 0 8 0;
#X restore 122 192 pd pan1;
#N canvas 0 0 450 300 pan1 0;
#X obj 120 15 inlet;
#X obj 297 51 inlet~;
#X obj 256 225 outlet~;
#X obj 336 218 outlet~;
#X obj 251 149 *~;
#X obj 323 154 *~;
#X obj 276 122 + 1;
#X obj 335 113 * -1;
#X obj 208 75 * -1;
#X obj 160 42 clip 0 1;
#X connect 0 0 9 0;
#X connect 1 0 4 0;
#X connect 1 0 5 1;
#X connect 4 0 2 0;
#X connect 5 0 3 0;
#X connect 6 0 4 1;
#X connect 7 0 5 0;
#X connect 8 0 6 0;
#X connect 8 0 7 0;
#X connect 9 0 8 0;
#X restore 203 183 pd pan1;
#N canvas 0 0 450 300 pan1 0;
#X obj 120 15 inlet;
#X obj 297 51 inlet~;
#X obj 256 225 outlet~;
#X obj 336 218 outlet~;
#X obj 251 149 *~;
#X obj 323 154 *~;
#X obj 276 122 + 1;
#X obj 335 113 * -1;
#X obj 208 75 * -1;
#X obj 160 42 clip 0 1;
#X connect 0 0 9 0;
#X connect 1 0 4 0;
#X connect 1 0 5 1;
#X connect 4 0 2 0;
#X connect 5 0 3 0;
#X connect 6 0 4 1;
#X connect 7 0 5 0;
#X connect 8 0 6 0;
#X connect 8 0 7 0;
#X connect 9 0 8 0;
#X restore 281 194 pd pan1;
#N canvas 0 0 450 300 pan1 0;
#X obj 120 15 inlet;
#X obj 297 51 inlet~;
#X obj 256 225 outlet~;
#X obj 336 218 outlet~;
#X obj 251 149 *~;
#X obj 323 154 *~;
#X obj 276 122 + 1;
#X obj 335 113 * -1;
#X obj 208 75 * -1;
#X obj 160 42 clip 0 1;
#X connect 0 0 9 0;
#X connect 1 0 4 0;
#X connect 1 0 5 1;
#X connect 4 0 2 0;
#X connect 5 0 3 0;
#X connect 6 0 4 1;
#X connect 7 0 5 0;
#X connect 8 0 6 0;
#X connect 8 0 7 0;
#X connect 9 0 8 0;
#X restore 365 196 pd pan1;
#N canvas 0 0 450 300 pan1 0;
#X obj 120 15 inlet;
#X obj 297 51 inlet~;
#X obj 256 225 outlet~;
#X obj 336 218 outlet~;
#X obj 251 149 *~;
#X obj 323 154 *~;
#X obj 276 122 + 1;
#X obj 335 113 * -1;
#X obj 208 75 * -1;
#X obj 160 42 clip 0 1;
#X connect 0 0 9 0;
#X connect 1 0 4 0;
#X connect 1 0 5 1;
#X connect 4 0 2 0;
#X connect 5 0 3 0;
#X connect 6 0 4 1;
#X connect 7 0 5 0;
#X connect 8 0 6 0;
#X connect 8 0 7 0;
#X connect 9 0 8 0;
#X restore 457 192 pd pan1;
#X obj 848 -12 inlet;
#X obj 122 118 random 10;
#X obj 123 141 / 50;
#X obj 123 165 + 0.4;
#X obj 39 108 random 10;
#X obj 40 131 / 50;
#X obj 40 155 + 0.4;
#X obj 293 118 random 10;
#X obj 294 141 / 50;
#X obj 294 165 + 0.4;
#X obj 210 108 random 10;
#X obj 211 131 / 50;
#X obj 211 155 + 0.4;
#X obj 457 125 random 10;
#X obj 458 148 / 50;
#X obj 458 172 + 0.4;
#X obj 374 115 random 10;
#X obj 375 138 / 50;
#X obj 375 162 + 0.4;
#X obj 527 45 inlet~;
#X obj 602 44 inlet~;
#N canvas 0 0 450 300 pan1 0;
#X obj 120 15 inlet;
#X obj 297 51 inlet~;
#X obj 256 225 outlet~;
#X obj 336 218 outlet~;
#X obj 251 149 *~;
#X obj 323 154 *~;
#X obj 276 122 + 1;
#X obj 335 113 * -1;
#X obj 208 75 * -1;
#X obj 160 42 clip 0 1;
#X connect 0 0 9 0;
#X connect 1 0 4 0;
#X connect 1 0 5 1;
#X connect 4 0 2 0;
#X connect 5 0 3 0;
#X connect 6 0 4 1;
#X connect 7 0 5 0;
#X connect 8 0 6 0;
#X connect 8 0 7 0;
#X connect 9 0 8 0;
#X restore 548 218 pd pan1;
#N canvas 0 0 450 300 pan1 0;
#X obj 120 15 inlet;
#X obj 297 51 inlet~;
#X obj 256 225 outlet~;
#X obj 336 218 outlet~;
#X obj 251 149 *~;
#X obj 323 154 *~;
#X obj 276 122 + 1;
#X obj 335 113 * -1;
#X obj 208 75 * -1;
#X obj 160 42 clip 0 1;
#X connect 0 0 9 0;
#X connect 1 0 4 0;
#X connect 1 0 5 1;
#X connect 4 0 2 0;
#X connect 5 0 3 0;
#X connect 6 0 4 1;
#X connect 7 0 5 0;
#X connect 8 0 6 0;
#X connect 8 0 7 0;
#X connect 9 0 8 0;
#X restore 640 214 pd pan1;
#X obj 640 147 random 10;
#X obj 641 170 / 50;
#X obj 641 194 + 0.4;
#X obj 557 137 random 10;
#X obj 558 160 / 50;
#X obj 558 184 + 0.4;
#X connect 0 0 8 1;
#X connect 1 0 9 1;
#X connect 4 0 10 1;
#X connect 5 0 11 1;
#X connect 6 0 12 1;
#X connect 7 0 13 1;
#X connect 8 0 2 0;
#X connect 8 1 3 0;
#X connect 9 0 2 0;
#X connect 9 1 3 0;
#X connect 10 0 2 0;
#X connect 10 1 3 0;
#X connect 11 0 2 0;
#X connect 11 1 3 0;
#X connect 12 0 2 0;
#X connect 12 1 3 0;
#X connect 13 0 2 0;
#X connect 13 1 3 0;
#X connect 14 0 15 0;
#X connect 14 0 18 0;
#X connect 14 0 24 0;
#X connect 14 0 21 0;
#X connect 14 0 30 0;
#X connect 14 0 27 0;
#X connect 14 0 40 0;
#X connect 14 0 37 0;
#X connect 15 0 16 0;
#X connect 16 0 17 0;
#X connect 17 0 9 0;
#X connect 18 0 19 0;
#X connect 19 0 20 0;
#X connect 20 0 8 0;
#X connect 21 0 22 0;
#X connect 22 0 23 0;
#X connect 23 0 11 0;
#X connect 24 0 25 0;
#X connect 25 0 26 0;
#X connect 26 0 10 0;
#X connect 27 0 28 0;
#X connect 28 0 29 0;
#X connect 29 0 13 0;
#X connect 30 0 31 0;
#X connect 31 0 32 0;
#X connect 32 0 12 0;
#X connect 33 0 35 1;
#X connect 34 0 36 1;
#X connect 35 0 2 0;
#X connect 35 1 3 0;
#X connect 36 0 2 0;
#X connect 36 1 3 0;
#X connect 37 0 38 0;
#X connect 38 0 39 0;
#X connect 39 0 36 0;
#X connect 40 0 41 0;
#X connect 41 0 42 0;
#X connect 42 0 35 0;
#X restore 550 830 pd fix-pan-mix-8chan;
#X obj 592 693 throw~ \$0sinefm;
#N canvas 235 186 450 300 sineoscfm 0;
#X obj 35 62 osc~;
#X obj 12 -45 mtof;
#X obj -11 -153 inlet;
#X obj 92 -94 t b b;
#X obj 121 47 line~;
#X obj 56 127 *~;
#X obj 97 90 clip~ 0 1;
#X obj 53 155 outlet~;
#X msg 144 -24 100;
#X obj 64 -35 pack f f;
#X msg 70 -66 0;
#X obj 176 -98 inlet;
#X obj 25 -92 inlet;
#X obj 31 32 +~;
#X obj 308 -33 inlet~;
#X obj 26 -3 sig~;
#X text -5 -174 bang;
#X text 25 -113 pitch;
#X text 182 -115 len;
#X text 319 -51 fm;
#X connect 0 0 5 0;
#X connect 1 0 15 0;
#X connect 2 0 3 0;
#X connect 3 0 10 0;
#X connect 3 1 8 0;
#X connect 4 0 6 0;
#X connect 5 0 7 0;
#X connect 6 0 5 1;
#X connect 8 0 4 0;
#X connect 9 0 4 0;
#X connect 10 0 9 0;
#X connect 11 0 9 1;
#X connect 12 0 1 0;
#X connect 13 0 0 0;
#X connect 14 0 13 1;
#X connect 15 0 13 0;
#X restore 770 633 pd sineoscfm;
#X obj 801 570 random 48;
#X obj 857 602 + 200;
#X obj 806 600 + 36;
#X obj 874 565 random 500;
#N canvas 235 186 450 300 sineoscfm 0;
#X obj 35 62 osc~;
#X obj 12 -45 mtof;
#X obj -11 -153 inlet;
#X obj 92 -94 t b b;
#X obj 121 47 line~;
#X obj 56 127 *~;
#X obj 97 90 clip~ 0 1;
#X obj 53 155 outlet~;
#X msg 144 -24 100;
#X obj 64 -35 pack f f;
#X msg 70 -66 0;
#X obj 176 -98 inlet;
#X obj 25 -92 inlet;
#X obj 31 32 +~;
#X obj 308 -33 inlet~;
#X obj 26 -3 sig~;
#X text -5 -174 bang;
#X text 25 -113 pitch;
#X text 182 -115 len;
#X text 319 -51 fm;
#X connect 0 0 5 0;
#X connect 1 0 15 0;
#X connect 2 0 3 0;
#X connect 3 0 10 0;
#X connect 3 1 8 0;
#X connect 4 0 6 0;
#X connect 5 0 7 0;
#X connect 6 0 5 1;
#X connect 8 0 4 0;
#X connect 9 0 4 0;
#X connect 10 0 9 0;
#X connect 11 0 9 1;
#X connect 12 0 1 0;
#X connect 13 0 0 0;
#X connect 14 0 13 1;
#X connect 15 0 13 0;
#X restore 873 662 pd sineoscfm;
#X obj 904 599 random 48;
#X obj 962 633 + 200;
#X obj 909 629 + 36;
#X obj 977 592 random 500;
#N canvas 235 186 450 300 sineoscfm 0;
#X obj 35 62 osc~;
#X obj 12 -45 mtof;
#X obj -11 -153 inlet;
#X obj 92 -94 t b b;
#X obj 121 47 line~;
#X obj 56 127 *~;
#X obj 97 90 clip~ 0 1;
#X obj 53 155 outlet~;
#X msg 144 -24 100;
#X obj 64 -35 pack f f;
#X msg 70 -66 0;
#X obj 176 -98 inlet;
#X obj 25 -92 inlet;
#X obj 31 32 +~;
#X obj 308 -33 inlet~;
#X obj 26 -3 sig~;
#X text -5 -174 bang;
#X text 25 -113 pitch;
#X text 182 -115 len;
#X text 319 -51 fm;
#X connect 0 0 5 0;
#X connect 1 0 15 0;
#X connect 2 0 3 0;
#X connect 3 0 10 0;
#X connect 3 1 8 0;
#X connect 4 0 6 0;
#X connect 5 0 7 0;
#X connect 6 0 5 1;
#X connect 8 0 4 0;
#X connect 9 0 4 0;
#X connect 10 0 9 0;
#X connect 11 0 9 1;
#X connect 12 0 1 0;
#X connect 13 0 0 0;
#X connect 14 0 13 1;
#X connect 15 0 13 0;
#X restore 1001 688 pd sineoscfm;
#X obj 1090 659 + 200;
#X obj 1037 655 + 36;
#X obj 1105 618 random 500;
#X obj 1032 625 random 64;
#N canvas 235 186 450 300 sineoscfm 0;
#X obj 35 62 osc~;
#X obj 12 -45 mtof;
#X obj -11 -153 inlet;
#X obj 92 -94 t b b;
#X obj 121 47 line~;
#X obj 56 127 *~;
#X obj 97 90 clip~ 0 1;
#X obj 53 155 outlet~;
#X msg 144 -24 100;
#X obj 64 -35 pack f f;
#X msg 70 -66 0;
#X obj 176 -98 inlet;
#X obj 25 -92 inlet;
#X obj 31 32 +~;
#X obj 308 -33 inlet~;
#X obj 26 -3 sig~;
#X text -5 -174 bang;
#X text 25 -113 pitch;
#X text 182 -115 len;
#X text 319 -51 fm;
#X connect 0 0 5 0;
#X connect 1 0 15 0;
#X connect 2 0 3 0;
#X connect 3 0 10 0;
#X connect 3 1 8 0;
#X connect 4 0 6 0;
#X connect 5 0 7 0;
#X connect 6 0 5 1;
#X connect 8 0 4 0;
#X connect 9 0 4 0;
#X connect 10 0 9 0;
#X connect 11 0 9 1;
#X connect 12 0 1 0;
#X connect 13 0 0 0;
#X connect 14 0 13 1;
#X connect 15 0 13 0;
#X restore 1135 719 pd sineoscfm;
#X obj 1224 690 + 200;
#X obj 1171 686 + 36;
#X obj 1239 649 random 500;
#X obj 1166 656 random 64;
#X obj 1289 535 *~;
#X msg 1227 292 bang;
#X obj 1119 502 *~;
#X obj 1001 521 *~;
#X obj 1027 376 random 2000;
#X obj 888 453 *~;
#X obj 915 358 random 2000;
#X obj 756 482 *~;
#X obj 807 338 random 2000;
#X obj 263 812 tabwrite~ \$0sample1;
#X obj 285 785 metro 4000;
#X obj 148 701 t b f;
#X obj 123 816 line~;
#X msg 112 788 0.9;
#X msg 177 792 1 400;
#X msg 85 762 set \$1;
#X obj 121 891 tabread4~ \$0sample1;
#X obj 194 704 - 1;
#X obj 222 710 * -1;
#X msg 185 768 set 1 \$1;
#X obj 200 746 * 4000;
#X obj 152 731 t b b;
#X obj 159 672 moses 0.01;
#X obj 122 867 *~ 176400;
#X obj 263 835 table \$0sample1 176400;
#X obj 123 842 wrap~;
#X obj 140 582 change;
#X obj 280 757 *~ 0.4;
#X msg 128 485 0.1;
#X msg 166 502 0.4;
#X msg 186 532 0.5;
#X msg 225 548 0.7;
#X msg 176 467 0.3;
#X msg 224 495 0.8;
#X msg 256 522 0.9;
#X msg 131 449 0.2;
#X obj 165 641 pipe;
#X obj 236 587 pow -1;
#X obj 534 175 mod;
#X obj 536 196 == 0;
#X obj 536 220 moses 0.1;
#X obj 576 276 random 8;
#X obj 566 251 t b;
#X obj 567 153 random 64;
#X obj 566 173 + 64;
#X obj 920 289 select 0 1 2 3 4;
#X obj 915 253 random 4;
#X obj 812 163 mod;
#X obj 814 184 == 0;
#X obj 814 208 moses 0.1;
#X obj 894 207 t b;
#X obj 845 141 random 64;
#X obj 844 161 + 64;
#X obj 218 614 *;
#X obj 286 561 random 4;
#X obj 292 588 + 1;
#X obj 1320 578 *~;
#X obj 1402 533 osc~;
#X obj 1397 556 +~ 1;
#X obj 1416 486 random 200;
#X obj 1412 509 / 400;
#X obj 1175 526 osc~;
#X obj 1170 549 +~ 1;
#X obj 1189 479 random 200;
#X obj 1185 502 / 400;
#X obj 1136 576 *~;
#X obj 937 486 osc~;
#X obj 932 509 +~ 1;
#X obj 951 439 random 200;
#X obj 947 462 / 400;
#X obj 868 536 *~;
#X obj 459 831 moses 0.01;
#N canvas 0 221 1193 615 seq16 0;
#X obj 5 -45 inlet;
#X obj 289 412 outlet;
#X obj -75 199 select 0 1 2 3 4 5 6 7 8 9 10 11 12 13 14 15;
#X floatatom 278 167 3 0 128 0 - - -;
#X obj -49 120 mod 16;
#X floatatom 303 167 3 0 128 0 - - -;
#X floatatom 328 167 3 0 128 0 - - -;
#X floatatom 353 167 3 0 128 0 - - -;
#X floatatom 381 167 3 0 128 0 - - -;
#X floatatom 406 167 3 0 128 0 - - -;
#X floatatom 431 167 3 0 128 0 - - -;
#X floatatom 456 167 3 0 128 0 - - -;
#X floatatom 484 167 3 0 128 0 - - -;
#X floatatom 509 167 3 0 128 0 - - -;
#X floatatom 534 167 3 0 128 0 - - -;
#X floatatom 559 167 3 0 128 0 - - -;
#X floatatom 587 167 3 0 128 0 - - -;
#X floatatom 612 167 3 0 128 0 - - -;
#X floatatom 637 167 3 0 128 0 - - -;
#X floatatom 662 167 3 0 128 0 - - -;
#X obj 290 372 / 128;
#X obj -96 271 int;
#X obj -67 270 int;
#X obj -6 269 int;
#X obj -36 268 int;
#X obj 26 271 int;
#X obj 55 270 int;
#X obj 116 269 int;
#X obj 86 268 int;
#X obj 151 268 int;
#X obj 180 267 int;
#X obj 241 266 int;
#X obj 211 265 int;
#X obj 273 268 int;
#X obj 302 267 int;
#X obj 363 266 int;
#X obj 333 265 int;
#X obj 337 111 route 0 1 2 3 4 5 6 7 8 9 10 11 12 13 14 15;
#X msg 583 -33 0;
#X obj 715 9 random 16;
#X obj 730 -100 t b b;
#X obj 730 80 pack f f;
#X obj 772 -128 inlet;
#X text 816 -130 random-step/pause set;
#X obj 809 -10 random 128;
#X obj 808 14 - 64;
#X obj 810 35 clip 0 64;
#X obj 810 59 * 2;
#X obj 443 264 outlet;
#X obj 70 -43 inlet;
#X connect 0 0 4 0;
#X connect 2 0 21 0;
#X connect 2 1 22 0;
#X connect 2 2 24 0;
#X connect 2 3 23 0;
#X connect 2 4 25 0;
#X connect 2 5 26 0;
#X connect 2 6 28 0;
#X connect 2 7 27 0;
#X connect 2 8 29 0;
#X connect 2 9 30 0;
#X connect 2 10 32 0;
#X connect 2 11 31 0;
#X connect 2 12 33 0;
#X connect 2 13 34 0;
#X connect 2 14 36 0;
#X connect 2 15 35 0;
#X connect 2 15 48 0;
#X connect 3 0 21 1;
#X connect 4 0 2 0;
#X connect 5 0 22 1;
#X connect 6 0 24 1;
#X connect 7 0 23 1;
#X connect 8 0 25 1;
#X connect 9 0 26 1;
#X connect 10 0 28 1;
#X connect 11 0 27 1;
#X connect 12 0 29 1;
#X connect 13 0 30 1;
#X connect 14 0 32 1;
#X connect 15 0 31 1;
#X connect 16 0 33 1;
#X connect 17 0 34 1;
#X connect 18 0 36 1;
#X connect 19 0 35 1;
#X connect 20 0 1 0;
#X connect 21 0 20 0;
#X connect 22 0 20 0;
#X connect 23 0 20 0;
#X connect 24 0 20 0;
#X connect 25 0 20 0;
#X connect 26 0 20 0;
#X connect 27 0 20 0;
#X connect 28 0 20 0;
#X connect 29 0 20 0;
#X connect 30 0 20 0;
#X connect 31 0 20 0;
#X connect 32 0 20 0;
#X connect 33 0 20 0;
#X connect 34 0 20 0;
#X connect 35 0 20 0;
#X connect 36 0 20 0;
#X connect 37 0 3 0;
#X connect 37 1 5 0;
#X connect 37 2 6 0;
#X connect 37 3 7 0;
#X connect 37 4 8 0;
#X connect 37 5 9 0;
#X connect 37 6 10 0;
#X connect 37 7 11 0;
#X connect 37 8 12 0;
#X connect 37 9 13 0;
#X connect 37 10 14 0;
#X connect 37 11 15 0;
#X connect 37 12 16 0;
#X connect 37 13 17 0;
#X connect 37 14 18 0;
#X connect 37 15 19 0;
#X connect 38 0 3 0;
#X connect 38 0 5 0;
#X connect 38 0 6 0;
#X connect 38 0 7 0;
#X connect 38 0 8 0;
#X connect 38 0 9 0;
#X connect 38 0 10 0;
#X connect 38 0 11 0;
#X connect 38 0 12 0;
#X connect 38 0 13 0;
#X connect 38 0 14 0;
#X connect 38 0 15 0;
#X connect 38 0 16 0;
#X connect 38 0 17 0;
#X connect 38 0 18 0;
#X connect 38 0 19 0;
#X connect 39 0 41 0;
#X connect 40 0 39 0;
#X connect 40 1 44 0;
#X connect 41 0 37 0;
#X connect 42 0 40 0;
#X connect 44 0 45 0;
#X connect 45 0 46 0;
#X connect 46 0 47 0;
#X connect 47 0 41 1;
#X connect 49 0 4 1;
#X coords 0 0 1 1 410 40 0;
#X restore 460 803 pd seq16;
#N canvas 20 274 455 441 clix 0;
#X obj 63 -20 inlet;
#X obj 113 284 outlet~;
#X obj 85 193 osc~;
#X obj 61 160 mtof;
#X obj 126 248 *~;
#X obj 217 172 *~;
#X obj 236 145 vline~;
#X msg 192 94 0 48;
#X msg 295 68 set 0 \$1;
#X obj 51 105 random 40;
#X obj 51 127 + 10;
#X obj 295 24 random 40;
#X obj 295 46 + 10;
#X obj 185 220 *~;
#X obj 293 -9 inlet;
#X obj 223 36 t b b b;
#X msg 277 94 0.6;
#X connect 0 0 13 1;
#X connect 0 0 15 0;
#X connect 2 0 4 0;
#X connect 3 0 2 0;
#X connect 4 0 1 0;
#X connect 5 0 13 0;
#X connect 6 0 5 1;
#X connect 6 0 5 0;
#X connect 7 0 6 0;
#X connect 8 0 7 0;
#X connect 9 0 10 0;
#X connect 10 0 3 0;
#X connect 11 0 12 0;
#X connect 12 0 8 0;
#X connect 13 0 4 1;
#X connect 14 0 11 0;
#X connect 15 0 7 0;
#X connect 15 1 16 0;
#X connect 15 2 11 0;
#X connect 15 2 9 0;
#X connect 16 0 6 0;
#X restore 476 866 pd clix;
#X msg 405 774 bang;
#X obj 478 892 *~ 2;
#X obj 337 900 mod;
#X obj 339 921 == 0;
#X obj 339 945 moses 0.1;
#X obj 419 944 t b;
#X obj 369 898 + 16;
#X obj 370 878 random 24;
#X obj 476 760 random 6;
#X obj 479 781 + 11;
#X obj 1052 510 osc~;
#X obj 1047 533 +~ 1;
#X obj 1053 461 random 200;
#X obj 1062 486 / 400;
#X obj 991 569 *~;
#X obj 1312 424 random 2000;
#X obj 1130 402 random 20700;
#X obj 1139 451 clip 0 600;
#X obj 1322 479 clip 0 800;
#X obj 1041 432 clip 0 700;
#X obj 927 412 clip 0 600;
#X obj 819 392 clip 0 500;
#X obj 811 367 - 1500;
#X obj 919 387 - 1400;
#X obj 1031 405 - 1300;
#X obj 1131 426 - 1400;
#X obj 1315 454 - 1200;
#X obj 810 464 osc~;
#X obj 796 487 +~ 1;
#X obj 824 417 random 200;
#X obj 820 440 / 400;
#X obj 747 512 *~;
#N canvas 70 55 473 398 dist1s 0;
#X obj 20 96 inlet~;
#X obj 16 239 /~;
#X obj 44 180 abs~;
#X obj 59 212 +~;
#X obj 23 133 *~;
#X obj 20 276 outlet~;
#X obj 126 115 hsl 128 8 1 5 0 1 empty empty empty -2 -6 0 8 -262144
-1 -1 400 1;
#X obj 126 129 hsl 128 8 0.1 0.8 0 1 empty empty empty -2 -6 0 8 -262144
-1 -1 12700 1;
#X obj -63 93 inlet~;
#X obj -67 236 /~;
#X obj -39 177 abs~;
#X obj -24 209 +~;
#X obj -60 130 *~;
#X obj -65 277 outlet~;
#X text 101 181 needs pd >=0.42-5 or zexy;
#X connect 0 0 4 0;
#X connect 1 0 5 0;
#X connect 2 0 3 0;
#X connect 3 0 1 1;
#X connect 4 0 1 0;
#X connect 4 0 2 0;
#X connect 6 0 4 1;
#X connect 6 0 12 1;
#X connect 7 0 3 1;
#X connect 7 0 11 1;
#X connect 8 0 12 0;
#X connect 9 0 13 0;
#X connect 10 0 11 0;
#X connect 11 0 9 1;
#X connect 12 0 9 0;
#X connect 12 0 10 0;
#X coords 0 -1 1 1 160 40 1 100 100;
#X restore 569 1061 pd dist1s;
#X obj 548 857 *~ 0.5;
#X obj 688 860 *~ 0.5;
#N canvas 316 258 649 492 beatdelay1 0;
#X obj 26 93 inlet~;
#X obj 187 62 inlet;
#X obj 186 458 outlet~;
#X floatatom 189 143 5 0 0 0 - - -;
#X obj 188 162 pow -1;
#X obj 254 156 + 1;
#X obj 188 185 / 4;
#X obj 201 208 *;
#X obj 212 236 * 60000;
#X obj 14 182 +~;
#X obj 55 155 *~;
#X obj 28 34 hsl 96 8 0 0.95 0 1 empty empty fb -16 5 0 8 -262144 -1
-1 8200 1;
#X text 230 61 <- bpm in;
#X obj 180 8 loadbang;
#X floatatom 255 127 5 0 0 0 - - -;
#X obj 124 95 t b b;
#X obj 28 47 hsl 96 8 0 1 0 1 empty empty d/w -22 5 0 8 -262144 -1
-1 7400 1;
#X obj 184 424 +~;
#X obj 206 394 *~;
#X obj 134 392 *~;
#X obj -1 297 * -1;
#X obj 3 328 + 1;
#X text 300 4 beatsynced delay with feedback;
#X text 3 270 <- unique name for delayline! ->;
#X obj -131 266 delwrite~ \$0bdl1 2000;
#X obj 230 273 vd~ \$0bdl1;
#X obj 318 37 inlet;
#X obj 318 65 t b f;
#X connect 0 0 9 0;
#X connect 0 0 19 1;
#X connect 1 0 3 0;
#X connect 3 0 4 0;
#X connect 4 0 6 0;
#X connect 5 0 7 1;
#X connect 6 0 7 0;
#X connect 7 0 8 0;
#X connect 8 0 25 0;
#X connect 9 0 24 0;
#X connect 10 0 9 1;
#X connect 11 0 10 1;
#X connect 13 0 15 0;
#X connect 14 0 5 0;
#X connect 15 0 3 0;
#X connect 15 1 14 0;
#X connect 16 0 18 0;
#X connect 16 0 20 0;
#X connect 17 0 2 0;
#X connect 18 0 17 1;
#X connect 19 0 17 0;
#X connect 20 0 21 0;
#X connect 21 0 19 0;
#X connect 25 0 10 0;
#X connect 25 0 18 1;
#X connect 26 0 27 0;
#X connect 27 0 15 0;
#X connect 27 1 14 0;
#X coords 0 0 1 1 130 60 0;
#X restore 1104 841 pd beatdelay1;
#X obj 1288 771 int;
#X obj 1243 725 mod 12;
#X obj 1244 755 + 36;
#X obj 1360 763 mod 12;
#X obj 1363 789 + 48;
#X obj 1184 759 mod 12;
#X obj 1400 701 mod 12;
#X obj 1392 725 + 36;
#X msg 1341 822 bang;
#N canvas 208 101 817 633 autostrings1 0;
#N canvas 0 0 505 422 envfollow 0;
#X obj 99 181 inlet~;
#X obj 106 314 clip~ 0 1;
#X obj 108 351 outlet~;
#X text 168 259 cutoff controls speed;
#X text 183 229 simple env follower(ish);
#X obj 96 223 *~;
#X obj 99 251 lop~ 0.3;
#X obj 103 280 *~ 7;
#X connect 0 0 5 0;
#X connect 0 0 5 1;
#X connect 1 0 2 0;
#X connect 5 0 6 0;
#X connect 6 0 7 0;
#X connect 7 0 1 0;
#X restore -124 374 pd envfollow;
#N canvas 281 80 470 578 pulse-osc1 0;
#X obj 113 469 outlet~;
#X obj -2 200 mtof;
#X obj -7 166 inlet;
#X obj 192 182 inlet;
#X text 239 181 <-pwm;
#X obj 45 242 osc~;
#X obj 46 267 *~ 1000;
#X obj 55 299 +~;
#X obj 113 268 * 1000;
#X obj 94 338 clip~ -1 1;
#X text 34 162 <- p;
#X connect 1 0 5 0;
#X connect 2 0 1 0;
#X connect 3 0 8 0;
#X connect 5 0 6 0;
#X connect 6 0 7 0;
#X connect 7 0 9 0;
#X connect 8 0 7 1;
#X connect 9 0 0 0;
#X coords 0 0 1 1 150 35 0;
#X restore -7 51 pd pulse-osc1;
#X obj -131 333 inlet~;
#N canvas 442 189 474 579 flngr1 0;
#N canvas 0 0 839 632 fbdelay 0;
#X obj 31 159 inlet~;
#X obj 321 477 outlet~;
#X obj 140 353 +~;
#X obj 176 328 *~;
#X text 320 159 <-delaytime (ms);
#X obj 395 198 inlet;
#X text 439 201 <- fb 0 < fb < 1;
#X obj 267 161 inlet~;
#X obj 279 202 vd~ \$0flngrmc1;
#X obj 137 391 delwrite~ \$0flngrmc1 100;
#X obj 93 80 block~ 4;
#X connect 0 0 2 0;
#X connect 2 0 9 0;
#X connect 3 0 2 1;
#X connect 5 0 3 1;
#X connect 7 0 8 0;
#X connect 8 0 1 0;
#X connect 8 0 3 0;
#X coords 0 0 1 1 180 60 0;
#X restore 168 486 pd fbdelay;
#X obj 110 311 osc~;
#X obj 257 75 vsl 8 128 0 0.99 0 1 empty empty fb 0 -8 0 8 -262144
-1 -1 2987 1;
#X obj 65 375 inlet~;
#X obj 168 522 outlet~;
#X obj 327 203 vsl 8 128 1 24 0 1 empty empty dl 0 -8 0 8 -262144 -1
-1 1500 1;
#X obj 111 336 +~ 0.5;
#X obj 313 202 vsl 8 128 0 16 0 1 empty empty dp 0 -8 0 8 -262144 -1
-1 1900 1;
#X obj 178 443 +~;
#X obj 152 417 *~;
#X obj 127 65 vsl 8 128 0.01 32 1 1 empty empty sp 0 -8 0 8 -262144
-1 -1 2300 1;
#X obj 175 253 loadbang;
#X msg 168 280 1;
#X obj 313 6 inlet;
#X obj 318 54 random 200;
#X obj 322 89 / 700;
#X obj 155 0 random 1000;
#X obj 138 27 / 1000;
#X connect 0 0 4 0;
#X connect 1 0 6 0;
#X connect 2 0 0 2;
#X connect 3 0 0 0;
#X connect 5 0 8 1;
#X connect 6 0 9 0;
#X connect 7 0 9 1;
#X connect 8 0 0 1;
#X connect 9 0 8 0;
#X connect 10 0 1 0;
#X connect 11 0 12 0;
#X connect 12 0 1 1;
#X connect 13 0 14 0;
#X connect 14 0 15 0;
#X connect 15 0 2 0;
#X connect 16 0 17 0;
#X connect 17 0 10 0;
#X coords 0 0 1 1 60 160 0;
#X restore 45 305 pd flngr1;
#X obj 39 523 outlet~;
#X obj 33 494 *~;
#X obj -55 -9 inlet;
#X obj -8 79 *~ 1;
#X obj 17 -5 inlet;
#X obj 18 140 *~ 1;
#N canvas 281 80 470 578 pulse-osc2 0;
#X obj 113 469 outlet~;
#X obj -2 200 mtof;
#X obj -7 166 inlet;
#X obj 192 182 inlet;
#X text 239 181 <-pwm;
#X obj 45 242 osc~;
#X obj 46 267 *~ 1000;
#X obj 55 299 +~;
#X obj 113 268 * 1000;
#X obj 94 338 clip~ -1 1;
#X text 34 162 <- p;
#X connect 1 0 5 0;
#X connect 2 0 1 0;
#X connect 3 0 8 0;
#X connect 5 0 6 0;
#X connect 6 0 7 0;
#X connect 7 0 9 0;
#X connect 8 0 7 1;
#X connect 9 0 0 0;
#X coords 0 0 1 1 150 35 0;
#X restore 19 111 pd pulse-osc2;
#X obj 68 81 inlet;
#X obj 110 166 *~ 1;
#X obj 141 97 inlet;
#X obj 157 235 *~ 1;
#N canvas 281 80 470 578 pulse-osc3 0;
#X obj 113 469 outlet~;
#X obj -2 200 mtof;
#X obj -7 166 inlet;
#X obj 192 182 inlet;
#X text 239 181 <-pwm;
#X obj 45 242 osc~;
#X obj 46 267 *~ 1000;
#X obj 55 299 +~;
#X obj 113 268 * 1000;
#X obj 94 338 clip~ -1 1;
#X text 34 162 <- p;
#X connect 1 0 5 0;
#X connect 2 0 1 0;
#X connect 3 0 8 0;
#X connect 5 0 6 0;
#X connect 6 0 7 0;
#X connect 7 0 9 0;
#X connect 8 0 7 1;
#X connect 9 0 0 0;
#X coords 0 0 1 1 150 35 0;
#X restore 111 138 pd pulse-osc3;
#N canvas 281 80 470 578 pulse-osc4 0;
#X obj 113 469 outlet~;
#X obj -2 200 mtof;
#X obj -7 166 inlet;
#X obj 192 182 inlet;
#X text 239 181 <-pwm;
#X obj 45 242 osc~;
#X obj 46 267 *~ 1000;
#X obj 55 299 +~;
#X obj 113 268 * 1000;
#X obj 94 338 clip~ -1 1;
#X text 34 162 <- p;
#X connect 1 0 5 0;
#X connect 2 0 1 0;
#X connect 3 0 8 0;
#X connect 5 0 6 0;
#X connect 6 0 7 0;
#X connect 7 0 9 0;
#X connect 8 0 7 1;
#X connect 9 0 0 0;
#X coords 0 0 1 1 150 35 0;
#X restore 158 206 pd pulse-osc4;
#X msg 72 -38 bang;
#N canvas 187 182 588 521 rndline1 0;
#X obj 166 290 pack;
#X obj 130 135 random 1000;
#X obj 130 156 / 1000;
#X obj 135 361 ==;
#X obj 159 324 line;
#X obj 241 187 exp;
#X obj 236 159 / 100;
#X obj 93 16 inlet;
#X text 139 18 start;
#X obj 251 413 outlet;
#X obj 90 396 moses 0.1;
#X obj 98 43 t b b;
#X obj 34 454 delay 1000;
#X obj 244 210 int;
#X obj 234 134 random 950;
#X obj 196 264 + 300;
#X obj 313 334 +;
#X obj 333 238 random 950;
#X connect 0 0 4 0;
#X connect 1 0 2 0;
#X connect 2 0 0 0;
#X connect 2 0 3 1;
#X connect 3 0 10 0;
#X connect 4 0 9 0;
#X connect 4 0 3 0;
#X connect 5 0 13 0;
#X connect 6 0 5 0;
#X connect 7 0 11 0;
#X connect 10 1 12 0;
#X connect 11 0 1 0;
#X connect 11 0 14 0;
#X connect 11 1 17 0;
#X connect 12 0 11 0;
#X connect 13 0 15 0;
#X connect 13 0 16 0;
#X connect 13 0 17 1;
#X connect 14 0 6 0;
#X connect 15 0 0 1;
#X connect 16 0 12 1;
#X connect 17 0 16 1;
#X restore 322 67 pd rndline1;
#N canvas 187 182 588 521 rndline1pw 0;
#X obj 166 290 pack;
#X obj 130 135 random 1000;
#X obj 130 156 / 1000;
#X obj 135 361 ==;
#X obj 159 324 line;
#X obj 241 187 exp;
#X obj 236 159 / 100;
#X obj 93 16 inlet;
#X text 139 18 start;
#X obj 251 413 outlet;
#X obj 90 396 moses 0.1;
#X obj 98 43 t b b;
#X obj 34 454 delay 1000;
#X obj 244 210 int;
#X obj 234 134 random 950;
#X obj 196 264 + 300;
#X obj 313 334 +;
#X obj 333 238 random 950;
#X connect 0 0 4 0;
#X connect 1 0 2 0;
#X connect 2 0 0 0;
#X connect 2 0 3 1;
#X connect 3 0 10 0;
#X connect 4 0 9 0;
#X connect 4 0 3 0;
#X connect 5 0 13 0;
#X connect 6 0 5 0;
#X connect 7 0 11 0;
#X connect 10 1 12 0;
#X connect 11 0 1 0;
#X connect 11 0 14 0;
#X connect 11 1 17 0;
#X connect 12 0 11 0;
#X connect 13 0 15 0;
#X connect 13 0 16 0;
#X connect 13 0 17 1;
#X connect 14 0 6 0;
#X connect 15 0 0 1;
#X connect 16 0 12 1;
#X connect 17 0 16 1;
#X restore 171 -10 pd rndline1pw;
#N canvas 187 182 588 521 rndline2pw 0;
#X obj 166 290 pack;
#X obj 130 135 random 1000;
#X obj 130 156 / 1000;
#X obj 135 361 ==;
#X obj 159 324 line;
#X obj 241 187 exp;
#X obj 236 159 / 100;
#X obj 93 16 inlet;
#X text 139 18 start;
#X obj 251 413 outlet;
#X obj 90 396 moses 0.1;
#X obj 98 43 t b b;
#X obj 34 454 delay 1000;
#X obj 244 210 int;
#X obj 234 134 random 950;
#X obj 196 264 + 300;
#X obj 313 334 +;
#X obj 333 238 random 950;
#X connect 0 0 4 0;
#X connect 1 0 2 0;
#X connect 2 0 0 0;
#X connect 2 0 3 1;
#X connect 3 0 10 0;
#X connect 4 0 9 0;
#X connect 4 0 3 0;
#X connect 5 0 13 0;
#X connect 6 0 5 0;
#X connect 7 0 11 0;
#X connect 10 1 12 0;
#X connect 11 0 1 0;
#X connect 11 0 14 0;
#X connect 11 1 17 0;
#X connect 12 0 11 0;
#X connect 13 0 15 0;
#X connect 13 0 16 0;
#X connect 13 0 17 1;
#X connect 14 0 6 0;
#X connect 15 0 0 1;
#X connect 16 0 12 1;
#X connect 17 0 16 1;
#X restore 248 20 pd rndline2pw;
#N canvas 187 182 588 521 rndline2 0;
#X obj 166 290 pack;
#X obj 130 135 random 1000;
#X obj 130 156 / 1000;
#X obj 135 361 ==;
#X obj 159 324 line;
#X obj 241 187 exp;
#X obj 236 159 / 100;
#X obj 93 16 inlet;
#X text 139 18 start;
#X obj 251 413 outlet;
#X obj 90 396 moses 0.1;
#X obj 98 43 t b b;
#X obj 34 454 delay 1000;
#X obj 244 210 int;
#X obj 234 134 random 950;
#X obj 196 264 + 300;
#X obj 313 334 +;
#X obj 333 238 random 950;
#X connect 0 0 4 0;
#X connect 1 0 2 0;
#X connect 2 0 0 0;
#X connect 2 0 3 1;
#X connect 3 0 10 0;
#X connect 4 0 9 0;
#X connect 4 0 3 0;
#X connect 5 0 13 0;
#X connect 6 0 5 0;
#X connect 7 0 11 0;
#X connect 10 1 12 0;
#X connect 11 0 1 0;
#X connect 11 0 14 0;
#X connect 11 1 17 0;
#X connect 12 0 11 0;
#X connect 13 0 15 0;
#X connect 13 0 16 0;
#X connect 13 0 17 1;
#X connect 14 0 6 0;
#X connect 15 0 0 1;
#X connect 16 0 12 1;
#X connect 17 0 16 1;
#X restore 308 91 pd rndline2;
#N canvas 187 182 588 521 rndline1 0;
#X obj 166 290 pack;
#X obj 130 135 random 1000;
#X obj 130 156 / 1000;
#X obj 135 361 ==;
#X obj 159 324 line;
#X obj 241 187 exp;
#X obj 236 159 / 100;
#X obj 93 16 inlet;
#X text 139 18 start;
#X obj 251 413 outlet;
#X obj 90 396 moses 0.1;
#X obj 98 43 t b b;
#X obj 34 454 delay 1000;
#X obj 244 210 int;
#X obj 234 134 random 950;
#X obj 196 264 + 300;
#X obj 313 334 +;
#X obj 333 238 random 950;
#X connect 0 0 4 0;
#X connect 1 0 2 0;
#X connect 2 0 0 0;
#X connect 2 0 3 1;
#X connect 3 0 10 0;
#X connect 4 0 9 0;
#X connect 4 0 3 0;
#X connect 5 0 13 0;
#X connect 6 0 5 0;
#X connect 7 0 11 0;
#X connect 10 1 12 0;
#X connect 11 0 1 0;
#X connect 11 0 14 0;
#X connect 11 1 17 0;
#X connect 12 0 11 0;
#X connect 13 0 15 0;
#X connect 13 0 16 0;
#X connect 13 0 17 1;
#X connect 14 0 6 0;
#X connect 15 0 0 1;
#X connect 16 0 12 1;
#X connect 17 0 16 1;
#X restore 296 117 pd rndline1;
#N canvas 187 182 588 521 rndline2 0;
#X obj 166 290 pack;
#X obj 130 135 random 1000;
#X obj 130 156 / 1000;
#X obj 135 361 ==;
#X obj 159 324 line;
#X obj 241 187 exp;
#X obj 236 159 / 100;
#X obj 93 16 inlet;
#X text 139 18 start;
#X obj 251 413 outlet;
#X obj 90 396 moses 0.1;
#X obj 98 43 t b b;
#X obj 34 454 delay 1000;
#X obj 244 210 int;
#X obj 234 134 random 950;
#X obj 196 264 + 300;
#X obj 313 334 +;
#X obj 333 238 random 950;
#X connect 0 0 4 0;
#X connect 1 0 2 0;
#X connect 2 0 0 0;
#X connect 2 0 3 1;
#X connect 3 0 10 0;
#X connect 4 0 9 0;
#X connect 4 0 3 0;
#X connect 5 0 13 0;
#X connect 6 0 5 0;
#X connect 7 0 11 0;
#X connect 10 1 12 0;
#X connect 11 0 1 0;
#X connect 11 0 14 0;
#X connect 11 1 17 0;
#X connect 12 0 11 0;
#X connect 13 0 15 0;
#X connect 13 0 16 0;
#X connect 13 0 17 1;
#X connect 14 0 6 0;
#X connect 15 0 0 1;
#X connect 16 0 12 1;
#X connect 17 0 16 1;
#X restore 283 142 pd rndline2;
#X obj 75 -65 t b b;
#X obj 382 -89 inlet;
#X text 428 -87 randomize envs and flanger;
#X connect 0 0 5 1;
#X connect 1 0 7 0;
#X connect 2 0 0 0;
#X connect 3 0 5 0;
#X connect 5 0 4 0;
#X connect 6 0 1 0;
#X connect 7 0 3 0;
#X connect 8 0 10 0;
#X connect 9 0 3 0;
#X connect 10 0 9 0;
#X connect 11 0 15 0;
#X connect 12 0 3 0;
#X connect 13 0 16 0;
#X connect 14 0 3 0;
#X connect 15 0 12 0;
#X connect 16 0 14 0;
#X connect 17 0 19 0;
#X connect 17 0 20 0;
#X connect 17 0 18 0;
#X connect 17 0 21 0;
#X connect 17 0 22 0;
#X connect 17 0 23 0;
#X connect 18 0 7 1;
#X connect 19 0 1 1;
#X connect 19 0 15 1;
#X connect 20 0 10 1;
#X connect 20 0 16 1;
#X connect 21 0 9 1;
#X connect 22 0 12 1;
#X connect 23 0 14 1;
#X connect 24 0 17 0;
#X connect 24 0 3 1;
#X connect 24 1 17 0;
#X connect 25 0 24 0;
#X coords 0 0 1 1 290 250 0;
#X restore 1109 871 pd autostrings1;
#X obj 1283 745 / 2;
#X obj 1081 779 *~;
#X obj 1119 806 hip~ 200;
#N canvas 0 81 979 632 dualdelay1m 0;
#X obj -84 383 inlet~;
#X obj 331 212 inlet;
#X obj 382 316 pow -1;
#X obj 382 339 / 4;
#X obj 395 362 *;
#X obj 396 387 * 60000;
#X obj 232 440 +~;
#X obj 257 367 *~;
#X text 369 215 <- bpm in;
#X obj 530 998 outlet~;
#X obj 364 667 *;
#X obj 366 697 * 60000;
#X obj 173 641 +~;
#X obj 209 616 *~;
#X obj 41 90 vsl 8 100 20 120 0 1 empty empty cut 0 110 1 8 -233017
-1 -1 5900 1;
#X obj 68 324 mtof;
#X obj 597 863 +~;
#X obj 510 516 *~;
#X obj 525 546 +~;
#X obj 559 520 *~;
#X obj 378 779 *~;
#X obj 393 809 +~;
#X obj 415 786 *~;
#X obj 40 296 +;
#X obj 159 268 +;
#X obj 531 964 +~;
#X obj 553 934 *~;
#X obj 483 932 *~;
#X obj 513 37 inlet;
#X text 559 38 <- sync-in;
#X text 403 151 1 beatsynced delay for high - and one for low frequencies
;
#X obj 243 479 delwrite~ \$0ddl-hl 2000;
#X obj 148 699 delwrite~ \$0ddl-ll 2000;
#X text 560 424 <-unique delaybuffer name!;
#X text 13 443 unique delaybuffer name! ->;
#X text -82 696 unique delaybuffer name2! ->;
#X text 513 734 <-unique delaybuffer name2!;
#X obj 158 583 vcf~;
#X obj 2 383 hip~;
#X obj 106 538 lop~;
#X obj 26 415 vcf~;
#X obj 120 498 mtof;
#X obj 104 470 + 24;
#X obj 428 423 delread~ \$0ddl-hl;
#X obj 386 732 delread~ \$0ddl-ll;
#X obj 658 195 t b b;
#X obj 675 30 inlet;
#X obj 461 240 random 8;
#X obj 460 264 + 1;
#X obj 566 256 random 8;
#X obj 565 280 + 1;
#X obj 664 55 t b b;
#X obj 378 272 int;
#X floatatom 472 388 5 0 0 0 - - -;
#X floatatom 571 312 5 0 0 0 - - -;
#X msg 201 233 6;
#N canvas 187 182 588 521 rndline1 0;
#X obj 166 290 pack;
#X obj 130 135 random 1000;
#X obj 130 156 / 1000;
#X obj 135 361 ==;
#X obj 159 324 line;
#X obj 241 187 exp;
#X obj 236 159 / 100;
#X obj 93 16 inlet;
#X text 139 18 start;
#X obj 251 413 outlet;
#X obj 90 396 moses 0.1;
#X obj 98 43 t b b;
#X obj 34 454 delay 1000;
#X obj 244 210 int;
#X obj 234 134 random 950;
#X obj 196 264 + 300;
#X obj 313 334 +;
#X obj 333 238 random 950;
#X connect 0 0 4 0;
#X connect 1 0 2 0;
#X connect 2 0 0 0;
#X connect 2 0 3 1;
#X connect 3 0 10 0;
#X connect 4 0 9 0;
#X connect 4 0 3 0;
#X connect 5 0 13 0;
#X connect 6 0 5 0;
#X connect 7 0 11 0;
#X connect 10 1 12 0;
#X connect 11 0 1 0;
#X connect 11 0 14 0;
#X connect 11 1 17 0;
#X connect 12 0 11 0;
#X connect 13 0 15 0;
#X connect 13 0 16 0;
#X connect 13 0 17 1;
#X connect 14 0 6 0;
#X connect 15 0 0 1;
#X connect 16 0 12 1;
#X connect 17 0 16 1;
#X restore 80 152 pd rndline1;
#N canvas 187 182 588 521 rndline2 0;
#X obj 166 290 pack;
#X obj 130 135 random 1000;
#X obj 130 156 / 1000;
#X obj 135 361 ==;
#X obj 159 324 line;
#X obj 241 187 exp;
#X obj 236 159 / 100;
#X obj 93 16 inlet;
#X text 139 18 start;
#X obj 251 413 outlet;
#X obj 90 396 moses 0.1;
#X obj 98 43 t b b;
#X obj 34 454 delay 1000;
#X obj 244 210 int;
#X obj 234 134 random 950;
#X obj 196 264 + 300;
#X obj 313 334 +;
#X obj 333 238 random 950;
#X connect 0 0 4 0;
#X connect 1 0 2 0;
#X connect 2 0 0 0;
#X connect 2 0 3 1;
#X connect 3 0 10 0;
#X connect 4 0 9 0;
#X connect 4 0 3 0;
#X connect 5 0 13 0;
#X connect 6 0 5 0;
#X connect 7 0 11 0;
#X connect 10 1 12 0;
#X connect 11 0 1 0;
#X connect 11 0 14 0;
#X connect 11 1 17 0;
#X connect 12 0 11 0;
#X connect 13 0 15 0;
#X connect 13 0 16 0;
#X connect 13 0 17 1;
#X connect 14 0 6 0;
#X connect 15 0 0 1;
#X connect 16 0 12 1;
#X connect 17 0 16 1;
#X restore -71 235 pd rndline2;
#X obj -62 266 * 40;
#X msg 425 898 0.15;
#X msg 543 898 0.85;
#X obj 118 204 * 4;
#X msg 777 267 0.7;
#X msg 815 268 0.3;
#X msg 735 295 0.6;
#X obj 487 326 ==;
#X obj 526 205 t b b;
#X obj 465 349 +;
#X msg 737 62 bang;
#X obj 455 297 t f f;
#X connect 0 0 27 1;
#X connect 0 0 38 0;
#X connect 0 0 39 0;
#X connect 1 0 52 0;
#X connect 2 0 3 0;
#X connect 3 0 4 0;
#X connect 3 0 10 0;
#X connect 4 0 5 0;
#X connect 5 0 43 0;
#X connect 6 0 17 1;
#X connect 6 0 31 0;
#X connect 7 0 6 1;
#X connect 10 0 11 0;
#X connect 11 0 44 0;
#X connect 12 0 20 1;
#X connect 12 0 32 0;
#X connect 13 0 12 1;
#X connect 14 0 23 1;
#X connect 15 0 40 1;
#X connect 15 0 37 1;
#X connect 15 0 38 1;
#X connect 16 0 26 1;
#X connect 17 0 18 0;
#X connect 18 0 16 1;
#X connect 19 0 18 1;
#X connect 20 0 21 0;
#X connect 21 0 16 0;
#X connect 22 0 21 1;
#X connect 23 0 15 0;
#X connect 23 0 42 0;
#X connect 24 0 37 2;
#X connect 24 0 40 2;
#X connect 25 0 9 0;
#X connect 26 0 25 1;
#X connect 27 0 25 0;
#X connect 28 0 45 0;
#X connect 37 0 12 0;
#X connect 38 0 40 0;
#X connect 39 0 37 0;
#X connect 40 0 6 0;
#X connect 41 0 39 1;
#X connect 42 0 41 0;
#X connect 43 0 7 0;
#X connect 43 0 19 0;
#X connect 44 0 13 0;
#X connect 44 0 22 0;
#X connect 45 0 14 0;
#X connect 45 1 59 0;
#X connect 45 1 60 0;
#X connect 45 1 62 0;
#X connect 45 1 63 0;
#X connect 45 1 64 0;
#X connect 46 0 51 0;
#X connect 47 0 48 0;
#X connect 48 0 69 0;
#X connect 49 0 50 0;
#X connect 50 0 10 1;
#X connect 50 0 54 0;
#X connect 50 0 65 1;
#X connect 51 0 52 0;
#X connect 51 0 56 0;
#X connect 51 0 57 0;
#X connect 51 1 55 0;
#X connect 51 1 56 0;
#X connect 51 1 57 0;
#X connect 51 1 66 0;
#X connect 52 0 2 0;
#X connect 55 0 24 1;
#X connect 56 0 61 0;
#X connect 57 0 58 0;
#X connect 58 0 23 0;
#X connect 59 0 27 0;
#X connect 60 0 26 0;
#X connect 61 0 24 0;
#X connect 62 0 19 1;
#X connect 62 0 22 1;
#X connect 63 0 17 0;
#X connect 63 0 20 0;
#X connect 64 0 7 1;
#X connect 64 0 13 1;
#X connect 65 0 67 1;
#X connect 66 0 47 0;
#X connect 66 1 49 0;
#X connect 67 0 4 1;
#X connect 67 0 53 0;
#X connect 68 0 51 0;
#X connect 69 0 67 0;
#X connect 69 1 65 0;
#X coords 0 0 1 1 250 135 0;
#X restore 919 959 pd dualdelay1m;
#N canvas 0 0 450 300 pan1 0;
#X obj 120 15 inlet;
#X obj 297 51 inlet~;
#X obj 256 225 outlet~;
#X obj 336 218 outlet~;
#X obj 251 149 *~;
#X obj 323 154 *~;
#X obj 276 122 + 1;
#X obj 335 113 * -1;
#X obj 208 75 * -1;
#X obj 160 42 clip 0 1;
#X connect 0 0 9 0;
#X connect 1 0 4 0;
#X connect 1 0 5 1;
#X connect 4 0 2 0;
#X connect 5 0 3 0;
#X connect 6 0 4 1;
#X connect 7 0 5 0;
#X connect 8 0 6 0;
#X connect 8 0 7 0;
#X connect 9 0 8 0;
#X restore 581 1019 pd pan1;
#N canvas 0 0 450 300 pan1 0;
#X obj 120 15 inlet;
#X obj 297 51 inlet~;
#X obj 256 225 outlet~;
#X obj 336 218 outlet~;
#X obj 251 149 *~;
#X obj 323 154 *~;
#X obj 276 122 + 1;
#X obj 335 113 * -1;
#X obj 208 75 * -1;
#X obj 160 42 clip 0 1;
#X connect 0 0 9 0;
#X connect 1 0 4 0;
#X connect 1 0 5 1;
#X connect 4 0 2 0;
#X connect 5 0 3 0;
#X connect 6 0 4 1;
#X connect 7 0 5 0;
#X connect 8 0 6 0;
#X connect 8 0 7 0;
#X connect 9 0 8 0;
#X restore 663 1020 pd pan1;
#X obj 642 940 random 10;
#X obj 643 963 / 50;
#X obj 659 987 + 0.4;
#X obj 577 908 random 10;
#X obj 578 931 / 50;
#X obj 584 956 + 0.4;
#N canvas 42 124 610 640 mym2schorus 0;
#X obj 23 59 inlet~;
#X obj 466 487 outlet~;
#X obj 295 500 outlet~;
#X obj 197 264 cos~;
#X obj 197 291 +~ 1;
#X obj 290 225 +~ 0.25;
#X obj 304 254 cos~;
#X obj 309 284 +~ 1;
#X obj 369 69 phasor~;
#X obj 354 -14 loadbang;
#X msg 355 20 0.8;
#X obj 145 407 vd~ \$0mychr1;
#X obj 298 371 vd~ \$0mychr1;
#X obj 311 318 *~ 0.3;
#X obj 418 232 cos~;
#X obj 423 262 +~ 1;
#X obj 412 349 vd~ \$0mychr1;
#X obj 425 296 *~ 0.3;
#X obj 24 101 delwrite~ \$0mychr1 100;
#X obj 404 203 +~ 0.5;
#X obj 522 250 cos~;
#X obj 527 280 +~ 1;
#X obj 516 367 vd~ \$0mychr1;
#X obj 508 221 +~ 0.75;
#X obj 530 315 *~ 0.31;
#X obj 194 318 *~ 0.31;
#X connect 0 0 18 0;
#X connect 3 0 4 0;
#X connect 4 0 25 0;
#X connect 5 0 6 0;
#X connect 6 0 7 0;
#X connect 7 0 13 0;
#X connect 8 0 3 0;
#X connect 8 0 5 0;
#X connect 8 0 19 0;
#X connect 8 0 23 0;
#X connect 9 0 10 0;
#X connect 10 0 8 0;
#X connect 11 0 2 0;
#X connect 12 0 1 0;
#X connect 13 0 12 0;
#X connect 14 0 15 0;
#X connect 15 0 17 0;
#X connect 16 0 2 0;
#X connect 17 0 16 0;
#X connect 19 0 14 0;
#X connect 20 0 21 0;
#X connect 21 0 24 0;
#X connect 22 0 1 0;
#X connect 23 0 20 0;
#X connect 24 0 22 0;
#X connect 25 0 11 0;
#X restore 898 1017 pd mym2schorus;
#X obj 1134 919 osc~;
#X obj 967 907 *~;
#X obj 1217 898 random 100;
#X obj 1182 927 / 1000;
#N canvas 0 0 448 456 moddelay 0;
#X obj 274 402 outlet~;
#X obj 25 18 inlet~;
#X obj 138 66 + 1;
#X obj 147 17 inlet;
#X obj 148 39 clip -1 1;
#X obj 224 14 inlet;
#X obj 225 36 clip -1 1;
#X obj 269 342 vd~ \$0mddelay;
#X obj 90 218 +~;
#X obj 115 195 *~;
#X obj 137 88 / 4;
#X obj 137 105 + 0.5;
#X obj 277 211 + 1.1;
#X msg 278 266 \$1 20;
#X obj 271 304 line~;
#X obj 86 265 delwrite~ \$0mddelay 2000;
#X obj 133 134 clip 0.4 0.9;
#X obj 280 237 * 800;
#X connect 1 0 8 0;
#X connect 2 0 10 0;
#X connect 3 0 4 0;
#X connect 4 0 2 0;
#X connect 5 0 6 0;
#X connect 6 0 12 0;
#X connect 7 0 0 0;
#X connect 7 0 9 0;
#X connect 8 0 15 0;
#X connect 9 0 8 1;
#X connect 10 0 11 0;
#X connect 11 0 16 0;
#X connect 12 0 17 0;
#X connect 13 0 14 0;
#X connect 14 0 7 0;
#X connect 16 0 9 1;
#X connect 17 0 13 0;
#X restore 1082 1054 pd moddelay;
#N canvas 1297 205 588 521 rndline 0;
#X obj 166 290 pack;
#X obj 67 81 random 1000;
#X obj 79 208 / 1000;
#X obj 135 361 ==;
#X obj 159 324 line;
#X obj 241 187 exp;
#X obj 236 159 / 100;
#X obj 49 -10 inlet;
#X text 102 -16 start;
#X obj 251 413 outlet;
#X obj 90 396 moses 0.1;
#X obj 74 437 delay 1000;
#X obj 241 213 int;
#X obj 234 134 random 950;
#X obj 313 334 +;
#X obj 338 268 random 950;
#X obj 264 236 t f f;
#X obj 54 22 t b b b;
#X obj 89 140 +;
#X obj 95 173 mod 1000;
#X obj 126 146 int;
#X obj 68 104 + 200;
#X obj 196 264 + 200;
#X connect 0 0 4 0;
#X connect 1 0 21 0;
#X connect 2 0 0 0;
#X connect 2 0 3 1;
#X connect 3 0 10 0;
#X connect 4 0 9 0;
#X connect 4 0 3 0;
#X connect 5 0 12 0;
#X connect 6 0 5 0;
#X connect 7 0 17 0;
#X connect 10 1 11 0;
#X connect 11 0 17 0;
#X connect 12 0 16 0;
#X connect 12 0 22 0;
#X connect 13 0 6 0;
#X connect 14 0 11 1;
#X connect 15 0 14 1;
#X connect 16 0 14 0;
#X connect 16 1 15 1;
#X connect 17 0 1 0;
#X connect 17 1 13 0;
#X connect 17 2 15 0;
#X connect 18 0 19 0;
#X connect 19 0 2 0;
#X connect 19 0 20 0;
#X connect 20 0 18 1;
#X connect 21 0 18 0;
#X connect 22 0 0 1;
#X restore 1322 903 pd rndline;
#X obj 1305 938 * 2;
#X obj 1309 961 - 1;
#X obj 1360 960 * 2;
#X obj 1356 983 - 1;
#X msg 1325 860 bang;
#N canvas 101 241 690 525 autopan 0;
#X obj 105 118 hsl 128 8 0.1 30 1 1 empty empty lfo 132 5 0 8 -262144
-1 -1 151 1;
#X obj 105 129 hsl 128 8 0 0.5 0 1 empty empty dp 132 5 0 8 -262144
-1 -1 1700 1;
#X obj -19 204 osc~;
#X obj -14 241 *~;
#X obj -63 475 outlet~;
#X obj 62 476 outlet~;
#X obj 116 294 inlet~;
#N canvas 0 0 450 300 pan1 0;
#X obj 297 51 inlet~;
#X obj 256 225 outlet~;
#X obj 336 218 outlet~;
#X obj 251 149 *~;
#X obj 323 154 *~;
#X obj 160 42 clip~ 0 1;
#X obj 120 15 inlet~;
#X obj 208 75 *~ -1;
#X obj 276 122 +~ 1;
#X obj 335 113 *~ -1;
#X connect 0 0 3 0;
#X connect 0 0 4 1;
#X connect 3 0 1 0;
#X connect 4 0 2 0;
#X connect 5 0 7 0;
#X connect 6 0 5 0;
#X connect 7 0 8 0;
#X connect 7 0 9 0;
#X connect 8 0 3 1;
#X connect 9 0 4 0;
#X restore -22 368 pd pan1;
#X obj -17 281 +~ 0.5;
#X obj 225 48 inlet;
#X connect 0 0 2 0;
#X connect 1 0 3 1;
#X connect 2 0 3 0;
#X connect 3 0 8 0;
#X connect 6 0 7 1;
#X connect 7 0 4 0;
#X connect 7 1 5 0;
#X connect 8 0 7 0;
#X connect 9 0 0 0;
#X coords 0 -1 1 1 150 40 1 100 100;
#X restore 1088 1088 pd autopan;
#X obj 1059 1000 hip~ 2000;
#X obj 1051 164 mod;
#X obj 1053 185 == 0;
#X obj 1053 209 moses 0.1;
#X obj 1084 142 random 64;
#X obj 1083 162 + 64;
#X obj 988 176 div 10;
#X text 899 74 2/2011 martin brinkmann;
#N canvas 1297 205 588 521 rndlinequick 0;
#X obj 161 294 pack;
#X obj 67 81 random 1000;
#X obj 79 208 / 1000;
#X obj 135 361 ==;
#X obj 159 324 line;
#X obj 236 183 exp;
#X obj 236 159 / 100;
#X obj 49 -10 inlet;
#X text 102 -16 start;
#X obj 251 413 outlet;
#X obj 90 396 moses 0.1;
#X obj 74 437 delay 1000;
#X obj 240 211 int;
#X obj 313 334 +;
#X obj 338 268 random 950;
#X obj 264 236 t f f;
#X obj 54 22 t b b b;
#X obj 89 140 +;
#X obj 85 177 mod 1000;
#X obj 126 146 int;
#X obj 68 104 + 200;
#X obj 196 264 + 200;
#X obj 233 125 random 200;
#X obj 339 32 inlet;
#X connect 0 0 4 0;
#X connect 1 0 20 0;
#X connect 2 0 0 0;
#X connect 2 0 3 1;
#X connect 3 0 10 0;
#X connect 4 0 9 0;
#X connect 4 0 3 0;
#X connect 5 0 12 0;
#X connect 6 0 5 0;
#X connect 7 0 16 0;
#X connect 10 1 11 0;
#X connect 11 0 16 0;
#X connect 12 0 15 0;
#X connect 12 0 21 0;
#X connect 13 0 11 1;
#X connect 14 0 13 1;
#X connect 15 0 13 0;
#X connect 15 1 14 1;
#X connect 16 0 1 0;
#X connect 16 1 22 0;
#X connect 16 2 14 0;
#X connect 17 0 18 0;
#X connect 18 0 2 0;
#X connect 18 0 19 0;
#X connect 19 0 17 1;
#X connect 20 0 17 0;
#X connect 21 0 0 1;
#X connect 22 0 6 0;
#X connect 23 0 22 1;
#X restore 1359 932 pd rndlinequick;
#X obj 1461 866 random 300;
#X obj 1461 896 + 200;
#X obj 1187 785 + 24;
#X obj 1258 1018 random 100;
#X obj 1251 1042 / 1000;
#X obj 1239 1064 + 0.1;
#X obj 678 774 *~ 0.8;
#X obj 773 800 *~ 0.7;
#X obj 710 796 *~ 0.78;
#X obj 626 765 *~ 0.8;
#X obj 1112 944 +~ 1.2;
#X obj 1099 968 *~ 0.09;
#X obj 1373 579 *~ 0.4;
#X obj 1177 571 *~ 0.4;
#X obj 1029 553 *~ 0.4;
#X obj 916 531 *~ 0.4;
#X obj 784 508 *~ 0.4;
#X obj 1065 1026 *~ 0.5;
#X connect 0 0 4 0;
#X connect 0 0 79 0;
#X connect 0 1 12 0;
#X connect 0 1 80 0;
#X connect 0 2 17 0;
#X connect 0 2 81 0;
#X connect 0 3 22 0;
#X connect 0 3 82 0;
#X connect 0 4 31 0;
#X connect 0 4 83 0;
#X connect 0 5 36 0;
#X connect 0 5 84 0;
#X connect 0 6 41 0;
#X connect 0 6 85 0;
#X connect 0 7 46 0;
#X connect 0 7 86 0;
#X connect 1 0 0 0;
#X connect 1 0 89 0;
#X connect 1 0 98 0;
#X connect 1 0 123 0;
#X connect 1 0 127 0;
#X connect 1 0 202 0;
#X connect 1 1 88 0;
#X connect 1 1 160 1;
#X connect 1 1 174 1;
#X connect 1 1 174 2;
#X connect 2 0 1 0;
#X connect 2 0 6 0;
#X connect 2 0 0 1;
#X connect 2 0 9 0;
#X connect 2 0 28 0;
#X connect 2 0 61 0;
#X connect 2 0 94 0;
#X connect 2 0 52 0;
#X connect 2 0 102 0;
#X connect 2 0 105 0;
#X connect 2 0 125 0;
#X connect 2 0 169 0;
#X connect 2 0 200 0;
#X connect 3 0 2 0;
#X connect 4 0 29 0;
#X connect 4 0 30 0;
#X connect 4 0 78 0;
#X connect 6 0 180 0;
#X connect 6 0 177 0;
#X connect 7 0 8 0;
#X connect 8 0 4 1;
#X connect 8 0 167 0;
#X connect 9 0 7 0;
#X connect 9 0 11 0;
#X connect 9 0 13 0;
#X connect 9 0 16 0;
#X connect 9 0 18 0;
#X connect 9 0 21 0;
#X connect 9 0 24 0;
#X connect 9 0 25 0;
#X connect 9 0 32 0;
#X connect 9 0 35 0;
#X connect 9 0 37 0;
#X connect 9 0 40 0;
#X connect 9 0 45 0;
#X connect 9 0 44 0;
#X connect 9 0 50 0;
#X connect 9 0 49 0;
#X connect 10 0 4 2;
#X connect 11 0 10 0;
#X connect 12 0 29 1;
#X connect 12 0 30 0;
#X connect 12 0 78 0;
#X connect 13 0 14 0;
#X connect 14 0 12 1;
#X connect 14 0 162 0;
#X connect 15 0 12 2;
#X connect 16 0 15 0;
#X connect 17 0 29 2;
#X connect 17 0 30 0;
#X connect 17 0 78 0;
#X connect 18 0 19 0;
#X connect 19 0 17 1;
#X connect 19 0 164 0;
#X connect 20 0 17 2;
#X connect 21 0 20 0;
#X connect 22 0 30 0;
#X connect 22 0 78 0;
#X connect 22 0 29 3;
#X connect 23 0 22 1;
#X connect 23 0 22 2;
#X connect 23 0 166 0;
#X connect 24 0 26 0;
#X connect 25 0 23 0;
#X connect 26 0 22 2;
#X connect 27 0 51 0;
#X connect 27 0 53 0;
#X connect 27 0 56 0;
#X connect 27 0 54 0;
#X connect 27 0 58 0;
#X connect 28 0 29 8;
#X connect 29 0 158 0;
#X connect 29 1 159 0;
#X connect 31 0 30 0;
#X connect 31 0 78 0;
#X connect 31 0 214 0;
#X connect 32 0 34 0;
#X connect 33 0 31 2;
#X connect 34 0 31 1;
#X connect 35 0 33 0;
#X connect 36 0 30 0;
#X connect 36 0 78 0;
#X connect 36 0 211 0;
#X connect 37 0 39 0;
#X connect 38 0 36 2;
#X connect 39 0 36 1;
#X connect 40 0 38 0;
#X connect 41 0 78 0;
#X connect 41 0 213 0;
#X connect 42 0 41 2;
#X connect 43 0 41 1;
#X connect 44 0 42 0;
#X connect 45 0 43 0;
#X connect 46 0 78 0;
#X connect 46 0 212 0;
#X connect 47 0 46 2;
#X connect 48 0 46 1;
#X connect 49 0 47 0;
#X connect 50 0 48 0;
#X connect 51 0 107 0;
#X connect 52 0 57 0;
#X connect 52 0 55 0;
#X connect 52 0 59 0;
#X connect 52 0 110 0;
#X connect 52 0 114 0;
#X connect 52 0 119 0;
#X connect 52 0 137 0;
#X connect 52 0 140 0;
#X connect 52 0 141 0;
#X connect 52 0 154 0;
#X connect 53 0 116 0;
#X connect 54 0 139 0;
#X connect 55 0 149 0;
#X connect 56 0 121 0;
#X connect 57 0 148 0;
#X connect 58 0 156 0;
#X connect 59 0 147 0;
#X connect 61 0 60 0;
#X connect 62 0 72 0;
#X connect 62 1 66 0;
#X connect 62 1 68 0;
#X connect 63 0 76 0;
#X connect 64 0 63 0;
#X connect 65 0 63 0;
#X connect 66 0 64 0;
#X connect 67 0 173 0;
#X connect 67 0 175 1;
#X connect 67 0 196 0;
#X connect 68 0 69 0;
#X connect 69 0 71 0;
#X connect 70 0 65 0;
#X connect 71 0 70 0;
#X connect 72 0 65 0;
#X connect 72 1 64 0;
#X connect 73 1 62 0;
#X connect 74 0 67 0;
#X connect 76 0 74 0;
#X connect 77 0 87 0;
#X connect 78 0 60 0;
#X connect 79 0 77 0;
#X connect 80 0 77 0;
#X connect 81 0 77 0;
#X connect 82 0 77 0;
#X connect 83 0 77 0;
#X connect 84 0 77 0;
#X connect 85 0 77 0;
#X connect 86 0 77 0;
#X connect 87 0 73 0;
#X connect 88 0 104 0;
#X connect 89 0 90 0;
#X connect 90 0 91 0;
#X connect 91 1 93 0;
#X connect 92 0 0 2;
#X connect 93 0 92 0;
#X connect 94 0 95 0;
#X connect 95 0 89 1;
#X connect 96 0 59 0;
#X connect 96 1 57 0;
#X connect 96 1 125 0;
#X connect 96 2 55 0;
#X connect 96 3 141 0;
#X connect 96 3 169 0;
#X connect 96 4 140 0;
#X connect 96 4 169 0;
#X connect 97 0 96 0;
#X connect 98 0 99 0;
#X connect 99 0 100 0;
#X connect 100 1 101 0;
#X connect 101 0 97 0;
#X connect 101 0 194 0;
#X connect 101 0 205 0;
#X connect 102 0 103 0;
#X connect 103 0 98 1;
#X connect 104 0 87 1;
#X connect 105 0 106 0;
#X connect 106 0 104 1;
#X connect 107 0 46 3;
#X connect 108 0 109 0;
#X connect 109 0 217 0;
#X connect 110 0 111 0;
#X connect 111 0 108 0;
#X connect 112 0 113 0;
#X connect 113 0 218 0;
#X connect 114 0 115 0;
#X connect 115 0 112 0;
#X connect 116 0 41 3;
#X connect 117 0 118 0;
#X connect 118 0 220 0;
#X connect 119 0 120 0;
#X connect 120 0 117 0;
#X connect 121 0 31 3;
#X connect 122 1 124 0;
#X connect 123 0 122 0;
#X connect 123 1 171 0;
#X connect 124 0 126 0;
#X connect 124 0 78 0;
#X connect 125 0 124 1;
#X connect 125 0 132 0;
#X connect 125 0 133 0;
#X connect 126 0 176 1;
#X connect 126 0 174 0;
#X connect 126 0 196 0;
#X connect 127 0 128 0;
#X connect 128 0 129 0;
#X connect 129 1 130 0;
#X connect 130 0 123 2;
#X connect 131 0 127 1;
#X connect 132 0 131 0;
#X connect 133 0 134 0;
#X connect 134 0 123 1;
#X connect 135 0 136 0;
#X connect 136 0 219 0;
#X connect 137 0 138 0;
#X connect 138 0 135 0;
#X connect 139 0 36 3;
#X connect 140 0 151 0;
#X connect 141 0 150 0;
#X connect 142 0 53 1;
#X connect 143 0 51 1;
#X connect 144 0 54 1;
#X connect 145 0 56 1;
#X connect 146 0 58 1;
#X connect 147 0 146 0;
#X connect 148 0 145 0;
#X connect 149 0 144 0;
#X connect 150 0 142 0;
#X connect 151 0 143 0;
#X connect 152 0 153 0;
#X connect 153 0 221 0;
#X connect 154 0 155 0;
#X connect 155 0 152 0;
#X connect 156 0 22 3;
#X connect 157 0 5 0;
#X connect 157 1 5 1;
#X connect 158 0 172 0;
#X connect 158 0 157 0;
#X connect 159 0 172 1;
#X connect 159 0 157 1;
#X connect 160 0 170 0;
#X connect 161 0 160 2;
#X connect 162 0 163 0;
#X connect 163 0 170 3;
#X connect 164 0 165 0;
#X connect 165 0 170 4;
#X connect 166 0 207 0;
#X connect 167 0 168 0;
#X connect 168 0 170 2;
#X connect 169 0 170 5;
#X connect 169 0 174 3;
#X connect 169 0 186 0;
#X connect 170 0 185 0;
#X connect 171 0 161 0;
#X connect 172 0 173 0;
#X connect 173 0 160 0;
#X connect 174 0 183 0;
#X connect 175 0 157 0;
#X connect 175 1 157 1;
#X connect 176 0 157 0;
#X connect 176 1 157 1;
#X connect 177 0 178 0;
#X connect 178 0 179 0;
#X connect 179 0 176 0;
#X connect 180 0 181 0;
#X connect 181 0 182 0;
#X connect 182 0 175 0;
#X connect 183 0 5 0;
#X connect 183 1 5 1;
#X connect 184 0 215 0;
#X connect 185 0 174 0;
#X connect 186 0 187 0;
#X connect 187 0 184 0;
#X connect 188 0 195 0;
#X connect 189 0 190 0;
#X connect 190 0 191 0;
#X connect 191 0 188 1;
#X connect 192 0 193 0;
#X connect 193 0 188 2;
#X connect 194 0 189 0;
#X connect 194 0 204 0;
#X connect 194 0 208 0;
#X connect 195 0 157 0;
#X connect 195 1 157 1;
#X connect 196 0 222 0;
#X connect 197 0 198 0;
#X connect 198 0 199 0;
#X connect 199 1 52 0;
#X connect 200 0 201 0;
#X connect 201 0 197 1;
#X connect 202 0 197 0;
#X connect 204 0 192 0;
#X connect 205 0 206 0;
#X connect 206 0 204 1;
#X connect 207 0 170 1;
#X connect 208 0 209 0;
#X connect 209 0 210 0;
#X connect 210 0 195 1;
#X connect 211 0 29 5;
#X connect 212 0 29 7;
#X connect 213 0 29 6;
#X connect 214 0 29 4;
#X connect 215 0 216 0;
#X connect 216 0 185 1;
#X connect 217 0 107 1;
#X connect 218 0 116 1;
#X connect 219 0 139 1;
#X connect 220 0 121 1;
#X connect 221 0 156 1;
#X connect 222 0 188 0;
