#N canvas 341 176 1031 618 10;
#X obj 154 63 r TTi;
#X obj 154 91 route adc digital tact;
#X obj 154 129 route 1 2 3 4 5 6;
#X obj 346 129 route 1 2 3 4;
#X obj 448 129 route 1 2 3;
#X obj 684 286 s TTo;
#X obj 587 193 i;
#X obj 634 193 + 1;
#X obj 587 226 % 2;
#X msg 587 250 1 \$1;
#X obj 587 77 loadbang;
#X obj 587 106 metro 400;
#X obj 684 193 i;
#X obj 731 193 + 1;
#X obj 684 226 % 2;
#X msg 684 250 2 \$1;
#X obj 789 193 i;
#X obj 836 193 + 1;
#X obj 789 226 % 2;
#X msg 789 250 3 \$1;
#X obj 684 132 delay 150;
#X obj 789 161 delay 150;
#X obj 423 264 line~;
#X msg 423 228 1 \, 0 300;
#X obj 322 313 noise~;
#X obj 321 365 *~;
#X obj 237 408 dac~;
#X obj 238 347 adc~;
#X obj 47 219 osc~;
#X obj 47 248 *~ 0.2;
#X obj 104 219 osc~;
#X obj 104 248 *~ 0.2;
#X obj 183 301 +~;
#X obj 160 219 osc~;
#X obj 160 248 *~ 0.2;
#X obj 215 219 osc~;
#X obj 215 248 *~ 0.2;
#X obj 269 219 osc~;
#X obj 269 248 *~ 0.2;
#X obj 322 219 osc~;
#X obj 322 248 *~ 0.2;
#X obj 47 190 * 10000;
#X obj 104 190 * 10000;
#X obj 160 190 * 10000;
#X obj 215 190 * 10000;
#X obj 269 190 * 10000;
#X obj 322 190 * 10000;
#X connect 0 0 1 0;
#X connect 1 0 2 0;
#X connect 1 1 3 0;
#X connect 1 2 4 0;
#X connect 2 0 41 0;
#X connect 2 1 42 0;
#X connect 2 2 43 0;
#X connect 2 3 44 0;
#X connect 2 4 45 0;
#X connect 2 5 46 0;
#X connect 3 0 23 0;
#X connect 3 1 23 0;
#X connect 3 2 23 0;
#X connect 3 3 23 0;
#X connect 4 0 23 0;
#X connect 4 1 23 0;
#X connect 4 2 23 0;
#X connect 6 0 7 0;
#X connect 6 0 8 0;
#X connect 7 0 6 1;
#X connect 8 0 9 0;
#X connect 9 0 5 0;
#X connect 10 0 11 0;
#X connect 11 0 6 0;
#X connect 11 0 20 0;
#X connect 12 0 13 0;
#X connect 12 0 14 0;
#X connect 13 0 12 1;
#X connect 14 0 15 0;
#X connect 15 0 5 0;
#X connect 16 0 17 0;
#X connect 16 0 18 0;
#X connect 17 0 16 1;
#X connect 18 0 19 0;
#X connect 19 0 5 0;
#X connect 20 0 12 0;
#X connect 20 0 21 0;
#X connect 21 0 16 0;
#X connect 22 0 25 1;
#X connect 23 0 22 0;
#X connect 24 0 25 0;
#X connect 25 0 26 0;
#X connect 25 0 26 1;
#X connect 27 0 26 0;
#X connect 27 1 26 1;
#X connect 28 0 29 0;
#X connect 29 0 32 0;
#X connect 30 0 31 0;
#X connect 31 0 32 0;
#X connect 32 0 26 0;
#X connect 32 0 26 1;
#X connect 33 0 34 0;
#X connect 34 0 32 0;
#X connect 35 0 36 0;
#X connect 36 0 32 0;
#X connect 37 0 38 0;
#X connect 38 0 32 0;
#X connect 39 0 40 0;
#X connect 40 0 32 0;
#X connect 41 0 28 0;
#X connect 42 0 30 0;
#X connect 43 0 33 0;
#X connect 44 0 35 0;
#X connect 45 0 37 0;
#X connect 46 0 39 0;
