#N canvas 358 38 520 294 10;
#X text 81 58 Input 1 = W \, Input 2 = X \, Input 3 = Y \, Input 4
= Z.;
#X text 79 69 Output 1 = W \, Output 2 = X \, Output 3 = Y \, Output
4 = Z.;
#X text 81 82 Parameters;
#X obj 16 62 azoomctrl;
#X obj 16 90 ambizoom~;
#X text 15 11 Ambizoom~ Ambisonic B-format zoom control based on the
b_zoom VST plugin by Dave Malham. Ported to pd by Matthew Paradis;
#X text 79 166 For more informataion see: http://www.york.ac.uk/inst/mustech/3d_audio/vst/bzoom_help.html
;
#X text 81 98 Parameters can be altered using the azoomctrl abstraction
or by passing messages directly into the ambizoom~ objects 1st input.
Parameters are:;
#X text 79 140 azimuth = azimuth \, elevation = elevation \, zoom =
zoom.;
#X text 80 153 comment;
#X connect 3 0 4 0;
