#N canvas 211 96 366 283 10;
#X obj 19 34 vsl 15 128 0 1 0 0 empty \$0-setrot empty 20 8 576 8 -262144
-1 -1 0 1;
#X obj 82 34 vsl 15 128 0 1 0 0 empty \$0-settil empty 20 8 576 8 -262144
-1 -1 6368 1;
#X obj 146 35 vsl 15 128 0 1 0 0 empty \$0-settum empty 20 8 576 8
-262144 -1 -1 2117 1;
#X floatatom 19 173 5 0 0 0 - - -;
#X floatatom 82 173 5 0 0 0 - - -;
#X floatatom 146 174 5 0 0 0 - - -;
#X text 36 151 0;
#N canvas 268 65 490 140 controlOut 0;
#X obj 31 53 outlet;
#X obj 31 19 receive \$0-params;
#X connect 1 0 0 0;
#X restore 213 177 pd controlOut;
#X obj 213 197 outlet;
#X msg 213 155 verbose \$1;
#X obj 213 133 tgl 15 0 empty empty empty 20 8 0 8 -262144 -1 -1 0
1;
#N canvas 219 444 834 206 defaults 0;
#X obj 110 71 loadbang;
#X obj 109 37 inlet;
#X obj 22 137 send \$0-setrot;
#X obj 110 137 send \$0-settil;
#X obj 197 137 send \$0-settum;
#X msg 197 114 0;
#X msg 110 115 0;
#X msg 22 114 0;
#X connect 0 0 7 0;
#X connect 0 0 6 0;
#X connect 0 0 5 0;
#X connect 1 0 7 0;
#X connect 1 0 6 0;
#X connect 1 0 5 0;
#X connect 5 0 4 0;
#X connect 6 0 3 0;
#X connect 7 0 2 0;
#X restore 211 109 pd defaults;
#X obj 211 87 bng 15 250 50 0 empty empty empty 0 -6 0 8 -262144 -1
-1;
#X text 233 132 Verbose on/off;
#X text 234 87 Reset parameters;
#X text 163 30 1;
#X text 163 151 0;
#X text 5 13 Rotate;
#X text 75 14 Tilt;
#X text 134 14 Tumble;
#X text 38 29 1;
#X text 99 28 1;
#X text 99 151 0;
#N canvas 194 203 624 182 sendToProc--------- 0;
#X obj 61 21 inlet;
#X obj 134 20 inlet;
#X obj 219 20 inlet;
#X obj 133 120 send \$0-params;
#X msg 61 83 rotate \$1;
#X msg 134 82 tilt \$1;
#X msg 219 82 tumble \$1;
#X connect 0 0 4 0;
#X connect 1 0 5 0;
#X connect 2 0 6 0;
#X connect 4 0 3 0;
#X connect 5 0 3 0;
#X connect 6 0 3 0;
#X restore 19 205 pd sendToProc---------;
#X connect 0 0 3 0;
#X connect 1 0 4 0;
#X connect 2 0 5 0;
#X connect 3 0 23 0;
#X connect 4 0 23 1;
#X connect 5 0 23 2;
#X connect 7 0 8 0;
#X connect 9 0 8 0;
#X connect 10 0 9 0;
#X connect 12 0 11 0;
