#N canvas 0 22 1148 752 10;
#X obj -67 -130 cup;
#X obj -67 -190 bng 15 250 50 0 empty empty empty 17 7 0 10 -262144
-1 -1;
#X obj -67 -111 % 7;
#X floatatom -400 386 5 0 0 0 - - -;
#X floatatom -400 447 10 0 0 0 - - -;
#X text -366 426 Further Interpolation;
#X floatatom -409 252 5 0 0 0 - - -;
#X obj -67 -212 metro 500;
#X floatatom 10 -228 5 0 0 0 - - -;
#X obj 364 182 gate 1;
#X obj 364 201 bng 15 250 50 0 empty empty empty 17 7 0 10 -262144
-1 -1;
#X obj 219 183 gate 1;
#X obj 219 204 bng 15 250 50 0 empty empty empty 17 7 0 10 -262144
-1 -1;
#X obj 219 221 del 1;
#X obj 364 220 del 1;
#X text -164 216 stop;
#X obj -144 -94 pack 0 0;
#X text -290 -133 select contour data;
#X floatatom -243 -93 5 0 0 0 - - -;
#X obj -436 -77 mux - - -;
#X obj 415 139 r \$0-sm2;
#X obj 275 143 r \$0-sm1;
#X obj -243 -115 r \$0-c.mode;
#X text -437 -176 pc;
#X obj -436 -158 inlet;
#X floatatom -436 -117 5 0 0 0 - - -;
#X obj -436 -94 pack 0 0;
#X obj -346 -94 pack 0 0;
#X floatatom -337 -1 5 0 0 0 - - -;
#X floatatom -436 4 5 0 0 0 - - -;
#X obj -436 -18 unpack 0 0;
#X obj -436 24 tabwrite \$0-array;
#X text -302 0 index;
#X obj -436 -39 spigot;
#X obj -365 -56 r \$0-switch;
#X obj -436 -136 / 11;
#X obj -481 -155 inlet;
#X floatatom -481 -132 5 0 0 0 - - -;
#X text -484 -174 index;
#X obj -481 -111 - 1;
#X obj -346 -157 inlet;
#X text -348 -175 ic;
#X obj -346 -136 / 6;
#X floatatom -346 -116 5 0 0 0 - - -;
#X obj -400 426 line;
#X text 275 127 marker 1;
#X text 415 122 marker 2;
#X obj 364 136 r \$0-ph;
#X obj 219 137 r \$0-ph;
#X obj -409 268 s \$0-ph;
#X text -358 269 Playhead;
#X obj 219 267 s \$0-bang2;
#X obj 364 266 s \$0-bang1;
#X obj 219 246 spigot;
#X obj 364 246 spigot;
#X obj -67 -233 r \$0-switch;
#X obj 282 229 r \$0-switch;
#X obj -400 468 outlet;
#X text -146 -195 random;
#X msg -439 211 \$1 \$2;
#X msg -338 218 \$1 \$2;
#X obj -439 77 del 1;
#X obj -338 88 del 1;
#X obj -338 136 f;
#X obj -439 124 f;
#X obj -439 56 r \$0-bang1;
#X obj -338 66 r \$0-bang2;
#X obj -424 103 r \$0-sm1;
#X obj -323 116 r \$0-sm2;
#X obj -489 107 r \$0-on;
#X obj -439 167 pack 0 0;
#X obj -338 167 pack 0 0;
#X obj -278 150 r \$0-it;
#X obj 222 46 tgl 15 0 \$0-switch \$0 empty 17 7 0 8 -262130 -258113
-1 0 1;
#X text 241 44 ON/OFF;
#X obj 302 25 inlet;
#X obj -299 268 outlet;
#X obj -264 -60 outlet;
#X obj 511 22 inlet;
#X obj 445 23 inlet;
#X obj 378 24 inlet;
#X obj 364 156 == 1;
#X obj 220 160 == 1;
#X msg 355 -90 1000;
#X obj 222 -107 loadbang;
#X obj 302 48 s \$0-c.mode;
#X obj 378 48 s \$0-sm1;
#X obj 445 47 s \$0-sm2;
#X obj 511 46 s \$0-it;
#X obj 222 22 del 50;
#X msg 222 -90 0;
#X floatatom 562 39 5 0 0 0 - - -;
#X floatatom 445 69 5 0 0 0 - - -;
#X floatatom 378 69 5 0 0 0 - - -;
#X floatatom 302 69 5 0 0 0 - - -;
#X obj -439 288 tabread \$0-array;
#X obj -439 235 line;
#X obj 222 -1 inlet;
#X obj -191 89 r \$0-switch;
#X floatatom -191 109 5 0 0 0 - - -;
#X obj -191 130 sel 0;
#X obj -93 125 sel 1;
#X obj -179 155 s \$0-off;
#X obj -93 154 s \$0-on;
#X msg -191 218 0;
#X floatatom -400 305 5 0 0 0 - - -;
#X obj -144 -175 random 10;
#X obj -144 -115 / 10;
#X obj -111 -158 != 0;
#X obj -144 -137 spigot;
#X floatatom -109 -120 5 0 0 0 - - -;
#X obj -367 340 != 0;
#X obj -400 361 spigot;
#X msg -400 406 \$1 500;
#X floatatom -466 258 5 0 0 0 - - -;
#X msg 289 -90 6;
#X obj -315 27 bng 15 250 50 0 empty empty empty 17 7 0 10 -262144
-1 -1;
#X obj -479 -203 table \$0-array 7;
#X obj 10 -246 r glbl.bpm;
#X obj -203 -1 average;
#X floatatom -203 21 5 0 0 0 - - -;
#X text -150 -2 average object may produce more desirable contour;
#X text -452 326 0 is ommited to avoid any "bumps";
#X text -476 -240 Single/solo string contour - tracking and interpolating
pitch data;
#X connect 0 0 2 0;
#X connect 1 0 0 0;
#X connect 1 0 106 0;
#X connect 2 0 16 1;
#X connect 3 0 113 0;
#X connect 4 0 57 0;
#X connect 6 0 49 0;
#X connect 6 0 76 0;
#X connect 7 0 1 0;
#X connect 8 0 7 1;
#X connect 9 0 10 0;
#X connect 10 0 14 0;
#X connect 11 0 12 0;
#X connect 12 0 13 0;
#X connect 13 0 53 0;
#X connect 14 0 54 0;
#X connect 16 0 19 2;
#X connect 18 0 19 3;
#X connect 19 0 33 0;
#X connect 19 0 77 0;
#X connect 20 0 12 0;
#X connect 20 0 81 1;
#X connect 21 0 10 0;
#X connect 21 0 82 1;
#X connect 22 0 18 0;
#X connect 24 0 35 0;
#X connect 25 0 26 0;
#X connect 26 0 19 0;
#X connect 27 0 19 1;
#X connect 28 0 31 1;
#X connect 29 0 31 0;
#X connect 30 0 29 0;
#X connect 30 0 119 0;
#X connect 30 1 28 0;
#X connect 33 0 30 0;
#X connect 34 0 33 1;
#X connect 35 0 25 0;
#X connect 36 0 37 0;
#X connect 37 0 39 0;
#X connect 39 0 26 1;
#X connect 39 0 27 1;
#X connect 40 0 42 0;
#X connect 42 0 43 0;
#X connect 43 0 27 0;
#X connect 44 0 4 0;
#X connect 47 0 81 0;
#X connect 48 0 82 0;
#X connect 53 0 51 0;
#X connect 54 0 52 0;
#X connect 55 0 7 0;
#X connect 56 0 53 1;
#X connect 56 0 54 1;
#X connect 59 0 96 0;
#X connect 60 0 96 0;
#X connect 61 0 64 0;
#X connect 62 0 63 0;
#X connect 63 0 71 0;
#X connect 64 0 70 0;
#X connect 65 0 61 0;
#X connect 66 0 62 0;
#X connect 67 0 64 1;
#X connect 68 0 63 1;
#X connect 69 0 64 0;
#X connect 70 0 59 0;
#X connect 71 0 60 0;
#X connect 72 0 71 1;
#X connect 72 0 70 1;
#X connect 75 0 85 0;
#X connect 75 0 94 0;
#X connect 78 0 88 0;
#X connect 78 0 91 0;
#X connect 79 0 87 0;
#X connect 79 0 92 0;
#X connect 80 0 86 0;
#X connect 80 0 93 0;
#X connect 81 0 9 0;
#X connect 81 0 9 1;
#X connect 82 0 11 0;
#X connect 82 0 11 1;
#X connect 83 0 88 0;
#X connect 84 0 83 0;
#X connect 84 0 115 0;
#X connect 84 0 90 0;
#X connect 89 0 73 0;
#X connect 90 0 86 0;
#X connect 90 0 85 0;
#X connect 95 0 105 0;
#X connect 96 0 6 0;
#X connect 96 0 95 0;
#X connect 97 0 89 0;
#X connect 98 0 99 0;
#X connect 99 0 100 0;
#X connect 99 0 101 0;
#X connect 100 0 102 0;
#X connect 100 0 104 0;
#X connect 101 0 103 0;
#X connect 104 0 96 0;
#X connect 104 0 113 0;
#X connect 105 0 111 0;
#X connect 105 0 112 0;
#X connect 106 0 109 0;
#X connect 106 0 108 0;
#X connect 107 0 16 0;
#X connect 108 0 109 1;
#X connect 109 0 107 0;
#X connect 109 0 110 0;
#X connect 111 0 112 1;
#X connect 112 0 3 0;
#X connect 113 0 44 0;
#X connect 114 0 95 0;
#X connect 115 0 87 0;
#X connect 116 0 28 0;
#X connect 116 0 29 0;
#X connect 118 0 8 0;
#X connect 119 0 120 0;
