#N canvas 0 22 450 300 10;
#X text 92 96 For use with GEM (color morphology);
#N canvas 0 22 1280 752 color.gem 0;
#X obj 25 60 < 0;
#X obj 25 77 gate 1;
#X obj 128 60 > 0;
#X obj 74 60 == 0;
#X obj 74 77 gate 1;
#X obj 128 77 gate 1;
#X text 22 23 Color to indicate Ascending | Descending motion;
#X obj 25 97 bng 15 250 50 0 empty empty empty 17 7 0 10 -262144 -1
-1;
#X obj 74 98 bng 15 250 50 0 empty empty empty 17 7 0 10 -262144 -1
-1;
#X obj 128 98 bng 15 250 50 0 empty empty empty 17 7 0 10 -262144 -1
-1;
#X obj 25 135 s \$0-pcd.led;
#X msg 159 118 color 18;
#X msg 74 118 color 13;
#X msg 25 118 color 6;
#X obj 25 43 r pcd;
#X obj 245 53 bng 30 250 50 0 empty \$0-pcd.led empty 17 7 0 10 -225271
-204800 -262144;
#X obj 245 87 cnv 15 50 20 empty empty ascending 20 12 2 14 -4160 -66577
0;
#X obj 245 113 cnv 15 50 20 empty empty descending 20 12 2 14 -204786
-66577 0;
#X obj 245 138 cnv 15 50 20 empty empty static 20 12 2 14 -258113 -66577
0;
#N canvas 384 63 367 172 gem.tones.2D 0;
#X obj 27 6 r gt.2d1;
#X obj 117 7 r gt.2d3;
#X obj 210 8 r gt.2d5;
#X obj 26 85 r gt.2d2;
#X obj 117 86 r gt.2d4;
#X obj 209 86 r gt.2d6;
#X text 24 152 receive polar co-ordinates;
#N canvas 161 141 450 300 gem.tone2 0;
#X obj 59 60 gemhead;
#X obj 60 236 translateXYZ;
#X obj 212 21 inlet;
#X obj 59 190 alpha;
#X obj 59 120 color 1 0.5 0 0.5;
#N canvas 0 22 474 324 rand_color 0;
#X obj 47 130 random 1000;
#X obj 48 171 * 0.001;
#X obj 131 130 random 1000;
#X obj 132 171 * 0.001;
#X obj 214 131 random 1000;
#X obj 215 172 * 0.001;
#X obj 46 83 t b b b;
#X obj 48 256 outlet;
#X obj 47 26 r init;
#X obj 49 217 pack 0 0 0 0.5;
#X connect 0 0 1 0;
#X connect 1 0 9 0;
#X connect 2 0 3 0;
#X connect 3 0 9 1;
#X connect 4 0 5 0;
#X connect 5 0 9 2;
#X connect 6 0 0 0;
#X connect 6 1 2 0;
#X connect 6 2 4 0;
#X connect 8 0 6 0;
#X connect 9 0 7 0;
#X restore 172 93 pd rand_color;
#X obj 189 120 t 1;
#X obj 139 171 unpack 0 0;
#X floatatom 232 125 5 0 0 0 - - -;
#X obj 60 263 circle 0.1;
#X connect 0 0 4 0;
#X connect 1 0 9 0;
#X connect 2 0 7 0;
#X connect 3 0 1 0;
#X connect 4 0 3 0;
#X connect 5 0 4 1;
#X connect 5 0 6 0;
#X connect 5 0 8 0;
#X connect 6 0 3 1;
#X connect 7 0 1 1;
#X connect 7 1 1 2;
#X restore 26 130 pd gem.tone2;
#N canvas 161 141 450 300 gem.tone4 0;
#X obj 79 80 gemhead;
#X obj 80 256 translateXYZ;
#X obj 232 41 inlet;
#X obj 79 210 alpha;
#X obj 79 140 color 1 0.5 0 0.5;
#N canvas 0 22 474 324 rand_color 0;
#X obj 47 130 random 1000;
#X obj 48 171 * 0.001;
#X obj 131 130 random 1000;
#X obj 132 171 * 0.001;
#X obj 214 131 random 1000;
#X obj 215 172 * 0.001;
#X obj 46 83 t b b b;
#X obj 48 256 outlet;
#X obj 47 26 r init;
#X obj 49 217 pack 0 0 0 0.5;
#X connect 0 0 1 0;
#X connect 1 0 9 0;
#X connect 2 0 3 0;
#X connect 3 0 9 1;
#X connect 4 0 5 0;
#X connect 5 0 9 2;
#X connect 6 0 0 0;
#X connect 6 1 2 0;
#X connect 6 2 4 0;
#X connect 8 0 6 0;
#X connect 9 0 7 0;
#X restore 192 113 pd rand_color;
#X obj 209 140 t 1;
#X obj 159 191 unpack 0 0;
#X floatatom 252 145 5 0 0 0 - - -;
#X obj 80 283 circle 0.1;
#X connect 0 0 4 0;
#X connect 1 0 9 0;
#X connect 2 0 7 0;
#X connect 3 0 1 0;
#X connect 4 0 3 0;
#X connect 5 0 4 1;
#X connect 5 0 6 0;
#X connect 5 0 8 0;
#X connect 6 0 3 1;
#X connect 7 0 1 1;
#X connect 7 1 1 2;
#X restore 117 132 pd gem.tone4;
#N canvas 161 141 450 300 gem.tone6 0;
#X obj 99 100 gemhead;
#X obj 100 276 translateXYZ;
#X obj 252 61 inlet;
#X obj 99 230 alpha;
#X obj 99 160 color 1 0.5 0 0.5;
#N canvas 0 22 474 324 rand_color 0;
#X obj 47 130 random 1000;
#X obj 48 171 * 0.001;
#X obj 131 130 random 1000;
#X obj 132 171 * 0.001;
#X obj 214 131 random 1000;
#X obj 215 172 * 0.001;
#X obj 46 83 t b b b;
#X obj 48 256 outlet;
#X obj 47 26 r init;
#X obj 49 217 pack 0 0 0 0.5;
#X connect 0 0 1 0;
#X connect 1 0 9 0;
#X connect 2 0 3 0;
#X connect 3 0 9 1;
#X connect 4 0 5 0;
#X connect 5 0 9 2;
#X connect 6 0 0 0;
#X connect 6 1 2 0;
#X connect 6 2 4 0;
#X connect 8 0 6 0;
#X connect 9 0 7 0;
#X restore 212 133 pd rand_color;
#X obj 229 160 t 1;
#X obj 179 211 unpack 0 0;
#X floatatom 272 165 5 0 0 0 - - -;
#X obj 100 303 circle 0.1;
#X connect 0 0 4 0;
#X connect 1 0 9 0;
#X connect 2 0 7 0;
#X connect 3 0 1 0;
#X connect 4 0 3 0;
#X connect 5 0 4 1;
#X connect 5 0 6 0;
#X connect 5 0 8 0;
#X connect 6 0 3 1;
#X connect 7 0 1 1;
#X connect 7 1 1 2;
#X restore 209 131 pd gem.tone6;
#N canvas 482 149 450 300 gem.tone1 0;
#X obj 49 50 gemhead;
#X obj 49 224 translateXYZ;
#X obj 202 11 inlet;
#X obj 49 180 alpha;
#X obj 49 110 color 1 0.5 0 0.5;
#N canvas 0 22 474 324 rand_color 0;
#X obj 47 130 random 1000;
#X obj 48 171 * 0.001;
#X obj 131 130 random 1000;
#X obj 132 171 * 0.001;
#X obj 214 131 random 1000;
#X obj 215 172 * 0.001;
#X obj 46 83 t b b b;
#X obj 48 256 outlet;
#X obj 47 26 r init;
#X obj 49 217 pack 0 0 0 0.5;
#X connect 0 0 1 0;
#X connect 1 0 9 0;
#X connect 2 0 3 0;
#X connect 3 0 9 1;
#X connect 4 0 5 0;
#X connect 5 0 9 2;
#X connect 6 0 0 0;
#X connect 6 1 2 0;
#X connect 6 2 4 0;
#X connect 8 0 6 0;
#X connect 9 0 7 0;
#X restore 162 83 pd rand_color;
#X obj 179 110 t 1;
#X obj 129 161 unpack 0 0;
#X floatatom 222 115 5 0 0 0 - - -;
#X obj 49 251 circle 0.1;
#X connect 0 0 4 0;
#X connect 1 0 9 0;
#X connect 2 0 7 0;
#X connect 3 0 1 0;
#X connect 4 0 3 0;
#X connect 5 0 4 1;
#X connect 5 0 6 0;
#X connect 5 0 8 0;
#X connect 6 0 3 1;
#X connect 7 0 1 1;
#X connect 7 1 1 2;
#X restore 27 50 pd gem.tone1;
#N canvas 161 141 450 300 gem.tone3 0;
#X obj 69 70 gemhead;
#X obj 70 246 translateXYZ;
#X obj 222 31 inlet;
#X obj 69 200 alpha;
#X obj 69 130 color 1 0.5 0 0.5;
#N canvas 0 22 474 324 rand_color 0;
#X obj 47 130 random 1000;
#X obj 48 171 * 0.001;
#X obj 131 130 random 1000;
#X obj 132 171 * 0.001;
#X obj 214 131 random 1000;
#X obj 215 172 * 0.001;
#X obj 46 83 t b b b;
#X obj 48 256 outlet;
#X obj 47 26 r init;
#X obj 49 217 pack 0 0 0 0.5;
#X connect 0 0 1 0;
#X connect 1 0 9 0;
#X connect 2 0 3 0;
#X connect 3 0 9 1;
#X connect 4 0 5 0;
#X connect 5 0 9 2;
#X connect 6 0 0 0;
#X connect 6 1 2 0;
#X connect 6 2 4 0;
#X connect 8 0 6 0;
#X connect 9 0 7 0;
#X restore 182 103 pd rand_color;
#X obj 199 130 t 1;
#X obj 149 181 unpack 0 0;
#X floatatom 242 135 5 0 0 0 - - -;
#X obj 70 273 circle 0.1;
#X connect 0 0 4 0;
#X connect 1 0 9 0;
#X connect 2 0 7 0;
#X connect 3 0 1 0;
#X connect 4 0 3 0;
#X connect 5 0 4 1;
#X connect 5 0 6 0;
#X connect 5 0 8 0;
#X connect 6 0 3 1;
#X connect 7 0 1 1;
#X connect 7 1 1 2;
#X restore 117 51 pd gem.tone3;
#N canvas 161 141 450 300 gem.tone5 0;
#X obj 89 90 gemhead;
#X obj 90 266 translateXYZ;
#X obj 242 51 inlet;
#X obj 89 220 alpha;
#X obj 89 150 color 1 0.5 0 0.5;
#N canvas 0 22 474 324 rand_color 0;
#X obj 47 130 random 1000;
#X obj 48 171 * 0.001;
#X obj 131 130 random 1000;
#X obj 132 171 * 0.001;
#X obj 214 131 random 1000;
#X obj 215 172 * 0.001;
#X obj 46 83 t b b b;
#X obj 48 256 outlet;
#X obj 47 26 r init;
#X obj 49 217 pack 0 0 0 0.5;
#X connect 0 0 1 0;
#X connect 1 0 9 0;
#X connect 2 0 3 0;
#X connect 3 0 9 1;
#X connect 4 0 5 0;
#X connect 5 0 9 2;
#X connect 6 0 0 0;
#X connect 6 1 2 0;
#X connect 6 2 4 0;
#X connect 8 0 6 0;
#X connect 9 0 7 0;
#X restore 202 123 pd rand_color;
#X obj 219 150 t 1;
#X obj 169 201 unpack 0 0;
#X floatatom 262 155 5 0 0 0 - - -;
#X obj 90 293 circle 0.1;
#X connect 0 0 4 0;
#X connect 1 0 9 0;
#X connect 2 0 7 0;
#X connect 3 0 1 0;
#X connect 4 0 3 0;
#X connect 5 0 4 1;
#X connect 5 0 6 0;
#X connect 5 0 8 0;
#X connect 6 0 3 1;
#X connect 7 0 1 1;
#X connect 7 1 1 2;
#X restore 210 51 pd gem.tone5;
#X obj 27 28 spigot;
#X obj 117 28 spigot;
#X obj 26 108 spigot;
#X obj 117 109 spigot;
#X obj 209 109 spigot;
#X obj 210 28 spigot;
#X obj 313 13 tgl 15 0 empty 2d empty 17 7 0 10 -262144 -1 -1 0 1;
#X connect 0 0 13 0;
#X connect 1 0 14 0;
#X connect 2 0 18 0;
#X connect 3 0 15 0;
#X connect 4 0 16 0;
#X connect 5 0 17 0;
#X connect 13 0 10 0;
#X connect 14 0 11 0;
#X connect 15 0 7 0;
#X connect 16 0 8 0;
#X connect 17 0 9 0;
#X connect 18 0 12 0;
#X connect 19 0 18 1;
#X connect 19 0 14 1;
#X connect 19 0 13 1;
#X connect 19 0 17 1;
#X connect 19 0 16 1;
#X connect 19 0 15 1;
#X restore 23 339 pd gem.tones.2D;
#X text 155 235 create/destroy OpenGl context;
#X obj 24 250 sel 1;
#X obj 107 238 sel 0;
#X msg 107 260 destroy;
#X msg 24 284 create \, 1 \, frame 50 \, color 1 1 1 \, menubar 0;
#X obj 24 310 gemwin;
#N canvas 384 63 367 172 gem.tones.3D 0;
#N canvas 482 149 450 300 gem.tone1 0;
#X obj 202 11 inlet;
#X obj 95 25 gemhead;
#X obj 95 193 translateXYZ;
#X obj 152 147 unpack 0 0 0;
#X obj 95 147 alpha;
#X obj 95 86 color 1 0.5 0 0.5;
#N canvas 0 22 474 324 rand_color 0;
#X obj 47 130 random 1000;
#X obj 48 171 * 0.001;
#X obj 131 130 random 1000;
#X obj 132 171 * 0.001;
#X obj 214 131 random 1000;
#X obj 215 172 * 0.001;
#X obj 46 83 t b b b;
#X obj 48 256 outlet;
#X obj 47 26 r init;
#X obj 49 217 pack 0 0 0 0.5;
#X connect 0 0 1 0;
#X connect 1 0 9 0;
#X connect 2 0 3 0;
#X connect 3 0 9 1;
#X connect 4 0 5 0;
#X connect 5 0 9 2;
#X connect 6 0 0 0;
#X connect 6 1 2 0;
#X connect 6 2 4 0;
#X connect 8 0 6 0;
#X connect 9 0 7 0;
#X restore 208 59 pd rand_color;
#X obj 225 86 t 1;
#X obj 95 220 circle 0.05;
#X connect 0 0 3 0;
#X connect 1 0 5 0;
#X connect 2 0 8 0;
#X connect 3 0 2 1;
#X connect 3 1 2 2;
#X connect 3 2 2 3;
#X connect 4 0 2 0;
#X connect 5 0 4 0;
#X connect 6 0 5 1;
#X connect 6 0 7 0;
#X connect 7 0 4 1;
#X restore 37 61 pd gem.tone1;
#X obj 37 15 r gt.3d1;
#X obj 37 38 spigot;
#X obj 127 38 spigot;
#X obj 36 118 spigot;
#X obj 127 119 spigot;
#X obj 219 119 spigot;
#X obj 220 38 spigot;
#X obj 323 23 tgl 15 0 empty 3d empty 17 7 0 10 -262144 -1 -1 0 1;
#X obj 127 16 r gt.3d2;
#X obj 36 97 r gt.3d4;
#X obj 127 98 r gt.3d5;
#X obj 220 16 r gt.3d3;
#X obj 219 97 r gt.3d6;
#N canvas 482 149 450 300 gem.tone2 0;
#X obj 202 11 inlet;
#X obj 95 25 gemhead;
#X obj 95 193 translateXYZ;
#X obj 152 147 unpack 0 0 0;
#X obj 95 147 alpha;
#X obj 95 86 color 1 0.5 0 0.5;
#N canvas 0 22 474 324 rand_color 0;
#X obj 47 130 random 1000;
#X obj 48 171 * 0.001;
#X obj 131 130 random 1000;
#X obj 132 171 * 0.001;
#X obj 214 131 random 1000;
#X obj 215 172 * 0.001;
#X obj 46 83 t b b b;
#X obj 48 256 outlet;
#X obj 47 26 r init;
#X obj 49 217 pack 0 0 0 0.5;
#X connect 0 0 1 0;
#X connect 1 0 9 0;
#X connect 2 0 3 0;
#X connect 3 0 9 1;
#X connect 4 0 5 0;
#X connect 5 0 9 2;
#X connect 6 0 0 0;
#X connect 6 1 2 0;
#X connect 6 2 4 0;
#X connect 8 0 6 0;
#X connect 9 0 7 0;
#X restore 208 59 pd rand_color;
#X obj 225 86 t 1;
#X obj 95 220 circle 0.05;
#X connect 0 0 3 0;
#X connect 1 0 5 0;
#X connect 2 0 8 0;
#X connect 3 0 2 1;
#X connect 3 1 2 2;
#X connect 3 2 2 3;
#X connect 4 0 2 0;
#X connect 5 0 4 0;
#X connect 6 0 5 1;
#X connect 6 0 7 0;
#X connect 7 0 4 1;
#X restore 127 61 pd gem.tone2;
#N canvas 482 149 450 300 gem.tone3 0;
#X obj 202 11 inlet;
#X obj 95 25 gemhead;
#X obj 95 193 translateXYZ;
#X obj 152 147 unpack 0 0 0;
#X obj 95 147 alpha;
#X obj 95 86 color 1 0.5 0 0.5;
#N canvas 0 22 474 324 rand_color 0;
#X obj 47 130 random 1000;
#X obj 48 171 * 0.001;
#X obj 131 130 random 1000;
#X obj 132 171 * 0.001;
#X obj 214 131 random 1000;
#X obj 215 172 * 0.001;
#X obj 46 83 t b b b;
#X obj 48 256 outlet;
#X obj 47 26 r init;
#X obj 49 217 pack 0 0 0 0.5;
#X connect 0 0 1 0;
#X connect 1 0 9 0;
#X connect 2 0 3 0;
#X connect 3 0 9 1;
#X connect 4 0 5 0;
#X connect 5 0 9 2;
#X connect 6 0 0 0;
#X connect 6 1 2 0;
#X connect 6 2 4 0;
#X connect 8 0 6 0;
#X connect 9 0 7 0;
#X restore 208 59 pd rand_color;
#X obj 225 86 t 1;
#X obj 95 220 circle 0.05;
#X connect 0 0 3 0;
#X connect 1 0 5 0;
#X connect 2 0 8 0;
#X connect 3 0 2 1;
#X connect 3 1 2 2;
#X connect 3 2 2 3;
#X connect 4 0 2 0;
#X connect 5 0 4 0;
#X connect 6 0 5 1;
#X connect 6 0 7 0;
#X connect 7 0 4 1;
#X restore 220 61 pd gem.tone3;
#N canvas 482 149 450 300 gem.tone4 0;
#X obj 202 11 inlet;
#X obj 95 25 gemhead;
#X obj 95 193 translateXYZ;
#X obj 152 147 unpack 0 0 0;
#X obj 95 147 alpha;
#X obj 95 86 color 1 0.5 0 0.5;
#N canvas 0 22 474 324 rand_color 0;
#X obj 47 130 random 1000;
#X obj 48 171 * 0.001;
#X obj 131 130 random 1000;
#X obj 132 171 * 0.001;
#X obj 214 131 random 1000;
#X obj 215 172 * 0.001;
#X obj 46 83 t b b b;
#X obj 48 256 outlet;
#X obj 47 26 r init;
#X obj 49 217 pack 0 0 0 0.5;
#X connect 0 0 1 0;
#X connect 1 0 9 0;
#X connect 2 0 3 0;
#X connect 3 0 9 1;
#X connect 4 0 5 0;
#X connect 5 0 9 2;
#X connect 6 0 0 0;
#X connect 6 1 2 0;
#X connect 6 2 4 0;
#X connect 8 0 6 0;
#X connect 9 0 7 0;
#X restore 208 59 pd rand_color;
#X obj 225 86 t 1;
#X obj 95 220 circle 0.05;
#X connect 0 0 3 0;
#X connect 1 0 5 0;
#X connect 2 0 8 0;
#X connect 3 0 2 1;
#X connect 3 1 2 2;
#X connect 3 2 2 3;
#X connect 4 0 2 0;
#X connect 5 0 4 0;
#X connect 6 0 5 1;
#X connect 6 0 7 0;
#X connect 7 0 4 1;
#X restore 36 139 pd gem.tone4;
#N canvas 482 149 450 300 gem.tone5 0;
#X obj 202 11 inlet;
#X obj 95 25 gemhead;
#X obj 95 193 translateXYZ;
#X obj 152 147 unpack 0 0 0;
#X obj 95 147 alpha;
#X obj 95 86 color 1 0.5 0 0.5;
#N canvas 0 22 474 324 rand_color 0;
#X obj 47 130 random 1000;
#X obj 48 171 * 0.001;
#X obj 131 130 random 1000;
#X obj 132 171 * 0.001;
#X obj 214 131 random 1000;
#X obj 215 172 * 0.001;
#X obj 46 83 t b b b;
#X obj 48 256 outlet;
#X obj 47 26 r init;
#X obj 49 217 pack 0 0 0 0.5;
#X connect 0 0 1 0;
#X connect 1 0 9 0;
#X connect 2 0 3 0;
#X connect 3 0 9 1;
#X connect 4 0 5 0;
#X connect 5 0 9 2;
#X connect 6 0 0 0;
#X connect 6 1 2 0;
#X connect 6 2 4 0;
#X connect 8 0 6 0;
#X connect 9 0 7 0;
#X restore 208 59 pd rand_color;
#X obj 225 86 t 1;
#X obj 95 220 circle 0.05;
#X connect 0 0 3 0;
#X connect 1 0 5 0;
#X connect 2 0 8 0;
#X connect 3 0 2 1;
#X connect 3 1 2 2;
#X connect 3 2 2 3;
#X connect 4 0 2 0;
#X connect 5 0 4 0;
#X connect 6 0 5 1;
#X connect 6 0 7 0;
#X connect 7 0 4 1;
#X restore 127 140 pd gem.tone5;
#N canvas 482 149 450 300 gem.tone6 0;
#X obj 202 11 inlet;
#X obj 95 25 gemhead;
#X obj 95 193 translateXYZ;
#X obj 152 147 unpack 0 0 0;
#X obj 95 147 alpha;
#X obj 95 86 color 1 0.5 0 0.5;
#N canvas 0 22 474 324 rand_color 0;
#X obj 47 130 random 1000;
#X obj 48 171 * 0.001;
#X obj 131 130 random 1000;
#X obj 132 171 * 0.001;
#X obj 214 131 random 1000;
#X obj 215 172 * 0.001;
#X obj 46 83 t b b b;
#X obj 48 256 outlet;
#X obj 47 26 r init;
#X obj 49 217 pack 0 0 0 0.5;
#X connect 0 0 1 0;
#X connect 1 0 9 0;
#X connect 2 0 3 0;
#X connect 3 0 9 1;
#X connect 4 0 5 0;
#X connect 5 0 9 2;
#X connect 6 0 0 0;
#X connect 6 1 2 0;
#X connect 6 2 4 0;
#X connect 8 0 6 0;
#X connect 9 0 7 0;
#X restore 208 59 pd rand_color;
#X obj 225 86 t 1;
#X obj 95 220 circle 0.05;
#X connect 0 0 3 0;
#X connect 1 0 5 0;
#X connect 2 0 8 0;
#X connect 3 0 2 1;
#X connect 3 1 2 2;
#X connect 3 2 2 3;
#X connect 4 0 2 0;
#X connect 5 0 4 0;
#X connect 6 0 5 1;
#X connect 6 0 7 0;
#X connect 7 0 4 1;
#X restore 219 140 pd gem.tone6;
#X connect 1 0 2 0;
#X connect 2 0 0 0;
#X connect 3 0 14 0;
#X connect 4 0 16 0;
#X connect 5 0 17 0;
#X connect 6 0 18 0;
#X connect 7 0 15 0;
#X connect 8 0 7 1;
#X connect 8 0 3 1;
#X connect 8 0 2 1;
#X connect 8 0 6 1;
#X connect 8 0 5 1;
#X connect 8 0 4 1;
#X connect 9 0 3 0;
#X connect 10 0 4 0;
#X connect 11 0 5 0;
#X connect 12 0 7 0;
#X connect 13 0 6 0;
#X restore 24 362 pd gem.tones.3D;
#N canvas 754 114 186 506 init 0;
#X obj 17 -49 loadbang;
#X obj 17 -25 bng 15 250 50 0 empty empty empty 0 -6 0 8 -262144 -1
-1;
#X obj 17 -4 s init;
#X connect 0 0 1 0;
#X connect 1 0 2 0;
#X restore 25 180 pd init;
#X obj 24 221 r gem.start;
#X text 281 59 Color Morphologies based on my[_____];
#X connect 0 0 1 0;
#X connect 0 0 1 1;
#X connect 1 0 7 0;
#X connect 2 0 5 0;
#X connect 2 0 5 1;
#X connect 3 0 4 0;
#X connect 3 0 4 1;
#X connect 4 0 8 0;
#X connect 5 0 9 0;
#X connect 7 0 13 0;
#X connect 8 0 12 0;
#X connect 9 0 11 0;
#X connect 11 0 10 0;
#X connect 12 0 10 0;
#X connect 13 0 10 0;
#X connect 14 0 0 0;
#X connect 14 0 2 0;
#X connect 14 0 3 0;
#X connect 21 0 24 0;
#X connect 22 0 23 0;
#X connect 23 0 25 0;
#X connect 24 0 25 0;
#X connect 28 0 21 0;
#X connect 28 0 22 0;
#X restore 94 121 pd color.gem;
#X text 55 165 How do such attraction/gravitational values work with
PMPD library and GEM?;
