#N canvas 0 22 563 466 10;
#X obj 43 230 spigot 0;
#X msg 41 82 analogIns 1 0;
#N canvas 162 133 610 460 serin 0;
#X obj 59 337 outlet;
#X obj 59 266 trigger bang anything;
#X obj 201 286 list;
#X obj 60 61 tgl 15 0 junk_to_hide_inlet junk_to_hide_outlet 0 5 9
1 12 -262130 -1 -1 0 1;
#X obj 75 61 tgl 15 0 junk_to_hide_inlet junk_to_hide_outlet 1 5 9
1 12 -262130 -1 -1 0 1;
#X obj 90 61 tgl 15 0 junk_to_hide_inlet junk_to_hide_outlet 2 5 9
1 12 -262130 -1 -1 0 1;
#X obj 105 61 tgl 15 0 junk_to_hide_inlet junk_to_hide_outlet 3 5 9
1 12 -262130 -1 -1 0 1;
#X obj 120 61 tgl 15 0 junk_to_hide_inlet junk_to_hide_outlet 4 5 9
1 12 -262130 -1 -1 0 1;
#X obj 135 61 tgl 15 0 junk_to_hide_inlet junk_to_hide_outlet 5 5 9
1 12 -262130 -1 -1 0 1;
#X obj 150 61 tgl 15 0 junk_to_hide_inlet junk_to_hide_outlet 6 5 9
1 12 -262130 -1 -1 0 1;
#X obj 165 61 tgl 15 0 junk_to_hide_inlet junk_to_hide_outlet 7 5 9
1 12 -262130 -1 -1 0 1;
#X msg 59 210 analogIns \$1 \$2;
#X msg 35 106 0 \$1;
#X msg 70 106 1 \$1;
#X msg 105 106 2 \$1;
#X msg 140 106 3 \$1;
#X msg 175 106 4 \$1;
#X msg 210 106 5 \$1;
#X msg 245 106 6 \$1;
#X msg 280 106 7 \$1;
#X msg 202 307 set \$1 \$2 \$3;
#X connect 1 0 0 0;
#X connect 1 1 2 0;
#X connect 2 0 20 0;
#X connect 3 0 12 0;
#X connect 4 0 13 0;
#X connect 5 0 14 0;
#X connect 6 0 15 0;
#X connect 7 0 16 0;
#X connect 8 0 17 0;
#X connect 9 0 18 0;
#X connect 10 0 19 0;
#X connect 11 0 1 0;
#X connect 12 0 11 0;
#X connect 13 0 11 0;
#X connect 14 0 11 0;
#X connect 15 0 11 0;
#X connect 16 0 11 0;
#X connect 17 0 11 0;
#X connect 18 0 11 0;
#X connect 19 0 11 0;
#X connect 20 0 0 0;
#X coords 0 -1 1 1 120 16 1 60 60;
#X restore 41 62 pd serin;
#X text 40 45 which analogIns to enable:;
#X obj 127 210 tgl 20 0 empty empty empty 0 -6 0 8 -258699 -1 -1 0
1;
#X obj 43 251 route analog;
#X floatatom 43 292 5 0 0 0 - - -;
#X obj 43 346 * 7;
#X obj 43 271 route 0;
#X obj 41 103 s \$0-arduino;
#X obj 43 185 r \$0-arduino;
#X obj 176 268 route 1;
#X floatatom 176 289 5 0 0 0 - - -;
#X text 158 120 Tilt;
#X obj 175 182 route digital;
#X floatatom 175 224 5 0 0 0 - - -;
#X msg 215 86 digitalIns 2 0;
#X text 214 49 which digital ports to enable:;
#N canvas 162 133 610 460 seri 0;
#X obj 59 337 outlet;
#X obj 59 266 trigger bang anything;
#X obj 201 286 list;
#X obj 60 61 tgl 15 0 junk_to_hide_inlet ARDUINO_TEST_RESET 0 5 9 1
12 -260736 -1 -1 0 1;
#X obj 75 61 tgl 15 0 junk_to_hide_inlet ARDUINO_TEST_RESET 1 5 9 1
12 -260736 -1 -1 0 1;
#X obj 90 61 tgl 15 0 junk_to_hide_inlet ARDUINO_TEST_RESET 2 5 9 1
12 -260736 -1 -1 0 1;
#X msg 35 106 0 \$1;
#X msg 70 106 1 \$1;
#X msg 105 106 2 \$1;
#X msg 202 307 set \$1 \$2 \$3;
#X msg 59 210 digitalIns \$1 \$2;
#X connect 1 0 0 0;
#X connect 1 1 2 0;
#X connect 2 0 9 0;
#X connect 3 0 6 0;
#X connect 4 0 7 0;
#X connect 5 0 8 0;
#X connect 6 0 10 0;
#X connect 7 0 10 0;
#X connect 8 0 10 0;
#X connect 9 0 0 0;
#X connect 10 0 1 0;
#X coords 0 -1 1 1 45 16 1 60 60;
#X restore 215 66 pd seri;
#X obj 175 202 route 2;
#X obj 303 268 send \$0-arduino;
#X msg 303 245 digital 13 \$1;
#X obj 303 227 tgl 15 0 empty empty empty 0 -6 0 8 -262144 -1 -1 1
1;
#X obj 303 183 loadbang;
#X obj 303 204 del 3000;
#X obj 43 316 average;
#X text 175 249 IR Range Sensor;
#X obj 176 313 average;
#X obj 176 339 * 7;
#X obj 43 403 s coll.arduino;
#X obj 43 377 mux _ _ _;
#X obj 244 346 hradio 10 1 0 3 empty empty empty 0 -8 0 10 -191407
-262144 -1 0;
#X obj 244 360 + 1;
#X text 241 328 Potentiometer or IR sensor control coll size;
#X text 321 223 switch LED on \, once loaded;
#X obj 43 207 arduino 2;
#X connect 0 0 5 0;
#X connect 0 0 14 0;
#X connect 1 0 9 0;
#X connect 2 0 1 0;
#X connect 4 0 0 1;
#X connect 5 0 8 0;
#X connect 5 0 11 0;
#X connect 6 0 25 0;
#X connect 7 0 30 1;
#X connect 8 0 6 0;
#X connect 10 0 35 0;
#X connect 11 0 12 0;
#X connect 12 0 27 0;
#X connect 14 0 19 0;
#X connect 16 0 9 0;
#X connect 18 0 16 0;
#X connect 19 0 15 0;
#X connect 21 0 20 0;
#X connect 22 0 21 0;
#X connect 23 0 24 0;
#X connect 24 0 22 0;
#X connect 25 0 7 0;
#X connect 27 0 28 0;
#X connect 28 0 30 2;
#X connect 30 0 29 0;
#X connect 31 0 32 0;
#X connect 32 0 30 3;
#X connect 35 0 0 0;
