#N canvas 0 22 1280 752 10;
#X obj -601 56 tgl 15 0 empty empty empty 17 7 0 10 -262144 -1 -1 1
1;
#X floatatom -584 163 5 0 0 0 - - -;
#X floatatom -535 163 5 0 0 0 - - -;
#X msg -575 62 open mouse \$1;
#X floatatom -581 35 5 0 0 0 - - -;
#X obj -584 115 route rel;
#X msg -481 75 print;
#X obj -584 137 route rel_x rel_y;
#X obj -394 154 tgl 15 0 empty empty empty 17 7 0 10 -262144 -1 -1
0 1;
#X obj -394 109 route key;
#X obj -394 131 route btn_0;
#X obj -581 -6 loadbang;
#X msg -581 14 1;
#X obj -589 342 grid grid1 200 -1 1 200 -1 1 1 0.01 0.01 10 10 -589
542;
#X obj -589 274 pack 0 0;
#X msg -589 319 values \$1 \$2;
#X obj -589 296 speedlim;
#X floatatom -647 561 5 0 0 0 - - -;
#X floatatom -336 560 5 0 0 0 - - -;
#X obj -584 92 hid 5;
#X obj -584 187 abs;
#X obj -534 187 abs;
#X floatatom -584 215 5 0 0 0 - - -;
#X floatatom -520 216 5 0 0 0 - - -;
#X obj -472 251 expr $f1 * (1 - -1) - 1;
#X obj -715 154 pddp/print;
#X text -563 248 scale values;
#X connect 0 0 19 0;
#X connect 1 0 20 0;
#X connect 2 0 21 0;
#X connect 3 0 19 0;
#X connect 4 0 3 0;
#X connect 5 0 7 0;
#X connect 6 0 19 0;
#X connect 7 0 1 0;
#X connect 7 1 2 0;
#X connect 7 1 25 0;
#X connect 9 0 10 0;
#X connect 10 0 8 0;
#X connect 11 0 12 0;
#X connect 12 0 4 0;
#X connect 13 0 17 0;
#X connect 13 1 18 0;
#X connect 14 0 16 0;
#X connect 15 0 13 0;
#X connect 16 0 15 0;
#X connect 19 0 5 0;
#X connect 19 0 9 0;
#X connect 20 0 22 0;
#X connect 21 0 23 0;
