#N canvas 0 48 1280 752 10;
#X floatatom 906 401 5 0 0 0 - - -;
#X obj 906 381 r gc.fcb;
#X obj 831 331 vradio 10 1 0 25 empty gis6 empty 0 -8 0 10 -262144
-1 -1 0;
#X obj 841 331 vradio 10 1 0 25 empty gis5 empty 0 -8 0 10 -262144
-1 -1 0;
#X obj 850 331 vradio 10 1 0 25 empty gis4 empty 0 -8 0 10 -262144
-1 -1 0;
#X obj 860 331 vradio 10 1 0 25 empty gis3 empty 0 -8 0 10 -262144
-1 -1 0;
#X obj 869 331 vradio 10 1 0 25 empty gis2 empty 0 -8 0 10 -262144
-1 -1 0;
#X obj 879 331 vradio 10 1 0 25 empty gis1 empty 0 -8 0 10 -262144
-1 -1 0;
#X obj 778 333 cnv 15 20 200 empty empty empty 20 12 0 14 -233017 -66577
0;
#X text 783 339 g;
#X text 783 354 u;
#X text 783 370 i;
#X text 782 386 t;
#X text 782 399 a;
#X text 782 412 r;
#X text 905 362 fcb control;
#X text 100 -21 wireless foot controller;
#X obj 101 1 cnv 15 650 400 empty empty glbl.cntrl 4 8 0 9 -1 -262144
0;
#X floatatom 130 294 5 0 0 0 - #0-bank -;
#X obj 120 273 cnv 15 1 1 empty empty bank 10 12 0 9 -1 -262144 0;
#X obj 121 247 cnv 15 1 1 empty empty quickmap.matrix 10 12 0 9 -1
-262144 0;
#X obj 568 240 cnv 15 1 1 empty empty wireless.controller 10 12 0 9
-1 -262144 0;
#X obj 129 319 bng 10 250 50 0 save.fc.coll empty empty 17 7 0 10 -128992
-1 -1;
#X obj 144 323 cnv 5 1 1 empty empty save 0 0 0 9 -1 -262144 0;
#X obj 177 273 cnv 15 1 1 empty empty btn.1 10 12 0 9 -1 -262144 0
;
#X obj 177 289 cnv 15 1 1 empty empty btn.2 10 12 0 9 -1 -262144 0
;
#X obj 177 305 cnv 15 1 1 empty empty btn.3 10 12 0 9 -1 -262144 0
;
#X obj 177 321 cnv 15 1 1 empty empty btn.4 10 12 0 9 -1 -262144 0
;
#X obj 321 277 cnv 15 1 1 empty empty btn.5 10 12 0 9 -1 -262144 0
;
#X obj 321 293 cnv 15 1 1 empty empty btn.6 10 12 0 9 -1 -262144 0
;
#X obj 321 309 cnv 15 1 1 empty empty btn.7 10 12 0 9 -1 -262144 0
;
#X text 777 295 create makenotes for echoloop in live;
#X text 777 220 7 buttons/7 processes each radio button produces a
number. a number corresponds to a process. set mapping matrix then
store in coll using appropriate bank number as index. numbers will
be outputted each time bank number is chaned on foot controller;
#X symbolatom 231 277 10 0 0 0 - btn.1 -;
#X symbolatom 231 296 10 0 0 0 - btn.2 -;
#X symbolatom 231 315 10 0 0 0 - btn.3 -;
#X symbolatom 231 334 10 0 0 0 - btn.4 -;
#X symbolatom 370 277 10 0 0 0 - btn.5 -;
#X symbolatom 370 296 10 0 0 0 - btn.6 -;
#X symbolatom 370 315 10 0 0 0 - btn.7 -;
#X text 776 -4 Loop IV started with C = 36 = Parameter Button \, which
we dont need any more \, so we start at D = 38: 38RECORD_TOG \, 39OVERDUB_TOG
\, 40MULTIPLY_TOG \, 41INSERT_TOG \, 42MUTE_TOG \, 43UNDO \, 44NEXT_LOOP
\, 45REPLACE_TOG \, 46SUBSTITUTE_TOG \, InsertOnly \, 48HALFSPEED_TOG
\, 49REVERSE_TOG \, 50VB_RECORD_SUS \, 51OVERDUB_SUS \, 52UNRNDMULT_SUS
\, 53UNRNDINSERT_SUS \, 54MUTE_SUS \, 55LONGUNDO \, 56PREV_LOOP \,
57REPLACE_SUS \, 58SUBSTITUTE_SUS \, 59REVERSE_SUS \, 60HALFSPEED_SUS
\, 61RESET \, 62GENERALRESET \, 63Reserved \, 64UNRNDMULT_SUS \, 65UNRNDINSERT_SUS
\, 66Reserved \, 67LONGUNDO \, 68ORIG_LOOP \, 69SET_LOOP \, 70Reserved
\, 71Reserved \, 72PLAYSAMPLE \, 73RETRIGGER \, 74REALIGN \, 75MUTE_REALIGN
\, 76SOONSTARTSONG \, (some of those are not implemented yet...) 77MUTESOONSTARTSONG
\, 78STARTPOINT \, 79SOONSTARTPOINT \, 84 Loop Trigger (Next&) \, set
by the LoopTrig parameter just like in LOOP IV \, but now set to a
;
#N canvas 0 22 880 393 btn.1 0;
#X obj 334 44 inlet;
#X obj 21 158 sel record;
#X obj 97 158 sel overdub;
#X obj 410 158 sel mute;
#X obj 174 158 sel insert;
#X obj 245 158 sel replace;
#X obj 320 158 sel halfspeed;
#X obj 473 158 sel nextloop;
#X obj 565 156 sel substitute;
#X obj 673 157 sel reverse;
#X msg 11 194 38;
#X msg 93 194 39;
#X obj 758 157 sel undo;
#X msg 758 185 55;
#X msg 327 193 48;
#X msg 241 192 57;
#X msg 171 190 53;
#X msg 414 188 42;
#X msg 484 192 44;
#X msg 577 188 58;
#X msg 680 188 49;
#X obj 328 275 s btn1.coll;
#X connect 0 0 1 0;
#X connect 0 0 2 0;
#X connect 0 0 4 0;
#X connect 0 0 5 0;
#X connect 0 0 6 0;
#X connect 0 0 3 0;
#X connect 0 0 7 0;
#X connect 0 0 8 0;
#X connect 0 0 9 0;
#X connect 0 0 12 0;
#X connect 1 0 10 0;
#X connect 2 0 11 0;
#X connect 3 0 17 0;
#X connect 4 0 16 0;
#X connect 5 0 15 0;
#X connect 6 0 14 0;
#X connect 7 0 18 0;
#X connect 8 0 19 0;
#X connect 9 0 20 0;
#X connect 10 0 21 0;
#X connect 11 0 21 0;
#X connect 12 0 13 0;
#X connect 13 0 21 0;
#X connect 14 0 21 0;
#X connect 15 0 21 0;
#X connect 16 0 21 0;
#X connect 17 0 21 0;
#X connect 18 0 21 0;
#X connect 19 0 21 0;
#X connect 20 0 21 0;
#X restore 102 410 pd btn.1;
#N canvas 0 48 1280 752 fc.coll 0;
#X obj 237 160 coll;
#C restore;
#X msg 378 133 sort 1 \$1;
#X text 374 153 sort coll by requested bank;
#X obj 138 17 r \$0-bank;
#X obj 220 72 i;
#X obj 258 67 i;
#X obj 292 67 i;
#X obj 325 65 i;
#X obj 360 65 i;
#X obj 407 67 i;
#X obj 459 70 i;
#X obj 527 68 i;
#X obj 237 124 pack 0 0 0 0 0 0 0 0;
#X obj 247 -89 r save.fc.coll;
#X obj 247 -36 t b b b b b b b b;
#X obj 263 -62 bng 15 250 50 0 empty empty empty 17 7 0 10 -262144
-1 -1;
#X obj 487 116 r \$0-bank;
#X obj 90 82 r load.fc.coll;
#X obj 90 116 bng 15 250 50 0 empty empty empty 17 7 0 10 -262144 -1
-1;
#X floatatom 148 114 5 0 0 0 - - -;
#X obj 219 -61 del 5;
#X obj 210 15 r btn1.coll;
#X obj 304 6 r btn2.coll;
#X obj 396 10 r btn3.coll;
#X obj 501 1 r btn4.coll;
#X obj 594 0 r btn5.coll;
#X obj 626 63 r btn6.coll;
#X obj 724 6 r btn7.coll;
#X msg 523 187 clear;
#X obj 167 256 s \$0-b1;
#X obj 221 256 s \$0-b2;
#X obj 289 256 s \$0-b3;
#X obj 350 257 s \$0-b4;
#X obj 432 256 s \$0-b5;
#X obj 213 307 s \$0-b6;
#X obj 317 316 s \$0-b7;
#X obj 237 183 unpack 0 0 0 0 0 0 0;
#X msg 736 155 remove \$1;
#X obj 603 135 r clear.fc.coll;
#X text 304 -62 allow for bank number update;
#X connect 0 0 36 0;
#X connect 1 0 0 0;
#X connect 3 0 4 1;
#X connect 4 0 12 0;
#X connect 5 0 12 1;
#X connect 6 0 12 2;
#X connect 7 0 12 3;
#X connect 8 0 12 4;
#X connect 9 0 12 5;
#X connect 10 0 12 6;
#X connect 11 0 12 7;
#X connect 12 0 0 0;
#X connect 13 0 15 0;
#X connect 13 0 20 0;
#X connect 14 0 4 0;
#X connect 14 1 5 0;
#X connect 14 2 6 0;
#X connect 14 3 7 0;
#X connect 14 4 8 0;
#X connect 14 5 9 0;
#X connect 14 6 10 0;
#X connect 14 7 11 0;
#X connect 16 0 1 0;
#X connect 17 0 18 0;
#X connect 17 0 19 0;
#X connect 18 0 0 0;
#X connect 20 0 14 0;
#X connect 21 0 5 1;
#X connect 22 0 6 1;
#X connect 23 0 7 1;
#X connect 24 0 8 1;
#X connect 25 0 9 1;
#X connect 26 0 10 1;
#X connect 27 0 11 1;
#X connect 28 0 0 0;
#X connect 36 0 29 0;
#X connect 36 1 30 0;
#X connect 36 2 31 0;
#X connect 36 3 32 0;
#X connect 36 4 33 0;
#X connect 36 5 34 0;
#X connect 36 6 35 0;
#X connect 38 0 28 0;
#X restore 103 440 pd fc.coll;
#X obj 129 334 bng 10 250 50 0 load.fc.coll empty empty 17 7 0 10 -128992
-1 -1;
#X obj 144 336 cnv 5 1 1 empty empty load 0 0 0 9 -1 -262144 0;
#N canvas 0 22 880 393 btn.2 0;
#X obj 334 44 inlet;
#X obj 21 158 sel record;
#X obj 97 158 sel overdub;
#X obj 410 158 sel mute;
#X obj 174 158 sel insert;
#X obj 245 158 sel replace;
#X obj 320 158 sel halfspeed;
#X obj 473 158 sel nextloop;
#X obj 565 156 sel substitute;
#X obj 673 157 sel reverse;
#X msg 11 194 38;
#X msg 93 194 39;
#X obj 758 157 sel undo;
#X msg 758 185 55;
#X msg 327 193 48;
#X msg 241 192 57;
#X msg 171 190 53;
#X msg 414 188 42;
#X msg 484 192 44;
#X msg 577 188 58;
#X msg 680 188 49;
#X obj 328 275 s btn2.coll;
#X connect 0 0 1 0;
#X connect 0 0 2 0;
#X connect 0 0 4 0;
#X connect 0 0 5 0;
#X connect 0 0 6 0;
#X connect 0 0 3 0;
#X connect 0 0 7 0;
#X connect 0 0 8 0;
#X connect 0 0 9 0;
#X connect 0 0 12 0;
#X connect 1 0 10 0;
#X connect 2 0 11 0;
#X connect 3 0 17 0;
#X connect 4 0 16 0;
#X connect 5 0 15 0;
#X connect 6 0 14 0;
#X connect 7 0 18 0;
#X connect 8 0 19 0;
#X connect 9 0 20 0;
#X connect 10 0 21 0;
#X connect 11 0 21 0;
#X connect 12 0 13 0;
#X connect 13 0 21 0;
#X connect 14 0 21 0;
#X connect 15 0 21 0;
#X connect 16 0 21 0;
#X connect 17 0 21 0;
#X connect 18 0 21 0;
#X connect 19 0 21 0;
#X connect 20 0 21 0;
#X restore 160 411 pd btn.2;
#N canvas 0 22 880 393 btn.3 0;
#X obj 334 44 inlet;
#X obj 21 158 sel record;
#X obj 97 158 sel overdub;
#X obj 410 158 sel mute;
#X obj 174 158 sel insert;
#X obj 245 158 sel replace;
#X obj 320 158 sel halfspeed;
#X obj 473 158 sel nextloop;
#X obj 565 156 sel substitute;
#X obj 673 157 sel reverse;
#X msg 11 194 38;
#X msg 93 194 39;
#X obj 758 157 sel undo;
#X msg 758 185 55;
#X msg 327 193 48;
#X msg 241 192 57;
#X msg 171 190 53;
#X msg 414 188 42;
#X msg 484 192 44;
#X msg 577 188 58;
#X msg 680 188 49;
#X obj 328 275 s btn3.coll;
#X connect 0 0 1 0;
#X connect 0 0 2 0;
#X connect 0 0 4 0;
#X connect 0 0 5 0;
#X connect 0 0 6 0;
#X connect 0 0 3 0;
#X connect 0 0 7 0;
#X connect 0 0 8 0;
#X connect 0 0 9 0;
#X connect 0 0 12 0;
#X connect 1 0 10 0;
#X connect 2 0 11 0;
#X connect 3 0 17 0;
#X connect 4 0 16 0;
#X connect 5 0 15 0;
#X connect 6 0 14 0;
#X connect 7 0 18 0;
#X connect 8 0 19 0;
#X connect 9 0 20 0;
#X connect 10 0 21 0;
#X connect 11 0 21 0;
#X connect 12 0 13 0;
#X connect 13 0 21 0;
#X connect 14 0 21 0;
#X connect 15 0 21 0;
#X connect 16 0 21 0;
#X connect 17 0 21 0;
#X connect 18 0 21 0;
#X connect 19 0 21 0;
#X connect 20 0 21 0;
#X restore 218 411 pd btn.3;
#N canvas 0 22 880 393 btn.4 0;
#X obj 334 44 inlet;
#X obj 21 158 sel record;
#X obj 97 158 sel overdub;
#X obj 410 158 sel mute;
#X obj 174 158 sel insert;
#X obj 245 158 sel replace;
#X obj 320 158 sel halfspeed;
#X obj 473 158 sel nextloop;
#X obj 565 156 sel substitute;
#X obj 673 157 sel reverse;
#X msg 11 194 38;
#X msg 93 194 39;
#X obj 758 157 sel undo;
#X msg 758 185 55;
#X msg 327 193 48;
#X msg 241 192 57;
#X msg 171 190 53;
#X msg 414 188 42;
#X msg 484 192 44;
#X msg 577 188 58;
#X msg 680 188 49;
#X obj 328 275 s btn4.coll;
#X connect 0 0 1 0;
#X connect 0 0 2 0;
#X connect 0 0 4 0;
#X connect 0 0 5 0;
#X connect 0 0 6 0;
#X connect 0 0 3 0;
#X connect 0 0 7 0;
#X connect 0 0 8 0;
#X connect 0 0 9 0;
#X connect 0 0 12 0;
#X connect 1 0 10 0;
#X connect 2 0 11 0;
#X connect 3 0 17 0;
#X connect 4 0 16 0;
#X connect 5 0 15 0;
#X connect 6 0 14 0;
#X connect 7 0 18 0;
#X connect 8 0 19 0;
#X connect 9 0 20 0;
#X connect 10 0 21 0;
#X connect 11 0 21 0;
#X connect 12 0 13 0;
#X connect 13 0 21 0;
#X connect 14 0 21 0;
#X connect 15 0 21 0;
#X connect 16 0 21 0;
#X connect 17 0 21 0;
#X connect 18 0 21 0;
#X connect 19 0 21 0;
#X connect 20 0 21 0;
#X restore 276 412 pd btn.4;
#N canvas 0 22 880 393 btn.5 0;
#X obj 334 44 inlet;
#X obj 21 158 sel record;
#X obj 97 158 sel overdub;
#X obj 410 158 sel mute;
#X obj 174 158 sel insert;
#X obj 245 158 sel replace;
#X obj 320 158 sel halfspeed;
#X obj 473 158 sel nextloop;
#X obj 565 156 sel substitute;
#X obj 673 157 sel reverse;
#X msg 11 194 38;
#X msg 93 194 39;
#X obj 758 157 sel undo;
#X msg 758 185 55;
#X msg 327 193 48;
#X msg 241 192 57;
#X msg 171 190 53;
#X msg 414 188 42;
#X msg 484 192 44;
#X msg 577 188 58;
#X msg 680 188 49;
#X obj 328 275 s btn5.coll;
#X connect 0 0 1 0;
#X connect 0 0 2 0;
#X connect 0 0 4 0;
#X connect 0 0 5 0;
#X connect 0 0 6 0;
#X connect 0 0 3 0;
#X connect 0 0 7 0;
#X connect 0 0 8 0;
#X connect 0 0 9 0;
#X connect 0 0 12 0;
#X connect 1 0 10 0;
#X connect 2 0 11 0;
#X connect 3 0 17 0;
#X connect 4 0 16 0;
#X connect 5 0 15 0;
#X connect 6 0 14 0;
#X connect 7 0 18 0;
#X connect 8 0 19 0;
#X connect 9 0 20 0;
#X connect 10 0 21 0;
#X connect 11 0 21 0;
#X connect 12 0 13 0;
#X connect 13 0 21 0;
#X connect 14 0 21 0;
#X connect 15 0 21 0;
#X connect 16 0 21 0;
#X connect 17 0 21 0;
#X connect 18 0 21 0;
#X connect 19 0 21 0;
#X connect 20 0 21 0;
#X restore 370 409 pd btn.5;
#N canvas 0 22 880 393 btn.6 0;
#X obj 334 44 inlet;
#X obj 21 158 sel record;
#X obj 97 158 sel overdub;
#X obj 410 158 sel mute;
#X obj 174 158 sel insert;
#X obj 245 158 sel replace;
#X obj 320 158 sel halfspeed;
#X obj 473 158 sel nextloop;
#X obj 565 156 sel substitute;
#X obj 673 157 sel reverse;
#X msg 11 194 38;
#X msg 93 194 39;
#X obj 758 157 sel undo;
#X msg 758 185 55;
#X msg 327 193 48;
#X msg 241 192 57;
#X msg 171 190 53;
#X msg 414 188 42;
#X msg 484 192 44;
#X msg 577 188 58;
#X msg 680 188 49;
#X obj 328 275 s btn6.coll;
#X connect 0 0 1 0;
#X connect 0 0 2 0;
#X connect 0 0 4 0;
#X connect 0 0 5 0;
#X connect 0 0 6 0;
#X connect 0 0 3 0;
#X connect 0 0 7 0;
#X connect 0 0 8 0;
#X connect 0 0 9 0;
#X connect 0 0 12 0;
#X connect 1 0 10 0;
#X connect 2 0 11 0;
#X connect 3 0 17 0;
#X connect 4 0 16 0;
#X connect 5 0 15 0;
#X connect 6 0 14 0;
#X connect 7 0 18 0;
#X connect 8 0 19 0;
#X connect 9 0 20 0;
#X connect 10 0 21 0;
#X connect 11 0 21 0;
#X connect 12 0 13 0;
#X connect 13 0 21 0;
#X connect 14 0 21 0;
#X connect 15 0 21 0;
#X connect 16 0 21 0;
#X connect 17 0 21 0;
#X connect 18 0 21 0;
#X connect 19 0 21 0;
#X connect 20 0 21 0;
#X restore 426 409 pd btn.6;
#N canvas 0 22 880 393 btn.7 0;
#X obj 334 44 inlet;
#X obj 21 158 sel record;
#X obj 97 158 sel overdub;
#X obj 410 158 sel mute;
#X obj 174 158 sel insert;
#X obj 245 158 sel replace;
#X obj 320 158 sel halfspeed;
#X obj 473 158 sel nextloop;
#X obj 565 156 sel substitute;
#X obj 673 157 sel reverse;
#X msg 11 194 38;
#X msg 93 194 39;
#X obj 758 157 sel undo;
#X msg 758 185 55;
#X msg 327 193 48;
#X msg 241 192 57;
#X msg 171 190 53;
#X msg 414 188 42;
#X msg 484 192 44;
#X msg 577 188 58;
#X msg 680 188 49;
#X obj 328 275 s btn7.coll;
#X connect 0 0 1 0;
#X connect 0 0 2 0;
#X connect 0 0 4 0;
#X connect 0 0 5 0;
#X connect 0 0 6 0;
#X connect 0 0 3 0;
#X connect 0 0 7 0;
#X connect 0 0 8 0;
#X connect 0 0 9 0;
#X connect 0 0 12 0;
#X connect 1 0 10 0;
#X connect 2 0 11 0;
#X connect 3 0 17 0;
#X connect 4 0 16 0;
#X connect 5 0 15 0;
#X connect 6 0 14 0;
#X connect 7 0 18 0;
#X connect 8 0 19 0;
#X connect 9 0 20 0;
#X connect 10 0 21 0;
#X connect 11 0 21 0;
#X connect 12 0 13 0;
#X connect 13 0 21 0;
#X connect 14 0 21 0;
#X connect 15 0 21 0;
#X connect 16 0 21 0;
#X connect 17 0 21 0;
#X connect 18 0 21 0;
#X connect 19 0 21 0;
#X connect 20 0 21 0;
#X restore 484 410 pd btn.7;
#X obj 555 256 cnv 15 1 1 empty empty controls.echoloop.vst 10 12 0
9 -1 -262144 0;
#X obj 129 347 bng 10 250 50 0 clear.fc.coll empty empty 17 7 0 10
-128992 -1 -1;
#X obj 146 350 cnv 5 1 1 empty empty clear 0 0 0 9 -1 -262144 0;
#X obj 426 134 image img/fb.gif;
#N canvas 0 48 1280 752 foot.controller 0;
#X text 918 -145 Loop IV started with C = 36 = Parameter Button \,
which we dont need any more \, so we start at D = 38: 38RECORD_TOG
\, 39OVERDUB_TOG \, 40MULTIPLY_TOG \, 41INSERT_TOG \, 42MUTE_TOG \,
43UNDO \, 44NEXT_LOOP \, 45REPLACE_TOG \, 46SUBSTITUTE_TOG \, InsertOnly
\, 48HALFSPEED_TOG \, 49REVERSE_TOG \, 50VB_RECORD_SUS \, 51OVERDUB_SUS
\, 52UNRNDMULT_SUS \, 53UNRNDINSERT_SUS \, 54MUTE_SUS \, 55LONGUNDO
\, 56PREV_LOOP \, 57REPLACE_SUS \, 58SUBSTITUTE_SUS \, 59REVERSE_SUS
\, 60HALFSPEED_SUS \, 61RESET \, 62GENERALRESET \, 63Reserved \, 64UNRNDMULT_SUS
\, 65UNRNDINSERT_SUS \, 66Reserved \, 67LONGUNDO \, 68ORIG_LOOP \,
69SET_LOOP \, 70Reserved \, 71Reserved \, 72PLAYSAMPLE \, 73RETRIGGER
\, 74REALIGN \, 75MUTE_REALIGN \, 76SOONSTARTSONG \, (some of those
are not implemented yet...) 77MUTESOONSTARTSONG \, 78STARTPOINT \,
79SOONSTARTPOINT \, 84 Loop Trigger (Next&) \, set by the LoopTrig
parameter just like in LOOP IV \, but now set to a;
#X floatatom 902 252 5 0 0 0 - - -;
#X obj 33 -69 sel 1;
#X obj 154 -40 sel 1;
#X floatatom 244 -108 5 0 0 0 - - -;
#X obj 241 -32 sel 1;
#X floatatom 300 -103 5 0 0 0 - - -;
#X obj 297 -77 sel 1;
#X obj 354 22 sel 1;
#X floatatom 606 -113 5 0 0 0 - - -;
#X obj 603 -37 sel 1;
#X floatatom 383 -228 5 0 0 0 - - -;
#X obj 604 -139 == 47;
#X floatatom 723 -114 5 0 0 0 - - -;
#X obj 720 -38 sel 1;
#X floatatom 776 -115 5 0 0 0 - - -;
#X obj 773 -39 sel 1;
#X obj 323 -227 key;
#X floatatom 173 -104 5 0 0 0 - - -;
#X obj 390 -161 == 0;
#X obj 440 -60 sel 1;
#X obj 774 -141 == 42;
#X obj 721 -140 == 46;
#X obj 359 -109 == 91;
#X obj 175 222 bng 30 250 50 0 empty empty empty 17 7 0 10 -1 -258113
-1;
#X obj 158 158 bng 30 250 50 0 empty empty empty 17 7 0 10 -1 -258113
-1;
#X obj 246 158 bng 30 250 50 0 empty empty empty 17 7 0 10 -1 -258113
-1;
#X obj 387 229 bng 30 250 50 0 empty empty empty 17 7 0 10 -1 -258113
-1;
#X obj 327 160 bng 30 250 50 0 empty empty empty 17 7 0 10 -1 -258113
-1;
#X obj 406 158 bng 30 250 50 0 empty empty empty 17 7 0 10 -1 -258113
-1;
#X obj 500 184 bng 30 250 50 0 empty empty empty 17 7 0 10 -1 -258113
-1;
#X obj 607 145 bng 30 250 50 0 empty empty empty 17 7 0 10 -1 -258113
-1;
#X obj 587 232 bng 30 250 50 0 empty empty empty 17 7 0 10 -1 -258113
-1;
#X obj 242 -134 == 116;
#X obj 173 -129 == 113;
#X obj 4 -125 == 122;
#X obj 299 -127 == 105;
#X obj 722 158 s \$0-bank;
#X text 720 179 act as index;
#X obj 802 98 bng 15 250 50 0 empty empty empty 17 7 0 10 -262144 -1
-1;
#X floatatom 722 136 10 0 0 0 - - -;
#X obj 709 71 bng 15 250 50 0 empty empty empty 17 7 0 10 -262144 -1
-1;
#X msg 779 70 1;
#X msg 809 71 0;
#X floatatom 738 59 5 0 0 0 - - -;
#X floatatom 785 50 5 0 0 0 - - -;
#X floatatom 759 17 5 0 0 0 - - -;
#X obj 818 -3 loadbang;
#X obj 721 113 counter;
#X msg 818 31 0;
#X msg 858 33 10;
#X obj 139 340 s rec.g.1;
#X obj 185 310 s rec.g.2;
#X obj 235 229 s rec.g.3;
#X obj 320 316 s rec.g.4;
#X obj 412 313 s rec.g.5;
#X obj 490 341 s rec.g.6;
#X obj 524 312 s rec.g;
#X obj 37 103 i;
#X obj 52 67 r \$0-b1;
#X floatatom 68 93 5 0 0 0 - - -;
#X obj 25 320 i;
#X floatatom 80 334 5 0 0 0 - - -;
#X obj 64 309 r \$0-b2;
#X obj 365 355 i;
#X floatatom 280 348 5 0 0 0 - - -;
#X obj 264 322 r \$0-b3;
#X obj 390 385 i;
#X floatatom 421 375 5 0 0 0 - - -;
#X obj 405 349 r \$0-b4;
#X obj 609 361 i;
#X floatatom 640 351 5 0 0 0 - - -;
#X obj 730 324 i;
#X floatatom 761 314 5 0 0 0 - - -;
#X msg 871 285 \$1 100;
#X obj 871 262 i;
#X floatatom 163 193 3 0 0 0 - - -;
#X floatatom 179 254 3 0 0 0 - - -;
#X floatatom 251 192 3 0 0 0 - - -;
#X floatatom 333 192 3 0 0 0 - - -;
#X floatatom 393 262 3 0 0 0 - - -;
#X floatatom 412 192 3 0 0 0 - - -;
#X floatatom 507 217 3 0 0 0 - - -;
#X obj 828 119 r save.fc.coll;
#X obj 624 325 r \$0-b5;
#X obj 745 288 r \$0-b6;
#X obj 886 226 r \$0-b7;
#X obj 3 186 noteout 2;
#X obj 3 163 makenote 100 100;
#X obj 36 392 noteout 2;
#X obj 36 369 makenote 100 100;
#X obj 264 419 noteout 2;
#X obj 264 396 makenote 100 100;
#X obj 403 443 noteout 2;
#X obj 403 420 makenote 100 100;
#X obj 576 432 noteout 2;
#X obj 576 409 makenote 100 100;
#X obj 713 396 noteout 2;
#X obj 713 373 makenote 100 100;
#X obj 863 359 noteout 2;
#X obj 863 336 makenote 100 100;
#X connect 2 0 24 0;
#X connect 3 0 25 0;
#X connect 4 0 5 0;
#X connect 5 0 26 0;
#X connect 6 0 7 0;
#X connect 7 0 28 0;
#X connect 8 0 29 0;
#X connect 9 0 10 0;
#X connect 10 0 27 0;
#X connect 11 0 19 0;
#X connect 12 0 9 0;
#X connect 13 0 14 0;
#X connect 14 0 32 0;
#X connect 14 0 42 0;
#X connect 14 0 41 0;
#X connect 15 0 16 0;
#X connect 16 0 31 0;
#X connect 16 0 43 0;
#X connect 16 0 41 0;
#X connect 17 0 11 0;
#X connect 17 0 12 0;
#X connect 17 0 21 0;
#X connect 17 0 22 0;
#X connect 17 0 23 0;
#X connect 17 0 33 0;
#X connect 17 0 34 0;
#X connect 17 0 35 0;
#X connect 17 0 36 0;
#X connect 18 0 3 0;
#X connect 19 0 20 0;
#X connect 20 0 30 0;
#X connect 21 0 15 0;
#X connect 22 0 13 0;
#X connect 23 0 8 0;
#X connect 24 0 52 0;
#X connect 24 0 61 0;
#X connect 25 0 51 0;
#X connect 25 0 58 0;
#X connect 26 0 53 0;
#X connect 26 0 64 0;
#X connect 27 0 55 0;
#X connect 27 0 70 0;
#X connect 28 0 54 0;
#X connect 28 0 67 0;
#X connect 29 0 56 0;
#X connect 29 0 72 0;
#X connect 30 0 57 0;
#X connect 30 0 75 0;
#X connect 33 0 4 0;
#X connect 34 0 18 0;
#X connect 35 0 2 0;
#X connect 36 0 6 0;
#X connect 39 0 42 0;
#X connect 39 0 48 3;
#X connect 40 0 37 0;
#X connect 41 0 48 0;
#X connect 42 0 48 1;
#X connect 43 0 48 1;
#X connect 44 0 48 2;
#X connect 45 0 48 4;
#X connect 46 0 48 3;
#X connect 47 0 49 0;
#X connect 47 0 50 0;
#X connect 47 0 41 0;
#X connect 48 0 40 0;
#X connect 49 0 44 0;
#X connect 50 0 45 0;
#X connect 58 0 88 0;
#X connect 59 0 58 1;
#X connect 59 0 60 0;
#X connect 59 0 76 0;
#X connect 61 0 90 0;
#X connect 63 0 61 1;
#X connect 63 0 62 0;
#X connect 63 0 77 0;
#X connect 64 0 92 0;
#X connect 66 0 64 1;
#X connect 66 0 65 0;
#X connect 66 0 78 0;
#X connect 67 0 94 0;
#X connect 69 0 67 1;
#X connect 69 0 68 0;
#X connect 69 0 79 0;
#X connect 70 0 96 0;
#X connect 72 0 98 0;
#X connect 74 0 100 0;
#X connect 75 0 74 0;
#X connect 83 0 40 0;
#X connect 84 0 70 1;
#X connect 84 0 71 0;
#X connect 84 0 80 0;
#X connect 85 0 72 1;
#X connect 85 0 73 0;
#X connect 85 0 81 0;
#X connect 86 0 75 1;
#X connect 86 0 82 0;
#X connect 86 0 1 0;
#X connect 88 0 87 0;
#X connect 88 1 87 1;
#X connect 90 0 89 0;
#X connect 90 1 89 1;
#X connect 92 0 91 0;
#X connect 92 1 91 1;
#X connect 94 0 93 0;
#X connect 94 1 93 1;
#X connect 96 0 95 0;
#X connect 96 1 95 1;
#X connect 98 0 97 0;
#X connect 98 1 97 1;
#X connect 100 0 99 0;
#X connect 100 1 99 1;
#X coords 0 -1 1 1 560 205 2 100 100;
#X restore 146 31 pd foot.controller;
#X connect 1 0 0 0;
#X connect 33 0 41 0;
#X connect 34 0 45 0;
#X connect 35 0 46 0;
#X connect 36 0 47 0;
#X connect 37 0 48 0;
#X connect 38 0 49 0;
#X connect 39 0 50 0;
#X coords 0 -1 1 1 650 400 2 100 0;
