#N canvas -3 22 1280 752 10;
#X declare -path data/;
#X declare -path dsp/;
#X declare -path dsp/rj/;
#X declare -path dsp/rj/;
#X declare -path dsp/rj/;
#X declare -path dsp/rj/;
#X declare -path dsp/rj/;
#X declare -path dsp/rj/;
#X obj 11 422 cnv 15 530 250 empty empty empty 20 12 0 14 -262144 -66577
0;
#X obj 14 681 cnv 15 1250 40 empty empty empty 20 12 0 14 -1 -66577
0;
#X obj 11 345 cnv 15 1250 50 empty empty mixer_v 5 12 0 9 -1 -262144
0;
#X obj 10 -27 cnv 15 1250 50 empty empty monitor_v 5 12 0 9 -1 -262144
0;
#N canvas 268 106 696 519 default.settings 0;
#X obj 109 108 bng 10 250 50 0 empty empty default 17 5 0 9 -191407
-228856 -262144;
#X obj 215 81 loadbang;
#X obj 21 118 s 7.default;
#X obj 215 123 metro 20;
#X msg 215 101 1;
#X text 212 57 Global Metro;
#X obj 286 106 r global.bpm;
#X obj 397 101 loadbang;
#X msg 397 121 1;
#X obj 397 168 s metro2;
#X obj 397 143 metro 50;
#X text 393 75 Metro for Contours;
#X obj 215 158 spigot;
#X obj 272 141 r met.sw;
#X obj 215 181 s metro;
#X obj 471 118 getdir;
#X obj 471 142 s preset.dir;
#X msg 109 214 \; g.pt.sw 1 \; fd.1 1 \; fd.2 1 \; fd.3 1 \; fd.4 1
\; fd.5 1 \; fd.6 1 \; coll.size 7 \; glbl.tmpo1 120 \; tcf.p 0 \;
mono.vol 0.5 \; dry.mix 0.2 \; fx.mix 0.2 \; mast.vol.d 0.1 \; atd
4.5 \; xtd 10 \; sssad.g.pt.sw 1 \; pd dsp 1;
#X connect 0 0 2 0;
#X connect 0 0 17 0;
#X connect 0 0 15 0;
#X connect 1 0 4 0;
#X connect 3 0 12 0;
#X connect 4 0 3 0;
#X connect 6 0 3 1;
#X connect 7 0 8 0;
#X connect 7 0 15 0;
#X connect 8 0 10 0;
#X connect 10 0 9 0;
#X connect 12 0 14 0;
#X connect 13 0 12 1;
#X connect 15 0 16 0;
#X coords 0 -1 1 1 80 30 2 100 100;
#X restore 1161 -16 pd default.settings;
#X obj 832 33 gui/g_contour;
#X obj 21 407 gui/g_mixer;
#X obj 1009 351 gui/g_preset;
#X obj 1040 33 gui/g_timbre;
#X obj 625 33 gui/g_space;
#X obj 18 33 gui/g_matrix;
#X obj 914 519 image img/title_a.gif;
#X obj 574 627 cnv 15 680 50 empty empty > 10 12 0 9 -1 -262144 0;
#X obj 1165 492 bng 55 250 50 0 global.reset initialise empty 17 7
0 10 -262144 -1 -1;
#X obj 1159 548 cnv 15 50 20 empty empty global.reset 0 12 0 9 -1 -262144
0;
#X obj 1193 519 image img/rb.gif;
#N canvas 0 22 818 326 front.panel 0;
#X obj 100 100 cnv 15 600 100 empty empty empty 20 12 0 14 -1 -66577
0;
#X obj 109 146 tgl 9 0 no.sw \$0-21678 note.onset 11 5 0 9 -162280
-262144 -262144 0 1;
#X obj 109 112 tgl 9 0 g.pt.sw sssad.g.pt.sw pitch.track_(on/off) 11
5 0 9 -162280 -262144 -262144 0 1;
#X obj 109 130 tgl 9 0 mto \$0-GSAH monophonic.tracking 12 3 0 9 -162280
-262144 -262144 0 1;
#X obj 109 207 sssad \$1/nosw;
#X obj 109 74 sssad \$1/ptsw;
#X obj 12 113 sssad \$1/mtsw;
#X obj 269 121 hsl 100 10 0 5 0 0 dry.sig dry.mix dry.mix -2 -8 0 9
-191407 -258113 -262144 0 1;
#X obj 268 150 hsl 100 10 0 5 0 0 fx.v fx.mix fx.mix -2 -8 0 9 -191407
-258113 -262144 0 1;
#X obj 245 133 sssad \$1/gui.fx.mix;
#X obj 266 79 sssad \$1/gui.dry.mix;
#X obj 109 163 tgl 9 0 um.sw \$0-21678 unison.mode 11 4 0 9 -162280
-262144 -262144 0 1;
#X obj 109 234 sssad \$1/umsw;
#X obj 448 163 hsl 100 10 50 10000 0 0 cit.d empty interpolation.time_(ms)
-3 -8 0 9 -191407 -258113 -262144 0 1;
#X floatatom 445 177 7 0 0 0 - cit.d #0-136872132;
#X obj 443 108 cnv 15 150 30 empty empty average_note_onset_(ms) 3
5 0 9 -1 -262144 0;
#X floatatom 446 123 7 0 0 0 - glbl.it #0-19286721;
#X obj -7 164 sssad \$1/4grnds;
#X obj 109 181 tgl 9 0 rfa.sw \$0-21678 4[GRND]pitch 11 4 0 9 -162280
-262144 -262144 0 1;
#X obj 265 229 sssad \$1/gui.rfa.na;
#X obj 387 206 i;
#X obj 268 181 hsl 100 10 0 10 0 0 empty empty note.amount[4GRND] -2
-8 0 9 -191407 -258113 -262144 0 1;
#X floatatom 378 178 5 0 0 0 - #0-rfa.na rfa.na;
#X obj 392 229 s \$0-rfa.na;
#X obj 602 101 cnv 15 50 50 empty empty master_vol 20 12 0 9 -1 -262144
0;
#X obj 639 126 knob 20 20 0 1 0 0 mast.vol mast.vol.d empty 0 -8 192
9 -99865 -258113 -262144 0 1;
#X connect 1 0 4 1;
#X connect 2 0 5 1;
#X connect 3 0 6 1;
#X connect 4 0 1 0;
#X connect 5 0 2 0;
#X connect 6 0 3 0;
#X connect 7 0 10 1;
#X connect 8 0 9 1;
#X connect 9 0 8 0;
#X connect 10 0 7 0;
#X connect 11 0 12 1;
#X connect 12 0 11 0;
#X connect 17 0 18 0;
#X connect 18 0 17 1;
#X connect 19 0 21 0;
#X connect 20 0 19 1;
#X connect 20 0 23 0;
#X connect 21 0 20 0;
#X coords 0 -1 1 1 600 100 2 100 100;
#X restore 581 575 pd front.panel;
#N canvas 592 274 599 526 ver 0;
#N canvas 452 194 629 324 gemwin 0;
#X obj 219 190 gemwin;
#X obj 67 194 outlet;
#X obj 67 10 inlet;
#X obj 67 41 route create;
#X msg 350 115 destroy \, reset;
#X msg 238 71 color 0 0 0.5;
#X msg 212 146 create \, 1 \, frame 30 \, color 1 1 1;
#X msg 157 70 set create;
#X obj 227 24 loadbang;
#X msg 67 70 set destroy;
#X connect 2 0 3 0;
#X connect 3 0 9 0;
#X connect 3 0 6 0;
#X connect 3 1 7 0;
#X connect 3 1 4 0;
#X connect 4 0 0 0;
#X connect 5 0 0 0;
#X connect 6 0 0 0;
#X connect 7 0 1 0;
#X connect 8 0 7 0;
#X connect 8 0 5 0;
#X connect 9 0 1 0;
#X restore 170 206 pd gemwin;
#X obj 100 100 cnv 15 40 48 empty empty empty 20 12 0 14 -1 -66577
0;
#X obj 113 122 tgl 10 0 empty empty gem -4 -7 0 9 -99865 -258113 -258113
0 1;
#X msg 170 186 create;
#N canvas 492 66 518 368 boid 0;
#X obj 100 24 gemhead;
#X obj 100 201 translateXYZ;
#X obj 192 1 inlet;
#X obj 100 155 alpha;
#X obj 100 286 circle 0.05;
#X obj 192 162 unpack 0 0;
#X obj 100 85 color 0 0 0 1;
#X text 284 97 string 1 = black;
#X obj 281 164 r 1_amp;
#X text 333 164 amplitude to size;
#X obj 281 186 / 60;
#X obj 281 228 line;
#X msg 281 207 \$1 50;
#X connect 0 0 6 0;
#X connect 1 0 4 0;
#X connect 2 0 5 0;
#X connect 3 0 1 0;
#X connect 5 0 1 1;
#X connect 5 1 1 2;
#X connect 6 0 3 0;
#X connect 8 0 10 0;
#X connect 10 0 12 0;
#X connect 11 0 4 1;
#X connect 12 0 11 0;
#X restore 71 452 pd boid;
#N canvas 213 30 518 368 boid 0;
#X obj 101 28 gemhead;
#X obj 99 201 translateXYZ;
#X obj 192 1 inlet;
#X obj 100 155 alpha;
#X obj 101 85 color 1 0.5 0 0.5;
#N canvas 0 22 474 324 rand_color 0;
#X obj 47 130 random 1000;
#X obj 48 171 * 0.001;
#X obj 131 130 random 1000;
#X obj 132 171 * 0.001;
#X obj 214 131 random 1000;
#X obj 215 172 * 0.001;
#X obj 46 83 t b b b;
#X obj 48 256 outlet;
#X obj 47 26 r init;
#X obj 49 217 pack 0 0 0 0.5;
#X connect 0 0 1 0;
#X connect 1 0 9 0;
#X connect 2 0 3 0;
#X connect 3 0 9 1;
#X connect 4 0 5 0;
#X connect 5 0 9 2;
#X connect 6 0 0 0;
#X connect 6 1 2 0;
#X connect 6 2 4 0;
#X connect 8 0 6 0;
#X connect 9 0 7 0;
#X restore 214 58 pd rand_color;
#X obj 231 85 t 1;
#X obj 99 228 circle 0.05;
#X obj 192 162 unpack 0 0;
#X connect 0 0 4 0;
#X connect 1 0 7 0;
#X connect 2 0 8 0;
#X connect 3 0 1 0;
#X connect 4 0 3 0;
#X connect 5 0 4 1;
#X connect 5 0 6 0;
#X connect 6 0 3 1;
#X connect 8 0 1 1;
#X connect 8 1 1 2;
#X restore 330 229 pd boid;
#X text 191 477 strings;
#X obj 169 158 sssad \$1/gem.sw;
#X text 381 230 centre/string7;
#X obj 71 422 r gem_1;
#X obj 330 176 r gem_boids;
#N canvas 677 113 518 368 boid 0;
#X obj 100 24 gemhead;
#X obj 99 201 translateXYZ;
#X obj 192 1 inlet;
#X obj 100 155 alpha;
#X obj 99 278 circle 0.05;
#X obj 192 162 unpack 0 0;
#X obj 100 85 color 1 0 1 1;
#X text 239 82 string 2 = pink;
#X text 343 174 amplitude to size;
#X obj 291 196 / 60;
#X obj 291 238 line;
#X msg 291 217 \$1 50;
#X obj 291 174 r 2_amp;
#X connect 0 0 6 0;
#X connect 1 0 4 0;
#X connect 2 0 5 0;
#X connect 3 0 1 0;
#X connect 5 0 1 1;
#X connect 5 1 1 2;
#X connect 6 0 3 0;
#X connect 9 0 11 0;
#X connect 10 0 4 1;
#X connect 11 0 10 0;
#X connect 12 0 9 0;
#X restore 121 452 pd boid;
#N canvas 513 38 518 368 boid 0;
#X obj 100 24 gemhead;
#X obj 100 195 translateXYZ;
#X obj 192 1 inlet;
#X obj 100 155 alpha;
#X obj 100 284 circle 0.05;
#X obj 192 162 unpack 0 0;
#X obj 100 85 color 0 0 1 1;
#X text 258 86 string 3 = blue;
#X text 353 203 amplitude to size;
#X obj 301 225 / 60;
#X obj 301 267 line;
#X msg 301 246 \$1 50;
#X obj 301 203 r 3_amp;
#X connect 0 0 6 0;
#X connect 1 0 4 0;
#X connect 2 0 5 0;
#X connect 3 0 1 0;
#X connect 5 0 1 1;
#X connect 5 1 1 2;
#X connect 6 0 3 0;
#X connect 9 0 11 0;
#X connect 10 0 4 1;
#X connect 11 0 10 0;
#X connect 12 0 9 0;
#X restore 172 452 pd boid;
#N canvas 489 77 518 368 boid 0;
#X obj 100 24 gemhead;
#X obj 100 201 translateXYZ;
#X obj 192 1 inlet;
#X obj 100 155 alpha;
#X obj 100 228 circle 0.05;
#X obj 192 162 unpack 0 0;
#X obj 100 84 color 0 1 1 1;
#X text 230 67 string 4 = turquoise;
#X text 363 194 amplitude to size;
#X obj 311 216 / 60;
#X obj 311 258 line;
#X msg 311 237 \$1 50;
#X obj 311 194 r 4_amp;
#X connect 0 0 6 0;
#X connect 1 0 4 0;
#X connect 2 0 5 0;
#X connect 3 0 1 0;
#X connect 5 0 1 1;
#X connect 5 1 1 2;
#X connect 6 0 3 0;
#X connect 9 0 11 0;
#X connect 10 0 4 1;
#X connect 11 0 10 0;
#X connect 12 0 9 0;
#X restore 225 452 pd boid;
#N canvas 618 100 518 368 boid 0;
#X obj 100 24 gemhead;
#X obj 100 201 translateXYZ;
#X obj 192 1 inlet;
#X obj 100 155 alpha;
#X obj 100 228 circle 0.05;
#X obj 192 162 unpack 0 0;
#X obj 100 86 color 1 0 0 1;
#X text 232 84 string 5 = red;
#X text 373 204 amplitude to size;
#X obj 321 226 / 60;
#X obj 321 268 line;
#X msg 321 247 \$1 50;
#X obj 321 204 r 5_amp;
#X connect 0 0 6 0;
#X connect 1 0 4 0;
#X connect 2 0 5 0;
#X connect 3 0 1 0;
#X connect 5 0 1 1;
#X connect 5 1 1 2;
#X connect 6 0 3 0;
#X connect 9 0 11 0;
#X connect 10 0 4 1;
#X connect 11 0 10 0;
#X connect 12 0 9 0;
#X restore 277 452 pd boid;
#N canvas 535 87 518 368 boid 0;
#X obj 100 37 gemhead;
#X obj 100 216 translateXYZ;
#X obj 191 1 inlet;
#X obj 100 155 alpha;
#X obj 100 243 circle 0.05;
#X obj 192 162 unpack 0 0;
#X obj 100 85 color 0.5 1 0 1;
#X text 216 84 string 6 = green;
#X text 314 205 amplitude to size;
#X obj 262 227 / 60;
#X obj 262 269 line;
#X msg 262 248 \$1 50;
#X obj 262 205 r 6_amp;
#X connect 0 0 6 0;
#X connect 1 0 4 0;
#X connect 2 0 5 0;
#X connect 3 0 1 0;
#X connect 5 0 1 1;
#X connect 5 1 1 2;
#X connect 6 0 3 0;
#X connect 9 0 11 0;
#X connect 10 0 4 1;
#X connect 11 0 10 0;
#X connect 12 0 9 0;
#X restore 330 452 pd boid;
#X obj 121 427 r gem_2;
#X obj 172 410 r gem_3;
#X obj 225 427 r gem_4;
#X obj 277 398 r gem_5;
#X obj 330 425 r gem_6;
#X connect 0 0 3 0;
#X connect 2 0 3 0;
#X connect 3 0 0 0;
#X connect 9 0 4 0;
#X connect 16 0 11 0;
#X connect 17 0 12 0;
#X connect 18 0 13 0;
#X connect 19 0 14 0;
#X connect 20 0 15 0;
#X coords 0 -1 1 1 40 48 2 100 100;
#X restore 780 345 pd ver;
