#N canvas 698 184 758 557 10;
#X text 112 21 2d display;
#X obj 281 116 r casw;
#X obj 285 200 s sssad.casw;
#X text 347 113 Pitch contour;
#X obj 169 123 r play;
#X obj 171 186 s sssad.play;
#X obj 23 230 s sssad.lerdahl.sw;
#X obj 18 168 r lerdahl.sw;
#X obj 37 394 s sssad.ssg.sw1;
#X obj 38 350 r ssg.sw1;
#X obj 153 349 r ssg.sw2;
#X obj 152 393 s sssad.ssg.sw2;
#X obj 273 353 r ssg.sw3;
#X obj 272 397 s sssad.ssg.sw3;
#X obj 45 461 r ssg.sw4;
#X obj 45 511 s sssad.ssg.sw4;
#X obj 160 460 r ssg.sw5;
#X obj 159 504 s sssad.ssg.sw5;
#X obj 279 463 r ssg.sw6;
#X obj 279 508 s sssad.ssg.sw6;
#X obj 521 340 r cntr.sw;
#X obj 521 422 s sssad.cntr.sw;
#X obj 48 485 sssad \$1/sw4;
#X obj 37 372 sssad \$1/sw1;
#X obj 152 372 sssad \$1/sw2;
#X obj 272 375 sssad \$1/sw3;
#X obj 157 483 sssad \$1/sw5;
#X obj 271 484 sssad \$1/sw6;
#X obj 519 384 sssad \$1/cntr.sw;
#X obj 25 198 sssad \$1/lerdahl.sw;
#X obj 165 153 sssad \$1/play;
#X obj 278 165 sssad \$1/casw;
#X obj 29 51 sssad \$1/space.grid;
#X text 86 299 solo contour switches;
#X text 523 306 solo switch on/off;
#X text 160 98 play grains;
#X text 32 137 lerdahl spatial;
#X text 179 39 display 2d;
#X obj 526 152 r glbl.cntr.sw;
#X obj 526 234 s sssad.glbl.cntr.sw;
#X obj 379 275 r g.pt.sw;
#X obj 379 357 s sssad.g.pt.sw;
#X obj 377 319 sssad \$1/g.pt.sw;
#X obj 524 196 sssad \$1/glbl.cntr.sw;
#X obj 496 22 r cntr.mode;
#X obj 490 67 sssad \$1/cntr.mode;
#X obj 492 105 s sssad.cntr.mode;
#X obj 28 23 r space.grid;
#X obj 27 81 s sssad.sg;
#X connect 1 0 31 1;
#X connect 4 0 30 1;
#X connect 7 0 29 1;
#X connect 9 0 23 1;
#X connect 10 0 24 1;
#X connect 12 0 25 1;
#X connect 14 0 22 1;
#X connect 16 0 26 1;
#X connect 18 0 27 1;
#X connect 20 0 28 1;
#X connect 22 0 15 0;
#X connect 23 0 8 0;
#X connect 24 0 11 0;
#X connect 25 0 13 0;
#X connect 26 0 17 0;
#X connect 27 0 19 0;
#X connect 28 0 21 0;
#X connect 29 0 6 0;
#X connect 30 0 5 0;
#X connect 31 0 2 0;
#X connect 38 0 43 1;
#X connect 40 0 42 1;
#X connect 42 0 41 0;
#X connect 43 0 39 0;
#X connect 44 0 45 1;
#X connect 45 0 46 0;
#X connect 47 0 32 1;
