#N canvas 87 277 729 442 10;
#X obj 97 67 / 44100;
#X obj 112 99 / 60;
#X obj 112 126 i;
#X obj 112 153 change;
#X obj 112 180 * 60;
#X obj 97 207 -;
#X obj 97 270 -;
#X obj 141 224 i;
#X obj 97 324 i;
#X obj 97 297 * 100;
#X obj 97 40 inlet;
#X obj 165 180 s \$1;
#X obj 141 251 s \$2;
#X obj 97 351 s \$3;
#X obj 279 164 moses 10;
#X obj 404 164 moses 10;
#X msg 404 218 symbol :0\$1;
#X msg 449 191 symbol :\$1;
#X msg 279 218 symbol :0\$1;
#X msg 334 191 symbol :\$1;
#X obj 309 253 t b;
#X obj 237 253 r \$1;
#X obj 279 136 r \$2;
#X obj 404 137 r \$3;
#X obj 404 272 symbol \$4;
#X obj 404 245 loadbang;
#X msg 308 342 \; \$4 label 0\$1\$2\$3;
#X obj 309 316 pack f s s s;
#X obj 160 50 r \$5;
#X connect 0 0 1 0;
#X connect 0 0 5 0;
#X connect 1 0 2 0;
#X connect 2 0 3 0;
#X connect 3 0 4 0;
#X connect 3 0 11 0;
#X connect 4 0 5 1;
#X connect 5 0 7 0;
#X connect 5 0 6 0;
#X connect 6 0 9 0;
#X connect 7 0 6 1;
#X connect 7 0 12 0;
#X connect 8 0 13 0;
#X connect 9 0 8 0;
#X connect 10 0 0 0;
#X connect 14 0 18 0;
#X connect 14 1 19 0;
#X connect 15 0 16 0;
#X connect 15 1 17 0;
#X connect 16 0 27 2;
#X connect 16 0 20 0;
#X connect 17 0 27 2;
#X connect 17 0 20 0;
#X connect 18 0 27 1;
#X connect 19 0 27 1;
#X connect 20 0 27 0;
#X connect 21 0 27 0;
#X connect 22 0 14 0;
#X connect 23 0 15 0;
#X connect 24 0 27 3;
#X connect 25 0 24 0;
#X connect 27 0 26 0;
#X connect 28 0 0 1;
