#N canvas 837 397 450 300 10;
#X obj 141 190 r \$1-chosenTrack;
#X obj 77 17 key;
#X obj 77 84 sel 115 109 114;
#X text 105 69 S M R;
#X obj 100 167 tgl 15 0 empty empty empty 17 7 0 10 -262144 -1 -1 0
1;
#X obj 100 190 * 127;
#X obj 80 167 tgl 15 0 empty empty empty 17 7 0 10 -262144 -1 -1 0
1;
#X obj 55 167 tgl 15 0 empty empty empty 17 7 0 10 -262144 -1 -1 1
1;
#X obj 100 217 pack f f s \$1;
#X msg 100 244 \; \$4-\$2-\$3Ctl \$1;
#X msg 146 144 symbol rec;
#X msg 111 116 symbol mute;
#X msg 28 118 symbol solo;
#X obj 77 44 spigot;
#X obj 110 17 r \$1-keysOnOff;
#X connect 0 0 8 1;
#X connect 1 0 13 0;
#X connect 2 0 12 0;
#X connect 2 0 7 0;
#X connect 2 1 11 0;
#X connect 2 1 6 0;
#X connect 2 2 10 0;
#X connect 2 2 4 0;
#X connect 4 0 5 0;
#X connect 5 0 8 0;
#X connect 6 0 5 0;
#X connect 7 0 5 0;
#X connect 8 0 9 0;
#X connect 10 0 8 2;
#X connect 11 0 8 2;
#X connect 12 0 8 2;
#X connect 13 0 2 0;
#X connect 14 0 13 1;
