#N canvas 678 284 450 300 10;
#X obj 135 63 loadbang;
#X obj 72 257 s \$1-\$3Ctl;
#X msg 71 219 127;
#X obj 69 98 spigot;
#X obj 103 38 r \$1-keysOnOff;
#X obj 135 93 symbol \$2;
#X obj 69 136 sel xxx;
#X obj 69 9 keyname;
#X obj 60 69 symbol;
#X msg 156 132 symbol \$1;
#X obj 49 37 sel 1;
#X obj 38 164 tgl 15 0 empty empty empty 17 7 0 10 -262144 -1 -1 0
1;
#X msg 23 219 0;
#X obj 39 187 sel 0 1;
#X connect 0 0 5 0;
#X connect 2 0 1 0;
#X connect 3 0 6 0;
#X connect 4 0 3 1;
#X connect 5 0 9 0;
#X connect 6 0 11 0;
#X connect 7 0 10 0;
#X connect 7 1 8 1;
#X connect 8 0 3 0;
#X connect 9 0 6 1;
#X connect 10 0 8 0;
#X connect 11 0 13 0;
#X connect 12 0 1 0;
#X connect 13 0 12 0;
#X connect 13 1 2 0;
