#N canvas 1070 249 450 454 10;
#X obj 225 63 loadbang;
#X obj 96 403 s \$1-\$3Ctl;
#X msg 157 296 127;
#X obj 159 98 spigot;
#X obj 193 38 r \$1-keysOnOff;
#X obj 225 93 symbol \$2;
#X obj 156 262 sel xxx;
#X obj 140 -15 keyname;
#X obj 150 69 symbol;
#X msg 226 230 symbol \$1;
#X obj 107 17 sel 0 1;
#X obj 109 101 spigot;
#X obj 100 72 symbol;
#X obj 102 266 sel xxx;
#X msg 71 341 0;
#X obj 96 377 change;
#X obj 71 314 del 100;
#X connect 0 0 5 0;
#X connect 2 0 15 0;
#X connect 3 0 6 0;
#X connect 4 0 3 1;
#X connect 4 0 11 1;
#X connect 5 0 9 0;
#X connect 6 0 2 0;
#X connect 7 0 10 0;
#X connect 7 1 8 1;
#X connect 7 1 12 1;
#X connect 8 0 3 0;
#X connect 9 0 6 1;
#X connect 9 0 13 1;
#X connect 10 0 12 0;
#X connect 10 1 8 0;
#X connect 11 0 13 0;
#X connect 12 0 11 0;
#X connect 13 0 16 0;
#X connect 14 0 15 0;
#X connect 15 0 1 0;
#X connect 16 0 14 0;
