#N canvas 603 179 483 643 10;
#X obj 179 560 s \$1-\$3Ctl;
#X obj 178 193 spigot;
#X obj 261 167 loadbang;
#X obj 144 307 change;
#X msg 178 246 127;
#X obj 178 220 sel;
#X obj 180 81 key;
#X obj 261 195 f \$2;
#X obj 234 141 r \$1-keysOnOff;
#X obj 53 61 keyup;
#X obj 53 99 sel;
#X obj 69 338 t b b;
#X obj 104 417 f;
#X msg 121 372 0;
#X obj 65 383 del 100;
#X obj 283 285 r \$1-shiftCtl;
#X msg 220 290 0;
#X obj 145 437 sel 127;
#X obj 300 432 f;
#X obj 300 461 sel 0 127;
#X msg 296 505 127;
#X obj 347 507 t b b;
#X obj 379 570 s \$1-stopCtl;
#X msg 380 544 127;
#X floatatom 313 325 5 0 0 0 - - -;
#X msg 298 553 0;
#X obj 217 499 t b f;
#X connect 1 0 5 0;
#X connect 2 0 7 0;
#X connect 3 0 17 0;
#X connect 4 0 3 0;
#X connect 5 0 4 0;
#X connect 6 0 1 0;
#X connect 7 0 5 1;
#X connect 7 0 10 1;
#X connect 8 0 1 1;
#X connect 9 0 10 0;
#X connect 10 0 11 0;
#X connect 11 0 14 0;
#X connect 11 1 13 0;
#X connect 12 0 16 0;
#X connect 13 0 12 1;
#X connect 14 0 12 0;
#X connect 15 0 18 1;
#X connect 15 0 24 0;
#X connect 16 0 3 0;
#X connect 17 0 18 0;
#X connect 17 1 26 0;
#X connect 18 0 19 0;
#X connect 19 0 20 0;
#X connect 19 1 21 0;
#X connect 20 0 0 0;
#X connect 21 0 20 0;
#X connect 21 1 23 0;
#X connect 23 0 22 0;
#X connect 25 0 22 0;
#X connect 26 0 25 0;
#X connect 26 1 0 0;
