#N canvas 1 76 408 342 10;
#X obj 141 84 r \$1-chnl;
#X obj 71 167 spigot;
#X msg 141 150 0;
#X msg 114 140 1;
#X obj 126 111 sel;
#X obj 81 30 ctlin \$2;
#X obj 71 111 pipe 0;
#X obj 71 195 s \$1-\$3Ctl;
#X obj 71 84 spigot;
#X obj 104 57 r \$1-midiOnOff;
#X connect 0 0 4 1;
#X connect 1 0 7 0;
#X connect 2 0 1 1;
#X connect 3 0 1 1;
#X connect 4 0 3 0;
#X connect 4 1 2 0;
#X connect 5 0 8 0;
#X connect 5 1 4 0;
#X connect 6 0 1 0;
#X connect 8 0 6 0;
#X connect 9 0 8 1;
