#N canvas 1 76 473 410 10;
#X obj 147 103 r \$1-chnl;
#X obj 60 203 spigot;
#X msg 147 186 0;
#X msg 103 176 1;
#X obj 132 130 sel;
#X obj 105 20 ctlin;
#X obj 60 228 route \$3 \$4 \$5 \$6 \$7;
#X obj 60 363 s \$1-\$2-soloCtl;
#X obj 83 336 s \$1-\$2-muteCtl;
#X obj 106 309 s \$1-\$2-recCtl;
#X obj 130 282 s \$1-\$2-panCtl;
#X obj 153 255 s \$1-\$2-volCtl;
#X obj 60 149 pack f f;
#X obj 60 122 pipe 0;
#X obj 60 95 spigot;
#X obj 93 68 r \$1-midiOnOff;
#X connect 0 0 4 1;
#X connect 1 0 6 0;
#X connect 2 0 1 1;
#X connect 3 0 1 1;
#X connect 4 0 3 0;
#X connect 4 1 2 0;
#X connect 5 0 12 1;
#X connect 5 1 14 0;
#X connect 5 2 4 0;
#X connect 6 0 7 0;
#X connect 6 1 8 0;
#X connect 6 2 9 0;
#X connect 6 3 10 0;
#X connect 6 4 11 0;
#X connect 12 0 1 0;
#X connect 13 0 12 0;
#X connect 14 0 13 0;
#X connect 15 0 14 1;
