#N canvas 623 267 464 450 10;
#X obj 55 236 spigot;
#X obj 55 101 sel 127;
#X obj 55 298 f;
#X obj 87 329 outlet;
#X obj 129 155 spigot;
#X text 236 20 \$1 = \$0;
#X obj 55 385 tabwrite \$1-points;
#X obj 162 128 - 127;
#X obj 160 358 f \$2;
#X text 236 33 \$2 = index Table: 1 \, 2 \, 3 or 4;
#X obj 129 222 outlet;
#X obj 129 195 f \$2;
#X obj 242 89 loadbang;
#X obj 55 263 t b b;
#X obj 55 74 r \$1-\$3Ctl;
#X text 236 46 \$3 = ctl;
#X obj 162 101 r \$1-setCtl;
#X obj 179 222 s \$1-stopByGo2;
#X text 134 239 go2;
#X text 48 407 writeSmpl;
#X obj 99 263 inlet;
#X text 135 331 clock;
#X obj 129 74 inlet;
#X msg 242 111 1;
#X connect 0 0 13 0;
#X connect 1 0 0 0;
#X connect 1 0 4 0;
#X connect 2 0 6 0;
#X connect 2 0 3 0;
#X connect 4 0 17 0;
#X connect 4 0 11 0;
#X connect 7 0 4 1;
#X connect 8 0 6 1;
#X connect 11 0 10 0;
#X connect 12 0 23 0;
#X connect 13 0 2 0;
#X connect 13 1 8 0;
#X connect 14 0 1 0;
#X connect 16 0 0 1;
#X connect 16 0 7 0;
#X connect 20 0 2 1;
#X connect 22 0 13 0;
#X connect 23 0 4 1;
