#N canvas 29 92 502 380 10;
#X obj 150 80 sel 10;
#X obj 150 53 keyup;
#X obj 117 185 spigot;
#X obj 221 80 t b;
#X msg 184 134 1;
#X obj 150 108 t b b;
#X msg 150 134 0;
#X obj 221 53 r \$1-open\$2Show;
#X obj 117 210 f \$1;
#X obj 232 227 pack f s;
#X obj 221 134 pack f s;
#X obj 276 80 loadbang;
#X obj 276 107 symbol \$2;
#X obj 221 107 f \$1;
#X msg 232 255 \; pd-\$1-\$2Show vis 0;
#X msg 221 161 \; pd-\$1-\$2Show vis 1 \; pd-\$1-\$2Show editmode 1
\; pd-\$1-\$2Show editmode 0 \;;
#X connect 0 0 5 0;
#X connect 1 0 0 0;
#X connect 2 0 8 0;
#X connect 3 0 4 0;
#X connect 3 0 13 0;
#X connect 4 0 2 1;
#X connect 5 0 6 0;
#X connect 5 1 2 0;
#X connect 6 0 2 1;
#X connect 7 0 3 0;
#X connect 8 0 9 0;
#X connect 9 0 14 0;
#X connect 10 0 15 0;
#X connect 11 0 12 0;
#X connect 12 0 10 1;
#X connect 12 0 9 1;
#X connect 13 0 10 0;
