#N canvas 17 76 999 698 10;
#X msg 353 416 stop;
#X obj 589 67 loadbang;
#X obj 589 94 f \$1;
#X obj 561 40 r \$1-length;
#X msg 285 416 start \$1;
#N canvas 214 236 537 438 transport 0;
#X obj 45 20 r~ \$1-reader;
#X obj 45 47 tabread4~ \$1-\$2-track;
#X obj 46 130 *~;
#X obj 46 290 *~;
#N canvas 1 76 450 300 monitor_on_off 0;
#X obj 115 71 r \$1-\$2-monitorOn;
#X obj 71 44 r \$1-\$2-monitorOff;
#X msg 115 125 1 \$1;
#X msg 71 107 0 \$1;
#X obj 170 98 loadbang;
#N canvas 1 76 450 300 cF 0;
#X obj 123 106 r \$1-cFMs;
#X obj 108 133 f;
#X obj 108 79 inlet;
#X obj 108 160 outlet;
#X connect 0 0 1 1;
#X connect 1 0 3 0;
#X connect 2 0 1 0;
#X restore 115 98 pd cF;
#N canvas 1 76 450 300 cF 0;
#X obj 123 106 r \$1-cFMs;
#X obj 108 133 f;
#X obj 108 79 inlet;
#X obj 108 160 outlet;
#X connect 0 0 1 1;
#X connect 1 0 3 0;
#X connect 2 0 1 0;
#X restore 71 80 pd cF;
#X msg 170 125 1;
#X obj 71 213 outlet~;
#X obj 71 186 sinfade;
#X connect 0 0 5 0;
#X connect 1 0 6 0;
#X connect 2 0 9 0;
#X connect 3 0 9 0;
#X connect 4 0 7 0;
#X connect 5 0 2 0;
#X connect 6 0 3 0;
#X connect 7 0 9 0;
#X connect 9 0 8 0;
#X restore 70 104 pd monitor_on_off;
#N canvas 503 206 443 532 volume_and_solo 0;
#X obj 49 69 r \$1-\$2-volCtl;
#X msg 49 367 \$1 10;
#X obj 49 96 / 127;
#X obj 247 35 loadbang;
#X msg 177 79 127;
#X obj 122 150 r \$1-\$2-soloAdd;
#X obj 55 123 r \$1-\$2-soloKill;
#X obj 122 297 f;
#X msg 120 350 0;
#X msg 149 204 1;
#X obj 49 288 spigot;
#X obj 122 177 t b b;
#X obj 55 177 t b b;
#X msg 82 204 0;
#X obj 247 62 t b b;
#X obj 49 394 line~;
#X obj 49 421 outlet~;
#X obj 157 243 r \$1-\$2-volCtl;
#X obj 147 270 / 127;
#X obj 149 405 f;
#X obj 164 378 r \$1-\$2-audioVolAsk;
#X obj 149 432 s \$1-allVol;
#X obj 154 297 r \$1-\$2-audioVolOver;
#X obj 318 376 s \$1-\$2-volGraphix;
#N canvas 47 244 487 434 vol_keys 0;
#X obj 87 52 inlet;
#X obj 168 156 f;
#X obj 186 315 outlet;
#X obj 268 148 f;
#X obj 186 263 max 0;
#X obj 186 286 min 127;
#X obj 156 217 int;
#X obj 168 181 - 5;
#X obj 265 184 + 5;
#X obj 173 50 r \$1-\$2-volDownCtl;
#X obj 288 49 r \$1-\$2-volUpCtl;
#X obj 420 109 loadbang;
#X msg 418 135 127;
#X connect 0 0 1 1;
#X connect 0 0 3 1;
#X connect 1 0 7 0;
#X connect 3 0 8 0;
#X connect 4 0 5 0;
#X connect 5 0 2 0;
#X connect 5 0 3 1;
#X connect 5 0 1 1;
#X connect 6 0 4 0;
#X connect 7 0 6 0;
#X connect 8 0 6 0;
#X connect 9 0 1 0;
#X connect 10 0 3 0;
#X connect 11 0 12 0;
#X connect 12 0 3 1;
#X connect 12 0 1 1;
#X restore 331 147 pd vol_keys;
#X connect 0 0 2 0;
#X connect 0 0 24 0;
#X connect 1 0 15 0;
#X connect 2 0 10 0;
#X connect 3 0 14 0;
#X connect 4 0 2 0;
#X connect 4 0 18 0;
#X connect 5 0 11 0;
#X connect 6 0 12 0;
#X connect 7 0 1 0;
#X connect 7 0 19 0;
#X connect 8 0 1 0;
#X connect 8 0 19 0;
#X connect 9 0 10 1;
#X connect 10 0 1 0;
#X connect 10 0 19 0;
#X connect 11 0 7 0;
#X connect 11 1 9 0;
#X connect 12 0 8 0;
#X connect 12 1 13 0;
#X connect 13 0 10 1;
#X connect 14 0 4 0;
#X connect 14 1 9 0;
#X connect 15 0 16 0;
#X connect 17 0 18 0;
#X connect 18 0 7 1;
#X connect 19 0 21 0;
#X connect 20 0 19 1;
#X connect 22 0 1 0;
#X connect 24 0 2 0;
#X connect 24 0 23 0;
#X restore 71 263 pd volume_and_solo;
#N canvas 270 299 660 438 pan_and_out 0;
#X obj 95 234 / 127;
#X obj 95 36 r \$1-\$2-panCtl;
#X obj -47 327 *~;
#X obj 80 328 *~;
#X obj -32 251 * -1;
#X obj -32 273 + 1;
#X obj -32 300 sinfade;
#X obj 95 301 sinfade;
#X obj 279 50 loadbang;
#X msg 279 114 63.5;
#X obj -46 185 inlet~;
#X obj -47 354 throw~ \$1-trackOutL;
#X obj 80 355 throw~ \$1-trackOutR;
#X obj 105 261 s \$1-\$2-panCalc;
#X obj 279 87 del 0;
#X obj 95 103 spigot;
#X obj 193 36 r \$1-setCtl;
#X obj 179 67 - 127;
#X msg 147 67 1;
#X obj 145 103 spigot;
#X obj 145 130 s \$1-\$2-inputWithPan;
#X obj 193 207 f;
#X obj 263 288 s \$1-\$2-oldPan;
#X obj 69 136 sel;
#X obj 95 207 spigot;
#X msg 69 163 1;
#X msg 118 153 0;
#X obj 118 180 change;
#X obj -55 153 s \$1-\$2-oldPanBack;
#X obj 263 261 f;
#X obj 263 208 spigot;
#X obj 236 157 t b b;
#X msg 296 181 0;
#X msg 327 160 1;
#X obj 193 181 sel 127 0;
#X obj 421 49 r \$1-\$2-panCtl;
#X obj 421 76 s \$1-inputWithPan;
#X obj 294 315 r \$1-\$2-audioPanAsk;
#X obj 279 342 f;
#X obj 279 369 s \$1-allPan;
#X obj 156 232 r \$1-\$2-audioPanOver;
#N canvas 878 140 450 403 pan_keys 0;
#X obj 87 52 inlet;
#X floatatom 88 114 5 0 0 0 - - -;
#X obj 168 156 f;
#X obj 171 50 r \$1-\$2-panLeftCtl;
#X obj 289 50 r \$1-\$2-panRightCtl;
#X obj 174 335 outlet;
#X obj 268 148 f;
#X obj 174 283 max 0;
#X obj 174 306 min 127;
#X obj 107 219 int;
#X obj 168 181 - 5;
#X obj 265 184 + 5;
#X obj 343 119 loadbang;
#X msg 341 145 63.5;
#X connect 0 0 1 0;
#X connect 0 0 2 1;
#X connect 0 0 6 1;
#X connect 2 0 10 0;
#X connect 3 0 2 0;
#X connect 4 0 6 0;
#X connect 6 0 11 0;
#X connect 7 0 8 0;
#X connect 8 0 5 0;
#X connect 8 0 6 1;
#X connect 8 0 2 1;
#X connect 9 0 7 0;
#X connect 10 0 9 0;
#X connect 11 0 9 0;
#X connect 12 0 13 0;
#X connect 13 0 6 1;
#X connect 13 0 2 1;
#X restore 423 184 pd pan_keys;
#X connect 0 0 4 0;
#X connect 0 0 7 0;
#X connect 0 0 13 0;
#X connect 1 0 15 0;
#X connect 1 0 19 0;
#X connect 2 0 11 0;
#X connect 3 0 12 0;
#X connect 4 0 5 0;
#X connect 5 0 6 0;
#X connect 6 0 2 1;
#X connect 7 0 3 1;
#X connect 8 0 14 0;
#X connect 8 0 18 0;
#X connect 8 0 33 0;
#X connect 9 0 0 0;
#X connect 9 0 38 0;
#X connect 10 0 2 0;
#X connect 10 0 3 0;
#X connect 14 0 9 0;
#X connect 15 0 21 1;
#X connect 15 0 24 0;
#X connect 15 0 23 0;
#X connect 16 0 17 0;
#X connect 16 0 19 1;
#X connect 16 0 34 0;
#X connect 17 0 15 1;
#X connect 18 0 15 1;
#X connect 18 0 24 1;
#X connect 19 0 20 0;
#X connect 19 0 26 0;
#X connect 19 0 31 0;
#X connect 21 0 23 1;
#X connect 21 0 29 1;
#X connect 23 0 25 0;
#X connect 23 0 28 0;
#X connect 24 0 0 0;
#X connect 24 0 38 0;
#X connect 24 0 41 0;
#X connect 25 0 27 0;
#X connect 26 0 27 0;
#X connect 27 0 24 1;
#X connect 29 0 22 0;
#X connect 30 0 29 0;
#X connect 31 0 32 0;
#X connect 31 1 30 0;
#X connect 32 0 30 1;
#X connect 33 0 30 1;
#X connect 34 0 21 0;
#X connect 34 1 33 0;
#X connect 35 0 36 0;
#X connect 37 0 38 1;
#X connect 38 0 39 0;
#X connect 40 0 0 0;
#X connect 41 0 0 0;
#X restore 46 317 pd pan_and_out;
#X obj 188 75 tabplay~ \$1-\$2-track;
#N canvas 1 76 450 300 loop_crossfade 0;
#X obj 71 213 outlet~;
#X msg 115 125 1 \$1;
#X msg 71 107 0 \$1;
#X obj 170 98 loadbang;
#N canvas 1 76 450 300 cF 0;
#X obj 123 106 r \$1-cFMs;
#X obj 108 133 f;
#X obj 108 79 inlet;
#X obj 108 160 outlet;
#X connect 0 0 1 1;
#X connect 1 0 3 0;
#X connect 2 0 1 0;
#X restore 115 98 pd cF;
#N canvas 1 76 450 300 cF 0;
#X obj 123 106 r \$1-cFMs;
#X obj 108 133 f;
#X obj 108 79 inlet;
#X obj 108 160 outlet;
#X connect 0 0 1 1;
#X connect 1 0 3 0;
#X connect 2 0 1 0;
#X restore 71 80 pd cF;
#X obj 71 44 r \$1-\$2-monitorOn;
#X obj 115 71 r \$1-\$2-monitorOff;
#X msg 170 125 0;
#X obj 71 186 sinfade;
#X connect 1 0 9 0;
#X connect 2 0 9 0;
#X connect 3 0 8 0;
#X connect 4 0 1 0;
#X connect 5 0 2 0;
#X connect 6 0 5 0;
#X connect 7 0 4 0;
#X connect 8 0 9 0;
#X connect 9 0 0 0;
#X restore 215 102 pd loop_crossfade;
#X obj 189 130 *~;
#X obj 318 31 r \$1-loopPreSmpl;
#X obj 318 58 t f b;
#X obj 345 170 s \$1-\$2-monitorOn;
#X obj 360 90 s \$1-\$2-monitorOff;
#X obj 345 144 del;
#X obj 360 117 r \$1-cFMs;
#X connect 0 0 1 0;
#X connect 1 0 2 0;
#X connect 2 0 3 0;
#X connect 3 0 6 0;
#X connect 4 0 2 1;
#X connect 5 0 3 1;
#X connect 7 0 9 0;
#X connect 8 0 9 1;
#X connect 9 0 3 0;
#X connect 10 0 11 0;
#X connect 11 0 7 0;
#X connect 11 1 13 0;
#X connect 11 1 14 0;
#X connect 14 0 12 0;
#X connect 15 0 14 1;
#X restore 561 187 pd transport;
#X text 699 14 \$1 = \$0;
#X text 699 34 \$2 = track-nr;
#X obj 287 347 sinfade;
#X obj 262 374 *~;
#X obj 425 458 *~;
#X obj 450 431 sinfade;
#N canvas 533 76 516 603 rec_trigger 0;
#X obj 67 48 r \$1-recActive;
#X obj 155 276 spigot;
#X obj 169 48 r \$1-\$2-recCtl;
#X obj 155 168 f;
#X obj 155 141 t b b;
#X msg 188 168 1;
#X obj 155 79 sel 127 0;
#X obj 284 553 outlet;
#X obj 225 553 outlet;
#X text 86 555 start recording (bang);
#X text 329 544 stop recording (bang);
#X obj 225 496 sel 1 0;
#X msg 252 195 0;
#X obj 225 141 t b b;
#X msg 225 168 0;
#X obj 67 79 sel 1 0;
#X msg 67 171 1;
#X obj 100 171 f;
#X obj 67 144 t b b;
#X obj 225 293 change;
#X obj 302 277 r \$1-loopRec;
#X obj 302 375 spigot;
#X msg 399 358 0;
#X obj 302 402 f;
#X obj 399 331 loadbang;
#X obj 302 429 sel 1;
#X msg 302 456 1;
#X obj 335 304 r \$1-cycleCtl;
#X connect 0 0 3 1;
#X connect 0 0 15 0;
#X connect 1 0 19 0;
#X connect 2 0 6 0;
#X connect 2 0 17 1;
#X connect 3 0 1 0;
#X connect 4 0 3 0;
#X connect 4 1 5 0;
#X connect 5 0 1 1;
#X connect 6 0 4 0;
#X connect 6 1 13 0;
#X connect 11 0 8 0;
#X connect 11 1 7 0;
#X connect 11 1 22 0;
#X connect 12 0 1 1;
#X connect 13 0 14 0;
#X connect 13 1 12 0;
#X connect 14 0 19 0;
#X connect 15 0 18 0;
#X connect 15 1 13 0;
#X connect 16 0 1 0;
#X connect 17 0 1 1;
#X connect 18 0 16 0;
#X connect 18 1 17 0;
#X connect 19 0 11 0;
#X connect 19 0 23 1;
#X connect 20 0 21 0;
#X connect 21 0 23 0;
#X connect 22 0 21 1;
#X connect 23 0 25 0;
#X connect 24 0 22 0;
#X connect 25 0 26 0;
#X connect 26 0 11 0;
#X connect 27 0 21 1;
#X restore 247 12 pd rec_trigger;
#X obj 561 12 table \$1-\$2-track;
#X obj 561 120 pack f f f;
#X obj 627 94 f \$2;
#X msg 561 147 \; \$2-\$3-track resize \$1;
#X obj 262 475 tabwrite~ \$1-\$2-track;
#X obj 425 323 tabplay~ \$1-\$2-track;
#X obj 197 242 t b b f;
#X obj 149 423 s \$1-\$2-monitorOn;
#X obj 197 502 s \$1-\$2-monitorOff;
#X msg 460 404 1 \$1;
#X msg 450 377 0 \$1;
#X msg 297 320 1 \$1;
#X msg 287 293 0 \$1;
#N canvas 1 76 450 300 cF 0;
#X obj 123 106 r \$1-cFMs;
#X obj 108 133 f;
#X obj 108 79 inlet;
#X obj 108 160 outlet;
#X connect 0 0 1 1;
#X connect 1 0 3 0;
#X connect 2 0 1 0;
#X restore 491 377 pd cF;
#N canvas 1 76 450 300 cF 0;
#X obj 123 106 r \$1-cFMs;
#X obj 108 133 f;
#X obj 108 79 inlet;
#X obj 108 160 outlet;
#X connect 0 0 1 1;
#X connect 1 0 3 0;
#X connect 2 0 1 0;
#X restore 450 350 pd cF;
#N canvas 1 76 450 300 cF 0;
#X obj 123 106 r \$1-cFMs;
#X obj 108 133 f;
#X obj 108 79 inlet;
#X obj 108 160 outlet;
#X connect 0 0 1 1;
#X connect 1 0 3 0;
#X connect 2 0 1 0;
#X restore 328 293 pd cF;
#N canvas 1 76 450 300 cF 0;
#X obj 123 106 r \$1-cFMs;
#X obj 108 133 f;
#X obj 108 79 inlet;
#X obj 108 160 outlet;
#X connect 0 0 1 1;
#X connect 1 0 3 0;
#X connect 2 0 1 0;
#X restore 328 266 pd cF;
#N canvas 1025 141 450 300 graphics 0;
#N canvas 1 76 450 300 recCan 0;
#X obj 25 47 r \$1-\$2-recCtl;
#X obj 25 74 sel 0 127;
#X obj 106 121 f \$1;
#X obj 144 121 f \$2;
#X obj 144 66 loadbang;
#X obj 60 153 pack f f f f;
#X msg 25 101 0 13;
#X msg 60 101 13 0;
#X msg 60 180 \; \$3-\$4-recCan color \$1 \$2;
#X msg 164 93 bang;
#X connect 0 0 1 0;
#X connect 1 0 6 0;
#X connect 1 1 7 0;
#X connect 2 0 5 2;
#X connect 3 0 5 3;
#X connect 4 0 2 0;
#X connect 4 0 3 0;
#X connect 5 0 8 0;
#X connect 6 0 5 0;
#X connect 7 0 5 0;
#X connect 9 0 3 0;
#X connect 9 0 2 0;
#X restore 40 35 pd recCan;
#N canvas 199 474 482 320 inputCan 0;
#X obj 307 120 f \$1;
#X obj 344 121 f \$2;
#X obj 344 66 loadbang;
#X msg 364 93 bang;
#X obj 260 153 pack f f f;
#X obj 233 39 r \$1-\$2-audioInputCtl;
#X msg 260 180 \; \$2-\$3-inputCan label input:\$1;
#X obj 160 153 pack s f f;
#X msg 160 230 \; \$2-\$3-inputCan label \$1;
#X obj 233 94 sel 9 10;
#X msg 160 125 symbol int:M.L;
#X msg 130 89 symbol int:M.R;
#X obj 172 10 r \$1-\$2-audioInputOver;
#X connect 0 0 4 1;
#X connect 0 0 7 1;
#X connect 1 0 4 2;
#X connect 1 0 7 2;
#X connect 2 0 0 0;
#X connect 2 0 1 0;
#X connect 3 0 1 0;
#X connect 3 0 0 0;
#X connect 4 0 6 0;
#X connect 5 0 9 0;
#X connect 7 0 8 0;
#X connect 9 0 10 0;
#X connect 9 1 11 0;
#X connect 9 2 4 0;
#X connect 10 0 7 0;
#X connect 11 0 7 0;
#X connect 12 0 9 0;
#X restore 40 62 pd inputCan;
#N canvas 642 466 450 300 trackNrCan 0;
#X obj 60 126 f \$1;
#X obj 105 126 f \$2;
#X obj 60 64 loadbang;
#X msg 122 74 bang;
#X obj 60 91 t b b;
#X obj 60 153 pack f f;
#X msg 60 180 \; \$1-\$2-trackNrCan label _\$2_;
#X connect 0 0 5 0;
#X connect 1 0 5 1;
#X connect 2 0 4 0;
#X connect 3 0 4 0;
#X connect 4 0 0 0;
#X connect 4 1 1 0;
#X connect 5 0 6 0;
#X restore 40 89 pd trackNrCan;
#N canvas 1 76 450 300 muteCan 0;
#X obj 25 74 sel 0 127;
#X obj 106 121 f \$1;
#X obj 144 121 f \$2;
#X obj 144 66 loadbang;
#X obj 60 153 pack f f f f;
#X msg 164 93 bang;
#X obj 25 47 r \$1-\$2-muteCtl;
#X msg 60 180 \; \$3-\$4-muteCan color \$1 \$2;
#X msg 25 101 0 17;
#X msg 60 101 17 0;
#X connect 0 0 8 0;
#X connect 0 1 9 0;
#X connect 1 0 4 2;
#X connect 2 0 4 3;
#X connect 3 0 1 0;
#X connect 3 0 2 0;
#X connect 4 0 7 0;
#X connect 5 0 2 0;
#X connect 5 0 1 0;
#X connect 6 0 0 0;
#X connect 8 0 4 0;
#X connect 9 0 4 0;
#X restore 120 35 pd muteCan;
#N canvas 1 76 450 300 soloCan 0;
#X obj 25 74 sel 0 127;
#X obj 106 121 f \$1;
#X obj 144 121 f \$2;
#X obj 144 66 loadbang;
#X obj 60 153 pack f f f f;
#X msg 164 93 bang;
#X obj 25 47 r \$1-\$2-soloCtl;
#X msg 60 180 \; \$3-\$4-soloCan color \$1 \$2;
#X msg 25 101 0 15;
#X msg 60 101 15 0;
#X connect 0 0 8 0;
#X connect 0 1 9 0;
#X connect 1 0 4 2;
#X connect 2 0 4 3;
#X connect 3 0 1 0;
#X connect 3 0 2 0;
#X connect 4 0 7 0;
#X connect 5 0 2 0;
#X connect 5 0 1 0;
#X connect 6 0 0 0;
#X connect 8 0 4 0;
#X connect 9 0 4 0;
#X restore 200 35 pd soloCan;
#N canvas 1093 373 450 300 volCan 0;
#X obj 106 121 f \$1;
#X obj 144 121 f \$2;
#X obj 144 66 loadbang;
#X msg 164 93 bang;
#X obj 60 45 r \$1-\$2-volCtl;
#X obj 60 153 pack f f f;
#X msg 60 180 \; \$2-\$3-volCan label vol:\$1;
#X obj 60 126 i;
#X obj 60 72 / 127;
#X obj 60 99 * 100;
#X obj 153 26 r \$1-\$2-volGraphix;
#X connect 0 0 5 1;
#X connect 1 0 5 2;
#X connect 2 0 0 0;
#X connect 2 0 1 0;
#X connect 3 0 1 0;
#X connect 3 0 0 0;
#X connect 4 0 8 0;
#X connect 5 0 6 0;
#X connect 7 0 5 0;
#X connect 8 0 9 0;
#X connect 9 0 7 0;
#X connect 10 0 8 0;
#X restore 40 116 pd volCan;
#N canvas 328 133 485 675 panCan 0;
#X obj 60 69 r \$1-\$2-panCalc;
#X obj 60 123 i;
#X obj 60 96 * 100;
#X obj 60 150 / 100;
#X obj 60 177 * 2;
#X obj 60 204 - 1;
#X obj 98 434 f \$1;
#X obj 143 444 f \$2;
#X obj 143 372 loadbang;
#X obj 123 258 moses 0.06;
#X obj 60 231 moses -0.06;
#X obj 60 461 pack s f f;
#X msg 60 595 \; \$2-\$3-panCan label \$1;
#X msg 212 372 bang;
#X msg 123 312 symbol ...C...;
#X msg 60 339 symbol L:\$1;
#X msg 180 285 symbol R:\$1;
#X obj 257 324 r \$1-\$2-oldPan;
#X obj 321 243 r \$1-\$2-oldPanBack;
#X obj 257 378 tgl 15 0 empty empty empty 17 7 0 10 -262144 -1 -1 0
1;
#X obj 257 403 sel 1 0;
#X obj 98 528 pack f f;
#X obj 98 502 spigot;
#X obj 212 458 del 100;
#X msg 212 485 1;
#X obj 321 270 t b b;
#X msg 358 297 0;
#X msg 321 297 0;
#X obj 257 351 metro 150;
#X msg 98 555 \; \$1-\$2-panCan label;
#X obj 116 481 f;
#X connect 0 0 2 0;
#X connect 1 0 3 0;
#X connect 2 0 1 0;
#X connect 3 0 4 0;
#X connect 4 0 5 0;
#X connect 5 0 10 0;
#X connect 6 0 11 1;
#X connect 6 0 30 1;
#X connect 7 0 11 2;
#X connect 7 0 21 1;
#X connect 8 0 6 0;
#X connect 8 0 7 0;
#X connect 8 0 23 0;
#X connect 9 0 14 0;
#X connect 9 1 16 0;
#X connect 10 0 15 0;
#X connect 10 1 9 0;
#X connect 11 0 12 0;
#X connect 13 0 7 0;
#X connect 13 0 6 0;
#X connect 13 0 23 0;
#X connect 14 0 11 0;
#X connect 15 0 11 0;
#X connect 16 0 11 0;
#X connect 17 0 28 0;
#X connect 18 0 25 0;
#X connect 19 0 20 0;
#X connect 20 0 30 0;
#X connect 20 1 11 0;
#X connect 21 0 29 0;
#X connect 22 0 21 0;
#X connect 23 0 24 0;
#X connect 24 0 22 1;
#X connect 25 0 27 0;
#X connect 25 1 26 0;
#X connect 26 0 28 0;
#X connect 27 0 19 0;
#X connect 28 0 19 0;
#X connect 30 0 22 0;
#X restore 40 143 pd panCan;
#X restore 561 214 pd graphics;
#X obj 170 313 r~ \$1-\$2-audioIn;
#X obj 735 147 r \$1-\$2-soloCtl;
#X obj 735 229 pack f f f;
#X obj 807 202 f \$1;
#X obj 844 202 f \$2;
#X obj 844 148 loadbang;
#X msg 864 175 bang;
#X msg 735 202 1;
#X msg 771 202 0;
#X obj 735 174 sel 127 0;
#X msg 735 257 \; \$2-writeSolo \$1 \$3 \; \$2-thisSolo \$1;
#X obj 725 548 switch~;
#X msg 725 497 0;
#X msg 759 497 1;
#X obj 734 317 r \$1-\$2-muteCtl;
#X obj 769 470 loadbang;
#X obj 734 344 sel 127 0;
#X obj 368 362 r \$1-cFMs;
#X obj 353 389 del;
#N canvas 316 261 510 395 save 0;
#X obj 220 152 s \$1-save;
#X obj 85 150 s \$1-\$2-open;
#X obj 221 67 r \$1-\$2-save;
#X obj 88 71 r \$1-\$2-open;
#X obj 88 115 f \$2;
#X obj 220 115 f \$2;
#X connect 2 0 5 0;
#X connect 3 0 4 0;
#X connect 4 0 1 0;
#X connect 5 0 0 0;
#X restore 561 268 pd save;
#X obj 414 143 del;
#X obj 429 90 r \$1-cFMs;
#X obj 429 116 + 100;
#N canvas 1004 292 544 397 rolling_gate 0;
#X obj 75 207 spigot;
#X obj 125 184 spigot;
#X obj 191 134 - 1;
#X obj 108 90 loadbang;
#X msg 108 117 0;
#X obj 191 53 r \$1-rollingState;
#X obj 191 107 pipe;
#X obj 212 80 r \$1-shutterMs+5;
#N canvas 85 248 556 557 aP-l 0;
#X obj 87 403 outlet;
#X obj 48 311 f;
#X obj 48 33 inlet;
#X obj 246 30 r \$1-latencySmpl;
#X obj 75 244 -;
#X obj 290 57 r \$1-\$2-audioInputCtl;
#X obj 290 120 sel 9 10;
#X obj 214 103 f;
#X obj 246 103 f;
#X obj 246 57 t b f;
#X obj 75 190 s \$1-freshPos;
#X obj 318 172 r \$1-latencyIntSmpl;
#X obj 335 147 t b;
#X obj 75 217 r \$1-freshPosBack;
#X obj 48 339 moses 0;
#X obj 132 362 t b;
#X obj 132 389 del;
#X obj 290 227 f;
#X obj 48 163 t b b;
#X obj 166 369 r \$1-latencyMs;
#X obj 90 113 r \$1-noLatency;
#X msg 169 287 0;
#X msg 111 280 -44100;
#X connect 1 0 14 0;
#X connect 2 0 18 0;
#X connect 3 0 9 0;
#X connect 4 0 1 1;
#X connect 5 0 6 0;
#X connect 5 0 8 1;
#X connect 6 0 17 0;
#X connect 6 1 17 0;
#X connect 6 2 12 0;
#X connect 7 0 4 1;
#X connect 8 0 6 0;
#X connect 9 0 8 0;
#X connect 9 0 21 0;
#X connect 9 1 7 1;
#X connect 11 0 17 1;
#X connect 12 0 7 0;
#X connect 13 0 4 0;
#X connect 14 0 15 0;
#X connect 14 1 0 0;
#X connect 15 0 16 0;
#X connect 16 0 18 0;
#X connect 17 0 4 1;
#X connect 18 0 1 0;
#X connect 18 1 10 0;
#X connect 19 0 16 1;
#X connect 20 0 4 1;
#X connect 20 0 22 0;
#X connect 21 0 14 1;
#X connect 22 0 14 1;
#X restore 75 274 pd aP-l;
#X obj 75 63 inlet;
#X obj 75 301 outlet;
#X obj 191 163 r \$1-shuttleMs+5;
#X obj 125 207 del;
#X obj 191 190 + 5;
#X connect 0 0 8 0;
#X connect 1 0 12 0;
#X connect 2 0 1 1;
#X connect 3 0 4 0;
#X connect 4 0 2 0;
#X connect 4 0 0 1;
#X connect 5 0 6 0;
#X connect 6 0 2 0;
#X connect 6 0 0 1;
#X connect 7 0 6 1;
#X connect 8 0 10 0;
#X connect 9 0 1 0;
#X connect 9 0 0 0;
#X connect 11 0 13 0;
#X connect 12 0 8 0;
#X connect 13 0 12 1;
#X restore 197 79 pd rolling_gate;
#X text 200 28 start;
#X text 340 28 stop;
#X text 117 59 with "fresh" position (now!);
#X text 144 123 rolling;
#X obj 694 407 r \$1-cFMs;
#X obj 679 434 del;
#X obj 774 376 s \$1-\$2-monitorOn;
#X obj 639 382 s \$1-\$2-monitorOff;
#X obj 774 403 r \$1-cFMs;
#X obj 759 430 del;
#X obj 414 170 f \$2;
#X obj 414 196 s \$1-save;
#X obj 328 106 t b b b;
#X obj 247 39 t b b;
#X obj 621 520 f;
#X obj 368 60 s \$1-\$2-deMute;
#X obj 620 485 r \$1-\$2-deMute;
#X obj 536 537 f;
#X msg 621 574 1;
#X obj 621 547 sel 0;
#X obj 265 146 s \$1-\$2-recallMute;
#X obj 525 434 r \$1-\$2-recallMute;
#X obj 535 565 sel 0;
#X msg 533 592 0;
#N canvas 1 76 450 427 import 0;
#X obj 97 61 r \$1-\$2-importCtl;
#X obj 97 88 t b;
#X obj 97 115 openpanel;
#X obj 97 260 soundfiler;
#X obj 169 143 f \$1;
#X obj 207 143 f \$2;
#X obj 169 88 loadbang;
#X msg 97 142 symbol \$1;
#X msg 97 233 read \$1 \$3-\$4-track;
#X obj 97 204 pack s f f;
#X connect 0 0 1 0;
#X connect 1 0 2 0;
#X connect 2 0 7 0;
#X connect 4 0 9 1;
#X connect 5 0 9 2;
#X connect 6 0 4 0;
#X connect 6 0 5 0;
#X connect 7 0 9 0;
#X connect 8 0 3 0;
#X connect 9 0 8 0;
#X restore 561 295 pd import;
#X obj 0 0 cnv 15 110 600 empty empty empty 20 12 0 14 -1 -66577 0
;
#X obj 1 1 cnv 15 108 598 empty \$1-\$2-trackBorder empty 20 12 0 14
-262144 -1 0;
#X obj 5 5 cnv 15 100 590 empty empty empty 20 12 0 14 -262144 -66577
0;
#X obj 7 51 nbx 9 30 1 10 0 0 \$1-\$2-audioInputCtl \$1-\$2-audioInputCtlIn
empty 0 -8 0 10 -262144 -1 -1 1 256;
#X obj 5 51 cnv 15 100 30 empty \$1-\$2-inputCan input:1 7 14 0 20
-262144 -1 0;
#X obj 5 11 cnv 15 100 30 empty \$1-\$2-trackNrCan _1_ 35 11 0 14 -262144
-1 0;
#X obj 5 356 cnv 15 90 30 empty \$1-\$2-volCan vol:100 7 14 0 20 -262144
-1 0;
#X obj 5 316 cnv 15 90 30 empty \$1-\$2-panCan ...C... 7 14 0 20 -262144
-1 0;
#X obj 13 400 cnv 15 84 42 empty empty empty 20 12 0 14 -241291 -66577
0;
#X obj 15 402 cnv 15 80 38 empty \$1-\$2-soloCan SOLO 17 19 0 20 -262144
-241291 0;
#X obj 13 450 cnv 15 84 42 empty empty empty 20 12 0 14 -4032 -66577
0;
#X obj 15 452 cnv 15 80 38 empty \$1-\$2-muteCan MUTE 17 19 0 20 -262144
-44926 0;
#X obj 13 500 cnv 15 84 42 empty empty empty 20 12 0 14 -258113 -66577
0;
#X obj 15 502 cnv 15 80 38 empty \$1-\$2-recCan REC 21 19 0 20 -262144
-258699 0;
#X obj 5 553 cnv 15 100 30 empty \$1-\$2-trackNrCan _1_ 35 16 0 14
-262144 -1 0;
#X obj 5 93 hradio 25 1 0 4 \$1-\$2-importCtl \$1-\$2-importCtlIn empty
0 -8 0 10 -262144 -1 -1 0;
#X obj 5 90 cnv 15 100 30 empty \$1-\$2-importCan import 18 14 0 16
-262144 -162280 0;
#N canvas 717 143 672 581 inputKey 0;
#N canvas 248 134 758 591 choose_with_Arrow 0;
#X obj 391 81 loadbang;
#X obj 306 3 keyname;
#X obj 267 129 spigot;
#X obj 266 90 symbol;
#X obj 268 284 sel xxx;
#X obj 446 305 sel xxx;
#X obj 50 467 spigot;
#X obj 171 467 spigot;
#X obj 160 363 loadbang;
#X msg 161 388 0;
#X obj 50 520 outlet;
#X obj 172 526 outlet;
#X obj 133 237 r \$1-shiftCtl;
#X obj 340 47 r \$1-keysOnOff;
#X floatatom 166 268 5 0 0 0 - - -;
#X msg 391 125 symbol Down;
#X msg 427 158 symbol Up;
#X obj 273 35 sel 1;
#X connect 0 0 15 0;
#X connect 0 0 16 0;
#X connect 1 0 17 0;
#X connect 1 1 3 1;
#X connect 2 0 4 0;
#X connect 2 0 5 0;
#X connect 3 0 2 0;
#X connect 4 0 6 0;
#X connect 5 0 7 0;
#X connect 6 0 10 0;
#X connect 7 0 11 0;
#X connect 8 0 9 0;
#X connect 9 0 6 1;
#X connect 9 0 7 1;
#X connect 12 0 6 1;
#X connect 12 0 7 1;
#X connect 12 0 14 0;
#X connect 13 0 2 1;
#X connect 15 0 4 1;
#X connect 16 0 5 1;
#X connect 17 0 3 0;
#X restore 307 32 pd choose_with_Arrow;
#X obj 283 155 f;
#X obj 283 181 - 1;
#X obj 362 155 f;
#X obj 359 183 + 1;
#X obj 261 216 sel 0;
#X msg 351 266 1;
#X obj 125 68 r \$1-\$2-chosenAudioInput;
#X obj 350 220 sel 11;
#X msg 89 377 \; \$3-\$2-audioInputOver \$1;
#X obj 121 311 r \$1-chosenTrack;
#X obj 147 221 loadbang;
#X obj 147 243 f \$1;
#X obj 89 340 pack f f f;
#X msg 261 255 10;
#X obj 445 126 loadbang;
#X msg 445 153 1;
#X connect 0 0 1 0;
#X connect 0 1 3 0;
#X connect 1 0 2 0;
#X connect 2 0 5 0;
#X connect 3 0 4 0;
#X connect 4 0 8 0;
#X connect 5 0 14 0;
#X connect 5 1 13 0;
#X connect 5 1 1 1;
#X connect 5 1 3 1;
#X connect 6 0 13 0;
#X connect 6 0 3 1;
#X connect 6 0 1 1;
#X connect 7 0 1 1;
#X connect 7 0 3 1;
#X connect 8 0 6 0;
#X connect 8 1 13 0;
#X connect 8 1 3 1;
#X connect 8 1 1 1;
#X connect 10 0 13 1;
#X connect 11 0 12 0;
#X connect 12 0 13 2;
#X connect 13 0 9 0;
#X connect 14 0 13 0;
#X connect 14 0 1 1;
#X connect 14 0 3 1;
#X connect 15 0 16 0;
#X connect 16 0 3 1;
#X connect 16 0 1 1;
#X connect 16 0 13 1;
#X restore 560 323 pd inputKey;
#N canvas 75 300 733 472 audio 0;
#X text 95 38 Input;
#X obj 96 62 r \$1-\$2-audioInputCtl;
#X obj 388 107 f \$1;
#X obj 426 107 f \$2;
#X obj 388 52 loadbang;
#X obj 360 133 pack f f f;
#N canvas 1080 428 450 300 \$1-\$2-audioHome 0;
#N canvas 146 290 450 300 \$1-\$2-audioInput 0;
#X obj 0 0 adc~ 1;
#X obj 0 30 outlet~;
#X connect 0 0 1 0;
#X restore 62 51 pd \$1-\$2-audioInput;
#X obj 62 78 s~ \$1-\$2-audioIn;
#X connect 0 0 1 0;
#X restore 360 256 pd \$1-\$2-audioHome;
#X msg 360 161 \; pd-\$2-\$3-audioInput clear \; pd-\$2-\$3-audioInput
obj 0 0 adc~ \$1 \; pd-\$2-\$3-audioInput obj 0 30 outlet~ \; pd-\$2-\$3-audioInput
connect 0 0 1 0 \; pd-\$2-\$3-audioHome connect 0 0 1 0 \;;
#X obj 83 234 f \$1;
#X obj 121 234 f \$2;
#X obj 83 179 loadbang;
#X obj 96 116 sel 9 10;
#X msg 55 152 symbol L;
#X msg 118 151 symbol R;
#X msg 55 287 \; pd-\$2-\$3-audioInput clear \; pd-\$2-\$3-audioInput
obj 0 0 r~ \$2-inputMaster\$1 \; pd-\$2-\$3-audioInput obj 0 30 outlet~
\; pd-\$2-\$3-audioInput connect 0 0 1 0 \; pd-\$2-\$3-audioHome connect
0 0 1 0 \;;
#X obj 55 260 pack s f f;
#X obj 492 44 loadbang;
#X msg 491 69 1;
#X obj 492 256 r \$1-\$2-inputWithPan;
#X obj 492 283 / 127;
#X obj 492 337 i;
#X obj 492 310 * 10;
#X obj 492 364 s \$1-\$2-audioInputCtlIn;
#X obj 490 97 s \$1-\$2-audioInputCtlIn;
#X obj 236 116 s \$1-allAudioInput;
#X obj 236 89 f;
#X obj 18 21 r \$1-\$2-audioInputOver;
#X obj 236 62 r \$1-\$2-audioInputAsk;
#N canvas 1 76 310 290 wait_a_sec 0;
#X obj 125 48 inlet;
#X obj 137 191 outlet;
#X obj 125 74 t b f;
#X obj 137 164 f;
#X obj 103 113 del 500;
#X connect 0 0 2 0;
#X connect 2 0 4 0;
#X connect 2 1 3 1;
#X connect 3 0 1 0;
#X connect 4 0 3 0;
#X restore 96 89 pd wait_a_sec;
#X obj 202 154 s \$1-\$2-chosenAudioInput;
#X connect 1 0 28 0;
#X connect 1 0 25 1;
#X connect 1 0 29 0;
#X connect 2 0 5 1;
#X connect 3 0 5 2;
#X connect 4 0 2 0;
#X connect 4 0 3 0;
#X connect 5 0 7 0;
#X connect 8 0 15 1;
#X connect 9 0 15 2;
#X connect 10 0 8 0;
#X connect 10 0 9 0;
#X connect 11 0 12 0;
#X connect 11 1 13 0;
#X connect 11 2 5 0;
#X connect 12 0 15 0;
#X connect 13 0 15 0;
#X connect 15 0 14 0;
#X connect 16 0 17 0;
#X connect 17 0 23 0;
#X connect 18 0 19 0;
#X connect 19 0 21 0;
#X connect 20 0 22 0;
#X connect 21 0 20 0;
#X connect 25 0 24 0;
#X connect 26 0 11 0;
#X connect 26 0 29 0;
#X connect 27 0 25 0;
#X connect 28 0 11 0;
#X connect 28 0 29 0;
#X restore 561 241 pd audio;
#X connect 0 0 17 0;
#X connect 1 0 2 0;
#X connect 1 0 15 0;
#X connect 2 0 14 1;
#X connect 3 0 14 0;
#X connect 4 0 17 0;
#X connect 8 0 9 1;
#X connect 9 0 17 0;
#X connect 10 0 17 0;
#X connect 11 0 10 1;
#X connect 12 0 68 0;
#X connect 12 1 67 0;
#X connect 14 0 16 0;
#X connect 15 0 14 2;
#X connect 18 0 10 0;
#X connect 19 0 21 0;
#X connect 19 1 27 0;
#X connect 19 1 28 0;
#X connect 19 2 4 0;
#X connect 22 0 11 0;
#X connect 23 0 11 0;
#X connect 24 0 8 0;
#X connect 25 0 8 0;
#X connect 26 0 22 0;
#X connect 27 0 23 0;
#X connect 28 0 24 0;
#X connect 29 0 25 0;
#X connect 31 0 9 0;
#X connect 32 0 40 0;
#X connect 33 0 41 0;
#X connect 34 0 33 1;
#X connect 35 0 33 2;
#X connect 36 0 34 0;
#X connect 36 0 35 0;
#X connect 37 0 35 0;
#X connect 37 0 34 0;
#X connect 38 0 33 0;
#X connect 39 0 33 0;
#X connect 40 0 38 0;
#X connect 40 1 39 0;
#X connect 43 0 42 0;
#X connect 43 0 69 1;
#X connect 44 0 42 0;
#X connect 44 0 69 1;
#X connect 45 0 47 0;
#X connect 46 0 44 0;
#X connect 47 0 60 0;
#X connect 47 0 62 0;
#X connect 47 1 61 0;
#X connect 47 1 64 0;
#X connect 48 0 49 1;
#X connect 49 0 0 0;
#X connect 51 0 65 0;
#X connect 52 0 53 0;
#X connect 53 0 51 1;
#X connect 54 0 18 0;
#X connect 54 0 19 0;
#X connect 59 0 60 1;
#X connect 60 0 43 0;
#X connect 63 0 64 1;
#X connect 64 0 44 0;
#X connect 65 0 66 0;
#X connect 67 0 75 0;
#X connect 67 1 26 0;
#X connect 67 1 49 0;
#X connect 67 1 20 0;
#X connect 67 2 51 0;
#X connect 67 2 29 0;
#X connect 68 0 54 0;
#X connect 68 1 70 0;
#X connect 69 0 74 0;
#X connect 69 0 72 1;
#X connect 71 0 69 0;
#X connect 72 0 77 0;
#X connect 73 0 42 0;
#X connect 74 0 73 0;
#X connect 76 0 72 0;
#X connect 77 0 78 0;
#X connect 78 0 42 0;
#X coords 0 -1 1 1 110 600 2 0 0;
