#N canvas 1 76 468 405 10;
#X text 74 60 solo;
#X obj 110 89 s \$1-\$2-soloCtl;
#X obj 110 60 ctlin \$3 1;
#X text 209 92 \$0-1-soloCtl;
#X text 74 120 mute;
#X obj 110 120 ctlin \$4 1;
#X obj 110 149 s \$1-\$2-muteCtl;
#X text 209 152 \$0-1-muteCtl;
#X text 74 180 rec;
#X obj 110 180 ctlin \$5 1;
#X obj 110 209 s \$1-\$2-recCtl;
#X text 209 212 \$0-1-recCtl;
#X text 74 240 pan;
#X text 209 272 \$0-1-panCtl;
#X obj 110 240 ctlin \$6 1;
#X obj 110 269 s \$1-\$2-panCtl;
#X text 74 300 vol;
#X obj 110 300 ctlin \$7 1;
#X obj 110 329 s \$1-\$2-volCtl;
#X text 209 332 \$0-1-volCtl;
#X connect 2 0 1 0;
#X connect 5 0 6 0;
#X connect 9 0 10 0;
#X connect 14 0 15 0;
#X connect 17 0 18 0;
