#N canvas 1 76 346 266 10;
#X obj 44 112 until;
#X obj 44 58 t b b;
#X obj 44 139 f;
#X obj 93 156 + 1;
#X msg 81 85 0;
#X msg 44 85 8;
#X obj 44 31 inlet;
#X obj 93 183 outlet;
#X connect 0 0 2 0;
#X connect 1 0 5 0;
#X connect 1 1 4 0;
#X connect 2 0 3 0;
#X connect 3 0 2 1;
#X connect 3 0 7 0;
#X connect 4 0 2 1;
#X connect 5 0 0 0;
#X connect 6 0 1 0;
