#N canvas 505 138 604 646 10;
#X text 334 75 \$1 = \$0;
#X text 334 88 \$2 = ff / rew;
#X text 334 101 \$3 = 8 / 8-;
#X obj 79 235 spigot;
#X obj 105 165 t b b;
#X obj 164 147 sel 0 127;
#X msg 190 176 1;
#X msg 140 190 0;
#X msg 105 190 0;
#X obj 157 236 spigot;
#X obj 190 207 - 1;
#X obj 79 262 sel 127 0;
#X obj 157 263 sel 127 0;
#X obj 79 334 f;
#X obj 256 336 s \$1-preStop;
#X obj 222 372 s \$1-shuttleStop;
#X obj 79 374 outlet;
#X obj 165 121 r \$1-stopCtl;
#X obj 79 141 r \$1-\$2Ctl;
#X obj 94 307 r \$1-playFloat\$3;
#X obj 150 374 s \$1-wind\$2;
#X obj 235 148 loadbang;
#X obj 47 197 bng 15 250 50 0 empty empty empty 17 7 0 10 -262144 -1
-1;
#X obj 231 191 bng 15 250 50 0 empty empty empty 17 7 0 10 -262144
-1 -1;
#X obj 267 190 bng 15 250 50 0 empty empty empty 17 7 0 10 -262144
-1 -1;
#X connect 3 0 11 0;
#X connect 4 0 8 0;
#X connect 4 1 7 0;
#X connect 5 0 4 0;
#X connect 5 0 23 0;
#X connect 5 1 6 0;
#X connect 5 1 24 0;
#X connect 6 0 3 1;
#X connect 6 0 10 0;
#X connect 7 0 10 0;
#X connect 7 0 3 1;
#X connect 8 0 11 0;
#X connect 8 0 12 0;
#X connect 9 0 12 0;
#X connect 10 0 9 1;
#X connect 11 0 13 0;
#X connect 11 1 15 0;
#X connect 11 1 14 0;
#X connect 12 0 20 0;
#X connect 12 1 15 0;
#X connect 12 1 14 0;
#X connect 13 0 16 0;
#X connect 17 0 5 0;
#X connect 18 0 3 0;
#X connect 18 0 9 0;
#X connect 18 0 22 0;
#X connect 19 0 13 1;
#X connect 21 0 7 0;
