#N canvas 862 290 611 528 10;
#X obj -217 168 f;
#X obj -264 237 del;
#X obj -244 278 f;
#X msg -193 100 stop;
#X obj -242 14 inlet;
#X obj -188 46 r \$1-shuttleStop;
#X obj -174 194 r \$1-shuttleMs;
#X obj -242 310 outlet;
#X text 47 69 \$1 = \$0;
#X text 47 83 \$2 = Slow / Slow-;
#X obj -202 141 r \$1-playFloat\$2;
#X text 47 96 \$2 = Float / Float-;
#X obj -215 250 r \$1-play\$3;
#X obj -151 324 outlet;
#X connect 0 0 13 0;
#X connect 1 0 2 0;
#X connect 2 0 7 0;
#X connect 3 0 1 0;
#X connect 4 0 0 0;
#X connect 4 0 1 0;
#X connect 5 0 3 0;
#X connect 6 0 1 1;
#X connect 10 0 0 1;
#X connect 12 0 2 1;
