#N canvas 308 440 497 469 10;
#X obj 32 168 soundfiler;
#X obj 172 116 dac~;
#X msg 32 120 open audio/\$1.wav;
#X obj 173 51 r play\$1;
#X obj 32 75 f \$1;
#X msg 32 144 read -resize \$1 \$1-array;
#X obj 173 80 tabplay~ audio/\$1.wav-array;
#N canvas 0 0 450 300 (subpatch) 0;
#X array audio/\$1.wav-array 62079 float 2;
#X coords 0 1 62079 -1 200 140 1;
#X restore 259 64 graph;
#X obj 32 96 pack f;
#X obj 32 52 loadbang;
#X connect 2 0 5 0;
#X connect 3 0 6 0;
#X connect 4 0 8 0;
#X connect 5 0 0 0;
#X connect 6 0 1 0;
#X connect 6 0 1 1;
#X connect 8 0 2 0;
#X connect 9 0 4 0;
#X coords 0 469 1 468 350 50 0;
