#N canvas 59 50 1369 883 10;
#X obj 1205 113 metro 60000;
#X obj 1205 90 tgl 15 0 empty empty empty 17 7 0 10 -262144 -1 -1 1
1;
#X obj 1205 55 loadbang;
#X msg 1205 138 \; pd-736.pd menusave;
#N canvas 0 22 450 300 tempo 0;
#X obj 134 119 t b f;
#X obj 134 172 /;
#X msg 134 148 60000;
#X obj 134 195 / 4;
#X obj 134 219 v semi;
#X obj 134 67 loadbang;
#X text 105 220 hub;
#X msg 134 93 170;
#X connect 0 0 2 0;
#X connect 0 1 1 1;
#X connect 1 0 3 0;
#X connect 2 0 1 0;
#X connect 3 0 4 0;
#X connect 5 0 7 0;
#X connect 7 0 0 0;
#X restore 1054 221 pd tempo;
#N canvas 45 718 450 300 transport 0;
#X obj 58 75 key;
#X obj 58 104 sel 32;
#X obj 58 132 i;
#X obj 95 133 + 1;
#X obj 58 159 % 2;
#X obj 58 186 s IO;
#X obj 140 98 bng 15 250 50 0 empty empty empty 17 7 0 10 -262144 -1
-1;
#X connect 0 0 1 0;
#X connect 1 0 2 0;
#X connect 2 0 3 0;
#X connect 2 0 4 0;
#X connect 3 0 2 1;
#X connect 4 0 5 0;
#X connect 6 0 2 0;
#X restore 1054 245 pd transport;
#X obj 664 329 consequence h 8;
#X obj 665 296 bng 15 250 50 0 empty empty empty 17 7 0 10 -262144
-1 -1;
#X obj 664 441 list split;
#X obj 692 472 unpack f;
#X obj 664 397 list;
#X obj 1060 124 print;
#X msg 1060 70 8;
#X msg 61 245 seed 10;
#X obj 194 370 expr $f1*semi;
#X obj 170 424 delay, f 8;
#X obj 180 397 t b f;
#X obj 150 452 bng 15 250 50 0 empty empty empty 17 7 0 10 -262144
-1 -1;
#X obj 166 335 sel 0;
#X obj 198 126 metro;
#X obj 225 100 expr semi*16;
#X obj 198 75 t f b;
#X obj 198 49 r IO;
#X obj 198 178 t f f;
#X obj 164 256 spigot 1;
#X msg 164 360 1;
#X msg 198 152 0;
#X obj 327 316 bng 15 250 50 0 empty empty empty 17 7 0 10 -262144
-1 -1;
#X obj 164 310 consequence k 16;
#X obj 259 444 i;
#X obj 293 446 + 1;
#X obj 259 469 % 2;
#X obj 255 494 sig~;
#X obj 275 652 dac~, f 11;
#X obj 61 512 s kick;
#X obj 257 527 *~;
#X obj 427 479 tgl 15 0 empty empty empty 17 7 0 10 -262144 -1 -1 0
1;
#N canvas 0 22 987 763 urn/marcovREAL 0;
#X obj 353 142 until;
#X obj 353 173 f;
#X obj 408 174 + 1;
#X obj 408 223 sel 0;
#X obj 408 196 mod 8;
#X obj 208 114 t b b f b b b b, f 66;
#X obj 434 360 pack;
#X obj 434 276 t b f;
#X obj 639 461 list split;
#X obj 696 361 list length;
#X obj 639 335 t l l, f 10;
#X obj 432 629 list;
#X obj 577 317 t b;
#X obj 413 673 list;
#X obj 400 470 list prepend;
#X obj 434 385 route 0 1 2 3;
#X obj 491 470 list append;
#X obj 801 456 list split;
#X obj 858 374 list length;
#X obj 801 348 t l l, f 10;
#X obj 780 500 list prepend;
#X obj 618 505 list append;
#X obj 618 537 list prepend;
#X obj 780 534 list append;
#X obj 619 578 list append, f 17;
#X obj 781 573 list prepend, f 17;
#X obj 697 438 random;
#X obj 852 428 random;
#X obj 435 300 random 2;
#X obj 434 332 + 2;
#X obj 209 49 inlet;
#X obj 431 722 outlet;
#X obj 209 79 + 1;
#X obj 428 250 - 1;
#X obj 855 398 t b f;
#X obj 696 404 t b f;
#X connect 0 0 1 0;
#X connect 1 0 2 0;
#X connect 2 0 4 0;
#X connect 3 0 0 1;
#X connect 3 1 33 0;
#X connect 4 0 1 1;
#X connect 4 0 3 0;
#X connect 5 0 13 0;
#X connect 5 1 0 0;
#X connect 5 2 4 1;
#X connect 5 6 12 0;
#X connect 6 0 15 0;
#X connect 7 0 28 0;
#X connect 7 1 6 1;
#X connect 8 0 21 1;
#X connect 8 1 22 1;
#X connect 8 2 24 1;
#X connect 9 0 35 0;
#X connect 10 0 8 0;
#X connect 10 1 9 0;
#X connect 11 0 10 0;
#X connect 11 0 13 1;
#X connect 11 0 14 1;
#X connect 11 0 16 1;
#X connect 11 0 19 0;
#X connect 12 0 14 1;
#X connect 12 0 11 1;
#X connect 12 0 16 1;
#X connect 12 0 20 1;
#X connect 12 0 21 1;
#X connect 12 0 22 1;
#X connect 12 0 23 1;
#X connect 12 0 24 1;
#X connect 12 0 25 1;
#X connect 13 0 31 0;
#X connect 14 0 11 0;
#X connect 15 0 14 0;
#X connect 15 1 16 0;
#X connect 15 2 21 0;
#X connect 15 3 20 0;
#X connect 16 0 11 0;
#X connect 17 0 20 1;
#X connect 17 1 23 1;
#X connect 17 2 25 1;
#X connect 18 0 34 0;
#X connect 19 0 17 0;
#X connect 19 1 18 0;
#X connect 20 0 23 0;
#X connect 21 0 22 0;
#X connect 22 0 24 0;
#X connect 23 0 25 0;
#X connect 24 0 11 0;
#X connect 25 0 11 0;
#X connect 26 0 8 1;
#X connect 27 0 17 1;
#X connect 28 0 29 0;
#X connect 29 0 6 0;
#X connect 30 0 32 0;
#X connect 32 0 5 0;
#X connect 33 0 7 0;
#X connect 34 0 27 0;
#X connect 34 1 27 1;
#X connect 35 0 26 0;
#X connect 35 1 26 1;
#X restore 1060 97 pd urn/marcovREAL;
#N canvas 0 22 1283 1005 seq 0;
#X obj 177 555 % 8;
#X obj 220 715 i;
#X obj 178 769 list;
#X obj 178 803 list split 1;
#X obj 172 414 until;
#X obj 172 442 f;
#X obj 203 444 + 1;
#X obj 255 440 sel 0;
#X obj 203 466 mod 8;
#X obj 230 403 expr $f1*$f1;
#X obj 220 689 sel 0;
#N canvas 0 22 450 278 (subpatch) 0;
#X array tenk 1000 float 3;
#A 0 5 0 6 3 2 1 4 7 6 0 1 4 3 2 5 7 7 6 5 4 2 1 0 3 2 1 0 4 5 6 3
7 7 0 5 1 2 4 3 6 2 0 6 4 5 1 3 7 2 0 6 1 5 4 3 7 7 6 1 0 2 4 3 5 15
8 1 5 12 6 0 3 9 2 4 10 11 7 13 14 15 14 4 3 12 1 11 9 0 2 8 7 10 6
5 13 6 8 9 5 10 13 14 12 11 7 2 1 0 3 4 15 15 14 13 7 0 4 5 2 6 8 11
10 9 3 1 12 15 14 13 7 0 9 2 1 3 5 4 6 8 11 10 12 5 8 9 13 12 11 10
14 7 6 2 0 3 4 1 15 5 2 3 11 12 1 0 6 10 9 14 8 13 7 4 15 12 11 6 8
0 9 4 2 1 3 5 7 10 14 13 15 15 13 10 4 5 3 1 6 8 7 2 0 9 12 11 14 15
0 5 9 8 7 6 10 13 3 4 2 1 12 11 14 6 5 12 14 13 11 8 2 3 9 10 0 1 7
4 15 12 11 10 9 8 4 3 0 1 2 5 6 7 14 13 15 3 12 7 19 19 18 11 10 2
15 1 5 14 16 6 0 8 3 4 7 9 12 13 17 11 7 9 8 3 6 4 2 1 0 17 18 5 10
16 15 13 14 12 19 10 8 4 1 0 12 15 2 3 6 7 5 14 9 13 16 18 17 11 19
19 18 9 8 7 6 1 2 11 12 3 4 15 0 13 14 5 16 10 17 9 12 6 7 14 16 15
5 4 3 1 0 17 18 2 8 11 10 13 19 18 17 4 8 10 9 7 5 1 11 12 13 15 14
2 3 6 0 16 19 17 7 14 8 9 1 3 5 4 0 2 10 11 13 15 12 6 16 18 19 18
17 16 11 21 4 22 6 19 12 3 13 20 14 0 1 7 9 8 26 29 27 13 12 14 20
22 21 16 15 11 3 0 9 8 1 7 2 17 19 23 24 18 4 6 5 25 26 10 28 29 19
4 10 11 16 9 3 2 26 27 24 25 0 20 21 1 23 7 12 17 22 18 15 14 13 6
8 5 28 23 24 6 10 13 11 21 28 15 26 27 17 16 7 25 12 8 14 5 18 19 20
22 4 0 2 9 1 3 29 9 25 26 5 27 4 15 16 22 20 21 1 0 11 14 13 12 18
19 17 2 23 24 3 7 6 8 28 10 29 20 14 13 26 10 11 6 22 1 0 28 7 2 18
27 8 9 4 3 23 24 5 25 12 17 16 15 19 21 29 29 24 23 7 8 5 6 1 3 13
14 2 9 11 12 15 19 0 16 20 27 21 18 17 10 4 22 26 25 28 10 2 12 13
23 11 15 16 0 6 1 14 3 7 8 5 4 17 18 22 21 20 24 28 27 26 25 19 9 29
12 8 10 20 23 22 21 9 7 1 5 0 4 13 14 17 19 18 15 16 3 24 28 27 26
25 2 6 11 29 29 7 9 15 22 23 8 3 26 27 4 14 18 10 1 19 24 25 0 16 17
2 21 12 20 13 11 5 6 28 7 1 26 27 5 12 15 14 13 21 24 25 6 9 4 22 17
20 19 18 28 0 3 16 8 10 2 23 11 29 16 8 18 24 3 2 13 25 14 12 22 23
26 0 4 9 27 28 19 10 21 5 6 7 1 11 20 15 17 29 29 28 0 8 10 16 12 11
9 17 4 18 20 19 21 25 24 23 22 2 3 1 5 26 7 15 13 14 6 27 29 7 3 1
0 2 9 18 19 10 13 5 20 21 22 11 12 4 6 8 16 24 25 17 15 23 14 26 27
28 29 28 4 17 18 6 22 7 2 3 5 21 1 8 13 15 14 16 12 19 20 11 10 9 23
26 25 24 0 27 29 9 10 21 4 3 2 27 0 7 23 26 25 24 13 8 11 14 12 1 6
15 18 17 16 22 5 19 20 28 21 27 26 25 24 23 22 7 4 16 20 17 2 1 0 18
19 11 13 12 5 3 6 28 10 9 14 15 8 29 39 5 1 4 32 33 34 27 28 3 13 14
15 0 20 25 24 23 22 21 40 41 6 42 43 42 31 32 19 2 3 23 25 24 29 30
21 22 7 11 12 14 16 38 39 15 13 10 9 8 1 0 4 33 26 28 34 40 36 37 35
27 17 6 5 18 20 41 43 38 41 40 39 23 21 20 19 17 8 34 3 7 15 6 5 4
9 25 14 13 12 32 11 10 0 35 33 1 26 27;
#X coords 0 8 1000 0 200 140 1 0 0;
#X restore 396 420 graph;
#X obj 183 510 t f f;
#N canvas 0 22 450 278 (subpatch) 0;
#X array tonk 8 float 3;
#A 0 0.964286 0.0142856 0.0142856 0.0428576 -0.0071435 -0.0142865 -0.0071435
0.0357143;
#X coords 0 1 8 0 200 140 1 0 0;
#X restore 495 622 graph;
#X obj 172 374 t b f f;
#X obj 178 662 t b f;
#X obj 181 854 array set tenk;
#X obj 468 815 array random tonk;
#X obj 399 717 bng 15 250 50 0 empty empty empty 17 7 0 10 -262144
-1 -1;
#X obj 418 767 i 0;
#X obj 420 792 t i b;
#X obj 420 870 +;
#X obj 421 832 * 8, f 4;
#X obj 420 901 array get tenk 1 1;
#X obj 771 916 array get tenk 1 8;
#X obj 743 852 t b i;
#X obj 396 936 i;
#X obj 466 843 i;
#X obj -247 644 expr $f1*semi;
#X obj -247 699 delay, f 6;
#X obj -247 673 t b f;
#X obj -247 724 bng 15 250 50 0 empty empty empty 17 7 0 10 -262144
-1 -1;
#X obj -184 419 metro;
#X obj -158 393 expr semi*16;
#X obj -184 368 t f b;
#X obj -184 342 r IO;
#X obj -181 494 t f f;
#X obj -199 558 spigot 1;
#X obj -121 599 bng 15 250 50 0 empty empty empty 17 7 0 10 -262144
-1 -1;
#X obj -179 728 i;
#X obj -145 730 + 1;
#X obj -179 753 % 2;
#X obj -183 778 sig~;
#X obj -175 849 dac~, f 11;
#X obj -108 720 i;
#X obj -74 722 + 1;
#X obj -108 745 % 2;
#X obj -112 770 sig~;
#X obj -246 776 s kick;
#X obj -110 804 *~;
#X obj -181 811 *~;
#X obj -11 763 tgl 15 0 empty empty empty 17 7 0 10 -262144 -1 -1 0
1;
#X msg -280 610 1;
#N canvas 0 22 450 278 (subpatch) 0;
#X array lonk 8 float 3;
#A 0 7 6 1 0 2 4 3 5;
#X coords 0 8 8 0 200 140 1 0 0;
#X restore 786 620 graph;
#X obj 770 961 array set lonk 0 8;
#N canvas 320 248 987 763 urn/marcovBENT 0;
#X obj 353 142 until;
#X obj 353 173 f;
#X obj 408 174 + 1;
#X obj 408 223 sel 0;
#X obj 408 196 mod 8;
#X obj 208 114 t b b f b b b b, f 66;
#X obj 434 360 pack;
#X obj 434 276 t b f;
#X obj 639 461 list split;
#X obj 696 361 list length;
#X obj 639 335 t l l, f 10;
#X obj 432 629 list;
#X obj 577 317 t b;
#X obj 413 673 list;
#X obj 400 470 list prepend;
#X obj 434 385 route 0 1 2 3;
#X obj 491 470 list append;
#X obj 801 456 list split;
#X obj 858 374 list length;
#X obj 801 348 t l l, f 10;
#X obj 697 438 random;
#X obj 852 428 random;
#X obj 435 300 random 2;
#X obj 434 332 + 2;
#X obj 209 49 inlet;
#X obj 431 722 outlet;
#X obj 209 79 + 1;
#X obj 428 250 - 1;
#X obj 855 398 t b f;
#X obj 696 404 t b f;
#X obj 618 505 list append;
#X obj 618 537 list append;
#X obj 618 578 list append, f 17;
#X obj 780 500 list prepend;
#X obj 780 534 list prepend;
#X obj 777 573 list prepend, f 17;
#X connect 0 0 1 0;
#X connect 1 0 2 0;
#X connect 2 0 4 0;
#X connect 3 0 0 1;
#X connect 3 1 27 0;
#X connect 4 0 1 1;
#X connect 4 0 3 0;
#X connect 5 0 13 0;
#X connect 5 1 0 0;
#X connect 5 2 4 1;
#X connect 5 6 12 0;
#X connect 6 0 15 0;
#X connect 7 0 22 0;
#X connect 7 1 6 1;
#X connect 8 0 30 1;
#X connect 8 1 31 1;
#X connect 8 2 32 1;
#X connect 9 0 29 0;
#X connect 10 0 8 0;
#X connect 10 1 9 0;
#X connect 11 0 10 0;
#X connect 11 0 13 1;
#X connect 11 0 14 1;
#X connect 11 0 16 1;
#X connect 11 0 19 0;
#X connect 12 0 14 1;
#X connect 12 0 11 1;
#X connect 12 0 16 1;
#X connect 12 0 30 1;
#X connect 12 0 31 1;
#X connect 12 0 32 1;
#X connect 12 0 33 1;
#X connect 12 0 34 1;
#X connect 12 0 35 1;
#X connect 13 0 25 0;
#X connect 14 0 11 0;
#X connect 15 0 14 0;
#X connect 15 1 16 0;
#X connect 15 2 30 0;
#X connect 15 3 33 0;
#X connect 16 0 11 0;
#X connect 17 0 33 1;
#X connect 17 1 34 1;
#X connect 17 2 35 1;
#X connect 18 0 28 0;
#X connect 19 0 17 0;
#X connect 19 1 18 0;
#X connect 20 0 8 1;
#X connect 21 0 17 1;
#X connect 22 0 23 0;
#X connect 23 0 6 0;
#X connect 24 0 26 0;
#X connect 26 0 5 0;
#X connect 27 0 7 0;
#X connect 28 0 21 0;
#X connect 28 1 21 1;
#X connect 29 0 20 0;
#X connect 29 1 20 1;
#X connect 30 0 31 0;
#X connect 31 0 32 0;
#X connect 32 0 11 0;
#X connect 33 0 34 0;
#X connect 34 0 35 0;
#X connect 35 0 11 0;
#X restore 220 738 pd urn/marcovBENT;
#X obj -276 577 sel 0;
#X msg -184 445 0;
#X obj -33 522 i;
#X floatatom -9 489 5 0 0 0 - - -;
#X msg -33 554 seed \$1;
#X msg 172 335 8;
#X obj -319 649 pipe 5;
#X msg -11 783;
#X connect 0 0 15 0;
#X connect 1 0 55 0;
#X connect 2 0 3 0;
#X connect 3 0 16 0;
#X connect 3 1 2 1;
#X connect 4 0 5 0;
#X connect 5 0 6 0;
#X connect 5 0 12 0;
#X connect 6 0 8 0;
#X connect 7 0 4 1;
#X connect 8 0 5 1;
#X connect 8 0 7 0;
#X connect 9 0 8 1;
#X connect 10 0 1 0;
#X connect 12 0 0 0;
#X connect 12 1 16 1;
#X connect 14 0 4 0;
#X connect 14 1 9 0;
#X connect 14 2 0 1;
#X connect 14 2 1 1;
#X connect 15 0 2 0;
#X connect 15 1 10 0;
#X connect 17 0 27 0;
#X connect 18 0 19 0;
#X connect 19 0 20 0;
#X connect 20 0 22 0;
#X connect 20 1 17 0;
#X connect 21 0 23 0;
#X connect 22 0 21 0;
#X connect 22 0 25 0;
#X connect 23 0 26 0;
#X connect 23 0 56 0;
#X connect 24 0 54 0;
#X connect 25 1 24 0;
#X connect 26 0 19 1;
#X connect 27 0 21 1;
#X connect 28 0 30 0;
#X connect 29 0 31 0;
#X connect 30 0 29 0;
#X connect 30 1 29 1;
#X connect 31 0 39 0;
#X connect 31 0 48 0;
#X connect 31 0 19 0;
#X connect 32 0 57 0;
#X connect 33 0 32 1;
#X connect 34 0 32 0;
#X connect 34 1 33 0;
#X connect 35 0 34 0;
#X connect 36 0 37 1;
#X connect 36 1 37 0;
#X connect 37 0 38 0;
#X connect 37 0 19 0;
#X connect 38 0 44 0;
#X connect 38 0 58 0;
#X connect 39 0 40 0;
#X connect 39 0 41 0;
#X connect 40 0 39 1;
#X connect 41 0 42 0;
#X connect 42 0 50 0;
#X connect 44 0 45 0;
#X connect 44 0 46 0;
#X connect 45 0 44 1;
#X connect 46 0 47 0;
#X connect 47 0 49 0;
#X connect 49 0 43 1;
#X connect 50 0 43 0;
#X connect 51 0 49 1;
#X connect 51 0 50 1;
#X connect 51 0 63 0;
#X connect 52 0 62 0;
#X connect 55 0 2 1;
#X connect 56 0 52 0;
#X connect 56 1 28 0;
#X connect 57 0 36 0;
#X connect 58 0 60 0;
#X connect 59 0 58 1;
#X connect 60 0 17 0;
#X connect 61 0 14 0;
#X connect 62 0 37 1;
#X restore 1054 197 pd seq the numbers not the probs;
#X obj 475 415 bng 15 250 50 0 empty empty empty 17 7 0 10 -262144
-1 -1;
#X obj 664 361 t b f;
#X msg 889 363 0 5 7 9 3 3 7 12;
#X obj 475 319 expr $f1*semi;
#X obj 475 351 t b f;
#X obj 475 383 delay, f 6;
#N canvas 0 23 577 418 random 0;
#X obj 270 125 until;
#X obj 275 224 % 9;
#X obj 263 180 i;
#X obj 301 180 + 1;
#X obj 276 252 sel 0;
#X obj 353 334 list;
#X obj 302 276 t b;
#X obj 301 303 random;
#X obj 399 333 list;
#X obj 243 346 list;
#X obj 291 83 + 1;
#X msg 355 80 0;
#X obj 281 12 inlet;
#X obj 234 384 outlet;
#X obj 278 49 t b f b b;
#X obj 436 6 inlet;
#X connect 0 0 2 0;
#X connect 1 0 4 0;
#X connect 2 0 3 0;
#X connect 2 0 1 0;
#X connect 3 0 2 1;
#X connect 4 0 0 1;
#X connect 4 0 9 0;
#X connect 4 1 6 0;
#X connect 5 0 8 0;
#X connect 5 0 9 1;
#X connect 6 0 7 0;
#X connect 7 0 5 0;
#X connect 8 0 5 1;
#X connect 9 0 13 0;
#X connect 10 0 1 1;
#X connect 11 0 2 1;
#X connect 12 0 14 0;
#X connect 14 0 0 0;
#X connect 14 1 10 0;
#X connect 14 1 4 1;
#X connect 14 2 5 0;
#X connect 14 2 8 0;
#X connect 14 3 11 0;
#X connect 15 0 7 1;
#X restore 872 215 pd random list;
#X obj 888 281 list trim;
#X msg 888 309 0 0 11 5 3 3 8 3;
#X obj 888 253 list prepend set 0;
#X msg 872 185 7;
#X obj 165 490 i;
#X obj 199 492 + 1;
#X obj 165 515 % 2;
#X obj 161 540 sig~;
#X obj 163 573 *~;
#X obj 492 602 noise~;
#X obj 478 578 line~;
#X obj 477 633 *~;
#X msg 478 552 1 \, 0 30;
#X msg 935 335 14;
#X connect 0 0 3 0;
#X connect 1 0 0 0;
#X connect 2 0 1 0;
#X connect 6 0 40 0;
#X connect 7 0 6 0;
#X connect 8 1 9 0;
#X connect 9 0 42 0;
#X connect 10 0 8 0;
#X connect 12 0 37 0;
#X connect 13 0 28 0;
#X connect 14 0 16 0;
#X connect 15 0 17 0;
#X connect 16 0 15 0;
#X connect 16 1 15 1;
#X connect 17 0 28 0;
#X connect 17 0 34 0;
#X connect 17 0 50 0;
#X connect 18 0 25 0;
#X connect 18 1 14 0;
#X connect 19 0 26 0;
#X connect 20 0 19 1;
#X connect 21 0 19 0;
#X connect 21 1 20 0;
#X connect 22 0 21 0;
#X connect 23 0 24 1;
#X connect 23 1 24 0;
#X connect 24 0 27 0;
#X connect 24 0 28 0;
#X connect 25 0 24 1;
#X connect 26 0 23 0;
#X connect 26 0 6 0;
#X connect 27 0 58 0;
#X connect 28 0 18 0;
#X connect 29 0 30 0;
#X connect 29 0 31 0;
#X connect 30 0 29 1;
#X connect 31 0 32 0;
#X connect 32 0 35 0;
#X connect 35 0 33 0;
#X connect 35 0 33 1;
#X connect 36 0 35 1;
#X connect 36 0 54 1;
#X connect 37 0 11 0;
#X connect 39 0 6 0;
#X connect 39 0 29 0;
#X connect 40 0 10 0;
#X connect 40 1 8 1;
#X connect 41 0 10 1;
#X connect 42 0 43 0;
#X connect 43 0 44 0;
#X connect 43 1 44 1;
#X connect 44 0 39 0;
#X connect 45 0 10 1;
#X connect 45 0 48 0;
#X connect 46 0 47 0;
#X connect 48 0 46 0;
#X connect 49 0 45 0;
#X connect 50 0 51 0;
#X connect 50 0 52 0;
#X connect 51 0 50 1;
#X connect 52 0 53 0;
#X connect 53 0 54 0;
#X connect 55 0 57 1;
#X connect 56 0 57 0;
#X connect 57 0 33 1;
#X connect 57 0 33 0;
#X connect 58 0 56 0;
#X connect 59 0 45 1;
