#N canvas 189 23 1423 903 10;
#N canvas 0 22 450 278 (subpatch) 0;
#X array consequence-window\$0 1 float 2;
#X coords 0 1 1 0 200 125 2 0 0;
#X restore 120 104 graph;
#X obj 120 229 hradio 8 1 0 1 empty radio\$1 empty 0 -8 0 10 -262144
-1 -1 0;
#N canvas 0 22 450 278 (subpatch) 0;
#X array con\$1 1 float 2;
#X coords 0 1 1 0 200 140 1 0 0;
#X restore 221 837 graph;
#X obj 280 604 i;
#X obj 236 717 list;
#X obj 147 420 route bang seed;
#X obj 147 477 array random consequence-window\$0;
#X obj 236 694 array get consequence-window\$0;
#X obj 185 803 array set consequence-window\$0;
#X obj 367 23 inlet;
#X obj 715 27 loadbang;
#X obj 754 433 s con\$1;
#X obj 754 378 expr $i1*$i1;
#X msg 754 407 resize \$1;
#X msg 771 326 resize \$1;
#X obj 236 740 array set con\$1;
#X obj 185 772 array get con\$1;
#X obj 120 358 s con\$1;
#X obj 734 559 s con\$1;
#X obj 754 106 \$2;
#X obj 365 342 outlet;
#X obj 771 352 s consequence-window\$0;
#X msg 805 192 size \$1;
#X obj 804 223 s radio\$1;
#X msg 788 251 number \$1;
#X obj 805 168 expr 200/$i1;
#X obj 788 278 s radio\$1;
#X obj 186 539 * \$2;
#X obj 754 132 t f f f f;
#X obj 120 267 t b f;
#X msg 734 524 read ./\$1.txt;
#X msg 120 325 write ./\$1.txt;
#X obj 120 294 symbol \$1;
#X obj 734 495 symbol \$1;
#X obj 147 910 s radio\$1;
#X msg 147 883 set \$1;
#X obj 147 504 t f f f;
#X obj 715 51 t b b b;
#X msg 71 710 0;
#X obj 185 568 t f b f b, f 26;
#X obj 715 609 s \$0init\$1;
#X obj 71 668 r \$0init\$1;
#X msg 190 447 seed \$1;
#X obj 368 139 t f b;
#X obj 411 166 i \$2;
#X obj 367 230 array random con\$1;
#X obj 367 264 i;
#X obj 367 181 *;
#X obj 367 56 route bang seed;
#X msg 410 83 seed \$1;
#X obj 367 109 i 0;
#X obj 392 370 spigot;
#X obj 425 339 tgl 15 0 empty empty empty 17 7 0 10 -262144 -1 -1 0
1;
#X obj 366 314 t f f;
#X msg 425 305 0;
#X obj 425 280 r \$0init\$1;
#X connect 1 0 29 0;
#X connect 3 0 15 1;
#X connect 4 0 15 0;
#X connect 5 0 6 0;
#X connect 5 1 42 0;
#X connect 5 2 27 0;
#X connect 6 0 36 0;
#X connect 7 0 4 0;
#X connect 9 0 48 0;
#X connect 10 0 37 0;
#X connect 12 0 13 0;
#X connect 13 0 11 0;
#X connect 14 0 21 0;
#X connect 16 0 8 0;
#X connect 19 0 28 0;
#X connect 22 0 23 0;
#X connect 24 0 26 0;
#X connect 25 0 22 0;
#X connect 27 0 39 0;
#X connect 28 0 12 0;
#X connect 28 1 14 0;
#X connect 28 2 24 0;
#X connect 28 3 25 0;
#X connect 29 0 32 0;
#X connect 29 1 5 0;
#X connect 30 0 18 0;
#X connect 31 0 17 0;
#X connect 32 0 31 0;
#X connect 33 0 30 0;
#X connect 35 0 34 0;
#X connect 36 0 35 0;
#X connect 36 2 27 0;
#X connect 37 0 40 0;
#X connect 37 1 33 0;
#X connect 37 2 19 0;
#X connect 38 0 16 0;
#X connect 38 0 35 0;
#X connect 39 0 16 0;
#X connect 39 1 7 0;
#X connect 39 2 3 1;
#X connect 39 3 3 0;
#X connect 41 0 38 0;
#X connect 42 0 6 0;
#X connect 43 0 47 0;
#X connect 43 1 44 0;
#X connect 44 0 45 1;
#X connect 44 0 47 1;
#X connect 45 0 46 0;
#X connect 46 0 50 1;
#X connect 46 0 53 0;
#X connect 47 0 45 0;
#X connect 48 0 50 0;
#X connect 48 1 49 0;
#X connect 48 2 43 0;
#X connect 49 0 45 0;
#X connect 50 0 43 0;
#X connect 51 0 5 0;
#X connect 52 0 51 1;
#X connect 53 0 20 0;
#X connect 53 1 51 0;
#X connect 54 0 52 0;
#X connect 55 0 54 0;
#X coords 0 903 1 902 200 150 0;
