#N canvas 523 339 808 629 10;
#X obj 614 447 adc~, f 8;
#X obj 568 524 dac~, f 16;
#X msg 43 447 pos \$1;
#X msg 59 413 siz \$1;
#X msg 76 381 pit \$1;
#X obj 43 23 r TTi;
#X obj 43 73 route 1 2 3 4 5 6;
#X obj 43 48 route adc tact digital;
#X msg 92 154 wf \$1;
#X msg 425 154 ws \$1;
#X obj 109 195 expr if ($f1 <= 0.5 \, 0 \, min(max((2*$f1-1) \, 0)
\, 1)) \; if ($f1 <= 0.5 \, min(max(($f1*-2)+1 \, 0) \, 1) \, 0);
#X msg 109 234 RLR \$1 \, Rpos \$1;
#X msg 412 234 Rsiz \$1;
#X msg 125 306 Rpit \$1;
#X msg 428 306 Rvol \$1;
#X obj 480 100 route 1 2 3;
#X obj 522 164 i;
#X obj 553 164 + 1;
#X obj 522 191 % 2;
#X msg 522 237 rec \$1;
#X obj 522 214 t f f;
#X obj 581 289 s TTo;
#X msg 581 263 3 \$1;
#X obj 92 103 expr if ($f1 <= 0.5 \, min(max($f1*2 \, 0.0000001) \,
1) \, min(max((2*$f1*-2+3) \, 0.00000001) \, 1)) \; if ($f1 <= 0.5
\, 1 \, min(max(($f1*-1+1)*2 \, 0.0000001) \, 1));
#X obj 125 268 expr if ($f1 <= 0.5 \, 0 \, min(max((2*$f1-1) \, 0)
\, 1)) \; if ($f1 <= 0.5 \, min(max(($f1*-2)+1 \, 0) \, 1) \, 0);
#X obj 569 490 gdelay~ yes 3, f 16;
#X obj 76 348 expr $f1*2-1;
#X obj 581 237 int;
#X obj 522 136 bang;
#X connect 0 0 25 1;
#X connect 0 1 25 2;
#X connect 2 0 25 0;
#X connect 3 0 25 0;
#X connect 4 0 25 0;
#X connect 5 0 7 0;
#X connect 6 0 2 0;
#X connect 6 1 3 0;
#X connect 6 2 26 0;
#X connect 6 3 23 0;
#X connect 6 4 10 0;
#X connect 6 5 24 0;
#X connect 7 0 6 0;
#X connect 7 1 15 0;
#X connect 8 0 25 0;
#X connect 9 0 25 0;
#X connect 10 0 11 0;
#X connect 10 1 12 0;
#X connect 11 0 25 0;
#X connect 12 0 25 0;
#X connect 13 0 25 0;
#X connect 14 0 25 0;
#X connect 15 2 28 0;
#X connect 16 0 17 0;
#X connect 16 0 18 0;
#X connect 17 0 16 1;
#X connect 18 0 20 0;
#X connect 19 0 25 0;
#X connect 20 0 19 0;
#X connect 20 1 27 0;
#X connect 22 0 21 0;
#X connect 23 0 8 0;
#X connect 23 1 9 0;
#X connect 24 0 13 0;
#X connect 24 1 14 0;
#X connect 25 0 1 0;
#X connect 25 1 1 1;
#X connect 26 0 4 0;
#X connect 27 0 22 0;
#X connect 28 0 16 0;
