#N canvas 393 22 474 537 10;
#X obj 177 108 route 0 1 2 3 4 5 6 7;
#X obj 42 108 t a a a a a a a a;
#X obj 60 308 list prepend 0;
#X obj 71 328 list prepend 1;
#X obj 82 348 list prepend 2;
#X obj 92 368 list prepend 3;
#X obj 103 388 list prepend 4;
#X obj 114 408 list prepend 5;
#X obj 126 428 list prepend 6;
#X obj 138 448 list prepend 7;
#X obj 60 470 list trim;
#N canvas 578 372 408 441 column 0;
#X obj 121 76 tile;
#X obj 121 96 tile;
#X obj 121 116 tile;
#X obj 121 136 tile;
#X obj 121 156 tile;
#X obj 121 176 tile;
#X obj 121 196 tile;
#X obj 121 216 tile;
#X obj 121 404 outlet;
#X obj 93 3 inlet;
#X obj 198 72 route 0 1 2 3 4 5 6 7;
#X obj 6 47 t b b b b b b b b;
#X obj 121 242 list prepend 7;
#X obj 132 262 list prepend 6;
#X obj 143 282 list prepend 5;
#X obj 153 302 list prepend 4;
#X obj 164 322 list prepend 3;
#X obj 175 342 list prepend 2;
#X obj 187 362 list prepend 1;
#X obj 199 382 list prepend 0;
#X obj 145 46 t b b b b b b b b;
#X obj 93 22 route bang reverse;
#X connect 0 0 19 0;
#X connect 1 0 18 0;
#X connect 2 0 17 0;
#X connect 3 0 16 0;
#X connect 4 0 15 0;
#X connect 5 0 14 0;
#X connect 6 0 13 0;
#X connect 7 0 12 0;
#X connect 9 0 21 0;
#X connect 10 0 0 0;
#X connect 10 1 1 0;
#X connect 10 2 2 0;
#X connect 10 3 3 0;
#X connect 10 4 4 0;
#X connect 10 5 5 0;
#X connect 10 6 6 0;
#X connect 10 7 7 0;
#X connect 11 0 7 0;
#X connect 11 1 6 0;
#X connect 11 2 5 0;
#X connect 11 3 4 0;
#X connect 11 4 3 0;
#X connect 11 5 2 0;
#X connect 11 6 1 0;
#X connect 11 7 0 0;
#X connect 12 0 8 0;
#X connect 13 0 8 0;
#X connect 14 0 8 0;
#X connect 15 0 8 0;
#X connect 16 0 8 0;
#X connect 17 0 8 0;
#X connect 18 0 8 0;
#X connect 19 0 8 0;
#X connect 20 0 0 0;
#X connect 20 1 1 0;
#X connect 20 2 2 0;
#X connect 20 3 3 0;
#X connect 20 4 4 0;
#X connect 20 5 5 0;
#X connect 20 6 6 0;
#X connect 20 7 7 0;
#X connect 21 0 11 0;
#X connect 21 1 20 0;
#X connect 21 2 10 0;
#X coords 0 -1 1 1 20 160 2 120 75;
#X restore 60 140 pd column;
#N canvas 375 154 348 432 column 0;
#X obj 121 76 tile;
#X obj 121 96 tile;
#X obj 121 116 tile;
#X obj 121 136 tile;
#X obj 121 156 tile;
#X obj 121 176 tile;
#X obj 121 196 tile;
#X obj 121 216 tile;
#X obj 121 404 outlet;
#X obj 93 3 inlet;
#X obj 198 72 route 0 1 2 3 4 5 6 7;
#X obj 6 47 t b b b b b b b b;
#X obj 121 242 list prepend 7;
#X obj 132 262 list prepend 6;
#X obj 143 282 list prepend 5;
#X obj 153 302 list prepend 4;
#X obj 164 322 list prepend 3;
#X obj 175 342 list prepend 2;
#X obj 187 362 list prepend 1;
#X obj 199 382 list prepend 0;
#X obj 145 46 t b b b b b b b b;
#X obj 93 22 route bang reverse;
#X connect 0 0 19 0;
#X connect 1 0 18 0;
#X connect 2 0 17 0;
#X connect 3 0 16 0;
#X connect 4 0 15 0;
#X connect 5 0 14 0;
#X connect 6 0 13 0;
#X connect 7 0 12 0;
#X connect 9 0 21 0;
#X connect 10 0 0 0;
#X connect 10 1 1 0;
#X connect 10 2 2 0;
#X connect 10 3 3 0;
#X connect 10 4 4 0;
#X connect 10 5 5 0;
#X connect 10 6 6 0;
#X connect 10 7 7 0;
#X connect 11 0 7 0;
#X connect 11 1 6 0;
#X connect 11 2 5 0;
#X connect 11 3 4 0;
#X connect 11 4 3 0;
#X connect 11 5 2 0;
#X connect 11 6 1 0;
#X connect 11 7 0 0;
#X connect 12 0 8 0;
#X connect 13 0 8 0;
#X connect 14 0 8 0;
#X connect 15 0 8 0;
#X connect 16 0 8 0;
#X connect 17 0 8 0;
#X connect 18 0 8 0;
#X connect 19 0 8 0;
#X connect 20 0 0 0;
#X connect 20 1 1 0;
#X connect 20 2 2 0;
#X connect 20 3 3 0;
#X connect 20 4 4 0;
#X connect 20 5 5 0;
#X connect 20 6 6 0;
#X connect 20 7 7 0;
#X connect 21 0 11 0;
#X connect 21 1 20 0;
#X connect 21 2 10 0;
#X coords 0 -1 1 1 20 160 2 120 75;
#X restore 82 140 pd column;
#N canvas 375 154 348 432 column 0;
#X obj 121 76 tile;
#X obj 121 96 tile;
#X obj 121 116 tile;
#X obj 121 136 tile;
#X obj 121 156 tile;
#X obj 121 176 tile;
#X obj 121 196 tile;
#X obj 121 216 tile;
#X obj 121 404 outlet;
#X obj 93 3 inlet;
#X obj 198 72 route 0 1 2 3 4 5 6 7;
#X obj 6 47 t b b b b b b b b;
#X obj 121 242 list prepend 7;
#X obj 132 262 list prepend 6;
#X obj 143 282 list prepend 5;
#X obj 153 302 list prepend 4;
#X obj 164 322 list prepend 3;
#X obj 175 342 list prepend 2;
#X obj 187 362 list prepend 1;
#X obj 199 382 list prepend 0;
#X obj 145 46 t b b b b b b b b;
#X obj 93 22 route bang reverse;
#X connect 0 0 19 0;
#X connect 1 0 18 0;
#X connect 2 0 17 0;
#X connect 3 0 16 0;
#X connect 4 0 15 0;
#X connect 5 0 14 0;
#X connect 6 0 13 0;
#X connect 7 0 12 0;
#X connect 9 0 21 0;
#X connect 10 0 0 0;
#X connect 10 1 1 0;
#X connect 10 2 2 0;
#X connect 10 3 3 0;
#X connect 10 4 4 0;
#X connect 10 5 5 0;
#X connect 10 6 6 0;
#X connect 10 7 7 0;
#X connect 11 0 7 0;
#X connect 11 1 6 0;
#X connect 11 2 5 0;
#X connect 11 3 4 0;
#X connect 11 4 3 0;
#X connect 11 5 2 0;
#X connect 11 6 1 0;
#X connect 11 7 0 0;
#X connect 12 0 8 0;
#X connect 13 0 8 0;
#X connect 14 0 8 0;
#X connect 15 0 8 0;
#X connect 16 0 8 0;
#X connect 17 0 8 0;
#X connect 18 0 8 0;
#X connect 19 0 8 0;
#X connect 20 0 0 0;
#X connect 20 1 1 0;
#X connect 20 2 2 0;
#X connect 20 3 3 0;
#X connect 20 4 4 0;
#X connect 20 5 5 0;
#X connect 20 6 6 0;
#X connect 20 7 7 0;
#X connect 21 0 11 0;
#X connect 21 1 20 0;
#X connect 21 2 10 0;
#X coords 0 -1 1 1 20 160 2 120 75;
#X restore 104 140 pd column;
#N canvas 375 154 348 432 column 0;
#X obj 121 76 tile;
#X obj 121 96 tile;
#X obj 121 116 tile;
#X obj 121 136 tile;
#X obj 121 156 tile;
#X obj 121 176 tile;
#X obj 121 196 tile;
#X obj 121 216 tile;
#X obj 121 404 outlet;
#X obj 93 3 inlet;
#X obj 198 72 route 0 1 2 3 4 5 6 7;
#X obj 6 47 t b b b b b b b b;
#X obj 121 242 list prepend 7;
#X obj 132 262 list prepend 6;
#X obj 143 282 list prepend 5;
#X obj 153 302 list prepend 4;
#X obj 164 322 list prepend 3;
#X obj 175 342 list prepend 2;
#X obj 187 362 list prepend 1;
#X obj 199 382 list prepend 0;
#X obj 145 46 t b b b b b b b b;
#X obj 93 22 route bang reverse;
#X connect 0 0 19 0;
#X connect 1 0 18 0;
#X connect 2 0 17 0;
#X connect 3 0 16 0;
#X connect 4 0 15 0;
#X connect 5 0 14 0;
#X connect 6 0 13 0;
#X connect 7 0 12 0;
#X connect 9 0 21 0;
#X connect 10 0 0 0;
#X connect 10 1 1 0;
#X connect 10 2 2 0;
#X connect 10 3 3 0;
#X connect 10 4 4 0;
#X connect 10 5 5 0;
#X connect 10 6 6 0;
#X connect 10 7 7 0;
#X connect 11 0 7 0;
#X connect 11 1 6 0;
#X connect 11 2 5 0;
#X connect 11 3 4 0;
#X connect 11 4 3 0;
#X connect 11 5 2 0;
#X connect 11 6 1 0;
#X connect 11 7 0 0;
#X connect 12 0 8 0;
#X connect 13 0 8 0;
#X connect 14 0 8 0;
#X connect 15 0 8 0;
#X connect 16 0 8 0;
#X connect 17 0 8 0;
#X connect 18 0 8 0;
#X connect 19 0 8 0;
#X connect 20 0 0 0;
#X connect 20 1 1 0;
#X connect 20 2 2 0;
#X connect 20 3 3 0;
#X connect 20 4 4 0;
#X connect 20 5 5 0;
#X connect 20 6 6 0;
#X connect 20 7 7 0;
#X connect 21 0 11 0;
#X connect 21 1 20 0;
#X connect 21 2 10 0;
#X coords 0 -1 1 1 20 160 2 120 75;
#X restore 126 140 pd column;
#N canvas 375 154 348 432 column 0;
#X obj 121 76 tile;
#X obj 121 96 tile;
#X obj 121 116 tile;
#X obj 121 136 tile;
#X obj 121 156 tile;
#X obj 121 176 tile;
#X obj 121 196 tile;
#X obj 121 216 tile;
#X obj 121 404 outlet;
#X obj 93 3 inlet;
#X obj 198 72 route 0 1 2 3 4 5 6 7;
#X obj 6 47 t b b b b b b b b;
#X obj 121 242 list prepend 7;
#X obj 132 262 list prepend 6;
#X obj 143 282 list prepend 5;
#X obj 153 302 list prepend 4;
#X obj 164 322 list prepend 3;
#X obj 175 342 list prepend 2;
#X obj 187 362 list prepend 1;
#X obj 199 382 list prepend 0;
#X obj 145 46 t b b b b b b b b;
#X obj 93 22 route bang reverse;
#X connect 0 0 19 0;
#X connect 1 0 18 0;
#X connect 2 0 17 0;
#X connect 3 0 16 0;
#X connect 4 0 15 0;
#X connect 5 0 14 0;
#X connect 6 0 13 0;
#X connect 7 0 12 0;
#X connect 9 0 21 0;
#X connect 10 0 0 0;
#X connect 10 1 1 0;
#X connect 10 2 2 0;
#X connect 10 3 3 0;
#X connect 10 4 4 0;
#X connect 10 5 5 0;
#X connect 10 6 6 0;
#X connect 10 7 7 0;
#X connect 11 0 7 0;
#X connect 11 1 6 0;
#X connect 11 2 5 0;
#X connect 11 3 4 0;
#X connect 11 4 3 0;
#X connect 11 5 2 0;
#X connect 11 6 1 0;
#X connect 11 7 0 0;
#X connect 12 0 8 0;
#X connect 13 0 8 0;
#X connect 14 0 8 0;
#X connect 15 0 8 0;
#X connect 16 0 8 0;
#X connect 17 0 8 0;
#X connect 18 0 8 0;
#X connect 19 0 8 0;
#X connect 20 0 0 0;
#X connect 20 1 1 0;
#X connect 20 2 2 0;
#X connect 20 3 3 0;
#X connect 20 4 4 0;
#X connect 20 5 5 0;
#X connect 20 6 6 0;
#X connect 20 7 7 0;
#X connect 21 0 11 0;
#X connect 21 1 20 0;
#X connect 21 2 10 0;
#X coords 0 -1 1 1 20 160 2 120 75;
#X restore 148 140 pd column;
#N canvas 375 154 348 432 column 0;
#X obj 121 76 tile;
#X obj 121 96 tile;
#X obj 121 116 tile;
#X obj 121 136 tile;
#X obj 121 156 tile;
#X obj 121 176 tile;
#X obj 121 196 tile;
#X obj 121 216 tile;
#X obj 121 404 outlet;
#X obj 93 3 inlet;
#X obj 198 72 route 0 1 2 3 4 5 6 7;
#X obj 6 47 t b b b b b b b b;
#X obj 121 242 list prepend 7;
#X obj 132 262 list prepend 6;
#X obj 143 282 list prepend 5;
#X obj 153 302 list prepend 4;
#X obj 164 322 list prepend 3;
#X obj 175 342 list prepend 2;
#X obj 187 362 list prepend 1;
#X obj 199 382 list prepend 0;
#X obj 145 46 t b b b b b b b b;
#X obj 93 22 route bang reverse;
#X connect 0 0 19 0;
#X connect 1 0 18 0;
#X connect 2 0 17 0;
#X connect 3 0 16 0;
#X connect 4 0 15 0;
#X connect 5 0 14 0;
#X connect 6 0 13 0;
#X connect 7 0 12 0;
#X connect 9 0 21 0;
#X connect 10 0 0 0;
#X connect 10 1 1 0;
#X connect 10 2 2 0;
#X connect 10 3 3 0;
#X connect 10 4 4 0;
#X connect 10 5 5 0;
#X connect 10 6 6 0;
#X connect 10 7 7 0;
#X connect 11 0 7 0;
#X connect 11 1 6 0;
#X connect 11 2 5 0;
#X connect 11 3 4 0;
#X connect 11 4 3 0;
#X connect 11 5 2 0;
#X connect 11 6 1 0;
#X connect 11 7 0 0;
#X connect 12 0 8 0;
#X connect 13 0 8 0;
#X connect 14 0 8 0;
#X connect 15 0 8 0;
#X connect 16 0 8 0;
#X connect 17 0 8 0;
#X connect 18 0 8 0;
#X connect 19 0 8 0;
#X connect 20 0 0 0;
#X connect 20 1 1 0;
#X connect 20 2 2 0;
#X connect 20 3 3 0;
#X connect 20 4 4 0;
#X connect 20 5 5 0;
#X connect 20 6 6 0;
#X connect 20 7 7 0;
#X connect 21 0 11 0;
#X connect 21 1 20 0;
#X connect 21 2 10 0;
#X coords 0 -1 1 1 20 160 2 120 75;
#X restore 170 140 pd column;
#N canvas 583 275 348 432 column 0;
#X obj 121 76 tile;
#X obj 121 96 tile;
#X obj 121 116 tile;
#X obj 121 136 tile;
#X obj 121 156 tile;
#X obj 121 176 tile;
#X obj 121 196 tile;
#X obj 121 216 tile;
#X obj 121 404 outlet;
#X obj 93 3 inlet;
#X obj 198 72 route 0 1 2 3 4 5 6 7;
#X obj 6 47 t b b b b b b b b;
#X obj 121 242 list prepend 7;
#X obj 132 262 list prepend 6;
#X obj 143 282 list prepend 5;
#X obj 153 302 list prepend 4;
#X obj 164 322 list prepend 3;
#X obj 175 342 list prepend 2;
#X obj 187 362 list prepend 1;
#X obj 199 382 list prepend 0;
#X obj 145 46 t b b b b b b b b;
#X obj 93 22 route bang reverse;
#X connect 0 0 19 0;
#X connect 1 0 18 0;
#X connect 2 0 17 0;
#X connect 3 0 16 0;
#X connect 4 0 15 0;
#X connect 5 0 14 0;
#X connect 6 0 13 0;
#X connect 7 0 12 0;
#X connect 9 0 21 0;
#X connect 10 0 0 0;
#X connect 10 1 1 0;
#X connect 10 2 2 0;
#X connect 10 3 3 0;
#X connect 10 4 4 0;
#X connect 10 5 5 0;
#X connect 10 6 6 0;
#X connect 10 7 7 0;
#X connect 11 0 7 0;
#X connect 11 1 6 0;
#X connect 11 2 5 0;
#X connect 11 3 4 0;
#X connect 11 4 3 0;
#X connect 11 5 2 0;
#X connect 11 6 1 0;
#X connect 11 7 0 0;
#X connect 12 0 8 0;
#X connect 13 0 8 0;
#X connect 14 0 8 0;
#X connect 15 0 8 0;
#X connect 16 0 8 0;
#X connect 17 0 8 0;
#X connect 18 0 8 0;
#X connect 19 0 8 0;
#X connect 20 0 0 0;
#X connect 20 1 1 0;
#X connect 20 2 2 0;
#X connect 20 3 3 0;
#X connect 20 4 4 0;
#X connect 20 5 5 0;
#X connect 20 6 6 0;
#X connect 20 7 7 0;
#X connect 21 0 11 0;
#X connect 21 1 20 0;
#X connect 21 2 10 0;
#X coords 0 -1 1 1 20 160 2 120 75;
#X restore 192 140 pd column;
#N canvas 583 284 348 432 column 0;
#X obj 121 76 tile;
#X obj 121 96 tile;
#X obj 121 116 tile;
#X obj 121 136 tile;
#X obj 121 156 tile;
#X obj 121 176 tile;
#X obj 121 196 tile;
#X obj 121 216 tile;
#X obj 121 404 outlet;
#X obj 93 3 inlet;
#X obj 198 72 route 0 1 2 3 4 5 6 7;
#X obj 6 47 t b b b b b b b b;
#X obj 121 242 list prepend 7;
#X obj 132 262 list prepend 6;
#X obj 143 282 list prepend 5;
#X obj 153 302 list prepend 4;
#X obj 164 322 list prepend 3;
#X obj 175 342 list prepend 2;
#X obj 187 362 list prepend 1;
#X obj 199 382 list prepend 0;
#X obj 145 46 t b b b b b b b b;
#X obj 93 22 route bang reverse;
#X connect 0 0 19 0;
#X connect 1 0 18 0;
#X connect 2 0 17 0;
#X connect 3 0 16 0;
#X connect 4 0 15 0;
#X connect 5 0 14 0;
#X connect 6 0 13 0;
#X connect 7 0 12 0;
#X connect 9 0 21 0;
#X connect 10 0 0 0;
#X connect 10 1 1 0;
#X connect 10 2 2 0;
#X connect 10 3 3 0;
#X connect 10 4 4 0;
#X connect 10 5 5 0;
#X connect 10 6 6 0;
#X connect 10 7 7 0;
#X connect 11 0 7 0;
#X connect 11 1 6 0;
#X connect 11 2 5 0;
#X connect 11 3 4 0;
#X connect 11 4 3 0;
#X connect 11 5 2 0;
#X connect 11 6 1 0;
#X connect 11 7 0 0;
#X connect 12 0 8 0;
#X connect 13 0 8 0;
#X connect 14 0 8 0;
#X connect 15 0 8 0;
#X connect 16 0 8 0;
#X connect 17 0 8 0;
#X connect 18 0 8 0;
#X connect 19 0 8 0;
#X connect 20 0 0 0;
#X connect 20 1 1 0;
#X connect 20 2 2 0;
#X connect 20 3 3 0;
#X connect 20 4 4 0;
#X connect 20 5 5 0;
#X connect 20 6 6 0;
#X connect 20 7 7 0;
#X connect 21 0 11 0;
#X connect 21 1 20 0;
#X connect 21 2 10 0;
#X coords 0 -1 1 1 20 160 2 120 75;
#X restore 214 140 pd column;
#X msg 11 49 0 set 0 \, 1 set 0 \, 2 set 0 \, 3 set 0 \, 4 set 0 \,
5 set 0 \, 6 set 0 \, 7 set 0, f 19;
#X obj 42 27 route getrow clear bang getcolumn list;
#X msg 132 49 0 \, 1 \, 2 \, 3 \, 4 \, 5 \, 6 \, 7, f 5;
#X obj 42 7 \$1 \$2;
#X obj 60 490 \$3 \$4;
#X connect 0 0 11 0;
#X connect 0 1 12 0;
#X connect 0 2 13 0;
#X connect 0 3 14 0;
#X connect 0 4 15 0;
#X connect 0 5 16 0;
#X connect 0 6 17 0;
#X connect 0 7 18 0;
#X connect 1 0 18 0;
#X connect 1 1 17 0;
#X connect 1 2 16 0;
#X connect 1 3 15 0;
#X connect 1 4 14 0;
#X connect 1 5 13 0;
#X connect 1 6 12 0;
#X connect 1 7 11 0;
#X connect 2 0 10 0;
#X connect 3 0 10 0;
#X connect 4 0 10 0;
#X connect 5 0 10 0;
#X connect 6 0 10 0;
#X connect 7 0 10 0;
#X connect 8 0 10 0;
#X connect 9 0 10 0;
#X connect 10 0 23 0;
#X connect 11 0 2 0;
#X connect 12 0 3 0;
#X connect 13 0 4 0;
#X connect 14 0 5 0;
#X connect 15 0 6 0;
#X connect 16 0 7 0;
#X connect 17 0 8 0;
#X connect 18 0 9 0;
#X connect 19 0 1 0;
#X connect 20 0 1 0;
#X connect 20 1 19 0;
#X connect 20 2 21 0;
#X connect 20 3 0 0;
#X connect 20 4 0 0;
#X connect 21 0 1 0;
#X connect 22 0 20 0;
#X coords 0 -1 1 1 174 160 2 60 140;
