#N canvas 221 142 1373 631 12;
#X obj 272 473 *~ 0.1;
#X obj 354 491 *~ 0.1;
#X obj 129 311 *~;
#X obj 93 234 osc~;
#X obj 74 155 mtof;
#X msg 54 59 48;
#X msg 152 59 57;
#X obj 228 24 phasor~ 0.3;
#X obj 222 137 min~;
#X obj 212 196 loop~ 40;
#X obj 341 311 min~;
#X obj 289 386 delwrite~ tbt 200;
#X obj 346 234 osc~;
#X obj 346 155 mtof;
#X msg 412 59 57;
#X msg 373 59 52;
#X obj 460 59 phasor~ 0.3;
#X obj 482 155 min~;
#X obj 455 386 delread~ tbt 120;
#X obj 455 424 delread~ tbt 200;
#X obj 472 234 loop~ 40;
#X obj 520 259 loop~ 40;
#X obj 430 288 *~;
#X obj 507 473 *~;
#X obj 469 314 *~ 0.8;
#X msg 105 59 69;
#X obj 619 117 random 80;
#X msg 616 196 /100;
#X obj 716 59 tgl 15 0 empty empty empty 17 7 0 10 -262144 -1 -1 1
1;
#X obj 716 117 metro 100;
#X obj 716 155 random 80;
#X obj 716 193 / 100;
#X obj 791 59 tgl 15 0 empty empty empty 17 7 0 10 -262144 -1 -1 1
1;
#X obj 791 117 metro 100;
#X obj 791 155 random 80;
#X obj 791 193 / 300;
#X obj 869 59 tgl 15 0 empty empty empty 17 7 0 10 -262144 -1 -1 1
1;
#X obj 341 349 vcf~ 2;
#X obj 596 349 vline~;
#X obj 596 311 \$1 300;
#X obj 25 234 phasor~;
#X obj 235 311 phasor~;
#X obj 235 349 *~;
#X obj 66 425 delwrite~ ddd 600;
#X floatatom 759 288 5 0 0 0 - - -;
#X obj 869 117 metro 100;
#X obj 869 155 random 90;
#X obj 272 573 dac~;
#X floatatom 6 59 5 0 0 0 - - -;
#X floatatom 315 96 5 0 0 0 - - -;
#X obj 699 473 decimate~;
#X floatatom 731 404 5 0 1 2 On/Off - -;
#X floatatom 816 386 5 1 32 2 Depth - -;
#X connect 0 0 47 0;
#X connect 0 0 50 0;
#X connect 1 0 47 1;
#X connect 1 0 50 0;
#X connect 2 0 0 0;
#X connect 3 0 2 0;
#X connect 3 0 10 0;
#X connect 4 0 3 0;
#X connect 4 0 40 0;
#X connect 5 0 4 0;
#X connect 6 0 4 0;
#X connect 7 0 8 0;
#X connect 7 0 10 0;
#X connect 8 0 9 0;
#X connect 9 0 2 1;
#X connect 10 0 11 0;
#X connect 10 0 37 0;
#X connect 12 0 10 1;
#X connect 12 0 22 0;
#X connect 13 0 12 0;
#X connect 13 0 41 0;
#X connect 14 0 13 0;
#X connect 15 0 13 0;
#X connect 16 0 17 0;
#X connect 16 0 10 1;
#X connect 16 0 21 0;
#X connect 17 0 20 0;
#X connect 18 0 0 0;
#X connect 19 0 1 0;
#X connect 19 0 23 0;
#X connect 20 0 22 1;
#X connect 21 0 23 1;
#X connect 22 0 1 0;
#X connect 23 0 24 0;
#X connect 24 0 11 0;
#X connect 25 0 4 0;
#X connect 26 0 27 0;
#X connect 27 0 16 0;
#X connect 28 0 29 0;
#X connect 29 0 30 0;
#X connect 30 0 31 0;
#X connect 31 0 16 0;
#X connect 32 0 33 0;
#X connect 33 0 34 0;
#X connect 34 0 35 0;
#X connect 35 0 7 0;
#X connect 36 0 45 0;
#X connect 37 0 11 0;
#X connect 38 0 37 1;
#X connect 39 0 38 0;
#X connect 40 0 42 0;
#X connect 41 0 42 1;
#X connect 42 0 43 0;
#X connect 44 0 39 0;
#X connect 45 0 46 0;
#X connect 46 0 44 0;
#X connect 48 0 4 0;
#X connect 49 0 13 0;
#X connect 50 0 47 0;
#X connect 50 0 47 1;
#X connect 51 0 50 1;
#X connect 52 0 50 2;
