#N canvas 51 259 1030 570 10;
#X obj -87 126 *~;
#X msg -87 88 bang;
#N canvas 0 22 450 300 (subpatch) 0;
#X array sample1 22050 float 2;
#X coords 0 1 22050 -1 80 50 1;
#X restore -169 118 graph;
#X obj -235 96 soundfiler;
#X obj -235 58 openpanel;
#X floatatom -235 115 8 0 0 0 - - -;
#X obj -235 133 / 44.1;
#X floatatom -235 152 8 0 0 0 - - -;
#X msg -235 -152 \; pd dsp \$1;
#X obj -235 -184 tgl 30 0 empty empty Audio:On/Off 33 26 0 10 -259648
-1 -1 0 1;
#X obj -32 -79 metro;
#X msg -5 -117 60000;
#X floatatom 34 -117 5 0 0 0 - - -;
#X obj -5 -98 /;
#X obj -32 -96 tgl 15 0 empty empty empty 17 7 0 10 -262144 -1 -1 0
1;
#X obj -32 -24 select 0 1 2 3;
#X msg -235 77 read -resize \$1 sample1;
#X obj -87 107 tabplay~ sample1;
#X obj 173 126 *~;
#X msg 173 88 bang;
#N canvas 0 22 450 300 (subpatch) 0;
#X array sample2 22050 float 2;
#X coords 0 1 22050 -1 80 50 1;
#X restore 91 118 graph;
#X obj 25 96 soundfiler;
#X obj 25 58 openpanel;
#X floatatom 25 115 8 0 0 0 - - -;
#X obj 25 133 / 44.1;
#X floatatom 25 152 8 0 0 0 - - -;
#X msg 25 77 read -resize \$1 sample2;
#X obj 173 107 tabplay~ sample2;
#X obj 431 126 *~;
#X msg 431 88 bang;
#N canvas 0 22 450 300 (subpatch) 0;
#X array sample3 22050 float 2;
#X coords 0 1 22050 -1 80 50 1;
#X restore 349 118 graph;
#X obj 283 96 soundfiler;
#X obj 283 58 openpanel;
#X floatatom 283 115 8 0 0 0 - - -;
#X obj 283 133 / 44.1;
#X floatatom 283 152 8 0 0 0 - - -;
#X msg 283 77 read -resize \$1 sample3;
#X obj 431 107 tabplay~ sample3;
#X obj 689 127 *~;
#X msg 689 89 bang;
#N canvas 0 22 450 300 (subpatch) 0;
#X array sample4 26460 float 2;
#X coords 0 1 26460 -1 80 50 1;
#X restore 607 119 graph;
#X obj 541 97 soundfiler;
#X obj 541 59 openpanel;
#X floatatom 541 116 8 0 0 0 - - -;
#X obj 541 134 / 44.1;
#X floatatom 541 153 8 0 0 0 - - -;
#X msg 541 78 read -resize \$1 sample4;
#X obj 689 108 tabplay~ sample4;
#X floatatom 215 -78 6 0 0 0 - - -;
#X msg 215 -60 \$1 50;
#X obj 215 -41 line~;
#X obj 215 -22 s~ VOL;
#X obj -63 126 r~ VOL;
#X obj 197 126 r~ VOL;
#X obj 455 126 r~ VOL;
#X obj 713 127 r~ VOL;
#X obj -59 -5 s SB1;
#X obj -87 69 r SB1;
#X obj 173 69 r SB2;
#X obj 431 69 r SB3;
#X obj -23 -5 s SB2;
#X obj 689 70 r SB4;
#X obj 49 -5 s SB4;
#X obj 13 -5 s SB3;
#X obj -235 41 bng 15 250 50 0 empty empty empty 17 7 0 10 -262144
-1 -1;
#X text -237 24 Load Sample;
#X msg -216 39 symbol /samples;
#X obj 25 41 bng 15 250 50 0 empty empty empty 17 7 0 10 -262144 -1
-1;
#X text 23 24 Load Sample;
#X msg 44 39 symbol /samples;
#X obj 283 41 bng 15 250 50 0 empty empty empty 17 7 0 10 -262144 -1
-1;
#X text 281 24 Load Sample;
#X msg 302 39 symbol /samples;
#X obj 541 42 bng 15 250 50 0 empty empty empty 17 7 0 10 -262144 -1
-1;
#X text 539 25 Load Sample;
#X msg 560 40 symbol /samples;
#X obj -32 -41 hradio 15 1 0 4 empty empty empty 0 -8 0 10 -262144
-1 -1 0;
#X obj 519 -183 cnv 15 265 20 empty empty SampleShufflerSS4:DimitriPaile2011
15 10 0 12 -259648 -66577 0;
#X obj 215 -115 knob 32 32 0 1 0 0 empty empty MASTERvol -67 30 0 12
-258113 -1 -1 0 1;
#X obj -32 -165 bng 25 250 50 0 empty empty Start/Stop 0 -5 0 10 -162280
-1 -1;
#X text 348 -132 1 Load 4 audio samples by clicking the bang below
"Load Sample";
#X text 348 -142 INSTRUCTIONS:;
#X text 348 -77 5 Turn up MASTERvol knob;
#X text 518 -163 Version 1;
#X obj 37 -155 hsl 234 15 6 240 0 0 empty empty BPM:6-240 90 -10 0
10 -262144 -1 -1 0 1;
#X obj 34 -137 i;
#X obj -32 -60 shuffle 4;
#X obj -5 -137 t b b;
#X obj 158 303 writesf~ 2;
#X msg 229 341 start;
#X msg 229 361 stop;
#X text 227 302 Record outupt;
#X msg 229 321 open SS4Recording2;
#X obj -235 360 dac~;
#X obj -235 231 r~ S1out;
#X obj -87 151 s~ S1out;
#X obj 173 151 s~ S2out;
#X obj -200 251 r~ S2out;
#X obj -171 271 r~ S3out;
#X obj -151 291 r~ S4out;
#X obj 689 152 s~ S4out;
#X obj 431 151 s~ S3out;
#X obj 158 184 r~ S1out;
#X obj 193 204 r~ S2out;
#X obj 222 224 r~ S3out;
#X obj 242 244 r~ S4out;
#X text 348 -107 2 Adjust desired BPM with the slider;
#X text 348 -97 3 Click Audio:On;
#X text 348 -87 4 Click Start;
#X text 348 -66 6 To record \, click the three message boxes below
'Record output'. Rename file in the "open SS4..." message box if you
want.;
#X connect 0 0 95 0;
#X connect 1 0 17 0;
#X connect 3 0 5 0;
#X connect 4 0 16 0;
#X connect 5 0 6 0;
#X connect 6 0 7 0;
#X connect 9 0 8 0;
#X connect 10 0 86 0;
#X connect 11 0 13 0;
#X connect 12 0 13 1;
#X connect 13 0 10 1;
#X connect 14 0 10 0;
#X connect 15 0 56 0;
#X connect 15 1 60 0;
#X connect 15 2 63 0;
#X connect 15 3 62 0;
#X connect 16 0 3 0;
#X connect 17 0 0 0;
#X connect 18 0 96 0;
#X connect 19 0 27 0;
#X connect 21 0 23 0;
#X connect 22 0 26 0;
#X connect 23 0 24 0;
#X connect 24 0 25 0;
#X connect 26 0 21 0;
#X connect 27 0 18 0;
#X connect 28 0 101 0;
#X connect 29 0 37 0;
#X connect 31 0 33 0;
#X connect 32 0 36 0;
#X connect 33 0 34 0;
#X connect 34 0 35 0;
#X connect 36 0 31 0;
#X connect 37 0 28 0;
#X connect 38 0 100 0;
#X connect 39 0 47 0;
#X connect 41 0 43 0;
#X connect 42 0 46 0;
#X connect 43 0 44 0;
#X connect 44 0 45 0;
#X connect 46 0 41 0;
#X connect 47 0 38 0;
#X connect 48 0 49 0;
#X connect 49 0 50 0;
#X connect 50 0 51 0;
#X connect 52 0 0 1;
#X connect 53 0 18 1;
#X connect 54 0 28 1;
#X connect 55 0 38 1;
#X connect 57 0 1 0;
#X connect 58 0 19 0;
#X connect 59 0 29 0;
#X connect 61 0 39 0;
#X connect 64 0 4 0;
#X connect 66 0 4 0;
#X connect 67 0 22 0;
#X connect 69 0 22 0;
#X connect 70 0 32 0;
#X connect 72 0 32 0;
#X connect 73 0 42 0;
#X connect 75 0 42 0;
#X connect 76 0 15 0;
#X connect 76 0 87 0;
#X connect 78 0 48 0;
#X connect 79 0 14 0;
#X connect 84 0 85 0;
#X connect 85 0 12 0;
#X connect 86 0 76 0;
#X connect 87 0 11 0;
#X connect 87 1 12 0;
#X connect 89 0 88 0;
#X connect 90 0 88 0;
#X connect 92 0 88 0;
#X connect 94 0 93 1;
#X connect 94 0 93 0;
#X connect 97 0 93 0;
#X connect 97 0 93 1;
#X connect 98 0 93 0;
#X connect 98 0 93 1;
#X connect 99 0 93 0;
#X connect 99 0 93 1;
#X connect 102 0 88 0;
#X connect 102 0 88 1;
#X connect 103 0 88 0;
#X connect 103 0 88 1;
#X connect 104 0 88 0;
#X connect 104 0 88 1;
#X connect 105 0 88 0;
#X connect 105 0 88 1;
