#N canvas 140 22 487 316 8;
#X floatatom 275 154 5 0 0 0 - - -;
#X obj 275 134 line;
#X obj 276 193 gate 1;
#X obj 193 152 == 0;
#X obj 192 170 gate 1;
#X obj 192 191 del 50;
#X obj 73 149 spigot;
#X obj 100 109 tgl 10 0 empty empty empty 17 7 0 10 -262144 -1 -1 0
1;
#X obj 344 208 del 50;
#X msg 192 119 360;
#X msg 344 119 0;
#X floatatom 113 236 5 0 0 0 - - -;
#X obj 113 256 outlet;
#X obj 73 188 outlet;
#X obj 116 109 hsl 70 10 50 1000 0 0 empty empty empty -2 -8 0 10 -262144
-1 -1 0 1;
#X text 127 107 speed (ms);
#X obj 116 125 hsl 70 10 0 10 0 0 empty empty empty -2 -8 0 10 -262144
-1 -1 0 1;
#X text 125 122 distance;
#X obj 113 30 inlet;
#X obj 188 30 inlet;
#X obj 275 172 == 360;
#X obj 73 169 i;
#X obj 47 119 i;
#X connect 0 0 20 0;
#X connect 1 0 0 0;
#X connect 1 0 3 0;
#X connect 1 0 6 0;
#X connect 2 0 8 0;
#X connect 3 0 4 0;
#X connect 3 0 4 1;
#X connect 4 0 5 0;
#X connect 5 0 9 0;
#X connect 5 0 22 0;
#X connect 6 0 21 0;
#X connect 7 0 6 1;
#X connect 7 0 9 0;
#X connect 8 0 10 0;
#X connect 8 0 22 0;
#X connect 9 0 1 0;
#X connect 10 0 1 0;
#X connect 11 0 12 0;
#X connect 14 0 22 1;
#X connect 16 0 11 0;
#X connect 18 0 14 0;
#X connect 19 0 16 0;
#X connect 20 0 2 0;
#X connect 20 0 2 1;
#X connect 21 0 13 0;
#X connect 22 0 1 1;
#X coords 0 -1 1 1 90 40 2 100 100;
