#N canvas 349 110 702 494 10;
#X obj 19 51 vsl 15 128 0 360 0 0 empty \$0-setaz empty 20 8 576 8
-262144 -1 -1 0 1;
#X obj 83 51 vsl 15 128 -90 90 0 0 empty \$0-setel empty 20 8 576 8
-262144 -1 -1 6368 1;
#X obj 147 51 vsl 15 128 0 360 0 0 empty \$0-setang empty 20 8 576
8 -262144 -1 -1 2117 1;
#X obj 212 51 vsl 15 128 0 1 0 0 empty \$0-setpat empty 20 8 576 8
-262144 -1 -1 6350 1;
#X floatatom 19 190 5 0 0 0 - - -;
#X floatatom 83 190 5 0 0 0 - - -;
#X floatatom 147 190 5 0 0 0 - - -;
#X floatatom 212 190 5 0 0 0 - - -;
#X text 5 30 Azimuth;
#X text 60 30 Elevation;
#X text 36 168 0;
#X text 37 46 360;
#X text 100 168 -90;
#X text 100 45 90;
#N canvas 268 65 488 138 controlOut 0;
#X obj 31 53 outlet;
#X obj 31 19 receive \$0-params;
#X connect 1 0 0 0;
#X restore 282 181 pd controlOut;
#X obj 282 201 outlet;
#X msg 282 159 verbose \$1;
#X obj 282 137 tgl 15 0 empty empty empty 20 8 0 8 -262144 -1 -1 0
1;
#N canvas 365 395 832 204 defaults 0;
#X obj 22 137 send \$0-setaz;
#X obj 110 137 send \$0-setel;
#X obj 110 71 loadbang;
#X obj 109 37 inlet;
#X obj 197 137 send \$0-setang;
#X obj 286 138 send \$0-setpat;
#X msg 286 116 0.5;
#X msg 197 114 0.166667;
#X msg 110 115 0.25;
#X msg 22 114 0;
#X connect 2 0 9 0;
#X connect 2 0 8 0;
#X connect 2 0 7 0;
#X connect 2 0 6 0;
#X connect 3 0 9 0;
#X connect 3 0 8 0;
#X connect 3 0 7 0;
#X connect 3 0 6 0;
#X connect 6 0 5 0;
#X connect 7 0 4 0;
#X connect 8 0 1 0;
#X connect 9 0 0 0;
#X restore 280 113 pd defaults;
#X obj 280 91 bng 15 250 50 0 empty empty empty 0 -6 0 8 -262144 -1
-1;
#X text 302 136 Verbose on/off;
#X text 303 91 Reset parameters;
#N canvas 194 203 624 182 sendToMic----------------- 1;
#X obj 61 21 inlet;
#X obj 133 20 inlet;
#X obj 219 20 inlet;
#X obj 288 20 inlet;
#X obj 61 40 / 360;
#X obj 133 62 / 180;
#X obj 133 40 + 90;
#X obj 247 139 send \$0-params;
#X msg 61 83 azimuth \$1;
#X msg 133 82 elevation \$1;
#X msg 219 82 angle \$1;
#X msg 288 82 pattern \$1;
#X obj 219 46 / 360;
#X connect 0 0 4 0;
#X connect 1 0 6 0;
#X connect 2 0 12 0;
#X connect 3 0 11 0;
#X connect 4 0 8 0;
#X connect 5 0 9 0;
#X connect 6 0 5 0;
#X connect 8 0 7 0;
#X connect 9 0 7 0;
#X connect 10 0 7 0;
#X connect 11 0 7 0;
#X connect 12 0 10 0;
#X restore 19 222 pd sendToMic-----------------;
#X text 164 167 0;
#X text 135 30 Angle;
#X text 203 30 Pattern;
#X text 230 46 Figure of 8;
#X text 231 169 Omni;
#X text 229 105 Cardioid;
#X text 164 46 360;
#X connect 0 0 4 0;
#X connect 1 0 5 0;
#X connect 2 0 6 0;
#X connect 3 0 7 0;
#X connect 4 0 22 0;
#X connect 5 0 22 1;
#X connect 6 0 22 2;
#X connect 7 0 22 3;
#X connect 14 0 15 0;
#X connect 16 0 15 0;
#X connect 17 0 16 0;
#X connect 19 0 18 0;
