#N canvas 177 108 617 283 10;
#X declare -path ../patches;
#N canvas -1220 213 521 198 I/O 0;
#X obj 7 12 loadbang;
#X msg 7 80 \; pd dsp 1;
#X text 87 11 this is required to turn on dsp when running pd with
no gui on a RPI;
#X obj 145 84 s initbang;
#X obj 7 44 delay 300;
#X connect 0 0 4 0;
#X connect 4 0 1 0;
#X connect 4 0 3 0;
#X restore 35 47 pd I/O;
#N canvas -1117 75 1067 786 TT_I/O 0;
#X obj 623 175 terminal_tedium_adc;
#X msg 684 136 open;
#X obj 661 100 r initbang;
#X obj 154 111 tedium_input 14;
#X obj 269 110 tedium_input 27;
#X obj 213 319 tedium_output 16;
#X obj 234 348 tedium_output 12;
#X obj 255 385 tedium_output 26;
#X obj 664 365 s TTi;
#X obj 213 226 r TTo;
#X obj 213 268 route 1 2 3;
#X obj 623 134 metro 5;
#X msg 401 283 adc 1 \$1;
#X msg 496 283 adc 2 \$1;
#X msg 594 283 adc 3 \$1;
#X msg 689 283 adc 4 \$1;
#X msg 791 283 adc 5 \$1;
#X msg 896 283 adc 6 \$1;
#X obj 269 163 s TTi;
#X obj 154 159 s TTi;
#X obj 272 79 s TTi;
#X obj 272 31 tedium_input 17;
#X obj 155 76 s TTi;
#X obj 155 28 tedium_input 4;
#X obj 25 232 s TTi;
#X obj 25 184 tedium_input 24;
#X obj 28 153 s TTi;
#X obj 28 105 tedium_input 25;
#X obj 27 79 s TTi;
#X obj 27 31 tedium_input 23;
#N canvas 0 50 450 300 removenoise 0;
#X obj 99 26 inlet;
#X obj 288 94 f;
#X obj 99 173 i;
#X obj 99 199 change;
#X text 315 125 smooth and remove noise;
#X obj 99 228 outlet;
#X obj 99 53 t f b;
#X obj 99 123 expr ($f1*(($f2*-1)+1))+($f3*$f2);
#X obj 60 96 sel 0;
#X obj 62 140 0;
#X msg 203 88 0.3;
#X connect 0 0 6 0;
#X connect 1 0 7 2;
#X connect 2 0 3 0;
#X connect 3 0 5 0;
#X connect 6 0 8 0;
#X connect 6 1 10 0;
#X connect 7 0 1 0;
#X connect 7 0 2 0;
#X connect 8 0 9 0;
#X connect 8 1 7 0;
#X connect 9 0 1 0;
#X connect 9 0 10 0;
#X connect 9 0 7 0;
#X connect 10 0 7 1;
#X restore 401 236 pd removenoise;
#X obj 623 73 inlet;
#X obj 401 258 / 4010;
#N canvas 0 50 450 300 removenoise 0;
#X obj 99 26 inlet;
#X obj 288 94 f;
#X obj 99 173 i;
#X obj 99 199 change;
#X text 315 125 smooth and remove noise;
#X obj 99 228 outlet;
#X obj 99 53 t f b;
#X obj 99 123 expr ($f1*(($f2*-1)+1))+($f3*$f2);
#X obj 60 96 sel 0;
#X obj 60 144 0;
#X msg 202 88 0.3;
#X connect 0 0 6 0;
#X connect 1 0 7 2;
#X connect 2 0 3 0;
#X connect 3 0 5 0;
#X connect 6 0 8 0;
#X connect 6 1 10 0;
#X connect 7 0 1 0;
#X connect 7 0 2 0;
#X connect 8 0 9 0;
#X connect 8 1 7 0;
#X connect 9 0 1 0;
#X connect 9 0 10 0;
#X connect 9 0 7 0;
#X connect 10 0 7 1;
#X restore 496 236 pd removenoise;
#X obj 496 258 / 4010;
#N canvas 0 50 450 300 removenoise 0;
#X obj 99 26 inlet;
#X obj 288 94 f;
#X obj 99 173 i;
#X obj 99 199 change;
#X text 315 125 smooth and remove noise;
#X obj 99 228 outlet;
#X obj 99 53 t f b;
#X obj 99 123 expr ($f1*(($f2*-1)+1))+($f3*$f2);
#X obj 60 96 sel 0;
#X obj 60 144 0;
#X msg 202 88 0.3;
#X connect 0 0 6 0;
#X connect 1 0 7 2;
#X connect 2 0 3 0;
#X connect 3 0 5 0;
#X connect 6 0 8 0;
#X connect 6 1 10 0;
#X connect 7 0 1 0;
#X connect 7 0 2 0;
#X connect 8 0 9 0;
#X connect 8 1 7 0;
#X connect 9 0 1 0;
#X connect 9 0 10 0;
#X connect 9 0 7 0;
#X connect 10 0 7 1;
#X restore 594 236 pd removenoise;
#X obj 594 258 / 4010;
#N canvas 0 50 450 300 removenoise 0;
#X obj 99 26 inlet;
#X obj 288 94 f;
#X obj 99 173 i;
#X obj 99 199 change;
#X text 315 125 smooth and remove noise;
#X obj 99 228 outlet;
#X obj 99 53 t f b;
#X obj 99 123 expr ($f1*(($f2*-1)+1))+($f3*$f2);
#X obj 60 96 sel 0;
#X obj 60 144 0;
#X msg 202 88 0.3;
#X connect 0 0 6 0;
#X connect 1 0 7 2;
#X connect 2 0 3 0;
#X connect 3 0 5 0;
#X connect 6 0 8 0;
#X connect 6 1 10 0;
#X connect 7 0 1 0;
#X connect 7 0 2 0;
#X connect 8 0 9 0;
#X connect 8 1 7 0;
#X connect 9 0 1 0;
#X connect 9 0 10 0;
#X connect 9 0 7 0;
#X connect 10 0 7 1;
#X restore 689 236 pd removenoise;
#X obj 689 258 / 4010;
#N canvas 0 50 450 300 removenoise 0;
#X obj 99 26 inlet;
#X obj 288 94 f;
#X obj 99 173 i;
#X obj 99 199 change;
#X text 315 125 smooth and remove noise;
#X obj 99 228 outlet;
#X obj 99 53 t f b;
#X obj 99 123 expr ($f1*(($f2*-1)+1))+($f3*$f2);
#X obj 60 96 sel 0;
#X obj 60 144 0;
#X msg 202 88 0.3;
#X connect 0 0 6 0;
#X connect 1 0 7 2;
#X connect 2 0 3 0;
#X connect 3 0 5 0;
#X connect 6 0 8 0;
#X connect 6 1 10 0;
#X connect 7 0 1 0;
#X connect 7 0 2 0;
#X connect 8 0 9 0;
#X connect 8 1 7 0;
#X connect 9 0 1 0;
#X connect 9 0 10 0;
#X connect 9 0 7 0;
#X connect 10 0 7 1;
#X restore 791 236 pd removenoise;
#X obj 791 258 / 4010;
#N canvas 0 50 450 300 removenoise 0;
#X obj 99 26 inlet;
#X obj 288 94 f;
#X obj 99 173 i;
#X obj 99 199 change;
#X text 315 125 smooth and remove noise;
#X obj 99 228 outlet;
#X obj 99 53 t f b;
#X obj 99 123 expr ($f1*(($f2*-1)+1))+($f3*$f2);
#X obj 60 96 sel 0;
#X obj 60 144 0;
#X msg 202 88 0.3;
#X connect 0 0 6 0;
#X connect 1 0 7 2;
#X connect 2 0 3 0;
#X connect 3 0 5 0;
#X connect 6 0 8 0;
#X connect 6 1 10 0;
#X connect 7 0 1 0;
#X connect 7 0 2 0;
#X connect 8 0 9 0;
#X connect 8 1 7 0;
#X connect 9 0 1 0;
#X connect 9 0 10 0;
#X connect 9 0 7 0;
#X connect 10 0 7 1;
#X restore 896 236 pd removenoise;
#X obj 896 258 / 4010;
#X msg 27 54 tact 1;
#X msg 28 128 tact 2;
#X msg 25 207 tact 3;
#X msg 154 51 digital 1;
#X msg 154 134 digital 3;
#X msg 272 54 digital 2;
#X msg 269 137 digital 4;
#X connect 0 0 30 0;
#X connect 0 1 33 0;
#X connect 0 2 35 0;
#X connect 0 3 37 0;
#X connect 0 4 39 0;
#X connect 0 5 41 0;
#X connect 1 0 0 0;
#X connect 2 0 1 0;
#X connect 2 0 11 0;
#X connect 3 0 47 0;
#X connect 4 0 49 0;
#X connect 9 0 10 0;
#X connect 10 0 5 0;
#X connect 10 1 6 0;
#X connect 10 2 7 0;
#X connect 11 0 0 0;
#X connect 12 0 8 0;
#X connect 13 0 8 0;
#X connect 14 0 8 0;
#X connect 15 0 8 0;
#X connect 16 0 8 0;
#X connect 17 0 8 0;
#X connect 21 0 48 0;
#X connect 23 0 46 0;
#X connect 25 0 45 0;
#X connect 27 0 44 0;
#X connect 29 0 43 0;
#X connect 30 0 32 0;
#X connect 31 0 11 0;
#X connect 32 0 12 0;
#X connect 33 0 34 0;
#X connect 34 0 13 0;
#X connect 35 0 36 0;
#X connect 36 0 14 0;
#X connect 37 0 38 0;
#X connect 38 0 15 0;
#X connect 39 0 40 0;
#X connect 40 0 16 0;
#X connect 41 0 42 0;
#X connect 42 0 17 0;
#X connect 43 0 28 0;
#X connect 44 0 26 0;
#X connect 45 0 24 0;
#X connect 46 0 22 0;
#X connect 47 0 19 0;
#X connect 48 0 20 0;
#X connect 49 0 18 0;
#X restore 80 136 pd TT_I/O;
#N canvas -908 249 605 609 CPU_TEST? 0;
#X obj 11 220 list append;
#X obj 94 199 list;
#X obj 11 125 cputime;
#X obj 11 97 t b b;
#X obj 11 185 * 0.1;
#X obj 11 154 int;
#X obj 38 326 text set CPU;
#X obj 11 371 text define CPU;
#X msg 11 350 write ./CPU.txt;
#X obj 11 69 metro 10000;
#X obj 11 269 t b a;
#X obj 11 7 r initbang;
#X obj 111 144 r initbang;
#X msg 11 41 0;
#X text 48 40 change this to 1 to print out a CPU test to text file
un usb every 10 seconds;
#X connect 0 0 1 0;
#X connect 0 0 10 0;
#X connect 1 0 0 1;
#X connect 2 0 5 0;
#X connect 3 0 2 0;
#X connect 3 1 2 1;
#X connect 4 0 0 0;
#X connect 5 0 4 0;
#X connect 8 0 7 0;
#X connect 9 0 3 0;
#X connect 10 0 8 0;
#X connect 10 1 6 0;
#X connect 11 0 13 0;
#X connect 12 0 1 1;
#X connect 12 0 0 1;
#X connect 13 0 9 0;
#X restore 35 74 pd CPU_TEST?;
#N canvas 66 50 849 1005 2_Black_button_select 0;
#X obj 212 12 r TTi;
#X obj 212 39 route tact;
#X obj 213 129 timer;
#X obj 212 189 sel 0 1;
#X obj 231 247 i;
#X obj 267 248 + 1;
#X msg 211 215 1;
#X obj 212 163 < 500;
#X obj 213 97 t b b;
#X obj 231 467 i;
#X obj 231 435 t b b;
#X msg 282 291 0;
#X msg 265 313 1;
#X msg 298 312 0;
#X obj 231 769 i;
#X obj 231 797 moses;
#X obj 350 771 + 1;
#X msg 290 889 1;
#X msg 249 887 0;
#X obj 268 770 + 1;
#X msg 231 731 1;
#X obj 327 827 delay 300;
#X obj 249 860 delay 150;
#X obj 248 923 i;
#X obj 324 131 timer;
#X obj 323 165 < 500;
#X obj 324 99 t b b;
#X text 150 718 flasher;
#X obj 247 989 s TTo;
#X obj 265 344 metro 800;
#X obj 213 65 sel 1 2;
#X obj 231 535 timer;
#X obj 350 534 timer;
#X obj 231 597 sel 1;
#X obj 231 628 i;
#X obj 211 404 sel;
#X msg 231 371 1;
#X msg 200 373 1;
#X obj 331 201 sel 0 1;
#X obj 350 259 i;
#X obj 386 260 + 1;
#X msg 330 227 1;
#X obj 350 479 i;
#X obj 350 447 t b b;
#X msg 401 303 0;
#X msg 384 325 1;
#X msg 417 324 0;
#X obj 384 356 metro 800;
#X obj 330 416 sel;
#X msg 350 383 1;
#X msg 319 375 1;
#X text 310 15 switch patces by pressing top two tactile triggers the
amount of times in correlation to the patch number. you have 500 ms
between presses. the switch will flash the number of the patch back
to you;
#X obj 231 270 t b f b b;
#X obj 350 282 t b f b b;
#X obj 231 511 t b f;
#X obj 350 505 t b f;
#X obj 231 695 t b f f;
#X obj 231 830 t f b b b;
#X obj 231 560 < 100;
#X obj 350 560 < 100;
#X obj 477 821 t b;
#X obj 478 850 i;
#X obj 504 889 outlet;
#X obj 231 656 pipe 200;
#X msg 248 961 1 \$1 \, 2 \$1 \, 3 \$1;
#X connect 0 0 1 0;
#X connect 1 0 30 0;
#X connect 2 0 7 0;
#X connect 3 0 6 0;
#X connect 3 1 4 0;
#X connect 4 0 5 0;
#X connect 4 0 52 0;
#X connect 5 0 4 1;
#X connect 6 0 4 0;
#X connect 7 0 3 0;
#X connect 8 0 2 0;
#X connect 8 1 2 1;
#X connect 9 0 54 0;
#X connect 10 0 9 0;
#X connect 10 1 13 0;
#X connect 11 0 35 1;
#X connect 12 0 29 0;
#X connect 13 0 29 0;
#X connect 14 0 15 0;
#X connect 14 0 19 0;
#X connect 15 0 57 0;
#X connect 15 1 60 0;
#X connect 16 0 15 1;
#X connect 17 0 23 0;
#X connect 18 0 23 0;
#X connect 19 0 14 1;
#X connect 20 0 14 0;
#X connect 21 0 14 0;
#X connect 22 0 18 0;
#X connect 23 0 64 0;
#X connect 24 0 25 0;
#X connect 25 0 38 0;
#X connect 26 0 24 0;
#X connect 26 1 24 1;
#X connect 29 0 37 0;
#X connect 30 0 8 0;
#X connect 30 1 26 0;
#X connect 31 0 58 0;
#X connect 32 0 59 0;
#X connect 33 0 34 0;
#X connect 34 0 63 0;
#X connect 35 0 10 0;
#X connect 36 0 35 1;
#X connect 37 0 35 0;
#X connect 38 0 41 0;
#X connect 38 1 39 0;
#X connect 39 0 40 0;
#X connect 39 0 53 0;
#X connect 40 0 39 1;
#X connect 41 0 39 0;
#X connect 42 0 55 0;
#X connect 43 0 42 0;
#X connect 43 1 46 0;
#X connect 44 0 48 1;
#X connect 45 0 47 0;
#X connect 46 0 47 0;
#X connect 47 0 50 0;
#X connect 48 0 43 0;
#X connect 49 0 48 1;
#X connect 50 0 48 0;
#X connect 52 0 36 0;
#X connect 52 1 9 1;
#X connect 52 2 12 0;
#X connect 52 3 11 0;
#X connect 53 0 49 0;
#X connect 53 1 42 1;
#X connect 53 2 45 0;
#X connect 53 3 44 0;
#X connect 54 0 31 0;
#X connect 54 0 32 1;
#X connect 54 1 34 1;
#X connect 55 0 31 1;
#X connect 55 0 32 0;
#X connect 55 1 34 1;
#X connect 56 0 20 0;
#X connect 56 1 16 0;
#X connect 56 2 61 1;
#X connect 57 1 22 0;
#X connect 57 2 17 0;
#X connect 57 3 21 0;
#X connect 58 0 33 0;
#X connect 59 0 33 0;
#X connect 60 0 61 0;
#X connect 61 0 62 0;
#X connect 63 0 56 0;
#X connect 64 0 28 0;
#X restore 156 136 pd 2_Black_button_select;
#X msg 80 114 0;
#X obj 323 136 metro 60000;
#X obj 323 114 tgl 15 0 empty empty empty 17 7 0 10 -262144 -1 -1 0
1;
#N canvas -1227 117 1096 864 patch_switcher 0;
#X obj 151 587 list split;
#X msg 179 609 \$1 \$2;
#X obj 178 496 list length;
#X obj 151 474 t l l;
#X obj 178 563 %, f 5;
#X obj 178 543 i;
#X obj 178 520 t b f;
#X obj 151 453 list;
#X obj 179 630 list;
#X obj 192 695 list;
#X msg 179 996 \; pd open \$1 \$2;
#X msg 192 833 \; pd-\$1 menuclose;
#X obj 151 207 symbol;
#X obj 505 138 symbol;
#X msg 686 -183 /mnt/sda1;
#X text 747 -184 the path that TT sees on the usb;
#X text 512 255 patch locations on the usb drive/computer path;
#X obj 151 -133 inlet;
#X obj 395 -314 r initbang;
#X obj 395 -283 t b b, f 49;
#X obj 151 -107 t f f;
#X msg 179 903 \$1 \$2;
#X obj 179 928 unpack s s;
#X obj 179 974 pack s s, f 12;
#X obj 505 92 inlet;
#X obj 151 181 t b f, f 8;
#X msg 192 744 \$1 \$2;
#X obj 192 766 unpack s s;
#X obj 192 811 pack s s;
#X obj 192 789 pipe s s 200;
#X obj 179 951 pipe s s 400;
#X text 289 838 close current patch;
#X text 273 1004 open new patch;
#X obj 686 -161 symbol;
#X obj 178 -80 t b a;
#X text 419 -173 click to open and edit text:;
#X obj 395 -125 t b p, f 18;
#X obj 395 -76 text get -s text t;
#X msg 395 -101 0;
#X obj 395 -51 list trim;
#X obj 178 25 text define START;
#X msg 178 1 write ./START.txt;
#X obj 205 -23 text set START;
#X msg 422 -209 read ./START.txt;
#X obj 395 -252 t b b;
#X obj 395 -149 text define star;
#X obj 179 655 t l b l b;
#X obj 151 155 * 2;
#X obj 193 469 - 2;
#X text 581 74 ******** your computer path "./" assumes the files you
want to load will be in a directory called "patches" which will live
in the same folder with startup.pd;
#X msg 505 115 C:/Users/David/Documents/Electronics/mxmxmx/TTDRIVE_Current/
;
#X msg 151 233 main.pd \$1/patches/tt_at_fb/ TT-EBS.pd \$1/patches/tt-EBS/
G.pd \$1/patches/GDELAY/ aeTM3_2.pd \$1/patches/aepd_v1/ feedbackroom1.pd
\$1/patches/ lower_density.pd \$1/patches/ PitchShift.pd \$1/patches/
sinecyclesfm.pd \$1/patches/ sprayloops.pd \$1/patches/;
#X connect 0 1 1 0;
#X connect 1 0 8 0;
#X connect 2 0 6 0;
#X connect 3 0 0 0;
#X connect 3 1 2 0;
#X connect 4 0 0 1;
#X connect 5 0 4 0;
#X connect 6 0 5 0;
#X connect 6 1 4 1;
#X connect 7 0 3 0;
#X connect 8 0 46 0;
#X connect 9 0 26 0;
#X connect 12 0 51 0;
#X connect 13 0 12 1;
#X connect 14 0 33 0;
#X connect 17 0 20 0;
#X connect 18 0 19 0;
#X connect 19 0 44 0;
#X connect 19 1 14 0;
#X connect 20 0 47 0;
#X connect 20 1 34 0;
#X connect 21 0 22 0;
#X connect 22 0 30 0;
#X connect 22 1 30 1;
#X connect 23 0 10 0;
#X connect 24 0 50 0;
#X connect 25 0 12 0;
#X connect 25 1 48 0;
#X connect 26 0 27 0;
#X connect 27 0 29 0;
#X connect 27 1 29 1;
#X connect 28 0 11 0;
#X connect 29 0 28 0;
#X connect 29 1 28 1;
#X connect 30 0 23 0;
#X connect 30 1 23 1;
#X connect 33 0 12 1;
#X connect 34 0 41 0;
#X connect 34 1 42 0;
#X connect 36 0 38 0;
#X connect 36 1 37 3;
#X connect 37 0 39 0;
#X connect 38 0 37 0;
#X connect 39 0 47 0;
#X connect 41 0 40 0;
#X connect 43 0 45 0;
#X connect 44 0 45 0;
#X connect 44 1 43 0;
#X connect 45 0 36 0;
#X connect 46 0 21 0;
#X connect 46 2 9 1;
#X connect 46 3 9 0;
#X connect 47 0 25 0;
#X connect 48 0 5 1;
#X connect 50 0 13 0;
#X connect 51 0 7 0;
#X restore 156 161 pd patch_switcher;
#X obj 236 26 bng 15 250 50 0 empty empty empty 17 7 0 10 -262144 -1
-1;
#X text 469 161 auto-save!!;
#X msg 323 162 \; pd-startup.pd menusave;
#X obj 236 49 t b b b;
#X text 256 25 working from computer;
#N canvas -1224 275 466 122 externals 0;
#X text 66 -2 load externals paths (reletive to this patcher);
#X obj 66 -23 declare -path ../patches;
#X restore 35 20 pd externals;
#X connect 3 0 7 0;
#X connect 4 0 1 0;
#X connect 5 0 10 0;
#X connect 6 0 5 0;
#X connect 8 0 11 0;
#X connect 11 0 4 0;
#X connect 11 1 7 1;
#X connect 11 2 6 0;
