#N canvas 58 513 450 300 10;
#N canvas 545 118 1022 831 \$0-recording 1;
#N canvas 1028 213 619 708 waverec 1;
#X msg 243 -144 1;
#X obj 59 40 tgl 20 0 empty empty empty 0 -6 0 8 -249631 -355 -355
0 1;
#X obj 30 39 bng 20 250 50 0 empty empty empty 0 -6 0 8 -204465 -1
-1;
#X obj 85 39 bng 20 250 50 0 empty empty empty 0 -6 0 8 -189457 -1
-1;
#X text 28 60 start;
#X text 82 57 stop;
#X symbolatom 40 75 9 0 0 0 - - -;
#X obj 368 -93 writesf~ 2;
#X obj 232 -210 pack s s;
#X msg 232 -186 open \$1\$2 \, start;
#X obj 404 -133 adc~;
#X obj 30 -62 inlet;
#X obj 85 -16 inlet;
#N canvas 1 403 618 623 hmstimer 0;
#X obj 289 259 timer;
#X floatatom 302 312 5 0 0 0 - - -;
#X msg 289 234 bang;
#X msg 122 151 bang;
#X obj 122 214 metro 1000;
#X msg 139 179 stop, f 5;
#X obj 289 332 t f f f;
#N canvas 0 193 451 356 hours 0;
#X obj 27 22 inlet;
#X obj 27 155 outlet;
#X obj 27 54 / 60;
#X obj 27 86 / 60;
#X obj 27 118 int;
#X obj 109 265 outlet;
#X obj 136 175 moses 10;
#X msg 194 203 set %d;
#X msg 136 203 set 0%d;
#X obj 109 234 makefilename;
#X obj 109 152 t f f;
#X connect 0 0 2 0;
#X connect 2 0 3 0;
#X connect 3 0 4 0;
#X connect 4 0 1 0;
#X connect 4 0 10 0;
#X connect 6 0 8 0;
#X connect 6 1 7 0;
#X connect 7 0 9 0;
#X connect 8 0 9 0;
#X connect 9 0 5 0;
#X connect 10 0 9 0;
#X connect 10 1 6 0;
#X restore 328 359 pd hours;
#X obj 289 284 / 1000;
#N canvas 0 187 592 419 mins 0;
#X obj 77 19 inlet;
#X text 118 14 secs;
#X text 134 53 hrs;
#X obj 92 53 inlet;
#X obj 92 80 * 60;
#X obj 92 107 * 60;
#X obj 77 132 -;
#X obj 77 251 outlet;
#X obj 77 180 int;
#X obj 77 158 / 60;
#X obj 197 268 moses 10;
#X obj 170 327 makefilename;
#X obj 170 245 t f f;
#X msg 258 296 set %d;
#X msg 197 296 set 0%d;
#X obj 170 355 outlet;
#X connect 0 0 6 0;
#X connect 3 0 4 0;
#X connect 4 0 5 0;
#X connect 5 0 6 1;
#X connect 6 0 9 0;
#X connect 8 0 7 0;
#X connect 8 0 12 0;
#X connect 9 0 8 0;
#X connect 10 0 14 0;
#X connect 10 1 13 0;
#X connect 11 0 15 0;
#X connect 12 0 11 0;
#X connect 12 1 10 0;
#X connect 13 0 11 0;
#X connect 14 0 11 0;
#X restore 308 421 pd mins;
#N canvas 0 106 606 450 secs 0;
#X obj 144 -29 inlet;
#X obj 159 75 inlet;
#X obj 243 -29 inlet;
#X obj 159 3 * 60;
#X obj 159 28 * 60;
#X obj 144 53 -;
#X obj 144 135 -;
#X obj 159 108 * 60;
#X obj 144 160 int;
#X obj 144 197 outlet;
#X obj 229 209 moses 10;
#X obj 201 268 makefilename;
#X obj 201 186 t f f;
#X msg 290 237 set %d;
#X msg 229 237 set 0%d;
#X obj 201 295 outlet;
#X connect 0 0 5 0;
#X connect 1 0 7 0;
#X connect 2 0 3 0;
#X connect 3 0 4 0;
#X connect 4 0 5 1;
#X connect 5 0 6 0;
#X connect 6 0 8 0;
#X connect 7 0 6 1;
#X connect 8 0 9 0;
#X connect 8 0 12 0;
#X connect 10 0 14 0;
#X connect 10 1 13 0;
#X connect 11 0 15 0;
#X connect 12 0 11 0;
#X connect 12 1 10 0;
#X connect 13 0 11 0;
#X connect 14 0 11 0;
#X restore 289 460 pd secs;
#X obj 373 448 makefilename;
#X msg 373 425 set \$1:%s;
#X obj 328 522 makefilename;
#X msg 373 471 set \$1:%s;
#X obj 120 101 cnv 15 70 40 empty empty empty 20 12 0 14 -245490 -66577
0;
#X symbolatom 123 123 9 0 0 0 - - -;
#X obj 123 105 bng 15 250 50 0 empty empty empty 17 7 0 10 -24198 -1
-1;
#X obj 140 105 bng 15 250 50 0 empty empty empty 17 7 0 10 -262131
-1 -1;
#X obj 157 105 bng 15 250 50 0 empty empty empty 17 7 0 9 -258699 -1
-1;
#X obj 328 545 outlet;
#X msg 50 318 0;
#X obj 50 290 loadbang;
#X obj 123 17 inlet;
#X obj 140 42 inlet;
#X obj 157 69 inlet;
#X connect 0 0 8 0;
#X connect 2 0 0 0;
#X connect 3 0 4 0;
#X connect 4 0 0 1;
#X connect 5 0 4 0;
#X connect 6 0 10 0;
#X connect 6 1 9 0;
#X connect 6 2 7 0;
#X connect 7 0 9 1;
#X connect 7 0 10 2;
#X connect 7 1 12 0;
#X connect 8 0 6 0;
#X connect 8 0 1 0;
#X connect 9 0 10 1;
#X connect 9 1 11 0;
#X connect 10 1 13 0;
#X connect 11 0 14 0;
#X connect 12 0 11 0;
#X connect 13 0 16 0;
#X connect 13 0 20 0;
#X connect 14 0 13 0;
#X connect 17 0 3 0;
#X connect 18 0 5 0;
#X connect 19 0 2 0;
#X connect 21 0 6 0;
#X connect 22 0 21 0;
#X connect 23 0 17 0;
#X connect 24 0 18 0;
#X connect 25 0 19 0;
#X coords 0 623 1 622 85 60 0;
#X restore 169 14 pd hmstimer;
#X obj 247 127 outlet;
#X obj 59 128 outlet;
#X obj 232 -310 bng 15 250 50 0 empty empty empty 17 7 0 10 -262144
-1 -1;
#X symbolatom 277 -235 30 0 0 0 - - -;
#X obj 30 157 s \$0-cmd_start_rec;
#X obj 85 104 s \$0-cmd_stop_rec;
#X obj 200 -13 r \$0-cmd_stop_rec;
#X obj 368 -188 r \$0-cmd_stop_rec;
#X msg 368 -165 stop;
#X obj 204 104 r \$0-cmd_stop_rec;
#X obj 169 -40 r \$0-cmd_start_rec;
#X obj 232 -334 r \$0-cmd_start_rec;
#N canvas 222 67 633 505 \$0-rec_file_namer 0;
#X obj 59 92 date;
#X floatatom 67 224 0 0 0 0 - - -;
#X floatatom 63 246 0 0 0 0 - - -;
#X floatatom 59 269 0 0 0 0 - - -;
#X floatatom 80 127 0 0 0 0 - - -;
#X floatatom 75 153 0 0 0 0 - - -;
#X floatatom 71 180 0 0 0 0 - - -;
#X floatatom 186 148 0 0 0 0 - - -;
#X floatatom 179 183 0 0 0 0 - - -;
#X floatatom 172 216 0 0 0 0 - - -;
#X obj 172 92 time;
#X floatatom 193 123 0 0 0 0 - - -;
#X text 243 123 msec;
#X text 211 147 sec;
#X text 206 185 min;
#X text 198 220 hours;
#X obj 59 67 bng 15 250 50 0 empty empty empty 17 7 0 10 -262144 -1
-1;
#X obj 151 283 pack f f f f f f;
#X obj 151 336 symbol;
#X obj 151 365 outlet;
#X obj 59 43 inlet;
#X msg 232 365 set \$1;
#X text 282 364 example useage at outlet;
#X msg 232 389 /rec_2019-1-30_9_52_42.wav;
#X msg 151 311 /rec_\$1-\$2-\$3_\$4-\$5-\$6.wav;
#X connect 0 0 3 0;
#X connect 0 1 2 0;
#X connect 0 2 1 0;
#X connect 0 3 6 0;
#X connect 0 4 5 0;
#X connect 0 5 4 0;
#X connect 1 0 17 2;
#X connect 2 0 17 1;
#X connect 3 0 17 0;
#X connect 7 0 17 5;
#X connect 8 0 17 4;
#X connect 9 0 17 3;
#X connect 10 0 9 0;
#X connect 10 1 8 0;
#X connect 10 2 7 0;
#X connect 10 3 11 0;
#X connect 16 0 10 0;
#X connect 16 0 0 0;
#X connect 17 0 24 0;
#X connect 18 0 19 0;
#X connect 18 0 21 0;
#X connect 20 0 16 0;
#X connect 21 0 23 0;
#X connect 24 0 18 0;
#X restore 277 -259 pd \$0-rec_file_namer;
#N canvas 295 403 395 169 \$0-rec_file_path_gen 1;
#X obj 18 102 outlet;
#X text 18 22 could setup something more complex here later to write
to different directories...;
#X obj 18 60 inlet;
#X msg 18 81 ./99;
#X connect 2 0 3 0;
#X connect 3 0 0 0;
#X restore 232 -287 pd \$0-rec_file_path_gen;
#X obj 243 -116 s \$0-rec-status;
#X obj 59 -41 r \$0-rec-status;
#X msg 204 127 0;
#X obj 204 150 s \$0-rec-status;
#X obj 232 -72 t b;
#X connect 0 0 28 0;
#X connect 1 0 15 0;
#X connect 2 0 18 0;
#X connect 3 0 19 0;
#X connect 8 0 9 0;
#X connect 9 0 0 0;
#X connect 9 0 32 0;
#X connect 9 0 7 0;
#X connect 10 0 7 0;
#X connect 10 1 7 1;
#X connect 11 0 2 0;
#X connect 12 0 3 0;
#X connect 13 0 6 0;
#X connect 16 0 26 0;
#X connect 16 0 27 0;
#X connect 17 0 8 1;
#X connect 20 0 13 1;
#X connect 21 0 22 0;
#X connect 22 0 7 0;
#X connect 23 0 14 0;
#X connect 23 0 30 0;
#X connect 24 0 13 0;
#X connect 25 0 16 0;
#X connect 26 0 17 0;
#X connect 27 0 8 0;
#X connect 29 0 1 0;
#X connect 30 0 31 0;
#X connect 32 0 13 2;
#X coords 0 -1 1 1 85 70 1 25 25;
#X restore 141 314 pd waverec;
#X obj 104 571 bng 15 250 50 0 empty empty empty 17 7 0 10 -262144
-1 -1;
#X obj 234 661 s loadrec;
#X obj 250 622 print;
#N canvas 1 726 450 300 ledpulse 0;
#X obj 100 46 inlet;
#X obj 77 208 outlet;
#X obj 100 71 bng 15 250 50 0 empty empty empty 17 7 0 10 -262144 -1
-1;
#X obj 100 91 t b b;
#X msg 100 135 0;
#X msg 137 135 1;
#X floatatom 100 166 5 0 0 0 - - -;
#X obj 100 113 delay 100;
#X connect 0 0 2 0;
#X connect 2 0 3 0;
#X connect 3 0 7 0;
#X connect 3 1 5 0;
#X connect 4 0 6 0;
#X connect 4 0 1 0;
#X connect 5 0 6 0;
#X connect 5 0 1 0;
#X connect 7 0 4 0;
#X restore 141 580 pd ledpulse;
#X obj 364 98 print;
#X obj 284 36 select 0 1;
#X msg 219 730 1;
#X obj 219 755 s play;
#N canvas 1 726 450 300 ledpulse 0;
#X obj 42 31 inlet;
#X obj 42 160 outlet;
#X obj 42 59 bng 15 250 50 0 empty empty empty 17 7 0 10 -262144 -1
-1;
#X obj 42 79 t b b;
#X msg 42 128 0;
#X msg 125 128 1;
#X floatatom 80 128 5 0 0 0 - - -;
#X obj 42 103 delay 100;
#X connect 0 0 2 0;
#X connect 2 0 3 0;
#X connect 3 0 7 0;
#X connect 3 1 5 0;
#X connect 4 0 6 0;
#X connect 4 0 1 0;
#X connect 5 0 1 0;
#X connect 5 0 6 0;
#X connect 7 0 4 0;
#X restore 32 84 pd ledpulse;
#X msg 266 546 0;
#X obj 266 569 s arm;
#X obj 178 469 print;
#X msg 141 534 stop;
#X floatatom 322 197 5 0 0 0 - - -;
#X obj 219 496 t b b b b b;
#X obj 282 520 s startover;
#X obj 141 229 expr if (($f1 == 1) && ($f2 == 1) && ($f3 != 1) \, 1
\, 0);
#X floatatom 462 200 5 0 0 0 - - -;
#X obj 219 261 expr if (($f1 == 0) && ($f2 == 1) && ($f3 == 1) \, 1
\, 0);
#X floatatom 185 200 5 0 0 0 - - -;
#X obj 32 57 r ttD1;
#X obj 32 111 s ttTopLED;
#X obj 191 89 bng 15 250 50 0 empty empty empty 17 7 0 10 -262144 -1
-1;
#X obj 284 98 s pauseplot;
#X msg 318 72 1;
#X msg 284 72 0;
#X obj 191 118 tgl 15 0 empty empty empty 17 7 0 10 -262144 -1 -1 0
1;
#X msg 216 89 0;
#X obj 141 446 t b;
#X obj 141 394 == 1;
#X obj 141 416 select 1;
#X obj 141 557 metro 250;
#X obj 32 138 s startover;
#X obj 219 705 delay 0.01;
#X obj 284 10 r \$0-arm-ch1-toggle-s;
#X obj 301 175 r \$0-arm-ch1-toggle-s;
#X obj 141 175 r \$0-play-s;
#X floatatom 92 261 5 0 0 0 - - -;
#X msg 141 200 1;
#X obj 141 627 s TTo;
#X obj 141 261 select 1;
#X obj 219 285 select 1;
#X msg 364 72 Recording Status: ARMED hit play;
#X msg 250 600 Recording Status: --DONE--;
#X msg 178 446 Recording Status: RECORDING--;
#X msg 141 603 3 \$1;
#X obj 239 11 tgl 15 0 empty empty empty 17 7 0 10 -262144 -1 -1 0
1;
#X connect 0 0 18 0;
#X connect 0 0 30 0;
#X connect 0 1 15 0;
#X connect 4 0 46 0;
#X connect 6 0 26 0;
#X connect 6 1 43 0;
#X connect 6 1 25 0;
#X connect 6 1 28 0;
#X connect 7 0 8 0;
#X connect 9 0 22 0;
#X connect 10 0 11 0;
#X connect 13 0 32 0;
#X connect 15 0 34 0;
#X connect 15 0 13 0;
#X connect 15 1 2 0;
#X connect 15 2 44 0;
#X connect 15 3 10 0;
#X connect 15 4 16 0;
#X connect 17 0 38 0;
#X connect 17 0 41 0;
#X connect 18 0 17 2;
#X connect 18 0 19 2;
#X connect 19 0 42 0;
#X connect 21 0 9 0;
#X connect 21 0 23 0;
#X connect 23 0 27 0;
#X connect 25 0 24 0;
#X connect 26 0 24 0;
#X connect 27 0 19 0;
#X connect 27 0 17 0;
#X connect 28 0 27 0;
#X connect 29 0 32 0;
#X connect 30 0 31 0;
#X connect 31 0 45 0;
#X connect 31 0 29 0;
#X connect 32 0 1 0;
#X connect 32 0 4 0;
#X connect 34 0 7 0;
#X connect 35 0 6 0;
#X connect 36 0 14 0;
#X connect 36 0 17 1;
#X connect 36 0 19 1;
#X connect 37 0 20 0;
#X connect 37 0 39 0;
#X connect 39 0 17 0;
#X connect 39 0 19 0;
#X connect 41 0 0 0;
#X connect 42 0 0 1;
#X connect 43 0 5 0;
#X connect 44 0 3 0;
#X connect 45 0 12 0;
#X connect 46 0 40 0;
#X connect 47 0 6 0;
#X connect 47 0 14 0;
#X connect 47 0 17 1;
#X coords 0 831 1 830 85 60 0;
#X restore 26 67 pd \$0-recording;
