#N canvas 42 37 1223 870 10;
#X obj 603 240 vsl 15 128 0 1 0 0 \$0-ch1-vol-s \$0-ch1-vol-r ch1 0
-9 0 10 -262144 -1 -1 6350 1;
#X obj 631 240 vsl 15 128 0 1 0 0 \$0-ch2-vol-s \$0-ch2-vol-r ch2 0
-9 0 10 -262144 -1 -1 6350 1;
#X obj 660 240 vsl 25 128 0 1 0 0 \$0-master-vol-s \$0-master-vol-r
Master 0 -9 0 10 -262144 -1 -1 12700 1;
#X obj 39 286 hsl 200 15 0 1 0 0 \$0-sample-pos-slider-s \$0-sample-pos-slider-r
sample_position -2 -8 0 10 -262144 -1 -1 0 1;
#X obj 41 323 hsl 200 15 0 2 0 0 \$0-playback-speed-s \$0-playback-speed-r
playback_speed -2 -8 0 10 -262144 -1 -1 9950 1;
#X text 252 322 2;
#X msg 38 432 1;
#X obj 39 220 hsl 200 15 0 1 0 0 \$0-start-pos-s \$0-start-pos-r start_pos
-2 -8 0 10 -262144 -1 -1 0 1;
#X obj 39 253 hsl 200 15 0 1 0 0 \$0-end-pos-s \$0-end-pos-r end_pos
-2 -8 0 10 -262144 -1 -1 19900 1;
#X obj 1007 92 bng 15 250 50 0 empty empty empty 17 7 0 10 -262144
-1 -1;
#X obj 1007 114 pack \$0;
#X text 598 204 Volume Controls;
#X text 39 504 these blocks might be useful later;
#X obj 30 54 bng 15 250 50 0 \$0-play-s \$0-play-r PLAY 17 7 0 10 -262144
-1 -1;
#X obj 644 129 bng 15 250 50 0 \$0-eof-s \$0-eof-r EOF 17 7 0 10 -262144
-1 -1;
#X obj 30 32 bng 15 250 50 0 \$0-clock-in-s \$0-clock-in-r CLOCK_IN
17 7 0 10 -262144 -1 -1;
#N canvas 0 50 414 509 \$0-audio-out 0;
#X obj 112 330 dac~;
#X obj 89 207 *~;
#X obj 183 205 *~;
#X obj 105 177 catch~ \$0-ch1;
#X obj 199 177 catch~ \$0-ch2;
#X obj 89 141 r \$0-ch1-vol-s;
#X obj 183 141 r \$0-ch2-vol-s;
#X obj 73 251 r \$0-master-vol-s;
#X obj 73 284 *~;
#X obj 167 284 *~;
#X connect 1 0 8 1;
#X connect 2 0 9 1;
#X connect 3 0 1 1;
#X connect 4 0 2 1;
#X connect 5 0 1 0;
#X connect 6 0 2 0;
#X connect 7 0 8 0;
#X connect 7 0 9 0;
#X connect 8 0 0 0;
#X connect 9 0 0 1;
#X restore 746 164 pd \$0-audio-out;
#N canvas 159 519 374 306 \$0-startup-settings 0;
#X obj 38 24 loadbang;
#X msg 38 195 1;
#X obj 38 242 s \$0-playback-speed-r;
#X obj 49 216 s \$0-end-pos-r;
#X msg 50 110 0.5;
#X obj 76 133 s \$0-master-vol-r;
#X obj 76 157 s \$0-ch2-vol-r;
#X obj 76 181 s \$0-ch1-vol-r;
#X msg 68 58 \; pd dsp 1;
#X connect 0 0 1 0;
#X connect 0 0 4 0;
#X connect 0 0 8 0;
#X connect 1 0 2 0;
#X connect 1 0 3 0;
#X connect 4 0 5 0;
#X connect 4 0 7 0;
#X connect 4 0 6 0;
#X restore 746 32 pd \$0-startup-settings;
#N canvas -627 189 598 537 \$0-load-file 0;
#X obj 55 51 openpanel;
#X obj 55 149 soundfiler;
#X obj 55 104 pack s \$0;
#X obj 82 232 s \$0-num-samples;
#X obj 112 203 s \$0-sample-rate;
#X obj 55 22 r \$0-file-open-panel-s;
#X obj 55 175 t b f;
#X text 231 372 reset phasor player to make sure we start the new sample
from beginning in case somethings already playing;
#X text 227 202 sending sample rate of file loaded;
#X text 205 231 sending # of samples in file loaded;
#X text 123 103 pack is here so we get the unique patch id from \$0
;
#X msg 100 369 \; \$1-phasor-cycles 0 \; \$1-phasor-reset-s 0;
#X obj 100 341 pack \$0;
#X obj 112 175 unpack;
#X obj 68 75 r \$0-sample-file;
#X obj 55 263 value \$0-play-on-load;
#X obj 55 287 select 1;
#X obj 169 436 pack \$0;
#X msg 169 463 \; \$1-phasor-reset-s 0;
#X obj 100 314 bng 15 250 50 0 empty empty empty 17 7 0 10 -262144
-1 -1;
#X msg 55 125 read -resize \$1 \$2-ch1-table \$2-ch2-table;
#X obj 55 395 bng 15 250 50 0 empty empty empty 17 7 0 10 -262144 -1
-1;
#X obj 55 419 s \$0-play-r;
#X connect 0 0 2 0;
#X connect 1 0 6 0;
#X connect 1 1 13 0;
#X connect 2 0 20 0;
#X connect 5 0 0 0;
#X connect 6 0 15 0;
#X connect 6 1 3 0;
#X connect 12 0 11 0;
#X connect 13 0 4 0;
#X connect 14 0 2 0;
#X connect 15 0 16 0;
#X connect 16 0 21 0;
#X connect 16 1 19 0;
#X connect 17 0 18 0;
#X connect 19 0 12 0;
#X connect 20 0 1 0;
#X connect 21 0 22 0;
#X restore 746 98 pd \$0-load-file;
#X obj 30 99 bng 15 250 50 0 \$0-phasor-reset-s \$0-phasor-reset-r
RESET 17 7 0 10 -262144 -1 -1;
#X obj 104 54 tgl 15 0 \$0-mode-toggle-s \$0-mode-toggle-r 1_Shot_(OFF=LOOP)
17 7 0 10 -262144 -1 -1 0 1;
#X obj 614 32 bng 15 250 50 0 \$0-file-open-panel-s \$0-file-open-panel-r
OPEN_FILE 17 7 0 10 -262144 -1 -1;
#X text 1029 90 normalize mytable;
#X floatatom 283 323 9 0 0 1 Current_Playback_Speed #0-playback-speed-s
-;
#X obj 104 32 tgl 15 0 \$0-pol-toggle-s \$0-pol-toggle-r PLAY_ON_LOAD
17 7 0 10 -262144 -1 -1 1 1;
#N canvas -1632 84 1527 899 phasor-player 0;
#X obj 65 439 phasor~;
#X obj 65 489 *~;
#X floatatom 65 311 10 0 0 0 - - -;
#X obj 64 689 throw~ \$0-ch1;
#X obj 216 689 throw~ \$0-ch2;
#N canvas 1088 316 461 369 autosnap~ 0;
#X obj 138 75 inlet~;
#X obj 137 185 snapshot~;
#X obj 137 206 outlet;
#X obj 160 109 loadbang;
#X obj 160 151 metro 1;
#X msg 160 130 1;
#X connect 0 0 1 0;
#X connect 1 0 2 0;
#X connect 3 0 5 0;
#X connect 4 0 1 0;
#X connect 5 0 4 0;
#X restore 210 549 pd autosnap~;
#X obj 124 284 t b f;
#X obj 64 534 +~;
#X obj 65 608 *~;
#X obj 65 339 *;
#X text 166 282 playback speed multiplier;
#X text 244 520 start position offset;
#X obj 210 570 s \$0-sample-pos-slider-r;
#X msg 1132 246 0;
#X obj 1132 223 r \$0-phasor-reset-s;
#X text 301 474 multiplied by reduction factor for start and / or end
;
#X text 90 608 * num samples finally gets you table position to read
;
#X text 363 569 provides tracking position for slider on main panel
;
#X obj 76 388 r \$0-phasor-cycles;
#X text 1135 103 stop button signal;
#X floatatom 151 314 5 0 0 0 - - -;
#X obj 839 315 value \$0-num-samples;
#X obj 1002 315 value \$0-sample-rate;
#X obj 1134 125 r \$0-stop-s;
#X msg 1134 147 0;
#X floatatom 76 363 10 0 0 0 - - -;
#X obj 1134 171 s \$0-phasor-cycles;
#X obj 104 411 r \$0-phasor-phase;
#X obj 1132 271 s \$0-phasor-phase;
#X text 1130 201 reset button;
#X text 189 313 speed factor readout for reference;
#X obj 64 662 tabread4~ \$0-ch1-table;
#X obj 216 662 tabread4~ \$0-ch2-table;
#N canvas 18 515 610 364 \$0-stop-phasor 0;
#X obj 42 218 t b b;
#X msg 105 245 0;
#X msg 42 275 \; \$1-phasor-cycles 0 \; \$1-phasor-reset-s 0;
#X obj 42 246 pack \$0;
#X obj 42 109 threshold~ 1 0 0.01 0;
#X text 176 109 because ~ (audio) use threshold to detect the 1 \,
sends bang;
#X obj 42 187 select 1;
#X obj 42 164 value \$0-play-mode;
#X text 199 78 when phasor approaches end of cycle \, send 1;
#X text 33 33 below controls looping vs 1-shot play;
#X obj 71 138 s \$0-eof-r;
#X obj 42 82 expr~ $v1 > ($f2 - 0.001);
#X text 143 139 BANG the EOF bang when we reach the end;
#X text 112 187 check if 1-Shot mode is on/off;
#X obj 189 53 inlet;
#X obj 42 53 inlet~;
#X connect 0 0 3 0;
#X connect 0 1 1 0;
#X connect 3 0 2 0;
#X connect 4 0 7 0;
#X connect 4 0 10 0;
#X connect 6 0 0 0;
#X connect 7 0 6 0;
#X connect 11 0 4 0;
#X connect 14 0 11 1;
#X connect 15 0 11 0;
#X restore 383 548 pd \$0-stop-phasor;
#X obj 837 403 value \$0-start-position;
#X obj 1004 403 value \$0-end-position;
#X obj 839 483 value \$0-playback-speed;
#X floatatom 839 504 10 0 0 0 - - -;
#X floatatom 837 424 10 0 0 0 - - -;
#X floatatom 1004 424 10 0 0 0 - - -;
#X floatatom 839 336 10 0 0 0 - - -;
#X floatatom 1002 336 10 0 0 0 - - -;
#X obj 937 212 r \$0-play-s;
#X obj 937 246 bng 15 250 50 0 empty empty empty 17 7 0 10 -262144
-1 -1;
#X text 496 547 <- subpatch to control looping or single play mode
;
#N canvas -1651 114 1166 796 \$0-playback-window 0;
#X obj 78 114 t b f;
#X floatatom 52 146 8 0 0 0 - - -;
#X obj 90 173 -;
#X obj 242 84 r \$0-start-pos-s;
#X obj 244 55 r \$0-end-pos-s;
#X text 126 173 end pos - start pos;
#X floatatom 106 199 9 0 0 0 - - -;
#X obj 90 267 value \$0-phasor-reduction-factor;
#X obj 463 85 expr if( $f1 >= $f2 \, 1 \, 0);
#X obj 463 171 s \$0-start-pos-r;
#X obj 463 106 select 1;
#X obj 463 150 - 0.001;
#X text 515 149 you get stack overflow if you try to set them equal
;
#X obj 461 295 expr if( $f1 >= $f2 \, 1 \, 0);
#X text 512 359 you get stack overflow if you try to set them equal
;
#X obj 614 273 r \$0-start-pos-s;
#X obj 461 273 r \$0-end-pos-s;
#X obj 461 338 value \$0-start-position;
#X obj 461 381 s \$0-end-pos-r;
#X obj 461 316 select 0;
#X obj 463 62 r \$0-start-pos-s;
#X obj 616 62 r \$0-end-pos-s;
#X obj 461 360 + 0.001;
#X text 168 200 <- think of this as window size expressed as % of original
sample length;
#X text 461 234 block below prevents the end postion from going past
the start;
#X text 462 21 block below prevents the start position from going past
the end postion;
#X obj 463 129 value \$0-end-position;
#X text 267 237 store size on change;
#X obj 106 237 value \$0-play-window-size;
#X obj 467 503 r \$0-play-window-size-s;
#X obj 584 624 s \$0-start-pos-r;
#X obj 464 682 s \$0-end-pos-r;
#X obj 584 530 expr 1 - $f1;
#X text 460 461 below moves the start and end postion sliders together
to rezie the playback window. Relies on the size slider scale set to
max of 0.5 otherwise stack overflow;
#N canvas -1417 483 516 435 window-position-slider-set-scale 0;
#X obj 40 182 expr 1-$f1;
#X floatatom 81 209 5 0 0 0 - - -;
#X msg 40 234 0;
#X obj 40 209 bng 15 250 50 0 empty empty empty 17 7 0 10 -262144 -1
-1;
#X obj 40 257 pack f f;
#X msg 40 281 range \$1 \$2;
#X text 66 233 set scale for window position slider;
#X obj 40 136 bng 15 250 50 0 empty empty empty 17 7 0 10 -262144 -1
-1;
#X obj 49 113 r \$0-start-pos-s;
#X obj 40 90 r \$0-end-pos-s;
#X obj 153 209 value \$0-play-window-slack;
#X obj 40 157 value \$0-play-window-size;
#X obj 40 318 s \$0-play-window-postion-r;
#X text 40 41 this block was meant to change the scale of a hslider
for the window postion scrubber function. it may not be necessary anymore
but could still be useful later.;
#X connect 0 0 1 0;
#X connect 0 0 3 0;
#X connect 0 0 4 1;
#X connect 0 0 10 0;
#X connect 2 0 4 0;
#X connect 3 0 2 0;
#X connect 4 0 5 0;
#X connect 7 0 11 0;
#X connect 8 0 7 0;
#X connect 9 0 7 0;
#X connect 11 0 0 0;
#X restore 883 46 pd window-position-slider-set-scale;
#X obj 52 552 s \$0-start-pos-r;
#X obj 52 376 r \$0-play-window-postion-s;
#X floatatom 231 390 9 0 0 0 - - -;
#X obj 170 552 s \$0-end-pos-r;
#X floatatom 70 524 10 0 0 0 - - -;
#X obj 170 500 expr $f1 + $f2;
#X obj 72 450 expr 1 - $f1;
#X floatatom 163 464 10 0 0 0 - - -;
#X obj 72 426 value \$0-play-window-size;
#X obj 72 402 t b;
#X text 158 448 window slack range;
#X obj 52 486 moses;
#X floatatom 229 524 10 0 0 0 - - -;
#X text 50 348 this block handles scrubbing the playback window postion
via the Window_Postion slider;
#X floatatom 738 555 5 0 0 0 - - -;
#X floatatom 419 531 5 0 0 0 - - -;
#X obj 587 582 / 2;
#X obj 471 592 / 2;
#X floatatom 595 185 5 0 0 0 - - -;
#X floatatom 599 410 5 0 0 0 - - -;
#X obj 52 58 value \$0-end-position;
#X obj 78 84 value \$0-start-position;
#X obj 52 30 inlet;
#X text 95 32 start and end postion modifiers & calculate offset;
#X connect 0 0 1 0;
#X connect 0 1 2 1;
#X connect 1 0 2 0;
#X connect 2 0 6 0;
#X connect 2 0 7 0;
#X connect 6 0 28 0;
#X connect 8 0 10 0;
#X connect 10 0 26 0;
#X connect 11 0 9 0;
#X connect 11 0 53 0;
#X connect 13 0 19 0;
#X connect 15 0 13 1;
#X connect 16 0 13 0;
#X connect 17 0 22 0;
#X connect 19 0 17 0;
#X connect 20 0 8 0;
#X connect 21 0 8 1;
#X connect 22 0 18 0;
#X connect 22 0 54 0;
#X connect 26 0 11 0;
#X connect 29 0 32 0;
#X connect 29 0 50 0;
#X connect 29 0 52 0;
#X connect 32 0 49 0;
#X connect 32 0 51 0;
#X connect 36 0 37 0;
#X connect 36 0 44 0;
#X connect 36 0 46 0;
#X connect 40 0 47 0;
#X connect 40 0 38 0;
#X connect 41 0 42 0;
#X connect 41 0 46 1;
#X connect 43 0 41 0;
#X connect 43 0 40 1;
#X connect 44 0 43 0;
#X connect 46 0 39 0;
#X connect 46 0 40 0;
#X connect 46 0 35 0;
#X connect 51 0 30 0;
#X connect 52 0 31 0;
#X connect 55 0 1 0;
#X connect 56 0 0 0;
#X connect 57 0 55 0;
#X connect 57 0 56 0;
#X restore 805 101 pd \$0-playback-window;
#X obj 124 259 value \$0-playback-speed;
#X obj 482 523 value \$0-end-position;
#X obj 80 584 value \$0-num-samples;
#X obj 94 520 value \$0-start-position;
#N canvas -1399 485 1121 469 \$0-phasor-init 0;
#X obj 115 231 expr 1 / $f1;
#X obj 69 245 *;
#X obj 69 127 t b f;
#X obj 96 153 expr $f2 / $f1;
#X text 188 154 (sample rate / # samples);
#X text 80 281 all above sets up phasor baseline frequency;
#X text 198 233 * recriprocal increases rate to account for reduction
in duration due to start / end offset;
#X floatatom 122 176 10 0 0 0 - - -;
#X text 189 177 Hz;
#X obj 69 99 value \$0-num-samples;
#X obj 177 127 value \$0-sample-rate;
#X obj 77 381 s \$0-phasor-base-rate;
#X obj 69 62 bng 15 250 50 0 empty empty empty 17 7 0 10 -262144 -1
-1;
#X obj 69 33 inlet;
#X text 112 32 bang inlet to calculate phasor rate for normal playback
;
#X obj 69 315 outlet;
#X obj 115 208 value \$0-play-window-size;
#X connect 0 0 1 0;
#X connect 1 0 15 0;
#X connect 2 0 1 0;
#X connect 2 1 3 0;
#X connect 3 0 1 1;
#X connect 3 0 7 0;
#X connect 9 0 2 0;
#X connect 10 0 3 1;
#X connect 12 0 9 0;
#X connect 12 0 10 0;
#X connect 12 0 16 0;
#X connect 13 0 12 0;
#X connect 16 0 0 0;
#X restore 65 225 pd \$0-phasor-init;
#X text 143 364 info: Hz updated for speed ctl;
#X obj 80 466 value \$0-play-window-size;
#X obj 805 65 r \$0-play-s;
#X connect 0 0 1 0;
#X connect 1 0 7 0;
#X connect 2 0 9 0;
#X connect 5 0 12 0;
#X connect 6 0 2 0;
#X connect 6 1 9 1;
#X connect 6 1 20 0;
#X connect 7 0 5 0;
#X connect 7 0 8 0;
#X connect 7 0 33 0;
#X connect 8 0 31 0;
#X connect 8 0 32 0;
#X connect 9 0 25 0;
#X connect 9 0 0 0;
#X connect 13 0 28 0;
#X connect 14 0 13 0;
#X connect 18 0 0 0;
#X connect 21 0 40 0;
#X connect 22 0 41 0;
#X connect 23 0 24 0;
#X connect 24 0 26 0;
#X connect 27 0 0 1;
#X connect 31 0 3 0;
#X connect 32 0 4 0;
#X connect 34 0 38 0;
#X connect 35 0 39 0;
#X connect 36 0 37 0;
#X connect 42 0 43 0;
#X connect 42 0 50 0;
#X connect 42 0 46 0;
#X connect 42 0 47 0;
#X connect 42 0 48 0;
#X connect 42 0 49 0;
#X connect 42 0 13 0;
#X connect 42 0 52 0;
#X connect 43 0 21 0;
#X connect 43 0 22 0;
#X connect 43 0 35 0;
#X connect 43 0 34 0;
#X connect 43 0 36 0;
#X connect 46 0 6 0;
#X connect 47 0 33 1;
#X connect 48 0 8 1;
#X connect 49 0 7 1;
#X connect 50 0 2 0;
#X connect 52 0 1 1;
#X connect 53 0 45 0;
#X restore 746 120 pd phasor-player;
#X obj 30 76 bng 15 250 50 0 \$0-stop-s \$0-stop-r STOP 17 7 0 10 -262144
-1 -1;
#N canvas 70 423 629 516 values 0;
#X obj 205 265 r \$0-playback-speed-s;
#X obj 205 286 value \$0-playback-speed;
#X obj 30 82 value \$0-play-mode;
#X obj 30 61 r \$0-mode-toggle-s;
#X obj 205 163 r \$0-start-pos-s;
#X obj 205 184 value \$0-start-position;
#X obj 205 214 r \$0-end-pos-s;
#X obj 205 236 value \$0-end-position;
#X obj 410 61 r \$0-sample-rate;
#X obj 410 111 r \$0-num-samples;
#X obj 410 132 value \$0-num-samples;
#X obj 410 82 value \$0-sample-rate;
#X obj 205 61 r \$0-bank-sel-s;
#X obj 206 111 r \$0-sample-sel-s;
#X obj 205 82 value \$0-bank-num;
#X obj 206 132 value \$0-sample-num;
#X obj 30 111 r \$0-pol-toggle-s;
#X obj 30 132 value \$0-play-on-load;
#X obj 27 163 r \$0-stereo-mode-toggle-s;
#X obj 27 184 value \$0-stereo-mode;
#X obj 28 233 value \$0-window-slack;
#X obj 363 396 value \$0-phasor-reduction-factor;
#X obj 25 280 value \$0-play-window-size;
#X connect 0 0 1 0;
#X connect 3 0 2 0;
#X connect 4 0 5 0;
#X connect 6 0 7 0;
#X connect 8 0 11 0;
#X connect 9 0 10 0;
#X connect 12 0 14 0;
#X connect 13 0 15 0;
#X connect 16 0 17 0;
#X connect 18 0 19 0;
#X restore 746 54 pd values;
#X floatatom 555 65 5 0 1 0 Bank_Select #0-bank-sel-r #0-bank-sel-s
;
#X floatatom 555 90 5 0 9 0 Sample_Select #0-sample-sel-r #0-sample-sel-s
;
#X obj 614 56 bng 15 250 50 0 \$0-bank-scan-s \$0-bank-scan-r Bank_Scan
17 7 0 10 -262144 -1 -1;
#X symbolatom 479 129 25 0 0 2 Currently_Playing #0-filename-disp-r
#0-filename-disp-s;
#N canvas -1255 268 1109 414 storage-mgmt 0;
#X obj 80 212 bng 15 250 50 0 empty empty empty 17 7 0 10 -262144 -1
-1;
#X text 228 198 requires hcs external library;
#X obj 124 198 hcs/folder_list;
#X obj 124 282 textfile add;
#X msg 71 245 clear;
#X msg 124 171 symbol ./\$1/*.wav;
#X obj 71 107 bng 15 250 50 0 empty empty empty 17 7 0 10 -262144 -1
-1;
#X obj 124 120 value \$0-bank-num;
#X text 240 120 directory # to read;
#X text 133 152 construct directory path to read;
#X msg 124 232 add \$1;
#X msg 249 171 write ./\$1/file_list.txt;
#X text 404 170 writes file_list.txt to current directory;
#X obj 676 175 bng 15 250 50 0 empty empty empty 17 7 0 10 -262144
-1 -1;
#X text 801 32 directory # to read;
#X msg 696 96 read ./\$1/file_list.txt;
#X obj 876 230 print right;
#X floatatom 753 188 5 0 0 0 - - -;
#X obj 753 229 list trim;
#X obj 753 250 s \$0-sample-file;
#X obj 71 78 r \$0-bank-scan-s;
#X text 874 118 reads in the contents of file_list.txt;
#X obj 753 164 r \$0-sample-sel-s;
#X text 857 252 goes over to pd \$0-load-file;
#X obj 696 32 r \$0-bank-sel-s;
#X obj 721 289 hcs/split_path;
#X obj 802 313 s \$0-filename-disp-r;
#X text 77 36 below reads the current bank (directory) & writes a file_list.txt
for later use. only happens on bank rescan;
#X obj 696 117 text define -k \$0-file-list;
#A set C:/Users/David/Documents/Pd/tutorial_sampler/1/04.String_Quartet_N2_(1915-1917)_Op.17\\\,_Sz.67_-_III._Lento.wav
\; C:/Users/David/Documents/Pd/tutorial_sampler/1/04_Fleurette_Africaine.wav
\; C:/Users/David/Documents/Pd/tutorial_sampler/1/07_Switchblade.wav
\; C:/Users/David/Documents/Pd/tutorial_sampler/1/2sec.wav \; C:/Users/David/Documents/Pd/tutorial_sampler/1/chord_test.wav
\;;
#X obj 753 208 text get \$0-file-list;
#X connect 2 0 0 0;
#X connect 2 0 10 0;
#X connect 4 0 3 0;
#X connect 5 0 2 0;
#X connect 6 0 7 0;
#X connect 6 0 4 0;
#X connect 7 0 5 0;
#X connect 7 0 11 0;
#X connect 10 0 3 0;
#X connect 11 0 3 0;
#X connect 13 0 17 0;
#X connect 15 0 28 0;
#X connect 17 0 29 0;
#X connect 18 0 19 0;
#X connect 20 0 6 0;
#X connect 22 0 17 0;
#X connect 24 0 15 0;
#X connect 24 0 13 0;
#X connect 25 1 26 0;
#X connect 29 0 18 0;
#X connect 29 0 25 0;
#X connect 29 1 16 0;
#X restore 746 76 pd storage-mgmt;
#X text 769 247 thinking to add the following:;
#X text 785 275 reverse playback;
#X text 785 307 que next sample;
#X text 785 339 save state / settings;
#X text 785 371 recording from current playback;
#X text 785 403 recording from line input;
#X text 17 322 0;
#X text 785 435 realtime / dynamic scrub playback;
#X text 785 499 not sure yet how I might use the clock input idea?
;
#X text 785 467 handle bank / sample index out of range errors;
#X obj 1008 54 table \$0-ch2-table;
#X obj 1008 32 table \$0-ch1-table;
#X msg 1007 137 \; \$1-ch1-table normalize \; \$1-ch2-table normalize
\;;
#X obj 55 530 loadbang;
#X obj 55 551 f \$1;
#X floatatom 55 572 5 0 0 0 - - -;
#X obj 236 55 tgl 15 0 \$0-input-monitor-toggle1-s \$0-input-monitor-toggle1-r
Monitor_Input_CH1 17 7 0 10 -262144 -1 -1 0 1;
#N canvas -642 405 593 596 \$0-audio-in 0;
#X obj 143 49 adc~;
#X obj 144 226 throw~ \$0-ch1;
#X obj 359 226 throw~ \$0-ch2;
#X obj 159 149 select 1;
#X obj 159 120 r \$0-input-monitor-toggle1-s;
#X msg 159 170 1;
#X msg 204 170 0;
#X obj 144 198 *~;
#X obj 375 149 select 1;
#X msg 375 170 1;
#X msg 420 170 0;
#X obj 360 198 *~;
#X obj 375 120 r \$0-input-monitor-toggle2-s;
#X connect 0 0 7 0;
#X connect 0 1 11 0;
#X connect 3 0 5 0;
#X connect 3 1 6 0;
#X connect 4 0 3 0;
#X connect 5 0 7 1;
#X connect 6 0 7 1;
#X connect 7 0 1 0;
#X connect 8 0 9 0;
#X connect 8 1 10 0;
#X connect 9 0 11 1;
#X connect 10 0 11 1;
#X connect 11 0 2 0;
#X connect 12 0 8 0;
#X restore 746 142 pd \$0-audio-in;
#X obj 236 77 tgl 15 0 \$0-input-monitor-toggle2-s \$0-input-monitor-toggle2-r
Monitor_Input_CH2 17 7 0 10 -262144 -1 -1 0 1;
#N canvas -1620 98 1022 831 recording 0;
#N canvas -555 180 488 600 waverec 0;
#X msg 84 122 stop;
#X msg 57 153 0;
#X msg 81 -57 1;
#X obj 57 29 tgl 20 0 empty empty empty 0 -6 0 8 -249631 -355 -355
0 1;
#X obj 28 28 bng 20 250 50 0 empty empty empty 0 -6 0 8 -204465 -1
-1;
#X obj 83 28 bng 20 250 50 0 empty empty empty 0 -6 0 8 -189457 -1
-1;
#X text 26 49 start;
#X text 80 46 stop;
#X symbolatom 33 64 9 0 0 0 - - -;
#X obj 198 -5 t b b;
#X obj 227 -56 writesf~ 2;
#X obj 114 -233 r path;
#X obj 265 -279 r recording;
#X obj 81 -122 pack s s;
#X msg 81 -97 open \$1\$2 \, start;
#X obj 227 -97 adc~;
#X obj 81 -184 symbol;
#X obj 232 -227 symbol;
#X obj 28 -16 inlet;
#X obj 83 -16 inlet;
#N canvas -1441 228 618 623 hmstimer 0;
#X obj 289 259 timer;
#X floatatom 302 312 5 0 0 0 - - -;
#X msg 289 234 bang;
#X msg 122 151 bang;
#X obj 122 214 metro 1000;
#X msg 139 179 stop, f 5;
#X obj 289 332 t f f f;
#N canvas -1064 193 451 356 hours 0;
#X obj 27 22 inlet;
#X obj 27 155 outlet;
#X obj 27 54 / 60;
#X obj 27 86 / 60;
#X obj 27 118 int;
#X obj 109 265 outlet;
#X obj 136 175 moses 10;
#X msg 194 203 set %d;
#X msg 136 203 set 0%d;
#X obj 109 234 makefilename;
#X obj 109 152 t f f;
#X connect 0 0 2 0;
#X connect 2 0 3 0;
#X connect 3 0 4 0;
#X connect 4 0 1 0;
#X connect 4 0 10 0;
#X connect 6 0 8 0;
#X connect 6 1 7 0;
#X connect 7 0 9 0;
#X connect 8 0 9 0;
#X connect 9 0 5 0;
#X connect 10 0 9 0;
#X connect 10 1 6 0;
#X restore 328 359 pd hours;
#X obj 289 284 / 1000;
#N canvas -1027 187 592 419 mins 0;
#X obj 77 19 inlet;
#X text 118 14 secs;
#X text 134 53 hrs;
#X obj 92 53 inlet;
#X obj 92 80 * 60;
#X obj 92 107 * 60;
#X obj 77 132 -;
#X obj 77 251 outlet;
#X obj 77 180 int;
#X obj 77 158 / 60;
#X obj 197 268 moses 10;
#X obj 170 327 makefilename;
#X obj 170 245 t f f;
#X msg 258 296 set %d;
#X msg 197 296 set 0%d;
#X obj 170 355 outlet;
#X connect 0 0 6 0;
#X connect 3 0 4 0;
#X connect 4 0 5 0;
#X connect 5 0 6 1;
#X connect 6 0 9 0;
#X connect 8 0 7 0;
#X connect 8 0 12 0;
#X connect 9 0 8 0;
#X connect 10 0 14 0;
#X connect 10 1 13 0;
#X connect 11 0 15 0;
#X connect 12 0 11 0;
#X connect 12 1 10 0;
#X connect 13 0 11 0;
#X connect 14 0 11 0;
#X restore 308 421 pd mins;
#N canvas -1101 106 606 450 secs 0;
#X obj 144 -29 inlet;
#X obj 159 75 inlet;
#X obj 243 -29 inlet;
#X obj 159 3 * 60;
#X obj 159 28 * 60;
#X obj 144 53 -;
#X obj 144 135 -;
#X obj 159 108 * 60;
#X obj 144 160 int;
#X obj 144 197 outlet;
#X obj 229 209 moses 10;
#X obj 201 268 makefilename;
#X obj 201 186 t f f;
#X msg 290 237 set %d;
#X msg 229 237 set 0%d;
#X obj 201 295 outlet;
#X connect 0 0 5 0;
#X connect 1 0 7 0;
#X connect 2 0 3 0;
#X connect 3 0 4 0;
#X connect 4 0 5 1;
#X connect 5 0 6 0;
#X connect 6 0 8 0;
#X connect 7 0 6 1;
#X connect 8 0 9 0;
#X connect 8 0 12 0;
#X connect 10 0 14 0;
#X connect 10 1 13 0;
#X connect 11 0 15 0;
#X connect 12 0 11 0;
#X connect 12 1 10 0;
#X connect 13 0 11 0;
#X connect 14 0 11 0;
#X restore 289 460 pd secs;
#X obj 373 448 makefilename;
#X msg 373 425 set \$1:%s;
#X obj 328 522 makefilename;
#X msg 373 471 set \$1:%s;
#X obj 120 101 cnv 15 70 40 empty empty empty 20 12 0 14 -245490 -66577
0;
#X symbolatom 123 123 9 0 0 0 - - -;
#X obj 123 105 bng 15 250 50 0 empty empty empty 17 7 0 10 -24198 -1
-1;
#X obj 140 105 bng 15 250 50 0 empty empty empty 17 7 0 10 -262131
-1 -1;
#X obj 157 105 bng 15 250 50 0 empty empty empty 17 7 0 9 -258699 -1
-1;
#X obj 328 545 outlet;
#X msg 50 318 0;
#X obj 50 290 loadbang;
#X obj 123 17 inlet;
#X obj 140 42 inlet;
#X obj 157 69 inlet;
#X connect 0 0 8 0;
#X connect 2 0 0 0;
#X connect 3 0 4 0;
#X connect 4 0 0 1;
#X connect 5 0 4 0;
#X connect 6 0 10 0;
#X connect 6 1 9 0;
#X connect 6 2 7 0;
#X connect 7 0 9 1;
#X connect 7 0 10 2;
#X connect 7 1 12 0;
#X connect 8 0 6 0;
#X connect 8 0 1 0;
#X connect 9 0 10 1;
#X connect 9 1 11 0;
#X connect 10 1 13 0;
#X connect 11 0 14 0;
#X connect 12 0 11 0;
#X connect 13 0 16 0;
#X connect 13 0 20 0;
#X connect 14 0 13 0;
#X connect 17 0 3 0;
#X connect 18 0 5 0;
#X connect 19 0 2 0;
#X connect 21 0 6 0;
#X connect 22 0 21 0;
#X connect 23 0 17 0;
#X connect 24 0 18 0;
#X connect 25 0 19 0;
#X coords 0 623 1 622 85 60 0;
#X restore 198 24 pd hmstimer;
#X obj 81 -287 t b b;
#X msg 84 202 bang;
#X obj 84 230 outlet;
#X obj 81 -265 delay 0.01;
#X obj 169 230 outlet;
#X symbolatom 232 -205 10 0 0 0 - - -;
#X symbolatom 119 -158 10 0 0 0 - - -;
#X obj 81 -315 bng 15 250 50 0 empty empty empty 17 7 0 10 -262144
-1 -1;
#X obj 114 -211 symbol;
#X obj 265 -257 symbol;
#X connect 0 0 1 0;
#X connect 0 0 10 0;
#X connect 0 0 22 0;
#X connect 1 0 3 0;
#X connect 2 0 3 0;
#X connect 3 0 25 0;
#X connect 4 0 21 0;
#X connect 5 0 0 0;
#X connect 5 0 20 1;
#X connect 9 0 20 0;
#X connect 9 1 20 2;
#X connect 11 0 29 0;
#X connect 12 0 30 0;
#X connect 13 0 14 0;
#X connect 14 0 2 0;
#X connect 14 0 9 0;
#X connect 14 0 10 0;
#X connect 15 0 10 0;
#X connect 15 1 10 1;
#X connect 16 0 13 0;
#X connect 16 0 27 0;
#X connect 17 0 13 1;
#X connect 17 0 26 0;
#X connect 18 0 4 0;
#X connect 19 0 5 0;
#X connect 20 0 8 0;
#X connect 21 0 24 0;
#X connect 21 1 17 0;
#X connect 22 0 23 0;
#X connect 24 0 16 0;
#X connect 28 0 21 0;
#X connect 29 0 16 1;
#X connect 30 0 17 1;
#X coords 0 -1 1 1 85 55 2 25 25;
#X restore 217 302 pd waverec;
#X obj 483 431 bng 15 250 50 0 empty empty empty 17 7 0 10 -262144
-1 -1;
#X obj 232 592 s loadrec;
#X obj 248 553 print;
#N canvas -795 311 450 300 ledpulse 0;
#X obj 100 46 inlet;
#X obj 77 208 outlet;
#X obj 100 71 bng 15 250 50 0 empty empty empty 17 7 0 10 -262144 -1
-1;
#X obj 100 91 t b b;
#X msg 100 135 0;
#X msg 137 135 1;
#X floatatom 100 166 5 0 0 0 - - -;
#X obj 100 113 delay 100;
#X connect 0 0 2 0;
#X connect 2 0 3 0;
#X connect 3 0 7 0;
#X connect 3 1 5 0;
#X connect 4 0 6 0;
#X connect 4 0 1 0;
#X connect 5 0 6 0;
#X connect 5 0 1 0;
#X connect 7 0 4 0;
#X restore 520 440 pd ledpulse;
#X obj 440 86 print;
#X obj 360 24 select 0 1;
#X msg 217 661 1;
#X obj 217 686 s play;
#N canvas -701 262 450 300 ledpulse 0;
#X obj 42 31 inlet;
#X obj 42 160 outlet;
#X obj 42 59 bng 15 250 50 0 empty empty empty 17 7 0 10 -262144 -1
-1;
#X obj 42 79 t b b;
#X msg 42 128 0;
#X msg 125 128 1;
#X floatatom 80 128 5 0 0 0 - - -;
#X obj 42 103 delay 100;
#X connect 0 0 2 0;
#X connect 2 0 3 0;
#X connect 3 0 7 0;
#X connect 3 1 5 0;
#X connect 4 0 6 0;
#X connect 4 0 1 0;
#X connect 5 0 1 0;
#X connect 5 0 6 0;
#X connect 7 0 4 0;
#X restore 108 72 pd ledpulse;
#X obj 520 463 s ttSWLED;
#X msg 264 477 0;
#X obj 264 500 s arm;
#X obj 368 455 print;
#X obj 189 249 select 0 1;
#X msg 520 394 stop;
#X floatatom 370 185 5 0 0 0 - - -;
#X obj 217 427 t b b b b b;
#X obj 280 451 s startover;
#X obj 189 217 expr if (($f1 == 1) && ($f2 == 1) && ($f3 != 1) \, 1
\, 0);
#X floatatom 510 188 5 0 0 0 - - -;
#X obj 267 273 select 0 1;
#X obj 267 249 expr if (($f1 == 0) && ($f2 == 1) && ($f3 == 1) \, 1
\, 0);
#X floatatom 233 188 5 0 0 0 - - -;
#X msg 368 433 1 --RECORDING--;
#X msg 248 531 1 --DONE--;
#X msg 440 60 1 ARMED hit play;
#X obj 108 45 r ttD1;
#X obj 108 99 s ttTopLED;
#X obj 267 77 bng 15 250 50 0 empty empty empty 17 7 0 10 -262144 -1
-1;
#X obj 360 86 s pauseplot;
#X msg 394 60 1;
#X msg 360 60 0;
#X obj 267 106 tgl 15 0 empty empty empty 17 7 0 10 -262144 -1 -1 0
1;
#X msg 292 77 0;
#X obj 385 403 t b;
#X obj 368 355 == 1;
#X obj 368 377 select 1;
#X obj 520 417 metro 250;
#X obj 108 126 s startover;
#X obj 217 636 delay 0.01;
#X obj 360 -8 r \$0-arm-ch1-toggle-s;
#X obj 299 385 bng 15 250 50 0 empty empty empty 17 7 0 10 -262144
-1 -1;
#X obj 349 163 r \$0-arm-ch1-toggle-s;
#X obj 189 163 r \$0-play-s;
#X floatatom 133 277 5 0 0 0 - - -;
#X msg 189 188 1;
#X connect 0 0 17 0;
#X connect 0 1 20 0;
#X connect 0 1 36 0;
#X connect 4 0 10 0;
#X connect 6 0 32 0;
#X connect 6 1 26 0;
#X connect 6 1 31 0;
#X connect 6 1 34 0;
#X connect 7 0 8 0;
#X connect 9 0 28 0;
#X connect 11 0 12 0;
#X connect 14 1 0 0;
#X connect 15 0 38 0;
#X connect 17 0 40 0;
#X connect 17 0 15 0;
#X connect 17 1 2 0;
#X connect 17 2 25 0;
#X connect 17 3 11 0;
#X connect 17 4 18 0;
#X connect 19 0 14 0;
#X connect 19 0 45 0;
#X connect 20 0 19 2;
#X connect 20 0 22 2;
#X connect 21 1 0 1;
#X connect 22 0 21 0;
#X connect 24 0 13 0;
#X connect 25 0 3 0;
#X connect 26 0 5 0;
#X connect 27 0 9 0;
#X connect 27 0 29 0;
#X connect 29 0 33 0;
#X connect 31 0 30 0;
#X connect 32 0 30 0;
#X connect 33 0 22 0;
#X connect 33 0 19 0;
#X connect 34 0 33 0;
#X connect 35 0 38 0;
#X connect 36 0 37 0;
#X connect 37 0 24 0;
#X connect 37 0 35 0;
#X connect 38 0 1 0;
#X connect 38 0 4 0;
#X connect 40 0 7 0;
#X connect 41 0 6 0;
#X connect 43 0 16 0;
#X connect 43 0 19 1;
#X connect 43 0 22 1;
#X connect 44 0 23 0;
#X connect 44 0 46 0;
#X connect 46 0 19 0;
#X connect 46 0 22 0;
#X coords 0 831 1 830 85 60 0;
#X restore 746 186 pd recording;
#X obj 236 101 tgl 15 0 \$0-arm-ch1-toggle-s \$0-arm-ch1-toggle-r ARM_CH1
17 7 0 10 -262144 -1 -1 0 1;
#X obj 235 122 tgl 15 0 \$0-arm-ch2-toggle-s \$0-arm-ch2-toggle-r ARM_CH2
17 7 0 10 -262144 -1 -1 0 1;
#X obj 236 31 tgl 15 0 \$0-stereo-mode-toggle-s \$0-stereo-mode-toggle-r
Stereo_Mode 17 7 0 10 -262144 -1 -1 0 1;
#X text 100 552 if you call this patch from another patch as an abstraction
you can add your own id#;
#X obj 120 410 r \$0-play-s;
#X text 785 563 mute button?;
#X obj 49 716 metro 250;
#X obj 49 742 snapshot~;
#X floatatom 49 763 10 0 0 0 - - -;
#X floatatom 100 691 5 0 0 0 - - -;
#X obj 112 731 bng 15 250 50 0 empty empty empty 17 7 0 10 -262144
-1 -1;
#X msg 59 691 stop;
#X obj 49 668 bng 15 250 50 0 empty empty empty 17 7 0 10 -262144 -1
-1;
#X obj 298 626 loadbang;
#X floatatom 298 668 5 0 0 0 - - -;
#X obj 298 647 f \$0;
#X obj 411 792 hsl 200 15 0 1 0 0 \$0-play-window-size-s \$0-play-window-size-r
Window_Size -2 -8 0 10 -262144 -1 -1 0 1;
#X obj 273 253 hsl 200 15 0 1 0 0 \$0-play-window-postion-s \$0-play-window-postion-r
Window_Position -2 -8 0 10 -262144 -1 -1 0 1;
#X msg 456 741 0.449991;
#X obj 413 741 bng 15 250 50 0 empty empty empty 17 7 0 10 -262144
-1 -1;
#X obj 905 32 tt_hw_io;
#N canvas 61 49 848 864 patch-to-hardware-glue 0;
#X obj 31 36 r TTi;
#X obj 31 64 route adc tact digital;
#X obj 74 261 print TACT:;
#X obj 31 447 route 1 2 3 4 5 6;
#X obj 113 489 s \$0-master-vol-r;
#X obj 117 101 route 1 2 3 4;
#X obj 117 200 s \$0-play-r;
#X obj 135 174 s \$0-stop-r;
#X obj 154 150 s \$0-phasor-reset-r;
#X obj 173 126 s \$0-clock-in-r;
#X text 215 100 tie digital inputs to patch controls;
#X obj 31 600 s \$0-start-pos-r;
#X obj 47 574 s \$0-end-pos-r;
#X obj 64 546 s \$0-play-window-postion-r;
#X obj 599 314 send;
#X obj 599 237 r TTo;
#X msg 599 263 \$2 TTo\$1;
#X obj 599 288 unpack f s;
#X obj 609 140 s TTo;
#X msg 664 107 3 0;
#X msg 696 107 3 1;
#X msg 591 107 2 0;
#X msg 623 107 2 1;
#X msg 525 107 1 0;
#X msg 557 107 1 1;
#X text 545 87 test msg to LED outputs;
#X obj 439 255 r \$0-eof-s;
#N canvas -929 400 450 300 ledpulse 0;
#X obj 42 31 inlet;
#X obj 42 160 outlet;
#X obj 42 59 bng 15 250 50 0 empty empty empty 17 7 0 10 -262144 -1
-1;
#X obj 42 79 t b b;
#X msg 42 128 0;
#X msg 125 128 1;
#X floatatom 80 128 5 0 0 0 - - -;
#X obj 42 103 delay 100;
#X connect 0 0 2 0;
#X connect 2 0 3 0;
#X connect 3 0 7 0;
#X connect 3 1 5 0;
#X connect 4 0 6 0;
#X connect 4 0 1 0;
#X connect 5 0 1 0;
#X connect 5 0 6 0;
#X connect 7 0 4 0;
#X restore 439 281 pd ledpulse;
#X obj 439 359 send;
#X obj 439 333 unpack f s;
#X msg 439 307 \$1 TTo1;
#X text 437 232 pulse LED A on EOF;
#X text 142 447 tie knobs to sliders;
#X connect 0 0 1 0;
#X connect 1 0 3 0;
#X connect 1 1 2 0;
#X connect 1 2 5 0;
#X connect 3 0 11 0;
#X connect 3 1 12 0;
#X connect 3 2 13 0;
#X connect 3 5 4 0;
#X connect 5 0 6 0;
#X connect 5 1 7 0;
#X connect 5 2 8 0;
#X connect 5 3 9 0;
#X connect 15 0 16 0;
#X connect 16 0 17 0;
#X connect 17 0 14 0;
#X connect 17 1 14 1;
#X connect 19 0 18 0;
#X connect 20 0 18 0;
#X connect 21 0 18 0;
#X connect 22 0 18 0;
#X connect 23 0 18 0;
#X connect 24 0 18 0;
#X connect 26 0 27 0;
#X connect 27 0 30 0;
#X connect 29 0 28 0;
#X connect 29 1 28 1;
#X connect 30 0 29 0;
#X restore 887 182 pd patch-to-hardware-glue;
#X text 785 595 start / end bypass restriction doesn't work w/ hardware
interface;
#X text 785 531 display total time for loaded sample + current postion
time;
#X connect 6 0 4 0;
#X connect 9 0 10 0;
#X connect 10 0 45 0;
#X connect 46 0 47 0;
#X connect 47 0 48 0;
#X connect 57 0 4 0;
#X connect 59 0 60 0;
#X connect 59 0 63 0;
#X connect 60 0 61 0;
#X connect 62 0 59 1;
#X connect 64 0 59 0;
#X connect 65 0 59 0;
#X connect 66 0 68 0;
#X connect 68 0 67 0;
#X connect 71 0 69 0;
#X connect 72 0 69 0;
#X coords 0 -1 1 1 700 380 1 10 10;
