#N canvas 57 22 1202 885 10;
#X obj 259 58 loadbang;
#X obj 259 86 delay 300;
#X msg 259 114 1;
#X msg 219 142 open;
#X text 46 33 gate inputs 0-3;
#X text 545 32 tact sw 0-2;
#X text 267 30 adc 0-5;
#X text 918 451 top;
#X text 941 418 bottom;
#X text 965 388 switchLED;
#N canvas 184 58 815 717 removenoise 0;
#X obj 99 26 inlet;
#X obj 288 94 f;
#X obj 98 190 i;
#X text 298 143 smooth and remove noise;
#X obj 98 270 outlet;
#X obj 99 53 t f b;
#X obj 99 123 expr ($f1*(($f2*-1)+1))+($f3*$f2);
#X obj 60 96 sel 0;
#X obj 60 144 0;
#X msg 202 88 0.3;
#X obj 98 167 / 5;
#X obj 98 212 * 5;
#X connect 0 0 5 0;
#X connect 1 0 6 2;
#X connect 2 0 11 0;
#X connect 5 0 7 0;
#X connect 5 1 9 0;
#X connect 6 0 1 0;
#X connect 6 0 10 0;
#X connect 7 0 8 0;
#X connect 7 1 6 0;
#X connect 8 0 1 0;
#X connect 8 0 9 0;
#X connect 8 0 6 0;
#X connect 9 0 6 1;
#X connect 10 0 2 0;
#X connect 11 0 4 0;
#X restore 259 755 pd removenoise;
#N canvas 676 202 641 735 removenoise 0;
#X obj 99 26 inlet;
#X obj 288 94 f;
#X text 298 143 smooth and remove noise;
#X obj 105 268 outlet;
#X obj 99 53 t f b;
#X obj 99 123 expr ($f1*(($f2*-1)+1))+($f3*$f2);
#X obj 60 96 sel 0;
#X obj 60 144 0;
#X msg 202 88 0.3;
#X obj 104 181 i;
#X obj 104 158 / 5;
#X obj 104 203 * 5;
#X connect 0 0 4 0;
#X connect 1 0 5 2;
#X connect 4 0 6 0;
#X connect 4 1 8 0;
#X connect 5 0 1 0;
#X connect 5 0 10 0;
#X connect 6 0 7 0;
#X connect 6 1 5 0;
#X connect 7 0 1 0;
#X connect 7 0 8 0;
#X connect 7 0 5 0;
#X connect 8 0 5 1;
#X connect 9 0 11 0;
#X connect 10 0 9 0;
#X connect 11 0 3 0;
#X restore 281 648 pd removenoise;
#N canvas 0 50 677 712 removenoise 0;
#X obj 99 26 inlet;
#X obj 288 94 f;
#X text 298 143 smooth and remove noise;
#X obj 97 292 outlet;
#X obj 99 53 t f b;
#X obj 99 123 expr ($f1*(($f2*-1)+1))+($f3*$f2);
#X obj 60 96 sel 0;
#X obj 60 144 0;
#X msg 202 88 0.3;
#X obj 129 258 change;
#X obj 98 190 i;
#X obj 98 167 / 5;
#X obj 98 212 * 5;
#X connect 0 0 4 0;
#X connect 1 0 5 2;
#X connect 4 0 6 0;
#X connect 4 1 8 0;
#X connect 5 0 1 0;
#X connect 5 0 11 0;
#X connect 6 0 7 0;
#X connect 6 1 5 0;
#X connect 7 0 1 0;
#X connect 7 0 8 0;
#X connect 7 0 5 0;
#X connect 8 0 5 1;
#X connect 10 0 12 0;
#X connect 11 0 10 0;
#X connect 12 0 3 0;
#X restore 303 531 pd removenoise;
#N canvas 0 50 804 804 removenoise 0;
#X obj 99 26 inlet;
#X obj 288 94 f;
#X text 298 143 smooth and remove noise;
#X obj 99 271 outlet;
#X obj 99 53 t f b;
#X obj 99 123 expr ($f1*(($f2*-1)+1))+($f3*$f2);
#X obj 60 96 sel 0;
#X obj 60 144 0;
#X msg 202 88 0.3;
#X obj 98 190 i;
#X obj 98 167 / 5;
#X obj 98 212 * 5;
#X connect 0 0 4 0;
#X connect 1 0 5 2;
#X connect 4 0 6 0;
#X connect 4 1 8 0;
#X connect 5 0 1 0;
#X connect 5 0 10 0;
#X connect 6 0 7 0;
#X connect 6 1 5 0;
#X connect 7 0 1 0;
#X connect 7 0 8 0;
#X connect 7 0 5 0;
#X connect 8 0 5 1;
#X connect 9 0 11 0;
#X connect 10 0 9 0;
#X connect 11 0 3 0;
#X restore 325 421 pd removenoise;
#N canvas 0 50 736 762 removenoise 0;
#X obj 99 26 inlet;
#X obj 288 94 f;
#X text 298 143 smooth and remove noise;
#X obj 102 300 outlet;
#X obj 99 53 t f b;
#X obj 99 123 expr ($f1*(($f2*-1)+1))+($f3*$f2);
#X obj 60 96 sel 0;
#X obj 60 144 0;
#X msg 202 88 0.3;
#X obj 102 269 change;
#X obj 98 190 i;
#X obj 98 167 / 5;
#X obj 98 212 * 5;
#X connect 0 0 4 0;
#X connect 1 0 5 2;
#X connect 4 0 6 0;
#X connect 4 1 8 0;
#X connect 5 0 1 0;
#X connect 5 0 11 0;
#X connect 6 0 7 0;
#X connect 6 1 5 0;
#X connect 7 0 1 0;
#X connect 7 0 8 0;
#X connect 7 0 5 0;
#X connect 8 0 5 1;
#X connect 10 0 12 0;
#X connect 11 0 10 0;
#X connect 12 0 3 0;
#X restore 347 313 pd removenoise;
#N canvas 0 50 833 743 removenoise 0;
#X obj 99 26 inlet;
#X obj 288 94 f;
#X text 298 143 smooth and remove noise;
#X obj 99 280 outlet;
#X obj 99 53 t f b;
#X obj 99 123 expr ($f1*(($f2*-1)+1))+($f3*$f2);
#X obj 60 96 sel 0;
#X obj 60 144 0;
#X msg 202 88 0.3;
#X obj 98 190 i;
#X obj 98 167 / 5;
#X obj 98 212 * 5;
#X connect 0 0 4 0;
#X connect 1 0 5 2;
#X connect 4 0 6 0;
#X connect 4 1 8 0;
#X connect 5 0 1 0;
#X connect 5 0 10 0;
#X connect 6 0 7 0;
#X connect 6 1 5 0;
#X connect 7 0 1 0;
#X connect 7 0 8 0;
#X connect 7 0 5 0;
#X connect 8 0 5 1;
#X connect 9 0 11 0;
#X connect 10 0 9 0;
#X connect 11 0 3 0;
#X restore 370 206 pd removenoise;
#X obj 803 39 r led;
#X obj 803 65 % 8;
#X floatatom 803 223 5 0 0 0 - - -;
#X floatatom 890 65 5 0 0 0 - - -;
#X obj 842 65 div 4;
#X obj 812 134 div 2;
#X obj 803 108 expr $f1- 4*$f2;
#X floatatom 890 134 5 0 0 0 - - -;
#X obj 803 197 div 1;
#X obj 803 171 expr $f1- 2*$f2;
#X obj 942 65 s ttSWLED;
#X obj 924 108 s ttTopLED;
#X obj 927 171 s ttBottomLED;
#X obj 538 398 moses 1000;
#X obj 631 398 moses 1;
#X text 854 37 disabled weird 3-bit binary LED display;
#X obj 538 373 tedium_switch 24;
#X obj 631 631 moses 1;
#X obj 538 597 tedium_switch 25;
#X obj 259 142 metro 5;
#X obj 259 175 terminal_tedium_adc;
#X msg 351 126 deadband 5;
#X msg 609 429 1;
#X obj 370 228 / 4000;
#X obj 259 780 / 4000;
#X obj 347 337 / 4000, f 8;
#X obj 538 429 bng 15 250 50 0 empty empty empty 17 7 0 10 -262144
-1 -1;
#X msg 351 147 smooth 16;
#X obj 538 631 moses 5000;
#X obj 595 678 print print: Q;
#X obj 638 196 moses 1;
#X obj 545 162 tedium_switch 23;
#X obj 602 230 print print: q;
#X obj 545 196 moses 2000;
#X msg 259 805 adc 1 \$1;
#X obj 259 830 s TTi;
#X obj 281 673 / 4000;
#X obj 281 723 s TTi;
#X msg 281 698 adc 2 \$1;
#X obj 303 556 / 4000;
#X obj 303 606 s TTi;
#X msg 303 581 adc 3 \$1;
#X obj 325 446 / 4000;
#X obj 325 496 s TTi;
#X msg 325 471 adc 4 \$1;
#X obj 347 387 s TTi;
#X msg 347 362 adc 5 \$1;
#X obj 370 278 s TTi;
#X msg 370 253 adc 5 \$1;
#X obj 44 244 tedium_input 14;
#X obj 43 326 tedium_input 27;
#X obj 43 374 s TTi;
#X obj 44 292 s TTi;
#X obj 43 205 s TTi;
#X obj 43 157 tedium_input 17;
#X obj 44 110 s TTi;
#X obj 44 62 tedium_input 4;
#X msg 44 85 digital 1;
#X msg 44 267 digital 3;
#X msg 43 180 digital 2;
#X msg 43 349 digital 4;
#X obj 546 117 s TTi;
#X obj 546 69 tedium_input 23;
#X msg 546 92 tact 1;
#X obj 539 563 s TTi;
#X obj 539 515 tedium_input 25;
#X msg 539 538 tact 2;
#X obj 539 335 s TTi;
#X obj 539 287 tedium_input 24;
#X msg 539 310 tact 3;
#X obj 812 452 tedium_output 16;
#X obj 833 419 tedium_output 12;
#X obj 854 389 tedium_output 26;
#X obj 812 333 r TTo;
#X obj 812 360 route 1 2 3;
#X obj 538 454 print play;
#X obj 609 478 print arm;
#X text 811 307 LED outputs;
#X connect 0 0 1 0;
#X connect 1 0 3 0;
#X connect 1 0 2 0;
#X connect 2 0 35 0;
#X connect 3 0 36 0;
#X connect 10 0 40 0;
#X connect 11 0 52 0;
#X connect 12 0 55 0;
#X connect 13 0 58 0;
#X connect 14 0 41 0;
#X connect 15 0 39 0;
#X connect 16 0 17 0;
#X connect 17 0 20 0;
#X connect 17 0 22 0;
#X connect 19 0 22 1;
#X connect 19 0 26 0;
#X connect 20 0 19 0;
#X connect 21 0 23 0;
#X connect 22 0 21 0;
#X connect 22 0 25 0;
#X connect 23 0 25 1;
#X connect 24 0 18 0;
#X connect 25 0 24 0;
#X connect 29 0 42 0;
#X connect 29 1 38 0;
#X connect 32 0 29 0;
#X connect 32 1 30 0;
#X connect 34 0 44 0;
#X connect 34 1 33 0;
#X connect 35 0 36 0;
#X connect 36 0 10 0;
#X connect 36 1 11 0;
#X connect 36 2 12 0;
#X connect 36 3 13 0;
#X connect 36 4 14 0;
#X connect 36 5 15 0;
#X connect 37 0 36 0;
#X connect 38 0 92 0;
#X connect 39 0 64 0;
#X connect 40 0 50 0;
#X connect 41 0 62 0;
#X connect 42 0 91 0;
#X connect 43 0 36 0;
#X connect 44 1 45 0;
#X connect 47 0 49 0;
#X connect 47 1 46 0;
#X connect 49 1 48 0;
#X connect 50 0 51 0;
#X connect 52 0 54 0;
#X connect 54 0 53 0;
#X connect 55 0 57 0;
#X connect 57 0 56 0;
#X connect 58 0 60 0;
#X connect 60 0 59 0;
#X connect 62 0 61 0;
#X connect 64 0 63 0;
#X connect 65 0 74 0;
#X connect 66 0 76 0;
#X connect 70 0 75 0;
#X connect 72 0 73 0;
#X connect 73 0 71 0;
#X connect 74 0 68 0;
#X connect 75 0 69 0;
#X connect 76 0 67 0;
#X connect 78 0 79 0;
#X connect 79 0 77 0;
#X connect 81 0 82 0;
#X connect 82 0 80 0;
#X connect 84 0 85 0;
#X connect 85 0 83 0;
#X connect 89 0 90 0;
#X connect 90 0 86 0;
#X connect 90 1 87 0;
#X connect 90 2 88 0;
