#N canvas 115 315 719 607 10;
#X msg 368 -50 1;
#X obj 133 107 tgl 20 0 empty empty empty 0 -6 0 8 -249631 -355 -355
0 1;
#X obj 104 106 bng 20 250 50 0 empty empty empty 0 -6 0 8 -204465 -1
-1;
#X obj 159 106 bng 20 250 50 0 empty empty empty 0 -6 0 8 -189457 -1
-1;
#X text 102 127 start;
#X text 156 124 stop;
#X symbolatom 114 142 9 0 0 0 - - -;
#X obj 521 -23 writesf~ 2;
#X obj 385 -142 pack s s;
#X msg 385 -116 open \$1\$2 \, start;
#X obj 557 -63 adc~;
#X obj 104 5 inlet;
#X obj 159 51 inlet;
#N canvas 1020 221 618 623 hmstimer 0;
#X obj 289 259 timer;
#X floatatom 302 312 5 0 0 0 - - -;
#X msg 289 234 bang;
#X msg 122 151 bang;
#X obj 122 214 metro 1000;
#X msg 139 179 stop, f 5;
#X obj 289 332 t f f f;
#N canvas 1228 49 451 356 hours 0;
#X obj 27 22 inlet;
#X obj 27 155 outlet;
#X obj 27 54 / 60;
#X obj 27 86 / 60;
#X obj 27 118 int;
#X obj 109 265 outlet;
#X obj 136 175 moses 10;
#X msg 194 203 set %d;
#X msg 136 203 set 0%d;
#X obj 109 234 makefilename;
#X obj 109 152 t f f;
#X connect 0 0 2 0;
#X connect 2 0 3 0;
#X connect 3 0 4 0;
#X connect 4 0 1 0;
#X connect 4 0 10 0;
#X connect 6 0 8 0;
#X connect 6 1 7 0;
#X connect 7 0 9 0;
#X connect 8 0 9 0;
#X connect 9 0 5 0;
#X connect 10 0 9 0;
#X connect 10 1 6 0;
#X restore 347 363 pd hours;
#X obj 289 284 / 1000;
#N canvas 1087 49 592 419 mins 0;
#X obj 77 19 inlet;
#X text 118 14 secs;
#X text 134 53 hrs;
#X obj 92 53 inlet;
#X obj 92 80 * 60;
#X obj 92 107 * 60;
#X obj 77 132 -;
#X obj 77 251 outlet;
#X obj 77 180 int;
#X obj 77 158 / 60;
#X obj 197 268 moses 10;
#X obj 170 327 makefilename;
#X obj 170 245 t f f;
#X msg 258 296 set %d;
#X msg 197 296 set 0%d;
#X obj 170 355 outlet;
#X connect 0 0 6 0;
#X connect 3 0 4 0;
#X connect 4 0 5 0;
#X connect 5 0 6 1;
#X connect 6 0 9 0;
#X connect 8 0 7 0;
#X connect 8 0 12 0;
#X connect 9 0 8 0;
#X connect 10 0 14 0;
#X connect 10 1 13 0;
#X connect 11 0 15 0;
#X connect 12 0 11 0;
#X connect 12 1 10 0;
#X connect 13 0 11 0;
#X connect 14 0 11 0;
#X restore 308 421 pd mins;
#N canvas 1073 49 606 450 secs 0;
#X obj 144 -29 inlet;
#X obj 159 75 inlet;
#X obj 243 -29 inlet;
#X obj 159 3 * 60;
#X obj 159 28 * 60;
#X obj 144 53 -;
#X obj 144 135 -;
#X obj 159 108 * 60;
#X obj 144 160 int;
#X obj 144 197 outlet;
#X obj 229 209 moses 10;
#X obj 201 268 makefilename;
#X obj 201 186 t f f;
#X msg 290 237 set %d;
#X msg 229 237 set 0%d;
#X obj 201 295 outlet;
#X connect 0 0 5 0;
#X connect 1 0 7 0;
#X connect 2 0 3 0;
#X connect 3 0 4 0;
#X connect 4 0 5 1;
#X connect 5 0 6 0;
#X connect 6 0 8 0;
#X connect 7 0 6 1;
#X connect 8 0 9 0;
#X connect 8 0 12 0;
#X connect 10 0 14 0;
#X connect 10 1 13 0;
#X connect 11 0 15 0;
#X connect 12 0 11 0;
#X connect 12 1 10 0;
#X connect 13 0 11 0;
#X connect 14 0 11 0;
#X restore 289 460 pd secs;
#X obj 373 448 makefilename;
#X msg 373 425 set \$1:%s;
#X obj 328 522 makefilename;
#X msg 373 471 set \$1:%s;
#X obj 120 101 cnv 15 70 40 empty empty empty 20 12 0 14 -245490 -66577
0;
#X symbolatom 123 123 9 0 0 0 - - -;
#X obj 123 105 bng 15 250 50 0 empty empty empty 17 7 0 10 -24198 -1
-1;
#X obj 140 105 bng 15 250 50 0 empty empty empty 17 7 0 10 -262131
-1 -1;
#X obj 157 105 bng 15 250 50 0 empty empty empty 17 7 0 9 -258699 -1
-1;
#X obj 328 545 outlet;
#X msg 50 318 0;
#X obj 50 290 loadbang;
#X obj 123 17 inlet;
#X obj 140 42 inlet;
#X obj 157 69 inlet;
#X connect 0 0 8 0;
#X connect 2 0 0 0;
#X connect 3 0 4 0;
#X connect 4 0 0 1;
#X connect 5 0 4 0;
#X connect 6 0 10 0;
#X connect 6 1 9 0;
#X connect 6 2 7 0;
#X connect 7 0 9 1;
#X connect 7 0 10 2;
#X connect 7 1 12 0;
#X connect 8 0 6 0;
#X connect 8 0 1 0;
#X connect 9 0 10 1;
#X connect 9 1 11 0;
#X connect 10 1 13 0;
#X connect 11 0 14 0;
#X connect 12 0 11 0;
#X connect 13 0 16 0;
#X connect 13 0 20 0;
#X connect 14 0 13 0;
#X connect 17 0 3 0;
#X connect 18 0 5 0;
#X connect 19 0 2 0;
#X connect 21 0 6 0;
#X connect 22 0 21 0;
#X connect 23 0 17 0;
#X connect 24 0 18 0;
#X connect 25 0 19 0;
#X coords 0 623 1 622 85 60 0;
#X restore 288 35 pd hmstimer;
#X obj 321 194 outlet;
#X obj 133 195 outlet;
#X symbolatom 430 -167 30 0 0 0 - - -;
#X obj 104 224 s \$0-cmd_start_rec;
#X obj 159 171 s \$0-cmd_stop_rec;
#X obj 319 -293 r \$0-cmd_stop_rec;
#X obj 521 -118 r \$0-cmd_stop_rec;
#X msg 521 -95 stop;
#X obj 278 171 r \$0-cmd_stop_rec;
#X obj 288 -320 r \$0-cmd_start_rec;
#X obj 351 -266 r \$0-cmd_start_rec;
#N canvas 222 67 633 505 \$0-rec_file_namer 0;
#X obj 59 93 date;
#X floatatom 67 205 0 0 0 0 - - -;
#X floatatom 63 256 0 0 0 0 - - -;
#X floatatom 59 312 0 0 0 0 - - -;
#X floatatom 80 127 0 0 0 0 - - -;
#X floatatom 75 153 0 0 0 0 - - -;
#X floatatom 71 179 0 0 0 0 - - -;
#X floatatom 186 161 0 0 0 0 - - -;
#X floatatom 179 214 0 0 0 0 - - -;
#X floatatom 172 267 0 0 0 0 - - -;
#X obj 172 92 time;
#X floatatom 193 127 0 0 0 0 - - -;
#X text 243 126 msec;
#X text 214 159 sec;
#X text 204 217 min;
#X text 193 270 hours;
#X obj 59 67 bng 15 250 50 0 empty empty empty 17 7 0 10 -262144 -1
-1;
#X obj 155 412 symbol;
#X obj 155 438 outlet;
#X obj 59 40 inlet;
#X msg 236 456 set \$1;
#X text 286 455 example useage at outlet;
#X msg 236 482 /rec_2019-02-01_12-08-31.wav;
#X msg 155 386 /rec_\$1-\$2-\$3_\$4-\$5-\$6.wav;
#N canvas 945 458 450 300 \$0-2_digits 0;
#X obj 56 63 moses 10;
#X msg 114 89 set %d;
#X msg 56 89 set 0%d;
#X obj 29 122 makefilename;
#X obj 29 36 t f f;
#X obj 29 9 inlet;
#X obj 29 143 outlet;
#X text 76 12 adds a 0 in front of #'s 0-9;
#X connect 0 0 2 0;
#X connect 0 1 1 0;
#X connect 1 0 3 0;
#X connect 2 0 3 0;
#X connect 3 0 6 0;
#X connect 4 0 3 0;
#X connect 4 1 0 0;
#X connect 5 0 4 0;
#X restore 186 185 pd \$0-2_digits;
#N canvas 945 458 450 300 \$0-2_digits 0;
#X obj 56 63 moses 10;
#X msg 114 89 set %d;
#X msg 56 89 set 0%d;
#X obj 29 122 makefilename;
#X obj 29 36 t f f;
#X obj 29 9 inlet;
#X obj 29 143 outlet;
#X text 76 12 adds a 0 in front of #'s 0-9;
#X connect 0 0 2 0;
#X connect 0 1 1 0;
#X connect 1 0 3 0;
#X connect 2 0 3 0;
#X connect 3 0 6 0;
#X connect 4 0 3 0;
#X connect 4 1 0 0;
#X connect 5 0 4 0;
#X restore 179 236 pd \$0-2_digits;
#N canvas 945 458 450 300 \$0-2_digits 0;
#X obj 56 63 moses 10;
#X msg 114 89 set %d;
#X msg 56 89 set 0%d;
#X obj 29 122 makefilename;
#X obj 29 36 t f f;
#X obj 29 9 inlet;
#X obj 29 143 outlet;
#X text 76 12 adds a 0 in front of #'s 0-9;
#X connect 0 0 2 0;
#X connect 0 1 1 0;
#X connect 1 0 3 0;
#X connect 2 0 3 0;
#X connect 3 0 6 0;
#X connect 4 0 3 0;
#X connect 4 1 0 0;
#X connect 5 0 4 0;
#X restore 172 289 pd \$0-2_digits;
#N canvas 945 458 450 300 \$0-2_digits 0;
#X obj 56 63 moses 10;
#X msg 114 89 set %d;
#X msg 56 89 set 0%d;
#X obj 29 122 makefilename;
#X obj 29 36 t f f;
#X obj 29 9 inlet;
#X obj 29 143 outlet;
#X text 76 12 adds a 0 in front of #'s 0-9;
#X connect 0 0 2 0;
#X connect 0 1 1 0;
#X connect 1 0 3 0;
#X connect 2 0 3 0;
#X connect 3 0 6 0;
#X connect 4 0 3 0;
#X connect 4 1 0 0;
#X connect 5 0 4 0;
#X restore 67 232 pd \$0-2_digits;
#N canvas 945 458 450 300 \$0-2_digits 0;
#X obj 56 63 moses 10;
#X msg 114 89 set %d;
#X msg 56 89 set 0%d;
#X obj 29 122 makefilename;
#X obj 29 36 t f f;
#X obj 29 9 inlet;
#X obj 29 143 outlet;
#X text 76 12 adds a 0 in front of #'s 0-9;
#X connect 0 0 2 0;
#X connect 0 1 1 0;
#X connect 1 0 3 0;
#X connect 2 0 3 0;
#X connect 3 0 6 0;
#X connect 4 0 3 0;
#X connect 4 1 0 0;
#X connect 5 0 4 0;
#X restore 63 283 pd \$0-2_digits;
#X obj 155 360 pack f s s s s s;
#X connect 0 0 3 0;
#X connect 0 1 2 0;
#X connect 0 2 1 0;
#X connect 0 3 6 0;
#X connect 0 4 5 0;
#X connect 0 5 4 0;
#X connect 1 0 27 0;
#X connect 2 0 28 0;
#X connect 3 0 29 0;
#X connect 7 0 24 0;
#X connect 8 0 25 0;
#X connect 9 0 26 0;
#X connect 10 0 9 0;
#X connect 10 1 8 0;
#X connect 10 2 7 0;
#X connect 10 3 11 0;
#X connect 16 0 10 0;
#X connect 16 0 0 0;
#X connect 17 0 18 0;
#X connect 17 0 20 0;
#X connect 19 0 16 0;
#X connect 20 0 22 0;
#X connect 23 0 17 0;
#X connect 24 0 29 5;
#X connect 25 0 29 4;
#X connect 26 0 29 3;
#X connect 27 0 29 2;
#X connect 28 0 29 1;
#X connect 29 0 23 0;
#X restore 430 -191 pd \$0-rec_file_namer;
#N canvas 295 403 395 169 \$0-rec_file_path_gen 0;
#X obj 18 102 outlet;
#X text 18 22 could setup something more complex here later to write
to different directories...;
#X obj 18 60 inlet;
#X msg 18 81 ./99;
#X connect 2 0 3 0;
#X connect 3 0 0 0;
#X restore 385 -219 pd \$0-rec_file_path_gen;
#X obj 368 -23 s \$0-rec-status;
#X obj 133 26 r \$0-rec-status;
#X msg 278 194 0;
#X obj 278 217 s \$0-rec-status;
#X obj 351 -245 t b b b b;
#X obj 46 -290 loadbang;
#X floatatom 46 -247 5 0 0 0 - - -;
#X obj 46 -268 f \$0;
#X obj 23 -290 bng 15 250 50 0 empty empty empty 17 7 0 10 -262144
-1 -1;
#X connect 0 0 27 0;
#X connect 1 0 15 0;
#X connect 2 0 17 0;
#X connect 3 0 18 0;
#X connect 8 0 9 0;
#X connect 9 0 7 0;
#X connect 10 0 7 0;
#X connect 10 1 7 1;
#X connect 11 0 2 0;
#X connect 12 0 3 0;
#X connect 13 0 6 0;
#X connect 16 0 8 1;
#X connect 19 0 13 1;
#X connect 20 0 21 0;
#X connect 21 0 7 0;
#X connect 22 0 14 0;
#X connect 22 0 29 0;
#X connect 23 0 13 0;
#X connect 24 0 31 0;
#X connect 25 0 16 0;
#X connect 26 0 8 0;
#X connect 28 0 1 0;
#X connect 29 0 30 0;
#X connect 31 0 13 2;
#X connect 31 1 0 0;
#X connect 31 2 26 0;
#X connect 31 3 25 0;
#X connect 32 0 34 0;
#X connect 34 0 33 0;
#X connect 35 0 34 0;
#X coords 0 -1 1 1 85 60 2 100 100;
