#N canvas 554 404 474 478 12;
#X obj 123 8 inlet;
#X obj 201 171 inlet~;
#X obj 183 30 inlet~;
#X obj 201 205 *~;
#X obj 123 70 *;
#X obj 123 39 t f f;
#X msg 201 89 1 \$1;
#X obj 201 117 -;
#X obj 183 144 *~;
#X obj 183 245 +~;
#X obj 182 280 /~ 2;
#X obj 181 317 outlet~;
#X connect 0 0 5 0;
#X connect 1 0 3 0;
#X connect 2 0 8 0;
#X connect 3 0 9 1;
#X connect 4 0 3 1;
#X connect 4 0 6 0;
#X connect 5 0 4 0;
#X connect 5 1 4 1;
#X connect 6 0 7 0;
#X connect 7 0 8 1;
#X connect 8 0 9 0;
#X connect 9 0 10 0;
#X connect 10 0 11 0;
