#N canvas 267 178 1264 746 12;
#X obj 179 116 osc~ 440;
#X obj 43 18 hsl 128 15 0 1 0 0 empty empty empty -2 -6 0 8 -262144
-1 -1 9100 1;
#X obj 146 259 dac~;
#X obj 174 74 random 1000;
#X obj 350 32 tgl 15 0 empty empty empty 0 -6 0 8 -262144 -1 -1 1 1
;
#X obj 276 73 metro 20;
#X obj 143 177 crossfader;
#X obj 392 63 random 1000;
#X obj 489 63 metro 20;
#X obj 388 101 phasor~ 880;
#X connect 0 0 6 1;
#X connect 1 0 6 0;
#X connect 3 0 0 0;
#X connect 3 0 5 1;
#X connect 4 0 5 0;
#X connect 4 0 8 0;
#X connect 5 0 3 0;
#X connect 6 0 2 0;
#X connect 6 0 2 1;
#X connect 7 0 8 1;
#X connect 7 0 9 0;
#X connect 8 0 7 0;
#X connect 9 0 6 2;
