#N canvas 150 260 1280 737 10;
#X declare -path dsp/rj/;
#X obj 36 111 outlet;
#X obj 80 111 outlet;
#X obj 125 111 outlet;
#X obj 169 112 outlet;
#X obj 216 89 outlet;
#X obj -9 111 outlet;
#X obj 216 112 s \$0-bang;
#X obj 638 74 outlet~;
#X obj 690 74 outlet~;
#X obj 738 74 outlet~;
#X obj 790 74 outlet;
#X obj 836 74 outlet;
#X obj 660 92 outlet~;
#X obj 703 115 outlet~;
#X obj 746 94 outlet~;
#X obj 595 57 rg.ambipanner~ ------------------;
#X text 85 7 amp thres;
#X text 178 3 xcf;
#X obj 692 22 r \$0-a.mdg;
#X obj 790 21 r \$0-a.mds;
#X obj 595 84 outlet~;
#X obj 616 101 outlet~;
#X obj 85 22 r \$0-s.at;
#X obj 180 22 r \$0-s.xcf;
#X obj 190 -149 inlet;
#X obj 312 -149 inlet;
#X obj 478 -151 inlet;
#X obj 190 -115 s \$0-s.xcf;
#X text 151 -168 sigmund~;
#X text 275 -167 dino~;
#X obj 312 -115 s \$0-d.cf;
#X text 375 -167 rj.grain~;
#X text 578 -168 rj.plate~;
#X obj 724 -151 inlet;
#X text 683 -172 rg.filter~;
#X obj 906 -153 inlet;
#X text 865 -174 rg.ambipanner~;
#X obj 724 -117 s \$0-f.f;
#X obj 906 -119 s \$0-a.mds;
#X text 0 -269 declare rjdj library for use with rj.grain~ & rj.plate~
;
#X obj -4 -206 cnv 15 200 20 empty empty inlets 20 12 0 9 -1 -262144
0;
#X obj -8 -62 cnv 15 800 20 empty empty dsp_chain 20 12 0 9 -1 -262144
0;
#X obj -3 -293 cnv 15 200 20 empty empty declaration_of_dependence
20 12 0 9 -1 -262144 0;
#X obj -8 -17 cnv 15 200 20 empty empty pitch.track-> 20 12 0 9 -1
-262144 0;
#X obj 331 -16 cnv 15 200 20 empty empty granular.delay.line-> 20 12
0 9 -1 -262144 0;
#X obj 592 -17 cnv 15 200 20 empty empty ambisonic.panner-> 20 12 0
9 -1 -262144 0;
#X obj 579 -150 inlet;
#X obj 579 -133 s \$0-p.ms;
#X obj 687 -151 inlet;
#X obj 687 -134 s \$0-f.ms;
#X obj 762 -151 inlet;
#X obj 762 -134 s \$0-f.r;
#X obj 869 -153 inlet;
#X obj 869 -136 s \$0-a.mdg;
#X obj 378 -149 inlet;
#X obj 378 -132 s \$0-g.ms;
#X obj 275 -149 inlet;
#X obj 275 -132 s \$0-d.ms;
#X obj 153 -149 inlet;
#X obj 153 -132 s \$0-s.at;
#X text -5 -167 audio input~;
#X obj -5 -147 inlet~;
#X obj -3 -249 declare -path dsp/rj/;
#X text -7 135 outs: midi \, index \, pc \, ic \, amp \, trigger \,
re-synthesis;
#X obj 228 -148 inlet;
#X obj 228 -93 s \$0-s.xa;
#X obj 117 48 r \$0-s.xa;
#X obj -9 72 rg.pitchtrack~ - - - - - - - - -;
#X obj 269 89 outlet;
#X text 655 39 manual deg \, dist;
#X obj 1046 -154 inlet;
#X obj 1046 -131 s \$0-euclid;
#X obj 595 24 r~ \$0-grain;
#X text 465 -167 contour data;
#X obj 478 -118 s \$0-cntr;
#X msg 345 148 choice \$1;
#X obj 345 128 + 1;
#X obj 345 167 polygate~ 2 50;
#X obj 426 190 s \$0-g.s;
#X obj 345 219 s~ \$0-grain;
#X obj 345 104 r \$0-g.ms;
#X obj -5 -83 s~ \$0-sig;
#X obj -9 29 r~ \$0-sig;
#X obj 506 43 r~ \$0-sig;
#X obj 508 14 r \$0-cntr;
#X obj 506 127 *~;
#X obj 521 97 r dry.sig;
#X obj 345 194 *~;
#X obj 292 177 r fx.v;
#X obj -5 -123 hip~ 20;
#X obj -5 -103 *~ 2;
#X obj 506 70 svf~ 880 0.1;
#X obj 426 111 +bubbler~;
#X connect 15 0 20 0;
#X connect 15 1 21 0;
#X connect 15 2 7 0;
#X connect 15 3 12 0;
#X connect 15 4 8 0;
#X connect 15 5 13 0;
#X connect 15 6 9 0;
#X connect 15 7 14 0;
#X connect 15 8 10 0;
#X connect 15 9 11 0;
#X connect 18 0 15 1;
#X connect 19 0 15 2;
#X connect 22 0 67 1;
#X connect 23 0 67 3;
#X connect 24 0 27 0;
#X connect 25 0 30 0;
#X connect 26 0 74 0;
#X connect 33 0 37 0;
#X connect 35 0 38 0;
#X connect 46 0 47 0;
#X connect 48 0 49 0;
#X connect 50 0 51 0;
#X connect 52 0 53 0;
#X connect 54 0 55 0;
#X connect 56 0 57 0;
#X connect 58 0 59 0;
#X connect 61 0 89 0;
#X connect 64 0 65 0;
#X connect 66 0 67 2;
#X connect 67 0 5 0;
#X connect 67 1 0 0;
#X connect 67 2 1 0;
#X connect 67 3 2 0;
#X connect 67 4 3 0;
#X connect 67 5 4 0;
#X connect 67 5 6 0;
#X connect 67 6 68 0;
#X connect 70 0 71 0;
#X connect 72 0 15 0;
#X connect 75 0 77 0;
#X connect 76 0 75 0;
#X connect 77 0 87 0;
#X connect 77 2 78 0;
#X connect 80 0 76 0;
#X connect 82 0 67 0;
#X connect 83 0 91 0;
#X connect 83 0 92 0;
#X connect 84 0 92 0;
#X connect 85 0 15 0;
#X connect 86 0 85 1;
#X connect 87 0 79 0;
#X connect 88 0 87 1;
#X connect 89 0 90 0;
#X connect 90 0 81 0;
#X connect 91 0 85 0;
#X connect 91 2 85 0;
#X connect 92 0 77 1;
#X coords 0 0 1 1 200 130 0;
