#N canvas 0 63 1280 737 10;
#X declare -path dsp/rj/;
#X obj 36 111 outlet;
#X obj 80 111 outlet;
#X obj 125 111 outlet;
#X obj 169 112 outlet;
#X obj 219 89 outlet;
#X obj -9 111 outlet;
#X obj 216 112 s \$0-bang;
#X obj 638 74 outlet~;
#X obj 690 74 outlet~;
#X obj 738 74 outlet~;
#X obj 790 74 outlet;
#X obj 836 74 outlet;
#X obj 660 92 outlet~;
#X obj 703 115 outlet~;
#X obj 746 94 outlet~;
#X obj 595 57 rg.ambipanner~ ------------------;
#X text 85 7 amp thres;
#X text 178 3 xcf;
#X obj 692 22 r \$0-a.mdg;
#X obj 790 21 r \$0-a.mds;
#X obj 595 84 outlet~;
#X obj 616 101 outlet~;
#X obj 85 22 r \$0-s.at;
#X obj 180 22 r \$0-s.xcf;
#X obj 190 -149 inlet;
#X obj 312 -149 inlet;
#X obj 478 -151 inlet;
#X obj 190 -115 s \$0-s.xcf;
#X text 151 -168 sigmund~;
#X text 275 -167 dino~;
#X text 375 -167 rj.grain~;
#X text 578 -168 rj.plate~;
#X obj 724 -151 inlet;
#X text 683 -172 rg.filter~;
#X obj 906 -153 inlet;
#X text 865 -174 rg.ambipanner~;
#X obj 724 -117 s \$0-f.f;
#X obj 906 -119 s \$0-a.mds;
#X text 0 -269 declare rjdj library for use with rj.grain~ & rj.plate~
;
#X obj -4 -206 cnv 15 200 20 empty empty inlets 20 12 0 9 -1 -262144
0;
#X obj -8 -62 cnv 15 800 20 empty empty dsp_chain 20 12 0 9 -1 -262144
0;
#X obj -3 -293 cnv 15 200 20 empty empty declaration_of_dependence
20 12 0 9 -1 -262144 0;
#X obj -8 -17 cnv 15 200 20 empty empty pitch.track-> 20 12 0 9 -1
-262144 0;
#X obj 331 -16 cnv 15 200 20 empty empty dino~->partch~-> 20 12 0 9
-1 -262144 0;
#X obj 592 -17 cnv 15 200 20 empty empty ambisonic.panner-> 20 12 0
9 -1 -262144 0;
#X obj 579 -150 inlet;
#X obj 579 -133 s \$0-p.ms;
#X obj 687 -151 inlet;
#X obj 687 -134 s \$0-f.ms;
#X obj 762 -151 inlet;
#X obj 762 -134 s \$0-f.r;
#X obj 869 -153 inlet;
#X obj 869 -136 s \$0-a.mdg;
#X obj 378 -149 inlet;
#X obj 378 -132 s \$0-g.ms;
#X obj 275 -149 inlet;
#X obj 275 -132 s \$0-d.ms;
#X obj 153 -149 inlet;
#X obj 153 -132 s \$0-s.at;
#X text -5 -167 audio input~;
#X obj -5 -147 inlet~;
#X obj -3 -249 declare -path dsp/rj/;
#X text -7 135 outs: midi \, index \, pc \, ic \, amp \, trigger \,
re-synthesis;
#X obj 228 -148 inlet;
#X obj 228 -93 s \$0-s.xa;
#X obj 117 48 r \$0-s.xa;
#X obj -9 72 rg.pitchtrack~ - - - - - - - - -;
#X obj 280 89 outlet;
#X text 655 39 manual deg \, dist;
#X obj 1046 -154 inlet;
#X obj 1046 -131 s \$0-euclid;
#X text 465 -167 contour data;
#X obj 478 -118 s \$0-cntr;
#X obj -5 -82 s~ \$0-sig;
#X obj -9 29 r~ \$0-sig;
#X obj 384 21 r~ \$0-sig;
#X obj 502 127 *~;
#X obj 517 97 r dry.sig;
#X obj 502 70 svf~ 880;
#X text 470 -185 packed;
#X obj 595 24 r~ \$0-filter;
#X obj 384 95 rg.dino~;
#X obj 312 -115 s \$0-dc;
#X obj 406 65 r \$0-dc;
#X obj 384 133 rg.partch~;
#X obj 453 89 mtof;
#X obj 384 267 *~;
#X obj 331 250 r fx.v;
#X obj 384 292 s~ \$0-filter;
#X obj 483 169 r \$0-bang;
#X obj 483 220 metro 300;
#X obj 555 203 r glbl.it;
#X obj 483 245 bng 15 250 50 0 empty empty empty 17 7 0 10 -262144
-1 -1;
#X text 517 244 average note onset determines rate of partial change
;
#X obj 384 205 rj.plate~;
#X text 180 207 contour controls dry/wet signal;
#X obj -5 -125 hip~ 20;
#X obj -5 -105 *~ 2;
#X connect 15 0 20 0;
#X connect 15 1 21 0;
#X connect 15 2 7 0;
#X connect 15 3 12 0;
#X connect 15 4 8 0;
#X connect 15 5 13 0;
#X connect 15 6 9 0;
#X connect 15 7 14 0;
#X connect 15 8 10 0;
#X connect 15 9 11 0;
#X connect 18 0 15 1;
#X connect 19 0 15 2;
#X connect 22 0 66 1;
#X connect 23 0 66 3;
#X connect 24 0 27 0;
#X connect 25 0 82 0;
#X connect 26 0 72 0;
#X connect 32 0 36 0;
#X connect 34 0 37 0;
#X connect 45 0 46 0;
#X connect 47 0 48 0;
#X connect 49 0 50 0;
#X connect 51 0 52 0;
#X connect 53 0 54 0;
#X connect 55 0 56 0;
#X connect 57 0 58 0;
#X connect 60 0 96 0;
#X connect 63 0 64 0;
#X connect 65 0 66 2;
#X connect 66 0 5 0;
#X connect 66 0 85 0;
#X connect 66 1 0 0;
#X connect 66 2 1 0;
#X connect 66 3 2 0;
#X connect 66 4 3 0;
#X connect 66 5 4 0;
#X connect 66 6 67 0;
#X connect 66 7 6 0;
#X connect 69 0 70 0;
#X connect 74 0 66 0;
#X connect 75 0 78 0;
#X connect 75 0 81 0;
#X connect 76 0 15 0;
#X connect 77 0 76 1;
#X connect 78 0 76 0;
#X connect 78 2 76 0;
#X connect 80 0 15 0;
#X connect 81 0 84 0;
#X connect 83 0 81 1;
#X connect 83 0 94 1;
#X connect 84 0 94 0;
#X connect 85 0 84 1;
#X connect 86 0 88 0;
#X connect 87 0 86 1;
#X connect 89 0 90 0;
#X connect 90 0 84 2;
#X connect 90 0 92 0;
#X connect 91 0 90 1;
#X connect 94 0 86 0;
#X connect 96 0 97 0;
#X connect 97 0 73 0;
#X coords 0 0 1 1 200 130 0;
