#N canvas 0 22 1280 737 10;
#X declare -path rj/;
#X declare -path dsp/rj/;
#X obj 36 111 outlet;
#X obj 80 111 outlet;
#X obj 125 111 outlet;
#X obj 169 112 outlet;
#X obj 216 89 outlet;
#X obj -9 111 outlet;
#X obj 421 120 rg.dino~;
#X obj 690 45 r~ \$0-dino;
#X obj 878 145 s~ \$0-plate;
#X obj 216 112 s \$0-bang;
#X obj 389 346 outlet~;
#X obj 441 346 outlet~;
#X obj 489 346 outlet~;
#X obj 541 346 outlet;
#X obj 587 346 outlet;
#X obj 878 116 polygate~ 2 50;
#X obj 411 364 outlet~;
#X obj 454 387 outlet~;
#X obj 497 366 outlet~;
#X msg 878 94 choice \$1;
#X obj 878 74 + 1;
#X obj 609 162 s~ \$0-grain;
#X obj 609 137 polygate~ 2 50;
#X msg 609 112 choice \$1;
#X obj 609 92 + 1;
#X obj 340 160 s~ \$0-dino;
#X msg 340 117 choice \$1;
#X obj 340 97 + 1;
#X obj 340 136 polygate~ 2 50;
#X obj 707 20 r \$0-bang;
#X text 1039 18 incoming contour data;
#X obj -7 353 polygate~ 2 50;
#X msg -7 333 choice \$1;
#X obj -7 313 + 1;
#X obj -7 378 s~ \$0-ftr;
#X obj 346 329 rg.ambipanner~ ------------------;
#X obj 74 327 rg.filter~;
#X obj 690 114 +~;
#X text 85 7 amp thres;
#X text 178 3 xcf;
#X text 365 38 0 to 1 (dist - bit dec);
#X obj 443 294 r \$0-a.mdg;
#X obj 541 293 r \$0-a.mds;
#X obj 346 356 outlet~;
#X obj 367 373 outlet~;
#X obj 88 253 r \$0-f.f;
#X obj 159 254 r \$0-f.r;
#X obj 218 254 r \$0-f.c;
#X obj 131 306 r \$0-f.s;
#X obj 74 375 s \$0-f.s;
#X obj 959 139 s \$0-p.s;
#X obj 1010 78 r \$0-p.s;
#X obj 690 159 s \$0-g.s;
#X obj 741 69 r \$0-g.s;
#X obj 421 159 s \$0-d.s;
#X obj 466 101 r \$0-d.s;
#X obj -7 293 r \$0-f.ms;
#X obj 878 51 r \$0-p.ms;
#X obj 984 29 r \$0-p.c;
#X obj 609 68 r \$0-g.ms;
#X text 675 250 For re-synthesis;
#X obj 85 22 r \$0-s.at;
#X obj 180 22 r \$0-s.xcf;
#X obj 340 73 r \$0-d.ms;
#X obj 443 58 r \$0-d.cf;
#X obj 113 -148 inlet;
#X obj 235 -148 inlet;
#X obj 338 -148 inlet;
#X obj 113 -114 s \$0-s.xcf;
#X text 74 -167 sigmund~;
#X text 198 -166 dino~;
#X obj 235 -114 s \$0-d.cf;
#X text 298 -166 rj.grain~;
#X obj 690 86 rj.grain~;
#X obj 444 -147 inlet;
#X text 407 -166 rj.plate~;
#X obj 553 -149 inlet;
#X text 512 -170 rg.filter~;
#X obj 629 -149 inlet;
#X obj 735 -151 inlet;
#X text 694 -172 rg.ambipanner~;
#X obj 724 57 r \$0-g.c;
#X obj 338 -114 s \$0-g.c;
#X obj 444 -113 s \$0-p.c;
#X obj 553 -115 s \$0-f.f;
#X obj 629 -114 s \$0-f.c;
#X obj 735 -117 s \$0-a.mds;
#X text 0 -269 declare rjdj library for use with rj.grain~ & rj.plate~
;
#X obj -4 -206 cnv 15 200 20 empty empty inlets 20 12 0 9 -1 -262144
0;
#X obj -8 -62 cnv 15 800 20 empty empty dsp_chain 20 12 0 9 -1 -262144
0;
#X obj -3 -293 cnv 15 200 20 empty empty declaration_of_dependence
20 12 0 9 -1 -262144 0;
#X obj 677 220 cnv 15 200 20 empty empty misc. 20 12 0 9 -1 -262144
0;
#X text 768 25 bangs envelope;
#X text 768 37 for delay line;
#X text 1040 33 user selects solo or global;
#X text 1039 48 (pc/ic/rand) contour data;
#X obj -8 -17 cnv 15 200 20 empty empty pitch.track-> 20 12 0 9 -1
-262144 0;
#X obj 340 -15 cnv 15 200 20 empty empty distortion-> 20 12 0 9 -1
-262144 0;
#X obj 606 -15 cnv 15 200 20 empty empty granular.delay.line-> 20 12
0 9 -1 -262144 0;
#X obj 873 -14 cnv 15 200 20 empty empty plate.reverb-> 20 12 0 9 -1
-262144 0;
#X obj -6 220 cnv 15 200 20 empty empty SVF-> 20 12 0 9 -1 -262144
0;
#X obj 340 221 cnv 15 200 20 empty empty ambisonic.panner-> 20 12 0
9 -1 -262144 0;
#X obj 408 -148 inlet;
#X obj 408 -131 s \$0-p.ms;
#X obj 516 -149 inlet;
#X obj 516 -132 s \$0-f.ms;
#X obj 591 -149 inlet;
#X obj 591 -132 s \$0-f.r;
#X obj 698 -151 inlet;
#X obj 698 -134 s \$0-a.mdg;
#X obj 301 -148 inlet;
#X obj 301 -131 s \$0-g.ms;
#X obj 198 -148 inlet;
#X obj 198 -131 s \$0-d.ms;
#X obj 76 -148 inlet;
#X obj 76 -131 s \$0-s.at;
#X text 718 111 add live and gran sig;
#X text -5 -167 audio input~;
#X obj -5 -147 inlet~;
#X obj -5 -97 s~ \$0-sig;
#X obj -9 29 r~ \$0-sig;
#X obj 815 -172 inlet;
#X obj -3 -249 declare -path dsp/rj/;
#X text -8 178 outs: midi \, index \, pc \, ic \, amp \, trigger \,
re-synthesis;
#X obj 151 -147 inlet;
#X obj 151 -92 s \$0-s.xa;
#X obj 117 48 r \$0-s.xa;
#X obj -9 72 rg.pitchtrack~ - - - - - - - - -;
#X obj 269 89 outlet;
#X text 406 311 manual deg \, dist;
#X text 675 267 in the time domain using sigmund~ (CPU intensive);
#X obj 760 130 r \$0-euclid;
#X obj 875 -152 inlet;
#X obj 875 -129 s \$0-euclid;
#X obj 815 -147 s \$0-mv;
#X obj 361 257 r \$0-mv;
#X obj -5 -120 *~ 2;
#X obj 87 350 +~;
#X obj 74 282 r~ \$0-sig;
#X obj 421 81 r~ \$0-ftr;
#X obj 346 296 r~ \$0-grain;
#X connect 6 0 28 1;
#X connect 7 0 22 0;
#X connect 7 0 37 1;
#X connect 7 0 73 0;
#X connect 15 0 8 0;
#X connect 15 2 50 0;
#X connect 19 0 15 0;
#X connect 20 0 19 0;
#X connect 22 0 21 0;
#X connect 22 2 52 0;
#X connect 23 0 22 0;
#X connect 24 0 23 0;
#X connect 26 0 28 0;
#X connect 27 0 26 0;
#X connect 28 0 25 0;
#X connect 28 2 54 0;
#X connect 29 0 73 1;
#X connect 31 0 34 0;
#X connect 31 2 49 0;
#X connect 32 0 31 0;
#X connect 33 0 32 0;
#X connect 35 0 43 0;
#X connect 35 1 44 0;
#X connect 35 2 10 0;
#X connect 35 3 16 0;
#X connect 35 4 11 0;
#X connect 35 5 17 0;
#X connect 35 6 12 0;
#X connect 35 7 18 0;
#X connect 35 8 13 0;
#X connect 35 9 14 0;
#X connect 36 0 137 0;
#X connect 37 0 22 1;
#X connect 41 0 35 1;
#X connect 42 0 35 2;
#X connect 45 0 36 1;
#X connect 46 0 36 2;
#X connect 48 0 36 4;
#X connect 53 0 73 3;
#X connect 55 0 6 2;
#X connect 56 0 33 0;
#X connect 57 0 20 0;
#X connect 59 0 24 0;
#X connect 61 0 127 1;
#X connect 62 0 127 3;
#X connect 63 0 27 0;
#X connect 64 0 6 1;
#X connect 65 0 68 0;
#X connect 66 0 71 0;
#X connect 67 0 82 0;
#X connect 73 0 37 0;
#X connect 74 0 83 0;
#X connect 76 0 84 0;
#X connect 78 0 85 0;
#X connect 79 0 86 0;
#X connect 102 0 103 0;
#X connect 104 0 105 0;
#X connect 106 0 107 0;
#X connect 108 0 109 0;
#X connect 110 0 111 0;
#X connect 112 0 113 0;
#X connect 114 0 115 0;
#X connect 118 0 136 0;
#X connect 120 0 127 0;
#X connect 121 0 134 0;
#X connect 124 0 125 0;
#X connect 126 0 127 2;
#X connect 127 0 5 0;
#X connect 127 1 0 0;
#X connect 127 2 1 0;
#X connect 127 3 2 0;
#X connect 127 4 3 0;
#X connect 127 5 4 0;
#X connect 127 5 9 0;
#X connect 127 6 128 0;
#X connect 132 0 133 0;
#X connect 136 0 119 0;
#X connect 137 0 31 1;
#X connect 138 0 31 0;
#X connect 138 0 36 0;
#X connect 138 0 137 1;
#X connect 139 0 6 0;
#X connect 139 0 28 0;
#X connect 140 0 35 0;
#X coords 0 0 1 1 200 130 0;
