#N canvas 0 63 1280 737 10;
#X declare -path dsp/rj/;
#X obj 36 111 outlet;
#X obj 80 111 outlet;
#X obj 125 111 outlet;
#X obj 169 112 outlet;
#X obj 216 89 outlet;
#X obj -9 111 outlet;
#X obj 637 77 outlet~;
#X obj 689 77 outlet~;
#X obj 737 77 outlet~;
#X obj 789 122 outlet;
#X obj 835 95 outlet;
#X obj 659 95 outlet~;
#X obj 702 118 outlet~;
#X obj 745 97 outlet~;
#X obj 594 33 rg.ambipanner~ ------------------;
#X text 85 7 amp thres;
#X text 178 3 xcf;
#X obj 691 -2 r \$0-a.mdg;
#X obj 789 -3 r \$0-a.mds;
#X obj 594 87 outlet~;
#X obj 615 104 outlet~;
#X obj 85 22 r \$0-s.at;
#X obj 180 22 r \$0-s.xcf;
#X obj 190 -149 inlet;
#X obj 312 -149 inlet;
#X obj 478 -151 inlet;
#X obj 190 -115 s \$0-s.xcf;
#X text 151 -168 sigmund~;
#X text 275 -167 dino~;
#X obj 312 -115 s \$0-d.cf;
#X text 375 -167 rj.grain~;
#X text 578 -168 rj.plate~;
#X obj 724 -151 inlet;
#X text 683 -172 rg.filter~;
#X obj 906 -153 inlet;
#X text 865 -174 rg.ambipanner~;
#X obj 724 -117 s \$0-f.f;
#X obj 906 -119 s \$0-a.mds;
#X text 0 -269 declare rjdj library for use with rj.grain~ & rj.plate~
;
#X obj -4 -206 cnv 15 200 20 empty empty inlets 20 12 0 9 -1 -262144
0;
#X obj -8 -62 cnv 15 800 20 empty empty dsp_chain 20 12 0 9 -1 -262144
0;
#X obj -3 -293 cnv 15 200 20 empty empty declaration_of_dependence
20 12 0 9 -1 -262144 0;
#X obj -8 -17 cnv 15 200 20 empty empty pitch.track-> 20 12 0 9 -1
-262144 0;
#X obj 331 -16 cnv 15 200 20 empty empty dino~->mygrain~->svf~-> 20
12 0 9 -1 -262144 0;
#X obj 638 -17 cnv 15 200 20 empty empty ambisonic.panner-> 20 12 0
9 -1 -262144 0;
#X obj 579 -150 inlet;
#X obj 579 -129 s \$0-p.ms;
#X obj 687 -151 inlet;
#X obj 687 -127 s \$0-f.ms;
#X obj 762 -151 inlet;
#X obj 762 -131 s \$0-f.r;
#X obj 869 -153 inlet;
#X obj 869 -134 s \$0-a.mdg;
#X obj 378 -149 inlet;
#X obj 378 -131 s \$0-g.ms;
#X obj 275 -149 inlet;
#X obj 275 -126 s \$0-d.ms;
#X obj 153 -149 inlet;
#X obj 153 -123 s \$0-s.at;
#X text -5 -167 audio input~;
#X obj -5 -147 inlet~;
#X obj -3 -249 declare -path dsp/rj/;
#X text -7 135 outs: midi \, index \, pc \, ic \, amp \, trigger \,
re-synthesis;
#X obj 228 -148 inlet;
#X obj 228 -93 s \$0-s.xa;
#X obj 117 48 r \$0-s.xa;
#X obj -9 72 rg.pitchtrack~ - - - - - - - - -;
#X obj 269 89 outlet;
#X text 654 15 manual deg \, dist;
#X obj 1046 -154 inlet;
#X obj 1046 -131 s \$0-euclid;
#X text 463 -189 contour data;
#X obj 478 -118 s \$0-cntr;
#X obj -5 -105 *~ 2;
#X obj -5 -82 s~ \$0-sig;
#X obj -9 29 r~ \$0-sig;
#X obj 505 103 *~;
#X obj 520 73 r dry.sig;
#X obj 530 23 sig~;
#X obj 558 23 sig~;
#X obj 530 3 r \$0-f.f;
#X obj 558 -17 r \$0-f.r;
#X obj 340 249 *~;
#X obj 377 232 r fx.v;
#X obj 339 46 rg.dino~;
#X obj 505 46 svf~ 1760;
#X obj 594 0 r~ \$0-fx;
#X obj 340 314 s~ \$0-fx;
#X obj 339 128 rg.mygrain~;
#X obj 360 69 r \$0-bang;
#X text 464 -201 Timbral;
#X text 464 -174 for bubbler~;
#X text 464 -219 Packed;
#X text 312 -167 contour;
#X obj 243 122 bng 15 250 50 0 empty empty empty 17 7 0 10 -262144
-1 -1;
#X obj 243 156 s \$0-bang;
#X obj 336 -92 s \$0-gc;
#X obj 402 100 r \$0-gc;
#X obj 361 18 r \$0-d.cf;
#X floatatom 418 117 5 0 0 0 - - -;
#X obj 339 192 svf~ 880;
#X obj 418 138 * 1000;
#X floatatom 469 176 5 0 0 0 - - -;
#X obj 418 158 moses 220;
#X obj 340 277 hip~ 20;
#X obj 324 157 +~;
#X obj -5 -126 hip~ 20;
#X connect 14 0 19 0;
#X connect 14 1 20 0;
#X connect 14 2 6 0;
#X connect 14 3 11 0;
#X connect 14 4 7 0;
#X connect 14 5 12 0;
#X connect 14 6 8 0;
#X connect 14 7 13 0;
#X connect 14 8 9 0;
#X connect 14 9 10 0;
#X connect 17 0 14 1;
#X connect 18 0 14 2;
#X connect 21 0 66 1;
#X connect 22 0 66 3;
#X connect 23 0 26 0;
#X connect 24 0 29 0;
#X connect 24 0 96 0;
#X connect 25 0 72 0;
#X connect 32 0 36 0;
#X connect 34 0 37 0;
#X connect 45 0 46 0;
#X connect 47 0 48 0;
#X connect 49 0 50 0;
#X connect 51 0 52 0;
#X connect 53 0 54 0;
#X connect 55 0 56 0;
#X connect 57 0 58 0;
#X connect 60 0 106 0;
#X connect 63 0 64 0;
#X connect 65 0 66 2;
#X connect 66 0 5 0;
#X connect 66 1 0 0;
#X connect 66 2 1 0;
#X connect 66 3 2 0;
#X connect 66 4 3 0;
#X connect 66 5 4 0;
#X connect 66 6 67 0;
#X connect 66 6 94 0;
#X connect 69 0 70 0;
#X connect 73 0 74 0;
#X connect 75 0 66 0;
#X connect 75 0 84 0;
#X connect 75 0 85 0;
#X connect 76 0 14 0;
#X connect 77 0 76 1;
#X connect 78 0 85 1;
#X connect 79 0 85 2;
#X connect 80 0 78 0;
#X connect 81 0 79 0;
#X connect 82 0 104 0;
#X connect 83 0 82 1;
#X connect 84 0 105 0;
#X connect 84 0 88 0;
#X connect 85 0 76 0;
#X connect 85 2 76 0;
#X connect 86 0 14 0;
#X connect 88 0 105 1;
#X connect 89 0 88 1;
#X connect 94 0 95 0;
#X connect 97 0 88 2;
#X connect 97 0 99 0;
#X connect 98 0 84 1;
#X connect 99 0 101 0;
#X connect 100 0 82 0;
#X connect 100 2 82 0;
#X connect 101 0 103 0;
#X connect 102 0 100 1;
#X connect 103 1 102 0;
#X connect 104 0 87 0;
#X connect 105 0 100 0;
#X connect 106 0 73 0;
#X coords 0 0 1 1 200 130 0;
