#N canvas 141 316 572 379 10;
#X obj 143 22 inlet~;
#X obj 202 17 inlet~;
#X obj 143 245 outlet~;
#X obj 399 141 line~;
#X obj 202 182 *~;
#X obj 399 61 route 0;
#X msg 446 89 1;
#X obj 143 213 *~;
#X msg 399 115 \$1 20;
#X msg 399 33 \$1 \$1;
#X obj 279 242 unsig~;
#X floatatom 279 265 5 0 0 0 - - -;
#X obj 350 241 unsig~;
#X floatatom 350 264 5 0 0 0 - - -;
#X obj 262 20 inlet~;
#X obj 262 148 *~;
#X obj 399 12 inlet;
#X floatatom 388 89 5 0 0 0 - - -;
#X obj 313 197 expr~ 1.5-$v1;
#X obj 443 242 unsig~;
#X floatatom 443 265 5 0 0 0 - - -;
#X obj 406 198 expr~ 2-$v1;
#X connect 0 0 7 0;
#X connect 1 0 4 0;
#X connect 3 0 4 1;
#X connect 3 0 10 0;
#X connect 3 0 18 0;
#X connect 3 0 21 0;
#X connect 4 0 2 0;
#X connect 5 0 8 0;
#X connect 5 0 17 0;
#X connect 5 1 6 0;
#X connect 6 0 8 0;
#X connect 7 0 2 0;
#X connect 8 0 3 0;
#X connect 9 0 5 0;
#X connect 10 0 11 0;
#X connect 12 0 13 0;
#X connect 14 0 15 0;
#X connect 15 0 2 0;
#X connect 16 0 9 0;
#X connect 18 0 7 1;
#X connect 18 0 12 0;
#X connect 19 0 20 0;
#X connect 21 0 19 0;
#X connect 21 0 15 1;
