#N canvas 0 22 450 300 10;
#X obj 229 127 pitchHeight~;
#X obj 247 81 sigmund~ pitch -npts 4096 -hop 512;
#X obj 247 102 mtof;
#X obj 109 117 hsl 70 10 0 1 0 0 empty empty Pitch_Height -2 -8 0 10
-204786 -258113 -1 0 1;
#X obj 102 163 tgl 15 0 empty empty empty 17 7 0 10 -4032 -1 -1 0 1
;
#X obj 102 183 metro 100;
#X obj 219 201 magSpec~ 4096;
#X obj 219 220 list prepend 0;
#X obj 219 181 r magSpec;
#X obj 102 202 s magSpec;
#X obj 219 241 s \$0-ph;
#X obj 102 225 table \$0-ph 512;
#X obj 219 57 inlet~;
#X obj 252 152 outlet~;
#X obj 285 102 inlet;
#X obj 102 143 loadbang;
#X floatatom 274 249 5 0 0 0 - - -;
#X floatatom 396 117 5 0 0 0 - - -;
#X connect 0 0 13 0;
#X connect 1 0 2 0;
#X connect 2 0 0 1;
#X connect 2 0 17 0;
#X connect 3 0 0 2;
#X connect 4 0 5 0;
#X connect 5 0 9 0;
#X connect 6 0 7 0;
#X connect 7 0 10 0;
#X connect 7 0 16 0;
#X connect 8 0 6 0;
#X connect 12 0 0 0;
#X connect 12 0 6 0;
#X connect 12 0 1 0;
#X connect 14 0 0 2;
#X connect 15 0 4 0;
#X coords 0 -1 1 1 85 30 2 100 100;
