#N canvas 23 42 887 629 10;
#X obj 390 457 mtof;
#X obj 210 429 line;
#X msg 210 407 \$1 50;
#X obj 390 487 s \$0-freq;
#X obj 107 61 vsl 15 120 0 5 0 0 empty empty empty 0 -9 0 10 -262144
-1 -1 0 1;
#X text 110 78 v;
#X text 110 90 o;
#X text 110 106 l;
#X text 110 120 u;
#X text 110 134 m;
#X text 110 151 e;
#X obj 189 101 hsl 100 10 0 1 0 1 \$0-fv \$0-dv empty -2 -8 0 10 -262144
-1 -1 0 1;
#X obj 189 113 hsl 100 10 0 1 0 1 \$0-o1v \$0-dv empty -2 -8 0 10 -262144
-1 -1 100 1;
#X obj 189 125 hsl 100 10 0 1 0 1 \$0-o2v \$0-dv empty -2 -8 0 10 -262144
-1 -1 4200 1;
#X obj 189 137 hsl 100 10 0 1 0 1 \$0-o3v \$0-dv empty -2 -8 0 10 -262144
-1 -1 1500 1;
#X obj 189 149 hsl 100 10 0 1 0 1 \$0-o4v \$0-dv empty -2 -8 0 10 -262144
-1 -1 8400 1;
#X obj 189 161 hsl 100 10 0 1 0 1 \$0-o5v \$0-dv empty -2 -8 0 10 -262144
-1 -1 0 1;
#X obj 189 173 hsl 100 10 0 1 0 1 \$0-o6v \$0-dv empty -2 -8 0 10 -262144
-1 -1 8500 1;
#X obj 189 185 hsl 100 10 0 1 0 1 \$0-o7v \$0-dv empty -2 -8 0 10 -262144
-1 -1 0 1;
#X obj 189 197 hsl 100 10 0 1 0 1 \$0-o8v \$0-dv empty -2 -8 0 10 -262144
-1 -1 3600 1;
#X obj 189 209 hsl 100 10 0 1 0 1 \$0-o9v \$0-dv empty -2 -8 0 10 -262144
-1 -1 8100 1;
#X obj 189 221 hsl 100 10 0 1 0 1 \$0-o10v \$0-dv empty -2 -8 0 10
-262144 -1 -1 9900 1;
#X obj 189 233 hsl 100 10 0 1 0 1 \$0-o11v \$0-dv empty -2 -8 0 10
-262144 -1 -1 9900 1;
#X text 198 110 o1;
#X text 198 122 o2;
#X text 198 134 o3;
#X text 198 146 o4;
#X text 198 158 o5;
#X obj 189 65 hsl 100 10 0 1 0 1 \$0-u3v \$0-dv empty -2 -8 0 10 -262144
-1 -1 0 1;
#X obj 189 77 hsl 100 10 0 1 0 1 \$0-u2v \$0-dv empty -2 -8 0 10 -262144
-1 -1 4400 1;
#X obj 189 89 hsl 100 10 0 1 0 1 \$0-u1v \$0-dv empty -2 -8 0 10 -262144
-1 -1 0 1;
#X text 197 61 u3;
#X text 198 85 u1;
#X text 197 73 u2;
#X text 198 169 o6;
#X text 198 181 o7;
#X text 198 194 o8;
#X text 198 206 o9;
#X text 198 218 o10;
#X text 198 230 o11;
#X text 520 336 Pitch tracking incoming audio;
#X text 319 162 Harmonics - 3 undertones \, fundamental \, & 11 overtones
;
#X text 235 109 8ve;
#X text 235 121 5th;
#X text 235 133 8ve;
#X text 198 97 fundamental;
#X text 170 99 h1;
#X text 170 110 h2;
#X text 170 122 h3;
#X text 170 133 h4;
#X text 170 145 h5;
#X text 170 156 h6;
#X text 170 168 h7;
#X text 171 181 h8;
#X text 171 193 h9;
#X text 166 205 h10;
#X text 166 217 h11;
#X text 166 229 h12;
#X text 234 181 8ve;
#X text 235 145 + 3rd;
#X text 236 158 5th;
#X text 236 229 5th;
#X text 223 217 #5/tritone;
#X text 230 205 + 3rd;
#X text 230 193 + 2nd;
#X text 230 169 - 7th;
#X text 234 85 8ve;
#X text 234 73 5th;
#X text 234 61 8ve;
#N canvas 501 207 779 277 harmonic-oscillators 1;
#X obj 52 -4 r \$0-freq;
#X obj 700 179 r \$0-u3v;
#X obj 120 66 r \$0-o1v;
#X obj 213 67 r \$0-o2v;
#X obj 300 68 r \$0-o3v;
#X obj 387 66 r \$0-o4v;
#X obj 474 65 r \$0-o5v;
#X obj 580 69 r \$0-o6v;
#X obj 675 67 r \$0-o7v;
#X obj 37 177 r \$0-o8v;
#X obj 143 181 r \$0-o9v;
#X obj 238 179 r \$0-o10v;
#X obj 333 181 r \$0-o11v;
#X obj 499 177 r \$0-u1v;
#X obj 605 181 r \$0-u2v;
#X text 514 38 //incoming fundamental freq;
#N canvas 841 58 229 279 fv 1;
#X obj 31 100 osc~;
#X obj 31 38 * 1;
#X obj 107 8 r \$0-amp;
#X obj 169 33 t b f;
#X obj 107 172 line~;
#X msg 107 135 \$1 20;
#X obj 31 206 *~;
#X obj 31 243 throw~ \$0-harmonics-out;
#X obj 31 7 r \$0-freq;
#X obj 169 8 inlet;
#X obj 107 101 * 0;
#N canvas 0 22 216 192 randomphase 0;
#X obj 57 139 outlet;
#X obj 57 75 random 1000;
#X obj 57 44 loadbang;
#X obj 57 107 * 0.001;
#X connect 1 0 3 0;
#X connect 2 0 1 0;
#X connect 3 0 0 0;
#X restore 52 72 pd randomphase;
#X connect 0 0 6 0;
#X connect 1 0 0 0;
#X connect 2 0 10 0;
#X connect 3 0 10 0;
#X connect 3 1 10 1;
#X connect 4 0 6 1;
#X connect 5 0 4 0;
#X connect 6 0 7 0;
#X connect 8 0 1 0;
#X connect 9 0 3 0;
#X connect 10 0 5 0;
#X connect 11 0 0 1;
#X restore 52 114 pd fv;
#N canvas 849 51 229 279 o1fv 0;
#X obj 31 90 osc~;
#X obj 107 8 r \$0-amp;
#X obj 172 35 t b f;
#X obj 107 172 line~;
#X msg 107 135 \$1 20;
#X obj 31 206 *~;
#X obj 31 243 throw~ \$0-harmonics-out;
#X obj 31 7 r \$0-freq;
#X obj 172 6 inlet;
#X obj 31 38 * 2;
#X obj 107 98 * 0;
#N canvas 0 22 216 192 randomphase 0;
#X obj 57 139 outlet;
#X obj 57 75 random 1000;
#X obj 57 44 loadbang;
#X obj 57 107 * 0.001;
#X connect 1 0 3 0;
#X connect 2 0 1 0;
#X connect 3 0 0 0;
#X restore 52 64 pd randomphase;
#X connect 0 0 5 0;
#X connect 1 0 10 0;
#X connect 2 0 10 0;
#X connect 2 1 10 1;
#X connect 3 0 5 1;
#X connect 4 0 3 0;
#X connect 5 0 6 0;
#X connect 7 0 9 0;
#X connect 8 0 2 0;
#X connect 9 0 0 0;
#X connect 10 0 4 0;
#X connect 11 0 0 1;
#X restore 120 115 pd o1fv;
#X obj 52 63 r \$0-fv;
#X floatatom 64 90 5 0 0 0 - - -;
#X floatatom 127 91 5 0 0 0 - - -;
#N canvas 849 51 229 279 o2fv 0;
#X obj 31 99 osc~;
#X obj 107 8 r \$0-amp;
#X obj 172 35 t b f;
#X obj 107 172 line~;
#X msg 107 135 \$1 20;
#X obj 31 206 *~;
#X obj 31 243 throw~ \$0-harmonics-out;
#X obj 31 7 r \$0-freq;
#X obj 172 6 inlet;
#X obj 31 38 * 3;
#X obj 107 101 * 0;
#N canvas 0 22 216 192 randomphase 0;
#X obj 57 139 outlet;
#X obj 57 75 random 1000;
#X obj 57 44 loadbang;
#X obj 57 107 * 0.001;
#X connect 1 0 3 0;
#X connect 2 0 1 0;
#X connect 3 0 0 0;
#X restore 52 72 pd randomphase;
#X connect 0 0 5 0;
#X connect 1 0 10 0;
#X connect 2 0 10 0;
#X connect 2 1 10 1;
#X connect 3 0 5 1;
#X connect 4 0 3 0;
#X connect 5 0 6 0;
#X connect 7 0 9 0;
#X connect 8 0 2 0;
#X connect 9 0 0 0;
#X connect 10 0 4 0;
#X connect 11 0 0 1;
#X restore 213 113 pd o2fv;
#X floatatom 220 91 5 0 0 0 - - -;
#N canvas 849 51 229 279 o3fv 0;
#X obj 31 99 osc~;
#X obj 107 8 r \$0-amp;
#X obj 172 35 t b f;
#X obj 107 172 line~;
#X msg 107 135 \$1 20;
#X obj 31 206 *~;
#X obj 31 243 throw~ \$0-harmonics-out;
#X obj 31 7 r \$0-freq;
#X obj 172 6 inlet;
#X obj 31 38 * 4;
#X obj 107 101 * 0;
#N canvas 0 22 216 192 randomphase 0;
#X obj 57 139 outlet;
#X obj 57 75 random 1000;
#X obj 57 44 loadbang;
#X obj 57 107 * 0.001;
#X connect 1 0 3 0;
#X connect 2 0 1 0;
#X connect 3 0 0 0;
#X restore 52 70 pd randomphase;
#X connect 0 0 5 0;
#X connect 1 0 10 0;
#X connect 2 0 10 0;
#X connect 2 1 10 1;
#X connect 3 0 5 1;
#X connect 4 0 3 0;
#X connect 5 0 6 0;
#X connect 7 0 9 0;
#X connect 8 0 2 0;
#X connect 9 0 0 0;
#X connect 10 0 4 0;
#X connect 11 0 0 1;
#X restore 300 113 pd o3fv;
#X floatatom 308 91 5 0 0 0 - - -;
#X floatatom 394 90 5 0 0 0 - - -;
#N canvas 849 51 229 279 o4fv 0;
#X obj 31 102 osc~;
#X obj 107 8 r \$0-amp;
#X obj 172 35 t b f;
#X obj 107 172 line~;
#X msg 107 135 \$1 20;
#X obj 31 206 *~;
#X obj 31 243 throw~ \$0-harmonics-out;
#X obj 31 7 r \$0-freq;
#X obj 172 6 inlet;
#X obj 31 38 * 5;
#X obj 107 101 * 0;
#N canvas 0 22 216 192 randomphase 0;
#X obj 57 139 outlet;
#X obj 57 75 random 1000;
#X obj 57 44 loadbang;
#X obj 57 107 * 0.001;
#X connect 1 0 3 0;
#X connect 2 0 1 0;
#X connect 3 0 0 0;
#X restore 52 74 pd randomphase;
#X connect 0 0 5 0;
#X connect 1 0 10 0;
#X connect 2 0 10 0;
#X connect 2 1 10 1;
#X connect 3 0 5 1;
#X connect 4 0 3 0;
#X connect 5 0 6 0;
#X connect 7 0 9 0;
#X connect 8 0 2 0;
#X connect 9 0 0 0;
#X connect 10 0 4 0;
#X connect 11 0 0 1;
#X restore 387 112 pd o4fv;
#X floatatom 483 86 5 0 0 0 - - -;
#N canvas 849 51 229 279 o5fv 0;
#X obj 31 98 osc~;
#X obj 107 8 r \$0-amp;
#X obj 172 35 t b f;
#X obj 107 172 line~;
#X msg 107 135 \$1 20;
#X obj 31 206 *~;
#X obj 31 243 throw~ \$0-harmonics-out;
#X obj 31 7 r \$0-freq;
#X obj 172 6 inlet;
#X obj 31 38 * 6;
#X obj 107 101 * 0;
#N canvas 0 22 216 192 randomphase 0;
#X obj 57 139 outlet;
#X obj 57 75 random 1000;
#X obj 57 44 loadbang;
#X obj 57 107 * 0.001;
#X connect 1 0 3 0;
#X connect 2 0 1 0;
#X connect 3 0 0 0;
#X restore 52 68 pd randomphase;
#X connect 0 0 5 0;
#X connect 1 0 10 0;
#X connect 2 0 10 0;
#X connect 2 1 10 1;
#X connect 3 0 5 1;
#X connect 4 0 3 0;
#X connect 5 0 6 0;
#X connect 7 0 9 0;
#X connect 8 0 2 0;
#X connect 9 0 0 0;
#X connect 10 0 4 0;
#X connect 11 0 0 1;
#X restore 474 108 pd o5fv;
#X floatatom 589 91 5 0 0 0 - - -;
#N canvas 849 51 229 279 o6fv 0;
#X obj 31 103 osc~;
#X obj 107 8 r \$0-amp;
#X obj 172 35 t b f;
#X obj 107 172 line~;
#X msg 107 135 \$1 20;
#X obj 31 206 *~;
#X obj 31 243 throw~ \$0-harmonics-out;
#X obj 31 7 r \$0-freq;
#X obj 172 6 inlet;
#X obj 31 38 * 7;
#X obj 107 101 * 0;
#N canvas 0 22 216 192 randomphase 0;
#X obj 57 139 outlet;
#X obj 57 75 random 1000;
#X obj 57 44 loadbang;
#X obj 57 107 * 0.001;
#X connect 1 0 3 0;
#X connect 2 0 1 0;
#X connect 3 0 0 0;
#X restore 52 72 pd randomphase;
#X connect 0 0 5 0;
#X connect 1 0 10 0;
#X connect 2 0 10 0;
#X connect 2 1 10 1;
#X connect 3 0 5 1;
#X connect 4 0 3 0;
#X connect 5 0 6 0;
#X connect 7 0 9 0;
#X connect 8 0 2 0;
#X connect 9 0 0 0;
#X connect 10 0 4 0;
#X connect 11 0 0 1;
#X restore 580 113 pd o6fv;
#X floatatom 684 90 5 0 0 0 - - -;
#N canvas 849 51 229 279 o7fv 0;
#X obj 31 99 osc~;
#X obj 107 8 r \$0-amp;
#X obj 172 35 t b f;
#X obj 107 172 line~;
#X msg 107 135 \$1 20;
#X obj 31 206 *~;
#X obj 31 243 throw~ \$0-harmonics-out;
#X obj 31 7 r \$0-freq;
#X obj 172 6 inlet;
#X obj 31 38 * 8;
#X obj 107 101 * 0;
#N canvas 0 22 216 192 randomphase 0;
#X obj 57 139 outlet;
#X obj 57 75 random 1000;
#X obj 57 44 loadbang;
#X obj 57 107 * 0.001;
#X connect 1 0 3 0;
#X connect 2 0 1 0;
#X connect 3 0 0 0;
#X restore 52 72 pd randomphase;
#X connect 0 0 5 0;
#X connect 1 0 10 0;
#X connect 2 0 10 0;
#X connect 2 1 10 1;
#X connect 3 0 5 1;
#X connect 4 0 3 0;
#X connect 5 0 6 0;
#X connect 7 0 9 0;
#X connect 8 0 2 0;
#X connect 9 0 0 0;
#X connect 10 0 4 0;
#X connect 11 0 0 1;
#X restore 675 112 pd o7fv;
#X floatatom 46 208 5 0 0 0 - - -;
#N canvas 849 51 229 279 o8fv 0;
#X obj 31 100 osc~;
#X obj 107 8 r \$0-amp;
#X obj 172 35 t b f;
#X obj 107 172 line~;
#X msg 107 135 \$1 20;
#X obj 31 206 *~;
#X obj 31 243 throw~ \$0-harmonics-out;
#X obj 31 7 r \$0-freq;
#X obj 172 6 inlet;
#X obj 31 38 * 9;
#X obj 107 101 * 0;
#N canvas 0 22 216 192 randomphase 0;
#X obj 57 139 outlet;
#X obj 57 75 random 1000;
#X obj 57 44 loadbang;
#X obj 57 107 * 0.001;
#X connect 1 0 3 0;
#X connect 2 0 1 0;
#X connect 3 0 0 0;
#X restore 52 71 pd randomphase;
#X connect 0 0 5 0;
#X connect 1 0 10 0;
#X connect 2 0 10 0;
#X connect 2 1 10 1;
#X connect 3 0 5 1;
#X connect 4 0 3 0;
#X connect 5 0 6 0;
#X connect 7 0 9 0;
#X connect 8 0 2 0;
#X connect 9 0 0 0;
#X connect 10 0 4 0;
#X connect 11 0 0 1;
#X restore 37 230 pd o8fv;
#X floatatom 152 204 5 0 0 0 - - -;
#N canvas 849 51 229 279 o9fv 0;
#X obj 31 95 osc~;
#X obj 107 8 r \$0-amp;
#X obj 172 35 t b f;
#X obj 107 172 line~;
#X msg 107 135 \$1 20;
#X obj 31 206 *~;
#X obj 31 243 throw~ \$0-harmonics-out;
#X obj 31 7 r \$0-freq;
#X obj 172 6 inlet;
#X obj 31 38 * 10;
#X obj 107 99 * 0;
#N canvas 0 22 216 192 randomphase 0;
#X obj 57 139 outlet;
#X obj 57 75 random 1000;
#X obj 57 44 loadbang;
#X obj 57 107 * 0.001;
#X connect 1 0 3 0;
#X connect 2 0 1 0;
#X connect 3 0 0 0;
#X restore 52 67 pd randomphase;
#X connect 0 0 5 0;
#X connect 1 0 10 0;
#X connect 2 0 10 0;
#X connect 2 1 10 1;
#X connect 3 0 5 1;
#X connect 4 0 3 0;
#X connect 5 0 6 0;
#X connect 7 0 9 0;
#X connect 8 0 2 0;
#X connect 9 0 0 0;
#X connect 10 0 4 0;
#X connect 11 0 0 1;
#X restore 143 226 pd o9fv;
#X floatatom 247 201 5 0 0 0 - - -;
#N canvas 849 51 229 279 o10fv 0;
#X obj 31 98 osc~;
#X obj 107 8 r \$0-amp;
#X obj 172 35 t b f;
#X obj 107 172 line~;
#X msg 107 135 \$1 20;
#X obj 31 206 *~;
#X obj 31 243 throw~ \$0-harmonics-out;
#X obj 31 7 r \$0-freq;
#X obj 172 6 inlet;
#X obj 31 38 * 11;
#X obj 107 101 * 0;
#N canvas 0 22 216 192 randomphase 0;
#X obj 57 139 outlet;
#X obj 57 75 random 1000;
#X obj 57 44 loadbang;
#X obj 57 107 * 0.001;
#X connect 1 0 3 0;
#X connect 2 0 1 0;
#X connect 3 0 0 0;
#X restore 52 67 pd randomphase;
#X connect 0 0 5 0;
#X connect 1 0 10 0;
#X connect 2 0 10 0;
#X connect 2 1 10 1;
#X connect 3 0 5 1;
#X connect 4 0 3 0;
#X connect 5 0 6 0;
#X connect 7 0 9 0;
#X connect 8 0 2 0;
#X connect 9 0 0 0;
#X connect 10 0 4 0;
#X connect 11 0 0 1;
#X restore 238 223 pd o10fv;
#X floatatom 342 204 5 0 0 0 - - -;
#N canvas 849 51 229 279 o11fv 0;
#X obj 31 99 osc~;
#X obj 107 8 r \$0-amp;
#X obj 172 35 t b f;
#X obj 107 172 line~;
#X msg 107 135 \$1 20;
#X obj 31 206 *~;
#X obj 31 243 throw~ \$0-harmonics-out;
#X obj 31 7 r \$0-freq;
#X obj 172 6 inlet;
#X obj 31 38 * 12;
#X obj 107 101 * 0;
#N canvas 0 22 216 192 randomphase 0;
#X obj 57 139 outlet;
#X obj 57 75 random 1000;
#X obj 57 44 loadbang;
#X obj 57 107 * 0.001;
#X connect 1 0 3 0;
#X connect 2 0 1 0;
#X connect 3 0 0 0;
#X restore 52 70 pd randomphase;
#X connect 0 0 5 0;
#X connect 1 0 10 0;
#X connect 2 0 10 0;
#X connect 2 1 10 1;
#X connect 3 0 5 1;
#X connect 4 0 3 0;
#X connect 5 0 6 0;
#X connect 7 0 9 0;
#X connect 8 0 2 0;
#X connect 9 0 0 0;
#X connect 10 0 4 0;
#X connect 11 0 0 1;
#X restore 333 226 pd o11fv;
#X floatatom 508 197 5 0 0 0 - - -;
#N canvas 849 51 229 279 u1v 0;
#X obj 31 96 osc~;
#X obj 107 8 r \$0-amp;
#X obj 172 35 t b f;
#X obj 107 172 line~;
#X msg 107 135 \$1 20;
#X obj 31 206 *~;
#X obj 31 243 throw~ \$0-harmonics-out;
#X obj 31 7 r \$0-freq;
#X obj 172 6 inlet;
#X obj 31 38 * 0.5;
#X obj 107 99 * 0;
#N canvas 0 22 216 192 randomphase 0;
#X obj 57 139 outlet;
#X obj 57 75 random 1000;
#X obj 57 44 loadbang;
#X obj 57 107 * 0.001;
#X connect 1 0 3 0;
#X connect 2 0 1 0;
#X connect 3 0 0 0;
#X restore 52 68 pd randomphase;
#X connect 0 0 5 0;
#X connect 1 0 10 0;
#X connect 2 0 10 0;
#X connect 2 1 10 1;
#X connect 3 0 5 1;
#X connect 4 0 3 0;
#X connect 5 0 6 0;
#X connect 7 0 9 0;
#X connect 8 0 2 0;
#X connect 9 0 0 0;
#X connect 10 0 4 0;
#X connect 11 0 0 1;
#X restore 499 219 pd u1v;
#X floatatom 614 204 5 0 0 0 - - -;
#N canvas 849 51 229 279 u2v 0;
#X obj 31 100 osc~;
#X obj 107 8 r \$0-amp;
#X obj 172 35 t b f;
#X obj 107 172 line~;
#X msg 107 135 \$1 20;
#X obj 31 206 *~;
#X obj 31 243 throw~ \$0-harmonics-out;
#X obj 31 7 r \$0-freq;
#X obj 172 6 inlet;
#X obj 31 38 * 0.25;
#X obj 107 101 * 0;
#N canvas 0 22 216 192 randomphase 0;
#X obj 57 139 outlet;
#X obj 57 75 random 1000;
#X obj 57 44 loadbang;
#X obj 57 107 * 0.001;
#X connect 1 0 3 0;
#X connect 2 0 1 0;
#X connect 3 0 0 0;
#X restore 52 69 pd randomphase;
#X connect 0 0 5 0;
#X connect 1 0 10 0;
#X connect 2 0 10 0;
#X connect 2 1 10 1;
#X connect 3 0 5 1;
#X connect 4 0 3 0;
#X connect 5 0 6 0;
#X connect 7 0 9 0;
#X connect 8 0 2 0;
#X connect 9 0 0 0;
#X connect 10 0 4 0;
#X connect 11 0 0 1;
#X restore 605 226 pd u2v;
#X floatatom 707 203 5 0 0 0 - - -;
#N canvas 849 51 229 279 u3v 0;
#X obj 31 95 osc~;
#X obj 107 8 r \$0-amp;
#X obj 172 35 t b f;
#X obj 107 172 line~;
#X msg 107 135 \$1 20;
#X obj 31 206 *~;
#X obj 31 243 throw~ \$0-harmonics-out;
#X obj 31 7 r \$0-freq;
#X obj 172 6 inlet;
#X obj 31 39 * 0.125;
#X obj 107 101 * 0;
#N canvas 0 22 216 192 randomphase 0;
#X obj 57 139 outlet;
#X obj 57 75 random 1000;
#X obj 57 44 loadbang;
#X obj 57 107 * 0.001;
#X connect 1 0 3 0;
#X connect 2 0 1 0;
#X connect 3 0 0 0;
#X restore 52 70 pd randomphase;
#X connect 0 0 5 0;
#X connect 1 0 10 0;
#X connect 2 0 10 0;
#X connect 2 1 10 1;
#X connect 3 0 5 1;
#X connect 4 0 3 0;
#X connect 5 0 6 0;
#X connect 7 0 9 0;
#X connect 8 0 2 0;
#X connect 9 0 0 0;
#X connect 10 0 4 0;
#X connect 11 0 0 1;
#X restore 700 225 pd u3v;
#X floatatom 52 23 5 0 0 0 - - -;
#X floatatom 140 20 5 0 0 0 - - -;
#X obj 140 -7 r \$0-amp;
#X connect 0 0 47 0;
#X connect 1 0 46 0;
#X connect 1 0 45 0;
#X connect 2 0 17 0;
#X connect 2 0 20 0;
#X connect 3 0 21 0;
#X connect 3 0 22 0;
#X connect 4 0 23 0;
#X connect 4 0 24 0;
#X connect 5 0 26 0;
#X connect 5 0 25 0;
#X connect 6 0 28 0;
#X connect 6 0 27 0;
#X connect 7 0 30 0;
#X connect 7 0 29 0;
#X connect 8 0 32 0;
#X connect 8 0 31 0;
#X connect 9 0 34 0;
#X connect 9 0 33 0;
#X connect 10 0 36 0;
#X connect 10 0 35 0;
#X connect 11 0 38 0;
#X connect 11 0 37 0;
#X connect 12 0 40 0;
#X connect 12 0 39 0;
#X connect 13 0 42 0;
#X connect 13 0 41 0;
#X connect 14 0 44 0;
#X connect 14 0 43 0;
#X connect 18 0 16 0;
#X connect 18 0 19 0;
#X connect 49 0 48 0;
#X restore 321 188 pd harmonic-oscillators;
#X obj 189 345 catch~ \$0-harmonics-out;
#X obj 22 382 delay~ 1024;
#X obj 504 408 dbtorms;
#X obj 504 544 s \$0-amp;
#X obj 564 409 tgl 15 0 empty empty empty 17 7 0 10 -262144 -1 -1 1
1;
#X msg 564 459 0;
#X obj 189 453 *~ 0;
#X obj 345 334 sigmund~ -hop 128 pitch env;
#X obj 504 459 clip 0 1;
#X obj 22 317 *~ 1;
#X obj 345 392 moses 40;
#X floatatom 435 393 5 0 0 0 - - -;
#X obj 390 426 moses 85;
#X obj 189 369 hip~ 40;
#X obj 46 275 hsl 128 15 0.1 10 0 1 empty empty input-level 20 8 0
10 -262144 -260097 -1 11500 1;
#X floatatom 52 296 5 0 0 0 - - -;
#X obj 22 436 *~ 1;
#X obj 46 413 hsl 128 15 0 1 0 1 empty empty original-signal 20 8 0
10 -262144 -260097 -1 0 1;
#X floatatom 56 436 5 0 0 0 - - -;
#X text 437 367 exclude very low / high pitches;
#X floatatom 390 368 5 0 0 0 - - -;
#X obj 504 433 spigot;
#X obj 564 433 sel 0;
#X obj 69 196 tgl 15 1 empty empty empty 17 7 0 10 -262144 -260097
-1 1 1;
#X text 69 196 + series;
#X obj 504 513 * 0.1;
#X obj 534 487 hsl 128 15 0 0.5 0 1 empty empty artificial-harmonics
2 8 0 10 -262144 -260097 -1 2600 1;
#X floatatom 544 513 5 0 0 0 - - -;
#X text 315 215 '+ series' adds harmonic series of incoming note;
#X obj 142 36 inlet;
#X obj 107 21 inlet;
#X obj 53 179 inlet;
#X obj 22 251 inlet~;
#X obj 189 478 outlet~;
#X obj 180 37 inlet;
#X obj 221 34 inlet;
#X obj 259 35 inlet;
#X obj 303 34 inlet;
#X obj 341 35 inlet;
#X obj 382 32 inlet;
#X obj 420 33 inlet;
#X obj 465 32 inlet;
#X obj 503 33 inlet;
#X obj 544 30 inlet;
#X obj 582 31 inlet;
#X obj 622 29 inlet;
#X obj 663 26 inlet;
#X obj 701 27 inlet;
#X obj 743 470 inlet;
#X obj 808 301 inlet;
#X text 346 599 built in collaboration with katja vetter;
#X connect 0 0 3 0;
#X connect 1 0 76 1;
#X connect 2 0 1 0;
#X connect 4 0 2 0;
#X connect 70 0 83 0;
#X connect 71 0 86 0;
#X connect 72 0 91 0;
#X connect 74 0 91 1;
#X connect 74 0 92 0;
#X connect 75 0 73 0;
#X connect 76 0 103 0;
#X connect 77 0 80 0;
#X connect 77 1 72 0;
#X connect 78 0 95 0;
#X connect 79 0 71 0;
#X connect 79 0 77 0;
#X connect 80 1 82 0;
#X connect 81 0 82 1;
#X connect 82 0 0 0;
#X connect 83 0 76 0;
#X connect 84 0 79 1;
#X connect 84 0 85 0;
#X connect 86 0 76 0;
#X connect 87 0 88 0;
#X connect 87 0 86 1;
#X connect 90 0 80 1;
#X connect 91 0 78 0;
#X connect 92 0 75 0;
#X connect 93 0 74 0;
#X connect 95 0 73 0;
#X connect 96 0 95 1;
#X connect 96 0 97 0;
#X connect 99 0 28 0;
#X connect 100 0 4 0;
#X connect 101 0 93 0;
#X connect 102 0 79 0;
#X connect 104 0 29 0;
#X connect 105 0 30 0;
#X connect 106 0 11 0;
#X connect 107 0 12 0;
#X connect 108 0 13 0;
#X connect 109 0 14 0;
#X connect 110 0 15 0;
#X connect 111 0 16 0;
#X connect 112 0 17 0;
#X connect 113 0 18 0;
#X connect 114 0 19 0;
#X connect 115 0 20 0;
#X connect 116 0 21 0;
#X connect 117 0 22 0;
#X connect 118 0 96 0;
#X coords 0 0 1 1 200 200 0;
