#N canvas 16 22 1280 752 10;
#X obj 100 103 grid ap1 70 -1.5 1.5 70 -1.5 1.5 1 0.01 0.01 10 10 116
144;
#X obj 285 419 ambipan~;
#X text 202 127 cartesian = x y notation - grids \, maps etc. whereas
polar is angle and magnatude (rho (radions/angle) \, theta 0);
#X text 118 82 Set position :;
#X obj -10 64 loadbang;
#X obj 759 -104 bng 15 250 50 0 empty \$0-sg.rec rec/stop 17 7 0 10
-262144 -1 -1;
#X obj 993 135 bng 15 250 50 0 empty \$0-sg.play 0/1 17 7 0 10 -262144
-1 -1;
#X obj 759 142 pack f f f;
#X obj 759 187 spigot;
#X obj 792 167 tgl 15 0 empty empty empty 17 7 0 10 -262144 -1 -1 0
1;
#X obj 914 150 counter 1;
#X msg 933 267 clear;
#X msg 759 -12 1;
#X obj 726 24 bng 15 250 50 0 empty empty empty 17 7 0 10 -262144 -1
-1;
#X msg 822 -10 0;
#X obj 665 152 bng 15 250 50 0 empty empty empty 17 7 0 10 -262144
-1 -1;
#X floatatom 759 56 5 0 0 0 - - -;
#X obj 978 260 bng 15 250 50 0 empty empty reset 17 7 0 10 -262144
-1 -1;
#X obj 713 72 i;
#X obj 914 243 t b b b;
#X obj 914 287 del 10;
#X msg 860 304 0 50;
#X obj 759 -86 counter 1;
#X floatatom 759 -62 5 0 0 0 - - -;
#X obj 759 7 metro 50;
#X obj 759 31 counter 1000;
#X floatatom 1063 77 10 0 0 0 - - -;
#X obj 993 35 bng 15 250 50 0 empty empty empty 0 -6 0 8 -262144 -1
-1;
#X obj 993 55 t b b;
#X floatatom 713 132 5 0 0 0 - - -;
#X obj 713 110 line;
#X obj 106 176 hsl 50 15 1 60000 0 1 \$0-sg.time empty empty -2 -8
0 10 -262144 -1 -1 4900 1;
#X floatatom 104 192 8 0 0 1 ms #0-sg.time -;
#X obj 172 103 tgl 15 0 \$0-sg.rec \$0-sg.rec.color empty 17 7 0 10
-262144 -262144 -262144 0 1;
#X obj 172 121 tgl 15 0 \$0-sg.play \$0-sg.play.color empty 17 7 0
10 -262144 -262144 -262144 0 1;
#X obj 172 139 bng 15 250 50 0 empty \$0-sg.end empty 17 7 0 10 -261682
-1 -1;
#X text 103 174 duration;
#X text 169 101 rec;
#X text 171 120 ply;
#X msg -10 86 color 90 120 200;
#X obj 1063 55 r \$0-sg.time;
#X obj 665 173 s \$0-sg.end;
#X obj 285 468 *~ 1;
#X obj 365 461 *~ 1;
#X msg -30 337 color \$1 \$1 \$1;
#X msg 95 337 color \$1 \$1 \$1;
#X obj -30 317 * 16;
#X obj -30 298 r \$0-sg.play;
#X obj -30 358 s \$0-sg.play.color;
#X obj 95 358 s \$0-sg.rec.color;
#X obj 95 298 r \$0-sg.rec;
#X obj 95 317 * 13;
#N canvas 0 22 1280 752 readme 0;
#X text 22 254 http://redmine.spatdif.org/projects/3/wiki/CICM_tools
;
#X text 23 216 http://en.wikipedia.org/wiki/Cartesian_coordinate_system
versus polar;
#X text 21 278 http://puredata.hurleur.com/sujet-3808-grid-improved-grid
;
#X text 22 301 http://www.dmalham.freeserve.co.uk/bpan_help.html;
#X text 22 326 http://www.york.ac.uk/inst/mustech/3d_audio/vst/bfmic_help.html
;
#X text 23 35 [info from jking~];
#X text 25 52 Polar polar coordinates superclass: Number Represents
polar coordinates. Creation new(rho \, theta) Create a new polar coordinate
with the given radius \, rho \, and angle in radians \, theta. point
= Point.new((sl.x 2) - 1 \, (sl.y 2) - 1) \;;
#X text 23 123 FROM SC: polar = point.asPolar \; //(rho \, theta) radius(aka
magnitude) + angle in radians comp = point.asComplex \; ang = polar.angle
\; ang = ang - (0.5 * pi) \; //adjusted - North = 0/360º;
#X text 23 557 L Dist F = Set volume decrease (how sharp the angle
is when volume drops off) Volume = default -6dB;
#X text 23 539 L Centre = size of region (blob of paint analogy);
#X text 23 511 L Distance = distance from centre on arbitrary scale
0 to 10;
#X text 23 490 L First = XYZ spherical harmonics - default 100%;
#X text 23 456 L Zero(th) - W - Spherical harmonic component (non-directional
\, mono component) - default @ 70.7%;
#X text 23 435 L Elevation = Height for higher order ambisonics;
#X text 23 417 L Azimuth - from centre front (0) traveling anti-clockwise
;
#X text 24 388 [Ambipan~ toot based on VST!];
#X text 23 630 see [apanctrl];
#X text 24 615 Notes -;
#X restore 18 414 pd readme;
#X obj 285 390 *~ 4;
#X obj 759 167 coll;
#C restore;
#X obj 285 490 outlet~;
#X obj 365 483 outlet~;
#X floatatom 317 391 5 0 0 0 - - -;
#X text -31 272 Button colors;
#X obj 355 402 apanctrl;
#X obj 285 365 inlet~;
#X text 427 37 X;
#X text 499 36 Y;
#X obj 440 54 pack f f;
#X floatatom 440 -53 5 0 0 0 - - -;
#X floatatom 510 -38 10 0 0 0 - - -;
#X obj 440 -37 / 10;
#X obj 440 -20 * 1.41421;
#X obj 510 -19 * 3.142;
#X obj 510 3 / 180;
#X floatatom 440 3 5 0 0 0 - - -;
#X obj 440 37 poltocar;
#X obj 571 20 t b f;
#X floatatom 205 173 5 0 0 0 - - -;
#X floatatom 56 173 5 0 0 0 - - -;
#X obj 440 -80 inlet;
#X obj 510 -64 inlet;
#X obj 56 194 s \$0-x;
#X obj 205 192 s \$0-y;
#X obj 787 118 r \$0-x;
#X obj 831 125 r \$0-y;
#X obj 285 444 ambidec~ 6;
#X obj 759 -43 sel 1;
#X text 506 -81 angle (0 - 360);
#X text 437 -106 distance (0 - 10);
#X obj 759 232 s \$0-gesture;
#X obj 713 150 i;
#X obj 1020 93 i;
#X obj 914 183 sel 0;
#X obj 310 270 cartopol;
#X obj 362 243 t b f;
#X msg 440 86 values \$1 \$2;
#X obj 344 69 r \$0-gesture;
#X floatatom 956 185 5 0 0 0 - - -;
#X floatatom 310 243 6 0 0 0 real-> - -;
#X floatatom 362 225 6 0 0 1 <-imaginary - -;
#X obj 310 219 r \$0-y;
#X obj 362 200 r \$0-x;
#X obj 422 287 / 1.41421;
#X floatatom 422 317 5 0 0 0 - - -;
#X obj 355 290 * 180;
#X obj 355 312 / 3.142;
#X obj 355 354 + 360;
#X floatatom 355 377 5 0 0 0 - - -;
#X obj 355 333 moses 1;
#X obj 422 338 * 10;
#X text 428 391 numbers need tweaking!;
#X msg 713 91 \$1;
#X obj 759 211 speedlim;
#X connect 0 0 74 0;
#X connect 0 1 73 0;
#X connect 1 0 81 0;
#X connect 1 1 81 1;
#X connect 1 2 81 2;
#X connect 1 3 81 3;
#X connect 4 0 39 0;
#X connect 5 0 22 0;
#X connect 6 0 10 0;
#X connect 6 0 27 0;
#X connect 7 0 54 0;
#X connect 8 0 108 0;
#X connect 9 0 8 1;
#X connect 10 0 9 0;
#X connect 10 0 88 0;
#X connect 10 0 93 0;
#X connect 11 0 54 0;
#X connect 12 0 24 0;
#X connect 14 0 24 0;
#X connect 15 0 41 0;
#X connect 15 0 54 0;
#X connect 16 0 18 1;
#X connect 17 0 25 3;
#X connect 18 0 107 0;
#X connect 19 0 20 0;
#X connect 19 1 11 0;
#X connect 19 2 17 0;
#X connect 20 0 21 0;
#X connect 21 0 30 0;
#X connect 22 0 23 0;
#X connect 23 0 82 0;
#X connect 24 0 13 0;
#X connect 24 0 25 0;
#X connect 25 0 7 0;
#X connect 25 0 16 0;
#X connect 26 0 87 1;
#X connect 27 0 28 0;
#X connect 28 0 18 0;
#X connect 28 1 87 0;
#X connect 29 0 86 0;
#X connect 30 0 29 0;
#X connect 30 0 15 0;
#X connect 39 0 0 0;
#X connect 40 0 26 0;
#X connect 42 0 55 0;
#X connect 43 0 56 0;
#X connect 44 0 48 0;
#X connect 45 0 49 0;
#X connect 46 0 44 0;
#X connect 47 0 46 0;
#X connect 50 0 51 0;
#X connect 51 0 45 0;
#X connect 53 0 1 0;
#X connect 54 0 8 0;
#X connect 59 0 1 0;
#X connect 60 0 53 0;
#X connect 63 0 91 0;
#X connect 64 0 66 0;
#X connect 65 0 68 0;
#X connect 66 0 67 0;
#X connect 67 0 70 0;
#X connect 68 0 69 0;
#X connect 69 0 72 0;
#X connect 70 0 71 0;
#X connect 71 0 63 1;
#X connect 71 1 63 0;
#X connect 72 0 70 0;
#X connect 72 1 71 1;
#X connect 73 0 78 0;
#X connect 74 0 77 0;
#X connect 75 0 64 0;
#X connect 76 0 65 0;
#X connect 79 0 7 1;
#X connect 80 0 7 2;
#X connect 81 0 42 0;
#X connect 81 1 43 0;
#X connect 82 0 12 0;
#X connect 82 1 14 0;
#X connect 86 0 54 0;
#X connect 87 0 30 1;
#X connect 88 0 19 0;
#X connect 89 0 98 0;
#X connect 89 1 100 0;
#X connect 90 0 94 0;
#X connect 90 1 89 1;
#X connect 91 0 0 0;
#X connect 92 0 91 0;
#X connect 94 0 89 0;
#X connect 95 0 90 0;
#X connect 96 0 94 0;
#X connect 97 0 95 0;
#X connect 98 0 99 0;
#X connect 99 0 105 0;
#X connect 100 0 101 0;
#X connect 101 0 104 0;
#X connect 102 0 103 0;
#X connect 103 0 59 0;
#X connect 104 0 102 0;
#X connect 104 1 103 0;
#X connect 105 0 59 1;
#X connect 107 0 30 0;
#X connect 108 0 85 0;
#X coords 0 -1 1 1 90 110 2 100 100;
