#N canvas 166 316 1280 752 10;
#X obj 917 302 outlet;
#X obj 436 171 inlet;
#X obj 391 170 inlet;
#X text 482 238 delay lines;
#X obj 391 237 pipe 1;
#X obj 850 375 outlet;
#X obj 436 237 pipe 1;
#X obj 391 284 line;
#X obj 436 284 line;
#X obj 147 310 inlet~;
#X obj 608 221 loadbang;
#X obj 391 327 ambipan~;
#X text 386 58 Ambisonic encoder and decoder from [ambilib] library
(ported by Matthew Paradis) - based on Ambisonic VSTs designed by David
Malham (University of York);
#X obj 314 358 * 1;
#X msg 341 341 0;
#X msg 314 341 1;
#X obj 314 321 sel 0;
#X obj 314 301 < 0.01;
#X text 201 297 solves zero issue;
#X obj 514 392 ambidec~ 4 - - - - -;
#X obj 315 409 outlet~;
#X obj 372 409 outlet~;
#X obj 432 409 outlet~;
#X obj 487 409 outlet~;
#X obj 547 410 outlet~;
#X obj 604 410 outlet~;
#X obj 664 409 outlet~;
#X obj 719 409 outlet~;
#X obj 369 392 ambidec~ 6;
#X obj 442 392 ambidec~ 1;
#X obj 562 375 demux~ _ _ _;
#X obj 646 375 demux~ _ _ _;
#X obj 391 375 demux~ _ _ _;
#X obj 478 375 demux~ _ _ _;
#X floatatom 736 359 5 0 0 0 - - -;
#X obj 736 342 r ary.cnfg;
#X msg 608 244 0;
#X text 390 145 manual distance (ad. \$1);
#X text 389 128 manual degrees (az.\$1);
#X msg 391 261 \$1 1;
#X msg 436 261 \$1 1;
#X obj 391 304 apanctrl;
#X connect 1 0 6 0;
#X connect 2 0 4 0;
#X connect 4 0 39 0;
#X connect 6 0 40 0;
#X connect 7 0 13 0;
#X connect 7 0 17 0;
#X connect 7 0 41 0;
#X connect 8 0 0 0;
#X connect 8 0 41 1;
#X connect 9 0 11 1;
#X connect 10 0 36 0;
#X connect 11 0 32 0;
#X connect 11 1 33 0;
#X connect 11 2 30 0;
#X connect 11 3 31 0;
#X connect 13 0 5 0;
#X connect 14 0 13 1;
#X connect 15 0 13 1;
#X connect 16 0 15 0;
#X connect 16 1 14 0;
#X connect 17 0 16 0;
#X connect 19 0 20 0;
#X connect 19 1 21 0;
#X connect 19 2 22 0;
#X connect 19 3 23 0;
#X connect 19 4 24 0;
#X connect 19 5 25 0;
#X connect 19 6 26 0;
#X connect 19 7 27 0;
#X connect 28 0 20 0;
#X connect 28 1 21 0;
#X connect 29 0 20 0;
#X connect 29 1 21 0;
#X connect 29 2 22 0;
#X connect 29 3 23 0;
#X connect 30 0 28 2;
#X connect 30 1 29 2;
#X connect 30 2 19 2;
#X connect 31 0 28 3;
#X connect 31 1 29 3;
#X connect 31 2 19 3;
#X connect 32 0 28 0;
#X connect 32 1 29 0;
#X connect 32 2 19 0;
#X connect 33 0 28 1;
#X connect 33 1 29 1;
#X connect 33 2 19 1;
#X connect 34 0 31 0;
#X connect 34 0 30 0;
#X connect 34 0 33 0;
#X connect 34 0 32 0;
#X connect 35 0 34 0;
#X connect 36 0 39 0;
#X connect 36 0 40 0;
#X connect 39 0 7 0;
#X connect 40 0 8 0;
#X connect 41 0 11 0;
