#N canvas 0 22 450 300 10;
#X obj 100 27 +decimate~;
#X obj 123 -16 loadbang;
#X obj 100 -34 inlet~;
#X obj 100 74 outlet~;
#X msg 233 34 choice \$1;
#X obj 100 51 polygate~ 1 100;
#X obj 104 110 tgl 15 0 empty empty empty 17 7 0 10 -262144 -1 -1 1
1;
#X text 119 109 dec~;
#X msg 123 2 24;
#X msg 147 2 4;
#X obj 218 10 * 4;
#X obj 218 -11 + 0.1;
#X obj 218 -61 inlet;
#X obj 218 -34 moses 0;
#X obj 27 70 loadbang;
#X msg 27 93 1;
#X connect 0 0 5 0;
#X connect 1 0 8 0;
#X connect 1 0 9 0;
#X connect 2 0 0 0;
#X connect 4 0 5 0;
#X connect 5 0 3 0;
#X connect 6 0 4 0;
#X connect 8 0 0 1;
#X connect 9 0 0 2;
#X connect 10 0 0 2;
#X connect 11 0 10 0;
#X connect 12 0 13 0;
#X connect 13 1 11 0;
#X connect 14 0 15 0;
#X connect 15 0 6 0;
#X coords 0 -1 1 1 65 35 2 100 100;
