#N canvas 200 22 497 534 10;
#X obj 237 -252 image img/dino.gif;
#X obj 122 -153 inlet~;
#X obj 169 -113 outlet~;
#X text 76 -70 http://www.pd-tutorial.com/english/ch03s05.html - waveshaping
;
#X text 76 -30 http://en.wikipedia.org/wiki/Waveshaper;
#X text 76 -13 try random waveform as well as additive noise (+) as
well as (*);
#X obj 191 -174 hsl 50 20 0 1 0 0 empty empty empty -2 -8 0 10 -262144
-1 -1 4900 1;
#X text 40 -203 dist | noise;
#N canvas 439 23 1280 752 dino 1;
#X text 117 456 truncating waveform between 0 to 1 and -1 to 0;
#X text 117 475 clipped waveform produces distortion;
#X text 115 406 "8ve up distortion" like hendrix's "octavia" pedal
;
#X text 119 428 produces tidier waveform;
#X obj 122 246 inlet~;
#X text 214 310 clip range;
#X text 117 498 [*~ -1] to restrict between 0 to 1 - removes unwanted
resonances \, accentuates higher harmonics;
#X text 118 567 pink noise has constant power per octave versus per
hz of bandwidth (white noise);
#X obj 122 308 clip~ 0 1;
#X obj 206 292 clip~ -1 0;
#X obj 487 322 *~ 1;
#X obj 141 92 inlet;
#X obj 141 182 reverse;
#X text 118 599 thus sounds less "rough \, " what one might consider
to be more "consonant.";
#X obj 122 275 *~ 0;
#X obj 206 337 *~ -1;
#X text 117 532 octave up comes from the frequencies/harmonics an octave
above being shifted up *~ -1;
#X obj 487 371 outlet~;
#X obj 487 263 +decimate~;
#X obj 50 263 *~ 0;
#X text 67 43 [DINO~ CLEAN -> DIST -> DECIMATE];
#X msg 515 109 24;
#X msg 544 109 4;
#X obj 515 92 loadbang;
#X obj 487 290 *~ 1;
#X obj 379 109 > 0.7;
#X obj 379 303 line;
#X obj 379 126 sel 1;
#X msg 379 145 1;
#X msg 406 145 0;
#X obj 226 109 line;
#X obj 71 239 line;
#X obj 122 354 *~ 1;
#X obj 487 354 *~ 1;
#X text 483 393 mapping suggestion: instead of contour - have melodic
inertia ramp to decimation;
#X floatatom 160 128 5 0 0 0 - - -;
#X msg 379 162 \$1 500;
#X msg 71 199 \$1 500;
#X connect 4 0 14 0;
#X connect 4 0 18 0;
#X connect 4 0 19 0;
#X connect 8 0 32 0;
#X connect 9 0 15 0;
#X connect 10 0 33 0;
#X connect 11 0 12 0;
#X connect 11 0 30 0;
#X connect 11 0 25 0;
#X connect 11 0 21 0;
#X connect 11 0 22 0;
#X connect 11 0 35 0;
#X connect 12 0 37 0;
#X connect 14 0 8 0;
#X connect 14 0 9 0;
#X connect 15 0 32 0;
#X connect 18 0 24 0;
#X connect 19 0 32 0;
#X connect 21 0 18 1;
#X connect 22 0 18 2;
#X connect 23 0 21 0;
#X connect 23 0 22 0;
#X connect 24 0 10 0;
#X connect 25 0 27 0;
#X connect 26 0 10 1;
#X connect 27 0 28 0;
#X connect 27 1 29 0;
#X connect 28 0 36 0;
#X connect 29 0 36 0;
#X connect 30 0 14 1;
#X connect 31 0 19 1;
#X connect 32 0 17 0;
#X connect 33 0 17 0;
#X connect 36 0 26 0;
#X connect 37 0 31 0;
#X restore 169 -136 pd dino;
#X obj 148 -191 inlet;
#X text 339 -142 [dino~];
#X text 75 31 More info:;
#X text 74 46 ins: contour to ctrl dist to decimation crossfade (0
to 1);
#X obj 260 -179 inlet;
#X msg 260 -153 \$1;
#X obj 396 -379 loadbang;
#X msg 396 -355 0.5;
#X connect 1 0 8 0;
#X connect 6 0 8 1;
#X connect 8 0 2 0;
#X connect 9 0 6 0;
#X connect 13 0 14 0;
#X connect 15 0 16 0;
#X connect 16 0 6 0;
#X coords 0 0 1 1 100 30 0;
