#N canvas 0 48 1280 752 10;
#X obj 72 240 outlet~;
#X obj 72 98 inlet~;
#X obj 70 42 cnv 15 50 50 empty empty empty 20 12 0 14 -118329 -66577
0;
#X text 71 71 freeze~;
#X obj 503 92 inlet;
#X obj 169 129 inlet;
#X obj 215 84 inlet;
#X obj 363 96 inlet;
#X obj 427 98 inlet;
#X floatatom 503 113 5 0 0 0 - - -;
#X floatatom 363 116 0 0 120 0 - - -;
#X floatatom 427 120 0 0 120 0 - - -;
#X text 361 76 c/o freq;
#X obj 169 152 * 100;
#X text 165 110 level;
#X text 212 66 lvenss;
#X text 425 78 h/f damp;
#X obj 215 153 line;
#X floatatom 215 105 0 0 100 0 - - -;
#X obj 363 136 * 3000;
#X obj 427 140 * 100;
#X floatatom 297 146 5 0 0 0 - - -;
#X obj 215 129 expr $f1 * 30 + 70;
#X obj 72 216 rev2~ 100 80 200 90;
#X connect 1 0 23 0;
#X connect 4 0 9 0;
#X connect 5 0 13 0;
#X connect 6 0 18 0;
#X connect 7 0 10 0;
#X connect 8 0 11 0;
#X connect 9 0 22 0;
#X connect 10 0 19 0;
#X connect 11 0 20 0;
#X connect 18 0 22 0;
#X connect 22 0 17 0;
#X connect 22 0 21 0;
#X connect 23 0 0 0;
#X coords 0 0 1 1 50 50 0;
