#N canvas 0 22 450 300 10;
#X obj 274 83 inlet;
#X obj 274 104 tgl 15 0 empty empty empty 17 7 0 10 -262144 -1 -1 0
1;
#X obj 53 167 outlet~;
#X obj 53 141 polygate~ 4 50;
#X obj 122 82 inlet;
#X obj 84 82 inlet;
#X obj 37 82 inlet~;
#X obj 193 77 inlet;
#X msg 193 124 choice \$1;
#X obj 193 103 + 1;
#X text 50 208 More info:;
#X text 50 231 ins: audio in \, freq \, resonance \, choice \, switch~
;
#X text 50 246 outs: filter output;
#X obj 65 110 svf~ 220 0.1;
#X text 37 41 Simple state variable filter abstraction;
#X obj 274 124 switch~;
#X connect 0 0 1 0;
#X connect 1 0 15 0;
#X connect 3 0 2 0;
#X connect 4 0 13 2;
#X connect 5 0 13 1;
#X connect 6 0 13 0;
#X connect 7 0 9 0;
#X connect 8 0 3 0;
#X connect 9 0 8 0;
#X connect 13 0 3 0;
#X connect 13 1 3 1;
#X connect 13 2 3 2;
#X connect 13 3 3 3;
