#N canvas 0 22 1280 752 10;
#N canvas 628 22 450 300 (subpatch) 0;
#X array fft 22100 float 2;
#X coords 0 1 22100 0 200 100 1;
#X restore 100 113 graph;
#X text 366 531 freq;
#X floatatom 302 494 5 0 0 0 - - -;
#X obj 302 512 mtof;
#X floatatom 302 532 10 0 0 0 - - -;
#X text 85 199 0;
#X obj 723 806 tabletool fft;
#X obj 822 806 tabletool fft;
#X obj 914 806 tabletool fft;
#X text 86 111 1;
#X msg 20 411 \; fft const 0;
#X obj 302 552 spigot;
#X obj 105 372 tgl 15 0 empty empty empty 17 7 0 10 -262144 -1 -1 0
1;
#X text 119 391 reset;
#X obj 105 396 bng 15 250 50 0 empty empty empty 17 7 0 10 -262144
-1 -1;
#X obj 99 577 *~ 1;
#X obj 110 558 line;
#X msg 110 539 \$1 50;
#X text 117 96 ea~;
#X obj 129 233 vu 15 120 \$0-output empty -1 -8 0 10 -66577 -1 0 0
;
#X obj 169 594 env~;
#X obj 169 613 - 100;
#X obj 169 633 s \$0-output;
#X obj 99 487 *~ 10;
#X obj 302 571 s \$0-freq;
#N canvas 0 48 1280 752 harmonics 0;
#X floatatom 441 36 10 0 0 0 - - -;
#X obj 36 363 pack 0 0;
#X obj 36 406 tabletool fft;
#X obj 137 334 * 2;
#X obj 137 360 pack 0 0;
#X obj 137 403 tabletool fft;
#X obj 236 360 pack 0 0;
#X obj 236 403 tabletool fft;
#X msg 137 382 insert \$1 \$2;
#X msg 36 385 insert \$1 \$2;
#X msg 236 382 insert \$1 \$2;
#X obj 236 334 * 3;
#X obj 328 360 pack 0 0;
#X obj 328 403 tabletool fft;
#X obj 437 373 pack 0 0;
#X obj 437 416 tabletool fft;
#X msg 328 382 insert \$1 \$2;
#X msg 437 395 insert \$1 \$2;
#X obj 328 334 * 4;
#X obj 437 347 * 5;
#X obj 532 405 pack 0 0;
#X obj 532 446 tabletool fft;
#X obj 628 404 pack 0 0;
#X obj 628 447 tabletool fft;
#X msg 532 427 insert \$1 \$2;
#X msg 628 426 insert \$1 \$2;
#X obj 720 403 pack 0 0;
#X obj 720 446 tabletool fft;
#X obj 819 401 pack 0 0;
#X obj 819 444 tabletool fft;
#X msg 720 425 insert \$1 \$2;
#X msg 819 423 insert \$1 \$2;
#X obj 532 379 * 6;
#X obj 628 378 * 7;
#X obj 720 377 * 8;
#X obj 819 375 * 9;
#X obj 812 128 pack 0 0;
#X obj 911 128 pack 0 0;
#X msg 812 150 insert \$1 \$2;
#X msg 911 150 insert \$1 \$2;
#X obj 1003 128 pack 0 0;
#X msg 1003 150 insert \$1 \$2;
#X obj 812 102 * 0.5;
#X obj 911 102 * 0.25;
#X obj 1003 102 * 0.125;
#X obj 933 403 pack 0 0;
#X obj 933 446 tabletool fft;
#X msg 933 425 insert \$1 \$2;
#X obj 1039 401 pack 0 0;
#X obj 1039 444 tabletool fft;
#X msg 1039 423 insert \$1 \$2;
#X obj 933 377 * 10;
#X obj 1039 375 * 11;
#X obj 1142 402 pack 0 0;
#X obj 1142 445 tabletool fft;
#X msg 1142 424 insert \$1 \$2;
#X obj 1142 376 * 12;
#X text 507 34 freq;
#X obj 441 14 r \$0-freq;
#X msg 81 334 \$1;
#X msg 168 334 \$1;
#X msg 265 334 \$1;
#X msg 359 333 \$1;
#X msg 482 347 \$1;
#X msg 577 379 \$1;
#X msg 673 378 \$1;
#X msg 765 377 \$1;
#X msg 864 375 \$1;
#X msg 978 377 \$1;
#X msg 1084 375 \$1;
#X msg 1187 377 \$1;
#X msg 857 98 \$1;
#X msg 956 102 \$1;
#X msg 1054 102 \$1;
#X obj 857 65 r \$0-u1v;
#X obj 956 75 r \$0-u2v;
#X obj 1054 80 r \$0-u3v;
#X obj 61 53 r \$0-duov;
#X msg 61 73 1;
#X obj 61 94 s \$0-dv;
#X obj 81 313 r \$0-fv;
#X obj 168 312 r \$0-o1v;
#X obj 265 312 r \$0-o2v;
#X obj 359 312 r \$0-o3v;
#X obj 482 326 r \$0-o4v;
#X obj 576 358 r \$0-o5v;
#X obj 673 355 r \$0-o6v;
#X obj 765 353 r \$0-o7v;
#X obj 864 352 r \$0-o8v;
#X obj 978 354 r \$0-o9v;
#X obj 1084 354 r \$0-o10v;
#X obj 1187 355 r \$0-o11v;
#X obj 812 173 tabletool fft;
#X obj 911 174 tabletool fft;
#X obj 1003 173 tabletool fft;
#X connect 0 0 1 0;
#X connect 0 0 3 0;
#X connect 0 0 11 0;
#X connect 0 0 18 0;
#X connect 0 0 19 0;
#X connect 0 0 32 0;
#X connect 0 0 33 0;
#X connect 0 0 34 0;
#X connect 0 0 35 0;
#X connect 0 0 42 0;
#X connect 0 0 43 0;
#X connect 0 0 44 0;
#X connect 0 0 51 0;
#X connect 0 0 52 0;
#X connect 0 0 56 0;
#X connect 1 0 9 0;
#X connect 3 0 4 0;
#X connect 4 0 8 0;
#X connect 6 0 10 0;
#X connect 8 0 5 0;
#X connect 9 0 2 0;
#X connect 10 0 7 0;
#X connect 11 0 6 0;
#X connect 12 0 16 0;
#X connect 14 0 17 0;
#X connect 16 0 13 0;
#X connect 17 0 15 0;
#X connect 18 0 12 0;
#X connect 19 0 14 0;
#X connect 20 0 24 0;
#X connect 22 0 25 0;
#X connect 24 0 21 0;
#X connect 25 0 23 0;
#X connect 26 0 30 0;
#X connect 28 0 31 0;
#X connect 30 0 27 0;
#X connect 31 0 29 0;
#X connect 32 0 20 0;
#X connect 33 0 22 0;
#X connect 34 0 26 0;
#X connect 35 0 28 0;
#X connect 36 0 38 0;
#X connect 37 0 39 0;
#X connect 38 0 92 0;
#X connect 39 0 93 0;
#X connect 40 0 41 0;
#X connect 41 0 94 0;
#X connect 42 0 36 0;
#X connect 43 0 37 0;
#X connect 44 0 40 0;
#X connect 45 0 47 0;
#X connect 47 0 46 0;
#X connect 48 0 50 0;
#X connect 50 0 49 0;
#X connect 51 0 45 0;
#X connect 52 0 48 0;
#X connect 53 0 55 0;
#X connect 55 0 54 0;
#X connect 56 0 53 0;
#X connect 58 0 0 0;
#X connect 59 0 1 1;
#X connect 60 0 4 1;
#X connect 61 0 6 1;
#X connect 62 0 12 1;
#X connect 63 0 14 1;
#X connect 64 0 20 1;
#X connect 65 0 22 1;
#X connect 66 0 26 1;
#X connect 67 0 28 1;
#X connect 68 0 45 1;
#X connect 69 0 48 1;
#X connect 70 0 53 1;
#X connect 71 0 36 1;
#X connect 72 0 37 1;
#X connect 73 0 40 1;
#X connect 74 0 71 0;
#X connect 75 0 72 0;
#X connect 76 0 73 0;
#X connect 77 0 78 0;
#X connect 78 0 79 0;
#X connect 80 0 59 0;
#X connect 81 0 60 0;
#X connect 82 0 61 0;
#X connect 83 0 62 0;
#X connect 84 0 63 0;
#X connect 85 0 64 0;
#X connect 86 0 65 0;
#X connect 87 0 66 0;
#X connect 88 0 67 0;
#X connect 89 0 68 0;
#X connect 90 0 69 0;
#X connect 91 0 70 0;
#X restore 306 103 pd harmonics;
#X obj 110 233 vsl 15 120 0 5 0 0 empty empty empty 0 -9 0 10 -262144
-1 -1 0 1;
#X text 113 250 v;
#X text 113 262 o;
#X text 113 278 l;
#N canvas 0 22 450 300 binwindow 0;
#N canvas 0 22 450 300 (subpatch) 0;
#X array binwindow 44100 float 0;
#X coords 0 1 44099 0 50 50 1;
#X restore 144 175 graph;
#X msg 184 116 0;
#X obj 86 172 osc~;
#X obj 86 124 samplerate~;
#X obj 86 195 *~ -0.5;
#X obj 86 218 +~ 0.5;
#X obj 78 101 bng 15 250 50 0 empty empty empty 0 -6 0 8 -262144 -1
-1;
#X obj 78 243 tabwrite~ binwindow;
#X obj 78 80 loadbang;
#X obj 86 148 / 44100;
#X connect 1 0 2 1;
#X connect 2 0 4 0;
#X connect 3 0 9 0;
#X connect 4 0 5 0;
#X connect 5 0 7 0;
#X connect 6 0 3 0;
#X connect 6 0 1 0;
#X connect 6 0 7 0;
#X connect 8 0 6 0;
#X connect 9 0 2 0;
#X restore 306 125 pd binwindow;
#X text 113 292 u;
#X text 113 306 m;
#X text 113 323 e;
#X obj 187 272 hsl 100 10 0 1 0 0 \$0-fv \$0-dv empty -2 -8 0 10 -262144
-1 -1 9900 1;
#X text 107 370 + series;
#X obj 187 284 hsl 100 10 0 1 0 0 \$0-o1v \$0-dv empty -2 -8 0 10 -262144
-1 -1 9900 1;
#X obj 187 296 hsl 100 10 0 1 0 0 \$0-o2v \$0-dv empty -2 -8 0 10 -262144
-1 -1 9900 1;
#X obj 187 308 hsl 100 10 0 1 0 0 \$0-o3v \$0-dv empty -2 -8 0 10 -262144
-1 -1 9900 1;
#X obj 187 320 hsl 100 10 0 1 0 0 \$0-o4v \$0-dv empty -2 -8 0 10 -262144
-1 -1 9900 1;
#X obj 187 332 hsl 100 10 0 1 0 0 \$0-o5v \$0-dv empty -2 -8 0 10 -262144
-1 -1 9900 1;
#X obj 187 344 hsl 100 10 0 1 0 0 \$0-o6v \$0-dv empty -2 -8 0 10 -262144
-1 -1 9900 1;
#X obj 187 356 hsl 100 10 0 1 0 0 \$0-o7v \$0-dv empty -2 -8 0 10 -262144
-1 -1 9900 1;
#X obj 187 368 hsl 100 10 0 1 0 0 \$0-o8v \$0-dv empty -2 -8 0 10 -262144
-1 -1 9900 1;
#X obj 187 380 hsl 100 10 0 1 0 0 \$0-o9v \$0-dv empty -2 -8 0 10 -262144
-1 -1 9900 1;
#X obj 187 392 hsl 100 10 0 1 0 0 \$0-o10v \$0-dv empty -2 -8 0 10
-262144 -1 -1 9900 1;
#X obj 187 404 hsl 100 10 0 1 0 0 \$0-o11v \$0-dv empty -2 -8 0 10
-262144 -1 -1 9900 1;
#X text 196 281 o1;
#X text 196 293 o2;
#X text 196 305 o3;
#X text 196 317 o4;
#X text 196 329 o5;
#X obj 187 236 hsl 100 10 0 1 0 0 \$0-u3v \$0-dv empty -2 -8 0 10 -262144
-1 -1 9900 1;
#X obj 187 248 hsl 100 10 0 1 0 0 \$0-u2v \$0-dv empty -2 -8 0 10 -262144
-1 -1 9900 1;
#X obj 187 260 hsl 100 10 0 1 0 0 \$0-u1v \$0-dv empty -2 -8 0 10 -262144
-1 -1 9900 1;
#X text 195 232 u3;
#X text 196 256 u1;
#X text 195 244 u2;
#X text 196 340 o6;
#X text 196 352 o7;
#X text 196 365 o8;
#X text 196 377 o9;
#X text 196 389 o10;
#X text 196 401 o11;
#X obj 105 418 bng 15 250 50 0 \$0-duov empty empty 17 7 0 10 -262144
-1 -1;
#X text 120 416 default;
#X text 306 150 Click + series to add harmonic series of incoming note
;
#X text 381 477 Pitch tracking incoming audio;
#X text 386 103 Harmonics - 3 undertones \, fundamental \, & 11 overtones
;
#X text 307 178 ** Watch input level [*~ 10];
#X text 233 280 8ve;
#X text 233 292 5th;
#X text 233 304 8ve;
#X text 196 268 fundamental;
#X text 168 270 h1;
#X text 168 281 h2;
#X text 168 293 h3;
#X text 168 304 h4;
#X text 168 316 h5;
#X text 168 327 h6;
#X text 168 339 h7;
#X text 169 352 h8;
#X text 169 364 h9;
#X text 164 376 h10;
#X text 164 388 h11;
#X text 164 400 h12;
#X text 232 352 8ve;
#X text 233 316 + 3rd;
#X text 234 329 5th;
#X text 234 400 5th;
#X text 221 388 #5/tritone;
#X text 228 376 + 3rd;
#X text 228 364 + 2nd;
#X text 228 340 - 7th;
#X text 232 256 8ve;
#X text 232 244 5th;
#X text 232 232 8ve;
#X text 136 487 boost piezo;
#N canvas 211 78 1280 752 fft 0;
#X obj 25 174 *~;
#X obj 25 109 inlet~;
#X obj 25 228 rfft~;
#X obj 24 363 *~;
#X obj 66 363 *~;
#X obj 87 235 *~;
#X obj 26 516 *~;
#X obj 88 261 *~;
#X obj 25 409 rifft~;
#X obj 26 576 outlet~;
#X text 122 247 amplification of;
#X text 129 265 array values;
#X text 150 295 Normalization;
#X text 151 315 (3 * block size) / 2 to normalise overlapping block~
windows;
#X obj 47 491 tabreceive~ binwindow;
#X obj 46 150 tabreceive~ binwindow;
#X obj 25 18 block~ 44100 4;
#X obj 87 293 /~ 66150;
#X obj 86 206 tabreceive~ fft;
#X connect 0 0 2 0;
#X connect 1 0 0 0;
#X connect 2 0 3 0;
#X connect 2 1 4 0;
#X connect 3 0 8 0;
#X connect 4 0 8 1;
#X connect 5 0 7 0;
#X connect 5 0 7 1;
#X connect 6 0 9 0;
#X connect 7 0 17 0;
#X connect 8 0 6 0;
#X connect 14 0 6 1;
#X connect 15 0 0 1;
#X connect 17 0 3 1;
#X connect 17 0 4 1;
#X connect 18 0 5 0;
#X connect 18 0 5 1;
#X restore 99 518 pd fft;
#X obj 227 477 sigmund~ -hop 128 notes;
#X text 264 213 20100;
#X obj 20 377 loadbang;
#X obj 99 602 outlet~;
#X obj 99 460 inlet~;
#X connect 2 0 3 0;
#X connect 3 0 4 0;
#X connect 4 0 11 0;
#X connect 11 0 24 0;
#X connect 12 0 11 1;
#X connect 14 0 10 0;
#X connect 15 0 20 0;
#X connect 15 0 102 0;
#X connect 16 0 15 1;
#X connect 17 0 16 0;
#X connect 20 0 21 0;
#X connect 21 0 22 0;
#X connect 23 0 98 0;
#X connect 26 0 17 0;
#X connect 98 0 15 0;
#X connect 99 0 2 0;
#X connect 101 0 64 0;
#X connect 103 0 23 0;
#X connect 103 0 99 0;
#X coords 0 -1 1 1 200 350 2 100 100;
