#N canvas 0 22 930 585 10;
#X obj 119 223 *~;
#X obj 180 165 vline~;
#X obj 180 206 *~ 1;
#X obj 230 182 unsig~;
#X floatatom 230 203 10 0 0 0 - - -;
#X obj 363 35 bang~;
#X msg 180 139 1 500;
#X obj 336 56 timer;
#X floatatom 336 76 10 0 0 0 - - -;
#X obj 336 35 bng 15 250 50 0 empty empty empty 17 7 0 10 -262144 -1
-1;
#X text 400 76 ms;
#X obj 566 24 r sample.size;
#X obj 563 114 - 1000;
#X floatatom 563 134 5 0 0 0 - - -;
#X obj 437 214 bng 15 250 50 0 empty empty empty 17 7 0 10 -262144
-1 -1;
#X text 562 44 convert samples to ms;
#X text 606 112 Sample offset - i.e. start fade out before sample has
elapsed;
#X text 562 60 |;
#X text 562 73 V;
#X text 27 11 fade in/out of 500ms;
#X floatatom 437 170 5 0 0 0 - - -;
#X obj 437 190 gate 1;
#X msg 563 91 10000;
#X obj 437 150 == 1;
#X obj 388 106 int;
#X floatatom 388 134 5 0 0 0 - - -;
#X text 227 221 amp ramp;
#X obj 437 234 pipe;
#X text 335 -2 start record;
#X obj 443 0 gate 1;
#X obj 443 -20 == 10000;
#X obj 443 20 bng 15 250 50 0 empty empty empty 17 7 0 10 -262144 -1
-1;
#X text 226 239 0 to 1 - fade in;
#X text 225 257 1 to 0 - fade out;
#X text 26 -7 [fade in/out for looper synced to bang~];
#X obj 607 74 loadbang;
#X text 501 -21 when sample size (\$1) reached \, reset timer;
#X msg 336 229 0 500;
#X obj 119 126 inlet~;
#X obj 119 259 outlet~;
#X connect 0 0 39 0;
#X connect 1 0 2 0;
#X connect 1 0 3 0;
#X connect 2 0 0 1;
#X connect 3 0 4 0;
#X connect 5 0 7 1;
#X connect 6 0 1 0;
#X connect 7 0 8 0;
#X connect 8 0 24 0;
#X connect 9 0 7 0;
#X connect 9 0 6 0;
#X connect 12 0 13 0;
#X connect 13 0 23 1;
#X connect 14 0 37 0;
#X connect 14 0 27 0;
#X connect 20 0 21 0;
#X connect 20 0 21 1;
#X connect 21 0 14 0;
#X connect 22 0 12 0;
#X connect 23 0 20 0;
#X connect 24 0 25 0;
#X connect 25 0 30 0;
#X connect 25 0 23 0;
#X connect 29 0 31 0;
#X connect 30 0 29 0;
#X connect 30 0 29 1;
#X connect 31 0 9 0;
#X connect 35 0 22 0;
#X connect 37 0 1 0;
#X connect 38 0 0 0;
