#N canvas 385 154 1280 752 8;
#X obj 32 611 outlet~;
#X obj 42 16 inlet~;
#X obj 51 109 inlet;
#X obj 49 171 outlet;
#X obj 134 76 inlet;
#X text 343 234 grain.speed;
#X text 48 185 playhead;
#X text 50 124 rec;
#N canvas 0 48 1280 752 audio 0;
#X obj 93 -205 tabwrite~ \$0-sample;
#X msg 108 -237 bang;
#X obj 93 -390 *~;
#X obj 159 -405 vline~;
#X obj 93 -461 inlet~;
#X text 93 -184 [fades for grain sampler];
#X floatatom 159 -354 5 0 0 0 - - -;
#X obj 159 -374 snapshot~;
#X msg 159 -457 0 \, 1 1000 0 \, 0 100 800;
#X text 173 -316 start recording;
#X obj 108 -256 bng 15 250 50 0 empty empty empty 17 7 0 10 -262144
-1 -1;
#X obj 108 -276 sel 1;
#X msg 108 -295 1;
#X obj 93 -430 *~ 5;
#X obj 108 -316 r \$0-rec;
#X text 22 -430 boost piezos;
#X obj 219 -389 r metro;
#X connect 1 0 0 0;
#X connect 2 0 0 0;
#X connect 3 0 2 1;
#X connect 3 0 7 0;
#X connect 4 0 13 0;
#X connect 7 0 6 0;
#X connect 8 0 3 0;
#X connect 10 0 1 0;
#X connect 10 0 8 0;
#X connect 11 0 10 0;
#X connect 12 0 11 0;
#X connect 13 0 2 0;
#X connect 14 0 12 0;
#X connect 16 0 7 0;
#X restore 42 36 pd audio;
#X obj 102 36 table \$0-sample 50000;
#X obj 72 124 bng 15 250 50 0 \$0-rec rec empty 17 7 0 10 -262144 -1
-1;
#X text 92 122 rec;
#X msg 114 251 44100;
#X obj 114 273 / 50000;
#X obj 563 349 metro;
#X obj 563 370 tgl 15 0 empty empty empty 17 7 0 10 -262144 -1 -1 0
1;
#X text 98 196 sample rate / sample size = phasor rate to playback
audio at "normal speed";
#X obj 563 326 tgl 15 0 empty empty empty 17 7 0 10 -262144 -1 -1 1
1;
#X text 585 369 Alternate Grains;
#X obj 408 426 f;
#X obj 761 426 f;
#X msg 408 453 0 \, 1 \$1;
#X msg 761 448 0 \, 1 \$1;
#X obj 761 539 tabread4~ \$0-sample;
#X obj 114 324 phasor~;
#X obj 114 347 *~ 50000;
#X floatatom 114 488 10 0 0 0 - - -;
#X obj 114 302 * 1;
#X text 141 302 Time manipulation here;
#X obj 396 558 *~;
#X obj 745 559 *~;
#X obj 408 539 tabread4~ \$0-sample;
#X floatatom 171 269 5 0 0 0 - - -;
#X obj 496 490 samphold~;
#X obj 849 493 samphold~;
#X obj 551 684 hsl 80 10 0 50000 0 0 \$0-87126 \$0-ph empty -2 -8 0
10 -262144 -1 -1 7015 1;
#X obj 114 507 s \$0-ph;
#X obj 114 467 snapshot~;
#X obj 174 250 hsl 128 15 -1 1 0 0 empty empty empty -2 -8 0 10 -262144
-1 -1 7408 1;
#X text 182 250 Playback direction/speed (-1 to 1);
#X text 545 702 Thanks to .mmb for direction with this abstraction
;
#X obj 593 135 hsl 128 15 50 2000 0 0 empty empty empty -2 -8 0 10
-262144 -1 -1 12700 1;
#X text 625 133 Grain Size (ms);
#X text 492 326 play grains;
#X text 546 718 & http://www.pd-tutorial.com/english/ch03s07.html;
#X obj 689 170 sel 1;
#X msg 689 191 0;
#X obj 689 249 tgl 15 0 empty empty empty 17 7 0 10 -262144 -1 -1 1
1;
#X obj 689 150 < 400;
#X msg 734 185 1;
#X obj 761 516 expr~ fmod($v1*$f3+$v2 \, 50000);
#X text 627 281 async grain?;
#X text 728 151 avoid clicks at smaller grain sizes;
#X text 626 294 overlapping half time each;
#X obj 306 357 bng 15 250 50 0 empty empty empty 17 7 0 10 -262144
-1 -1;
#X text 326 353 8ve (-);
#X obj 306 337 bng 15 250 50 0 empty empty empty 17 7 0 10 -262144
-1 -1;
#X text 326 336 8ve (+);
#X msg 266 372 22.05;
#X msg 266 352 88.2;
#X obj 266 393 s \$0-sr;
#X obj 306 316 bng 15 250 50 0 empty empty empty 17 7 0 10 -262144
-1 -1;
#X text 326 315 8ve (D);
#X msg 266 331 44.1;
#X text 632 327 alt async grains? (no clicks);
#X obj 408 475 vline~;
#X obj 761 478 vline~;
#X obj 590 264 spigot;
#X obj 590 226 line;
#X msg 590 204 \$1 \$2;
#X obj 590 182 pack 0 0;
#X obj 582 471 r \$0-sr;
#X obj 935 473 r \$0-sr;
#X obj 408 514 expr~ fmod($v1*$f3+$v2 \, 50000);
#X obj 908 493 * 44.1;
#X obj 555 490 * 44.1;
#X obj 590 327 * 0.5;
#X obj 563 389 sel 0 1;
#X obj 563 411 bng 15 250 50 0 empty empty empty 17 7 0 10 -262144
-1 -1;
#X obj 579 411 bng 15 250 50 0 empty empty empty 17 7 0 10 -262144
-1 -1;
#X obj 573 574 +~;
#X obj 734 234 pipe 40;
#X obj 303 519 *~ 1024;
#X obj 647 524 *~ 1024;
#X obj 553 111 moses 50;
#X obj 563 302 r \$0-play;
#X obj 635 150 * 1;
#N canvas 318 189 450 300 init 0;
#X obj 51 70 s \$0-g.spd;
#X obj 51 25 loadbang;
#X msg 51 47 0.2;
#X msg 51 96 1;
#X obj 51 116 s \$0-ph.b;
#X msg 51 171 150;
#X obj 51 194 s \$0-g.sze;
#X obj 51 151 del 50;
#X obj 121 32 r init.string;
#X connect 1 0 2 0;
#X connect 1 0 3 0;
#X connect 1 0 7 0;
#X connect 2 0 0 0;
#X connect 3 0 4 0;
#X connect 5 0 6 0;
#X connect 7 0 5 0;
#X connect 8 0 2 0;
#X connect 8 0 5 0;
#X restore 117 568 pd init;
#X obj 171 229 r \$0-g.spd;
#X obj 496 311 r play;
#X obj 49 151 r \$0-ph;
#X text 931 511 fmod($v1*$f3+$v2 \, 50000);
#X text 932 528 floating point modulo(vline * gs*44.1 + sample position
\, samplesize);
#X obj 303 543 tabread4~ gw;
#X obj 647 544 tabread4~ gw;
#X obj 114 412 r~ \$0-ply.pos;
#X obj 114 369 s~ \$0-ply.pos;
#X obj 496 461 r~ \$0-ply.pos;
#X obj 849 470 r~ \$0-ply.pos;
#X obj 32 589 *~ 1;
#X floatatom 134 95 5 0 0 0 - - -;
#X text 101 21 audio is in here V;
#X floatatom 454 326 5 0 0 0 - - -;
#X obj 454 345 switch~;
#X text 217 451 receive global metro in main patch;
#X obj 553 34 r glbl.it;
#X floatatom 553 72 5 0 0 0 - - -;
#X obj 553 91 speedlim 50;
#X floatatom 134 166 5 0 0 0 - - -;
#X obj 134 115 expr $f1 * 2 - 0.5;
#X obj 553 53 * 0.9;
#X text 168 73 contour controls grain speed;
#X obj 170 452 r metro2;
#X connect 1 0 8 0;
#X connect 2 0 10 0;
#X connect 4 0 100 0;
#X connect 12 0 13 0;
#X connect 13 0 27 0;
#X connect 14 0 15 0;
#X connect 15 0 77 0;
#X connect 17 0 14 0;
#X connect 19 0 21 0;
#X connect 19 0 75 0;
#X connect 20 0 22 0;
#X connect 20 0 74 0;
#X connect 21 0 65 0;
#X connect 22 0 66 0;
#X connect 23 0 30 1;
#X connect 24 0 25 0;
#X connect 25 0 96 0;
#X connect 26 0 36 0;
#X connect 27 0 24 0;
#X connect 29 0 80 0;
#X connect 30 0 80 1;
#X connect 31 0 29 1;
#X connect 32 0 27 1;
#X connect 32 0 12 0;
#X connect 33 0 73 1;
#X connect 34 0 50 1;
#X connect 37 0 26 0;
#X connect 38 0 32 0;
#X connect 41 0 48 0;
#X connect 41 0 70 0;
#X connect 41 0 86 0;
#X connect 45 0 46 0;
#X connect 45 0 49 0;
#X connect 46 0 47 0;
#X connect 47 0 67 1;
#X connect 48 0 45 0;
#X connect 49 0 81 0;
#X connect 50 0 23 0;
#X connect 54 0 58 0;
#X connect 56 0 59 0;
#X connect 58 0 60 0;
#X connect 59 0 60 0;
#X connect 61 0 63 0;
#X connect 63 0 60 0;
#X connect 65 0 33 1;
#X connect 65 0 73 0;
#X connect 65 0 82 0;
#X connect 66 0 50 0;
#X connect 66 0 34 1;
#X connect 66 0 83 0;
#X connect 67 0 76 0;
#X connect 67 0 19 1;
#X connect 67 0 20 1;
#X connect 68 0 67 0;
#X connect 69 0 68 0;
#X connect 70 0 69 0;
#X connect 71 0 75 1;
#X connect 72 0 74 1;
#X connect 73 0 31 0;
#X connect 74 0 50 2;
#X connect 75 0 73 2;
#X connect 76 0 14 1;
#X connect 77 0 78 0;
#X connect 77 1 79 0;
#X connect 78 0 19 0;
#X connect 79 0 20 0;
#X connect 80 0 99 0;
#X connect 81 0 47 0;
#X connect 82 0 93 0;
#X connect 83 0 94 0;
#X connect 84 1 41 0;
#X connect 85 0 17 0;
#X connect 86 0 70 1;
#X connect 88 0 38 0;
#X connect 89 0 17 0;
#X connect 89 0 102 0;
#X connect 90 0 3 0;
#X connect 93 0 29 0;
#X connect 94 0 30 0;
#X connect 95 0 37 0;
#X connect 97 0 33 0;
#X connect 98 0 34 0;
#X connect 99 0 0 0;
#X connect 100 0 109 0;
#X connect 102 0 103 0;
#X connect 105 0 110 0;
#X connect 106 0 107 0;
#X connect 107 0 84 0;
#X connect 108 0 38 0;
#X connect 109 0 108 0;
#X connect 110 0 106 0;
#X connect 112 0 37 0;
#X coords 0 0 1 1 100 110 0;
