#N canvas 15 22 1265 752 8;
#X obj 9 223 *~;
#X obj 30 130 *~ 1;
#X obj 9 150 vcf~ \$1 1;
#X obj 41 208 line~;
#X msg 41 191 \$1 50;
#X floatatom 41 175 5 0 1 0 - #0-pv -;
#X obj 9 244 outlet~;
#N canvas 0 37 1280 752 partial.presets 0;
#X obj 42 57 r default_v;
#X text 41 29 default partial(s) volume;
#X msg 41 139 1;
#X msg 51 261 1;
#X obj 42 208 r sss;
#X text 40 189 solo string select;
#X msg 42 226 \$1;
#X msg 42 79 1;
#X obj 89 246 bang;
#X obj 89 227 r default_s;
#X obj 41 121 r default_p;
#X obj 41 159 s \$0-p;
#X obj 42 101 s \$0-pv;
#X obj 42 301 s \$0-ss;
#X text 86 263 default audio;
#X connect 0 0 7 0;
#X connect 2 0 11 0;
#X connect 3 0 13 0;
#X connect 4 0 6 0;
#X connect 6 0 13 0;
#X connect 7 0 12 0;
#X connect 8 0 3 0;
#X connect 9 0 8 0;
#X connect 10 0 2 0;
#X restore 11 270 pd partial.presets;
#X floatatom 9 3 4 1 100 0 - #0-p -;
#X obj 9 21 knob 15 15 1 24 0 0 empty empty empty 0 -8 0 8 -262144
-1 -1 0 1;
#X obj 43 21 knob 15 15 0 4 0 0 \$0-pv empty empty 0 -8 128 8 -262144
-1 -1 0 1;
#X obj 76 21 knob 15 15 1 50 0 0 \$0-q empty empty 0 -8 128 8 -262144
-1 -1 0 1;
#X obj 71 135 r \$0-q;
#X obj 74 101 r \$0-p;
#X floatatom 76 3 4 1 100 0 - #0-q -;
#X obj 126 98 vline~;
#X obj 126 115 lop~ 4;
#X floatatom 126 75 10 0 0 0 - - -;
#X obj 126 54 r f;
#X text 150 54 undamental;
#X text 11 287 Receive Freq from [sigmund~];
#X floatatom 43 3 4 1 100 0 - #0-pv -;
#X obj 9 44 i;
#X obj 9 64 s \$0-p;
#X obj 100 192 *~ 1;
#X floatatom 136 187 5 0 0 0 - - -;
#X text 152 162 Q compensation;
#X text 1 -20 [minipartch~ - harmonic partial filter];
#X obj 117 163 * 0.1;
#X obj 214 145 unsig~;
#X obj 272 160 s \$0-freq;
#X obj 9 100 inlet~;
#X text 1 21 h;
#X text 30 20 v;
#X text 67 19 q;
#X connect 0 0 6 0;
#X connect 1 0 2 1;
#X connect 1 0 29 0;
#X connect 2 0 24 0;
#X connect 3 0 0 1;
#X connect 4 0 3 0;
#X connect 5 0 4 0;
#X connect 9 0 22 0;
#X connect 12 0 2 2;
#X connect 12 0 28 0;
#X connect 13 0 1 1;
#X connect 15 0 16 0;
#X connect 16 0 1 0;
#X connect 17 0 15 0;
#X connect 18 0 17 0;
#X connect 22 0 23 0;
#X connect 24 0 0 0;
#X connect 28 0 24 1;
#X connect 28 0 25 0;
#X connect 29 0 30 0;
#X connect 31 0 2 0;
#X coords 0 -1 1 1 100 40 2 0 0;
