#N canvas 140 22 450 300 10;
#X obj 213 124 *~;
#X obj 245 109 line~;
#X msg 245 92 \$1 50;
#X floatatom 245 76 5 0 1 0 - master.v -;
#X obj 277 141 env~;
#X obj 277 158 - 100;
#X obj 346 124 *~;
#X obj 378 107 line~;
#X msg 378 90 \$1 50;
#X floatatom 378 74 5 0 1 0 - master.v -;
#X obj 384 141 env~;
#X obj 384 158 - 100;
#X obj 213 50 inlet~;
#X obj 346 48 inlet~;
#X obj 277 174 s mv.l;
#X obj 384 174 s mv.r;
#X obj 105 105 cnv 15 40 40 empty empty ~ 20 12 1 20 -83955 -262144
0;
#X obj 287 220 dac~ 1 2;
#X obj 106 122 bng 15 250 50 0 empty empty empty 17 7 0 10 -262144
-204786 -1;
#X obj 129 122 bng 15 250 50 0 empty empty empty 17 7 0 10 -262144
-258113 -1;
#X obj 30 198 writesf~ 2;
#X msg 30 130 start;
#X msg 30 161 stop;
#X msg 30 74 open -bytes 3 track1.wav;
#X obj 30 46 t b b;
#X connect 0 0 4 0;
#X connect 0 0 17 0;
#X connect 0 0 20 0;
#X connect 1 0 0 1;
#X connect 2 0 1 0;
#X connect 3 0 2 0;
#X connect 4 0 5 0;
#X connect 5 0 14 0;
#X connect 6 0 10 0;
#X connect 6 0 17 1;
#X connect 6 0 20 1;
#X connect 7 0 6 1;
#X connect 8 0 7 0;
#X connect 9 0 8 0;
#X connect 10 0 11 0;
#X connect 11 0 15 0;
#X connect 12 0 0 0;
#X connect 13 0 6 0;
#X connect 18 0 24 0;
#X connect 19 0 22 0;
#X connect 21 0 20 0;
#X connect 22 0 20 0;
#X connect 23 0 20 0;
#X connect 24 0 21 0;
#X connect 24 1 23 0;
#X coords 0 -1 1 1 50 50 2 100 100;
