#N canvas 0 48 1280 752 10;
#X msg 169 121 choice \$1;
#X obj 179 154 adc~ 1;
#X obj 169 269 outlet~;
#X obj 169 79 r sss;
#X floatatom 205 96 5 0 0 0 - - -;
#X text 168 62 solo string mode;
#X obj 169 223 polygate~ 7 200;
#X obj 224 154 adc~ 2;
#X obj 269 154 adc~ 3;
#X obj 362 153 adc~ 5;
#X obj 405 153 adc~ 6;
#X obj 451 153 adc~ 7;
#X obj 313 154 adc~ 4;
#X obj 169 246 *~ 1;
#X floatatom 132 113 5 1 8 2 Chc_In - -;
#X obj 108 55 loadbang;
#X msg 108 75 1;
#X obj 103 107 vradio 10 1 0 8 empty empty empty 0 -8 0 10 -262144
-1 -1 1;
#X obj 103 106 bng 10 250 50 0 empty empty empty 17 7 0 10 -12763 -1
-1;
#X obj 103 27 inlet;
#X connect 0 0 6 0;
#X connect 1 0 6 0;
#X connect 3 0 0 0;
#X connect 3 0 4 0;
#X connect 6 0 13 0;
#X connect 7 0 6 1;
#X connect 8 0 6 2;
#X connect 9 0 6 4;
#X connect 10 0 6 5;
#X connect 11 0 6 6;
#X connect 12 0 6 3;
#X connect 13 0 2 0;
#X connect 14 0 0 0;
#X connect 15 0 16 0;
#X connect 16 0 14 0;
#X connect 16 0 17 0;
#X connect 17 0 14 0;
#X connect 19 0 17 0;
#X coords 0 -1 1 1 17 90 2 100 100;
