#N canvas 15 48 1265 752 10;
#X text 287 -66 [harmonic partial filter];
#X obj 180 192 inlet~;
#X obj 725 408 outlet~;
#X obj 288 56 inlet;
#X obj 308 301 +~;
#X obj 336 148 *~ 1;
#X obj 458 318 +~;
#X obj 525 335 +~;
#X obj 597 352 +~;
#X obj 663 369 +~;
#X obj 725 386 +~;
#X obj 424 148 *~ 2;
#X obj 501 148 *~ 3;
#X obj 567 148 *~ 4;
#X obj 642 148 *~ 5;
#X obj 706 148 *~ 6;
#X obj 768 148 *~ 7;
#X obj 539 209 vcf~ 1 100;
#X obj 614 209 vcf~ 1 100;
#X obj 678 209 vcf~ 1 100;
#X obj 740 209 vcf~ 1 100;
#X obj 473 209 vcf~ 1 100;
#X obj 288 131 vline~;
#X obj 308 208 vcf~ 1 100;
#X obj 396 209 vcf~ 1 100;
#X obj 396 284 *~ 4;
#X obj 308 233 *~ 4;
#X obj 473 289 *~ 4;
#X obj 540 289 *~ 4;
#X obj 614 289 *~ 4;
#X obj 678 293 *~ 4;
#X obj 740 293 *~ 4;
#X text 367 448 Q factor may be controlled by incoming env~;
#X text 366 422 Mapping Suggestions:;
#X text 368 471 Partial no. may be control by contour;
#X text 289 -35 Approx. of partials;
#X text 42 150 Fundamental dictated by incoming pitch;
#X text 831 175 (keeping random partial structure within tonal percepts
- i.e. + 23 = microtonal territory);
#X text 831 155 Partial number and rate of output randomised;
#X text 289 -14 May be useful in conjunction with distortion and granulator
;
#X text 841 61 control rate of output by global tempo control;
#X obj 571 24 inlet;
#X text 612 24 bangs drunk;
#X msg 365 192 50;
#X obj 522 92 drunk 12 1;
#X obj 727 92 drunk 12 7;
#X obj 357 93 drunk 23 5;
#X obj 445 92 drunk 30 2;
#X obj 663 92 drunk 26 4;
#X obj 789 91 drunk 28 10;
#X obj 588 94 drunk 29 3;
#X obj 288 100 mtof;
#X floatatom 232 117 5 0 0 0 - - -;
#X connect 1 0 21 0;
#X connect 1 0 17 0;
#X connect 1 0 18 0;
#X connect 1 0 19 0;
#X connect 1 0 20 0;
#X connect 1 0 23 0;
#X connect 1 0 24 0;
#X connect 3 0 43 0;
#X connect 3 0 51 0;
#X connect 4 0 6 0;
#X connect 5 0 23 1;
#X connect 6 0 7 0;
#X connect 7 0 8 0;
#X connect 8 0 9 0;
#X connect 9 0 10 0;
#X connect 10 0 2 0;
#X connect 11 0 24 1;
#X connect 12 0 21 1;
#X connect 13 0 17 1;
#X connect 14 0 18 1;
#X connect 15 0 19 1;
#X connect 16 0 20 1;
#X connect 17 0 28 0;
#X connect 18 0 29 0;
#X connect 19 0 30 0;
#X connect 20 0 31 0;
#X connect 21 0 27 0;
#X connect 22 0 5 0;
#X connect 22 0 11 0;
#X connect 22 0 12 0;
#X connect 22 0 13 0;
#X connect 22 0 14 0;
#X connect 22 0 15 0;
#X connect 22 0 16 0;
#X connect 23 0 26 0;
#X connect 24 0 25 0;
#X connect 25 0 4 1;
#X connect 26 0 4 0;
#X connect 27 0 6 1;
#X connect 28 0 7 1;
#X connect 29 0 8 1;
#X connect 30 0 9 1;
#X connect 31 0 10 1;
#X connect 41 0 44 0;
#X connect 41 0 45 0;
#X connect 41 0 46 0;
#X connect 41 0 47 0;
#X connect 41 0 48 0;
#X connect 41 0 49 0;
#X connect 41 0 50 0;
#X connect 43 0 23 2;
#X connect 43 0 24 2;
#X connect 43 0 21 2;
#X connect 43 0 17 2;
#X connect 43 0 18 2;
#X connect 43 0 19 2;
#X connect 43 0 20 2;
#X connect 44 0 12 1;
#X connect 45 0 15 1;
#X connect 46 0 5 1;
#X connect 47 0 11 1;
#X connect 48 0 14 1;
#X connect 49 0 16 1;
#X connect 50 0 13 1;
#X connect 51 0 22 0;
#X connect 51 0 52 0;
#X coords 0 0 1 1 200 150 0;
