#N canvas 166 22 1114 752 10;
#N canvas 0 48 1280 752 pitch.class 0;
#X floatatom -304 -178 5 0 0 0 - - -;
#X text -268 -180 pitch class;
#X floatatom -297 -128 5 0 0 0 - - -;
#X text -272 -339 pitch class;
#X obj -317 -227 pitch;
#X text -263 -126 interval to last note - pitch class distance;
#X obj -270 -315 r \$0-p;
#X obj -304 -159 s \$0-pc;
#X text -253 -159 to coll;
#X obj -297 -109 s \$0-pcd;
#X text -241 -110 to coll;
#X floatatom -207 -265 5 0 0 0 - - -;
#X floatatom -270 -294 5 0 0 0 - - -;
#X text -170 -266 offset for manual PC0;
#X obj -270 -261 i;
#X floatatom -222 -212 5 0 0 0 - - -;
#X floatatom -270 -236 5 0 0 0 - - -;
#X obj -234 -244 -;
#X obj -207 -287 r pc.zero.set;
#X connect 0 0 7 0;
#X connect 2 0 9 0;
#X connect 4 2 0 0;
#X connect 4 3 2 0;
#X connect 6 0 12 0;
#X connect 11 0 17 1;
#X connect 12 0 14 0;
#X connect 14 0 16 0;
#X connect 14 0 17 0;
#X connect 17 0 4 0;
#X connect 17 0 15 0;
#X connect 18 0 11 0;
#X restore 200 469 pd pitch.class;
#N canvas 0 22 790 713 interval.class 0;
#X obj -208 177 gate 1;
#X obj -208 153 == 0;
#X obj -208 224 s \$0-ic;
#X msg -208 207 0;
#X obj -162 177 gate 1;
#X msg -162 207 1;
#X obj -162 153 == 1;
#X obj -112 177 gate 1;
#X obj -63 177 gate 1;
#X obj -15 177 gate 1;
#X obj 34 177 gate 1;
#X obj 81 177 gate 1;
#X obj 130 177 gate 1;
#X obj -112 153 == 2;
#X obj -63 153 == 3;
#X obj -15 153 == 4;
#X obj 34 153 == 5;
#X obj 81 153 == 6;
#X obj 130 153 == 7;
#X msg -112 207 2;
#X msg -63 207 3;
#X msg -15 207 4;
#X msg 34 207 5;
#X msg 81 207 6;
#X msg 130 207 5;
#X obj 178 177 gate 1;
#X obj 225 177 gate 1;
#X obj 274 177 gate 1;
#X obj 324 177 gate 1;
#X obj 178 153 == 8;
#X obj 225 153 == 9;
#X obj 274 153 == 10;
#X obj 324 153 == 11;
#X msg 178 207 4;
#X msg 225 207 3;
#X msg 274 207 2;
#X msg 324 207 1;
#X text -209 247 pc intervals: 0 / 12 - 1 / 11 - 2 / 10 - 3 / 9 - 4
/ 8 - 5 / 7 - 6 interval classes: 0 1 2 3 4 5 6 - The concept of interval
classes is an abstraction that will prove useful when we begin to consider
the properties of pc and ic sets.;
#X obj -208 58 r \$0-pcd;
#X obj -208 78 abs;
#X floatatom -208 98 5 0 0 0 - - -;
#X obj -208 117 % 12;
#X floatatom -208 137 5 0 0 0 - - -;
#X text -209 305 Potential further develop into interval vectors: The
interval class vector is a 6-member tally of the number of occurences
of each interval class found in a set. To obtain the tally \, you find
the interval between every possible pairing of notes in a set and increment
the tally of that interval class. For example \, consider the set (2
\, 3 \, 9). There is one occurence of interval class 1 (between the
2 and the 3) \, one occurence of interval class 6 (between the 3 and
the 9) and one occurence of interval class 5 (between the 2 and the
9). Therefore the interval class vector for set (2 \, 3 \, 9) is <1
\, 0 \, 0 \, 0 \, 1 \, 1>.;
#X text -209 18 Quasi-Interval Class - Note to note basis - not in
relation to pc zero but in relation to pc distance note to note;
#X connect 0 0 3 0;
#X connect 1 0 0 0;
#X connect 1 0 0 1;
#X connect 3 0 2 0;
#X connect 4 0 5 0;
#X connect 5 0 2 0;
#X connect 6 0 4 0;
#X connect 6 0 4 1;
#X connect 7 0 19 0;
#X connect 8 0 20 0;
#X connect 9 0 21 0;
#X connect 10 0 22 0;
#X connect 11 0 23 0;
#X connect 12 0 24 0;
#X connect 13 0 7 0;
#X connect 13 0 7 1;
#X connect 14 0 8 0;
#X connect 14 0 8 1;
#X connect 15 0 9 0;
#X connect 15 0 9 1;
#X connect 16 0 10 0;
#X connect 16 0 10 1;
#X connect 17 0 11 0;
#X connect 17 0 11 1;
#X connect 18 0 12 0;
#X connect 18 0 12 1;
#X connect 19 0 2 0;
#X connect 20 0 2 0;
#X connect 21 0 2 0;
#X connect 22 0 2 0;
#X connect 23 0 2 0;
#X connect 24 0 2 0;
#X connect 25 0 33 0;
#X connect 26 0 34 0;
#X connect 27 0 35 0;
#X connect 28 0 36 0;
#X connect 29 0 25 0;
#X connect 29 0 25 1;
#X connect 30 0 26 0;
#X connect 30 0 26 1;
#X connect 31 0 27 0;
#X connect 31 0 27 1;
#X connect 32 0 28 0;
#X connect 32 0 28 1;
#X connect 33 0 2 0;
#X connect 34 0 2 0;
#X connect 35 0 2 0;
#X connect 36 0 2 0;
#X connect 38 0 39 0;
#X connect 39 0 40 0;
#X connect 40 0 41 0;
#X connect 41 0 42 0;
#X connect 42 0 1 0;
#X connect 42 0 6 0;
#X connect 42 0 13 0;
#X connect 42 0 14 0;
#X connect 42 0 15 0;
#X connect 42 0 16 0;
#X connect 42 0 17 0;
#X connect 42 0 18 0;
#X connect 42 0 29 0;
#X connect 42 0 30 0;
#X connect 42 0 31 0;
#X connect 42 0 32 0;
#X restore 200 490 pd interval.class;
#X obj 252 523 r \$0-pc;
#X obj 252 547 outlet;
#X obj 306 547 outlet;
#X obj 306 524 r \$0-ic;
#X obj 200 547 outlet;
#X obj 200 523 r \$0-i;
#X obj 359 525 r \$0-a;
#X obj 359 546 outlet;
#X text 627 351 suppress pitch if string;
#X floatatom 153 -65 5 0 0 0 - - -;
#X obj 153 -23 split 3300 8800;
#X obj 153 -3 / 100;
#X floatatom 153 18 5 0 0 0 - - -;
#X obj 199 363 bng 15 250 50 0 empty empty empty 17 7 0 10 -262144
-1 -1;
#X text 219 360 global.reset;
#X obj 151 378 + 1;
#X obj 151 356 % 7;
#X msg 199 382 0;
#X obj 153 60 spigot;
#X obj 349 -6 inlet;
#X obj 209 45 tgl 15 0 empty empty empty 17 7 0 10 -262144 -1 -1 1
1;
#X obj 450 102 s \$0-a;
#X text 498 103 amplitude;
#X obj 450 47 spigot;
#X obj 483 20 >= 0;
#X obj 153 -86 * 100;
#X obj 114 -108 moses 0;
#X floatatom 334 40 5 0 0 0 - - -;
#X obj 334 61 tgl 15 0 empty empty empty 17 7 0 10 -262144 -1 -1 1
1;
#X obj 151 317 bng 15 250 50 0 empty empty empty 17 7 0 10 -262144
-1 -1;
#X floatatom 334 -88 5 0 0 0 - - -;
#X text 626 320 (cf. SMECK \, 2007);
#X obj 564 257 inlet;
#X obj 151 419 s \$0-i;
#X obj 199 342 r glbl.reset;
#X obj 153 -159 inlet~;
#X obj 407 545 outlet;
#X obj 376 -91 s \$0-csa;
#X obj 209 217 r g.pt.sw;
#X floatatom 564 299 5 0 0 0 - - -;
#X obj 209 240 tgl 15 0 empty empty empty 17 7 0 10 -262144 -1 -1 1
1;
#X obj 66 250 s \$0-p;
#X text 108 249 pitch;
#X obj 153 272 outlet;
#X obj 153 233 spigot;
#X text 228 238 global switch;
#X obj 564 323 s \$0-xct;
#X obj 151 297 r \$0-p;
#X obj 151 336 cup;
#X floatatom 151 399 5 0 0 0 - - -;
#X text 665 -5 Tried using [specFlux~] \, [threshold~] \, [peakamp~]
\, [bonk~];
#X text 665 14 Amplitude scaling seemingly the most efficient approach
;
#X floatatom 153 86 5 0 0 0 - - -;
#X text 666 105 *CPU Heavy;
#X obj 334 17 > 4;
#X obj 153 115 spigot;
#X floatatom 153 135 5 0 0 0 - - -;
#X obj 201 98 r \$0-xct;
#X obj 201 120 tgl 15 0 empty empty empty 17 7 0 10 -262144 -1 -1 0
1;
#X text 563 221 Simple Cross-Talk Comparison;
#X obj 230 130 r mto.sw;
#X obj 153 162 spigot;
#X obj 202 147 tgl 15 0 empty empty empty 17 7 0 10 -262144 -1 -1 1
1;
#X text 626 336 is 'xtalk' quiter than neighbour;
#X text 666 69 Track continuously - use two instance of sigmund~ (using
both pitch and note arguments;
#X text 8 -23 [pitch range of guitar];
#X text 664 -64 More info:;
#X text 663 -48 ins: amp thres \, xcf - amp of adjacent string;
#X text 667 41 Other options;
#X obj 545 -108 outlet;
#X text 543 -88 for re-synthesis;
#X text 663 -37 outs: midi \, index \, pc \, ic \, amp \, trigger \,
re-synthesis;
#X obj 153 -46 i;
#X obj 645 259 inlet;
#X floatatom 450 4 5 0 0 0 - - -;
#X obj 334 -108 / 10;
#X obj 450 -72 i;
#X obj 463 546 outlet;
#X obj 334 82 s \$0-th;
#X obj 209 19 r \$0-th;
#X obj 153 -138 sigmund~ -hop 512 -npts 1024 note env -minpower 50
-stabletime 50 -npeak 20;
#X text 562 234 Amp of adjacent string vs. specified threshold;
#X obj 564 279 expr $f1 < $f2;
#X obj 450 -44 spigot;
#X obj 209 259 switch~;
#X obj 450 -19 average;
#X text 501 -21 mean?;
#X text 201 441 Organisation into pitch and quasi interval-class;
#X text 286 129 enforce monophonic tracking;
#X obj 76 332 s \$0-bang;
#X obj 463 521 r \$0-bang;
#X obj 407 524 r \$0-fth;
#X obj 209 66 s \$0-fth;
#X text 243 190 if unison is played \, stop tracking;
#X obj 91 178 change;
#X obj 91 155 i;
#X obj 222 188 tgl 15 0 empty um.sw empty 17 7 0 10 -262144 -1 -1 0
1;
#X obj 73 195 bng 15 250 50 0 empty empty empty 17 7 0 10 -262144 -1
-1;
#X obj 439 305 once;
#X obj 52 220 once;
#X obj 153 203 mux - -;
#X text 29 129 Detects Unisons;
#X connect 2 0 3 0;
#X connect 5 0 4 0;
#X connect 7 0 6 0;
#X connect 8 0 9 0;
#X connect 11 0 74 0;
#X connect 12 0 13 0;
#X connect 13 0 14 0;
#X connect 14 0 20 0;
#X connect 15 0 19 0;
#X connect 17 0 51 0;
#X connect 18 0 17 0;
#X connect 19 0 50 0;
#X connect 20 0 54 0;
#X connect 21 0 56 1;
#X connect 22 0 20 1;
#X connect 22 0 94 0;
#X connect 25 0 23 0;
#X connect 26 0 25 1;
#X connect 27 0 11 0;
#X connect 28 1 27 0;
#X connect 29 0 30 0;
#X connect 30 0 80 0;
#X connect 31 0 50 0;
#X connect 31 0 91 0;
#X connect 32 0 78 0;
#X connect 34 0 84 0;
#X connect 36 0 15 0;
#X connect 37 0 82 0;
#X connect 40 0 42 0;
#X connect 41 0 48 0;
#X connect 42 0 46 1;
#X connect 42 0 85 1;
#X connect 42 0 86 0;
#X connect 46 0 45 0;
#X connect 46 0 43 0;
#X connect 49 0 31 0;
#X connect 50 0 18 0;
#X connect 51 0 35 0;
#X connect 54 0 57 0;
#X connect 56 0 29 0;
#X connect 57 0 58 0;
#X connect 58 0 63 0;
#X connect 59 0 57 1;
#X connect 59 0 60 0;
#X connect 62 0 64 0;
#X connect 63 0 97 0;
#X connect 63 0 101 0;
#X connect 63 0 102 0;
#X connect 64 0 63 1;
#X connect 74 0 12 0;
#X connect 75 0 84 1;
#X connect 76 0 26 0;
#X connect 76 0 25 0;
#X connect 77 0 32 0;
#X connect 77 0 39 0;
#X connect 78 0 56 0;
#X connect 78 0 85 0;
#X connect 81 0 22 0;
#X connect 82 0 28 0;
#X connect 82 0 71 0;
#X connect 82 1 77 0;
#X connect 84 0 41 0;
#X connect 85 0 87 0;
#X connect 87 0 76 0;
#X connect 92 0 79 0;
#X connect 93 0 38 0;
#X connect 96 0 99 0;
#X connect 97 0 96 0;
#X connect 98 0 102 2;
#X connect 99 0 101 1;
#X connect 101 0 102 1;
#X connect 102 0 46 0;
