#N canvas 0 22 657 271 10;
#X msg 113 -10 1;
#X obj 166 -27 t b b;
#X obj 206 -27 t b b;
#X obj 166 -57 sel 1;
#X msg 313 -10 1;
#X msg 343 -10 0;
#X obj 83 7 outlet;
#X msg 83 -10 0;
#X obj 166 -78 inlet;
#X text 240 -114 for use with polygate~ and switch~ - to provide correct
ordering to prevent clicks;
#X obj 313 7 outlet;
#X text 84 28 to polygate~;
#X text 326 31 to switch~;
#X connect 0 0 6 0;
#X connect 1 0 7 0;
#X connect 1 1 4 0;
#X connect 2 0 5 0;
#X connect 2 1 0 0;
#X connect 3 0 1 0;
#X connect 3 1 2 0;
#X connect 4 0 10 0;
#X connect 5 0 10 0;
#X connect 7 0 6 0;
#X connect 8 0 3 0;
