#N canvas -4 37 315 162 10;
#X obj 30 129 outlet~;
#X obj 30 31 inlet;
#X text 68 30 from sigmund~ (-npeaks);
#X obj 30 54 route 1;
#N canvas 0 22 450 300 p1 0;
#X obj 53 128 osc~;
#X obj 53 66 * 1;
#X obj 129 200 line~;
#X msg 129 163 \$1 20;
#X obj 53 217 *~;
#X obj 129 49 inlet;
#N canvas 0 22 216 192 randomphase 0;
#X obj 57 139 outlet;
#X obj 57 75 random 1000;
#X obj 57 44 loadbang;
#X obj 57 107 * 0.001;
#X connect 1 0 3 0;
#X connect 2 0 1 0;
#X connect 3 0 0 0;
#X restore 74 106 pd randomphase;
#X obj 53 241 outlet~;
#X obj 53 42 inlet;
#X obj 129 129 * 1;
#X text 172 49 probably better with pitch and env arguments;
#X connect 0 0 4 0;
#X connect 1 0 0 0;
#X connect 2 0 4 1;
#X connect 3 0 2 0;
#X connect 4 0 7 0;
#X connect 5 0 9 0;
#X connect 6 0 0 1;
#X connect 8 0 1 0;
#X connect 9 0 3 0;
#X restore 30 105 pd p1;
#X text 68 104 partial 1;
#X obj 30 78 unpack 0 0;
#X text 101 77 freq \, peak amp \, cosine \, sine parts;
#X connect 1 0 3 0;
#X connect 3 0 6 0;
#X connect 4 0 0 0;
#X connect 6 0 4 0;
#X connect 6 1 4 1;
