#N canvas 0 110 1280 610 10;
#X declare -path rj/;
#X obj -159 -370 inlet~;
#X obj -113 -410 inlet;
#X obj 123 -371 inlet;
#X text 426 142 outs: grain output \, u_make poly;
#X text 426 114 ins: audio in \, bang for envelope (based on note onset
from sigmund~) \, contour to control parameters;
#X text 427 65 More info:;
#X text 426 94 Hack of RJDJ library - e_graindelread;
#X text 161 -371 Contour data;
#X msg 82 -213 help;
#X msg 113 -177 save;
#X obj 113 -154 t a b;
#X obj 71 -111 u_cocollect;
#X msg 1 -58 pan-r 0.433071 \, delay-r 514 \, delay 224 \, size-r 0
\, size 100 \, vol-r 1 \, vol 0.566929 \, bw 1 \, phase 0.2302 \, grain-rate
30 \,;
#X obj 1 -21 s \$0-SET-GRAIN;
#X obj 71 -235 r \$0-GRAIN;
#X text 115 -342 Slider controls inside:;
#X obj -115 -137 e_graindelread TAG \$0-delay;
#X obj -116 133 outlet~;
#X msg -113 -346 0 \, 1 50 100 \, 0 50 150;
#X obj 123 -274 s \$0-GRAIN;
#X obj 123 -320 r \$0-SET-GRAIN;
#N canvas 621 160 518 421 e_graindelread-GUI 0;
#N canvas 0 22 586 607 GUI 0;
#X obj 124 128 g_hsl pan-r 0 1;
#X obj 124 159 g_hsl vol 0 1;
#X obj 124 225 g_nbx delay;
#X obj 194 225 g_nbx delay-r;
#X obj 124 260 g_nbx size;
#X obj 194 260 g_nbx size-r;
#X obj 124 295 g_nbx bw;
#X obj 194 295 g_nbx grain-rate;
#X obj 124 190 g_hsl vol-r 0 1;
#X obj 124 68 inlet;
#X obj 194 369 outlet;
#X msg 124 405 phase-rand bang;
#X obj 124 326 bng 15 250 50 0 empty empty phase-rand 17 7 1 10 -262144
-1 -1;
#X text 267 132 random panning width;
#X text 267 162 base volume;
#X text 268 193 random volume width;
#X text 270 230 delay \, random delay variation;
#X text 272 266 grain size and its variation;
#X text 272 326 randomize the phase;
#X connect 0 0 1 0;
#X connect 1 0 8 0;
#X connect 2 0 3 0;
#X connect 3 0 5 0;
#X connect 4 0 6 0;
#X connect 5 0 4 0;
#X connect 6 0 7 0;
#X connect 7 0 10 0;
#X connect 8 0 2 0;
#X connect 9 0 0 0;
#X connect 11 0 10 0;
#X connect 12 0 11 0;
#X coords 0 -1 1 1 380 250 1 100 100;
#X restore 30 56 pd GUI;
#X obj 30 31 inlet;
#X obj 30 313 outlet;
#X connect 0 0 2 0;
#X connect 1 0 0 0;
#X restore 123 -297 pd e_graindelread-GUI;
#X obj -113 -306 vline~;
#X obj -159 -224 delwrite~ \$0-delay 2000;
#X obj 194 20 r \$0-GRAIN;
#X obj -73 37 u_makepoly 2 1 e_graindelread TAG \$0-delay;
#X obj -159 -270 *~;
#X connect 0 0 26 0;
#X connect 1 0 18 0;
#X connect 1 0 12 0;
#X connect 8 0 16 1;
#X connect 9 0 10 0;
#X connect 10 0 16 1;
#X connect 10 1 11 1;
#X connect 11 0 12 0;
#X connect 12 0 13 0;
#X connect 14 0 16 1;
#X connect 16 0 17 0;
#X connect 16 1 17 0;
#X connect 16 2 11 0;
#X connect 18 0 22 0;
#X connect 20 0 21 0;
#X connect 21 0 19 0;
#X connect 22 0 26 1;
#X connect 24 0 25 1;
#X connect 25 0 17 0;
#X connect 25 1 17 0;
#X connect 26 0 23 0;
