#N canvas 381 271 899 493 10;
#N canvas 15 98 781 670 presets 0;
#X obj -1 30 inlet;
#X obj -1 68 route default large large_noexcursion huge huge_noexcursion
tadada;
#X obj -1 587 s \$0-GUI;
#X msg -1 134 predelay 0 \, bandwidth 22050 \, damping 22050 \, decay
0.5 \, input_diffusion1 0.75 \, input_diffusion2 0.625 \, decay_diffusion1
0.7 \, decay_diffusion2 0.5 \, excursion 0.53761 \;;
#X msg 135 274 predelay 0 \, bandwidth 10000 \, damping 4637 \, decay
0.98 \, input_diffusion1 0.685 \, input_diffusion2 0.779 \, decay_diffusion1
0.74 \, decay_diffusion2 0.68 \, excursion 0 \,;
#X msg 67 197 predelay 0 \, bandwidth 10000 \, damping 4637 \, decay
0.98 \, input_diffusion1 0.685 \, input_diffusion2 0.779 \, decay_diffusion1
0.74 \, decay_diffusion2 0.68 \, excursion 0.53761 \,;
#X msg 206 350 predelay 10 \, bandwidth 10000 \, damping 4637 \, decay
0.99 \, input_diffusion1 0.685 \, input_diffusion2 0.779 \, decay_diffusion1
0.889 \, decay_diffusion2 0.84 \, excursion 0.53761 \;;
#X msg 340 525 predelay 216.535 \, bandwidth 22050 \, damping 22050
\, decay 0.677165 \, input_diffusion1 0.850394 \, input_diffusion2
0.92126 \, decay_diffusion1 0.80315 \, decay_diffusion2 0.818898 \,
excursion 0.11811 \;;
#X msg 272 437 predelay 10 \, bandwidth 10000 \, damping 4637 \, decay
0.99 \, input_diffusion1 0.685 \, input_diffusion2 0.779 \, decay_diffusion1
0.889 \, decay_diffusion2 0.84 \, excursion 0 \;;
#X connect 0 0 1 0;
#X connect 1 0 3 0;
#X connect 1 1 5 0;
#X connect 1 2 4 0;
#X connect 1 3 6 0;
#X connect 1 4 8 0;
#X connect 1 5 7 0;
#X connect 3 0 2 0;
#X connect 4 0 2 0;
#X connect 5 0 2 0;
#X connect 6 0 2 0;
#X connect 7 0 2 0;
#X connect 8 0 2 0;
#X restore 639 295 pd presets;
#X msg 639 153 default;
#X msg 639 222 huge;
#X msg 639 245 huge_noexcursion;
#X msg 639 176 large;
#X msg 639 199 large_noexcursion;
#X msg 639 268 tadada;
#X obj 243 133 hsl 128 15 0 1 0 1 empty empty empty -2 -8 0 10 -262144
-1 -1 3810 1;
#X msg 240 152 dry \$1;
#X msg 258 183 save;
#X msg 216 256 dry 0.488189 \, decay_diffusion2 0.5 \, decay_diffusion1
0.7 \, input_diffusion2 0.625 \, excursion 1.61417 \, input_diffusion1
0.75 \, decay 0.5 \, damping 22050 \, bandwidth 22050 \, predelay 0
\,;
#X obj 258 203 t a b;
#X text 635 127 Presets;
#X obj 216 50 r \$0-CTL;
#N canvas 553 115 622 572 Parameter 0;
#X obj 201 466 s \$0-CTL;
#X text 251 5 GUI;
#X text 385 6 No-GUI;
#X msg 369 432 excursion \$1;
#X msg 369 110 predelay \$1;
#X msg 369 149 bandwidth \$1;
#X msg 369 190 damping \$1;
#X msg 369 229 decay \$1;
#X msg 369 272 input_diffusion1 \$1;
#X msg 369 302 input_diffusion2 \$1;
#X msg 369 352 decay_diffusion1 \$1;
#X msg 369 381 decay_diffusion2 \$1;
#X text 81 288 Input Diffusion;
#X text 151 230 Decay;
#X text 137 191 Damping;
#X text 47 150 Bandwidth (frequency);
#X text 134 109 Predelay;
#X text 81 367 Decay Diffusion;
#X text 123 433 Excursion;
#X obj 201 29 r \$0-GUI;
#X text 111 66 Wet/Dry Mix;
#X msg 369 66 dry \$1;
#X obj 201 61 rj/g_hsl dry 0 1;
#X obj 201 105 rj/g_hsl predelay 0 250;
#X obj 201 145 rj/g_hsl bandwidth 220.05 22050;
#X obj 201 185 rj/g_hsl damping 220.5 22050;
#X obj 201 225 rj/g_hsl decay 0 1;
#X obj 201 268 rj/g_hsl input_diffusion1 0 1;
#X obj 201 298 rj/g_hsl input_diffusion2 0 1;
#X obj 201 349 rj/g_hsl decay_diffusion1 0 1;
#X obj 201 378 rj/g_hsl decay_diffusion2 0 1;
#X obj 201 428 rj/g_hsl excursion 0 5;
#X text 138 -23 contour input;
#X connect 8 0 27 0;
#X connect 10 0 29 0;
#X connect 19 0 22 0;
#X connect 21 0 22 0;
#X connect 22 0 23 0;
#X connect 23 0 24 0;
#X connect 24 0 25 0;
#X connect 25 0 26 0;
#X connect 26 0 27 0;
#X connect 27 0 28 0;
#X connect 28 0 29 0;
#X connect 29 0 30 0;
#X connect 30 0 31 0;
#X connect 31 0 0 0;
#X restore 363 73 pd Parameter Controls;
#X obj 69 189 rj/e_platereverb somename;
#X obj 216 226 rj/u_cocollect;
#X obj 69 142 inlet~;
#X obj 69 236 outlet~;
#X obj 363 51 inlet;
#X text 362 32 contour data;
#X text 411 397 More info:;
#X text 410 442 outs: reverb out;
#X text 410 431 ins: audio in \, contour to control parameters \, switch~
;
#X text 411 415 Hack of RJDJ library - e_platereverb;
#X connect 1 0 0 0;
#X connect 2 0 0 0;
#X connect 3 0 0 0;
#X connect 4 0 0 0;
#X connect 5 0 0 0;
#X connect 6 0 0 0;
#X connect 7 0 8 0;
#X connect 8 0 15 2;
#X connect 9 0 11 0;
#X connect 11 0 15 2;
#X connect 11 1 16 1;
#X connect 13 0 15 2;
#X connect 15 0 18 0;
#X connect 15 1 18 0;
#X connect 15 2 16 0;
#X connect 16 0 10 0;
#X connect 17 0 15 0;
#X connect 17 0 15 1;
#X connect 19 0 7 0;
