#N canvas 0 22 450 300 10;
#X obj 139 147 *~;
#X obj 165 147 *~;
#X obj 191 147 *~;
#X obj 217 147 *~;
#X obj 244 147 *~;
#X obj 270 147 *~;
#X obj 296 147 *~;
#X obj 322 147 *~;
#X obj 104 115 inlet~;
#X obj 114 175 outlet~;
#X obj 165 181 outlet~;
#X obj 191 171 outlet~;
#X obj 217 197 outlet~;
#X obj 244 173 outlet~;
#X obj 270 196 outlet~;
#X obj 296 174 outlet~;
#X obj 322 197 outlet~;
#X obj 165 115 inlet~;
#X obj 191 94 inlet~;
#X obj 217 118 inlet~;
#X obj 244 90 inlet~;
#X obj 270 119 inlet~;
#X obj 296 90 inlet~;
#X obj 322 119 inlet~;
#X obj 391 73 inlet;
#X obj 115 46 r mast.vol;
#X connect 0 0 9 0;
#X connect 1 0 10 0;
#X connect 2 0 11 0;
#X connect 3 0 12 0;
#X connect 4 0 13 0;
#X connect 5 0 14 0;
#X connect 6 0 15 0;
#X connect 7 0 16 0;
#X connect 8 0 0 0;
#X connect 17 0 1 0;
#X connect 18 0 2 0;
#X connect 19 0 3 0;
#X connect 20 0 4 0;
#X connect 21 0 5 0;
#X connect 22 0 6 0;
#X connect 23 0 7 0;
#X connect 24 0 7 1;
#X connect 24 0 6 1;
#X connect 24 0 5 1;
#X connect 24 0 4 1;
#X connect 24 0 3 1;
#X connect 24 0 2 1;
#X connect 24 0 1 1;
#X connect 24 0 0 1;
#X connect 25 0 0 1;
#X connect 25 0 1 1;
#X connect 25 0 2 1;
#X connect 25 0 3 1;
#X connect 25 0 4 1;
#X connect 25 0 5 1;
#X connect 25 0 6 1;
#X connect 25 0 7 1;
