#N canvas 566 37 766 716 10;
#X msg 119 124 stop;
#X floatatom 119 225 5 0 0 0 - - -;
#X obj 100 569 pack f f f;
#X obj 168 419 count 10;
#X obj 119 252 + 1;
#X obj 100 323 count 20;
#X obj 100 348 + 1;
#X obj 119 149 metro 1;
#X obj 119 174 count 128;
#X obj 82 63 t b b b;
#X obj 119 201 moses;
#X obj 168 489 * 200;
#X obj 168 396 select 1;
#X obj 130 286 t f f;
#X text 168 322 Items per line;
#X text 226 396 New line at first item;
#X text 226 419 Max No. of lines;
#X text 206 488 Line spacing;
#X text 51 507 Item Spacing;
#X text 207 515 Move all Vertically;
#X obj 168 445 + 1;
#X text 206 444 Avoid "0";
#X obj 168 516 - 150;
#X obj 500 569 pack f f f;
#X obj 568 419 count 10;
#X obj 500 323 count 20;
#X obj 500 348 + 1;
#X obj 568 489 * 200;
#X obj 568 396 select 1;
#X obj 530 286 t f f;
#X text 568 322 Items per line;
#X text 626 396 New line at first item;
#X text 626 419 Max No. of lines;
#X text 606 488 Line spacing;
#X text 451 507 Item Spacing;
#X text 607 515 Move all Vertically;
#X obj 568 445 + 1;
#X text 606 444 Avoid "0";
#X obj 568 516 - 100;
#X msg 558 204 connect \$1 0 \$2 0;
#X obj 558 173 pack f f;
#X obj 603 141 +;
#X obj 558 109 t f f;
#X floatatom 192 174 5 0 0 0 - - -;
#X obj 462 195 pipe 100;
#X obj 558 75 pipe 200;
#X floatatom 193 84 5 0 0 1 No:_of_abstractionss_(PUT_NUMBER_HERE_FIRST)
- -;
#X obj 82 32 bng 15 250 50 0 empty empty CREATE_ABSTRACTIONS_(decide_how_many_first)
17 7 0 10 -262144 -1 -1;
#N canvas 58 415 663 300 abstractions 0;
#X coords 0 -1 1 1 300 50 1 100 100;
#X restore 205 263 pd abstractions;
#X obj 100 658 s pd-abstractions;
#X obj 193 117 s how_many;
#X obj 192 142 r how_many;
#X text 228 175 Abstractions;
#X text 303 246 HERE! are your abstractions !!;
#X msg 100 601 obj \$1 \$2 abstraction \$3;
#X msg 500 601 obj \$1 \$2 outlet;
#X obj 500 492 * 100;
#X obj 100 492 * 100;
#X connect 0 0 7 0;
#X connect 1 0 4 0;
#X connect 1 0 45 0;
#X connect 2 0 54 0;
#X connect 3 0 20 0;
#X connect 4 0 13 0;
#X connect 4 0 44 0;
#X connect 5 0 6 0;
#X connect 6 0 12 0;
#X connect 6 0 57 0;
#X connect 7 0 8 0;
#X connect 8 0 10 0;
#X connect 9 0 7 0;
#X connect 9 1 43 0;
#X connect 9 2 46 0;
#X connect 10 0 1 0;
#X connect 10 1 0 0;
#X connect 11 0 22 0;
#X connect 12 0 3 0;
#X connect 13 0 5 0;
#X connect 13 1 2 2;
#X connect 20 0 11 0;
#X connect 22 0 2 1;
#X connect 23 0 55 0;
#X connect 24 0 36 0;
#X connect 25 0 26 0;
#X connect 26 0 28 0;
#X connect 26 0 56 0;
#X connect 27 0 38 0;
#X connect 28 0 24 0;
#X connect 29 0 25 0;
#X connect 29 1 23 2;
#X connect 36 0 27 0;
#X connect 38 0 23 1;
#X connect 39 0 49 0;
#X connect 40 0 39 0;
#X connect 41 0 40 1;
#X connect 42 0 40 0;
#X connect 42 1 41 0;
#X connect 43 0 10 1;
#X connect 43 0 41 1;
#X connect 44 0 29 0;
#X connect 45 0 42 0;
#X connect 46 0 50 0;
#X connect 47 0 9 0;
#X connect 51 0 43 0;
#X connect 54 0 49 0;
#X connect 55 0 49 0;
#X connect 56 0 23 0;
#X connect 57 0 2 0;
#X coords 0 0 1 1 85 60 0;
