#N canvas 679 65 980 506 10;
#N canvas -1163 85 673 907 doTapTempo 0;
#X obj 138 442 loadbang;
#X obj 103 442 bng 15 250 50 0 empty empty empty 17 7 0 10 -262144
-1 -1;
#X obj 353 657 send DelayInc;
#X obj 294 33 receive fromGUI;
#X obj 294 61 list trim;
#X obj 294 89 route /myTapButton, f 20;
#X floatatom 294 117 5 0 0 0 - - -;
#X obj 294 170 spigot;
#X obj 294 202 tgl 15 0 empty empty empty 17 7 0 10 -262144 -1 -1 0
1;
#X obj 294 150 bng 15 250 50 0 empty empty empty 17 7 0 10 -262144
-1 -1;
#X obj 294 249 metro 1;
#X obj 294 370 float;
#X obj 360 370 + 1;
#X floatatom 294 406 5 0 0 0 - - -;
#X msg 428 327 0;
#X obj 428 303 spigot;
#X obj 428 255 bng 15 250 50 0 empty empty empty 17 7 0 10 -262144
-1 -1;
#X obj 361 500 spigot;
#X obj 229 398 bng 15 250 50 0 empty empty empty 17 7 0 10 -262144
-1 -1;
#X obj 394 451 + 1;
#X floatatom 394 429 5 0 0 0 - - -;
#X floatatom 361 527 5 0 0 0 - - -;
#X obj 394 407 * -1;
#X floatatom 394 477 5 0 0 0 - - -;
#X obj 286 711 send toGUI;
#X msg 286 684 list /myDlyIncLabel \$1;
#X obj 210 601 /;
#X msg 138 511 60000;
#X floatatom 210 625 5 0 0 0 - - -;
#X obj 209 859 send toGUI;
#X msg 210 832 list /myBPMLabel \$1;
#X obj 361 552 moses 1;
#X floatatom 361 581 5 0 0 0 - - -;
#X floatatom 400 581 5 0 0 0 - - -;
#X floatatom 40 727 5 0 0 0 - - -;
#X obj 40 812 send toGUI;
#X floatatom 40 767 5 0 0 0 - - -;
#X obj 40 746 / 127;
#X floatatom 85 727 5 0 0 0 - - -;
#X msg 40 789 list /myTapButton \$1;
#X obj 40 704 ctlin 64;
#X msg 225 543 667;
#X obj 210 705 + 0.5;
#X obj 210 728 div;
#X floatatom 228 754 5 0 0 0 - - -;
#X obj 210 649 * 10;
#X floatatom 224 676 5 0 0 0 - - -;
#X obj 210 776 / 10;
#X floatatom 231 804 5 0 0 0 - - -;
#X obj 138 464 t b b;
#X connect 0 0 49 0;
#X connect 1 0 49 0;
#X connect 3 0 4 0;
#X connect 4 0 5 0;
#X connect 5 0 6 0;
#X connect 6 0 7 1;
#X connect 6 0 9 0;
#X connect 7 0 8 0;
#X connect 8 0 10 0;
#X connect 8 0 15 1;
#X connect 8 0 16 0;
#X connect 8 0 22 0;
#X connect 8 0 18 0;
#X connect 9 0 7 0;
#X connect 10 0 11 0;
#X connect 11 0 12 0;
#X connect 11 0 13 0;
#X connect 12 0 11 1;
#X connect 13 0 17 0;
#X connect 14 0 11 0;
#X connect 15 0 14 0;
#X connect 16 0 15 0;
#X connect 17 0 21 0;
#X connect 18 0 17 0;
#X connect 18 0 13 0;
#X connect 18 0 21 0;
#X connect 18 0 26 0;
#X connect 19 0 23 0;
#X connect 20 0 19 0;
#X connect 21 0 31 0;
#X connect 22 0 20 0;
#X connect 23 0 17 1;
#X connect 25 0 24 0;
#X connect 26 0 28 0;
#X connect 27 0 26 0;
#X connect 28 0 45 0;
#X connect 30 0 29 0;
#X connect 31 0 32 0;
#X connect 31 1 33 0;
#X connect 33 0 25 0;
#X connect 33 0 2 0;
#X connect 33 0 26 1;
#X connect 34 0 37 0;
#X connect 36 0 39 0;
#X connect 37 0 36 0;
#X connect 39 0 35 0;
#X connect 40 0 34 0;
#X connect 40 1 38 0;
#X connect 41 0 2 0;
#X connect 41 0 25 0;
#X connect 41 0 26 1;
#X connect 42 0 43 0;
#X connect 43 0 44 0;
#X connect 43 0 47 0;
#X connect 45 0 42 0;
#X connect 45 0 46 0;
#X connect 47 0 30 0;
#X connect 47 0 48 0;
#X connect 49 0 27 0;
#X connect 49 1 41 0;
#X restore 23 17 pd doTapTempo;
#N canvas 547 565 450 300 doDelayRed 1;
#N canvas -1639 68 1366 692 InputMixerRed 1;
#X obj 74 47 adc~;
#X obj 232 48 receive fromGUI;
#X obj 232 71 list trim;
#X obj 74 330 *~;
#X floatatom 232 130 5 0 0 0 - - -;
#X floatatom 387 130 5 0 0 0 - - -;
#X floatatom 89 251 5 0 0 0 - - -;
#X obj 74 437 +~;
#X floatatom 353 317 5 0 0 0 - - -;
#X obj 89 224 / 100;
#X obj 90 415 *~;
#X floatatom 89 304 5 0 0 0 - - -;
#X floatatom 545 130 5 0 0 0 - - -;
#X obj 545 158 - 1;
#X floatatom 545 178 5 0 0 0 - - -;
#X obj 545 197 * -1;
#X floatatom 545 217 5 0 0 0 - - -;
#X obj 353 341 spigot;
#X floatatom 353 366 5 0 0 0 - - -;
#X obj 474 341 spigot;
#X msg 474 317 1;
#X obj 474 246 bng 15 250 50 0 empty empty empty 17 7 0 10 -262144
-1 -1;
#X floatatom 474 366 5 0 0 0 - - -;
#X floatatom 353 392 5 0 0 0 - - -;
#X obj 89 277 *;
#X obj 94 128 send~ inputRed;
#X obj 90 370 receive~ fromDelayRed;
#X obj 74 499 send~ toDelayRed;
#X obj 875 18 loadbang;
#X obj 914 126 send toGUI;
#X obj 830 18 bng 15 250 50 0 empty empty empty 17 7 0 10 -262144 -1
-1;
#X obj 894 210 send toGUI;
#X obj 875 294 send toGUI;
#X msg 875 249 0;
#X msg 914 103 list /myInputLvlRedKnob \$1;
#X msg 894 188 list /myDecayRedKnob \$1;
#X msg 875 271 list /myInfRptRedToggle \$1;
#X msg 894 167 30;
#X floatatom 746 518 5 0 0 0 - - -;
#X obj 746 586 send toGUI;
#X msg 746 560 list /myInputLvlRedKnob \$1;
#X floatatom 928 499 5 0 0 0 - - -;
#X obj 928 586 send toGUI;
#X msg 928 560 list /myDecayRedKnob \$1;
#X obj 746 477 ctlin 17;
#X obj 928 477 ctlin 19;
#X obj 746 499 / 127;
#X obj 746 539 * 100;
#X obj 928 518 / 1.27;
#X obj 353 292 / 101;
#X floatatom 339 499 5 0 0 0 - - -;
#X obj 339 586 send toGUI;
#X floatatom 339 539 5 0 0 0 - - -;
#X obj 339 518 / 127;
#X floatatom 548 499 5 0 0 0 - - -;
#X obj 548 586 send toGUI;
#X floatatom 548 539 5 0 0 0 - - -;
#X obj 548 518 / 127;
#X obj 339 477 ctlin 34;
#X obj 548 477 ctlin 35;
#X msg 339 560 list /myInfRptRedToggle \$1;
#X msg 548 560 list /myInputMuteRedToggle \$1;
#X obj 232 95 route /myInputLvlRedKnob /myDecayRedKnob /myInfRptRedToggle
, f 61;
#X msg 914 82 80;
#X obj 90 393 lop~ 4000;
#X obj 875 39 t b b b;
#X connect 0 0 3 0;
#X connect 0 0 25 0;
#X connect 1 0 2 0;
#X connect 2 0 62 0;
#X connect 3 0 7 0;
#X connect 6 0 24 0;
#X connect 7 0 27 0;
#X connect 8 0 17 0;
#X connect 9 0 6 0;
#X connect 10 0 7 1;
#X connect 11 0 3 1;
#X connect 12 0 13 0;
#X connect 12 0 19 1;
#X connect 13 0 14 0;
#X connect 14 0 15 0;
#X connect 15 0 16 0;
#X connect 16 0 17 1;
#X connect 16 0 24 1;
#X connect 17 0 18 0;
#X connect 18 0 23 0;
#X connect 19 0 22 0;
#X connect 20 0 19 0;
#X connect 21 0 20 0;
#X connect 21 0 8 0;
#X connect 21 0 24 0;
#X connect 22 0 23 0;
#X connect 23 0 10 1;
#X connect 24 0 11 0;
#X connect 26 0 64 0;
#X connect 28 0 65 0;
#X connect 30 0 65 0;
#X connect 33 0 36 0;
#X connect 34 0 29 0;
#X connect 35 0 31 0;
#X connect 36 0 32 0;
#X connect 37 0 35 0;
#X connect 38 0 47 0;
#X connect 40 0 39 0;
#X connect 41 0 48 0;
#X connect 43 0 42 0;
#X connect 44 0 46 0;
#X connect 45 0 41 0;
#X connect 46 0 38 0;
#X connect 47 0 40 0;
#X connect 48 0 43 0;
#X connect 49 0 8 0;
#X connect 50 0 53 0;
#X connect 52 0 60 0;
#X connect 53 0 52 0;
#X connect 54 0 57 0;
#X connect 56 0 61 0;
#X connect 57 0 56 0;
#X connect 58 0 50 0;
#X connect 59 0 54 0;
#X connect 60 0 51 0;
#X connect 61 0 55 0;
#X connect 62 0 4 0;
#X connect 62 0 9 0;
#X connect 62 1 5 0;
#X connect 62 1 49 0;
#X connect 62 2 12 0;
#X connect 62 2 21 0;
#X connect 63 0 34 0;
#X connect 64 0 10 0;
#X connect 65 0 33 0;
#X connect 65 1 37 0;
#X connect 65 2 63 0;
#X restore 74 95 pd InputMixerRed;
#N canvas -1581 378 1167 608 DelayLineRed 0;
#X floatatom 184 267 5 0 0 0 - - -;
#X obj 57 19 receive~ toDelayRed;
#X obj 468 276 delread~ FatDelayRed;
#X obj 468 302 send~ fromDelayRed;
#X obj 179 167 receive DelayInc;
#X obj 56 43 delwrite~ FatDelayRed 64000;
#X obj 276 18 receive fromGUI;
#X obj 276 44 list trim;
#X floatatom 266 95 5 0 0 0 - - -;
#X obj 316 95 + 1;
#X floatatom 321 191 5 0 0 0 - - -;
#X obj 184 238 *;
#X floatatom 389 95 5 0 0 0 - - -;
#X obj 389 116 * 16;
#X floatatom 389 142 5 0 0 0 - - -;
#X obj 321 166 +;
#X obj 358 116 bng 15 250 50 0 empty empty empty 17 7 0 10 -262144
-1 -1;
#X floatatom 502 95 5 0 0 0 - - -;
#X obj 276 69 route /myTimeRedKnob /my+16RedToggle /myDlyRangeRedToggle
;
#X obj 502 116 * 7;
#X floatatom 502 142 5 0 0 0 - - -;
#X obj 502 166 + 1;
#X floatatom 502 191 5 0 0 0 - - -;
#X obj 468 231 /;
#X floatatom 468 254 5 0 0 0 - - -;
#X obj 468 116 bng 15 250 50 0 empty empty empty 17 7 0 10 -262144
-1 -1;
#X obj 153 199 bng 15 250 50 0 empty empty empty 17 7 0 10 -262144
-1 -1;
#X floatatom 223 196 5 0 0 0 - - -;
#X obj 810 18 loadbang;
#X obj 849 124 send toGUI;
#X obj 765 21 bng 15 250 50 0 empty empty empty 17 7 0 10 -262144 -1
-1;
#X obj 829 215 send toGUI;
#X obj 810 300 send toGUI;
#X msg 829 167 0;
#X msg 810 252 0;
#X msg 849 96 list /myTimeRedKnob \$1;
#X msg 849 74 1;
#X msg 829 188 list /my+16RedToggle \$1;
#X msg 810 276 list /myDlyRangeRedToggle \$1;
#X floatatom 292 459 5 0 0 0 - - -;
#X obj 292 435 ctlin 16;
#X obj 292 545 send toGUI;
#X msg 292 521 list /myTimeRedKnob \$1;
#X floatatom 292 499 5 0 0 0 - - -;
#X obj 292 478 / 7.3975;
#X floatatom 61 459 5 0 0 0 - - -;
#X obj 61 545 send toGUI;
#X floatatom 61 499 5 0 0 0 - - -;
#X obj 61 478 / 127;
#X floatatom 484 459 5 0 0 0 - - -;
#X obj 484 545 send toGUI;
#X floatatom 484 499 5 0 0 0 - - -;
#X obj 484 478 / 127;
#X obj 61 435 ctlin 32;
#X obj 484 435 ctlin 33;
#X msg 61 521 list /myDlyRangeRedToggle \$1;
#X msg 484 521 list /my+16RedToggle \$1;
#X obj 810 39 t b b b;
#X connect 1 0 5 0;
#X connect 2 0 3 0;
#X connect 4 0 11 1;
#X connect 4 0 26 0;
#X connect 4 0 27 0;
#X connect 6 0 7 0;
#X connect 7 0 18 0;
#X connect 9 0 15 0;
#X connect 10 0 11 0;
#X connect 11 0 0 0;
#X connect 11 0 23 0;
#X connect 12 0 13 0;
#X connect 12 0 16 0;
#X connect 13 0 14 0;
#X connect 14 0 15 1;
#X connect 15 0 10 0;
#X connect 16 0 15 0;
#X connect 17 0 19 0;
#X connect 17 0 25 0;
#X connect 18 0 8 0;
#X connect 18 0 9 0;
#X connect 18 1 12 0;
#X connect 18 2 17 0;
#X connect 19 0 20 0;
#X connect 20 0 21 0;
#X connect 21 0 22 0;
#X connect 22 0 23 1;
#X connect 23 0 24 0;
#X connect 24 0 2 0;
#X connect 25 0 23 0;
#X connect 26 0 11 0;
#X connect 28 0 57 0;
#X connect 30 0 57 0;
#X connect 33 0 37 0;
#X connect 34 0 38 0;
#X connect 35 0 29 0;
#X connect 36 0 35 0;
#X connect 37 0 31 0;
#X connect 38 0 32 0;
#X connect 39 0 44 0;
#X connect 40 0 39 0;
#X connect 42 0 41 0;
#X connect 43 0 42 0;
#X connect 44 0 43 0;
#X connect 45 0 48 0;
#X connect 47 0 55 0;
#X connect 48 0 47 0;
#X connect 49 0 52 0;
#X connect 51 0 56 0;
#X connect 52 0 51 0;
#X connect 53 0 45 0;
#X connect 54 0 49 0;
#X connect 55 0 46 0;
#X connect 56 0 50 0;
#X connect 57 0 34 0;
#X connect 57 1 33 0;
#X connect 57 2 36 0;
#X restore 75 126 pd DelayLineRed;
#N canvas -816 282 696 669 OutputMixerRed 0;
#X obj 81 26 receive fromGUI;
#X obj 81 60 list trim;
#X floatatom 119 157 5 0 0 0 - - -;
#X obj 83 372 *~;
#X obj 66 424 dac~;
#X obj 81 94 route /myMixRedKnob, f 20;
#X obj 66 183 receive~ inputRed;
#X obj 81 128 / 100;
#X obj 82 347 receive~ fromDelayRed;
#X obj 67 396 +~;
#X obj 82 235 * -1;
#X obj 82 264 + 1;
#X obj 67 292 *~;
#X floatatom 120 294 5 0 0 0 - - -;
#X obj 428 71 loadbang;
#X obj 428 141 send toGUI;
#X obj 399 71 bng 15 250 50 0 empty empty empty 17 7 0 10 -262144 -1
-1;
#X msg 428 117 list /myMixRedKnob \$1;
#X msg 428 95 50;
#X floatatom 79 529 5 0 0 0 - - -;
#X obj 79 612 send toGUI;
#X obj 79 501 ctlin 18;
#X msg 79 584 list /myMixRedKnob \$1;
#X obj 79 556 / 1.27;
#X connect 0 0 1 0;
#X connect 1 0 5 0;
#X connect 3 0 9 1;
#X connect 5 0 7 0;
#X connect 6 0 12 0;
#X connect 7 0 2 0;
#X connect 7 0 3 1;
#X connect 7 0 10 0;
#X connect 8 0 3 0;
#X connect 9 0 4 0;
#X connect 10 0 11 0;
#X connect 11 0 12 1;
#X connect 11 0 13 0;
#X connect 12 0 9 0;
#X connect 14 0 18 0;
#X connect 16 0 18 0;
#X connect 17 0 15 0;
#X connect 18 0 17 0;
#X connect 19 0 23 0;
#X connect 21 0 19 0;
#X connect 22 0 20 0;
#X connect 23 0 22 0;
#X restore 74 157 pd OutputMixerRed;
#X restore 23 47 pd doDelayRed;
#N canvas 712 405 450 300 doDelayBlue 0;
#N canvas 451 127 1366 692 InputMixerBlue 0;
#X obj 59 45 adc~;
#X obj 153 31 receive fromGUI;
#X obj 153 59 list trim;
#X obj 74 330 *~;
#X floatatom 170 130 5 0 0 0 - - -;
#X floatatom 310 137 5 0 0 0 - - -;
#X floatatom 105 195 5 0 0 0 - - -;
#X obj 160 415 +~;
#X floatatom 204 188 5 0 0 0 - - -;
#X obj 121 127 / 100;
#X obj 226 344 *~;
#X floatatom 101 294 5 0 0 0 - - -;
#X floatatom 575 125 5 0 0 0 - - -;
#X obj 629 150 - 1;
#X floatatom 629 185 5 0 0 0 - - -;
#X obj 629 204 * -1;
#X floatatom 627 230 5 0 0 0 - - -;
#X obj 500 291 spigot;
#X floatatom 498 329 5 0 0 0 - - -;
#X obj 593 291 spigot;
#X msg 571 233 1;
#X obj 576 174 bng 15 250 50 0 empty empty empty 17 7 0 10 -262144
-1 -1;
#X floatatom 596 329 5 0 0 0 - - -;
#X floatatom 529 387 5 0 0 0 - - -;
#X obj 111 263 *;
#X obj 891 29 loadbang;
#X obj 937 124 send toGUI;
#X obj 836 29 bng 15 250 50 0 empty empty empty 17 7 0 10 -262144 -1
-1;
#X obj 940 199 send toGUI;
#X obj 941 280 send toGUI;
#X msg 941 231 0;
#X msg 939 152 30;
#X floatatom 695 452 5 0 0 0 - - -;
#X obj 695 530 send toGUI;
#X floatatom 921 445 5 0 0 0 - - -;
#X obj 913 532 send toGUI;
#X obj 695 425 / 127;
#X obj 694 476 * 100;
#X obj 920 470 / 1.27;
#X obj 205 162 / 101;
#X floatatom 348 499 5 0 0 0 - - -;
#X obj 339 586 send toGUI;
#X floatatom 339 539 5 0 0 0 - - -;
#X obj 348 518 / 127;
#X floatatom 557 498 5 0 0 0 - - -;
#X obj 548 585 send toGUI;
#X floatatom 548 538 5 0 0 0 - - -;
#X obj 557 517 / 127;
#X obj 350 469 ctlin 38;
#X obj 557 469 ctlin 39;
#X obj 696 404 ctlin 21;
#X obj 922 415 ctlin 23;
#X obj 17 128 send~ inputBlue;
#X obj 263 273 receive~ fromDelayBlue;
#X msg 937 97 list /myInputLvlBlueKnob \$1;
#X msg 938 173 list /myDecayBlueKnob \$1;
#X msg 941 254 list /myInfRptBlueToggle \$1;
#X msg 338 561 list /myInfRptBlueToggle \$1;
#X msg 549 561 list /myInputMuteBlueToggle \$1;
#X msg 696 501 list /myInputLvlBlueKnob \$1;
#X msg 913 504 list /myDecayBlueKnob \$1;
#X obj 160 477 send~ toDelayBlue;
#X obj 155 95 route /myInputLvlBlueKnob /myDecayBlueKnob /myInfRptBlueToggle
, f 67;
#X msg 938 74 80;
#X obj 234 309 lop~ 4000;
#X connect 0 1 3 0;
#X connect 0 1 52 0;
#X connect 1 0 2 0;
#X connect 2 0 62 0;
#X connect 3 0 7 0;
#X connect 6 0 24 0;
#X connect 7 0 61 0;
#X connect 8 0 17 0;
#X connect 9 0 6 0;
#X connect 10 0 7 1;
#X connect 11 0 3 1;
#X connect 12 0 13 0;
#X connect 12 0 19 1;
#X connect 13 0 14 0;
#X connect 14 0 15 0;
#X connect 15 0 16 0;
#X connect 16 0 17 1;
#X connect 16 0 24 1;
#X connect 17 0 18 0;
#X connect 18 0 23 0;
#X connect 19 0 22 0;
#X connect 20 0 19 0;
#X connect 21 0 20 0;
#X connect 21 0 8 0;
#X connect 21 0 24 0;
#X connect 22 0 23 0;
#X connect 24 0 11 0;
#X connect 25 0 63 0;
#X connect 25 0 31 0;
#X connect 25 0 30 0;
#X connect 27 0 63 0;
#X connect 27 0 31 0;
#X connect 27 0 30 0;
#X connect 30 0 56 0;
#X connect 31 0 55 0;
#X connect 32 0 37 0;
#X connect 34 0 38 0;
#X connect 36 0 32 0;
#X connect 37 0 59 0;
#X connect 38 0 60 0;
#X connect 39 0 8 0;
#X connect 40 0 43 0;
#X connect 42 0 57 0;
#X connect 43 0 42 0;
#X connect 44 0 47 0;
#X connect 46 0 58 0;
#X connect 47 0 46 0;
#X connect 48 0 40 0;
#X connect 49 0 44 0;
#X connect 50 0 36 0;
#X connect 51 0 34 0;
#X connect 53 0 64 0;
#X connect 54 0 26 0;
#X connect 55 0 28 0;
#X connect 56 0 29 0;
#X connect 57 0 41 0;
#X connect 58 0 45 0;
#X connect 59 0 33 0;
#X connect 60 0 35 0;
#X connect 62 0 4 0;
#X connect 62 0 9 0;
#X connect 62 1 5 0;
#X connect 62 1 39 0;
#X connect 62 2 12 0;
#X connect 62 2 21 0;
#X connect 63 0 54 0;
#X connect 64 0 10 0;
#X restore 74 95 pd InputMixerBlue;
#N canvas -1319 86 1159 475 DelayLineBlue 0;
#X floatatom 122 193 5 0 0 0 - - -;
#X obj 56 107 receive DelayInc;
#X obj 280 4 receive fromGUI;
#X obj 280 32 list trim;
#X floatatom 278 110 5 0 0 0 - - -;
#X obj 328 110 + 1;
#X floatatom 334 185 5 0 0 0 - - -;
#X obj 61 168 *;
#X floatatom 401 96 5 0 0 0 - - -;
#X obj 401 115 * 16;
#X floatatom 401 142 5 0 0 0 - - -;
#X obj 333 154 +;
#X obj 367 133 bng 15 250 50 0 empty empty empty 17 7 0 10 -262144
-1 -1;
#X floatatom 546 99 5 0 0 0 - - -;
#X obj 547 128 * 7;
#X floatatom 547 158 5 0 0 0 - - -;
#X obj 547 185 + 1;
#X floatatom 549 218 5 0 0 0 - - -;
#X obj 233 213 /;
#X floatatom 232 244 5 0 0 0 - - -;
#X obj 493 184 bng 15 250 50 0 empty empty empty 17 7 0 10 -262144
-1 -1;
#X obj 17 141 bng 15 250 50 0 empty empty empty 17 7 0 10 -262144 -1
-1;
#X floatatom 100 136 5 0 0 0 - - -;
#X obj 891 29 loadbang;
#X obj 937 124 send toGUI;
#X obj 836 29 bng 15 250 50 0 empty empty empty 17 7 0 10 -262144 -1
-1;
#X obj 940 199 send toGUI;
#X obj 941 287 send toGUI;
#X msg 940 151 0;
#X msg 941 227 0;
#X floatatom 704 443 5 0 0 0 - - -;
#X obj 695 530 send toGUI;
#X floatatom 695 483 5 0 0 0 - - -;
#X obj 704 462 / 7.3975;
#X floatatom 556 337 5 0 0 0 - - -;
#X obj 547 424 send toGUI;
#X floatatom 547 377 5 0 0 0 - - -;
#X obj 556 356 / 127;
#X floatatom 870 340 5 0 0 0 - - -;
#X obj 861 427 send toGUI;
#X floatatom 861 380 5 0 0 0 - - -;
#X obj 870 359 / 127;
#X obj 557 307 ctlin 36;
#X obj 873 311 ctlin 37;
#X obj 704 413 ctlin 20;
#X msg 546 400 list /myDlyRangeBlueToggle \$1;
#X msg 854 401 list /my+16BlueToggle \$1;
#X msg 694 502 list /myTimeBlueKnob \$1;
#X obj 57 19 receive~ toDelayBlue;
#X obj 56 82 delwrite~ FatDelayBlue 64000;
#X obj 56 227 delread~ FatDelayBlue;
#X obj 57 268 send~ fromDelayBlue;
#X obj 276 70 route /myTimeBlueKnob /my+16BlueToggle /myDlyRangeBlueToggle
;
#X msg 937 97 list /myTimeBlueKnob \$1;
#X msg 940 172 list /my+16BlueToggle \$1;
#X msg 942 256 list /myDlyRangeBlueToggle \$1;
#X msg 937 74 3;
#X connect 1 0 7 1;
#X connect 1 0 21 0;
#X connect 1 0 22 0;
#X connect 2 0 3 0;
#X connect 3 0 52 0;
#X connect 5 0 11 0;
#X connect 6 0 7 0;
#X connect 7 0 0 0;
#X connect 7 0 18 0;
#X connect 8 0 9 0;
#X connect 8 0 12 0;
#X connect 9 0 10 0;
#X connect 10 0 11 1;
#X connect 11 0 6 0;
#X connect 12 0 11 0;
#X connect 13 0 14 0;
#X connect 13 0 20 0;
#X connect 14 0 15 0;
#X connect 15 0 16 0;
#X connect 16 0 17 0;
#X connect 17 0 18 1;
#X connect 18 0 19 0;
#X connect 19 0 50 0;
#X connect 20 0 18 0;
#X connect 21 0 7 0;
#X connect 23 0 56 0;
#X connect 23 0 28 0;
#X connect 23 0 29 0;
#X connect 25 0 56 0;
#X connect 25 0 28 0;
#X connect 25 0 29 0;
#X connect 28 0 54 0;
#X connect 29 0 55 0;
#X connect 30 0 33 0;
#X connect 32 0 47 0;
#X connect 33 0 32 0;
#X connect 34 0 37 0;
#X connect 36 0 45 0;
#X connect 37 0 36 0;
#X connect 38 0 41 0;
#X connect 40 0 46 0;
#X connect 41 0 40 0;
#X connect 42 0 34 0;
#X connect 43 0 38 0;
#X connect 44 0 30 0;
#X connect 45 0 35 0;
#X connect 46 0 39 0;
#X connect 47 0 31 0;
#X connect 48 0 49 0;
#X connect 50 0 51 0;
#X connect 52 0 4 0;
#X connect 52 0 5 0;
#X connect 52 1 8 0;
#X connect 52 2 13 0;
#X connect 53 0 24 0;
#X connect 54 0 26 0;
#X connect 55 0 27 0;
#X connect 56 0 53 0;
#X restore 74 126 pd DelayLineBlue;
#N canvas 420 41 1366 692 OutputMixerBlue 0;
#X obj 373 31 receive fromGUI;
#X obj 373 65 list trim;
#X floatatom 402 167 5 0 0 0 - - -;
#X obj 422 271 *~;
#X obj 360 400 dac~;
#X obj 375 135 / 100;
#X obj 354 337 +~;
#X obj 286 210 * -1;
#X obj 285 239 + 1;
#X obj 282 285 *~;
#X floatatom 335 287 5 0 0 0 - - -;
#X obj 376 102 route /myMixBlueKnob;
#X obj 455 181 receive~ fromDelayBlue;
#X obj 190 168 receive~ inputBlue;
#X obj 891 29 loadbang;
#X obj 937 124 send toGUI;
#X obj 836 29 bng 15 250 50 0 empty empty empty 17 7 0 10 -262144 -1
-1;
#X msg 937 74 50;
#X msg 937 96 list /myMixBlueKnob \$1;
#X floatatom 705 441 5 0 0 0 - - -;
#X obj 696 530 send toGUI;
#X obj 702 470 / 1.27;
#X obj 705 413 ctlin 22;
#X msg 696 502 list /myMixBlueKnob \$1;
#X connect 0 0 1 0;
#X connect 1 0 11 0;
#X connect 3 0 6 1;
#X connect 5 0 2 0;
#X connect 5 0 3 1;
#X connect 5 0 7 0;
#X connect 6 0 4 1;
#X connect 7 0 8 0;
#X connect 8 0 9 1;
#X connect 8 0 10 0;
#X connect 9 0 6 0;
#X connect 11 0 5 0;
#X connect 12 0 3 0;
#X connect 13 0 9 0;
#X connect 14 0 17 0;
#X connect 16 0 17 0;
#X connect 17 0 18 0;
#X connect 18 0 15 0;
#X connect 19 0 21 0;
#X connect 21 0 23 0;
#X connect 22 0 19 0;
#X connect 23 0 20 0;
#X restore 74 157 pd OutputMixerBlue;
#X restore 23 77 pd doDelayBlue;
#X obj 304 80 cnv 15 100 60 empty empty empty 20 12 0 14 -233017 -66577
0;
#X text 133 166 comment;
#X coords 0 -1 1 1 120 120 1 100 100;
