#N canvas 74 85 940 508 10;
#X obj 19 51 vsl 15 128 0 1 0 0 empty \$0-setaFront empty 20 8 576
8 -262144 -1 -1 4233 1;
#X floatatom 19 190 5 0 0 0 - - -;
#X text 36 168 0;
#N canvas 268 65 490 140 controlOut 0;
#X obj 31 53 outlet;
#X obj 31 19 receive \$0-params;
#X connect 1 0 0 0;
#X restore 795 392 pd controlOut;
#X obj 795 412 outlet;
#X msg 795 370 verbose \$1;
#X obj 795 348 tgl 15 0 empty empty empty 20 8 0 8 -262144 -1 -1 1
1;
#N canvas 191 300 1269 739 defaults 0;
#X obj 497 244 inlet;
#X obj 495 177 loadbang;
#X obj 108 415 send \$0-setaFront;
#X obj 203 416 send \$0-setaRear;
#X obj 289 416 send \$0-setpatFront;
#X obj 395 416 send \$0-setpatRear;
#X obj 494 416 send \$0-setgainL;
#X obj 583 416 send \$0-setgainR;
#X obj 668 416 send \$0-setgainC;
#X obj 757 416 send \$0-setgainLFE;
#X obj 854 416 send \$0-setgainSL;
#X obj 945 416 send \$0-setgainSR;
#X obj 1037 416 send \$0-setgainSC;
#X msg 108 372 0.333333;
#X msg 203 373 0.611111;
#X msg 289 372 0.5;
#X msg 395 373 0.4;
#X msg 494 372 0.8;
#X msg 583 373 0.8;
#X msg 668 372 0.5;
#X msg 757 373 0;
#X msg 854 373 0.75;
#X msg 945 372 0.75;
#X msg 1037 374 0;
#X connect 0 0 13 0;
#X connect 0 0 14 0;
#X connect 0 0 15 0;
#X connect 0 0 16 0;
#X connect 0 0 17 0;
#X connect 0 0 18 0;
#X connect 0 0 19 0;
#X connect 0 0 20 0;
#X connect 0 0 21 0;
#X connect 0 0 22 0;
#X connect 0 0 23 0;
#X connect 1 0 13 0;
#X connect 1 0 14 0;
#X connect 1 0 15 0;
#X connect 1 0 16 0;
#X connect 1 0 17 0;
#X connect 1 0 18 0;
#X connect 1 0 19 0;
#X connect 1 0 20 0;
#X connect 1 0 21 0;
#X connect 1 0 22 0;
#X connect 1 0 23 0;
#X connect 13 0 2 0;
#X connect 14 0 3 0;
#X connect 15 0 4 0;
#X connect 16 0 5 0;
#X connect 17 0 6 0;
#X connect 18 0 7 0;
#X connect 19 0 8 0;
#X connect 20 0 9 0;
#X connect 21 0 10 0;
#X connect 22 0 11 0;
#X connect 23 0 12 0;
#X restore 793 324 pd defaults;
#X obj 793 302 bng 15 250 50 0 empty empty empty 0 -6 0 8 -262144 -1
-1;
#X text 815 347 Verbose on/off;
#X text 816 302 Reset parameters;
#X text 37 46 1;
#X obj 95 51 vsl 15 128 0 1 0 0 empty \$0-setaRear empty 20 8 576 8
-262144 -1 -1 7761 1;
#X floatatom 95 190 5 0 0 0 - - -;
#X text 112 168 0;
#X text 113 46 1;
#X obj 175 51 vsl 15 128 0 1 0 0 empty \$0-setpatFront empty 20 8 576
8 -262144 -1 -1 6350 1;
#X floatatom 175 190 5 0 0 0 - - -;
#X text 192 168 0;
#X text 193 46 1;
#X obj 255 51 vsl 15 128 0 1 0 0 empty \$0-setpatRear empty 20 8 576
8 -262144 -1 -1 5080 1;
#X floatatom 255 190 5 0 0 0 - - -;
#X text 272 168 0;
#X text 272 46 1;
#X obj 335 51 vsl 15 128 0 1 0 0 empty \$0-setgainL empty 20 8 576
8 -262144 -1 -1 10160 1;
#X floatatom 335 190 5 0 0 0 - - -;
#X text 352 168 0;
#X text 353 46 1;
#X obj 415 51 vsl 15 128 0 1 0 0 empty \$0-setgainR empty 20 8 576
8 -262144 -1 -1 10160 1;
#X floatatom 415 190 5 0 0 0 - - -;
#X text 432 168 0;
#X text 433 46 1;
#X obj 495 51 vsl 15 128 0 1 0 0 empty \$0-setgainC empty 20 8 576
8 -262144 -1 -1 6350 1;
#X floatatom 495 190 5 0 0 0 - - -;
#X text 512 168 0;
#X text 513 46 1;
#X obj 575 51 vsl 15 128 0 1 0 0 empty \$0-setgainLFE empty 20 8 576
8 -262144 -1 -1 0 1;
#X floatatom 575 190 5 0 0 0 - - -;
#X text 592 168 0;
#X text 593 46 1;
#X obj 655 51 vsl 15 128 0 1 0 0 empty \$0-setgainSL empty 20 8 576
8 -262144 -1 -1 9525 1;
#X floatatom 655 190 5 0 0 0 - - -;
#X text 672 168 0;
#X text 673 46 1;
#X obj 735 51 vsl 15 128 0 1 0 0 empty \$0-setgainSR empty 20 8 576
8 -262144 -1 -1 9525 1;
#X floatatom 735 190 5 0 0 0 - - -;
#X text 752 168 0;
#X text 753 46 1;
#X obj 815 51 vsl 15 128 0 1 0 0 empty \$0-setgainSC empty 20 8 576
8 -262144 -1 -1 9525 1;
#X floatatom 815 190 5 0 0 0 - - -;
#X text 832 168 0;
#X text 833 46 1;
#X text 5 30 F Angle;
#X text 81 30 R Angle;
#X text 158 30 F Pattern;
#X text 240 30 R Pattern;
#X text 321 30 Gain L;
#X text 401 30 Gain R;
#X text 481 30 Gain C;
#X text 561 30 Gain LFE;
#X text 641 30 Gain SL;
#X text 721 30 Gain SR;
#X text 801 30 Gain SC;
#N canvas 4 149 1112 196 sendToA2s------------------------------------------------
0;
#X obj 61 21 inlet;
#X obj 133 20 inlet;
#X obj 219 20 inlet;
#X obj 288 20 inlet;
#X obj 457 142 send \$0-params;
#X obj 364 20 inlet;
#X obj 436 20 inlet;
#X obj 522 20 inlet;
#X obj 591 20 inlet;
#X obj 669 20 inlet;
#X obj 755 20 inlet;
#X obj 824 20 inlet;
#X msg 61 83 aFront \$1;
#X msg 133 82 aRear \$1;
#X msg 200 82 patFront \$1;
#X msg 288 82 patRear \$1;
#X msg 364 81 gainL \$1;
#X msg 436 80 gainR \$1;
#X msg 522 80 gainC \$1;
#X msg 591 80 gainLFE \$1;
#X msg 669 80 gainSL \$1;
#X msg 755 80 gainSR \$1;
#X msg 824 80 gainSC \$1;
#X connect 0 0 12 0;
#X connect 1 0 13 0;
#X connect 2 0 14 0;
#X connect 3 0 15 0;
#X connect 5 0 16 0;
#X connect 6 0 17 0;
#X connect 7 0 18 0;
#X connect 8 0 19 0;
#X connect 9 0 20 0;
#X connect 10 0 21 0;
#X connect 11 0 22 0;
#X connect 12 0 4 0;
#X connect 13 0 4 0;
#X connect 14 0 4 0;
#X connect 15 0 4 0;
#X connect 16 0 4 0;
#X connect 17 0 4 0;
#X connect 18 0 4 0;
#X connect 19 0 4 0;
#X connect 20 0 4 0;
#X connect 21 0 4 0;
#X connect 22 0 4 0;
#X restore 265 280 pd sendToA2s------------------------------------------------
;
#X connect 0 0 1 0;
#X connect 1 0 63 0;
#X connect 3 0 4 0;
#X connect 5 0 4 0;
#X connect 6 0 5 0;
#X connect 8 0 7 0;
#X connect 12 0 13 0;
#X connect 13 0 63 1;
#X connect 16 0 17 0;
#X connect 17 0 63 2;
#X connect 20 0 21 0;
#X connect 21 0 63 3;
#X connect 24 0 25 0;
#X connect 25 0 63 4;
#X connect 28 0 29 0;
#X connect 29 0 63 5;
#X connect 32 0 33 0;
#X connect 33 0 63 6;
#X connect 36 0 37 0;
#X connect 37 0 63 7;
#X connect 40 0 41 0;
#X connect 41 0 63 8;
#X connect 44 0 45 0;
#X connect 45 0 63 9;
#X connect 48 0 49 0;
#X connect 49 0 63 10;
