#N canvas 518 111 700 492 10;
#X obj 19 51 vsl 15 128 0 360 0 0 empty \$0-setaz empty 20 8 0 8 -262144
-1 -1 12700 1;
#X obj 84 51 vsl 15 128 -90 90 0 0 empty \$0-setel empty 20 8 0 8 -262144
-1 -1 6350 1;
#X obj 148 51 vsl 15 128 0 100 0 0 empty \$0-setze empty 20 8 0 8 -262144
-1 -1 8979 1;
#X obj 213 51 vsl 15 128 0 100 0 0 empty \$0-setfi empty 20 8 0 8 -262144
-1 -1 12700 1;
#X obj 278 51 vsl 15 128 0 10 0 0 empty \$0-setdis empty 20 8 0 8 -262144
-1 -1 1270 1;
#X obj 343 51 vsl 15 128 0 10 0 0 empty \$0-setcen empty 20 8 0 8 -262144
-1 -1 1270 1;
#X obj 408 51 vsl 15 128 0 6 0 0 empty \$0-setdfac empty 20 8 0 8 -262144
-1 -1 9525 1;
#X obj 473 51 vsl 15 128 0 1 0 0 empty \$0-setvol empty 20 8 0 8 -262144
-1 -1 10795 1;
#X floatatom 19 190 5 0 0 0 - - -;
#X floatatom 84 190 5 0 0 0 - - -;
#X floatatom 148 190 5 0 0 0 - - -;
#X floatatom 213 190 5 0 0 0 - - -;
#X floatatom 278 190 5 0 0 0 - - -;
#X floatatom 343 190 5 0 0 0 - - -;
#X floatatom 408 190 5 0 0 0 - - -;
#X floatatom 473 191 5 0 0 0 - - -;
#X text 5 30 Azimuth;
#X text 61 30 Elevation;
#X text 136 30 Zeroth;
#X text 204 30 First;
#X text 260 30 Distance;
#X text 328 30 Centre;
#X text 359 16 Distance Factor;
#X text 458 30 Volume;
#X text 198 4 Left;
#X text 36 168 0;
#X text 37 46 360;
#X text 101 168 -90;
#X text 101 45 90;
#X text 165 46 100%;
#X text 165 167 0%;
#X text 230 46 100%;
#X text 229 167 0%;
#X text 295 45 10;
#X text 294 168 0;
#X text 360 46 10;
#X text 359 168 0;
#X text 425 46 6;
#X text 425 167 0;
#X text 491 46 1;
#X text 491 167 0;
#X floatatom 24 419 5 0 0 0 - - -;
#X floatatom 89 419 5 0 0 0 - - -;
#X floatatom 153 419 5 0 0 0 - - -;
#X floatatom 218 419 5 0 0 0 - - -;
#X floatatom 283 418 5 0 0 0 - - -;
#X floatatom 348 419 5 0 0 0 - - -;
#X floatatom 413 419 5 0 0 0 - - -;
#X floatatom 478 420 5 0 0 0 - - -;
#X text 10 259 Azimuth;
#X text 66 259 Elevation;
#X text 141 259 Zeroth;
#X text 209 259 First;
#X text 265 259 Distance;
#X text 333 259 Centre;
#X text 41 397 0;
#X text 42 275 360;
#X text 106 397 -90;
#X text 106 274 90;
#X text 170 275 100%;
#X text 170 396 0%;
#X text 235 275 100%;
#X text 234 396 0%;
#X text 300 274 10;
#X text 299 397 0;
#X text 365 275 10;
#X text 364 397 0;
#X text 430 275 6;
#X text 430 396 0;
#X text 496 275 1;
#X text 496 396 0;
#X text 203 233 Right;
#X text 366 244 Distance Factor;
#N canvas 194 203 614 172 sendLToPan-----------------------------------------------
0;
#X msg 35 84 azl \$1;
#X msg 91 84 ell \$1;
#X msg 148 84 ztl \$1;
#X msg 208 84 fil \$1;
#X msg 267 84 disl \$1;
#X msg 326 84 cenl \$1;
#X msg 451 84 voll \$1;
#X msg 386 84 dfacl \$1;
#X obj 35 22 inlet;
#X obj 91 22 inlet;
#X obj 148 22 inlet;
#X obj 208 22 inlet;
#X obj 267 22 inlet;
#X obj 326 22 inlet;
#X obj 386 22 inlet;
#X obj 451 22 inlet;
#X obj 35 41 / 360;
#X obj 91 64 / 180;
#X obj 148 41 / 100;
#X obj 208 41 / 100;
#X obj 267 41 / 10;
#X obj 326 41 / 10;
#X obj 386 41 / 10;
#X obj 91 42 + 90;
#X obj 247 139 send \$0-Lparams;
#X connect 0 0 24 0;
#X connect 1 0 24 0;
#X connect 2 0 24 0;
#X connect 3 0 24 0;
#X connect 4 0 24 0;
#X connect 5 0 24 0;
#X connect 6 0 24 0;
#X connect 7 0 24 0;
#X connect 8 0 16 0;
#X connect 9 0 23 0;
#X connect 10 0 18 0;
#X connect 11 0 19 0;
#X connect 12 0 20 0;
#X connect 13 0 21 0;
#X connect 14 0 22 0;
#X connect 15 0 6 0;
#X connect 16 0 0 0;
#X connect 17 0 1 0;
#X connect 18 0 2 0;
#X connect 19 0 3 0;
#X connect 20 0 4 0;
#X connect 21 0 5 0;
#X connect 22 0 7 0;
#X connect 23 0 17 0;
#X restore 61 211 pd sendLToPan-----------------------------------------------
;
#N canvas 0 22 988 689 sendRToPan-----------------------------------------------
0;
#X obj 35 22 inlet;
#X obj 91 22 inlet;
#X obj 148 22 inlet;
#X obj 208 22 inlet;
#X obj 267 22 inlet;
#X obj 326 22 inlet;
#X obj 386 22 inlet;
#X obj 451 22 inlet;
#X obj 35 41 / 360;
#X obj 91 62 / 180;
#X obj 148 41 / 100;
#X obj 208 41 / 100;
#X obj 267 41 / 10;
#X obj 326 41 / 10;
#X obj 386 41 / 10;
#X msg 35 86 azr \$1;
#X msg 91 86 elr \$1;
#X msg 148 86 ztr \$1;
#X msg 208 86 fir \$1;
#X msg 267 86 disr \$1;
#X msg 326 86 cenr \$1;
#X msg 386 86 dfacr \$1;
#X msg 451 86 volr \$1;
#X obj 92 42 + 90;
#X obj 247 115 send \$0-Rparams;
#X connect 0 0 8 0;
#X connect 1 0 23 0;
#X connect 2 0 10 0;
#X connect 3 0 11 0;
#X connect 4 0 12 0;
#X connect 5 0 13 0;
#X connect 6 0 14 0;
#X connect 7 0 22 0;
#X connect 8 0 15 0;
#X connect 9 0 16 0;
#X connect 10 0 17 0;
#X connect 11 0 18 0;
#X connect 12 0 19 0;
#X connect 13 0 20 0;
#X connect 14 0 21 0;
#X connect 15 0 24 0;
#X connect 16 0 24 0;
#X connect 17 0 24 0;
#X connect 18 0 24 0;
#X connect 19 0 24 0;
#X connect 20 0 24 0;
#X connect 21 0 24 0;
#X connect 22 0 24 0;
#X connect 23 0 9 0;
#X restore 66 440 pd sendRToPan-----------------------------------------------
;
#N canvas 268 65 488 138 controlOut 0;
#X obj 31 53 outlet;
#X obj 31 19 receive \$0-Lparams;
#X obj 156 18 receive \$0-Rparams;
#X connect 1 0 0 0;
#X connect 2 0 0 0;
#X restore 550 168 pd controlOut;
#X obj 550 188 outlet;
#X msg 550 144 verbose \$1;
#X obj 550 124 tgl 15 0 empty empty empty 20 8 0 8 -262144 -1 -1 0
1;
#N canvas 365 395 830 202 defaults 0;
#X obj 22 137 send \$0-setaz;
#X msg 22 114 360;
#X obj 110 137 send \$0-setel;
#X obj 197 137 send \$0-setze;
#X obj 286 138 send \$0-setfi;
#X obj 373 138 send \$0-setdis;
#X obj 464 138 send \$0-setcen;
#X obj 556 138 send \$0-setdfac;
#X obj 655 138 send \$0-setvol;
#X obj 103 71 loadbang;
#X obj 104 19 inlet;
#X msg 286 116 100;
#X msg 110 115 0;
#X msg 197 115 70.7;
#X msg 373 116 1;
#X msg 464 115 1;
#X msg 556 115 4.5;
#X msg 655 116 0.85;
#X connect 1 0 0 0;
#X connect 9 0 1 0;
#X connect 9 0 12 0;
#X connect 9 0 13 0;
#X connect 9 0 11 0;
#X connect 9 0 14 0;
#X connect 9 0 15 0;
#X connect 9 0 16 0;
#X connect 9 0 17 0;
#X connect 10 0 1 0;
#X connect 10 0 12 0;
#X connect 10 0 13 0;
#X connect 10 0 11 0;
#X connect 10 0 14 0;
#X connect 10 0 15 0;
#X connect 10 0 16 0;
#X connect 10 0 17 0;
#X connect 11 0 4 0;
#X connect 12 0 2 0;
#X connect 13 0 3 0;
#X connect 14 0 5 0;
#X connect 15 0 6 0;
#X connect 16 0 7 0;
#X connect 17 0 8 0;
#X restore 548 100 pd defaults;
#X obj 548 78 bng 15 250 50 0 empty empty empty 0 -6 0 8 -262144 -1
-1;
#X obj 24 279 vsl 15 128 0 360 0 0 empty \$0-setaz empty 20 8 0 8 -262144
-1 -1 12700 1;
#X obj 89 279 vsl 15 128 -90 90 0 0 empty \$0-setel empty 20 8 0 8
-262144 -1 -1 6350 1;
#X obj 153 279 vsl 15 128 0 100 0 0 empty \$0-setze empty 20 8 0 8
-262144 -1 -1 8979 1;
#X obj 218 279 vsl 15 128 0 100 0 0 empty \$0-setfi empty 20 8 0 8
-262144 -1 -1 12700 1;
#X obj 283 279 vsl 15 128 0 10 0 0 empty \$0-setdis empty 20 8 0 8
-262144 -1 -1 1270 1;
#X obj 348 279 vsl 15 128 0 10 0 0 empty \$0-setcen empty 20 8 0 8
-262144 -1 -1 1270 1;
#X obj 413 279 vsl 15 128 0 6 0 0 empty \$0-setdfac empty 20 8 0 8
-262144 -1 -1 9525 1;
#X obj 478 279 vsl 15 128 0 1 0 0 empty \$0-setvol empty 20 8 0 8 -262144
-1 -1 10795 1;
#X text 570 123 Verbose on/off;
#X text 571 78 Reset parameters;
#X text 467 258 Volume;
#X msg 562 282 set \$0;
#X obj 557 241 loadbang;
#X msg 565 317 0;
#X obj 19 -4 inlet;
#X obj 278 -6 inlet;
#X connect 0 0 8 0;
#X connect 1 0 9 0;
#X connect 2 0 10 0;
#X connect 3 0 11 0;
#X connect 4 0 12 0;
#X connect 5 0 13 0;
#X connect 6 0 14 0;
#X connect 7 0 15 0;
#X connect 8 0 73 0;
#X connect 9 0 73 1;
#X connect 10 0 73 2;
#X connect 11 0 73 3;
#X connect 12 0 73 4;
#X connect 13 0 73 5;
#X connect 14 0 73 6;
#X connect 15 0 73 7;
#X connect 41 0 74 0;
#X connect 42 0 74 1;
#X connect 43 0 74 2;
#X connect 44 0 74 3;
#X connect 45 0 74 4;
#X connect 46 0 74 5;
#X connect 47 0 74 6;
#X connect 48 0 74 7;
#X connect 75 0 76 0;
#X connect 77 0 76 0;
#X connect 78 0 77 0;
#X connect 80 0 79 0;
#X connect 81 0 41 0;
#X connect 82 0 42 0;
#X connect 83 0 43 0;
#X connect 84 0 44 0;
#X connect 85 0 45 0;
#X connect 86 0 46 0;
#X connect 87 0 47 0;
#X connect 88 0 48 0;
#X connect 92 0 94 0;
#X connect 93 0 92 0;
#X connect 95 0 0 0;
#X connect 95 0 81 0;
#X connect 96 0 4 0;
#X connect 96 0 85 0;
