#N canvas 626 59 540 422 10;
#N canvas 610 35 673 907 doTapTempo 1;
#X obj 119 312 loadbang;
#X obj 84 312 bng 15 250 50 0 empty empty empty 17 7 0 10 -262144 -1
-1;
#X obj 353 657 send DelayInc;
#X obj 294 79 list trim;
#X obj 294 102 route /myTapButton, f 20;
#X floatatom 294 125 5 0 0 0 - - -;
#X obj 294 170 spigot;
#X obj 294 202 tgl 15 0 empty empty empty 17 7 0 10 -262144 -1 -1 0
1;
#X obj 294 150 bng 15 250 50 0 empty empty empty 17 7 0 10 -262144
-1 -1;
#X obj 294 249 metro 1;
#X obj 294 370 float;
#X obj 360 370 + 1;
#X floatatom 294 406 5 0 0 0 - - -;
#X msg 428 327 0;
#X obj 428 303 spigot;
#X obj 428 255 bng 15 250 50 0 empty empty empty 17 7 0 10 -262144
-1 -1;
#X obj 361 500 spigot;
#X obj 228 387 bng 15 250 50 0 empty empty empty 17 7 0 10 -262144
-1 -1;
#X obj 394 451 + 1;
#X floatatom 394 429 5 0 0 0 - - -;
#X floatatom 361 527 5 0 0 0 - - -;
#X obj 394 407 * -1;
#X floatatom 394 477 5 0 0 0 - - -;
#X obj 286 711 send toGUI;
#X msg 286 684 list /myDlyIncLabel \$1;
#X obj 210 601 /;
#X msg 119 365 60000;
#X floatatom 210 625 5 0 0 0 - - -;
#X obj 210 882 send toGUI;
#X msg 210 855 list /myBPMLabel \$1;
#X obj 361 552 moses 1;
#X floatatom 361 581 5 0 0 0 - - -;
#X floatatom 400 581 5 0 0 0 - - -;
#X floatatom 40 727 5 0 0 0 - - -;
#X obj 40 812 send toGUI;
#X floatatom 40 767 5 0 0 0 - - -;
#X obj 40 746 / 127;
#X floatatom 85 727 5 0 0 0 - - -;
#X msg 40 789 list /myTapButton \$1;
#X obj 40 704 ctlin 64;
#X msg 172 365 667;
#X obj 210 705 + 0.5;
#X obj 210 751 div;
#X floatatom 228 777 5 0 0 0 - - -;
#X obj 210 649 * 10;
#X floatatom 224 676 5 0 0 0 - - -;
#X obj 210 799 / 10;
#X floatatom 231 827 5 0 0 0 - - -;
#X obj 119 334 t b b;
#X obj 294 56 receive toGUI;
#X obj 141 58 r \$1-ping-snd;
#X floatatom 227 731 5 0 0 0 - - -;
#X connect 0 0 48 0;
#X connect 1 0 48 0;
#X connect 3 0 4 0;
#X connect 4 0 5 0;
#X connect 5 0 6 1;
#X connect 5 0 8 0;
#X connect 6 0 7 0;
#X connect 7 0 9 0;
#X connect 7 0 14 1;
#X connect 7 0 15 0;
#X connect 7 0 21 0;
#X connect 7 0 17 0;
#X connect 8 0 6 0;
#X connect 9 0 10 0;
#X connect 10 0 11 0;
#X connect 10 0 12 0;
#X connect 11 0 10 1;
#X connect 12 0 16 0;
#X connect 13 0 10 0;
#X connect 14 0 13 0;
#X connect 15 0 14 0;
#X connect 16 0 20 0;
#X connect 17 0 16 0;
#X connect 17 0 12 0;
#X connect 17 0 20 0;
#X connect 17 0 25 0;
#X connect 18 0 22 0;
#X connect 19 0 18 0;
#X connect 20 0 30 0;
#X connect 21 0 19 0;
#X connect 22 0 16 1;
#X connect 24 0 23 0;
#X connect 25 0 27 0;
#X connect 26 0 25 0;
#X connect 27 0 44 0;
#X connect 29 0 28 0;
#X connect 30 0 31 0;
#X connect 30 1 32 0;
#X connect 32 0 24 0;
#X connect 32 0 2 0;
#X connect 32 0 25 1;
#X connect 33 0 36 0;
#X connect 35 0 38 0;
#X connect 36 0 35 0;
#X connect 38 0 34 0;
#X connect 39 0 33 0;
#X connect 39 1 37 0;
#X connect 40 0 2 0;
#X connect 40 0 24 0;
#X connect 40 0 25 1;
#X connect 41 0 42 0;
#X connect 41 0 51 0;
#X connect 42 0 43 0;
#X connect 42 0 46 0;
#X connect 44 0 41 0;
#X connect 44 0 45 0;
#X connect 46 0 29 0;
#X connect 46 0 47 0;
#X connect 48 0 26 0;
#X connect 48 1 40 0;
#X connect 49 0 3 0;
#X connect 50 0 5 0;
#X restore 57 56 pd doTapTempo;
#N canvas 1246 39 450 300 doDelayRed 1;
#N canvas 578 165 937 827 InputMixerRed 1;
#X obj 74 122 adc~;
#X obj 232 71 list trim;
#X obj 74 334 *~;
#X floatatom 232 130 5 0 0 0 - - -;
#X floatatom 387 130 5 0 0 0 - - -;
#X floatatom 89 255 5 0 0 0 - - -;
#X obj 74 427 +~;
#X floatatom 353 317 5 0 0 0 - - -;
#X obj 89 228 / 100;
#X obj 90 405 *~;
#X floatatom 89 308 5 0 0 0 - - -;
#X floatatom 507 131 5 0 0 0 - - -;
#X obj 534 174 - 1;
#X floatatom 533 194 5 0 0 0 - - -;
#X obj 533 213 * -1;
#X floatatom 533 236 5 0 0 0 - - -;
#X obj 353 341 spigot;
#X floatatom 353 366 5 0 0 0 - - -;
#X obj 474 341 spigot;
#X msg 474 317 1;
#X floatatom 474 366 5 0 0 0 - - -;
#X floatatom 353 392 5 0 0 0 - - -;
#X obj 89 281 *;
#X obj 88 153 send~ inputRed;
#X obj 90 360 receive~ fromDelayRed;
#X obj 74 450 send~ toDelayRed;
#X obj 680 33 loadbang;
#X obj 719 141 send toGUI;
#X obj 635 33 bng 15 250 50 0 empty empty empty 17 7 0 10 -262144 -1
-1;
#X obj 699 225 send toGUI;
#X obj 680 309 send toGUI;
#X msg 680 264 0;
#X msg 699 182 30;
#X floatatom 123 661 5 0 0 0 - - -;
#X obj 123 726 send toGUI;
#X floatatom 331 634 5 0 0 0 - - -;
#X obj 331 718 send toGUI;
#X obj 167 616 ctlin 17;
#X obj 331 612 ctlin 19;
#X obj 123 642 / 127;
#X obj 123 682 * 100;
#X obj 331 653 / 1.27;
#X obj 353 239 / 101;
#X floatatom 492 644 5 0 0 0 - - -;
#X obj 492 728 send toGUI;
#X floatatom 492 684 5 0 0 0 - - -;
#X obj 492 663 / 127;
#X floatatom 678 648 5 0 0 0 - - -;
#X obj 678 732 send toGUI;
#X floatatom 678 688 5 0 0 0 - - -;
#X obj 678 667 / 127;
#X obj 567 618 ctlin 34;
#X obj 753 618 ctlin 35;
#X msg 719 97 80;
#X obj 90 383 lop~ 4000;
#X obj 680 54 t b b b;
#X msg 492 705 list myInfRptRedToggle \$1;
#X msg 680 286 list myInfRptRedToggle \$1;
#X obj 232 48 receive toGUI;
#X msg 678 709 list myInputMuteRedToggle \$1;
#X msg 123 703 list myInputLvlRedKnob \$1;
#X msg 331 695 list myDecayRedKnob \$1;
#X msg 699 203 list myDecayRedKnob \$1;
#X msg 719 118 list myInputLvlRedKnob \$1;
#X obj 232 95 route myInputLvlRedKnob myDecayRedKnob myInfRptRedToggle
, f 61;
#X msg 527 618 127;
#X msg 492 618 0;
#X obj 91 495 vsl 15 128 0 127 0 0 empty empty empty 0 -9 0 10 -262144
-1 -1 12700 1;
#X obj 311 486 vsl 15 128 0 127 0 0 empty empty empty 0 -9 0 10 -262144
-1 -1 0 1;
#X obj 435 173 t b b b;
#X obj 533 256 t f f;
#X obj 507 151 t f f;
#X obj 799 383 bng 15 250 50 0 empty empty empty 17 7 0 10 -262144
-1 -1;
#X obj 799 403 print \$1;
#X obj 595 128 print;
#X obj 492 572 r \$1-ch1-hold-btn-snd;
#X obj 678 568 r \$1-ch1-mute-btn-snd;
#X obj 492 593 route 0 1;
#X msg 715 618 127;
#X msg 678 618 0;
#X obj 678 593 route 0 1;
#X floatatom 359 674 5 0 0 0 - - -;
#X obj 123 594 r \$1-ch1-dlyfeed-snd;
#X text 115 545 controls the level of adc input sent to the delay line
;
#X text 304 749 controls level of feedback from delay line back into
delay line;
#X text 494 529 sets delay feedback to 100% (infinite repeat);
#X connect 0 0 2 0;
#X connect 0 0 23 0;
#X connect 1 0 64 0;
#X connect 2 0 6 0;
#X connect 3 0 8 0;
#X connect 5 0 22 0;
#X connect 6 0 25 0;
#X connect 7 0 16 0;
#X connect 8 0 5 0;
#X connect 9 0 6 1;
#X connect 10 0 2 1;
#X connect 11 0 71 0;
#X connect 12 0 13 0;
#X connect 13 0 14 0;
#X connect 14 0 15 0;
#X connect 15 0 70 0;
#X connect 16 0 17 0;
#X connect 17 0 21 0;
#X connect 18 0 20 0;
#X connect 19 0 18 0;
#X connect 20 0 21 0;
#X connect 21 0 9 1;
#X connect 22 0 10 0;
#X connect 24 0 54 0;
#X connect 26 0 55 0;
#X connect 28 0 55 0;
#X connect 31 0 57 0;
#X connect 32 0 62 0;
#X connect 33 0 40 0;
#X connect 35 0 41 0;
#X connect 37 0 39 0;
#X connect 38 0 35 0;
#X connect 39 0 33 0;
#X connect 40 0 60 0;
#X connect 41 0 61 0;
#X connect 41 0 81 0;
#X connect 42 0 7 0;
#X connect 43 0 46 0;
#X connect 45 0 56 0;
#X connect 46 0 45 0;
#X connect 47 0 50 0;
#X connect 49 0 59 0;
#X connect 50 0 49 0;
#X connect 51 0 43 0;
#X connect 52 0 47 0;
#X connect 53 0 63 0;
#X connect 54 0 9 0;
#X connect 55 0 31 0;
#X connect 55 1 32 0;
#X connect 55 2 53 0;
#X connect 56 0 44 0;
#X connect 57 0 30 0;
#X connect 58 0 1 0;
#X connect 59 0 48 0;
#X connect 60 0 34 0;
#X connect 61 0 36 0;
#X connect 62 0 29 0;
#X connect 63 0 27 0;
#X connect 64 0 3 0;
#X connect 64 1 4 0;
#X connect 64 1 42 0;
#X connect 64 2 11 0;
#X connect 64 2 69 0;
#X connect 64 3 74 0;
#X connect 65 0 43 0;
#X connect 66 0 43 0;
#X connect 67 0 39 0;
#X connect 68 0 35 0;
#X connect 69 0 22 0;
#X connect 69 1 7 0;
#X connect 69 2 19 0;
#X connect 70 0 22 1;
#X connect 70 1 16 1;
#X connect 71 0 18 1;
#X connect 71 1 12 0;
#X connect 72 0 73 0;
#X connect 75 0 77 0;
#X connect 76 0 80 0;
#X connect 77 0 66 0;
#X connect 77 1 65 0;
#X connect 78 0 47 0;
#X connect 79 0 47 0;
#X connect 80 0 79 0;
#X connect 80 1 78 0;
#X connect 82 0 39 0;
#X restore 74 95 pd InputMixerRed;
#N canvas 37 73 942 944 DelayLineRed 1;
#X obj 35 44 receive~ toDelayRed;
#X obj 521 450 delread~ FatDelayRed;
#X obj 521 476 send~ fromDelayRed;
#X obj 373 219 receive DelayInc;
#X obj 34 68 delwrite~ FatDelayRed 64000;
#X obj 276 44 list trim;
#X floatatom 276 95 5 0 0 0 - - -;
#X obj 276 120 + 1;
#X floatatom 277 246 5 0 0 0 - - -;
#X obj 373 311 *;
#X floatatom 389 95 5 0 0 0 - - -;
#X obj 416 153 * 16;
#X floatatom 416 179 5 0 0 0 - - -;
#X obj 276 222 +;
#X floatatom 502 243 5 0 0 0 - - -;
#X obj 276 69 route /myTimeRedKnob /my+16RedToggle /myDlyRangeRedToggle
;
#X obj 541 301 * 7;
#X floatatom 541 327 5 0 0 0 - - -;
#X obj 541 346 + 1;
#X floatatom 541 371 5 0 0 0 - - -;
#X obj 521 405 /;
#X floatatom 521 428 10 0 0 0 - - -;
#X floatatom 400 264 5 0 0 0 - - -;
#X obj 689 30 loadbang;
#X obj 728 136 send toGUI;
#X obj 644 33 bng 15 250 50 0 empty empty empty 17 7 0 10 -262144 -1
-1;
#X obj 708 227 send toGUI;
#X obj 689 312 send toGUI;
#X msg 708 179 0;
#X msg 689 264 0;
#X msg 728 108 list /myTimeRedKnob \$1;
#X msg 728 86 1;
#X msg 708 200 list /my+16RedToggle \$1;
#X msg 689 288 list /myDlyRangeRedToggle \$1;
#X floatatom 320 680 5 0 0 0 - - -;
#X obj 438 655 ctlin 16;
#X obj 320 766 send toGUI;
#X msg 320 742 list /myTimeRedKnob \$1;
#X floatatom 320 720 5 0 0 0 - - -;
#X obj 320 699 / 7.3975;
#X floatatom 89 680 5 0 0 0 - - -;
#X obj 89 766 send toGUI;
#X floatatom 89 720 5 0 0 0 - - -;
#X obj 89 699 / 127;
#X floatatom 635 680 5 0 0 0 - - -;
#X obj 635 766 send toGUI;
#X floatatom 635 720 5 0 0 0 - - -;
#X obj 635 699 / 127;
#X obj 89 656 ctlin 32;
#X obj 635 656 ctlin 33;
#X msg 89 742 list /myDlyRangeRedToggle \$1;
#X msg 635 742 list /my+16RedToggle \$1;
#X obj 689 51 t b b b;
#X obj 276 18 receive toGUI;
#X obj 51 551 vsl 15 128 0 127 0 0 empty empty empty 0 -9 0 10 -262144
-1 -1 5400 1;
#X obj 282 551 vsl 15 128 0 740 0 0 empty empty empty 0 -9 0 10 -262144
-1 -1 7600 1;
#X obj 579 551 vsl 15 128 0 127 0 0 empty empty empty 0 -9 0 10 -262144
-1 -1 0 1;
#X msg 684 565 0;
#X msg 715 572 127;
#X msg 620 566 -127;
#X obj 320 655 r \$1-ch1-time-snd;
#X obj 373 240 t b f;
#X obj 389 120 t b f;
#X floatatom 435 355 10 0 0 0 - - -;
#X obj 502 268 t b b f;
#X connect 0 0 4 0;
#X connect 1 0 2 0;
#X connect 3 0 61 0;
#X connect 5 0 15 0;
#X connect 6 0 7 0;
#X connect 7 0 13 0;
#X connect 8 0 9 0;
#X connect 9 0 63 0;
#X connect 10 0 62 0;
#X connect 11 0 12 0;
#X connect 12 0 13 1;
#X connect 13 0 8 0;
#X connect 14 0 64 0;
#X connect 15 0 6 0;
#X connect 15 1 10 0;
#X connect 15 2 14 0;
#X connect 16 0 17 0;
#X connect 17 0 18 0;
#X connect 18 0 19 0;
#X connect 19 0 20 1;
#X connect 20 0 21 0;
#X connect 21 0 1 0;
#X connect 22 0 9 1;
#X connect 23 0 52 0;
#X connect 25 0 52 0;
#X connect 28 0 32 0;
#X connect 29 0 33 0;
#X connect 30 0 24 0;
#X connect 31 0 30 0;
#X connect 32 0 26 0;
#X connect 33 0 27 0;
#X connect 34 0 39 0;
#X connect 35 0 34 0;
#X connect 37 0 36 0;
#X connect 38 0 37 0;
#X connect 39 0 38 0;
#X connect 40 0 43 0;
#X connect 42 0 50 0;
#X connect 43 0 42 0;
#X connect 44 0 47 0;
#X connect 46 0 51 0;
#X connect 47 0 46 0;
#X connect 48 0 40 0;
#X connect 49 0 44 0;
#X connect 50 0 41 0;
#X connect 51 0 45 0;
#X connect 52 0 29 0;
#X connect 52 1 28 0;
#X connect 52 2 31 0;
#X connect 53 0 5 0;
#X connect 54 0 40 0;
#X connect 55 0 34 0;
#X connect 56 0 44 0;
#X connect 57 0 44 0;
#X connect 58 0 44 0;
#X connect 59 0 44 0;
#X connect 60 0 34 0;
#X connect 61 0 9 0;
#X connect 61 1 22 0;
#X connect 62 0 13 0;
#X connect 62 1 11 0;
#X connect 63 0 20 0;
#X connect 64 0 63 0;
#X connect 64 1 20 0;
#X connect 64 2 16 0;
#X restore 75 126 pd DelayLineRed;
#N canvas 1268 449 611 530 OutputMixerRed 1;
#X obj 82 100 list trim;
#X floatatom 121 185 5 0 0 0 - - -;
#X obj 82 294 *~;
#X obj 66 346 dac~;
#X obj 82 122 route /myMixRedKnob, f 20;
#X obj 66 52 receive~ inputRed;
#X obj 82 144 / 100;
#X obj 82 269 receive~ fromDelayRed;
#X obj 67 318 +~;
#X obj 82 185 * -1;
#X obj 82 207 + 1;
#X obj 67 230 *~;
#X floatatom 120 230 5 0 0 0 - - -;
#X obj 267 30 loadbang;
#X obj 267 100 send toGUI;
#X obj 238 30 bng 15 250 50 0 empty empty empty 17 7 0 10 -262144 -1
-1;
#X msg 267 76 list /myMixRedKnob \$1;
#X msg 267 54 50;
#X floatatom 309 335 5 0 0 0 - - -;
#X obj 309 400 send toGUI;
#X obj 421 312 ctlin 18;
#X msg 309 378 list /myMixRedKnob \$1;
#X obj 309 356 / 1.27;
#X obj 274 206 vsl 15 128 0 127 0 0 empty empty empty 0 -9 0 10 -262144
-1 -1 6100 1;
#X obj 82 78 receive toGUI;
#X obj 82 163 t f f f;
#X text 304 290 Wet / Dry Output Mix;
#X obj 309 312 r \$1-ch1-mix-snd;
#X connect 0 0 4 0;
#X connect 2 0 8 1;
#X connect 4 0 6 0;
#X connect 5 0 11 0;
#X connect 6 0 25 0;
#X connect 7 0 2 0;
#X connect 8 0 3 0;
#X connect 9 0 10 0;
#X connect 10 0 11 1;
#X connect 10 0 12 0;
#X connect 11 0 8 0;
#X connect 13 0 17 0;
#X connect 15 0 17 0;
#X connect 16 0 14 0;
#X connect 17 0 16 0;
#X connect 18 0 22 0;
#X connect 20 0 18 0;
#X connect 21 0 19 0;
#X connect 22 0 21 0;
#X connect 23 0 18 0;
#X connect 24 0 0 0;
#X connect 25 0 9 0;
#X connect 25 1 2 1;
#X connect 25 2 1 0;
#X connect 27 0 18 0;
#X restore 74 157 pd OutputMixerRed;
#X obj 251 62 bng 15 250 50 0 empty empty empty 17 7 0 10 -262144 -1
-1;
#X obj 251 82 print \$1;
#X connect 3 0 4 0;
#X restore 57 86 pd doDelayRed;
#X obj 303 87 loadbang;
#X floatatom 303 129 5 0 0 0 - - -;
#X obj 270 95 bng 15 250 50 0 empty empty empty 17 7 0 10 -262144 -1
-1;
#X obj 303 108 f \$1;
#X connect 2 0 5 0;
#X connect 4 0 5 0;
#X connect 5 0 3 0;
#X coords 0 422 1 421 420 420 0;
