#N canvas 0 22 542 265 10;
#N canvas 677 25 1280 752 foreground.pitch 0;
#X floatatom 58 253 5 0 0 0 - - -;
#X obj 116 136 tgl 15 0 empty rfa.sw empty 17 7 0 10 -262144 -1 -1
0 1;
#X obj 58 213 counter;
#X msg 344 235 7;
#X obj 344 212 loadbang;
#X obj 58 128 r g.i;
#X obj 58 151 spigot;
#X text 54 20 //Collect note count against specified tempo. If $f1
notes are played within metro counter \, the patch will reduce reverb
feedback \, foregrounding of pitch in real-time performance.;
#X obj 284 124 r metro;
#X obj 284 209 bng 15 250 50 0 empty empty empty 17 7 0 10 -262144
-1 -1;
#X text 281 99 Controlled by global metro/bpm;
#X obj 284 228 cup;
#X obj 284 252 % 20;
#X obj 120 168 bng 15 250 50 0 empty empty empty 17 7 0 10 -262144
-1 -1;
#X obj 410 194 r rfa.na;
#X floatatom 410 215 5 0 0 0 - - -;
#X msg 187 211 0;
#X obj 58 400 s rfa;
#X obj 58 379 line;
#X obj 58 345 sel 1;
#X text 58 442 Global reverb mix to plate reverbs! (cf. mono connections)
0 -> 1 (0.5 default);
#X obj 284 151 spigot;
#X obj 168 151 sel 1;
#X floatatom 284 274 5 0 0 0 - - -;
#X obj 410 235 + 1;
#X text 409 176 Specified note amount;
#X floatatom 58 324 5 0 0 0 - - -;
#X obj 284 297 ==;
#X obj 284 317 sel 1;
#X text 329 317 Reset counter once note count is met;
#X obj 205 277 r rfa.na;
#X obj 58 301 expr if($f1 >= $f2 \, 1 \, 0);
#X msg 58 362 1 1000;
#X msg 126 362 0.3 1000;
#X connect 0 0 31 0;
#X connect 1 0 6 1;
#X connect 1 0 21 1;
#X connect 1 0 22 0;
#X connect 2 0 0 0;
#X connect 3 0 12 1;
#X connect 4 0 3 0;
#X connect 5 0 6 0;
#X connect 6 0 2 0;
#X connect 8 0 21 0;
#X connect 9 0 11 0;
#X connect 11 0 12 0;
#X connect 12 0 23 0;
#X connect 13 0 2 3;
#X connect 14 0 15 0;
#X connect 15 0 24 0;
#X connect 15 0 27 1;
#X connect 16 0 11 0;
#X connect 18 0 17 0;
#X connect 19 0 32 0;
#X connect 19 1 33 0;
#X connect 21 0 9 0;
#X connect 22 0 16 0;
#X connect 22 0 13 0;
#X connect 23 0 27 0;
#X connect 24 0 12 1;
#X connect 26 0 19 0;
#X connect 27 0 28 0;
#X connect 28 0 13 0;
#X connect 30 0 31 1;
#X connect 31 0 26 0;
#X connect 32 0 18 0;
#X connect 33 0 18 0;
#X restore 25 132 pd foreground.pitch;
#X text 152 131 Number of notes per spec. tempo;
#X text 23 13 //Basic Algorithms;
#N canvas 330 205 826 564 mono.pt 0;
#X floatatom 190 146 5 0 0 0 - - -;
#X floatatom 253 147 5 0 0 0 - - -;
#X floatatom 316 147 5 0 0 0 - - -;
#X floatatom 379 145 5 0 0 0 - - -;
#X floatatom 442 146 5 0 0 0 - - -;
#X floatatom 505 147 5 0 0 0 - - -;
#X obj 190 167 expr if($f1 + $f2 + $f3 + $f4 + $f5 + $f6 >= 2 \, 1
\, 0);
#X floatatom 190 184 5 0 0 0 - - -;
#X obj 190 240 spigot;
#X obj 261 225 tgl 15 0 empty mto empty 17 7 0 10 -262144 -1 -1 0 1
;
#X obj 190 267 s mto.sw;
#X obj 190 200 sel 0;
#X msg 190 223 1;
#X msg 217 223 0;
#X obj 294 230 loadbang;
#X msg 294 250 1;
#X obj 253 127 r 2_b;
#X obj 316 127 r 3_b;
#X obj 379 125 r 4_b;
#X obj 442 126 r 5_b;
#X obj 505 127 r 6_b;
#X text 189 88 Based on bang triggered by amplitude threshold per string
(cf. DSP control);
#X text 352 211 single melody tracking only - changing status in pitch
tracker;
#X text 14 293 re-initialise mto in pitch track;
#X text 21 315 when dynamic patching utilised;
#X obj 57 169 init.string;
#X msg 57 190 1;
#X obj 190 126 r 1_b;
#X connect 0 0 6 0;
#X connect 1 0 6 1;
#X connect 2 0 6 2;
#X connect 3 0 6 3;
#X connect 4 0 6 4;
#X connect 5 0 6 5;
#X connect 6 0 7 0;
#X connect 7 0 11 0;
#X connect 8 0 10 0;
#X connect 9 0 8 1;
#X connect 11 0 12 0;
#X connect 11 1 13 0;
#X connect 12 0 8 0;
#X connect 13 0 8 0;
#X connect 14 0 15 0;
#X connect 15 0 10 0;
#X connect 16 0 1 0;
#X connect 17 0 2 0;
#X connect 18 0 3 0;
#X connect 19 0 4 0;
#X connect 20 0 5 0;
#X connect 25 0 26 0;
#X connect 26 0 10 0;
#X connect 27 0 0 0;
#X restore 24 199 pd mono.pt;
#X text 122 69 Dictates interpolation time(s) based on average note
onset;
#N canvas 334 51 582 629 note.onset 0;
#X obj 116 223 timer;
#X obj 116 81 r g.i;
#X obj 116 103 bng 15 250 50 0 empty empty empty 17 7 0 10 -262144
-1 -1;
#X obj 116 122 cup;
#X floatatom 116 164 5 0 0 0 - - -;
#X obj 116 143 % 2;
#X msg 116 387 \$1 1000;
#X obj 116 409 line;
#X obj 116 496 s glbl.it;
#X obj 116 473 spigot;
#X floatatom 116 429 10 0 0 0 - - -;
#X obj 41 458 tgl 15 0 empty no.sw empty 17 7 0 10 -262144 -1 -1 0
1;
#X obj 116 448 i;
#X text 62 456 [on/off];
#X text 116 520 Global Interpolation;
#X obj 369 489 s glbl.it;
#X obj 369 442 loadbang;
#X msg 369 465 150;
#X obj 116 185 sel 0;
#X obj 116 206 b;
#X obj 143 206 b;
#X floatatom 116 338 10 0 0 0 - - -;
#X obj 185 223 timer;
#X obj 116 268 pack 0 0;
#X obj 116 314 mean;
#X obj 201 426 split 10 10000;
#X obj 116 251 t b f;
#X obj 185 251 t b f;
#X floatatom 234 240 10 0 0 0 - - -;
#X floatatom 44 240 10 0 0 0 - - -;
#X msg 116 292 \$1 \$2;
#X obj 208 285 unpack 0 0;
#X floatatom 185 302 10 0 0 0 - - -;
#X floatatom 265 307 10 0 0 0 - - -;
#X text 189 334 Produces time elapsed from first recorded note attack
to following note attack (compares current and previous elapse);
#X text 200 448 Specify Range?;
#X text 279 285 CHECK?!;
#X obj 34 331 s mean.onset;
#X obj 399 263 s current.onset;
#X floatatom 399 240 10 0 0 0 - - -;
#X text 114 36 Average or mean note onset time controls global interpolation
times for system synthesis processes;
#X text 366 423 init on start-up;
#X connect 0 0 26 0;
#X connect 0 0 29 0;
#X connect 0 0 39 0;
#X connect 1 0 2 0;
#X connect 2 0 3 0;
#X connect 3 0 5 0;
#X connect 4 0 18 0;
#X connect 5 0 4 0;
#X connect 6 0 7 0;
#X connect 7 0 10 0;
#X connect 9 0 8 0;
#X connect 10 0 12 0;
#X connect 11 0 9 1;
#X connect 12 0 9 0;
#X connect 16 0 17 0;
#X connect 17 0 15 0;
#X connect 18 0 19 0;
#X connect 18 1 20 0;
#X connect 19 0 0 0;
#X connect 19 0 22 1;
#X connect 20 0 0 1;
#X connect 20 0 22 0;
#X connect 21 0 6 0;
#X connect 22 0 27 0;
#X connect 22 0 28 0;
#X connect 22 0 39 0;
#X connect 23 0 30 0;
#X connect 23 0 31 0;
#X connect 24 0 21 0;
#X connect 24 0 37 0;
#X connect 26 0 23 0;
#X connect 26 1 23 0;
#X connect 27 0 23 0;
#X connect 27 1 23 1;
#X connect 30 0 24 0;
#X connect 31 0 32 0;
#X connect 31 1 33 0;
#X connect 39 0 38 0;
#X restore 27 69 pd note.onset;
#X text 113 194 stricter mono-tracking/based on incoming scaled ampltiude
levels;
