#N canvas 140 48 1280 752 10;
#X obj -90 -179 bng 15 250 50 0 empty empty empty 17 7 0 10 -262144
-1 -1;
#X floatatom -407 219 10 0 0 0 - - -;
#X obj -90 -201 metro 500;
#X floatatom -13 -217 5 0 0 0 - - -;
#X text -171 78 stop;
#X text -290 -143 select contour data;
#X floatatom -243 -103 5 0 0 0 - - -;
#X text -447 -208 pc;
#X obj -446 -190 inlet;
#X floatatom -446 -149 5 0 0 0 - - -;
#X obj -446 -49 spigot;
#X obj -446 -168 / 11;
#X obj -356 -189 inlet;
#X text -358 -207 ic;
#X obj -356 -168 / 6;
#X floatatom -356 -148 5 0 0 0 - - -;
#X obj -407 198 line;
#X obj -407 240 outlet;
#X text -156 -184 random;
#X msg -446 73 \$1 \$2;
#X obj -565 -166 tgl 15 0 \$0-sw mto.c.sw empty 17 7 0 8 -262130 -258113
-1 1 1;
#X text -546 -168 ON/OFF;
#X obj -274 -70 outlet;
#X obj -446 97 line;
#X obj -565 -188 inlet;
#X floatatom -198 39 5 0 0 0 - - -;
#X obj -198 60 sel 0;
#X msg -198 80 0;
#X obj -154 -164 random 10;
#X obj -154 -104 / 10;
#X obj -121 -147 != 0;
#X obj -154 -126 spigot;
#X obj -13 -240 r glbl.bpm;
#X text -445 -255 Single/solo string contour - tracking and interpolating
pitch data;
#X obj -446 36 pack 0 0;
#X obj -401 -17 r glbl.it;
#X floatatom -446 -1 5 0 0 0 - - -;
#X floatatom -154 -83 5 0 0 0 - - -;
#X obj -243 -125 inlet;
#X text -557 -111 controlled by;
#X text -557 -92 global switch;
#X text -558 -74 on GUI;
#X obj -446 134 moses 0;
#X obj -296 -189 inlet;
#X obj -296 -167 / 3;
#X obj -446 -87 mux - - - -;
#X text -299 -207 pc cone;
#X text -392 133 less than 0 is ommited;
#X msg -90 -220 \$1;
#X obj -90 -239 r \$0-sw;
#X obj -198 19 r \$0-sw;
#X obj -375 -66 r \$0-sw;
#X floatatom -401 7 5 0 0 0 - - -;
#X floatatom -317 -125 5 0 0 0 - - -;
#X obj -516 -183 r mto.sw;
#X obj -315 -2 r cit.d;
#X msg -315 19 \$1;
#X text -362 198 Further Interpolation (1/2 second default);
#X msg -407 176 \$1 500;
#X floatatom -494 114 5 0 0 0 - - -;
#X connect 0 0 28 0;
#X connect 1 0 17 0;
#X connect 2 0 0 0;
#X connect 3 0 2 1;
#X connect 6 0 45 4;
#X connect 8 0 11 0;
#X connect 9 0 45 0;
#X connect 10 0 36 0;
#X connect 11 0 9 0;
#X connect 12 0 14 0;
#X connect 14 0 15 0;
#X connect 15 0 45 1;
#X connect 16 0 1 0;
#X connect 19 0 23 0;
#X connect 23 0 42 0;
#X connect 23 0 59 0;
#X connect 24 0 20 0;
#X connect 25 0 26 0;
#X connect 26 0 27 0;
#X connect 27 0 23 0;
#X connect 27 0 58 0;
#X connect 28 0 31 0;
#X connect 28 0 30 0;
#X connect 29 0 37 0;
#X connect 29 0 45 3;
#X connect 30 0 31 1;
#X connect 31 0 29 0;
#X connect 32 0 3 0;
#X connect 34 0 19 0;
#X connect 35 0 34 1;
#X connect 35 0 52 0;
#X connect 36 0 34 0;
#X connect 38 0 6 0;
#X connect 42 1 58 0;
#X connect 43 0 44 0;
#X connect 44 0 45 2;
#X connect 44 0 53 0;
#X connect 45 0 10 0;
#X connect 45 0 22 0;
#X connect 48 0 2 0;
#X connect 49 0 48 0;
#X connect 50 0 25 0;
#X connect 51 0 10 1;
#X connect 54 0 20 0;
#X connect 55 0 56 0;
#X connect 56 0 34 1;
#X connect 58 0 16 0;
#X coords 0 0 1 1 170 120 0;
