#N canvas 0 22 1280 752 10;
#X text -123 -2 Using Euclidean Distance Formula;
#X text 331 124 more info: http://www.youtube.com/watch?v=TD8j0-4heb0
;
#X text 332 83 x1 ($f1) y1 ($f2) (grid/fuducial 1) + x2 ($f3) y2 ($f4)
(grid/fuducial 2);
#X obj -54 167 r azi.1;
#X obj -54 184 / 360;
#X obj -116 188 / 10;
#X obj 82 181 / 360;
#X obj 18 192 / 10;
#X obj 82 164 r azi.2;
#X obj -116 171 r dist.1;
#X obj 18 175 r dist.2;
#X text -73 120 greater the value \, the further they are apart;
#X floatatom -116 210 5 0 0 0 - - -;
#X obj -116 257 poltocar;
#X obj 18 257 poltocar;
#X obj -54 204 * 6.283;
#X obj 82 201 * 6.283;
#X floatatom -54 224 5 0 0 0 - - -;
#X floatatom 82 220 5 0 0 0 - - -;
#X floatatom 18 213 5 0 0 0 - - -;
#X floatatom -116 371 5 0 0 0 - - -;
#X obj -98 240 t b f;
#X obj 82 240 t b f;
#X floatatom -116 274 5 0 0 0 - - -;
#X floatatom -71 274 5 0 0 0 - - -;
#X floatatom 18 274 5 0 0 0 - - -;
#X floatatom 63 274 5 0 0 0 - - -;
#X obj -21 290 bng 15 250 50 0 empty empty empty 17 7 0 10 -262144
-1 -1;
#X text -124 32 //Calculating euclidean distance (2D) between each
tone in xy space;
#X text -124 74 Eucilidian distance forumla = squart root of (x1 -
x2) ^ 2 + (y1 - y2) ^ 2;
#X text -126 107 Condition = (if the distance is greater than 0.5 \,
output 1 \, else 0);
#X text 330 31 Ambisonic data needs to be convertedfrom polar to cartesian
in order to use euclidean formula;
#X text 330 62 e.g. azi needs to be converted to 2pi i.e 360 (1) =
6.283?;
#X obj 321 184 / 360;
#X obj 259 188 / 10;
#X obj 457 181 / 360;
#X obj 393 192 / 10;
#X floatatom 259 210 5 0 0 0 - - -;
#X obj 259 257 poltocar;
#X obj 393 257 poltocar;
#X obj 321 204 * 6.283;
#X obj 457 201 * 6.283;
#X floatatom 321 224 5 0 0 0 - - -;
#X floatatom 457 220 5 0 0 0 - - -;
#X floatatom 393 213 5 0 0 0 - - -;
#X floatatom 259 372 5 0 0 0 - - -;
#X obj 277 240 t b f;
#X obj 457 240 t b f;
#X floatatom 259 274 5 0 0 0 - - -;
#X floatatom 304 274 5 0 0 0 - - -;
#X floatatom 393 274 5 0 0 0 - - -;
#X floatatom 438 274 5 0 0 0 - - -;
#X obj 354 290 bng 15 250 50 0 empty empty empty 17 7 0 10 -262144
-1 -1;
#X obj 393 175 r dist.3;
#X obj 457 164 r azi.3;
#X obj 699 182 / 360;
#X obj 637 186 / 10;
#X obj 835 179 / 360;
#X obj 771 190 / 10;
#X floatatom 637 208 5 0 0 0 - - -;
#X obj 637 255 poltocar;
#X obj 771 255 poltocar;
#X obj 699 202 * 6.283;
#X obj 835 199 * 6.283;
#X floatatom 699 222 5 0 0 0 - - -;
#X floatatom 835 218 5 0 0 0 - - -;
#X floatatom 771 211 5 0 0 0 - - -;
#X floatatom 637 371 5 0 0 0 - - -;
#X obj 655 238 t b f;
#X obj 835 238 t b f;
#X floatatom 637 272 5 0 0 0 - - -;
#X floatatom 682 272 5 0 0 0 - - -;
#X floatatom 771 272 5 0 0 0 - - -;
#X floatatom 816 272 5 0 0 0 - - -;
#X obj 732 288 bng 15 250 50 0 empty empty empty 17 7 0 10 -262144
-1 -1;
#X obj 835 162 r azi.4;
#X obj -50 467 / 360;
#X obj -112 471 / 10;
#X obj 86 464 / 360;
#X obj 22 475 / 10;
#X floatatom -112 493 5 0 0 0 - - -;
#X obj -112 540 poltocar;
#X obj 22 540 poltocar;
#X obj -50 487 * 6.283;
#X obj 86 484 * 6.283;
#X floatatom -50 507 5 0 0 0 - - -;
#X floatatom 86 503 5 0 0 0 - - -;
#X floatatom 22 496 5 0 0 0 - - -;
#X floatatom -112 655 5 0 0 0 - - -;
#X obj -94 523 t b f;
#X obj 86 523 t b f;
#X floatatom -112 557 5 0 0 0 - - -;
#X floatatom -67 557 5 0 0 0 - - -;
#X floatatom 22 557 5 0 0 0 - - -;
#X floatatom 67 557 5 0 0 0 - - -;
#X obj -17 573 bng 15 250 50 0 empty empty empty 17 7 0 10 -262144
-1 -1;
#X obj 325 467 / 360;
#X obj 263 471 / 10;
#X obj 461 464 / 360;
#X obj 397 475 / 10;
#X floatatom 263 493 5 0 0 0 - - -;
#X obj 263 540 poltocar;
#X obj 397 540 poltocar;
#X obj 325 487 * 6.283;
#X obj 461 484 * 6.283;
#X floatatom 325 507 5 0 0 0 - - -;
#X floatatom 461 503 5 0 0 0 - - -;
#X floatatom 397 496 5 0 0 0 - - -;
#X floatatom 263 656 5 0 0 0 - - -;
#X obj 281 523 t b f;
#X obj 461 523 t b f;
#X floatatom 263 557 5 0 0 0 - - -;
#X floatatom 308 557 5 0 0 0 - - -;
#X floatatom 397 557 5 0 0 0 - - -;
#X floatatom 442 557 5 0 0 0 - - -;
#X obj 358 573 bng 15 250 50 0 empty empty empty 17 7 0 10 -262144
-1 -1;
#X obj 22 458 r dist.5;
#X obj 86 447 r azi.5;
#X obj 397 458 r dist.6;
#X obj 461 447 r azi.6;
#X obj 259 171 r dist.2;
#X obj 321 167 r azi.2;
#X obj 698 165 r azi.3;
#X obj 771 173 r dist.4;
#X obj 637 169 r dist.3;
#X obj -112 454 r dist.4;
#X obj -50 450 r azi.4;
#X obj 263 454 r dist.5;
#X obj 325 450 r azi.5;
#X text 728 133 consider sending grid co-ordinates from table contours
;
#X obj 695 466 / 360;
#X obj 633 470 / 10;
#X obj 831 463 / 360;
#X obj 767 474 / 10;
#X floatatom 633 492 5 0 0 0 - - -;
#X obj 633 539 poltocar;
#X obj 767 539 poltocar;
#X obj 695 486 * 6.283;
#X obj 831 483 * 6.283;
#X floatatom 695 506 5 0 0 0 - - -;
#X floatatom 831 502 5 0 0 0 - - -;
#X floatatom 767 495 5 0 0 0 - - -;
#X floatatom 633 655 5 0 0 0 - - -;
#X obj 651 522 t b f;
#X obj 831 522 t b f;
#X floatatom 633 556 5 0 0 0 - - -;
#X floatatom 678 556 5 0 0 0 - - -;
#X floatatom 767 556 5 0 0 0 - - -;
#X floatatom 812 556 5 0 0 0 - - -;
#X obj 728 572 bng 15 250 50 0 empty empty empty 17 7 0 10 -262144
-1 -1;
#X obj 633 453 r dist.6;
#X obj 695 449 r azi.6;
#X obj 767 457 r dist.1;
#X obj 831 446 r azi.1;
#X obj -83 379 r euclid.sw;
#X obj -116 401 spigot;
#X obj 292 378 r euclid.sw;
#X obj 259 400 spigot;
#X obj 670 376 r euclid.sw;
#X obj 637 398 spigot;
#X obj -79 664 r euclid.sw;
#X obj -112 686 spigot;
#X obj 296 664 r euclid.sw;
#X obj 263 686 spigot;
#X obj 666 661 r euclid.sw;
#X obj 633 683 spigot;
#X obj -116 425 s 1_euc;
#X obj 259 424 s 2_euc;
#X obj 637 423 s 3_euc;
#X obj -112 710 s 4_euc;
#X obj 263 709 s 5_euc;
#X obj 633 708 s 6_euc;
#X obj -116 337 expr if(sqrt(pow(abs($f1 - $f3) \, 2) + pow(abs($f2
- $f4) \, 2)) < 0.1 \, 1 \, 0);
#X obj 259 337 expr if(sqrt(pow(abs($f1 - $f3) \, 2) + pow(abs($f2
- $f4) \, 2)) < 0.1 \, 1 \, 0);
#X obj 637 335 expr if(sqrt(pow(abs($f1 - $f3) \, 2) + pow(abs($f2
- $f4) \, 2)) < 0.1 \, 1 \, 0);
#X obj -112 620 expr if(sqrt(pow(abs($f1 - $f3) \, 2) + pow(abs($f2
- $f4) \, 2)) < 0.1 \, 1 \, 0);
#X obj 263 620 expr if(sqrt(pow(abs($f1 - $f3) \, 2) + pow(abs($f2
- $f4) \, 2)) < 0.1 \, 1 \, 0);
#X obj 633 619 expr if(sqrt(pow(abs($f1 - $f3) \, 2) + pow(abs($f2
- $f4) \, 2)) < 0.1 \, 1 \, 0);
#X connect 3 0 4 0;
#X connect 4 0 15 0;
#X connect 5 0 12 0;
#X connect 6 0 16 0;
#X connect 7 0 19 0;
#X connect 8 0 6 0;
#X connect 9 0 5 0;
#X connect 10 0 7 0;
#X connect 12 0 13 0;
#X connect 13 0 23 0;
#X connect 13 1 24 0;
#X connect 14 0 25 0;
#X connect 14 1 26 0;
#X connect 15 0 17 0;
#X connect 16 0 18 0;
#X connect 17 0 21 0;
#X connect 18 0 22 0;
#X connect 19 0 14 0;
#X connect 20 0 155 0;
#X connect 21 0 12 0;
#X connect 21 1 13 1;
#X connect 22 0 19 0;
#X connect 22 1 14 1;
#X connect 23 0 27 0;
#X connect 23 0 172 1;
#X connect 24 0 27 0;
#X connect 24 0 172 0;
#X connect 25 0 27 0;
#X connect 25 0 172 3;
#X connect 26 0 27 0;
#X connect 26 0 172 2;
#X connect 27 0 172 0;
#X connect 33 0 40 0;
#X connect 34 0 37 0;
#X connect 35 0 41 0;
#X connect 36 0 44 0;
#X connect 37 0 38 0;
#X connect 38 0 48 0;
#X connect 38 1 49 0;
#X connect 39 0 50 0;
#X connect 39 1 51 0;
#X connect 40 0 42 0;
#X connect 41 0 43 0;
#X connect 42 0 46 0;
#X connect 43 0 47 0;
#X connect 44 0 39 0;
#X connect 45 0 157 0;
#X connect 46 0 37 0;
#X connect 46 1 38 1;
#X connect 47 0 44 0;
#X connect 47 1 39 1;
#X connect 48 0 52 0;
#X connect 48 0 173 1;
#X connect 49 0 52 0;
#X connect 49 0 173 0;
#X connect 50 0 52 0;
#X connect 50 0 173 3;
#X connect 51 0 52 0;
#X connect 51 0 173 2;
#X connect 52 0 173 0;
#X connect 53 0 36 0;
#X connect 54 0 35 0;
#X connect 55 0 62 0;
#X connect 56 0 59 0;
#X connect 57 0 63 0;
#X connect 58 0 66 0;
#X connect 59 0 60 0;
#X connect 60 0 70 0;
#X connect 60 1 71 0;
#X connect 61 0 72 0;
#X connect 61 1 73 0;
#X connect 62 0 64 0;
#X connect 63 0 65 0;
#X connect 64 0 68 0;
#X connect 65 0 69 0;
#X connect 66 0 61 0;
#X connect 67 0 159 0;
#X connect 68 0 59 0;
#X connect 68 1 60 1;
#X connect 69 0 66 0;
#X connect 69 1 61 1;
#X connect 70 0 74 0;
#X connect 70 0 174 1;
#X connect 71 0 74 0;
#X connect 71 0 174 0;
#X connect 72 0 74 0;
#X connect 72 0 174 3;
#X connect 73 0 74 0;
#X connect 73 0 174 2;
#X connect 74 0 174 0;
#X connect 75 0 57 0;
#X connect 76 0 83 0;
#X connect 77 0 80 0;
#X connect 78 0 84 0;
#X connect 79 0 87 0;
#X connect 80 0 81 0;
#X connect 81 0 91 0;
#X connect 81 1 92 0;
#X connect 82 0 93 0;
#X connect 82 1 94 0;
#X connect 83 0 85 0;
#X connect 84 0 86 0;
#X connect 85 0 89 0;
#X connect 86 0 90 0;
#X connect 87 0 82 0;
#X connect 88 0 161 0;
#X connect 89 0 80 0;
#X connect 89 1 81 1;
#X connect 90 0 87 0;
#X connect 90 1 82 1;
#X connect 91 0 95 0;
#X connect 91 0 175 1;
#X connect 92 0 95 0;
#X connect 92 0 175 0;
#X connect 93 0 95 0;
#X connect 93 0 175 3;
#X connect 94 0 95 0;
#X connect 94 0 175 2;
#X connect 95 0 175 0;
#X connect 96 0 103 0;
#X connect 97 0 100 0;
#X connect 98 0 104 0;
#X connect 99 0 107 0;
#X connect 100 0 101 0;
#X connect 101 0 111 0;
#X connect 101 1 112 0;
#X connect 102 0 113 0;
#X connect 102 1 114 0;
#X connect 103 0 105 0;
#X connect 104 0 106 0;
#X connect 105 0 109 0;
#X connect 106 0 110 0;
#X connect 107 0 102 0;
#X connect 108 0 163 0;
#X connect 109 0 100 0;
#X connect 109 1 101 1;
#X connect 110 0 107 0;
#X connect 110 1 102 1;
#X connect 111 0 115 0;
#X connect 111 0 176 1;
#X connect 112 0 115 0;
#X connect 112 0 176 0;
#X connect 113 0 115 0;
#X connect 113 0 176 3;
#X connect 114 0 115 0;
#X connect 114 0 176 2;
#X connect 115 0 176 0;
#X connect 116 0 79 0;
#X connect 117 0 78 0;
#X connect 118 0 99 0;
#X connect 119 0 98 0;
#X connect 120 0 34 0;
#X connect 121 0 33 0;
#X connect 122 0 55 0;
#X connect 123 0 58 0;
#X connect 124 0 56 0;
#X connect 125 0 77 0;
#X connect 126 0 76 0;
#X connect 127 0 97 0;
#X connect 128 0 96 0;
#X connect 130 0 137 0;
#X connect 131 0 134 0;
#X connect 132 0 138 0;
#X connect 133 0 141 0;
#X connect 134 0 135 0;
#X connect 135 0 145 0;
#X connect 135 1 146 0;
#X connect 136 0 147 0;
#X connect 136 1 148 0;
#X connect 137 0 139 0;
#X connect 138 0 140 0;
#X connect 139 0 143 0;
#X connect 140 0 144 0;
#X connect 141 0 136 0;
#X connect 142 0 165 0;
#X connect 143 0 134 0;
#X connect 143 1 135 1;
#X connect 144 0 141 0;
#X connect 144 1 136 1;
#X connect 145 0 149 0;
#X connect 145 0 177 1;
#X connect 146 0 149 0;
#X connect 146 0 177 0;
#X connect 147 0 149 0;
#X connect 147 0 177 3;
#X connect 148 0 149 0;
#X connect 148 0 177 2;
#X connect 149 0 177 0;
#X connect 150 0 131 0;
#X connect 151 0 130 0;
#X connect 152 0 133 0;
#X connect 153 0 132 0;
#X connect 154 0 155 1;
#X connect 155 0 166 0;
#X connect 156 0 157 1;
#X connect 157 0 167 0;
#X connect 158 0 159 1;
#X connect 159 0 168 0;
#X connect 160 0 161 1;
#X connect 161 0 169 0;
#X connect 162 0 163 1;
#X connect 163 0 170 0;
#X connect 164 0 165 1;
#X connect 165 0 171 0;
#X connect 172 0 20 0;
#X connect 173 0 45 0;
#X connect 174 0 67 0;
#X connect 175 0 88 0;
#X connect 176 0 108 0;
#X connect 177 0 142 0;
