#N canvas 0 22 245 183 10;
#N canvas 0 22 844 343 menu 0;
#X floatatom 43 60 5 0 0 0 - - -;
#X floatatom 98 55 5 0 0 0 - - -;
#X obj 43 111 spigot;
#X obj 43 155 s menu.1;
#X obj 43 81 / 127;
#X obj 43 38 ctlin;
#X obj 98 76 expr if ($f1 == 23 \, 1 \, 0);
#X floatatom 98 95 5 0 0 0 - - -;
#X floatatom 43 133 5 0 0 0 - - -;
#X floatatom 44 207 5 0 0 0 - - -;
#X floatatom 99 202 5 0 0 0 - - -;
#X obj 44 258 spigot;
#X obj 44 228 / 127;
#X obj 44 185 ctlin;
#X floatatom 99 242 5 0 0 0 - - -;
#X floatatom 44 280 5 0 0 0 - - -;
#X obj 44 302 s menu.2;
#X obj 100 223 expr if ($f1 == 24 \, 1 \, 0);
#X floatatom 326 61 5 0 0 0 - - -;
#X floatatom 381 56 5 0 0 0 - - -;
#X obj 326 112 spigot;
#X obj 326 82 / 127;
#X obj 326 39 ctlin;
#X floatatom 381 96 5 0 0 0 - - -;
#X floatatom 326 134 5 0 0 0 - - -;
#X floatatom 327 208 5 0 0 0 - - -;
#X floatatom 382 203 5 0 0 0 - - -;
#X obj 327 259 spigot;
#X obj 327 229 / 127;
#X obj 327 186 ctlin;
#X floatatom 382 243 5 0 0 0 - - -;
#X floatatom 327 281 5 0 0 0 - - -;
#X obj 381 77 expr if ($f1 == 25 \, 1 \, 0);
#X obj 383 224 expr if ($f1 == 26 \, 1 \, 0);
#X obj 326 156 s menu.3;
#X obj 327 303 s menu.4;
#X floatatom 601 53 5 0 0 0 - - -;
#X floatatom 656 48 5 0 0 0 - - -;
#X obj 601 104 spigot;
#X obj 601 74 / 127;
#X obj 601 31 ctlin;
#X floatatom 656 88 5 0 0 0 - - -;
#X floatatom 601 126 5 0 0 0 - - -;
#X floatatom 602 200 5 0 0 0 - - -;
#X floatatom 657 195 5 0 0 0 - - -;
#X obj 602 251 spigot;
#X obj 602 221 / 127;
#X obj 602 178 ctlin;
#X floatatom 657 235 5 0 0 0 - - -;
#X floatatom 602 273 5 0 0 0 - - -;
#X obj 656 69 expr if ($f1 == 27 \, 1 \, 0);
#X obj 658 216 expr if ($f1 == 28 \, 1 \, 0);
#X obj 601 148 s menu.5;
#X obj 602 295 s menu.6;
#X connect 0 0 4 0;
#X connect 1 0 6 0;
#X connect 2 0 8 0;
#X connect 4 0 2 0;
#X connect 5 0 0 0;
#X connect 5 1 1 0;
#X connect 6 0 7 0;
#X connect 7 0 2 1;
#X connect 8 0 3 0;
#X connect 9 0 12 0;
#X connect 10 0 17 0;
#X connect 11 0 15 0;
#X connect 12 0 11 0;
#X connect 13 0 9 0;
#X connect 13 1 10 0;
#X connect 14 0 11 1;
#X connect 15 0 16 0;
#X connect 17 0 14 0;
#X connect 18 0 21 0;
#X connect 19 0 32 0;
#X connect 20 0 24 0;
#X connect 21 0 20 0;
#X connect 22 0 18 0;
#X connect 22 1 19 0;
#X connect 23 0 20 1;
#X connect 24 0 34 0;
#X connect 25 0 28 0;
#X connect 26 0 33 0;
#X connect 27 0 31 0;
#X connect 28 0 27 0;
#X connect 29 0 25 0;
#X connect 29 1 26 0;
#X connect 30 0 27 1;
#X connect 31 0 35 0;
#X connect 32 0 23 0;
#X connect 33 0 30 0;
#X connect 36 0 39 0;
#X connect 37 0 50 0;
#X connect 38 0 42 0;
#X connect 39 0 38 0;
#X connect 40 0 36 0;
#X connect 40 1 37 0;
#X connect 41 0 38 1;
#X connect 42 0 52 0;
#X connect 43 0 46 0;
#X connect 44 0 51 0;
#X connect 45 0 49 0;
#X connect 46 0 45 0;
#X connect 47 0 43 0;
#X connect 47 1 44 0;
#X connect 48 0 45 1;
#X connect 49 0 53 0;
#X connect 50 0 41 0;
#X connect 51 0 48 0;
#X restore 24 35 pd menu;
#N canvas 86 276 1194 499 faders 0;
#X floatatom 53 70 5 0 0 0 - - -;
#X obj 53 121 spigot;
#X obj 53 91 / 127;
#X obj 53 48 ctlin;
#X floatatom 108 105 5 0 0 0 - - -;
#X floatatom 53 143 5 0 0 0 - - -;
#X floatatom 54 217 5 0 0 0 - - -;
#X floatatom 109 212 5 0 0 0 - - -;
#X obj 54 268 spigot;
#X obj 54 238 / 127;
#X obj 54 195 ctlin;
#X floatatom 109 252 5 0 0 0 - - -;
#X floatatom 54 290 5 0 0 0 - - -;
#X floatatom 336 71 5 0 0 0 - - -;
#X floatatom 391 66 5 0 0 0 - - -;
#X obj 336 122 spigot;
#X obj 336 92 / 127;
#X obj 336 49 ctlin;
#X floatatom 391 106 5 0 0 0 - - -;
#X floatatom 336 144 5 0 0 0 - - -;
#X floatatom 337 218 5 0 0 0 - - -;
#X floatatom 392 213 5 0 0 0 - - -;
#X obj 337 269 spigot;
#X obj 337 239 / 127;
#X obj 337 196 ctlin;
#X floatatom 392 253 5 0 0 0 - - -;
#X floatatom 337 291 5 0 0 0 - - -;
#X floatatom 611 63 5 0 0 0 - - -;
#X floatatom 666 58 5 0 0 0 - - -;
#X obj 611 114 spigot;
#X obj 611 84 / 127;
#X obj 611 41 ctlin;
#X floatatom 666 98 5 0 0 0 - - -;
#X floatatom 611 136 5 0 0 0 - - -;
#X floatatom 612 210 5 0 0 0 - - -;
#X floatatom 667 205 5 0 0 0 - - -;
#X obj 612 261 spigot;
#X obj 612 231 / 127;
#X obj 612 188 ctlin;
#X floatatom 667 245 5 0 0 0 - - -;
#X floatatom 612 283 5 0 0 0 - - -;
#X obj 53 165 s fd.1;
#X obj 612 305 s fd.6;
#X floatatom 55 375 5 0 0 0 - - -;
#X floatatom 110 370 5 0 0 0 - - -;
#X obj 55 426 spigot;
#X obj 55 396 / 127;
#X obj 55 353 ctlin;
#X floatatom 110 410 5 0 0 0 - - -;
#X floatatom 55 448 5 0 0 0 - - -;
#X floatatom 56 522 5 0 0 0 - - -;
#X floatatom 111 517 5 0 0 0 - - -;
#X obj 56 573 spigot;
#X obj 56 543 / 127;
#X obj 56 500 ctlin;
#X floatatom 111 557 5 0 0 0 - - -;
#X floatatom 56 595 5 0 0 0 - - -;
#X floatatom 338 376 5 0 0 0 - - -;
#X floatatom 393 371 5 0 0 0 - - -;
#X obj 338 427 spigot;
#X obj 338 397 / 127;
#X obj 338 354 ctlin;
#X floatatom 393 411 5 0 0 0 - - -;
#X floatatom 338 449 5 0 0 0 - - -;
#X floatatom 339 523 5 0 0 0 - - -;
#X floatatom 394 518 5 0 0 0 - - -;
#X obj 339 574 spigot;
#X obj 339 544 / 127;
#X obj 339 501 ctlin;
#X floatatom 394 558 5 0 0 0 - - -;
#X floatatom 339 596 5 0 0 0 - - -;
#X floatatom 613 368 5 0 0 0 - - -;
#X floatatom 668 363 5 0 0 0 - - -;
#X obj 613 419 spigot;
#X obj 613 389 / 127;
#X obj 613 346 ctlin;
#X floatatom 668 403 5 0 0 0 - - -;
#X floatatom 613 441 5 0 0 0 - - -;
#X floatatom 614 515 5 0 0 0 - - -;
#X floatatom 669 510 5 0 0 0 - - -;
#X obj 614 566 spigot;
#X obj 614 536 / 127;
#X obj 614 493 ctlin;
#X floatatom 669 550 5 0 0 0 - - -;
#X floatatom 614 588 5 0 0 0 - - -;
#X obj 110 391 expr if ($f1 == 42 \, 1 \, 0);
#X obj 112 538 expr if ($f1 == 43 \, 1 \, 0);
#X obj 393 392 expr if ($f1 == 50 \, 1 \, 0);
#X obj 395 539 expr if ($f1 == 51 \, 1 \, 0);
#X obj 668 384 expr if ($f1 == 52 \, 1 \, 0);
#X obj 670 531 expr if ($f1 == 53 \, 1 \, 0);
#X obj 614 610 s fdo.6;
#X obj 339 618 s fdo.4;
#X obj 56 617 s fdo.2;
#X obj 55 470 s fdo.1;
#X obj 338 471 s fdo.3;
#X obj 613 463 s fdo.5;
#X floatatom 108 65 5 0 0 0 - - -;
#X obj 108 86 expr if ($f1 == 85 \, 1 \, 0);
#X obj 391 87 expr if ($f1 == 86 \, 1 \, 0);
#X obj 666 79 expr if ($f1 == 87 \, 1 \, 0);
#X obj 110 233 expr if ($f1 == 88 \, 1 \, 0);
#X obj 393 234 expr if ($f1 == 89 \, 1 \, 0);
#X obj 668 226 expr if ($f1 == 90 \, 1 \, 0);
#X obj 336 166 s fd.2;
#X obj 611 158 s fd.3;
#X obj 54 312 s fd.4;
#X obj 337 313 s fd.5;
#X connect 0 0 2 0;
#X connect 1 0 5 0;
#X connect 2 0 1 0;
#X connect 3 0 0 0;
#X connect 3 1 97 0;
#X connect 4 0 1 1;
#X connect 5 0 41 0;
#X connect 6 0 9 0;
#X connect 7 0 101 0;
#X connect 8 0 12 0;
#X connect 9 0 8 0;
#X connect 10 0 6 0;
#X connect 10 1 7 0;
#X connect 11 0 8 1;
#X connect 12 0 106 0;
#X connect 13 0 16 0;
#X connect 14 0 99 0;
#X connect 15 0 19 0;
#X connect 16 0 15 0;
#X connect 17 0 13 0;
#X connect 17 1 14 0;
#X connect 18 0 15 1;
#X connect 19 0 104 0;
#X connect 20 0 23 0;
#X connect 21 0 102 0;
#X connect 22 0 26 0;
#X connect 23 0 22 0;
#X connect 24 0 20 0;
#X connect 24 1 21 0;
#X connect 25 0 22 1;
#X connect 26 0 107 0;
#X connect 27 0 30 0;
#X connect 28 0 100 0;
#X connect 29 0 33 0;
#X connect 30 0 29 0;
#X connect 31 0 27 0;
#X connect 31 1 28 0;
#X connect 32 0 29 1;
#X connect 33 0 105 0;
#X connect 34 0 37 0;
#X connect 35 0 103 0;
#X connect 36 0 40 0;
#X connect 37 0 36 0;
#X connect 38 0 34 0;
#X connect 38 1 35 0;
#X connect 39 0 36 1;
#X connect 40 0 42 0;
#X connect 43 0 46 0;
#X connect 44 0 85 0;
#X connect 45 0 49 0;
#X connect 46 0 45 0;
#X connect 47 0 43 0;
#X connect 47 1 44 0;
#X connect 48 0 45 1;
#X connect 49 0 94 0;
#X connect 50 0 53 0;
#X connect 51 0 86 0;
#X connect 52 0 56 0;
#X connect 53 0 52 0;
#X connect 54 0 50 0;
#X connect 54 1 51 0;
#X connect 55 0 52 1;
#X connect 56 0 93 0;
#X connect 57 0 60 0;
#X connect 58 0 87 0;
#X connect 59 0 63 0;
#X connect 60 0 59 0;
#X connect 61 0 57 0;
#X connect 61 1 58 0;
#X connect 62 0 59 1;
#X connect 63 0 95 0;
#X connect 64 0 67 0;
#X connect 65 0 88 0;
#X connect 66 0 70 0;
#X connect 67 0 66 0;
#X connect 68 0 64 0;
#X connect 68 1 65 0;
#X connect 69 0 66 1;
#X connect 70 0 92 0;
#X connect 71 0 74 0;
#X connect 72 0 89 0;
#X connect 73 0 77 0;
#X connect 74 0 73 0;
#X connect 75 0 71 0;
#X connect 75 1 72 0;
#X connect 76 0 73 1;
#X connect 77 0 96 0;
#X connect 78 0 81 0;
#X connect 79 0 90 0;
#X connect 80 0 84 0;
#X connect 81 0 80 0;
#X connect 82 0 78 0;
#X connect 82 1 79 0;
#X connect 83 0 80 1;
#X connect 84 0 91 0;
#X connect 85 0 48 0;
#X connect 86 0 55 0;
#X connect 87 0 62 0;
#X connect 88 0 69 0;
#X connect 89 0 76 0;
#X connect 90 0 83 0;
#X connect 97 0 98 0;
#X connect 98 0 4 0;
#X connect 99 0 18 0;
#X connect 100 0 32 0;
#X connect 101 0 11 0;
#X connect 102 0 25 0;
#X connect 103 0 39 0;
#X restore 23 61 pd faders;
#N canvas 0 24 1104 727 fcb1010.global 0;
#X obj 42 -10 notein;
#X floatatom 42 13 5 0 0 0 - - -;
#X floatatom 78 13 5 0 0 0 - - -;
#X obj 36 106 spigot;
#X floatatom 92 90 5 0 0 0 - - -;
#X obj 92 65 expr if ($f1 == 1 \, 1 \, 0);
#X floatatom 263 284 5 0 0 0 - - -;
#X floatatom 299 285 5 0 0 0 - - -;
#X obj 263 366 spigot;
#X floatatom 313 350 5 0 0 0 - - -;
#X floatatom 263 388 5 0 0 0 - - -;
#X obj 263 261 ctlin;
#X floatatom 524 282 5 0 0 0 - - -;
#X floatatom 560 282 5 0 0 0 - - -;
#X obj 524 365 spigot;
#X floatatom 579 349 5 0 0 0 - - -;
#X floatatom 524 387 5 0 0 0 - - -;
#X obj 524 259 ctlin;
#X text 522 430 Master Volume;
#X text 261 431 Reverb Feedback;
#X obj 313 331 expr if ($f1 == 1 \, 1 \, 0);
#X obj 524 409 s mas.vol;
#X obj 263 411 s re.fe;
#X obj 78 33 sel 100;
#X obj 579 330 expr if ($f1 == 2 \, 1 \, 0);
#X floatatom 36 170 5 0 0 0 - - -;
#X text 34 213 Filter;
#X obj 36 192 s fx.s.1;
#X obj 36 127 cup;
#X obj 36 149 % 2;
#X obj 36 82 del 1;
#X obj 286 -4 notein;
#X floatatom 286 19 5 0 0 0 - - -;
#X floatatom 322 19 5 0 0 0 - - -;
#X obj 280 112 spigot;
#X floatatom 336 96 5 0 0 0 - - -;
#X obj 322 39 sel 100;
#X floatatom 280 176 5 0 0 0 - - -;
#X obj 280 133 cup;
#X obj 280 155 % 2;
#X obj 280 88 del 1;
#X text 278 219 Dist/Noise;
#X obj 280 198 s fx.s.2;
#X obj 563 -8 notein;
#X floatatom 563 15 5 0 0 0 - - -;
#X floatatom 599 15 5 0 0 0 - - -;
#X obj 557 108 spigot;
#X floatatom 613 92 5 0 0 0 - - -;
#X obj 599 35 sel 100;
#X floatatom 557 172 5 0 0 0 - - -;
#X obj 557 129 cup;
#X obj 557 151 % 2;
#X obj 557 84 del 1;
#X text 555 215 Grains;
#X obj 820 -5 notein;
#X floatatom 820 18 5 0 0 0 - - -;
#X floatatom 856 18 5 0 0 0 - - -;
#X obj 814 111 spigot;
#X floatatom 870 95 5 0 0 0 - - -;
#X obj 856 38 sel 100;
#X floatatom 814 175 5 0 0 0 - - -;
#X obj 814 132 cup;
#X obj 814 154 % 2;
#X obj 814 87 del 1;
#X text 812 218 Reverb;
#X obj 38 245 notein;
#X floatatom 38 268 5 0 0 0 - - -;
#X floatatom 74 268 5 0 0 0 - - -;
#X obj 32 361 spigot;
#X floatatom 88 345 5 0 0 0 - - -;
#X obj 74 288 sel 100;
#X floatatom 32 425 5 0 0 0 - - -;
#X obj 32 382 cup;
#X obj 32 404 % 2;
#X obj 32 337 del 1;
#X obj 32 447 s fx.s.5;
#X obj 336 71 expr if ($f1 == 2 \, 1 \, 0);
#X obj 557 194 s fx.s.3;
#X obj 613 67 expr if ($f1 == 3 \, 1 \, 0);
#X obj 870 70 expr if ($f1 == 4 \, 1 \, 0);
#X obj 88 320 expr if ($f1 == 5 \, 1 \, 0);
#X obj 814 197 s fx.s.4;
#X obj 533 505 notein;
#X floatatom 533 528 5 0 0 0 - - -;
#X floatatom 569 528 5 0 0 0 - - -;
#X obj 527 621 spigot;
#X floatatom 583 605 5 0 0 0 - - -;
#X obj 569 548 sel 100;
#X floatatom 527 685 5 0 0 0 - - -;
#X obj 527 642 cup;
#X obj 527 664 % 2;
#X obj 527 597 del 1;
#X text 525 728 contour switch;
#X obj 30 502 notein;
#X floatatom 30 525 5 0 0 0 - - -;
#X floatatom 66 525 5 0 0 0 - - -;
#X obj 24 618 spigot;
#X floatatom 80 602 5 0 0 0 - - -;
#X obj 66 545 sel 100;
#X floatatom 24 682 5 0 0 0 - - -;
#X obj 24 639 cup;
#X obj 24 661 % 2;
#X obj 24 594 del 1;
#X text 22 725 gl/solo switch;
#X obj 24 704 s gs.fcb;
#X obj 527 707 s gc.fcb;
#X obj 286 504 notein;
#X floatatom 286 527 5 0 0 0 - - -;
#X floatatom 322 527 5 0 0 0 - - -;
#X obj 280 620 spigot;
#X floatatom 336 604 5 0 0 0 - - -;
#X obj 322 547 sel 100;
#X floatatom 280 684 5 0 0 0 - - -;
#X obj 280 641 cup;
#X obj 280 663 % 2;
#X obj 280 596 del 1;
#X text 278 727 contour switch;
#X obj 280 706 s sc.fcb;
#X text 30 468 Spatial gestures/Contour on/off?;
#X obj 80 577 expr if ($f1 == 6 \, 1 \, 0);
#X obj 336 579 expr if ($f1 == 7 \, 1 \, 0);
#X obj 583 580 expr if ($f1 == 8 \, 1 \, 0);
#X text 789 685 Global grain contour;
#X obj 791 664 s ggc.fcb;
#X obj 797 461 notein;
#X floatatom 797 484 5 0 0 0 - - -;
#X floatatom 833 484 5 0 0 0 - - -;
#X obj 791 577 spigot;
#X floatatom 847 561 5 0 0 0 - - -;
#X obj 833 504 sel 100;
#X floatatom 791 641 5 0 0 0 - - -;
#X obj 791 598 cup;
#X obj 791 620 % 2;
#X obj 791 553 del 1;
#X obj 847 536 expr if ($f1 == 9 \, 1 \, 0);
#X connect 0 0 1 0;
#X connect 0 1 2 0;
#X connect 1 0 5 0;
#X connect 2 0 23 0;
#X connect 3 0 28 0;
#X connect 4 0 3 1;
#X connect 5 0 4 0;
#X connect 6 0 8 0;
#X connect 7 0 20 0;
#X connect 8 0 10 0;
#X connect 9 0 8 1;
#X connect 10 0 22 0;
#X connect 11 0 6 0;
#X connect 11 1 7 0;
#X connect 12 0 14 0;
#X connect 13 0 24 0;
#X connect 14 0 16 0;
#X connect 15 0 14 1;
#X connect 16 0 21 0;
#X connect 17 0 12 0;
#X connect 17 1 13 0;
#X connect 20 0 9 0;
#X connect 23 0 30 0;
#X connect 24 0 15 0;
#X connect 25 0 27 0;
#X connect 28 0 29 0;
#X connect 29 0 25 0;
#X connect 30 0 3 0;
#X connect 31 0 32 0;
#X connect 31 1 33 0;
#X connect 32 0 76 0;
#X connect 33 0 36 0;
#X connect 34 0 38 0;
#X connect 35 0 34 1;
#X connect 36 0 40 0;
#X connect 37 0 42 0;
#X connect 38 0 39 0;
#X connect 39 0 37 0;
#X connect 40 0 34 0;
#X connect 43 0 44 0;
#X connect 43 1 45 0;
#X connect 44 0 78 0;
#X connect 45 0 48 0;
#X connect 46 0 50 0;
#X connect 47 0 46 1;
#X connect 48 0 52 0;
#X connect 49 0 77 0;
#X connect 50 0 51 0;
#X connect 51 0 49 0;
#X connect 52 0 46 0;
#X connect 54 0 55 0;
#X connect 54 1 56 0;
#X connect 55 0 79 0;
#X connect 56 0 59 0;
#X connect 57 0 61 0;
#X connect 58 0 57 1;
#X connect 59 0 63 0;
#X connect 60 0 81 0;
#X connect 61 0 62 0;
#X connect 62 0 60 0;
#X connect 63 0 57 0;
#X connect 65 0 66 0;
#X connect 65 1 67 0;
#X connect 66 0 80 0;
#X connect 67 0 70 0;
#X connect 68 0 72 0;
#X connect 69 0 68 1;
#X connect 70 0 74 0;
#X connect 71 0 75 0;
#X connect 72 0 73 0;
#X connect 73 0 71 0;
#X connect 74 0 68 0;
#X connect 76 0 35 0;
#X connect 78 0 47 0;
#X connect 79 0 58 0;
#X connect 80 0 69 0;
#X connect 82 0 83 0;
#X connect 82 1 84 0;
#X connect 83 0 121 0;
#X connect 84 0 87 0;
#X connect 85 0 89 0;
#X connect 86 0 85 1;
#X connect 87 0 91 0;
#X connect 88 0 105 0;
#X connect 89 0 90 0;
#X connect 90 0 88 0;
#X connect 91 0 85 0;
#X connect 93 0 94 0;
#X connect 93 1 95 0;
#X connect 94 0 119 0;
#X connect 95 0 98 0;
#X connect 96 0 100 0;
#X connect 97 0 96 1;
#X connect 98 0 102 0;
#X connect 99 0 104 0;
#X connect 100 0 101 0;
#X connect 101 0 99 0;
#X connect 102 0 96 0;
#X connect 106 0 107 0;
#X connect 106 1 108 0;
#X connect 107 0 120 0;
#X connect 108 0 111 0;
#X connect 109 0 113 0;
#X connect 110 0 109 1;
#X connect 111 0 115 0;
#X connect 112 0 117 0;
#X connect 113 0 114 0;
#X connect 114 0 112 0;
#X connect 115 0 109 0;
#X connect 119 0 97 0;
#X connect 120 0 110 0;
#X connect 121 0 86 0;
#X connect 124 0 125 0;
#X connect 124 1 126 0;
#X connect 125 0 134 0;
#X connect 126 0 129 0;
#X connect 127 0 131 0;
#X connect 128 0 127 1;
#X connect 129 0 133 0;
#X connect 130 0 123 0;
#X connect 131 0 132 0;
#X connect 132 0 130 0;
#X connect 133 0 127 0;
#X connect 134 0 128 0;
#X restore 23 113 pd fcb1010.global;
#N canvas 0 24 1081 560 fcb1010.loop 0;
#X obj 60 55 notein;
#X floatatom 60 78 5 0 0 0 - - -;
#X floatatom 96 78 5 0 0 0 - - -;
#X obj 54 171 spigot;
#X floatatom 110 155 5 0 0 0 - - -;
#X obj 54 212 s lr.1;
#X obj 110 130 expr if ($f1 == 11 \, 1 \, 0);
#X obj 596 296 notein;
#X floatatom 596 319 5 0 0 0 - - -;
#X floatatom 632 319 5 0 0 0 - - -;
#X obj 590 412 spigot;
#X floatatom 646 396 5 0 0 0 - - -;
#X obj 632 339 sel 100;
#X floatatom 590 476 5 0 0 0 - - -;
#X obj 590 433 cup;
#X obj 590 388 del 1;
#X obj 590 455 % 2;
#X obj 590 498 s l.ramp.1;
#X obj 646 371 expr if ($f1 == 17 \, 1 \, 0);
#X floatatom 54 192 5 0 0 0 - - -;
#X obj 54 147 pipe 1;
#X obj 95 98 / 100;
#X obj 293 62 notein;
#X floatatom 293 85 5 0 0 0 - - -;
#X floatatom 329 85 5 0 0 0 - - -;
#X obj 287 178 spigot;
#X floatatom 343 162 5 0 0 0 - - -;
#X floatatom 287 199 5 0 0 0 - - -;
#X obj 287 154 pipe 1;
#X obj 328 105 / 100;
#X obj 287 219 s lr.2;
#X obj 343 137 expr if ($f1 == 12 \, 1 \, 0);
#X obj 536 67 notein;
#X floatatom 536 90 5 0 0 0 - - -;
#X floatatom 572 90 5 0 0 0 - - -;
#X obj 530 183 spigot;
#X floatatom 586 167 5 0 0 0 - - -;
#X floatatom 530 204 5 0 0 0 - - -;
#X obj 530 159 pipe 1;
#X obj 571 110 / 100;
#X obj 769 74 notein;
#X floatatom 769 97 5 0 0 0 - - -;
#X floatatom 805 97 5 0 0 0 - - -;
#X obj 763 190 spigot;
#X floatatom 819 174 5 0 0 0 - - -;
#X floatatom 763 211 5 0 0 0 - - -;
#X obj 763 166 pipe 1;
#X obj 804 117 / 100;
#X obj 530 224 s lr.3;
#X obj 763 231 s lr.4;
#X obj 586 142 expr if ($f1 == 13 \, 1 \, 0);
#X obj 819 149 expr if ($f1 == 14 \, 1 \, 0);
#X obj 56 270 notein;
#X floatatom 56 293 5 0 0 0 - - -;
#X floatatom 92 293 5 0 0 0 - - -;
#X obj 50 386 spigot;
#X floatatom 106 370 5 0 0 0 - - -;
#X floatatom 50 407 5 0 0 0 - - -;
#X obj 50 362 pipe 1;
#X obj 91 313 / 100;
#X obj 289 277 notein;
#X floatatom 289 300 5 0 0 0 - - -;
#X floatatom 325 300 5 0 0 0 - - -;
#X obj 283 393 spigot;
#X floatatom 339 377 5 0 0 0 - - -;
#X floatatom 283 414 5 0 0 0 - - -;
#X obj 283 369 pipe 1;
#X obj 324 320 / 100;
#X obj 50 427 s lr.5;
#X obj 283 434 s lr.6;
#X obj 106 345 expr if ($f1 == 15 \, 1 \, 0);
#X obj 339 352 expr if ($f1 == 16 \, 1 \, 0);
#X connect 0 0 1 0;
#X connect 0 1 2 0;
#X connect 1 0 6 0;
#X connect 2 0 21 0;
#X connect 3 0 19 0;
#X connect 4 0 3 1;
#X connect 6 0 4 0;
#X connect 7 0 8 0;
#X connect 7 1 9 0;
#X connect 8 0 18 0;
#X connect 9 0 12 0;
#X connect 10 0 14 0;
#X connect 11 0 10 1;
#X connect 12 0 15 0;
#X connect 13 0 17 0;
#X connect 14 0 16 0;
#X connect 15 0 10 0;
#X connect 16 0 13 0;
#X connect 18 0 11 0;
#X connect 19 0 5 0;
#X connect 20 0 3 0;
#X connect 21 0 20 0;
#X connect 22 0 23 0;
#X connect 22 1 24 0;
#X connect 23 0 31 0;
#X connect 24 0 29 0;
#X connect 25 0 27 0;
#X connect 26 0 25 1;
#X connect 27 0 30 0;
#X connect 28 0 25 0;
#X connect 29 0 28 0;
#X connect 31 0 26 0;
#X connect 32 0 33 0;
#X connect 32 1 34 0;
#X connect 33 0 50 0;
#X connect 34 0 39 0;
#X connect 35 0 37 0;
#X connect 36 0 35 1;
#X connect 37 0 48 0;
#X connect 38 0 35 0;
#X connect 39 0 38 0;
#X connect 40 0 41 0;
#X connect 40 1 42 0;
#X connect 41 0 51 0;
#X connect 42 0 47 0;
#X connect 43 0 45 0;
#X connect 44 0 43 1;
#X connect 45 0 49 0;
#X connect 46 0 43 0;
#X connect 47 0 46 0;
#X connect 50 0 36 0;
#X connect 51 0 44 0;
#X connect 52 0 53 0;
#X connect 52 1 54 0;
#X connect 53 0 70 0;
#X connect 54 0 59 0;
#X connect 55 0 57 0;
#X connect 56 0 55 1;
#X connect 57 0 68 0;
#X connect 58 0 55 0;
#X connect 59 0 58 0;
#X connect 60 0 61 0;
#X connect 60 1 62 0;
#X connect 61 0 71 0;
#X connect 62 0 67 0;
#X connect 63 0 65 0;
#X connect 64 0 63 1;
#X connect 65 0 69 0;
#X connect 66 0 63 0;
#X connect 67 0 66 0;
#X connect 70 0 56 0;
#X connect 71 0 64 0;
#X restore 23 137 pd fcb1010.loop;
#X text 88 60 banks 2 & 3 on Korg;
#X text 21 88 //Behringer FCB1010 Mapping;
#X text 21 12 //Korg Nano Mapping;
