#N canvas 183 132 431 461 10;
#X floatatom 69 162 5 0 0 0 - - -;
#X text 37 42 7 note set = 1 x 2 x 3 x 4 x 5 x 6 x 7 = 5040 possible
permutations;
#X text 35 82 4 note set = 1 x 2 x 3 x 4 = 24 possibilities;
#X text 69 179 n! - possibilities;
#X obj 35 262 coll;
#C restore;
#X obj 35 157 cup;
#X obj 35 117 tgl 15 0 empty empty empty 17 7 0 10 -262144 -1 -1 0
1;
#X obj 35 178 % 25;
#X obj 35 136 metro 150;
#X obj 35 219 bng 15 250 50 0 empty empty empty 17 7 0 10 -262144 -1
-1;
#X msg 35 238 clear;
#X obj 35 198 sel 0;
#X text 32 333 http://saliu.com/permutations.html;
#X obj 11 153 bng 15 250 50 0 empty empty empty 17 7 0 10 -262144 -1
-1;
#X text 32 352 http://betterexplained.com/articles/easy-permutations-and-combinations/
;
#X text 31 379 http://www.bearcave.com/random_hacks/permute.html;
#X obj 267 259 permute;
#X obj 267 281 unpack 0 0 0 0;
#X obj 266 307 pack 0 0 0 0 0;
#X obj 267 215 bng 15 250 50 0 empty empty empty 17 7 0 10 -262144
-1 -1;
#X msg 267 235 1 2 3 4;
#X connect 0 0 7 1;
#X connect 5 0 7 0;
#X connect 6 0 8 0;
#X connect 7 0 11 0;
#X connect 8 0 5 0;
#X connect 8 0 13 0;
#X connect 9 0 10 0;
#X connect 10 0 4 0;
#X connect 11 0 9 0;
#X connect 11 1 18 0;
#X connect 11 1 19 0;
#X connect 16 0 17 0;
#X connect 17 0 18 1;
#X connect 17 1 18 2;
#X connect 17 2 18 3;
#X connect 17 3 18 4;
#X connect 18 0 4 0;
#X connect 19 0 20 0;
#X connect 20 0 16 0;
