#N canvas 820 353 339 212 10;
#N canvas 0 22 1280 752 pc.live.matrix 0;
#X floatatom -45 -127 5 0 0 0 - - -;
#X text -147 -244 note 1;
#X text -144 -22 note 2;
#X obj -142 86 unpack 0 0 0 0 0;
#X text -57 105 pc;
#X obj -145 -144 unpack 0 0 0 0 0;
#X floatatom -142 106 5 0 0 0 - - -;
#X floatatom -76 -211 5 0 0 0 - - -;
#X msg -142 43 2;
#X floatatom -145 -123 5 0 0 0 - - -;
#X floatatom 262 105 5 0 0 0 - - -;
#X obj 141 88 unpack 0 0 0 0 0;
#X text 296 104 pcd;
#X obj 138 -142 unpack 0 0 0 0 0;
#X floatatom 141 108 5 0 0 0 - - -;
#X floatatom 250 -125 5 0 0 0 - - -;
#X floatatom 207 -209 5 0 0 0 - - -;
#X floatatom 138 -121 5 0 0 0 - - -;
#X text 136 -242 note 3;
#X text 139 -20 note 4;
#X floatatom 579 108 5 0 0 0 - - -;
#X obj 458 91 unpack 0 0 0 0 0;
#X obj 455 -139 unpack 0 0 0 0 0;
#X floatatom 458 111 5 0 0 0 - - -;
#X floatatom 567 -122 5 0 0 0 - - -;
#X floatatom 524 -206 5 0 0 0 - - -;
#X floatatom 455 -118 5 0 0 0 - - -;
#X text 453 -239 note 5;
#X text 456 -17 note 6;
#X msg 458 48 6;
#X msg 455 -183 5;
#X msg 141 45 4;
#X msg 138 -186 3;
#X floatatom -20 317 5 0 0 0 - - -;
#X obj -141 300 unpack 0 0 0 0 0;
#X floatatom -141 320 5 0 0 0 - - -;
#X text -143 192 note 7;
#X msg -141 257 7;
#X obj -142 -2 r g.i;
#X obj -145 -228 r g.i;
#X obj -141 212 r g.i;
#X obj 138 -226 r g.i;
#X obj 141 0 r g.i;
#X obj 455 -223 r g.i;
#X obj 458 3 r g.i;
#X floatatom -99 -114 5 0 0 0 - - -;
#X text -100 -77 to live input matrix;
#X obj -99 -95 s pc.live.1;
#X text 183 -83 to live input matrix;
#X floatatom 184 -120 5 0 0 0 - - -;
#X obj 184 -101 s pc.live.3;
#X text 500 -80 to live input matrix;
#X floatatom 501 -117 5 0 0 0 - - -;
#X obj 501 -98 s pc.live.5;
#X text 500 155 to live input matrix;
#X floatatom 504 112 5 0 0 0 - - -;
#X text 520 110 pc;
#X obj 504 136 s pc.live.6;
#X text 183 154 to live input matrix;
#X floatatom 187 111 5 0 0 0 - - -;
#X text 203 109 pc;
#X obj 187 135 s pc.live.4;
#X text -100 151 to live input matrix;
#X obj -96 132 s pc.live.2;
#X floatatom -96 108 5 0 0 0 - - -;
#X text -99 365 to live input matrix;
#X floatatom -95 322 5 0 0 0 - - -;
#X text -79 320 pc;
#X obj -95 346 s pc.live.7;
#X msg -145 -188 1;
#X obj 138 -207 pipe 2;
#X obj 455 -204 pipe 2;
#X obj -142 20 pipe 2;
#X obj 141 22 pipe 2;
#X obj 458 25 pipe 2;
#X obj -141 233 pipe 2;
#X obj -145 -209 pipe 2;
#X text -100 -193 allow 2ms for coll update!;
#X obj -145 -165 coll global;
#C restore;
#X obj -142 65 coll global;
#C restore;
#X obj -141 279 coll global;
#C restore;
#X obj 138 -163 coll global;
#C restore;
#X obj 141 67 coll global;
#C restore;
#X obj 455 -160 coll global;
#C restore;
#X obj 458 70 coll global;
#C restore;
#X obj 345 301 r global.reset;
#X msg 345 323 0;
#X connect 3 0 6 0;
#X connect 3 2 64 0;
#X connect 5 0 9 0;
#X connect 5 2 45 0;
#X connect 5 3 0 0;
#X connect 8 0 79 0;
#X connect 11 0 14 0;
#X connect 11 2 59 0;
#X connect 11 4 10 0;
#X connect 13 0 17 0;
#X connect 13 2 49 0;
#X connect 13 4 15 0;
#X connect 21 0 23 0;
#X connect 21 2 55 0;
#X connect 21 4 20 0;
#X connect 22 0 26 0;
#X connect 22 2 52 0;
#X connect 22 4 24 0;
#X connect 29 0 84 0;
#X connect 30 0 83 0;
#X connect 31 0 82 0;
#X connect 32 0 81 0;
#X connect 34 0 35 0;
#X connect 34 2 66 0;
#X connect 34 4 33 0;
#X connect 37 0 80 0;
#X connect 38 0 72 0;
#X connect 39 0 7 0;
#X connect 39 0 76 0;
#X connect 40 0 75 0;
#X connect 41 0 16 0;
#X connect 41 0 70 0;
#X connect 42 0 73 0;
#X connect 43 0 25 0;
#X connect 43 0 71 0;
#X connect 44 0 74 0;
#X connect 45 0 47 0;
#X connect 49 0 50 0;
#X connect 52 0 53 0;
#X connect 55 0 57 0;
#X connect 59 0 61 0;
#X connect 64 0 63 0;
#X connect 66 0 68 0;
#X connect 69 0 78 0;
#X connect 70 0 32 0;
#X connect 71 0 30 0;
#X connect 72 0 8 0;
#X connect 73 0 31 0;
#X connect 74 0 29 0;
#X connect 75 0 37 0;
#X connect 76 0 69 0;
#X connect 78 0 5 0;
#X connect 79 0 3 0;
#X connect 80 0 34 0;
#X connect 81 0 13 0;
#X connect 82 0 11 0;
#X connect 83 0 22 0;
#X connect 84 0 21 0;
#X connect 85 0 86 0;
#X connect 86 0 47 0;
#X connect 86 0 63 0;
#X connect 86 0 68 0;
#X connect 86 0 50 0;
#X connect 86 0 53 0;
#X connect 86 0 61 0;
#X connect 86 0 57 0;
#X restore 22 138 pd pc.live.matrix;
#N canvas 0 22 1280 752 matrix.color 0;
#X obj 101 -31 < 7;
#X obj 101 -14 gate 1;
#X obj 26 -14 gate 1;
#X obj 26 -66 loadbang;
#X obj 26 -31 >= 7;
#X obj 26 20 s pc.live.7;
#X obj 101 20 s pc.preset.7;
#X obj 100 100 gate 1;
#X obj 25 100 gate 1;
#X obj 25 48 loadbang;
#X obj 25 83 >= 6;
#X obj 100 83 < 6;
#X obj 100 134 s pc.preset.6;
#X obj 25 134 s pc.live.6;
#X obj 100 211 gate 1;
#X obj 25 211 gate 1;
#X obj 25 159 loadbang;
#X obj 25 194 >= 5;
#X obj 100 194 < 5;
#X obj 25 245 s pc.live.5;
#X obj 100 245 s pc.preset.5;
#X obj 26 -48 r coll.size;
#X obj 25 66 r coll.size;
#X obj 25 177 r coll.size;
#X msg 101 3 color 0;
#X msg 100 117 color 0;
#X msg 100 228 color 0;
#X msg 26 3 color 2000;
#X msg 25 117 color 2000;
#X msg 25 228 color 2000;
#X connect 0 0 1 0;
#X connect 0 0 1 1;
#X connect 1 0 24 0;
#X connect 2 0 27 0;
#X connect 3 0 27 0;
#X connect 4 0 2 0;
#X connect 4 0 2 1;
#X connect 7 0 25 0;
#X connect 8 0 28 0;
#X connect 9 0 28 0;
#X connect 10 0 8 0;
#X connect 10 0 8 1;
#X connect 11 0 7 0;
#X connect 11 0 7 1;
#X connect 14 0 26 0;
#X connect 15 0 29 0;
#X connect 16 0 29 0;
#X connect 17 0 15 0;
#X connect 17 0 15 1;
#X connect 18 0 14 0;
#X connect 18 0 14 1;
#X connect 21 0 0 0;
#X connect 21 0 4 0;
#X connect 22 0 10 0;
#X connect 22 0 11 0;
#X connect 23 0 17 0;
#X connect 23 0 18 0;
#X connect 24 0 5 0;
#X connect 24 0 6 0;
#X connect 25 0 12 0;
#X connect 25 0 13 0;
#X connect 26 0 19 0;
#X connect 26 0 20 0;
#X connect 27 0 5 0;
#X connect 27 0 6 0;
#X connect 28 0 12 0;
#X connect 28 0 13 0;
#X connect 29 0 19 0;
#X connect 29 0 20 0;
#X restore 22 163 pd matrix.color;
#N canvas 838 237 442 500 modal.structures 0;
#X msg 18 56 0;
#X msg 88 41 2;
#X msg 144 41 4;
#X msg 188 41 5;
#X msg 240 41 7;
#X msg 303 41 9;
#X msg 351 41 11;
#X text 16 4 Major - Ionian (ascending);
#X text 17 114 Melodic Minor - Ionianb3/Dorian n7 (ascending);
#X text 16 226 Melodic Minor - Altered (ascending);
#X msg 18 160 0;
#X msg 88 150 2;
#X msg 189 150 5;
#X msg 241 150 7;
#X msg 292 150 9;
#X msg 344 150 11;
#X msg 140 150 3;
#X msg 90 262 2;
#X msg 198 262 5;
#X msg 250 262 7;
#X msg 303 262 9;
#X msg 350 262 11;
#X msg 18 273 1;
#X msg 142 262 4;
#X obj 18 344 s coll.preset;
#X msg 18 325 7;
#X obj 18 24 r m.major;
#X obj 18 79 s m1;
#X obj 88 64 s m2;
#X obj 144 64 s m3;
#X obj 188 64 s m4;
#X obj 240 64 s m5;
#X obj 303 64 s m6;
#X obj 351 64 s m7;
#X obj 18 183 s m1;
#X obj 18 133 r m.minor;
#X obj 88 173 s m2;
#X obj 140 173 s m3;
#X obj 189 173 s m4;
#X obj 241 173 s m5;
#X obj 292 173 s m6;
#X obj 344 173 s m7;
#X obj 18 296 s m1;
#X obj 90 285 s m2;
#X obj 18 245 r m.altered;
#X obj 142 285 s m3;
#X obj 198 285 s m4;
#X obj 250 285 s m5;
#X obj 303 285 s m6;
#X obj 350 285 s m7;
#X connect 0 0 27 0;
#X connect 1 0 28 0;
#X connect 2 0 29 0;
#X connect 3 0 30 0;
#X connect 4 0 31 0;
#X connect 5 0 32 0;
#X connect 6 0 33 0;
#X connect 10 0 34 0;
#X connect 11 0 36 0;
#X connect 12 0 38 0;
#X connect 13 0 39 0;
#X connect 14 0 40 0;
#X connect 15 0 41 0;
#X connect 16 0 37 0;
#X connect 17 0 43 0;
#X connect 18 0 46 0;
#X connect 19 0 47 0;
#X connect 20 0 48 0;
#X connect 21 0 49 0;
#X connect 22 0 42 0;
#X connect 23 0 45 0;
#X connect 25 0 24 0;
#X connect 26 0 0 0;
#X connect 26 0 1 0;
#X connect 26 0 2 0;
#X connect 26 0 3 0;
#X connect 26 0 4 0;
#X connect 26 0 5 0;
#X connect 26 0 6 0;
#X connect 26 0 25 0;
#X connect 35 0 10 0;
#X connect 35 0 11 0;
#X connect 35 0 16 0;
#X connect 35 0 12 0;
#X connect 35 0 13 0;
#X connect 35 0 14 0;
#X connect 35 0 15 0;
#X connect 35 0 25 0;
#X connect 44 0 22 0;
#X connect 44 0 17 0;
#X connect 44 0 23 0;
#X connect 44 0 18 0;
#X connect 44 0 19 0;
#X connect 44 0 20 0;
#X connect 44 0 21 0;
#X connect 44 0 25 0;
#X restore 22 61 pd modal.structures;
#N canvas 767 132 480 443 tetra.structures 0;
#X msg 271 62 0;
#X msg 322 62 0;
#X msg 373 62 0;
#X msg 289 160 0;
#X msg 340 160 0;
#X msg 391 160 0;
#X msg 262 256 0;
#X msg 313 256 0;
#X msg 364 256 0;
#X text 31 20 Tetra - Lydian (T T S);
#X msg 278 352 0;
#X msg 329 352 0;
#X msg 380 352 0;
#X text 33 125 Tetra - Chromatic (S S T);
#X msg 37 356 0;
#X msg 111 352 1;
#X msg 151 352 3;
#X msg 205 352 5;
#X msg 37 262 0;
#X msg 116 256 2;
#X msg 171 256 3;
#X msg 222 256 5;
#X text 33 219 Tetra - Dorian (T S T);
#X msg 37 166 0;
#X msg 115 160 1;
#X msg 167 160 2;
#X msg 202 160 4;
#X msg 37 71 0;
#X msg 114 62 2;
#X msg 170 62 4;
#X msg 222 62 5;
#X text 33 315 Tetra - Phrygian (S T T);
#X obj 37 424 s coll.preset;
#X msg 37 405 4;
#X obj 245 -7 r global.reset;
#X msg 245 15 0;
#X obj 37 45 r t.lydian;
#X obj 37 94 s m1;
#X obj 114 85 s m2;
#X obj 170 85 s m3;
#X obj 222 85 s m4;
#X obj 271 85 s m5;
#X obj 322 85 s m6;
#X obj 373 85 s m7;
#X obj 37 143 r t.chromatic;
#X obj 37 189 s m1;
#X obj 115 183 s m2;
#X obj 167 183 s m3;
#X obj 202 183 s m4;
#X obj 289 183 s m5;
#X obj 340 183 s m6;
#X obj 391 183 s m7;
#X obj 37 239 r t.dorian;
#X obj 37 285 s m1;
#X obj 116 279 s m2;
#X obj 171 279 s m3;
#X obj 222 279 s m4;
#X obj 262 279 s m5;
#X obj 313 279 s m6;
#X obj 364 279 s m7;
#X obj 37 335 r t.phrygian;
#X obj 37 380 s m1;
#X obj 111 375 s m2;
#X obj 151 375 s m3;
#X obj 205 375 s m4;
#X obj 278 375 s m5;
#X obj 329 375 s m6;
#X obj 380 375 s m7;
#X connect 0 0 41 0;
#X connect 1 0 42 0;
#X connect 2 0 43 0;
#X connect 3 0 49 0;
#X connect 4 0 50 0;
#X connect 5 0 51 0;
#X connect 6 0 57 0;
#X connect 7 0 58 0;
#X connect 8 0 59 0;
#X connect 10 0 65 0;
#X connect 11 0 66 0;
#X connect 12 0 67 0;
#X connect 14 0 61 0;
#X connect 15 0 62 0;
#X connect 16 0 63 0;
#X connect 17 0 64 0;
#X connect 18 0 53 0;
#X connect 19 0 54 0;
#X connect 20 0 55 0;
#X connect 21 0 56 0;
#X connect 23 0 45 0;
#X connect 24 0 46 0;
#X connect 25 0 47 0;
#X connect 26 0 48 0;
#X connect 27 0 37 0;
#X connect 28 0 38 0;
#X connect 29 0 39 0;
#X connect 30 0 40 0;
#X connect 33 0 32 0;
#X connect 34 0 35 0;
#X connect 35 0 37 0;
#X connect 35 0 38 0;
#X connect 35 0 39 0;
#X connect 35 0 40 0;
#X connect 35 0 41 0;
#X connect 35 0 42 0;
#X connect 35 0 43 0;
#X connect 36 0 27 0;
#X connect 36 0 28 0;
#X connect 36 0 29 0;
#X connect 36 0 30 0;
#X connect 36 0 0 0;
#X connect 36 0 1 0;
#X connect 36 0 2 0;
#X connect 36 0 33 0;
#X connect 44 0 23 0;
#X connect 44 0 24 0;
#X connect 44 0 25 0;
#X connect 44 0 26 0;
#X connect 44 0 3 0;
#X connect 44 0 4 0;
#X connect 44 0 5 0;
#X connect 44 0 33 0;
#X connect 52 0 18 0;
#X connect 52 0 19 0;
#X connect 52 0 20 0;
#X connect 52 0 21 0;
#X connect 52 0 6 0;
#X connect 52 0 7 0;
#X connect 52 0 8 0;
#X connect 52 0 33 0;
#X connect 60 0 14 0;
#X connect 60 0 15 0;
#X connect 60 0 16 0;
#X connect 60 0 17 0;
#X connect 60 0 10 0;
#X connect 60 0 11 0;
#X connect 60 0 12 0;
#X connect 60 0 33 0;
#X restore 22 88 pd tetra.structures;
#N canvas 0 48 1280 752 random 1;
#X text 51 50 Random;
#X obj 52 100 bng 15 250 50 0 empty empty empty 17 7 0 10 -262144 -1
-1;
#X obj 52 169 drunk 11;
#X obj 97 140 random 11;
#X text 157 136 random step size;
#X floatatom 61 193 5 0 0 0 - - -;
#X floatatom 113 165 5 0 0 0 - - -;
#X obj 52 123 metro 200;
#X text 97 193 "staggered" output;
#X obj 52 282 drunk 11;
#X obj 97 253 random 11;
#X text 157 249 random step size;
#X floatatom 61 306 5 0 0 0 - - -;
#X floatatom 113 278 5 0 0 0 - - -;
#X text 97 306 "staggered" output;
#X obj 288 169 drunk 11;
#X obj 333 140 random 11;
#X floatatom 297 193 5 0 0 0 - - -;
#X floatatom 349 165 5 0 0 0 - - -;
#X text 333 193 "staggered" output;
#X obj 288 270 drunk 11;
#X obj 333 241 random 11;
#X floatatom 297 294 5 0 0 0 - - -;
#X floatatom 349 266 5 0 0 0 - - -;
#X text 333 294 "staggered" output;
#X obj 266 91 == 0;
#X obj 302 87 gate 1;
#X msg 302 106 0;
#X obj 194 91 cup;
#X obj 237 91 % 2;
#X msg 52 355 0;
#X obj 103 101 r global.bpm;
#X obj 52 74 r preset.random;
#X obj 52 329 s m2;
#X obj 52 216 s m1;
#X obj 52 376 s m5;
#X obj 52 397 s m6;
#X obj 52 417 s m7;
#X obj 52 437 s m8;
#X obj 288 317 s m4;
#X obj 288 216 s m3;
#X obj 194 43 loadbang;
#X connect 1 0 7 0;
#X connect 1 0 30 0;
#X connect 2 0 5 0;
#X connect 2 0 34 0;
#X connect 3 0 2 2;
#X connect 3 0 6 0;
#X connect 7 0 2 0;
#X connect 7 0 3 0;
#X connect 7 0 10 0;
#X connect 7 0 16 0;
#X connect 7 0 9 0;
#X connect 7 0 15 0;
#X connect 7 0 20 0;
#X connect 7 0 21 0;
#X connect 9 0 12 0;
#X connect 9 0 33 0;
#X connect 10 0 9 2;
#X connect 10 0 13 0;
#X connect 15 0 17 0;
#X connect 15 0 40 0;
#X connect 16 0 15 2;
#X connect 16 0 18 0;
#X connect 20 0 22 0;
#X connect 20 0 39 0;
#X connect 21 0 20 2;
#X connect 21 0 23 0;
#X connect 25 0 26 0;
#X connect 25 0 26 1;
#X connect 26 0 27 0;
#X connect 27 0 7 0;
#X connect 28 0 29 0;
#X connect 29 0 25 0;
#X connect 30 0 35 0;
#X connect 30 0 36 0;
#X connect 30 0 37 0;
#X connect 30 0 38 0;
#X connect 31 0 7 1;
#X connect 32 0 1 0;
#X connect 32 0 28 0;
#X connect 41 0 28 0;
#X restore 22 113 pd random;
#X text 21 35 //Matrix presets;
