#N canvas 515 179 621 480 10;
#X obj 104 117 timer;
#X obj 93 15 bng 15 250 50 0 empty empty empty 17 7 0 10 -262144 -1
-1;
#X obj 93 34 cup;
#X floatatom 93 76 5 0 0 0 - - -;
#X obj 93 55 % 2;
#X obj 93 92 sel 0;
#X obj 136 92 sel 1;
#X obj 193 117 timer;
#X obj 182 92 sel 1;
#X obj 225 92 sel 0;
#X msg 100 186 \$1 1000;
#X obj 100 208 line;
#X obj 233 134 average;
#X floatatom 100 228 10 0 0 0 - - -;
#X obj 100 247 i;
#X text 46 255 [on/off];
#X floatatom 104 137 5 0 0 0 - - -;
#X floatatom 193 136 5 0 0 0 - - -;
#X text 229 189 Contour Interpolation Range;
#X obj 93 -7 inlet;
#X obj 233 169 split 10 10000;
#X obj 100 295 outlet;
#X text 79 315 Solo Interpolation;
#X obj 100 270 spigot;
#X obj 133 249 tgl 15 0 \$0-21872112 no.sw empty 17 7 0 10 -262144
-1 -1 0 1;
#X connect 0 0 12 0;
#X connect 0 0 16 0;
#X connect 1 0 2 0;
#X connect 2 0 4 0;
#X connect 3 0 5 0;
#X connect 3 0 6 0;
#X connect 3 0 8 0;
#X connect 3 0 9 0;
#X connect 4 0 3 0;
#X connect 5 0 0 0;
#X connect 6 0 0 1;
#X connect 7 0 12 0;
#X connect 7 0 17 0;
#X connect 8 0 7 0;
#X connect 9 0 7 1;
#X connect 10 0 11 0;
#X connect 11 0 13 0;
#X connect 12 0 20 0;
#X connect 13 0 14 0;
#X connect 14 0 23 0;
#X connect 19 0 1 0;
#X connect 20 0 10 0;
#X connect 23 0 21 0;
#X connect 24 0 23 1;
