#N canvas 15 22 1265 752 10;
#N canvas 0 27 1280 752 string1.array 0;
#X obj 371 160 tabwrite string1;
#X floatatom 371 136 5 0 0 0 - - -;
#X text 462 89 receive index;
#X obj 103 101 hsl 65 50 0 6 0 0 \$0-91817 \$0-ph empty -2 -8 0 10
-262144 -1 -1 0 1;
#N canvas 0 22 450 300 (subpatch) 0;
#X array string1 7 float 0;
#X coords 0 1 6 0 70 50 1;
#X restore 100 101 graph;
#X obj 464 132 - 1;
#X text 642 272 index = 0 to 6;
#X obj 103 152 hsl 65 10 0 6 0 1 \$0-m1 \$0-121 mrk1 2 5 0 9 -1 -191407
-262144 0 1;
#X obj 103 164 hsl 65 10 0 6 0 1 \$0-m2 \$0-121 mrk2 2 5 0 9 -1 -191407
-262144 6400 1;
#X obj 103 176 hsl 65 10 100 10000 0 1 \$0-it ci1 it(ms) 2 5 0 9 -1
-191407 -262144 6400 1;
#X obj 654 135 spigot;
#X obj 709 120 tgl 15 0 empty scs.1 empty 17 7 0 10 -262144 -1 -1 1
1;
#X obj 178 320 / 6;
#X text 94 291 y;
#X obj 539 407 s \$0-ssc;
#X obj 92 315 r \$0-ssc;
#X obj 766 192 r \$0-it;
#X obj 665 228 r \$0-m1;
#X obj 767 232 r \$0-m2;
#X text 96 229 Scaling 0 to 1 to -1 to 1;
#X text 170 142 90;
#X text 189 141 0 - 10 x - distance;
#X text 100 210 directly apply contour to quadrant of 2D space;
#X text 172 94 45 - y - degrees;
#X obj 539 343 tabread string1;
#X obj 539 382 line;
#X text 654 69 everytime note attack detected (effective gesture -
pick of the guitar);
#X obj 178 299 r \$0-ph;
#X obj 739 214 metro;
#X obj 739 195 tgl 15 0 empty empty empty 17 7 0 10 -262144 -1 -1 0
1;
#X obj 739 244 cup;
#X obj 739 266 + 1;
#X obj 739 293 % 7;
#X floatatom 739 327 5 0 0 0 - - -;
#X obj 767 276 + 1;
#X obj 665 249 i;
#X obj 767 253 i;
#X floatatom 738 368 5 0 0 0 - - -;
#X obj 786 407 bng 15 250 50 0 empty empty empty 17 7 0 10 -262144
-1 -1;
#X obj 739 390 sel 0;
#X obj 739 348 == 1;
#X msg 786 386 -1;
#X obj 648 384 s \$0-ph;
#X obj 648 364 line;
#X text 654 39 Different approach - reading points with metro controlled
by note attack;
#N canvas 228 114 749 521 full2d 0;
#X floatatom 107 121 5 0 0 0 - - -;
#X obj 107 101 expr $f1 * (1 - -1) - 1;
#X floatatom 227 145 5 0 0 0 - - -;
#X obj 227 125 expr $f1 * (1 - -1) - 1;
#X obj 107 64 inlet;
#X obj 227 73 inlet;
#X obj 174 215 s 1_tcp_a;
#X obj 107 214 s 1_tcp_d;
#X obj 107 181 t_cartopol;
#X connect 0 0 8 0;
#X connect 1 0 0 0;
#X connect 2 0 8 1;
#X connect 3 0 2 0;
#X connect 4 0 1 0;
#X connect 5 0 3 0;
#X connect 8 0 7 0;
#X connect 8 1 6 0;
#X restore 92 349 pd full2d;
#X obj 371 115 r 1_ccv;
#X obj 464 110 r 1_i;
#X obj 654 161 sel 1 0;
#X obj 654 178 once;
#X msg 706 178 0;
#X obj 654 115 r 1_b;
#X text 94 247 [expr $f1 * ($f3-$f2) - $f2];
#X msg 539 363 \$1 150;
#X msg 648 343 \$1 150;
#X connect 1 0 0 0;
#X connect 5 0 0 1;
#X connect 10 0 48 0;
#X connect 11 0 10 1;
#X connect 12 0 45 1;
#X connect 15 0 45 0;
#X connect 16 0 28 1;
#X connect 17 0 35 0;
#X connect 18 0 36 0;
#X connect 24 0 53 0;
#X connect 25 0 14 0;
#X connect 27 0 12 0;
#X connect 28 0 30 0;
#X connect 29 0 28 0;
#X connect 30 0 31 0;
#X connect 31 0 32 0;
#X connect 32 0 33 0;
#X connect 33 0 40 0;
#X connect 33 0 24 0;
#X connect 33 0 54 0;
#X connect 34 0 32 1;
#X connect 35 0 31 1;
#X connect 36 0 34 0;
#X connect 36 0 40 1;
#X connect 37 0 39 0;
#X connect 38 0 41 0;
#X connect 39 1 38 0;
#X connect 40 0 37 0;
#X connect 41 0 30 0;
#X connect 43 0 42 0;
#X connect 46 0 1 0;
#X connect 47 0 5 0;
#X connect 48 0 49 0;
#X connect 48 1 49 1;
#X connect 48 1 50 0;
#X connect 49 0 29 0;
#X connect 50 0 29 0;
#X connect 51 0 10 0;
#X connect 53 0 25 0;
#X connect 54 0 43 0;
#X coords 0 -1 1 1 70 100 2 100 100;
#X restore 130 122 pd string1.array;
#X floatatom 206 136 8 0 0 0 - #0-ssc -;
#X floatatom 386 138 8 0 0 0 - #2-ssc -;
#X floatatom 207 258 8 0 0 0 - #3-ssc -;
#X floatatom 384 260 8 0 0 0 - #4-ssc -;
#X floatatom 209 382 8 0 0 0 - #5-ssc -;
#X floatatom 384 383 8 0 0 0 - #6-ssc -;
#X obj 206 164 tgl 9 0 scs.1 cntr.sw cntr:swtch 11 4 0 9 -162280 -262144
-1 1 1;
#X obj 386 167 tgl 9 0 scs.2 cntr.sw cntr:swtch 11 4 0 9 -162280 -262144
-1 1 1;
#X obj 207 281 tgl 9 0 scs.3 cntr.sw cntr:swtch 11 4 0 9 -162280 -262144
-1 1 1;
#X obj 384 285 tgl 9 0 scs.4 cntr.sw cntr:swtch 11 4 0 9 -162280 -262144
-1 0 1;
#X obj 209 405 tgl 9 0 scs.5 cntr.sw cntr:swtch 11 4 0 9 -162280 -262144
-1 0 1;
#X obj 384 409 tgl 9 0 scs.6 cntr.sw cntr:swtch 11 4 0 9 -162280 -262144
-1 0 1;
#X obj 245 579 r glbl.it;
#X obj 245 610 spigot;
#X obj 314 595 tgl 15 0 empty empty empty 17 7 0 10 -262144 -1 -1 0
1;
#X obj 315 575 r ci.sw;
#X obj 245 627 s ci1;
#X obj 295 627 s ci2;
#X obj 344 627 s ci3;
#X obj 400 627 s ci4;
#X obj 454 627 s ci5;
#X obj 505 627 s ci6;
#N canvas 0 48 1280 752 string1.array 0;
#X floatatom 670 102 5 0 0 0 - - -;
#X text 761 55 receive index;
#X obj 103 100 hsl 65 50 0 6 0 0 \$0-91817 \$2-ph empty -2 -8 0 10
-262144 -1 -1 0 1;
#N canvas 0 22 450 300 (subpatch) 0;
#X array string2 7 float 0;
#X coords 0 1 6 0 70 50 1;
#X restore 100 101 graph;
#X obj 763 98 - 1;
#X text 638 365 index = 0 to 6;
#X obj 103 152 hsl 65 10 0 6 0 1 \$2-m1 \$0-121 mrk1 2 5 0 9 -1 -191407
-262144 0 1;
#X obj 103 164 hsl 65 10 0 6 0 1 \$2-m2 \$0-121 mrk2 2 5 0 9 -1 -191407
-262144 6400 1;
#X obj 103 176 hsl 65 10 100 10000 0 1 \$2-it ci2 it(ms) 2 5 0 9 -1
-191407 -262144 224 1;
#X obj 159 354 / 6;
#X text 159 310 x;
#X text 99 311 y;
#X floatatom 97 361 6 0 0 0 - - -;
#X floatatom 159 378 6 0 0 1 - - -;
#X text 170 142 90;
#X text 189 141 0 - 10 x - distance;
#X text 100 199 directly apply contour to quadrant of 2D space;
#X text 172 94 45 - y - degrees;
#X obj 670 126 tabwrite string2;
#X obj 97 335 r \$2-ssc;
#X obj 159 333 r \$2-ph;
#N canvas 554 22 726 417 full2d 0;
#X floatatom 97 111 5 0 0 0 - - -;
#X obj 97 91 expr $f1 * (1 - -1) - 1;
#X floatatom 217 135 5 0 0 0 - - -;
#X obj 217 115 expr $f1 * (1 - -1) - 1;
#X obj 97 54 inlet;
#X obj 217 63 inlet;
#X obj 117 191 t_cartopol;
#X obj 117 224 s 2_tcp_d;
#X obj 184 225 s 2_tcp_a;
#X connect 0 0 6 0;
#X connect 1 0 0 0;
#X connect 2 0 6 1;
#X connect 3 0 2 0;
#X connect 4 0 1 0;
#X connect 5 0 3 0;
#X connect 6 0 7 0;
#X connect 6 1 8 0;
#X restore 97 386 pd full2d;
#X obj 670 81 r 2_ccv;
#X obj 763 76 r 2_i;
#X text 659 343 index = 0 to 6;
#X obj 671 206 spigot;
#X obj 726 191 tgl 15 0 empty scs.2 empty 17 7 0 10 -262144 -1 -1 1
1;
#X obj 556 453 line;
#X msg 556 434 \$1 150;
#X obj 756 285 metro;
#X obj 756 266 tgl 15 0 empty empty empty 17 7 0 10 -262144 -1 -1 0
1;
#X obj 756 315 cup;
#X obj 756 337 + 1;
#X obj 756 364 % 7;
#X floatatom 756 398 5 0 0 0 - - -;
#X obj 784 347 + 1;
#X obj 682 320 i;
#X obj 784 324 i;
#X floatatom 755 439 5 0 0 0 - - -;
#X obj 803 478 bng 15 250 50 0 empty empty empty 17 7 0 10 -262144
-1 -1;
#X obj 756 461 sel 0;
#X obj 756 419 == 1;
#X msg 803 457 -1;
#X obj 665 435 line;
#X msg 665 414 \$1 150;
#X obj 671 232 sel 1 0;
#X obj 671 249 once;
#X msg 723 249 0;
#X obj 556 414 tabread string2;
#X obj 783 263 r \$2-it;
#X obj 783 303 r \$2-m2;
#X obj 682 299 r \$2-m1;
#X obj 665 455 s \$2-ph;
#X obj 556 478 s \$2-ssc;
#X obj 671 186 r 2_b;
#X connect 0 0 18 0;
#X connect 4 0 18 1;
#X connect 9 0 13 0;
#X connect 9 0 21 1;
#X connect 19 0 12 0;
#X connect 19 0 21 0;
#X connect 20 0 9 0;
#X connect 22 0 0 0;
#X connect 23 0 4 0;
#X connect 25 0 45 0;
#X connect 26 0 25 1;
#X connect 27 0 53 0;
#X connect 28 0 27 0;
#X connect 29 0 31 0;
#X connect 30 0 29 0;
#X connect 31 0 32 0;
#X connect 32 0 33 0;
#X connect 33 0 34 0;
#X connect 34 0 41 0;
#X connect 34 0 44 0;
#X connect 34 0 48 0;
#X connect 35 0 33 1;
#X connect 36 0 32 1;
#X connect 37 0 35 0;
#X connect 37 0 41 1;
#X connect 38 0 40 0;
#X connect 39 0 42 0;
#X connect 40 1 39 0;
#X connect 41 0 38 0;
#X connect 42 0 31 0;
#X connect 43 0 52 0;
#X connect 44 0 43 0;
#X connect 45 0 46 0;
#X connect 45 1 46 1;
#X connect 45 1 47 0;
#X connect 46 0 30 0;
#X connect 47 0 30 0;
#X connect 48 0 28 0;
#X connect 49 0 29 1;
#X connect 50 0 37 0;
#X connect 51 0 36 0;
#X connect 54 0 25 0;
#X coords 0 -1 1 1 70 100 2 100 100;
#X restore 308 123 pd string1.array;
#X text 243 553 note offset - interpolation;
#N canvas 0 48 1280 752 string1.array 0;
#X floatatom 339 264 5 0 0 0 - - -;
#X text 430 217 receive index;
#X obj 103 101 hsl 65 50 0 6 0 0 \$0-91817 \$3-ph empty -2 -8 0 10
-262144 -1 -1 1067 1;
#N canvas 0 22 450 300 (subpatch) 0;
#X array string3 7 float 0;
#X coords 0 1 6 0 70 50 1;
#X restore 100 101 graph;
#X obj 432 260 - 1;
#X floatatom 473 255 5 0 0 0 - - -;
#X obj 103 152 hsl 65 10 0 6 0 1 \$3-m1 \$0-121 mrk1 2 5 0 9 -1 -191407
-262144 0 1;
#X obj 103 164 hsl 65 10 0 6 0 1 \$3-m2 \$0-121 mrk2 2 5 0 9 -1 -191407
-262144 6400 1;
#X obj 103 176 hsl 65 10 100 10000 0 1 \$3-it ci3 it(ms) 2 5 0 9 -1
-191407 -262144 224 1;
#X obj 181 292 / 6;
#X text 181 248 x;
#X text 97 263 y;
#X floatatom 95 310 6 0 0 0 - - -;
#X floatatom 146 309 6 0 0 1 - - -;
#X text 170 142 90;
#X text 189 141 0 - 10 x - distance;
#X text 172 94 45 - y - degrees;
#X obj 95 287 r \$3-ssc;
#X obj 181 271 r \$3-ph;
#X obj 339 288 tabwrite string3;
#X obj 473 278 s \$0-ig;
#N canvas 258 62 726 417 full2d 0;
#X floatatom 97 111 5 0 0 0 - - -;
#X obj 97 91 expr $f1 * (1 - -1) - 1;
#X floatatom 217 135 5 0 0 0 - - -;
#X obj 217 115 expr $f1 * (1 - -1) - 1;
#X obj 97 54 inlet;
#X obj 217 63 inlet;
#X obj 127 201 t_cartopol;
#X obj 127 234 s 3_tcp_d;
#X obj 194 235 s 3_tcp_a;
#X connect 0 0 6 0;
#X connect 1 0 0 0;
#X connect 2 0 6 1;
#X connect 3 0 2 0;
#X connect 4 0 1 0;
#X connect 5 0 3 0;
#X connect 6 0 7 0;
#X connect 6 1 8 0;
#X restore 95 345 pd full2d;
#X obj 339 243 r 3_ccv;
#X obj 432 238 r 3_i;
#X text 638 353 index = 0 to 6;
#X text 659 331 index = 0 to 6;
#X obj 671 194 spigot;
#X obj 726 179 tgl 15 0 empty scs.3 empty 17 7 0 10 -262144 -1 -1 1
1;
#X obj 556 441 line;
#X msg 556 422 \$1 150;
#X obj 756 273 metro;
#X obj 756 254 tgl 15 0 empty empty empty 17 7 0 10 -262144 -1 -1 0
1;
#X obj 756 303 cup;
#X obj 756 325 + 1;
#X obj 756 352 % 7;
#X floatatom 756 386 5 0 0 0 - - -;
#X obj 784 335 + 1;
#X obj 682 308 i;
#X obj 784 312 i;
#X floatatom 755 427 5 0 0 0 - - -;
#X obj 803 466 bng 15 250 50 0 empty empty empty 17 7 0 10 -262144
-1 -1;
#X obj 756 449 sel 0;
#X obj 756 407 == 1;
#X msg 803 445 -1;
#X obj 665 423 line;
#X msg 665 402 \$1 150;
#X obj 671 220 sel 1 0;
#X obj 671 237 once;
#X msg 723 237 0;
#X obj 556 466 s \$3-ssc;
#X obj 665 443 s \$3-ph;
#X obj 783 291 r \$3-m2;
#X obj 783 251 r \$3-it;
#X obj 682 287 r \$3-m1;
#X obj 556 402 tabread string3;
#X obj 671 174 r 3_b;
#X connect 0 0 19 0;
#X connect 4 0 19 1;
#X connect 9 0 13 0;
#X connect 9 0 21 1;
#X connect 17 0 12 0;
#X connect 17 0 21 0;
#X connect 18 0 9 0;
#X connect 22 0 0 0;
#X connect 23 0 4 0;
#X connect 23 0 5 0;
#X connect 26 0 46 0;
#X connect 27 0 26 1;
#X connect 28 0 49 0;
#X connect 29 0 28 0;
#X connect 30 0 32 0;
#X connect 31 0 30 0;
#X connect 32 0 33 0;
#X connect 33 0 34 0;
#X connect 34 0 35 0;
#X connect 35 0 42 0;
#X connect 35 0 45 0;
#X connect 35 0 54 0;
#X connect 36 0 34 1;
#X connect 37 0 33 1;
#X connect 38 0 36 0;
#X connect 38 0 42 1;
#X connect 39 0 41 0;
#X connect 40 0 43 0;
#X connect 41 1 40 0;
#X connect 42 0 39 0;
#X connect 43 0 32 0;
#X connect 44 0 50 0;
#X connect 45 0 44 0;
#X connect 46 0 47 0;
#X connect 46 1 47 1;
#X connect 46 1 48 0;
#X connect 47 0 31 0;
#X connect 48 0 31 0;
#X connect 51 0 38 0;
#X connect 52 0 30 1;
#X connect 53 0 37 0;
#X connect 54 0 29 0;
#X connect 55 0 26 0;
#X coords 0 -1 1 1 70 100 2 100 100;
#X restore 129 244 pd string1.array;
#N canvas 0 48 1280 752 string1.array 0;
#X floatatom 525 52 5 0 0 0 - - -;
#X text 616 5 receive index;
#X obj 103 101 hsl 65 50 0 6 0 0 \$0-91817 \$4-ph empty -2 -8 0 10
-262144 -1 -1 0 1;
#N canvas 0 22 450 300 (subpatch) 0;
#X array string4 7 float 0;
#X coords 0 1 6 0 70 50 1;
#X restore 100 101 graph;
#X obj 618 48 - 1;
#X floatatom 659 43 5 0 0 0 - - -;
#X obj 103 152 hsl 65 10 0 6 0 1 \$4-m1 \$0-121 mrk1 2 5 0 9 -1 -191407
-262144 0 1;
#X obj 103 164 hsl 65 10 0 6 0 1 \$4-m2 \$0-121 mrk2 2 5 0 9 -1 -191407
-262144 6400 1;
#X obj 103 176 hsl 65 10 100 10000 0 1 \$4-it ci4 it(ms) 2 5 0 9 -1
-191407 -262144 224 1;
#X obj 349 329 / 6;
#X text 349 285 x;
#X text 265 300 y;
#X floatatom 263 347 6 0 0 0 - - -;
#X floatatom 314 346 6 0 0 1 - - -;
#X text 170 142 90;
#X text 189 141 0 - 10 x - distance;
#X text 172 94 45 - y - degrees;
#X obj 525 76 tabwrite string4;
#X obj 263 324 r \$4-ssc;
#X obj 349 308 r \$4-ph;
#X obj 659 66 s \$0-ig;
#X obj 525 31 r 4_ccv;
#X obj 618 26 r 4_i;
#X text 638 363 index = 0 to 6;
#X text 659 341 index = 0 to 6;
#X obj 671 204 spigot;
#X obj 726 189 tgl 15 0 empty scs.4 empty 17 7 0 10 -262144 -1 -1 0
1;
#X obj 556 451 line;
#X msg 556 432 \$1 150;
#X text 760 215 everytime note attack detected (effective gesture -
pick of the guitar);
#X obj 756 283 metro;
#X obj 756 264 tgl 15 0 empty empty empty 17 7 0 10 -262144 -1 -1 0
1;
#X obj 756 313 cup;
#X obj 756 335 + 1;
#X obj 756 362 % 7;
#X floatatom 756 396 5 0 0 0 - - -;
#X obj 784 345 + 1;
#X obj 682 318 i;
#X obj 784 322 i;
#X floatatom 755 437 5 0 0 0 - - -;
#X obj 803 476 bng 15 250 50 0 empty empty empty 17 7 0 10 -262144
-1 -1;
#X obj 756 459 sel 0;
#X obj 756 417 == 1;
#X msg 803 455 -1;
#X obj 665 433 line;
#X msg 665 412 \$1 150;
#X text 760 189 Different approach - reading points with metro controlled
by note attack;
#X obj 671 230 sel 1 0;
#X obj 671 247 once;
#X msg 723 247 0;
#X obj 682 297 r \$4-m1;
#X obj 783 301 r \$4-m2;
#X obj 783 261 r \$4-it;
#X obj 556 412 tabread string4;
#X obj 665 453 s \$4-ph;
#X obj 556 476 s \$4-ssc;
#N canvas 242 57 853 530 full2d 0;
#X floatatom 107 121 5 0 0 0 - - -;
#X obj 107 101 expr $f1 * (1 - -1) - 1;
#X floatatom 227 145 5 0 0 0 - - -;
#X obj 227 125 expr $f1 * (1 - -1) - 1;
#X obj 107 64 inlet;
#X obj 227 73 inlet;
#X obj 137 211 t_cartopol;
#X obj 137 244 s 4_tcp_d;
#X obj 203 245 s 4_tcp_a;
#X connect 0 0 6 0;
#X connect 1 0 0 0;
#X connect 2 0 6 1;
#X connect 3 0 2 0;
#X connect 4 0 1 0;
#X connect 5 0 3 0;
#X connect 6 0 7 0;
#X connect 6 1 8 0;
#X restore 424 453 pd full2d;
#X obj 671 184 r 4_b;
#X connect 0 0 17 0;
#X connect 4 0 17 1;
#X connect 9 0 13 0;
#X connect 9 0 56 1;
#X connect 18 0 12 0;
#X connect 18 0 56 0;
#X connect 19 0 9 0;
#X connect 21 0 0 0;
#X connect 22 0 4 0;
#X connect 22 0 5 0;
#X connect 25 0 47 0;
#X connect 26 0 25 1;
#X connect 27 0 55 0;
#X connect 28 0 27 0;
#X connect 30 0 32 0;
#X connect 31 0 30 0;
#X connect 32 0 33 0;
#X connect 33 0 34 0;
#X connect 34 0 35 0;
#X connect 35 0 42 0;
#X connect 35 0 45 0;
#X connect 35 0 53 0;
#X connect 36 0 34 1;
#X connect 37 0 33 1;
#X connect 38 0 36 0;
#X connect 38 0 42 1;
#X connect 39 0 41 0;
#X connect 40 0 43 0;
#X connect 41 1 40 0;
#X connect 42 0 39 0;
#X connect 43 0 32 0;
#X connect 44 0 54 0;
#X connect 45 0 44 0;
#X connect 47 0 48 0;
#X connect 47 1 48 1;
#X connect 47 1 49 0;
#X connect 48 0 31 0;
#X connect 49 0 31 0;
#X connect 50 0 37 0;
#X connect 51 0 38 0;
#X connect 52 0 30 1;
#X connect 53 0 28 0;
#X connect 57 0 25 0;
#X coords 0 -1 1 1 70 100 2 100 100;
#X restore 307 242 pd string1.array;
#N canvas 0 48 1280 752 string1.array 0;
#X floatatom 523 52 5 0 0 0 - - -;
#X text 614 5 receive index;
#X obj 103 101 hsl 65 50 0 6 0 0 \$0-91817 \$5-ph empty -2 -8 0 10
-262144 -1 -1 0 1;
#N canvas 0 22 450 300 (subpatch) 0;
#X array string5 7 float 0;
#X coords 0 1 6 0 70 50 1;
#X restore 100 101 graph;
#X obj 616 48 - 1;
#X floatatom 657 43 5 0 0 0 - - -;
#X obj 103 152 hsl 65 10 0 6 0 1 \$5-m1 \$0-121 mrk1 2 5 0 9 -1 -191407
-262144 0 1;
#X obj 103 164 hsl 65 10 0 6 0 1 \$5-m2 \$0-121 mrk2 2 5 0 9 -1 -191407
-262144 6400 1;
#X obj 103 176 hsl 65 10 100 10000 0 1 \$5-it ci5 it(ms) 2 5 0 9 -1
-191407 -262144 224 1;
#X obj 349 329 / 6;
#X text 349 285 x;
#X text 265 300 y;
#X text 170 142 90;
#X text 189 141 0 - 10 x - distance;
#X text 172 94 45 - y - degrees;
#X obj 263 324 r \$5-ssc;
#X obj 349 308 r \$5-ph;
#X obj 523 76 tabwrite string5;
#X obj 657 66 s \$0-ig;
#N canvas 345 27 765 500 full2d 0;
#X floatatom 97 111 5 0 0 0 - - -;
#X obj 97 91 expr $f1 * (1 - -1) - 1;
#X floatatom 217 135 5 0 0 0 - - -;
#X obj 217 115 expr $f1 * (1 - -1) - 1;
#X obj 97 54 inlet;
#X obj 217 63 inlet;
#X obj 147 221 t_cartopol;
#X obj 147 254 s 5_tcp_d;
#X obj 214 255 s 5_tcp_a;
#X connect 0 0 6 0;
#X connect 1 0 0 0;
#X connect 2 0 6 1;
#X connect 3 0 2 0;
#X connect 4 0 1 0;
#X connect 5 0 3 0;
#X connect 6 0 7 0;
#X connect 6 1 8 0;
#X restore 379 443 pd full2d;
#X obj 523 31 r 5_ccv;
#X obj 616 26 r 5_i;
#X text 638 361 index = 0 to 6;
#X text 659 339 index = 0 to 6;
#X obj 671 202 spigot;
#X obj 726 187 tgl 15 0 empty scs.5 empty 17 7 0 10 -262144 -1 -1 0
1;
#X obj 556 449 line;
#X msg 556 430 \$1 150;
#X text 760 213 everytime note attack detected (effective gesture -
pick of the guitar);
#X obj 756 281 metro;
#X obj 756 262 tgl 15 0 empty empty empty 17 7 0 10 -262144 -1 -1 0
1;
#X obj 756 311 cup;
#X obj 756 333 + 1;
#X obj 756 360 % 7;
#X floatatom 756 394 5 0 0 0 - - -;
#X obj 784 343 + 1;
#X obj 682 316 i;
#X obj 784 320 i;
#X floatatom 755 435 5 0 0 0 - - -;
#X obj 803 474 bng 15 250 50 0 empty empty empty 17 7 0 10 -262144
-1 -1;
#X obj 756 457 sel 0;
#X obj 756 415 == 1;
#X msg 803 453 -1;
#X obj 665 431 line;
#X msg 665 410 \$1 150;
#X text 760 187 Different approach - reading points with metro controlled
by note attack;
#X obj 671 228 sel 1 0;
#X obj 671 245 once;
#X msg 723 245 0;
#X obj 783 259 r \$5-it;
#X obj 783 299 r \$5-m2;
#X obj 682 295 r \$5-m1;
#X obj 556 410 tabread string5;
#X obj 665 451 s \$5-ph;
#X obj 556 474 s \$5-ssc;
#X obj 671 182 r 5_b;
#X connect 0 0 17 0;
#X connect 4 0 17 1;
#X connect 9 0 19 1;
#X connect 15 0 19 0;
#X connect 16 0 9 0;
#X connect 20 0 0 0;
#X connect 21 0 4 0;
#X connect 21 0 5 0;
#X connect 24 0 46 0;
#X connect 25 0 24 1;
#X connect 26 0 54 0;
#X connect 27 0 26 0;
#X connect 29 0 31 0;
#X connect 30 0 29 0;
#X connect 31 0 32 0;
#X connect 32 0 33 0;
#X connect 33 0 34 0;
#X connect 34 0 41 0;
#X connect 34 0 44 0;
#X connect 34 0 52 0;
#X connect 35 0 33 1;
#X connect 36 0 32 1;
#X connect 37 0 35 0;
#X connect 37 0 41 1;
#X connect 38 0 40 0;
#X connect 39 0 42 0;
#X connect 40 1 39 0;
#X connect 41 0 38 0;
#X connect 42 0 31 0;
#X connect 43 0 53 0;
#X connect 44 0 43 0;
#X connect 46 0 47 0;
#X connect 46 1 47 1;
#X connect 46 1 48 0;
#X connect 47 0 30 0;
#X connect 48 0 30 0;
#X connect 49 0 29 1;
#X connect 50 0 37 0;
#X connect 51 0 36 0;
#X connect 52 0 27 0;
#X connect 55 0 24 0;
#X coords 0 -1 1 1 70 100 2 100 100;
#X restore 130 368 pd string1.array;
#N canvas 0 48 1280 752 string1.array 0;
#X floatatom 524 58 5 0 0 0 - - -;
#X text 615 11 receive index;
#X obj 103 101 hsl 65 50 0 6 0 0 \$0-91817 \$6-ph empty -2 -8 0 10
-262144 -1 -1 0 1;
#N canvas 0 22 450 300 (subpatch) 0;
#X array string6 7 float 0;
#X coords 0 1 6 0 70 50 1;
#X restore 100 101 graph;
#X obj 617 54 - 1;
#X floatatom 658 49 5 0 0 0 - - -;
#X obj 103 152 hsl 65 10 0 6 0 1 \$6-m1 \$0-121 mrk1 2 5 0 9 -1 -191407
-262144 0 1;
#X obj 103 164 hsl 65 10 0 6 0 1 \$6-m2 \$0-121 mrk2 2 5 0 9 -1 -191407
-262144 6400 1;
#X obj 103 176 hsl 65 10 100 10000 0 1 \$6-it ci6 it(ms) 2 5 0 9 -1
-191407 -262144 224 1;
#X obj 349 329 / 6;
#X text 349 285 x;
#X text 265 300 y;
#X text 100 34 Scaling 0 to 1 to -1 to 1;
#X text 170 142 90;
#X text 189 141 0 - 10 x - distance;
#X text 172 94 45 - y - degrees;
#X text 353 412 to degrees;
#X obj 263 324 r \$6-ssc;
#X obj 349 308 r \$6-ph;
#X obj 524 82 tabwrite string6;
#X obj 658 72 s \$0-ig;
#X text 107 55 expr $f1 * (1 - -1) - 1;
#N canvas 272 49 747 520 full2d 0;
#X floatatom 97 111 5 0 0 0 - - -;
#X obj 97 91 expr $f1 * (1 - -1) - 1;
#X floatatom 217 135 5 0 0 0 - - -;
#X obj 217 115 expr $f1 * (1 - -1) - 1;
#X obj 97 54 inlet;
#X obj 217 63 inlet;
#X obj 160 188 t_cartopol;
#X obj 160 221 s 6_tcp_d;
#X obj 227 222 s 6_tcp_a;
#X connect 0 0 6 0;
#X connect 1 0 0 0;
#X connect 2 0 6 1;
#X connect 3 0 2 0;
#X connect 4 0 1 0;
#X connect 5 0 3 0;
#X connect 6 0 7 0;
#X connect 6 1 8 0;
#X restore 372 446 pd full2d;
#X obj 524 37 r 6_ccv;
#X obj 617 32 r 6_i;
#X text 616 316 index = 0 to 6;
#X text 637 294 index = 0 to 6;
#X obj 649 157 spigot;
#X obj 704 142 tgl 15 0 empty scs.6 empty 17 7 0 10 -262144 -1 -1 0
1;
#X obj 534 404 line;
#X msg 534 385 \$1 150;
#X text 738 168 everytime note attack detected (effective gesture -
pick of the guitar);
#X obj 734 236 metro;
#X obj 734 217 tgl 15 0 empty empty empty 17 7 0 10 -262144 -1 -1 0
1;
#X obj 734 266 cup;
#X obj 734 288 + 1;
#X obj 734 315 % 7;
#X floatatom 734 349 5 0 0 0 - - -;
#X obj 762 298 + 1;
#X obj 660 271 i;
#X obj 762 275 i;
#X floatatom 733 390 5 0 0 0 - - -;
#X obj 781 429 bng 15 250 50 0 empty empty empty 17 7 0 10 -262144
-1 -1;
#X obj 734 412 sel 0;
#X obj 734 370 == 1;
#X msg 781 408 -1;
#X obj 643 386 line;
#X msg 643 365 \$1 150;
#X text 738 142 Different approach - reading points with metro controlled
by note attack;
#X obj 649 183 sel 1 0;
#X obj 649 200 once;
#X msg 701 200 0;
#X obj 534 429 s \$6-ssc;
#X obj 643 406 s \$6-ph;
#X obj 534 365 tabread string6;
#X obj 660 250 r \$6-m1;
#X obj 761 214 r \$6-it;
#X obj 761 254 r \$6-m2;
#X obj 649 137 r 6_b;
#X connect 0 0 19 0;
#X connect 4 0 19 1;
#X connect 9 0 22 1;
#X connect 17 0 22 0;
#X connect 18 0 9 0;
#X connect 23 0 0 0;
#X connect 24 0 4 0;
#X connect 24 0 5 0;
#X connect 27 0 49 0;
#X connect 28 0 27 1;
#X connect 29 0 52 0;
#X connect 30 0 29 0;
#X connect 32 0 34 0;
#X connect 33 0 32 0;
#X connect 34 0 35 0;
#X connect 35 0 36 0;
#X connect 36 0 37 0;
#X connect 37 0 44 0;
#X connect 37 0 47 0;
#X connect 37 0 54 0;
#X connect 38 0 36 1;
#X connect 39 0 35 1;
#X connect 40 0 38 0;
#X connect 40 0 44 1;
#X connect 41 0 43 0;
#X connect 42 0 45 0;
#X connect 43 1 42 0;
#X connect 44 0 41 0;
#X connect 45 0 34 0;
#X connect 46 0 53 0;
#X connect 47 0 46 0;
#X connect 49 0 50 0;
#X connect 49 1 50 1;
#X connect 49 1 51 0;
#X connect 50 0 33 0;
#X connect 51 0 33 0;
#X connect 54 0 30 0;
#X connect 55 0 39 0;
#X connect 56 0 32 1;
#X connect 57 0 40 0;
#X connect 58 0 27 0;
#X coords 0 -1 1 1 70 100 2 100 100;
#X restore 306 367 pd string1.array;
#X obj 305 477 tgl 9 0 ci.sw \$0-232332 glbl.interp.time 11 4 0 9 -162280
-262144 -1 0 1;
#X connect 13 0 14 0;
#X connect 14 0 17 0;
#X connect 14 0 18 0;
#X connect 14 0 19 0;
#X connect 14 0 20 0;
#X connect 14 0 21 0;
#X connect 14 0 22 0;
#X connect 15 0 14 1;
#X connect 16 0 15 0;
#X coords 0 -1 1 1 400 400 2 100 100;
