#N canvas 631 356 1288 469 10;
#X text 917 286 I / O;
#X text 917 301 I/O PATTERNS;
#X text 916 316 info@iopatterns.com;
#X obj 36 -37 cnv 15 200 20 empty empty 4_Track_Looper 20 12 0 14 -203904
-66577 0;
#X obj 35 199 cnv 15 650 60 empty empty empty 20 12 0 14 -203904 -66577
0;
#X obj 35 42 cnv 15 650 150 empty empty empty 20 12 0 14 -203904 -66577
0;
#N canvas 813 496 450 300 set_midi 0;
#X msg 101 122 set \$1;
#X floatatom 101 101 5 0 0 0 - - -;
#X obj 23 122 r lb;
#X obj 101 79 change;
#X obj 135 102 tgl 15 0 empty empty empty 17 7 0 10 -262144 -1 -1 0
1;
#X obj 181 36 r midi;
#X obj 181 58 spigot;
#X obj 181 84 t f b;
#X msg 232 101 0;
#X obj 101 157 s r1;
#X msg 71 140 44;
#X obj 268 41 r knob;
#X text 76 193 The number atom contains the MIDI note or control number
that is used to manage the parameter this subpatch is related to \,
via its send object at the bottom of this mini arrange. This subpatch
also enables the automatic learning of the number by turning the toggle
on and pressing of moving a control in the MIDI surface. Then the number
is stored and the toggle turned off automatically.;
#X connect 0 0 10 0;
#X connect 1 0 0 0;
#X connect 1 0 9 0;
#X connect 2 0 10 0;
#X connect 3 0 1 0;
#X connect 4 0 6 1;
#X connect 5 0 6 0;
#X connect 6 0 7 0;
#X connect 7 0 1 0;
#X connect 7 1 8 0;
#X connect 8 0 4 0;
#X connect 10 0 3 0;
#X connect 10 0 9 0;
#X connect 11 0 6 0;
#X coords 0 -1 1 1 51 18 2 100 100;
#X restore 276 70 pd set_midi;
#N canvas 813 496 450 300 set_midi 0;
#X msg 101 122 set \$1;
#X msg 71 140 36;
#X floatatom 101 101 5 0 0 0 - - -;
#X obj 23 122 r lb;
#X obj 101 79 change;
#X obj 135 102 tgl 15 0 empty empty empty 17 7 0 10 -262144 -1 -1 0
1;
#X obj 181 36 r midi;
#X obj 181 58 spigot;
#X obj 181 84 t f b;
#X msg 232 101 0;
#X obj 101 157 s p1;
#X obj 261 41 r knob;
#X text 61 177 The number atom contains the MIDI note or control number
that is used to manage the parameter this subpatch is related to \,
via its send object at the bottom of this mini arrange. This subpatch
also enables the automatic learning of the number by turning the toggle
on and pressing of moving a control in the MIDI surface. Then the number
is stored and the toggle turned off automatically.;
#X connect 0 0 1 0;
#X connect 1 0 4 0;
#X connect 1 0 10 0;
#X connect 2 0 0 0;
#X connect 2 0 10 0;
#X connect 3 0 1 0;
#X connect 4 0 2 0;
#X connect 5 0 7 1;
#X connect 6 0 7 0;
#X connect 7 0 8 0;
#X connect 8 0 2 0;
#X connect 8 1 9 0;
#X connect 9 0 5 0;
#X connect 11 0 7 0;
#X coords 0 -1 1 1 51 18 2 100 100;
#X restore 369 70 pd set_midi;
#N canvas 813 496 450 300 set_midi 0;
#X msg 101 122 set \$1;
#X msg 71 140 45;
#X floatatom 101 101 5 0 0 0 - - -;
#X obj 23 122 r lb;
#X obj 101 79 change;
#X obj 135 102 tgl 15 0 empty empty empty 17 7 0 10 -262144 -1 -1 0
1;
#X obj 181 36 r midi;
#X obj 181 58 spigot;
#X obj 181 84 t f b;
#X msg 232 101 0;
#X obj 101 157 s r2;
#X obj 242 41 r knob;
#X text 74 183 The number atom contains the MIDI note or control number
that is used to manage the parameter this subpatch is related to \,
via its send object at the bottom of this mini arrange. This subpatch
also enables the automatic learning of the number by turning the toggle
on and pressing of moving a control in the MIDI surface. Then the number
is stored and the toggle turned off automatically.;
#X connect 0 0 1 0;
#X connect 1 0 4 0;
#X connect 1 0 10 0;
#X connect 2 0 0 0;
#X connect 2 0 10 0;
#X connect 3 0 1 0;
#X connect 4 0 2 0;
#X connect 5 0 7 1;
#X connect 6 0 7 0;
#X connect 7 0 8 0;
#X connect 8 0 2 0;
#X connect 8 1 9 0;
#X connect 9 0 5 0;
#X connect 11 0 7 0;
#X coords 0 -1 1 1 51 18 2 100 100;
#X restore 276 98 pd set_midi;
#N canvas 813 496 450 300 set_midi 0;
#X msg 101 122 set \$1;
#X msg 71 140 37;
#X floatatom 101 101 5 0 0 0 - - -;
#X obj 23 122 r lb;
#X obj 101 79 change;
#X obj 135 102 tgl 15 0 empty empty empty 17 7 0 10 -262144 -1 -1 0
1;
#X obj 181 36 r midi;
#X obj 181 58 spigot;
#X obj 181 84 t f b;
#X msg 232 101 0;
#X obj 101 157 s p2;
#X obj 257 41 r knob;
#X text 59 187 The number atom contains the MIDI note or control number
that is used to manage the parameter this subpatch is related to \,
via its send object at the bottom of this mini arrange. This subpatch
also enables the automatic learning of the number by turning the toggle
on and pressing of moving a control in the MIDI surface. Then the number
is stored and the toggle turned off automatically.;
#X connect 0 0 1 0;
#X connect 1 0 4 0;
#X connect 1 0 10 0;
#X connect 2 0 0 0;
#X connect 2 0 10 0;
#X connect 3 0 1 0;
#X connect 4 0 2 0;
#X connect 5 0 7 1;
#X connect 6 0 7 0;
#X connect 7 0 8 0;
#X connect 8 0 2 0;
#X connect 8 1 9 0;
#X connect 9 0 5 0;
#X connect 11 0 7 0;
#X coords 0 -1 1 1 51 18 2 100 100;
#X restore 369 98 pd set_midi;
#N canvas 813 496 450 300 set_midi 0;
#X msg 101 122 set \$1;
#X msg 71 140 46;
#X floatatom 101 101 5 0 0 0 - - -;
#X obj 23 122 r lb;
#X obj 101 79 change;
#X obj 135 102 tgl 15 0 empty empty empty 17 7 0 10 -262144 -1 -1 0
1;
#X obj 181 36 r midi;
#X obj 181 58 spigot;
#X obj 181 84 t f b;
#X msg 232 101 0;
#X obj 101 157 s r3;
#X obj 274 41 r knob;
#X text 90 177 The number atom contains the MIDI note or control number
that is used to manage the parameter this subpatch is related to \,
via its send object at the bottom of this mini arrange. This subpatch
also enables the automatic learning of the number by turning the toggle
on and pressing of moving a control in the MIDI surface. Then the number
is stored and the toggle turned off automatically.;
#X connect 0 0 1 0;
#X connect 1 0 4 0;
#X connect 1 0 10 0;
#X connect 2 0 0 0;
#X connect 2 0 10 0;
#X connect 3 0 1 0;
#X connect 4 0 2 0;
#X connect 5 0 7 1;
#X connect 6 0 7 0;
#X connect 7 0 8 0;
#X connect 8 0 2 0;
#X connect 8 1 9 0;
#X connect 9 0 5 0;
#X connect 11 0 7 0;
#X coords 0 -1 1 1 51 18 2 100 100;
#X restore 276 126 pd set_midi;
#N canvas 813 496 450 300 set_midi 0;
#X msg 101 122 set \$1;
#X msg 71 140 38;
#X floatatom 101 101 5 0 0 0 - - -;
#X obj 23 122 r lb;
#X obj 101 79 change;
#X obj 135 102 tgl 15 0 empty empty empty 17 7 0 10 -262144 -1 -1 0
1;
#X obj 181 36 r midi;
#X obj 181 58 spigot;
#X obj 181 84 t f b;
#X msg 232 101 0;
#X obj 101 157 s p3;
#X obj 251 41 r knob;
#X text 58 178 The number atom contains the MIDI note or control number
that is used to manage the parameter this subpatch is related to \,
via its send object at the bottom of this mini arrange. This subpatch
also enables the automatic learning of the number by turning the toggle
on and pressing of moving a control in the MIDI surface. Then the number
is stored and the toggle turned off automatically.;
#X connect 0 0 1 0;
#X connect 1 0 4 0;
#X connect 1 0 10 0;
#X connect 2 0 0 0;
#X connect 2 0 10 0;
#X connect 3 0 1 0;
#X connect 4 0 2 0;
#X connect 5 0 7 1;
#X connect 6 0 7 0;
#X connect 7 0 8 0;
#X connect 8 0 2 0;
#X connect 8 1 9 0;
#X connect 9 0 5 0;
#X connect 11 0 7 0;
#X coords 0 -1 1 1 51 18 2 100 100;
#X restore 369 126 pd set_midi;
#N canvas 813 496 450 300 set_midi 0;
#X msg 101 122 set \$1;
#X msg 71 140 47;
#X floatatom 101 101 5 0 0 0 - - -;
#X obj 23 122 r lb;
#X obj 101 79 change;
#X obj 135 102 tgl 15 0 empty empty empty 17 7 0 10 -262144 -1 -1 0
1;
#X obj 181 36 r midi;
#X obj 181 58 spigot;
#X obj 181 84 t f b;
#X msg 232 101 0;
#X obj 101 157 s r4;
#X obj 267 41 r knob;
#X text 83 175 The number atom contains the MIDI note or control number
that is used to manage the parameter this subpatch is related to \,
via its send object at the bottom of this mini arrange. This subpatch
also enables the automatic learning of the number by turning the toggle
on and pressing of moving a control in the MIDI surface. Then the number
is stored and the toggle turned off automatically.;
#X connect 0 0 1 0;
#X connect 1 0 4 0;
#X connect 1 0 10 0;
#X connect 2 0 0 0;
#X connect 2 0 10 0;
#X connect 3 0 1 0;
#X connect 4 0 2 0;
#X connect 5 0 7 1;
#X connect 6 0 7 0;
#X connect 7 0 8 0;
#X connect 8 0 2 0;
#X connect 8 1 9 0;
#X connect 9 0 5 0;
#X connect 11 0 7 0;
#X coords 0 -1 1 1 51 18 2 100 100;
#X restore 277 155 pd set_midi;
#N canvas 813 496 450 300 set_midi 0;
#X msg 101 122 set \$1;
#X msg 71 140 39;
#X floatatom 101 101 5 0 0 0 - - -;
#X obj 23 122 r lb;
#X obj 101 79 change;
#X obj 135 102 tgl 15 0 empty empty empty 17 7 0 10 -262144 -1 -1 0
1;
#X obj 181 36 r midi;
#X obj 181 58 spigot;
#X obj 181 84 t f b;
#X msg 232 101 0;
#X obj 101 157 s p4;
#X obj 259 41 r knob;
#X text 65 181 The number atom contains the MIDI note or control number
that is used to manage the parameter this subpatch is related to \,
via its send object at the bottom of this mini arrange. This subpatch
also enables the automatic learning of the number by turning the toggle
on and pressing of moving a control in the MIDI surface. Then the number
is stored and the toggle turned off automatically.;
#X connect 0 0 1 0;
#X connect 1 0 4 0;
#X connect 1 0 10 0;
#X connect 2 0 0 0;
#X connect 2 0 10 0;
#X connect 3 0 1 0;
#X connect 4 0 2 0;
#X connect 5 0 7 1;
#X connect 6 0 7 0;
#X connect 7 0 8 0;
#X connect 8 0 2 0;
#X connect 8 1 9 0;
#X connect 9 0 5 0;
#X connect 11 0 7 0;
#X coords 0 -1 1 1 51 18 2 100 100;
#X restore 369 155 pd set_midi;
#N canvas 813 496 450 300 set_midi 0;
#X msg 101 122 set \$1;
#X msg 71 140 48;
#X floatatom 101 101 5 0 0 0 - - -;
#X obj 23 122 r lb;
#X obj 101 79 change;
#X obj 135 102 tgl 15 0 empty empty empty 17 7 0 10 -262144 -1 -1 0
1;
#X obj 181 36 r midi;
#X obj 181 58 spigot;
#X obj 181 84 t f b;
#X msg 232 101 0;
#X obj 101 157 s rm;
#X obj 268 41 r knob;
#X text 70 186 The number atom contains the MIDI note or control number
that is used to manage the parameter this subpatch is related to \,
via its send object at the bottom of this mini arrange. This subpatch
also enables the automatic learning of the number by turning the toggle
on and pressing of moving a control in the MIDI surface. Then the number
is stored and the toggle turned off automatically.;
#X connect 0 0 1 0;
#X connect 1 0 4 0;
#X connect 1 0 10 0;
#X connect 2 0 0 0;
#X connect 2 0 10 0;
#X connect 3 0 1 0;
#X connect 4 0 2 0;
#X connect 5 0 7 1;
#X connect 6 0 7 0;
#X connect 7 0 8 0;
#X connect 8 0 2 0;
#X connect 8 1 9 0;
#X connect 9 0 5 0;
#X connect 11 0 7 0;
#X coords 0 -1 1 1 51 18 2 100 100;
#X restore 278 204 pd set_midi;
#N canvas 813 496 450 300 set_midi 0;
#X msg 101 122 set \$1;
#X msg 71 140 40;
#X floatatom 101 101 5 0 0 0 - - -;
#X obj 23 122 r lb;
#X obj 101 79 change;
#X obj 135 102 tgl 15 0 empty empty empty 17 7 0 10 -262144 -1 -1 0
1;
#X obj 181 36 r midi;
#X obj 181 58 spigot;
#X obj 181 84 t f b;
#X msg 232 101 0;
#X obj 101 157 s pm;
#X obj 243 41 r knob;
#X text 61 188 The number atom contains the MIDI note or control number
that is used to manage the parameter this subpatch is related to \,
via its send object at the bottom of this mini arrange. This subpatch
also enables the automatic learning of the number by turning the toggle
on and pressing of moving a control in the MIDI surface. Then the number
is stored and the toggle turned off automatically.;
#X connect 0 0 1 0;
#X connect 1 0 4 0;
#X connect 1 0 10 0;
#X connect 2 0 0 0;
#X connect 2 0 10 0;
#X connect 3 0 1 0;
#X connect 4 0 2 0;
#X connect 5 0 7 1;
#X connect 6 0 7 0;
#X connect 7 0 8 0;
#X connect 8 0 2 0;
#X connect 8 1 9 0;
#X connect 9 0 5 0;
#X connect 11 0 7 0;
#X coords 0 -1 1 1 51 18 2 100 100;
#X restore 369 204 pd set_midi;
#N canvas 813 496 450 300 set_midi 0;
#X msg 101 122 set \$1;
#X msg 71 140 10;
#X floatatom 101 101 5 0 0 0 - - -;
#X obj 23 122 r lb;
#X obj 101 79 change;
#X obj 135 102 tgl 15 0 empty empty empty 17 7 0 10 -262144 -1 -1 0
1;
#X obj 181 36 r midi;
#X obj 181 58 spigot;
#X obj 181 84 t f b;
#X msg 232 101 0;
#X obj 101 157 s v1;
#X obj 236 41 r knob;
#X text 48 184 The number atom contains the MIDI note or control number
that is used to manage the parameter this subpatch is related to \,
via its send object at the bottom of this mini arrange. This subpatch
also enables the automatic learning of the number by turning the toggle
on and pressing of moving a control in the MIDI surface. Then the number
is stored and the toggle turned off automatically.;
#X connect 0 0 1 0;
#X connect 1 0 4 0;
#X connect 1 0 10 0;
#X connect 2 0 0 0;
#X connect 2 0 10 0;
#X connect 3 0 1 0;
#X connect 4 0 2 0;
#X connect 5 0 7 1;
#X connect 6 0 7 0;
#X connect 7 0 8 0;
#X connect 8 0 2 0;
#X connect 8 1 9 0;
#X connect 9 0 5 0;
#X connect 11 0 7 0;
#X coords 0 -1 1 1 51 18 2 100 100;
#X restore 602 69 pd set_midi;
#N canvas 813 496 450 300 set_midi 0;
#X msg 101 122 set \$1;
#X msg 71 140 74;
#X floatatom 101 101 5 0 0 0 - - -;
#X obj 23 122 r lb;
#X obj 101 79 change;
#X obj 135 102 tgl 15 0 empty empty empty 17 7 0 10 -262144 -1 -1 0
1;
#X obj 181 36 r midi;
#X obj 181 58 spigot;
#X obj 181 84 t f b;
#X msg 232 101 0;
#X obj 101 157 s v2;
#X obj 242 41 r knob;
#X text 42 177 The number atom contains the MIDI note or control number
that is used to manage the parameter this subpatch is related to \,
via its send object at the bottom of this mini arrange. This subpatch
also enables the automatic learning of the number by turning the toggle
on and pressing of moving a control in the MIDI surface. Then the number
is stored and the toggle turned off automatically.;
#X connect 0 0 1 0;
#X connect 1 0 4 0;
#X connect 1 0 10 0;
#X connect 2 0 0 0;
#X connect 2 0 10 0;
#X connect 3 0 1 0;
#X connect 4 0 2 0;
#X connect 5 0 7 1;
#X connect 6 0 7 0;
#X connect 7 0 8 0;
#X connect 8 0 2 0;
#X connect 8 1 9 0;
#X connect 9 0 5 0;
#X connect 11 0 7 0;
#X coords 0 -1 1 1 51 18 2 100 100;
#X restore 602 98 pd set_midi;
#N canvas 1153 309 450 300 set_midi 0;
#X msg 101 122 set \$1;
#X msg 71 140 71;
#X floatatom 101 101 5 0 0 0 - - -;
#X obj 23 122 r lb;
#X obj 101 79 change;
#X obj 135 102 tgl 15 0 empty empty empty 17 7 0 10 -262144 -1 -1 0
1;
#X obj 181 36 r midi;
#X obj 181 58 spigot;
#X obj 181 84 t f b;
#X msg 232 101 0;
#X obj 101 157 s v3;
#X obj 252 41 r knob;
#X text 45 182 The number atom contains the MIDI note or control number
that is used to manage the parameter this subpatch is related to \,
via its send object at the bottom of this mini arrange. This subpatch
also enables the automatic learning of the number by turning the toggle
on and pressing of moving a control in the MIDI surface. Then the number
is stored and the toggle turned off automatically.;
#X connect 0 0 1 0;
#X connect 1 0 4 0;
#X connect 1 0 10 0;
#X connect 2 0 0 0;
#X connect 2 0 10 0;
#X connect 3 0 1 0;
#X connect 4 0 2 0;
#X connect 5 0 7 1;
#X connect 6 0 7 0;
#X connect 7 0 8 0;
#X connect 8 0 2 0;
#X connect 8 1 9 0;
#X connect 9 0 5 0;
#X connect 11 0 7 0;
#X coords 0 -1 1 1 51 18 2 100 100;
#X restore 602 127 pd set_midi;
#N canvas 1078 475 450 300 set_midi 0;
#X msg 101 122 set \$1;
#X msg 71 140 76;
#X floatatom 101 101 5 0 0 0 - - -;
#X obj 23 122 r lb;
#X obj 101 79 change;
#X obj 135 102 tgl 15 0 empty empty empty 17 7 0 10 -262144 -1 -1 0
1;
#X obj 181 36 r midi;
#X obj 181 58 spigot;
#X obj 181 84 t f b;
#X msg 232 101 0;
#X obj 101 157 s v4;
#X obj 250 41 r knob;
#X text 45 181 The number atom contains the MIDI note or control number
that is used to manage the parameter this subpatch is related to \,
via its send object at the bottom of this mini arrange. This subpatch
also enables the automatic learning of the number by turning the toggle
on and pressing of moving a control in the MIDI surface. Then the number
is stored and the toggle turned off automatically.;
#X connect 0 0 1 0;
#X connect 1 0 4 0;
#X connect 1 0 10 0;
#X connect 2 0 0 0;
#X connect 2 0 10 0;
#X connect 3 0 1 0;
#X connect 4 0 2 0;
#X connect 5 0 7 1;
#X connect 6 0 7 0;
#X connect 7 0 8 0;
#X connect 8 0 2 0;
#X connect 8 1 9 0;
#X connect 9 0 5 0;
#X connect 11 0 7 0;
#X coords 0 -1 1 1 51 18 2 100 100;
#X restore 602 156 pd set_midi;
#N canvas 813 496 450 300 set_midi 0;
#X msg 101 122 set \$1;
#X msg 71 140 77;
#X floatatom 101 101 5 0 0 0 - - -;
#X obj 23 122 r lb;
#X obj 101 79 change;
#X obj 135 102 tgl 15 0 empty empty empty 17 7 0 10 -262144 -1 -1 0
1;
#X obj 181 36 r midi;
#X obj 181 58 spigot;
#X obj 181 84 t f b;
#X msg 232 101 0;
#X obj 101 157 s vM;
#X obj 258 41 r knob;
#X text 38 180 The number atom contains the MIDI note or control number
that is used to manage the parameter this subpatch is related to \,
via its send object at the bottom of this mini arrange. This subpatch
also enables the automatic learning of the number by turning the toggle
on and pressing of moving a control in the MIDI surface. Then the number
is stored and the toggle turned off automatically.;
#X connect 0 0 1 0;
#X connect 1 0 4 0;
#X connect 1 0 10 0;
#X connect 2 0 0 0;
#X connect 2 0 10 0;
#X connect 3 0 1 0;
#X connect 4 0 2 0;
#X connect 5 0 7 1;
#X connect 6 0 7 0;
#X connect 7 0 8 0;
#X connect 8 0 2 0;
#X connect 8 1 9 0;
#X connect 9 0 5 0;
#X connect 11 0 7 0;
#X coords 0 -1 1 1 51 18 2 100 100;
#X restore 603 203 pd set_midi;
#N canvas 621 145 890 484 track1 0;
#X obj 463 174 spigot;
#X msg 513 174 0;
#X msg 496 126 1;
#X obj 463 196 t b b;
#X msg 463 218 start;
#X obj 463 274 readsf~ 1;
#X msg 574 257 stop;
#X obj 574 173 spigot;
#X msg 607 220 0;
#X msg 607 126 1;
#X obj 574 197 t b b;
#X obj 463 152 r metro;
#X obj 574 152 r metro;
#X obj 64 296 writesf~ 1;
#X obj 64 177 spigot;
#X msg 134 160 0;
#X msg 97 126 1;
#X msg 64 224 start;
#X msg 180 279 stop;
#X obj 180 176 spigot;
#X msg 213 251 0;
#X msg 213 126 1;
#X obj 180 229 t b b;
#X obj 64 156 r metro;
#X obj 180 155 r metro;
#X obj 416 291 t b b;
#X obj 463 297 send~ track1;
#X obj 64 201 t b b b;
#X obj 83 274 r~ audioinput;
#X obj 213 92 r stoprec;
#X obj 607 92 r stopplay;
#N canvas 810 702 450 300 io_alternate 0;
#X obj 145 39 +;
#X msg 145 10 1;
#X floatatom 175 39 5 0 0 0 - - -;
#X msg 224 22 0;
#X obj 224 55 select 2;
#X obj 145 85 bng 15 250 50 0 empty empty empty 17 7 0 10 -262144 -1
-1;
#X obj 190 86 bng 15 250 50 0 empty empty empty 17 7 0 10 -262144 -1
-1;
#X obj 145 63 select 1;
#X obj 145 159 outlet;
#X obj 190 159 outlet;
#X obj 145 -19 inlet;
#X obj 224 -19 inlet;
#X connect 0 0 2 0;
#X connect 0 0 7 0;
#X connect 1 0 0 0;
#X connect 2 0 0 1;
#X connect 2 0 4 0;
#X connect 3 0 2 0;
#X connect 4 0 3 0;
#X connect 5 0 8 0;
#X connect 6 0 9 0;
#X connect 7 0 5 0;
#X connect 7 1 6 0;
#X connect 10 0 1 0;
#X connect 11 0 3 0;
#X restore 97 109 pd io_alternate;
#X obj 97 34 r midi;
#X obj 97 58 select 44;
#N canvas 810 702 450 300 io_alternate 0;
#X obj 155 49 +;
#X msg 155 20 1;
#X floatatom 185 49 5 0 0 0 - - -;
#X msg 234 32 0;
#X obj 234 65 select 2;
#X obj 155 95 bng 15 250 50 0 empty empty empty 17 7 0 10 -262144 -1
-1;
#X obj 200 96 bng 15 250 50 0 empty empty empty 17 7 0 10 -262144 -1
-1;
#X obj 155 73 select 1;
#X obj 155 169 outlet;
#X obj 200 169 outlet;
#X obj 155 -9 inlet;
#X obj 234 -9 inlet;
#X connect 0 0 2 0;
#X connect 0 0 7 0;
#X connect 1 0 0 0;
#X connect 2 0 0 1;
#X connect 2 0 4 0;
#X connect 3 0 2 0;
#X connect 4 0 3 0;
#X connect 5 0 8 0;
#X connect 6 0 9 0;
#X connect 7 0 5 0;
#X connect 7 1 6 0;
#X connect 10 0 1 0;
#X connect 11 0 3 0;
#X restore 496 109 pd io_alternate;
#X obj 496 39 r midi;
#X obj 496 61 select 36;
#X msg 83 250 open track1.wav;
#X msg 472 246 open track1.wav;
#X obj 184 72 r reset;
#X obj 583 68 r reset;
#X obj 148 35 r r1;
#X obj 547 39 r p1;
#X obj 349 160 bng 15 250 50 0 empty empty empty 17 7 0 10 -262144
-1 -262144;
#X msg 673 143 color 16;
#X msg 735 143 color 0;
#X obj 290 160 bng 15 250 50 0 empty empty empty 17 7 0 10 -262144
-1 -262144;
#X msg 290 143 color 0;
#X msg 347 143 color 13;
#X text 246 160 Record;
#X text 319 160 Play;
#X obj 97 85 bng 15 250 50 0 empty empty empty 17 7 0 10 -262144 -1
-1;
#X obj 290 69 bng 15 250 50 0 empty empty empty 17 7 0 10 -262144 -1
-1;
#X obj 496 84 bng 15 250 50 0 empty empty empty 17 7 0 10 -262144 -1
-1;
#X obj 349 69 bng 15 250 50 0 empty empty empty 17 7 0 10 -262144 -1
-1;
#X text 73 349 Left section receives a MIDI note and each bandg toggles
recording of this track on and off. Right section receives a MIDI note
and each bang toggles playback of the previously recorded track.;
#X text 336 24 Track 1;
#X connect 0 0 3 0;
#X connect 1 0 0 1;
#X connect 2 0 0 1;
#X connect 2 0 44 0;
#X connect 3 0 4 0;
#X connect 3 1 1 0;
#X connect 3 1 38 0;
#X connect 4 0 5 0;
#X connect 5 0 26 0;
#X connect 5 1 25 0;
#X connect 6 0 5 0;
#X connect 7 0 10 0;
#X connect 8 0 7 1;
#X connect 9 0 7 1;
#X connect 9 0 45 0;
#X connect 10 0 6 0;
#X connect 10 1 8 0;
#X connect 11 0 0 0;
#X connect 12 0 7 0;
#X connect 14 0 27 0;
#X connect 15 0 14 1;
#X connect 16 0 14 1;
#X connect 16 0 48 0;
#X connect 17 0 13 0;
#X connect 18 0 13 0;
#X connect 19 0 22 0;
#X connect 20 0 19 1;
#X connect 21 0 19 1;
#X connect 21 0 47 0;
#X connect 22 0 18 0;
#X connect 22 1 20 0;
#X connect 22 1 38 0;
#X connect 23 0 14 0;
#X connect 24 0 19 0;
#X connect 25 0 4 0;
#X connect 25 1 38 0;
#X connect 27 0 17 0;
#X connect 27 1 37 0;
#X connect 27 2 15 0;
#X connect 28 0 13 0;
#X connect 29 0 21 0;
#X connect 29 0 31 1;
#X connect 30 0 9 0;
#X connect 30 0 34 1;
#X connect 31 0 16 0;
#X connect 31 0 9 0;
#X connect 31 1 21 0;
#X connect 32 0 33 0;
#X connect 33 0 51 0;
#X connect 34 0 2 0;
#X connect 34 0 21 0;
#X connect 34 1 9 0;
#X connect 35 0 36 0;
#X connect 36 0 53 0;
#X connect 37 0 13 0;
#X connect 38 0 5 0;
#X connect 39 0 31 1;
#X connect 40 0 34 1;
#X connect 41 0 33 1;
#X connect 42 0 36 1;
#X connect 43 0 54 0;
#X connect 44 0 43 0;
#X connect 45 0 43 0;
#X connect 46 0 52 0;
#X connect 47 0 46 0;
#X connect 48 0 46 0;
#X connect 51 0 31 0;
#X connect 52 0 51 0;
#X connect 53 0 34 0;
#X connect 54 0 53 0;
#X coords 0 -1 1 1 120 15 2 245 160;
#X restore 102 70 pd track1;
#X text 43 69 Track 1;
#X text 234 69 Record;
#X text 339 69 Play;
#N canvas 525 477 890 484 track1 0;
#X obj 463 174 spigot;
#X msg 513 174 0;
#X msg 496 126 1;
#X obj 463 196 t b b;
#X msg 463 218 start;
#X obj 463 274 readsf~ 1;
#X msg 574 257 stop;
#X obj 574 173 spigot;
#X msg 607 220 0;
#X msg 607 126 1;
#X obj 574 197 t b b;
#X obj 463 152 r metro;
#X obj 574 152 r metro;
#X obj 64 296 writesf~ 1;
#X obj 64 177 spigot;
#X msg 134 160 0;
#X msg 97 126 1;
#X msg 64 224 start;
#X msg 180 279 stop;
#X obj 180 176 spigot;
#X msg 213 251 0;
#X msg 213 126 1;
#X obj 180 229 t b b;
#X obj 64 156 r metro;
#X obj 180 155 r metro;
#X obj 416 291 t b b;
#X obj 64 201 t b b b;
#X obj 83 274 r~ audioinput;
#X obj 213 92 r stoprec;
#X obj 607 92 r stopplay;
#N canvas 810 702 450 300 io_alternate 0;
#X obj 145 39 +;
#X msg 145 10 1;
#X floatatom 175 39 5 0 0 0 - - -;
#X msg 224 22 0;
#X obj 224 55 select 2;
#X obj 145 85 bng 15 250 50 0 empty empty empty 17 7 0 10 -262144 -1
-1;
#X obj 190 86 bng 15 250 50 0 empty empty empty 17 7 0 10 -262144 -1
-1;
#X obj 145 63 select 1;
#X obj 145 159 outlet;
#X obj 190 159 outlet;
#X obj 145 -19 inlet;
#X obj 224 -19 inlet;
#X connect 0 0 2 0;
#X connect 0 0 7 0;
#X connect 1 0 0 0;
#X connect 2 0 0 1;
#X connect 2 0 4 0;
#X connect 3 0 2 0;
#X connect 4 0 3 0;
#X connect 5 0 8 0;
#X connect 6 0 9 0;
#X connect 7 0 5 0;
#X connect 7 1 6 0;
#X connect 10 0 1 0;
#X connect 11 0 3 0;
#X restore 97 109 pd io_alternate;
#X obj 97 34 r midi;
#X obj 97 58 select 44;
#N canvas 810 702 450 300 io_alternate 0;
#X obj 155 49 +;
#X msg 155 20 1;
#X floatatom 185 49 5 0 0 0 - - -;
#X msg 234 32 0;
#X obj 234 65 select 2;
#X obj 155 95 bng 15 250 50 0 empty empty empty 17 7 0 10 -262144 -1
-1;
#X obj 200 96 bng 15 250 50 0 empty empty empty 17 7 0 10 -262144 -1
-1;
#X obj 155 73 select 1;
#X obj 155 169 outlet;
#X obj 200 169 outlet;
#X obj 155 -9 inlet;
#X obj 234 -9 inlet;
#X connect 0 0 2 0;
#X connect 0 0 7 0;
#X connect 1 0 0 0;
#X connect 2 0 0 1;
#X connect 2 0 4 0;
#X connect 3 0 2 0;
#X connect 4 0 3 0;
#X connect 5 0 8 0;
#X connect 6 0 9 0;
#X connect 7 0 5 0;
#X connect 7 1 6 0;
#X connect 10 0 1 0;
#X connect 11 0 3 0;
#X restore 496 109 pd io_alternate;
#X obj 496 39 r midi;
#X obj 496 61 select 36;
#X obj 184 72 r reset;
#X obj 583 68 r reset;
#X obj 349 160 bng 15 250 50 0 empty empty empty 17 7 0 10 -262144
-1 -262144;
#X msg 673 143 color 16;
#X msg 735 143 color 0;
#X obj 290 160 bng 15 250 50 0 empty empty empty 17 7 0 10 -262144
-1 -262144;
#X msg 290 143 color 0;
#X msg 347 143 color 13;
#X text 246 160 Record;
#X text 319 160 Play;
#X obj 97 84 bng 15 250 50 0 empty empty empty 17 7 0 10 -262144 -1
-1;
#X obj 290 69 bng 15 250 50 0 empty empty empty 17 7 0 10 -262144 -1
-1;
#X obj 496 84 bng 15 250 50 0 empty empty empty 17 7 0 10 -262144 -1
-1;
#X obj 349 69 bng 15 250 50 0 empty empty empty 17 7 0 10 -262144 -1
-1;
#X text 73 349 Left section receives a MIDI note and each bandg toggles
recording of this track on and off. Right section receives a MIDI note
and each bang toggles playback of the previously recorded track.;
#X msg 83 250 open track2.wav;
#X msg 472 246 open track2.wav;
#X obj 148 35 r r2;
#X obj 547 39 r p2;
#X obj 463 293 send~ track2;
#X text 338 24 Track 2;
#X connect 0 0 3 0;
#X connect 1 0 0 1;
#X connect 2 0 0 1;
#X connect 2 0 39 0;
#X connect 3 0 4 0;
#X connect 3 1 1 0;
#X connect 3 1 52 0;
#X connect 4 0 5 0;
#X connect 5 0 55 0;
#X connect 5 1 25 0;
#X connect 6 0 5 0;
#X connect 7 0 10 0;
#X connect 8 0 7 1;
#X connect 9 0 7 1;
#X connect 9 0 40 0;
#X connect 10 0 6 0;
#X connect 10 1 8 0;
#X connect 11 0 0 0;
#X connect 12 0 7 0;
#X connect 14 0 26 0;
#X connect 15 0 14 1;
#X connect 16 0 14 1;
#X connect 16 0 43 0;
#X connect 17 0 13 0;
#X connect 18 0 13 0;
#X connect 19 0 22 0;
#X connect 20 0 19 1;
#X connect 21 0 19 1;
#X connect 21 0 42 0;
#X connect 22 0 18 0;
#X connect 22 1 20 0;
#X connect 22 1 52 0;
#X connect 23 0 14 0;
#X connect 24 0 19 0;
#X connect 25 0 4 0;
#X connect 25 1 52 0;
#X connect 26 0 17 0;
#X connect 26 1 51 0;
#X connect 26 2 15 0;
#X connect 27 0 13 0;
#X connect 28 0 21 0;
#X connect 28 0 30 1;
#X connect 29 0 9 0;
#X connect 29 0 33 1;
#X connect 30 0 16 0;
#X connect 30 0 9 0;
#X connect 30 1 21 0;
#X connect 31 0 32 0;
#X connect 32 0 46 0;
#X connect 33 0 2 0;
#X connect 33 0 21 0;
#X connect 33 1 9 0;
#X connect 34 0 35 0;
#X connect 35 0 48 0;
#X connect 36 0 30 1;
#X connect 37 0 33 1;
#X connect 38 0 49 0;
#X connect 39 0 38 0;
#X connect 40 0 38 0;
#X connect 41 0 47 0;
#X connect 42 0 41 0;
#X connect 43 0 41 0;
#X connect 46 0 30 0;
#X connect 47 0 46 0;
#X connect 48 0 33 0;
#X connect 49 0 48 0;
#X connect 51 0 13 0;
#X connect 52 0 5 0;
#X connect 53 0 32 1;
#X connect 54 0 35 1;
#X coords 0 -1 1 1 120 15 2 245 160;
#X restore 102 99 pd track1;
#X text 234 98 Record;
#X text 339 98 Play;
#N canvas 525 477 890 484 track1 0;
#X obj 463 174 spigot;
#X msg 513 174 0;
#X msg 496 126 1;
#X obj 463 196 t b b;
#X msg 463 218 start;
#X obj 463 274 readsf~ 1;
#X msg 574 257 stop;
#X obj 574 173 spigot;
#X msg 607 220 0;
#X msg 607 126 1;
#X obj 574 197 t b b;
#X obj 463 152 r metro;
#X obj 574 152 r metro;
#X obj 64 296 writesf~ 1;
#X obj 64 177 spigot;
#X msg 134 160 0;
#X msg 97 126 1;
#X msg 64 224 start;
#X msg 180 279 stop;
#X obj 180 176 spigot;
#X msg 213 251 0;
#X msg 213 126 1;
#X obj 180 229 t b b;
#X obj 64 156 r metro;
#X obj 180 155 r metro;
#X obj 416 291 t b b;
#X obj 64 201 t b b b;
#X obj 83 274 r~ audioinput;
#X obj 213 92 r stoprec;
#X obj 607 92 r stopplay;
#N canvas 810 702 450 300 io_alternate 0;
#X obj 145 39 +;
#X msg 145 10 1;
#X floatatom 175 39 5 0 0 0 - - -;
#X msg 224 22 0;
#X obj 224 55 select 2;
#X obj 145 85 bng 15 250 50 0 empty empty empty 17 7 0 10 -262144 -1
-1;
#X obj 190 86 bng 15 250 50 0 empty empty empty 17 7 0 10 -262144 -1
-1;
#X obj 145 63 select 1;
#X obj 145 159 outlet;
#X obj 190 159 outlet;
#X obj 145 -19 inlet;
#X obj 224 -19 inlet;
#X connect 0 0 2 0;
#X connect 0 0 7 0;
#X connect 1 0 0 0;
#X connect 2 0 0 1;
#X connect 2 0 4 0;
#X connect 3 0 2 0;
#X connect 4 0 3 0;
#X connect 5 0 8 0;
#X connect 6 0 9 0;
#X connect 7 0 5 0;
#X connect 7 1 6 0;
#X connect 10 0 1 0;
#X connect 11 0 3 0;
#X restore 97 109 pd io_alternate;
#X obj 97 34 r midi;
#X obj 97 58 select 44;
#N canvas 810 702 450 300 io_alternate 0;
#X obj 155 49 +;
#X msg 155 20 1;
#X floatatom 185 49 5 0 0 0 - - -;
#X msg 234 32 0;
#X obj 234 65 select 2;
#X obj 155 95 bng 15 250 50 0 empty empty empty 17 7 0 10 -262144 -1
-1;
#X obj 200 96 bng 15 250 50 0 empty empty empty 17 7 0 10 -262144 -1
-1;
#X obj 155 73 select 1;
#X obj 155 169 outlet;
#X obj 200 169 outlet;
#X obj 155 -9 inlet;
#X obj 234 -9 inlet;
#X connect 0 0 2 0;
#X connect 0 0 7 0;
#X connect 1 0 0 0;
#X connect 2 0 0 1;
#X connect 2 0 4 0;
#X connect 3 0 2 0;
#X connect 4 0 3 0;
#X connect 5 0 8 0;
#X connect 6 0 9 0;
#X connect 7 0 5 0;
#X connect 7 1 6 0;
#X connect 10 0 1 0;
#X connect 11 0 3 0;
#X restore 496 109 pd io_alternate;
#X obj 496 39 r midi;
#X obj 496 61 select 36;
#X obj 184 72 r reset;
#X obj 583 68 r reset;
#X obj 349 160 bng 15 250 50 0 empty empty empty 17 7 0 10 -262144
-1 -262144;
#X msg 673 143 color 16;
#X msg 735 143 color 0;
#X obj 290 160 bng 15 250 50 0 empty empty empty 17 7 0 10 -262144
-1 -262144;
#X msg 290 143 color 0;
#X msg 347 143 color 13;
#X text 246 160 Record;
#X text 319 160 Play;
#X obj 97 84 bng 15 250 50 0 empty empty empty 17 7 0 10 -262144 -1
-1;
#X obj 290 69 bng 15 250 50 0 empty empty empty 17 7 0 10 -262144 -1
-1;
#X obj 496 84 bng 15 250 50 0 empty empty empty 17 7 0 10 -262144 -1
-1;
#X obj 349 69 bng 15 250 50 0 empty empty empty 17 7 0 10 -262144 -1
-1;
#X text 73 349 Left section receives a MIDI note and each bandg toggles
recording of this track on and off. Right section receives a MIDI note
and each bang toggles playback of the previously recorded track.;
#X obj 148 35 r r3;
#X obj 547 39 r p3;
#X obj 463 293 send~ track3;
#X msg 472 246 open track3.wav;
#X msg 83 250 open track3.wav;
#X text 327 32 Track 3;
#X connect 0 0 3 0;
#X connect 1 0 0 1;
#X connect 2 0 0 1;
#X connect 2 0 39 0;
#X connect 3 0 4 0;
#X connect 3 1 1 0;
#X connect 3 1 54 0;
#X connect 4 0 5 0;
#X connect 5 0 53 0;
#X connect 5 1 25 0;
#X connect 6 0 5 0;
#X connect 7 0 10 0;
#X connect 8 0 7 1;
#X connect 9 0 7 1;
#X connect 9 0 40 0;
#X connect 10 0 6 0;
#X connect 10 1 8 0;
#X connect 11 0 0 0;
#X connect 12 0 7 0;
#X connect 14 0 26 0;
#X connect 15 0 14 1;
#X connect 16 0 14 1;
#X connect 16 0 43 0;
#X connect 17 0 13 0;
#X connect 18 0 13 0;
#X connect 19 0 22 0;
#X connect 20 0 19 1;
#X connect 21 0 19 1;
#X connect 21 0 42 0;
#X connect 22 0 18 0;
#X connect 22 1 20 0;
#X connect 22 1 54 0;
#X connect 23 0 14 0;
#X connect 24 0 19 0;
#X connect 25 0 4 0;
#X connect 25 1 54 0;
#X connect 26 0 17 0;
#X connect 26 1 55 0;
#X connect 26 2 15 0;
#X connect 27 0 13 0;
#X connect 28 0 21 0;
#X connect 28 0 30 1;
#X connect 29 0 9 0;
#X connect 29 0 33 1;
#X connect 30 0 16 0;
#X connect 30 0 9 0;
#X connect 30 1 21 0;
#X connect 31 0 32 0;
#X connect 32 0 46 0;
#X connect 33 0 2 0;
#X connect 33 0 21 0;
#X connect 33 1 9 0;
#X connect 34 0 35 0;
#X connect 35 0 48 0;
#X connect 36 0 30 1;
#X connect 37 0 33 1;
#X connect 38 0 49 0;
#X connect 39 0 38 0;
#X connect 40 0 38 0;
#X connect 41 0 47 0;
#X connect 42 0 41 0;
#X connect 43 0 41 0;
#X connect 46 0 30 0;
#X connect 47 0 46 0;
#X connect 48 0 33 0;
#X connect 49 0 48 0;
#X connect 51 0 32 1;
#X connect 52 0 35 1;
#X connect 54 0 5 0;
#X connect 55 0 13 0;
#X coords 0 -1 1 1 120 15 2 245 160;
#X restore 102 127 pd track1;
#X text 234 127 Record;
#X text 339 127 Play;
#N canvas 27 641 890 484 track1 0;
#X obj 463 174 spigot;
#X msg 513 174 0;
#X msg 496 126 1;
#X obj 463 196 t b b;
#X msg 463 218 start;
#X obj 463 274 readsf~ 1;
#X msg 574 257 stop;
#X obj 574 173 spigot;
#X msg 607 220 0;
#X msg 607 126 1;
#X obj 574 197 t b b;
#X obj 463 152 r metro;
#X obj 574 152 r metro;
#X obj 64 296 writesf~ 1;
#X obj 64 177 spigot;
#X msg 134 160 0;
#X msg 97 126 1;
#X msg 64 224 start;
#X msg 180 279 stop;
#X obj 180 176 spigot;
#X msg 213 251 0;
#X msg 213 126 1;
#X obj 180 229 t b b;
#X obj 64 156 r metro;
#X obj 180 155 r metro;
#X obj 416 291 t b b;
#X obj 64 201 t b b b;
#X obj 83 274 r~ audioinput;
#X obj 213 92 r stoprec;
#X obj 607 92 r stopplay;
#N canvas 810 702 450 300 io_alternate 0;
#X obj 145 39 +;
#X msg 145 10 1;
#X floatatom 175 39 5 0 0 0 - - -;
#X msg 224 22 0;
#X obj 224 55 select 2;
#X obj 145 85 bng 15 250 50 0 empty empty empty 17 7 0 10 -262144 -1
-1;
#X obj 190 86 bng 15 250 50 0 empty empty empty 17 7 0 10 -262144 -1
-1;
#X obj 145 63 select 1;
#X obj 145 159 outlet;
#X obj 190 159 outlet;
#X obj 145 -19 inlet;
#X obj 224 -19 inlet;
#X connect 0 0 2 0;
#X connect 0 0 7 0;
#X connect 1 0 0 0;
#X connect 2 0 0 1;
#X connect 2 0 4 0;
#X connect 3 0 2 0;
#X connect 4 0 3 0;
#X connect 5 0 8 0;
#X connect 6 0 9 0;
#X connect 7 0 5 0;
#X connect 7 1 6 0;
#X connect 10 0 1 0;
#X connect 11 0 3 0;
#X restore 97 109 pd io_alternate;
#X obj 97 34 r midi;
#X obj 97 58 select 44;
#N canvas 810 702 450 300 io_alternate 0;
#X obj 155 49 +;
#X msg 155 20 1;
#X floatatom 185 49 5 0 0 0 - - -;
#X msg 234 32 0;
#X obj 234 65 select 2;
#X obj 155 95 bng 15 250 50 0 empty empty empty 17 7 0 10 -262144 -1
-1;
#X obj 200 96 bng 15 250 50 0 empty empty empty 17 7 0 10 -262144 -1
-1;
#X obj 155 73 select 1;
#X obj 155 169 outlet;
#X obj 200 169 outlet;
#X obj 155 -9 inlet;
#X obj 234 -9 inlet;
#X connect 0 0 2 0;
#X connect 0 0 7 0;
#X connect 1 0 0 0;
#X connect 2 0 0 1;
#X connect 2 0 4 0;
#X connect 3 0 2 0;
#X connect 4 0 3 0;
#X connect 5 0 8 0;
#X connect 6 0 9 0;
#X connect 7 0 5 0;
#X connect 7 1 6 0;
#X connect 10 0 1 0;
#X connect 11 0 3 0;
#X restore 496 109 pd io_alternate;
#X obj 496 39 r midi;
#X obj 496 61 select 36;
#X obj 184 72 r reset;
#X obj 583 68 r reset;
#X obj 349 160 bng 15 250 50 0 empty empty empty 17 7 0 10 -262144
-1 -262144;
#X msg 673 143 color 16;
#X msg 735 143 color 0;
#X obj 290 160 bng 15 250 50 0 empty empty empty 17 7 0 10 -262144
-1 -262144;
#X msg 290 143 color 0;
#X msg 347 143 color 13;
#X text 246 160 Record;
#X text 319 160 Play;
#X obj 97 84 bng 15 250 50 0 empty empty empty 17 7 0 10 -262144 -1
-1;
#X obj 290 69 bng 15 250 50 0 empty empty empty 17 7 0 10 -262144 -1
-1;
#X obj 496 84 bng 15 250 50 0 empty empty empty 17 7 0 10 -262144 -1
-1;
#X obj 349 69 bng 15 250 50 0 empty empty empty 17 7 0 10 -262144 -1
-1;
#X obj 148 35 r r4;
#X obj 547 39 r p4;
#X msg 472 246 open track4.wav;
#X obj 463 293 send~ track4;
#X msg 83 250 open track4.wav;
#X text 73 349 Left section receives a MIDI note and each bandg toggles
recording of this track on and off. Right section receives a MIDI note
and each bang toggles playback of the previously recorded track.;
#X text 318 24 Track 4;
#X connect 0 0 3 0;
#X connect 1 0 0 1;
#X connect 2 0 0 1;
#X connect 2 0 39 0;
#X connect 3 0 4 0;
#X connect 3 1 1 0;
#X connect 3 1 52 0;
#X connect 4 0 5 0;
#X connect 5 0 53 0;
#X connect 5 1 25 0;
#X connect 6 0 5 0;
#X connect 7 0 10 0;
#X connect 8 0 7 1;
#X connect 9 0 7 1;
#X connect 9 0 40 0;
#X connect 10 0 6 0;
#X connect 10 1 8 0;
#X connect 11 0 0 0;
#X connect 12 0 7 0;
#X connect 14 0 26 0;
#X connect 15 0 14 1;
#X connect 16 0 14 1;
#X connect 16 0 43 0;
#X connect 17 0 13 0;
#X connect 18 0 13 0;
#X connect 19 0 22 0;
#X connect 20 0 19 1;
#X connect 21 0 19 1;
#X connect 21 0 42 0;
#X connect 22 0 18 0;
#X connect 22 1 20 0;
#X connect 22 1 52 0;
#X connect 23 0 14 0;
#X connect 24 0 19 0;
#X connect 25 0 4 0;
#X connect 25 1 52 0;
#X connect 26 0 17 0;
#X connect 26 1 54 0;
#X connect 26 2 15 0;
#X connect 27 0 13 0;
#X connect 28 0 21 0;
#X connect 28 0 30 1;
#X connect 29 0 9 0;
#X connect 29 0 33 1;
#X connect 30 0 16 0;
#X connect 30 0 9 0;
#X connect 30 1 21 0;
#X connect 31 0 32 0;
#X connect 32 0 46 0;
#X connect 33 0 2 0;
#X connect 33 0 21 0;
#X connect 33 1 9 0;
#X connect 34 0 35 0;
#X connect 35 0 48 0;
#X connect 36 0 30 1;
#X connect 37 0 33 1;
#X connect 38 0 49 0;
#X connect 39 0 38 0;
#X connect 40 0 38 0;
#X connect 41 0 47 0;
#X connect 42 0 41 0;
#X connect 43 0 41 0;
#X connect 46 0 30 0;
#X connect 47 0 46 0;
#X connect 48 0 33 0;
#X connect 49 0 48 0;
#X connect 50 0 32 1;
#X connect 51 0 35 1;
#X connect 52 0 5 0;
#X connect 54 0 13 0;
#X coords 0 -1 1 1 120 15 2 245 160;
#X restore 102 156 pd track1;
#X text 234 156 Record;
#X text 339 156 Play;
#X text 43 98 Track 2;
#X text 43 127 Track 3;
#X text 43 156 Track 4;
#X text 306 52 Learn;
#X text 397 52 Learn;
#N canvas 102 56 890 484 track1 0;
#X obj 528 174 spigot;
#X msg 578 174 0;
#X msg 561 126 1;
#X obj 528 196 t b b;
#X msg 528 218 start;
#X obj 528 274 readsf~ 1;
#X msg 639 257 stop;
#X obj 639 173 spigot;
#X msg 672 220 0;
#X msg 672 126 1;
#X obj 639 197 t b b;
#X obj 528 152 r metro;
#X obj 639 152 r metro;
#X obj 22 337 writesf~ 1;
#X obj 22 177 spigot;
#X msg 92 160 0;
#X msg 55 126 1;
#X msg 22 224 start;
#X msg 138 320 stop;
#X obj 138 176 spigot;
#X msg 171 251 0;
#X msg 171 126 1;
#X obj 138 229 t b b;
#X obj 22 156 r metro;
#X obj 138 155 r metro;
#X obj 481 291 t b b;
#X obj 22 201 t b b b;
#X obj 171 92 r stoprec;
#X obj 672 92 r stopplay;
#N canvas 810 702 450 300 io_alternate 0;
#X obj 175 69 +;
#X msg 175 40 1;
#X floatatom 205 69 5 0 0 0 - - -;
#X msg 254 52 0;
#X obj 254 85 select 2;
#X obj 175 115 bng 15 250 50 0 empty empty empty 17 7 0 10 -262144
-1 -1;
#X obj 220 116 bng 15 250 50 0 empty empty empty 17 7 0 10 -262144
-1 -1;
#X obj 175 93 select 1;
#X obj 175 189 outlet;
#X obj 220 189 outlet;
#X obj 175 11 inlet;
#X obj 254 11 inlet;
#X connect 0 0 2 0;
#X connect 0 0 7 0;
#X connect 1 0 0 0;
#X connect 2 0 0 1;
#X connect 2 0 4 0;
#X connect 3 0 2 0;
#X connect 4 0 3 0;
#X connect 5 0 8 0;
#X connect 6 0 9 0;
#X connect 7 0 5 0;
#X connect 7 1 6 0;
#X connect 10 0 1 0;
#X connect 11 0 3 0;
#X restore 55 109 pd io_alternate;
#X obj 55 48 r midi;
#N canvas 810 702 450 300 io_alternate 0;
#X obj 145 39 +;
#X msg 145 10 1;
#X floatatom 175 39 5 0 0 0 - - -;
#X msg 224 22 0;
#X obj 224 55 select 2;
#X obj 145 85 bng 15 250 50 0 empty empty empty 17 7 0 10 -262144 -1
-1;
#X obj 190 86 bng 15 250 50 0 empty empty empty 17 7 0 10 -262144 -1
-1;
#X obj 145 63 select 1;
#X obj 145 159 outlet;
#X obj 190 159 outlet;
#X obj 145 -19 inlet;
#X obj 224 -18 inlet;
#X connect 0 0 2 0;
#X connect 0 0 7 0;
#X connect 1 0 0 0;
#X connect 2 0 0 1;
#X connect 2 0 4 0;
#X connect 3 0 2 0;
#X connect 4 0 3 0;
#X connect 5 0 8 0;
#X connect 6 0 9 0;
#X connect 7 0 5 0;
#X connect 7 1 6 0;
#X connect 10 0 1 0;
#X connect 11 0 3 0;
#X restore 561 109 pd io_alternate;
#X obj 561 48 r midi;
#X obj 142 72 r reset;
#X obj 648 66 r reset;
#X msg 41 250 open trackM.wav;
#X msg 537 246 open trackM.wav;
#X obj 71 291 r~ mvol;
#X obj 50 316 *~;
#X obj 55 72 select 48;
#X obj 561 72 select 40;
#X obj 106 48 r rm;
#X obj 612 48 r pm;
#X obj 350 160 bng 15 250 50 0 empty empty empty 17 7 0 10 -262144
-1 -262144;
#X obj 291 160 bng 15 250 50 0 empty empty empty 17 7 0 10 -262144
-1 -262144;
#X msg 291 143 color 0;
#X msg 348 143 color 13;
#X text 247 160 Record;
#X text 320 160 Play;
#X msg 720 143 color 16;
#X msg 782 143 color 0;
#X obj 55 92 bng 15 250 50 0 empty empty empty 17 7 0 10 -262144 -1
-1;
#X obj 561 92 bng 15 250 50 0 empty empty empty 17 7 0 10 -262144 -1
-1;
#X obj 291 77 bng 15 250 50 0 empty empty empty 17 7 0 10 -262144 -1
-1;
#X obj 350 77 bng 15 250 50 0 empty empty empty 17 7 0 10 -262144 -1
-1;
#X obj 133 299 r~ gained1;
#X obj 198 299 r~ gained2;
#X obj 263 299 r~ gained3;
#X obj 328 299 r~ gained4;
#X obj 527 333 s~ masteraudio;
#X obj 50 272 r~ monitorInput;
#X text 83 359 Left section receives a MIDI note and each bandg toggles
recording of this track on and off. Right section receives a MIDI note
and each bang toggles playback of the previously recorded track.;
#X text 328 34 Master Track;
#X obj 543 294 r~ mvol;
#X obj 528 314 *~;
#X connect 0 0 3 0;
#X connect 1 0 0 1;
#X connect 2 0 0 1;
#X connect 2 0 49 0;
#X connect 3 0 4 0;
#X connect 3 1 1 0;
#X connect 4 0 5 0;
#X connect 5 0 64 0;
#X connect 5 1 25 0;
#X connect 6 0 5 0;
#X connect 7 0 10 0;
#X connect 8 0 7 1;
#X connect 9 0 7 1;
#X connect 9 0 50 0;
#X connect 10 0 6 0;
#X connect 10 1 8 0;
#X connect 11 0 0 0;
#X connect 12 0 7 0;
#X connect 14 0 26 0;
#X connect 15 0 14 1;
#X connect 16 0 14 1;
#X connect 16 0 46 0;
#X connect 17 0 13 0;
#X connect 18 0 13 0;
#X connect 19 0 22 0;
#X connect 20 0 19 1;
#X connect 21 0 19 1;
#X connect 21 0 45 0;
#X connect 22 0 18 0;
#X connect 22 1 20 0;
#X connect 22 1 36 0;
#X connect 23 0 14 0;
#X connect 24 0 19 0;
#X connect 25 0 4 0;
#X connect 25 1 36 0;
#X connect 26 0 17 0;
#X connect 26 1 35 0;
#X connect 26 2 15 0;
#X connect 27 0 21 0;
#X connect 27 0 29 1;
#X connect 28 0 9 0;
#X connect 28 0 31 1;
#X connect 29 0 16 0;
#X connect 29 0 9 0;
#X connect 29 1 21 0;
#X connect 30 0 39 0;
#X connect 31 0 2 0;
#X connect 31 0 21 0;
#X connect 31 1 9 0;
#X connect 32 0 40 0;
#X connect 33 0 29 1;
#X connect 34 0 31 1;
#X connect 35 0 13 0;
#X connect 36 0 5 0;
#X connect 37 0 38 1;
#X connect 38 0 13 0;
#X connect 38 0 59 0;
#X connect 39 0 51 0;
#X connect 40 0 52 0;
#X connect 41 0 39 1;
#X connect 42 0 40 1;
#X connect 43 0 54 0;
#X connect 44 0 53 0;
#X connect 45 0 44 0;
#X connect 46 0 44 0;
#X connect 49 0 43 0;
#X connect 50 0 43 0;
#X connect 51 0 29 0;
#X connect 52 0 31 0;
#X connect 53 0 51 0;
#X connect 54 0 52 0;
#X connect 55 0 38 0;
#X connect 56 0 38 0;
#X connect 57 0 38 0;
#X connect 58 0 38 0;
#X connect 60 0 38 0;
#X connect 63 0 64 1;
#X connect 64 0 59 0;
#X coords 0 -1 1 1 120 15 2 245 160;
#X restore 102 206 pd track1;
#X text 234 205 Record;
#X text 339 205 Play;
#X text 43 205 Master;
#X text 275 52 MIDI;
#X text 366 52 MIDI;
#N canvas 967 459 466 299 io_gain 0;
#X obj 111 128 / 127;
#X obj 111 148 pack 0 50;
#X obj 111 172 line~;
#X obj 96 107 r~ track1;
#X obj 96 192 *~;
#N canvas 892 144 368 198 vol1 0;
#X obj 190 -106 r knob;
#X obj 190 -84 sel 1;
#X msg 190 -64 1;
#X msg 217 -64 0;
#X obj 149 -47 spigot;
#X obj 149 -94 r kVal;
#X obj 97 -75 r lb;
#X obj 149 -13 outlet;
#X msg 97 -30 63;
#X obj 238 -101 inlet;
#X connect 0 0 1 0;
#X connect 1 0 2 0;
#X connect 1 1 3 0;
#X connect 2 0 4 1;
#X connect 3 0 4 1;
#X connect 4 0 7 0;
#X connect 5 0 4 0;
#X connect 6 0 8 0;
#X connect 8 0 7 0;
#X connect 9 0 1 1;
#X restore 181 71 pd vol1;
#X obj 181 54 r v1;
#X obj 184 113 hsl 128 15 0 127 0 0 empty empty empty -2 -8 0 10 -262144
-1 -1 6300 1;
#X text 92 237 Receives MIDI ctl values from [ctlin] and selects it
depending on the learnt MIDI channel \, controls the gain of a given
track;
#X obj 96 216 s~ gained1;
#X connect 0 0 1 0;
#X connect 1 0 2 0;
#X connect 2 0 4 1;
#X connect 3 0 4 0;
#X connect 4 0 9 0;
#X connect 5 0 7 0;
#X connect 6 0 5 0;
#X connect 7 0 0 0;
#X coords 0 -1 1 1 135 15 2 180 113;
#X restore 464 71 pd io_gain;
#X text 431 69 Gain;
#X text 631 51 Learn;
#X text 600 51 MIDI;
#N canvas 967 459 466 299 io_gain 0;
#X obj 111 128 / 127;
#X obj 111 148 pack 0 50;
#X obj 111 172 line~;
#X obj 96 192 *~;
#X obj 184 113 hsl 128 15 0 127 0 0 empty empty empty -2 -8 0 10 -262144
-1 -1 6300 1;
#X text 92 236 Receives MIDI ctl values from [ctlin] and selects it
depending on the learnt MIDI channel \, controls the gain of a given
track;
#X obj 181 54 r v2;
#N canvas 892 144 368 198 vol2 0;
#X obj 190 -106 r knob;
#X obj 190 -84 sel 1;
#X msg 190 -64 1;
#X msg 217 -64 0;
#X obj 149 -47 spigot;
#X obj 149 -94 r kVal;
#X obj 97 -75 r lb;
#X obj 149 -13 outlet;
#X msg 97 -30 63;
#X obj 238 -101 inlet;
#X connect 0 0 1 0;
#X connect 1 0 2 0;
#X connect 1 1 3 0;
#X connect 2 0 4 1;
#X connect 3 0 4 1;
#X connect 4 0 7 0;
#X connect 5 0 4 0;
#X connect 6 0 8 0;
#X connect 8 0 7 0;
#X connect 9 0 1 1;
#X restore 181 71 pd vol2;
#X obj 96 107 r~ track2;
#X obj 96 214 s~ gained2;
#X connect 0 0 1 0;
#X connect 1 0 2 0;
#X connect 2 0 3 1;
#X connect 3 0 9 0;
#X connect 4 0 0 0;
#X connect 6 0 7 0;
#X connect 7 0 4 0;
#X connect 8 0 3 0;
#X coords 0 -1 1 1 135 15 2 180 113;
#X restore 464 100 pd io_gain;
#X text 431 98 Gain;
#N canvas 967 459 466 299 io_gain 0;
#X obj 111 128 / 127;
#X obj 111 148 pack 0 50;
#X obj 111 172 line~;
#X obj 96 192 *~;
#X obj 184 113 hsl 128 15 0 127 0 0 empty empty empty -2 -8 0 10 -262144
-1 -1 6300 1;
#X text 92 239 Receives MIDI ctl values from [ctlin] and selects it
depending on the learnt MIDI channel \, controls the gain of a given
track;
#X obj 181 54 r v3;
#N canvas 892 144 368 198 vol3 0;
#X obj 190 -106 r knob;
#X obj 190 -84 sel 1;
#X msg 190 -64 1;
#X msg 217 -64 0;
#X obj 149 -47 spigot;
#X obj 149 -94 r kVal;
#X obj 97 -75 r lb;
#X obj 149 -13 outlet;
#X msg 97 -30 63;
#X obj 238 -101 inlet;
#X connect 0 0 1 0;
#X connect 1 0 2 0;
#X connect 1 1 3 0;
#X connect 2 0 4 1;
#X connect 3 0 4 1;
#X connect 4 0 7 0;
#X connect 5 0 4 0;
#X connect 6 0 8 0;
#X connect 8 0 7 0;
#X connect 9 0 1 1;
#X restore 181 71 pd vol3;
#X obj 96 107 r~ track3;
#X obj 96 218 s~ gained3;
#X connect 0 0 1 0;
#X connect 1 0 2 0;
#X connect 2 0 3 1;
#X connect 3 0 9 0;
#X connect 4 0 0 0;
#X connect 6 0 7 0;
#X connect 7 0 4 0;
#X connect 8 0 3 0;
#X coords 0 -1 1 1 135 15 2 180 113;
#X restore 464 129 pd io_gain;
#X text 431 127 Gain;
#N canvas 967 459 466 299 io_gain 0;
#X obj 111 128 / 127;
#X obj 111 148 pack 0 50;
#X obj 111 172 line~;
#X obj 96 192 *~;
#X obj 184 113 hsl 128 15 0 127 0 0 empty empty empty -2 -8 0 10 -262144
-1 -1 6300 1;
#X text 92 245 Receives MIDI ctl values from [ctlin] and selects it
depending on the learnt MIDI channel \, controls the gain of a given
track;
#X obj 181 54 r v4;
#N canvas 892 144 368 198 vol4 0;
#X obj 190 -106 r knob;
#X obj 190 -84 sel 1;
#X msg 190 -64 1;
#X msg 217 -64 0;
#X obj 149 -47 spigot;
#X obj 149 -94 r kVal;
#X obj 97 -75 r lb;
#X obj 149 -13 outlet;
#X msg 97 -30 63;
#X obj 238 -101 inlet;
#X connect 0 0 1 0;
#X connect 1 0 2 0;
#X connect 1 1 3 0;
#X connect 2 0 4 1;
#X connect 3 0 4 1;
#X connect 4 0 7 0;
#X connect 5 0 4 0;
#X connect 6 0 8 0;
#X connect 8 0 7 0;
#X connect 9 0 1 1;
#X restore 181 71 pd vol4;
#X obj 96 107 r~ track4;
#X obj 96 216 s~ gained4;
#X connect 0 0 1 0;
#X connect 1 0 2 0;
#X connect 2 0 3 1;
#X connect 3 0 9 0;
#X connect 4 0 0 0;
#X connect 6 0 7 0;
#X connect 7 0 4 0;
#X connect 8 0 3 0;
#X coords 0 -1 1 1 135 15 2 180 113;
#X restore 464 158 pd io_gain;
#X text 431 156 Gain;
#N canvas 1082 105 466 299 io_gain 0;
#X obj 111 128 / 127;
#X obj 111 148 pack 0 50;
#X obj 111 172 line~;
#X obj 184 113 hsl 128 15 0 127 0 0 empty empty empty -2 -8 0 10 -262144
-1 -1 6500 1;
#X text 92 238 Receives MIDI ctl values from [ctlin] and selects it
depending on the learnt MIDI channel \, controls the gain of a given
track;
#X obj 111 197 s~ mvol;
#X obj 181 54 r vM;
#N canvas 892 144 368 198 volM 0;
#X obj 190 -106 r knob;
#X obj 190 -84 sel 1;
#X msg 190 -64 1;
#X msg 217 -64 0;
#X obj 149 -47 spigot;
#X obj 149 -94 r kVal;
#X obj 97 -75 r lb;
#X obj 149 -13 outlet;
#X msg 97 -30 63;
#X obj 238 -101 inlet;
#X connect 0 0 1 0;
#X connect 1 0 2 0;
#X connect 1 1 3 0;
#X connect 2 0 4 1;
#X connect 3 0 4 1;
#X connect 4 0 7 0;
#X connect 5 0 4 0;
#X connect 6 0 8 0;
#X connect 8 0 7 0;
#X connect 9 0 1 1;
#X restore 181 71 pd volM;
#X connect 0 0 1 0;
#X connect 1 0 2 0;
#X connect 2 0 5 0;
#X connect 3 0 0 0;
#X connect 6 0 7 0;
#X connect 7 0 3 0;
#X coords 0 -1 1 1 135 15 2 180 113;
#X restore 465 205 pd io_gain;
#X text 432 203 Gain;
#X obj 35 -10 cnv 15 650 45 empty empty empty 20 12 0 14 -203904 -66577
0;
#N canvas 813 496 450 300 set_midi 0;
#X msg 101 122 set \$1;
#X msg 71 140 93;
#X floatatom 101 101 5 0 0 0 - - -;
#X obj 23 122 r lb;
#X obj 101 79 change;
#X obj 135 102 tgl 15 0 empty empty empty 17 7 0 10 -262144 -1 -1 0
1;
#X obj 181 36 r midi;
#X obj 181 58 spigot;
#X obj 181 84 t f b;
#X msg 232 101 0;
#X obj 101 157 s vmt;
#X obj 251 41 r knob;
#X text 52 178 The number atom contains the MIDI note or control number
that is used to manage the parameter this subpatch is related to \,
via its send object at the bottom of this mini arrange. This subpatch
also enables the automatic learning of the number by turning the toggle
on and pressing of moving a control in the MIDI surface. Then the number
is stored and the toggle turned off automatically.;
#X connect 0 0 1 0;
#X connect 1 0 4 0;
#X connect 1 0 10 0;
#X connect 2 0 0 0;
#X connect 2 0 10 0;
#X connect 3 0 1 0;
#X connect 4 0 2 0;
#X connect 5 0 7 1;
#X connect 6 0 7 0;
#X connect 7 0 8 0;
#X connect 8 0 2 0;
#X connect 8 1 9 0;
#X connect 9 0 5 0;
#X connect 11 0 7 0;
#X coords 0 -1 1 1 51 18 2 100 100;
#X restore 603 10 pd set_midi;
#N canvas 813 496 450 300 set_midi 0;
#X msg 101 122 set \$1;
#X msg 71 140 7;
#X floatatom 101 101 5 0 0 0 - - -;
#X obj 23 123 r lb;
#X obj 101 79 change;
#X obj 135 102 tgl 15 0 empty empty empty 17 7 0 10 -262144 -1 -1 0
1;
#X obj 181 36 r midi;
#X obj 181 58 spigot;
#X obj 181 84 t f b;
#X msg 232 101 0;
#X obj 244 41 r knob;
#X obj 101 157 s bpm;
#X text 20 181 The number atom contains the MIDI note or control number
that is used to manage the parameter this subpatch is related to \,
via its send object at the bottom of this mini arrange. This subpatch
also enables the automatic learning of the number by turning the toggle
on and pressing of moving a control in the MIDI surface. Then the number
is stored and the toggle turned off automatically.;
#X connect 0 0 1 0;
#X connect 1 0 4 0;
#X connect 1 0 11 0;
#X connect 2 0 0 0;
#X connect 2 0 11 0;
#X connect 3 0 1 0;
#X connect 4 0 2 0;
#X connect 5 0 7 1;
#X connect 6 0 7 0;
#X connect 7 0 8 0;
#X connect 8 0 2 0;
#X connect 8 1 9 0;
#X connect 9 0 5 0;
#X connect 10 0 7 0;
#X coords 0 -1 1 1 51 18 2 100 100;
#X restore 369 10 pd set_midi;
#N canvas 327 255 450 300 set_midi 0;
#X msg 101 122 set \$1;
#X msg 71 140 43;
#X floatatom 101 101 5 0 0 0 - - -;
#X obj 23 122 r lb;
#X obj 101 79 change;
#X obj 135 102 tgl 15 0 empty empty empty 17 7 0 10 -262144 -1 -1 0
1;
#X obj 181 36 r midi;
#X obj 181 58 spigot;
#X obj 181 84 t f b;
#X msg 232 101 0;
#X obj 101 157 s onoff;
#X obj 249 41 r knob;
#X text 66 183 The number atom contains the MIDI note or control number
that is used to manage the parameter this subpatch is related to \,
via its send object at the bottom of this mini arrange. This subpatch
also enables the automatic learning of the number by turning the toggle
on and pressing of moving a control in the MIDI surface. Then the number
is stored and the toggle turned off automatically.;
#X connect 0 0 1 0;
#X connect 1 0 4 0;
#X connect 1 0 10 0;
#X connect 2 0 0 0;
#X connect 2 0 10 0;
#X connect 3 0 1 0;
#X connect 4 0 2 0;
#X connect 5 0 7 1;
#X connect 6 0 7 0;
#X connect 7 0 8 0;
#X connect 8 0 2 0;
#X connect 8 1 9 0;
#X connect 9 0 5 0;
#X connect 11 0 7 0;
#X coords 0 -1 1 1 51 18 2 100 100;
#X restore 114 9 pd set_midi;
#N canvas 74 297 498 595 io_metronome 0;
#X floatatom 188 250 5 0 0 0 - - -;
#X text 146 250 b.p.m.;
#X floatatom 100 290 5 0 0 0 - - -;
#X obj 100 266 expr (60/$f1)*1000;
#X obj 49 308 metro 500;
#X obj 49 275 tgl 15 0 empty empty empty 17 7 0 10 -262144 -1 -1 1
1;
#X obj 49 203 r lb;
#X obj 10 331 osc~ 300;
#X obj 10 373 *~;
#X msg 49 419 0;
#X obj 49 395 del 50;
#X obj 114 325 s metro;
#X obj 326 296 / 127;
#X obj 326 316 pack 0 50;
#X obj 326 337 line~;
#X obj 311 390 *~;
#N canvas 890 211 368 198 volMt 0;
#X obj 190 -106 r knob;
#X msg 190 -64 1;
#X msg 217 -64 0;
#X obj 149 -47 spigot;
#X obj 149 -94 r kVal;
#X obj 97 -75 r lb;
#X obj 149 -13 outlet;
#X obj 190 -84 sel 6;
#X obj 244 -101 inlet;
#X msg 97 -30 0;
#X connect 0 0 7 0;
#X connect 1 0 3 1;
#X connect 2 0 3 1;
#X connect 3 0 6 0;
#X connect 4 0 3 0;
#X connect 5 0 9 0;
#X connect 7 0 1 0;
#X connect 7 1 2 0;
#X connect 8 0 7 1;
#X connect 9 0 6 0;
#X restore 326 220 pd volMt;
#X obj 326 200 r vmt;
#N canvas 204 135 368 198 bpm 0;
#X obj 190 -106 r knob;
#X obj 190 -84 sel 1;
#X msg 190 -64 1;
#X msg 217 -64 0;
#X obj 149 -47 spigot;
#X obj 149 -94 r kVal;
#X obj 97 -75 r lb;
#X obj 149 -13 outlet;
#X msg 97 -30 63;
#X obj 238 -101 inlet;
#X connect 0 0 1 0;
#X connect 1 0 2 0;
#X connect 1 1 3 0;
#X connect 2 0 4 1;
#X connect 3 0 4 1;
#X connect 4 0 7 0;
#X connect 5 0 4 0;
#X connect 6 0 8 0;
#X connect 8 0 7 0;
#X connect 9 0 1 1;
#X restore 101 233 pd bpm;
#X obj 101 192 r bpm;
#X obj 329 250 hsl 128 15 0 127 0 0 empty empty empty -2 -8 0 10 -262144
-1 -1 0 1;
#X text 293 249 Gain;
#X msg 188 221 120;
#X obj 188 193 r lb;
#X obj 311 414 s~ metronome;
#X obj 76 96 r mtonoff;
#X floatatom 132 214 5 0 0 0 - - -;
#X msg 49 225 1;
#X obj 76 125 tgl 15 0 empty empty empty 17 7 0 10 -262144 -1 -1 0
1;
#X floatatom 76 357 5 0 0 0 - - -;
#X text 66 475 Receives MIDI ctl values from [ctlin] and selects it
depending on the learnt MIDI channel \, controls the gain of the metronome
and also the Beats Per Minute of it. The signal of the metronome is
sent using [s~ metronome] to the [pd dacoutput] subpatch to be sent
to the DAC.;
#X connect 0 0 3 0;
#X connect 2 0 4 1;
#X connect 3 0 2 0;
#X connect 4 0 10 0;
#X connect 4 0 11 0;
#X connect 4 0 29 0;
#X connect 5 0 4 0;
#X connect 6 0 27 0;
#X connect 7 0 8 0;
#X connect 8 0 15 0;
#X connect 9 0 8 1;
#X connect 10 0 9 0;
#X connect 12 0 13 0;
#X connect 13 0 14 0;
#X connect 14 0 15 1;
#X connect 15 0 24 0;
#X connect 16 0 20 0;
#X connect 17 0 16 0;
#X connect 18 0 0 0;
#X connect 19 0 18 0;
#X connect 19 0 26 0;
#X connect 20 0 12 0;
#X connect 22 0 0 0;
#X connect 23 0 22 0;
#X connect 25 0 28 0;
#X connect 27 0 5 0;
#X connect 28 0 29 0;
#X connect 29 0 8 1;
#X coords 0 -1 1 1 315 16 2 145 250;
#X restore 284 11 pd io_metronome;
#X text 219 11 Metronome;
#X text 631 -10 Learn;
#X text 599 -10 MIDI;
#X text 398 -8 Learn;
#X text 367 -8 MIDI;
#N canvas 761 699 442 306 io_dsponoff 0;
#N canvas 810 702 450 300 io_alternate 0;
#X obj 145 39 +;
#X msg 145 10 1;
#X floatatom 175 39 5 0 0 0 - - -;
#X msg 224 22 0;
#X obj 224 55 select 2;
#X obj 145 85 bng 15 250 50 0 empty empty empty 17 7 0 10 -262144 -1
-1;
#X obj 190 86 bng 15 250 50 0 empty empty empty 17 7 0 10 -262144 -1
-1;
#X obj 145 63 select 1;
#X obj 145 159 outlet;
#X obj 190 159 outlet;
#X obj 145 -19 inlet;
#X obj 224 -19 inlet;
#X connect 0 0 2 0;
#X connect 0 0 7 0;
#X connect 1 0 0 0;
#X connect 2 0 0 1;
#X connect 2 0 4 0;
#X connect 3 0 2 0;
#X connect 4 0 3 0;
#X connect 5 0 8 0;
#X connect 6 0 9 0;
#X connect 7 0 5 0;
#X connect 7 1 6 0;
#X connect 10 0 1 0;
#X connect 11 0 3 0;
#X restore 62 48 pd io_alternate;
#X obj 62 3 r midi;
#X obj 61 68 bng 15 250 50 0 empty empty empty 17 7 0 10 -262144 -1
-1;
#X obj 149 68 bng 15 250 50 0 empty empty empty 17 7 0 10 -262144 -1
-1;
#X obj 62 27 select 43;
#X obj 113 5 r onoff;
#X msg 77 83 1;
#X msg 121 83 0;
#X obj 100 100 tgl 15 0 empty empty empty 17 7 0 10 -262144 -1 -1 1
1;
#X msg 100 162 \; pd dsp \$1;
#X obj 192 51 r lb;
#X text 40 207 Toggle DSP on and off \, receives its trigger from a
MIDI controller \, which note is received on [r onoff] frm its correspongind
MIDI learnt value in the object next to this subpatch \, out in the
front GUI;
#X connect 0 0 2 0;
#X connect 0 1 3 0;
#X connect 1 0 4 0;
#X connect 2 0 6 0;
#X connect 3 0 7 0;
#X connect 4 0 0 0;
#X connect 5 0 4 1;
#X connect 6 0 8 0;
#X connect 7 0 8 0;
#X connect 8 0 9 0;
#X connect 10 0 3 0;
#X coords 0 -1 1 1 15 15 2 100 100;
#X restore 80 10 pd io_dsponoff;
#X text 48 9 DSP;
#X text 143 -9 Learn;
#X text 112 -9 MIDI;
#X obj 692 -10 cnv 15 200 269 empty empty General_Control 20 12 0 14
-203904 -66577 0;
#N canvas 813 496 450 300 set_midi 0;
#X msg 101 122 set \$1;
#X msg 71 140 49;
#X floatatom 101 101 5 0 0 0 - - -;
#X obj 23 122 r lb;
#X obj 101 79 change;
#X obj 135 102 tgl 15 0 empty empty empty 17 7 0 10 -262144 -1 -1 0
1;
#X obj 181 36 r midi;
#X obj 181 58 spigot;
#X obj 181 84 t f b;
#X msg 232 101 0;
#X obj 101 157 s sr;
#X obj 245 41 r knob;
#X text 32 185 The number atom contains the MIDI note or control number
that is used to manage the parameter this subpatch is related to \,
via its send object at the bottom of this mini arrange. This subpatch
also enables the automatic learning of the number by turning the toggle
on and pressing of moving a control in the MIDI surface. Then the number
is stored and the toggle turned off automatically.;
#X connect 0 0 1 0;
#X connect 1 0 4 0;
#X connect 1 0 10 0;
#X connect 2 0 0 0;
#X connect 2 0 10 0;
#X connect 3 0 1 0;
#X connect 4 0 2 0;
#X connect 5 0 7 1;
#X connect 6 0 7 0;
#X connect 7 0 8 0;
#X connect 8 0 2 0;
#X connect 8 1 9 0;
#X connect 9 0 5 0;
#X connect 11 0 7 0;
#X coords 0 -1 1 1 51 18 2 100 100;
#X restore 823 34 pd set_midi;
#N canvas 813 496 450 300 set_midi 0;
#X msg 101 122 set \$1;
#X msg 71 140 50;
#X floatatom 101 101 5 0 0 0 - - -;
#X obj 23 122 r lb;
#X obj 101 79 change;
#X obj 135 102 tgl 15 0 empty empty empty 17 7 0 10 -262144 -1 -1 0
1;
#X obj 181 36 r midi;
#X obj 181 58 spigot;
#X obj 181 84 t f b;
#X msg 232 101 0;
#X obj 101 157 s sp;
#X obj 236 41 r knob;
#X text 42 195 The number atom contains the MIDI note or control number
that is used to manage the parameter this subpatch is related to \,
via its send object at the bottom of this mini arrange. This subpatch
also enables the automatic learning of the number by turning the toggle
on and pressing of moving a control in the MIDI surface. Then the number
is stored and the toggle turned off automatically.;
#X connect 0 0 1 0;
#X connect 1 0 4 0;
#X connect 1 0 10 0;
#X connect 2 0 0 0;
#X connect 2 0 10 0;
#X connect 3 0 1 0;
#X connect 4 0 2 0;
#X connect 5 0 7 1;
#X connect 6 0 7 0;
#X connect 7 0 8 0;
#X connect 8 0 2 0;
#X connect 8 1 9 0;
#X connect 9 0 5 0;
#X connect 11 0 7 0;
#X coords 0 -1 1 1 51 18 2 100 100;
#X restore 823 64 pd set_midi;
#N canvas 813 496 450 300 set_midi 0;
#X msg 101 122 set \$1;
#X msg 71 140 51;
#X floatatom 101 101 5 0 0 0 - - -;
#X obj 23 122 r lb;
#X obj 101 79 change;
#X obj 135 102 tgl 15 0 empty empty empty 17 7 0 10 -262144 -1 -1 0
1;
#X obj 181 36 r midi;
#X obj 181 58 spigot;
#X obj 181 84 t f b;
#X msg 232 101 0;
#X obj 101 157 s rs;
#X obj 239 41 r knob;
#X text 52 205 The number atom contains the MIDI note or control number
that is used to manage the parameter this subpatch is related to \,
via its send object at the bottom of this mini arrange. This subpatch
also enables the automatic learning of the number by turning the toggle
on and pressing of moving a control in the MIDI surface. Then the number
is stored and the toggle turned off automatically.;
#X connect 0 0 1 0;
#X connect 1 0 4 0;
#X connect 1 0 10 0;
#X connect 2 0 0 0;
#X connect 2 0 10 0;
#X connect 3 0 1 0;
#X connect 4 0 2 0;
#X connect 5 0 7 1;
#X connect 6 0 7 0;
#X connect 7 0 8 0;
#X connect 8 0 2 0;
#X connect 8 1 9 0;
#X connect 9 0 5 0;
#X connect 11 0 7 0;
#X coords 0 -1 1 1 51 18 2 100 100;
#X restore 823 95 pd set_midi;
#X text 853 13 Learn;
#X text 822 13 MIDI;
#N canvas 813 496 450 300 set_midi 0;
#X msg 101 122 set \$1;
#X msg 71 140 42;
#X floatatom 101 101 5 0 0 0 - - -;
#X obj 23 122 r lb;
#X obj 101 79 change;
#X obj 135 102 tgl 15 0 empty empty empty 17 7 0 10 -262144 -1 -1 0
1;
#X obj 181 36 r midi;
#X obj 181 58 spigot;
#X obj 181 84 t f b;
#X msg 232 101 0;
#X obj 101 157 s mon;
#X obj 253 41 r knob;
#X text 56 183 The number atom contains the MIDI note or control number
that is used to manage the parameter this subpatch is related to \,
via its send object at the bottom of this mini arrange. This subpatch
also enables the automatic learning of the number by turning the toggle
on and pressing of moving a control in the MIDI surface. Then the number
is stored and the toggle turned off automatically.;
#X connect 0 0 1 0;
#X connect 1 0 4 0;
#X connect 1 0 10 0;
#X connect 2 0 0 0;
#X connect 2 0 10 0;
#X connect 3 0 1 0;
#X connect 4 0 2 0;
#X connect 5 0 7 1;
#X connect 6 0 7 0;
#X connect 7 0 8 0;
#X connect 8 0 2 0;
#X connect 8 1 9 0;
#X connect 9 0 5 0;
#X connect 11 0 7 0;
#X coords 0 -1 1 1 51 18 2 100 100;
#X restore 824 126 pd set_midi;
#N canvas 966 273 450 300 Controls 0;
#N canvas 1029 603 301 220 io_midiIN 0;
#X obj 68 -72 notein;
#X obj 68 26 spigot;
#X floatatom 68 3 5 0 0 0 - - -;
#X floatatom 68 52 5 0 0 0 - - -;
#X obj 68 77 outlet;
#X connect 0 0 2 0;
#X connect 0 1 1 1;
#X connect 1 0 3 0;
#X connect 2 0 1 0;
#X connect 3 0 4 0;
#X restore -568 93 pd io_midiIN;
#X obj -568 134 s midi;
#X floatatom -444 115 3 0 0 0 - - -;
#X floatatom -474 114 3 0 0 0 - - -;
#X obj -474 94 ctlin;
#X obj -444 136 s knob;
#X obj -474 157 s kVal;
#X floatatom -568 113 5 0 0 0 - - -;
#X obj -372 93 loadbang;
#X obj -372 117 s lb;
#X connect 0 0 7 0;
#X connect 2 0 5 0;
#X connect 3 0 6 0;
#X connect 4 0 3 0;
#X connect 4 1 2 0;
#X connect 7 0 1 0;
#X connect 8 0 9 0;
#X restore 698 221 pd Controls;
#N canvas 153 32 377 294 adcinput 0;
#X obj 11 78 adc~ 1;
#X obj 11 163 s~ audioinput;
#X obj 26 99 r~ inputGain;
#X obj 11 121 *~;
#X text 8 195 Audio from selectec input \, multiplied by a gain value
coming from the slider in the front GUI. The input is sent to both
the tracks and directly to the output as to monitor.;
#X obj 95 138 *~;
#X obj 110 114 r toggleInput;
#X obj 95 164 s~ monitorInput;
#X connect 0 0 3 0;
#X connect 2 0 3 1;
#X connect 3 0 1 0;
#X connect 3 0 5 0;
#X connect 5 0 7 0;
#X connect 6 0 5 1;
#X restore 781 241 pd adcinput;
#N canvas 1084 434 450 300 dacoutput 0;
#X obj 100 131 r~ masteraudio;
#X obj 139 176 dac~;
#X text 42 225 Final step \, all the audio from the tracks \, input
monitor and metronome converges here from the Master track subpatch.
The gain is applied in the same subpatch.;
#X obj 193 131 r~ metronome;
#X connect 0 0 1 0;
#X connect 0 0 1 1;
#X connect 3 0 1 0;
#X connect 3 0 1 1;
#X restore 698 241 pd dacoutput;
#X text 912 -12 This 4 Track Looper will pick up the sound from the
microphone and direct it to 4 different tracks. This microphone input
can easily be changed to another audio input in the subpatch [adcinput].
;
#X text 913 49 The input signal will feed in parallel to these 4 trackas.
Each of which has a dedicated MIDI input which can be assigned by clicking
on the "Learn" toggle and then pressing the actual button in your MIDI
controller. These midi messages will control the start and stop of
recording or playback of the tracks. The "push" functions \, such as
record and playback on/off are taken from note MIDI messages using
the [notein] object \, while the value changing controls such as gains
that would come from a knob in the MIDI controller are taken from the
[ctl] object.;
#X text 914 188 Finally \, thses tracks converge into a master track
with also MIDI inputs enabled \, to start and stop recording or playback.
;
#X text 915 236 The audio is stored into wav files saved in the same
folder where the patch lies.;
#N canvas 813 496 450 300 set_midi 0;
#X msg 101 122 set \$1;
#X msg 71 140 41;
#X floatatom 101 101 5 0 0 0 - - -;
#X obj 23 122 r lb;
#X obj 101 79 change;
#X obj 135 102 tgl 15 0 empty empty empty 17 7 0 10 -262144 -1 -1 0
1;
#X obj 181 36 r midi;
#X obj 181 58 spigot;
#X obj 181 84 t f b;
#X msg 232 101 0;
#X obj 101 157 s mttoggle;
#X obj 237 41 r knob;
#X text 50 184 The number atom contains the MIDI note or control number
that is used to manage the parameter this subpatch is related to \,
via its send object at the bottom of this mini arrange. This subpatch
also enables the automatic learning of the number by turning the toggle
on and pressing of moving a control in the MIDI surface. Then the number
is stored and the toggle turned off automatically.;
#X connect 0 0 1 0;
#X connect 1 0 4 0;
#X connect 1 0 10 0;
#X connect 2 0 0 0;
#X connect 2 0 10 0;
#X connect 3 0 1 0;
#X connect 4 0 2 0;
#X connect 5 0 7 1;
#X connect 6 0 7 0;
#X connect 7 0 8 0;
#X connect 8 0 2 0;
#X connect 8 1 9 0;
#X connect 9 0 5 0;
#X connect 11 0 7 0;
#X coords 0 -1 1 1 51 18 2 100 100;
#X restore 824 154 pd set_midi;
#X text 919 351 TODO: Send MIDI messages back to notice the controller
of the initial values of the parameters here. This can be bypassed
if a relative value is sent from the controller \, as opposed to an
absolute one;
#N canvas 1104 689 450 300 masterStopRec 0;
#X obj 100 118 s stoprec;
#X obj 100 100 bng 15 250 50 0 empty empty empty 17 7 0 10 -262144
-1 -1;
#X text 99 33 stop recording;
#X obj 100 55 r midi;
#X obj 100 81 select 49;
#X obj 151 54 r sr;
#X text 66 146 Bang reacting only to the MIDI channel set by its learnt
value;
#X connect 1 0 0 0;
#X connect 3 0 4 0;
#X connect 4 0 1 0;
#X connect 5 0 4 1;
#X coords 0 -1 1 1 15 15 2 100 100;
#X restore 797 36 pd masterStopRec;
#X text 710 35 Stop Rec ALL;
#N canvas 1204 545 450 300 masterStopPlay 0;
#X obj 100 117 s stopplay;
#X obj 100 100 bng 15 250 50 0 empty empty empty 17 7 0 10 -262144
-1 -1;
#X text 92 32 stop playback;
#X obj 100 56 r midi;
#X obj 100 80 select 50;
#X obj 151 57 r sp;
#X text 73 156 Bang reacting only to the MIDI channel set by its learnt
value;
#X connect 1 0 0 0;
#X connect 3 0 4 0;
#X connect 4 0 1 0;
#X connect 5 0 4 1;
#X coords 0 -1 1 1 15 15 2 100 100;
#X restore 798 66 pd masterStopPlay;
#X text 705 65 Stop Play ALL;
#N canvas 1217 595 450 300 resetAll 0;
#X obj 100 118 s reset;
#X obj 100 57 r midi;
#X obj 100 100 bng 15 250 50 0 empty empty empty 17 7 0 10 -262144
-1 -1;
#X obj 151 58 r rs;
#X obj 100 81 select 51;
#X text 99 20 reset tracks;
#X text 100 32 file counters;
#X text 75 153 Bang reacting only to the MIDI channel set by its learnt
value;
#X connect 1 0 4 0;
#X connect 2 0 0 0;
#X connect 3 0 4 1;
#X connect 4 0 2 0;
#X coords 0 -1 1 1 15 15 2 100 100;
#X restore 798 96 pd resetAll;
#X text 729 96 Reset ALL;
#N canvas 551 787 469 294 monitor 0;
#N canvas 810 702 450 300 io_alternate 0;
#X obj 145 39 +;
#X msg 145 10 1;
#X floatatom 175 39 5 0 0 0 - - -;
#X msg 224 22 0;
#X obj 224 55 select 2;
#X obj 145 85 bng 15 250 50 0 empty empty empty 17 7 0 10 -262144 -1
-1;
#X obj 190 86 bng 15 250 50 0 empty empty empty 17 7 0 10 -262144 -1
-1;
#X obj 145 63 select 1;
#X obj 145 159 outlet;
#X obj 190 159 outlet;
#X obj 145 -19 inlet;
#X obj 224 -19 inlet;
#X connect 0 0 2 0;
#X connect 0 0 7 0;
#X connect 1 0 0 0;
#X connect 2 0 0 1;
#X connect 2 0 4 0;
#X connect 3 0 2 0;
#X connect 4 0 3 0;
#X connect 5 0 8 0;
#X connect 6 0 9 0;
#X connect 7 0 5 0;
#X connect 7 1 6 0;
#X connect 10 0 1 0;
#X connect 11 0 3 0;
#X restore 62 48 pd io_alternate;
#X obj 62 3 r midi;
#X obj 61 68 bng 15 250 50 0 empty empty empty 17 7 0 10 -262144 -1
-1;
#X obj 149 68 bng 15 250 50 0 empty empty empty 17 7 0 10 -262144 -1
-1;
#X obj 62 27 select 43;
#X msg 77 83 1;
#X msg 121 83 0;
#X obj 100 100 tgl 15 0 empty empty empty 17 7 0 10 -262144 -1 -1 1
1;
#X obj 113 5 r mon;
#X obj 100 124 s toggleInput;
#X text 38 164 Toggle input on and off. The value of this toggle is
sent to the [adcinput] subpatch where it is used to multiply by the
input signal and turn it on or off.;
#X connect 0 0 2 0;
#X connect 0 1 3 0;
#X connect 1 0 4 0;
#X connect 2 0 5 0;
#X connect 3 0 6 0;
#X connect 4 0 0 0;
#X connect 5 0 7 0;
#X connect 6 0 7 0;
#X connect 7 0 9 0;
#X connect 8 0 4 1;
#X coords 0 -1 1 1 15 15 2 100 100;
#X restore 798 127 pd monitor;
#X text 705 126 Monitor Input;
#N canvas 1028 774 450 300 monitor 0;
#N canvas 810 702 450 300 io_alternate 0;
#X obj 145 39 +;
#X msg 145 10 1;
#X floatatom 175 39 5 0 0 0 - - -;
#X msg 224 22 0;
#X obj 224 55 select 2;
#X obj 145 85 bng 15 250 50 0 empty empty empty 17 7 0 10 -262144 -1
-1;
#X obj 190 86 bng 15 250 50 0 empty empty empty 17 7 0 10 -262144 -1
-1;
#X obj 145 63 select 1;
#X obj 145 159 outlet;
#X obj 190 159 outlet;
#X obj 145 -19 inlet;
#X obj 224 -19 inlet;
#X connect 0 0 2 0;
#X connect 0 0 7 0;
#X connect 1 0 0 0;
#X connect 2 0 0 1;
#X connect 2 0 4 0;
#X connect 3 0 2 0;
#X connect 4 0 3 0;
#X connect 5 0 8 0;
#X connect 6 0 9 0;
#X connect 7 0 5 0;
#X connect 7 1 6 0;
#X connect 10 0 1 0;
#X connect 11 0 3 0;
#X restore 62 48 pd io_alternate;
#X obj 62 3 r midi;
#X obj 61 68 bng 15 250 50 0 empty empty empty 17 7 0 10 -262144 -1
-1;
#X obj 149 68 bng 15 250 50 0 empty empty empty 17 7 0 10 -262144 -1
-1;
#X obj 62 27 select 43;
#X msg 77 83 1;
#X msg 121 83 0;
#X obj 100 100 tgl 15 0 empty empty empty 17 7 0 10 -262144 -1 -1 0
1;
#X obj 100 121 s mtonoff;
#X obj 113 5 r mttoggle;
#X text 65 154 Toggle metronome on and off. The value of this toggle
is sent to the Metronome Gain GUI slider subpatch in order to aggregate
its cue to the main track mix.;
#X connect 0 0 2 0;
#X connect 0 1 3 0;
#X connect 1 0 4 0;
#X connect 2 0 5 0;
#X connect 3 0 6 0;
#X connect 4 0 0 0;
#X connect 5 0 7 0;
#X connect 6 0 7 0;
#X connect 7 0 8 0;
#X connect 9 0 4 1;
#X coords 0 -1 1 1 15 15 2 100 100;
#X restore 798 155 pd monitor;
#X text 693 154 MetronomeOn/Off;
#N canvas 813 496 450 300 set_midi 0;
#X msg 101 122 set \$1;
#X msg 71 140 73;
#X floatatom 101 101 5 0 0 0 - - -;
#X obj 23 122 r lb;
#X obj 101 79 change;
#X obj 135 102 tgl 15 0 empty empty empty 17 7 0 10 -262144 -1 -1 0
1;
#X obj 181 36 r midi;
#X obj 181 58 spigot;
#X obj 181 84 t f b;
#X msg 232 101 0;
#X obj 258 41 r knob;
#X obj 101 157 s vInput;
#X text 35 186 The number atom contains the MIDI note or control number
that is used to manage the parameter this subpatch is related to \,
via its send object at the bottom of this mini arrange. This subpatch
also enables the automatic learning of the number by turning the toggle
on and pressing of moving a control in the MIDI surface. Then the number
is stored and the toggle turned off automatically.;
#X connect 0 0 1 0;
#X connect 1 0 4 0;
#X connect 1 0 11 0;
#X connect 2 0 0 0;
#X connect 2 0 11 0;
#X connect 3 0 1 0;
#X connect 4 0 2 0;
#X connect 5 0 7 1;
#X connect 6 0 7 0;
#X connect 7 0 8 0;
#X connect 8 0 2 0;
#X connect 8 1 9 0;
#X connect 9 0 5 0;
#X connect 10 0 7 0;
#X coords 0 -1 1 1 51 18 2 100 100;
#X restore 603 233 pd set_midi;
#N canvas 136 783 466 299 io_gain 0;
#X obj 111 128 / 127;
#X obj 111 148 pack 0 50;
#X obj 111 172 line~;
#X obj 184 113 hsl 128 15 0 127 0 0 empty empty empty -2 -8 0 10 -262144
-1 -1 12600 1;
#X text 92 238 Receives MIDI ctl values from [ctlin] and selects it
depending on the learnt MIDI channel \, controls the gain of a given
track;
#N canvas 892 144 368 198 volIn 0;
#X obj 190 -106 r knob;
#X obj 190 -84 sel 1;
#X msg 190 -64 1;
#X msg 217 -64 0;
#X obj 149 -47 spigot;
#X obj 149 -94 r kVal;
#X obj 97 -75 r lb;
#X obj 149 -13 outlet;
#X msg 97 -30 63;
#X obj 238 -101 inlet;
#X connect 0 0 1 0;
#X connect 1 0 2 0;
#X connect 1 1 3 0;
#X connect 2 0 4 1;
#X connect 3 0 4 1;
#X connect 4 0 7 0;
#X connect 5 0 4 0;
#X connect 6 0 8 0;
#X connect 8 0 7 0;
#X connect 9 0 1 1;
#X restore 181 71 pd volIn;
#X obj 111 197 s~ inputGain;
#X obj 181 54 r vInput;
#X connect 0 0 1 0;
#X connect 1 0 2 0;
#X connect 2 0 6 0;
#X connect 3 0 0 0;
#X connect 5 0 3 0;
#X connect 7 0 5 0;
#X coords 0 -1 1 1 135 15 2 180 113;
#X restore 465 235 pd io_gain;
#X text 432 233 Gain;
#X text 389 233 Input;
