#N canvas 201 22 969 650 10;
#X declare -path data/;
#X declare -path dsp/;
#X declare -path dsp/rj/;
#X declare -path dsp/rj/;
#X declare -path dsp/rj/;
#X declare -path dsp/rj/;
#X declare -path dsp/rj/;
#X declare -path dsp/rj/;
#X msg 400 -54 clear;
#X obj 100 116 hradio 15 1 0 12 \$0hr_0_s \$0hr_0_r 2d.space 2 8 1
10 -1 -1 -262140 0;
#X obj 100 131 hradio 15 1 0 12 \$0hr_1_s \$0hr_1_r table.contours
2 8 1 10 -1 -1 -262140 0;
#X obj 100 146 hradio 15 1 0 12 \$0hr_2_s \$0hr_2_r dsp.control 2 8
1 10 -1 -1 -262140 0;
#X obj 100 161 hradio 15 1 0 12 \$0hr_3_s \$0hr_3_r preset.cntrl 2
8 1 10 -1 -1 -262140 0;
#X obj 100 177 hradio 15 1 0 12 \$0hr_4_s \$0hr_4_r connections 2 8
1 10 -1 -1 -262140 2;
#X obj 100 191 hradio 15 1 0 12 \$0hr_5_s \$0hr_5_r algorithms 2 8
1 10 -1 -1 -262140 0;
#X obj 100 206 hradio 15 1 0 12 \$0hr_6_s \$0hr_6_r vu 2 8 1 10 -1
-1 -258049 0;
#X obj 100 221 hradio 15 1 0 12 \$0hr_7_s \$0hr_7_r pduino 2 8 1 10
-1 -1 -262140 0;
#X obj 294 -37 mtl/gBrowser \$0;
#X obj 100 100 cnv 15 197 15 empty \$0hider empty 3 9 0 9 -228856 -86277
0;
#X obj 381 -121 loadbang;
#X msg 182 -54 text.font 1 10;
#X floatatom 381 22 5 0 0 0 - - -;
#X msg 394 120 \; pd-contour vis 1 \;;
#X msg 449 298 \; pd-algorithms vis 1;
#X obj 381 43 sel 0 1 2 3 4 5 6 7 8;
#X obj 101 246 declare -path data/;
#N canvas 679 235 270 206 algorithms 0;
#X obj 12 94 rg.basic;
#X obj 12 34 rg.global;
#X text 12 68 Basic Algorithms;
#X obj 14 150 rg.matrix;
#X text 9 10 Main Algorithms;
#X text 12 126 GUI;
#X restore 100 271 pd algorithms;
#N canvas 409 130 408 410 contour 0;
#X obj -305 6 rg.tcontour;
#X restore 100 299 pd contour;
#N canvas 0 22 864 598 notes 0;
#X obj 514 414 cnv 15 100 20 empty empty thanks[2] 20 12 0 9 -1 -262144
0;
#X obj 537 465 cnv 15 120 20 empty empty brendan.mccloskey 0 12 0 9
-1 -262144 0;
#X obj 521 443 cnv 15 100 20 empty empty brian.bridges 20 12 0 9 -1
-262144 0;
#X obj 672 454 cnv 15 100 20 empty empty frank.lyons 20 12 0 9 -1 -262144
0;
#X obj 600 404 cnv 15 100 20 empty empty .mmb 20 12 0 9 -1 -262144
0;
#X obj 672 480 cnv 15 100 20 empty empty john.king 20 12 0 9 -1 -262144
0;
#X obj 646 428 cnv 15 100 20 empty empty laura.graham 20 12 0 9 -1
-262144 0;
#X obj 530 494 cnv 15 100 20 empty empty marco.donnarumma 0 12 0 9
-1 -262144 0;
#X obj 590 530 cnv 15 100 20 empty empty matthias.grob 20 12 0 9 -1
-262144 0;
#X obj 658 395 cnv 15 100 20 empty empty andy.butler 20 12 0 9 -1 -262144
0;
#X obj 628 364 cnv 15 100 20 empty empty john.harding 20 12 0 9 -1
-262144 0;
#X obj 662 508 cnv 15 100 20 empty empty john.mclachlan 0 12 0 9 -1
-262144 0;
#X obj 543 358 cnv 15 100 20 empty empty rolf.spuler 20 12 0 9 -1 -262144
0;
#X obj 540 385 cnv 15 100 20 empty empty STEIM 20 12 0 9 -1 -262144
0;
#N canvas 0 22 1280 752 dsp.readme 0;
#X text -61 64 (cc) rickygraham 2010 - 2011;
#X text -60 83 Acknowledgements .mmb;
#X text -47 -414 how does it effect voicings?;
#X text -47 -379 how does fusion affect memory of pitch sequence?;
#X text -47 -396 how does timing affect memory in pitch sequence?;
#X text -21 -250 Control of roughness of polyphonic system;
#X text -21 -230 Evidence of spatial attribute given greater pitch
space \, flux per string;
#X text -22 -273 [Reason for fuzz/distortion];
#X text -124 -506 [Reason for granular synthesis] at what grain size
to we get blurring \, integration \, a sense of "ensemble timbre" versus
fusion? See bregman. How does this effect pitch space \, the fusion
of certain harmonic partial configurations?;
#X text -22 -190 [Reason for ambipan~];
#X text -21 -171 Segregative and Interrative effects of spatial configurations.
(Henry Brant etc.);
#X text -20 -138 Hockets can be achieved etc.;
#X text -126 -610 [Reason for Filter];
#X text -123 -591 Entertaining idea of micro and macro pitch structure
- pre-attentive awareness of these structures as figurative gesture.
;
#X text -124 -549 Implementing PS data (harmonic space) into mapping
decisions);
#X text -23 -108 IMPLEMENT MAPPINGS BASED ON PERCEIVED AUDITORY RELATIONSHIPS
;
#X text -21 -91 WHEN UTILISING POLYPHONIC SYSTEM;
#X text -21 -68 A SYSTEM WHICH INTERROGATES EXISTING SCHEMA;
#X text -21 -50 ACCENTUATES EXISTING SCHEMA \, AND CONTRARY PROCESSES
;
#X text -55 -358 Grains can be perceived as a micro-structure amongst
a macro-structure (original audio signal) - See. Roads;
#X text 448 -411 [partch~];
#X text 447 -248 Octave - 2/1 Fifth - 2/3 - Offer no colour in voicings
(based on lesson with Mark McKnight in root and guide tone examples)
Fourth - 4/3 Thirds - 5/4 & 6/5 Sixths - 5/3 & 8/5 Natural Minor Seventh
- 7/4;
#X text 447 -181 e.g. harmonic series for A: 1) 440hz 2) 880hz 8ve
3) 1320hz 5th 4) 1760hz 8ve 5) 2200hz Major 3rd 6) 2640hz 5th 7) 3080hz
Minor 7th 440 hz = A 440/800 = 8ve (0.5) 1320/800 = 5th (1.5) 660/440
= 5th (1.5) *equivalent to example above 3080/400 - 4/7 = 2/3.5 = 1/1.75
;
#X text 448 -349 Not enhancing partials in source but extracting and
rebuilding harmonic series from source based on tracked pitch for comparison
of different partial structures;
#X text 446 -279 [Relating partials \, harmonic space to guitar voicings]
;
#X text 450 -376 [N.B - Purpose of this patch];
#X text 448 -81 [Notes];
#X text 450 -63 Nice sounds - select harmonic series for D#5 \, Source
= all;
#X text 451 -40 You can change freq of [vcf~] manually by dragging
number object (issue when vcf~ takes in two freq concurrently);
#X restore 643 324 pd dsp.readme;
#X restore 100 323 pd notes;
#X msg 731 60 \; pd-notes vis 1 \;;
#N canvas 116 136 1005 507 dspcontrol 0;
#X obj -326 -39 g_dsp.ctrl;
#X obj -299 440 hradio 10 1 0 3 s1.scene empty chain_scene_sel_s1 0
-8 0 9 -191407 -258113 -262144 0;
#X obj -162 441 hradio 10 1 0 3 s2.scene empty chain_scene_sel_s2 0
-8 0 9 -191407 -258113 -262144 0;
#X obj -25 441 hradio 10 1 0 3 s3.scene empty chain_scene_sel_s3 0
-8 0 9 -191407 -258113 -262144 0;
#X obj 114 441 hradio 10 1 0 3 s4.scene empty chain_scene_sel_s4 0
-8 0 9 -191407 -258113 -262144 0;
#X obj 256 441 hradio 10 1 0 3 s5.scene empty chain_scene_sel_s5 0
-8 0 9 -191407 -258113 -262144 0;
#X obj 395 440 hradio 10 1 0 3 s6.scene empty chain_scene_sel_s6 0
-8 0 9 -191407 -258113 -262144 0;
#X restore 100 349 pd dspcontrol;
#X msg 408 157 \; pd-dspcontrol vis 1 \;;
#N canvas 159 60 165 125 connections 0;
#X obj 27 65 declare -path dsp/;
#X obj 27 39 d_connections;
#X restore 100 373 pd connections;
#X obj 281 118 vsl 15 115 0 175 0 0 \$0slider_s \$0slider_r empty 0
-8 0 8 -1 -262144 -1 11400 0;
#X msg 435 251 \; pd-connections vis 1;
#X msg 381 -97 2d.space \, table.contours \, dsp.control \, preset.cntrl
\, connections \, algorithms \, vu \, pduino \, notes \, bang;
#N canvas 24 478 1253 211 space 0;
#N canvas 300 102 980 564 string1 0;
#X obj 115 106 grid asp 70 -1.5 1.5 70 -1.5 1.5 1 0.01 0.01 10 10 -829
-7;
#X obj 229 -87 r azi.1;
#X obj 153 -98 r dist.1;
#X text 146 34 X;
#X text 218 33 Y;
#X obj 159 39 pack f f;
#X text 54 -100 Radius/Distance;
#X text 285 -90 Angle/Azimuth;
#X floatatom 163 181 5 0 0 0 s.contour - -;
#X msg 159 59 values \$1 \$2;
#X obj 252 64 loadbang;
#X obj 229 -47 * 3.142;
#X obj 229 -25 / 180;
#X floatatom 153 -25 5 0 0 0 amplitude-> - -;
#X obj 159 9 poltocar;
#X obj 204 -8 t b f;
#X obj 45 164 r 1_icr;
#X msg 252 89 color 100 100 100;
#X obj 57 56 s gem_1;
#X obj 153 -48 * 1.41421;
#X obj 153 -65 / 10;
#X connect 1 0 11 0;
#X connect 2 0 20 0;
#X connect 5 0 9 0;
#X connect 5 0 18 0;
#X connect 9 0 0 0;
#X connect 10 0 17 0;
#X connect 11 0 12 0;
#X connect 12 0 15 0;
#X connect 13 0 14 0;
#X connect 14 0 5 1;
#X connect 14 1 5 0;
#X connect 15 0 13 0;
#X connect 15 1 14 1;
#X connect 16 0 8 0;
#X connect 17 0 0 0;
#X connect 19 0 13 0;
#X connect 20 0 19 0;
#X coords 0 -1 1 1 100 100 2 100 100;
#X restore -879 -48 pd string1;
#X obj -875 61 hsl 90 10 0 360 0 0 az.1 \$0-12736 empty -2 -8 0 10
-262144 -1 -1 0 1;
#X obj -875 84 hsl 90 10 0 10 0 0 ad.1 \$0-12736 empty -2 -8 0 10 -262144
-1 -1 0 1;
#X text -845 80 distance;
#X text -845 57 azimuth;
#X floatatom -778 57 5 0 0 1 degrees azi.1 -;
#X floatatom -778 84 5 0 0 1 distance dist.1 -;
#N canvas 300 22 980 564 string1 0;
#X obj 115 105 grid asp 70 -1.5 1.5 70 -1.5 1.5 1 0.01 0.01 10 10 -628
-9;
#X msg 115 73 values \$1 \$2;
#X obj 210 67 loadbang;
#X text 10 -76 Radius/Distance;
#X text 242 -76 Angle/Azimuth;
#X floatatom 162 181 5 0 0 0 s.contour - -;
#X obj 109 -74 r dist.2;
#X obj 185 -75 r azi.2;
#X obj 115 49 pack f f;
#X obj 109 -53 / 10;
#X obj 109 -36 * 1.41421;
#X obj 185 -35 * 3.142;
#X obj 185 -13 / 180;
#X obj 115 21 poltocar;
#X obj 160 4 t b f;
#X floatatom 115 -13 5 0 0 0 amplitude-> - -;
#X obj 40 164 r 2_icr;
#X msg 210 89 color 100 100 100;
#X obj 63 66 s gem_2;
#X connect 1 0 0 0;
#X connect 2 0 17 0;
#X connect 6 0 9 0;
#X connect 7 0 11 0;
#X connect 8 0 1 0;
#X connect 8 0 18 0;
#X connect 9 0 10 0;
#X connect 10 0 15 0;
#X connect 11 0 12 0;
#X connect 12 0 14 0;
#X connect 13 0 8 1;
#X connect 13 1 8 0;
#X connect 14 0 15 0;
#X connect 14 1 13 1;
#X connect 15 0 13 0;
#X connect 16 0 5 0;
#X connect 17 0 0 0;
#X coords 0 -1 1 1 100 100 2 100 100;
#X restore -678 -49 pd string1;
#N canvas 212 33 980 564 string1 0;
#X obj 115 105 grid asp 70 -1.5 1.5 70 -1.5 1.5 1 0.01 0.01 10 10 -423
-9;
#X obj 115 59 pack f f;
#X msg 115 81 values \$1 \$2;
#X obj 212 66 loadbang;
#X text 12 -58 Radius/Distance;
#X text 237 -60 Angle/Azimuth;
#X floatatom 164 181 5 0 0 0 s.contour - -;
#X obj 109 -58 r dist.3;
#X obj 185 -59 r azi.3;
#X obj 109 -21 * 1.41421;
#X obj 185 -20 * 3.142;
#X obj 185 2 / 180;
#X floatatom 109 2 5 0 0 0 amplitude-> - -;
#X obj 115 36 poltocar;
#X obj 160 19 t b f;
#X obj 54 164 r 3_icr;
#X msg 212 88 color 100 100 100;
#X obj 109 -38 / 10;
#X obj 46 76 s gem_3;
#X connect 1 0 2 0;
#X connect 1 0 18 0;
#X connect 2 0 0 0;
#X connect 3 0 16 0;
#X connect 7 0 17 0;
#X connect 8 0 10 0;
#X connect 9 0 12 0;
#X connect 10 0 11 0;
#X connect 11 0 14 0;
#X connect 12 0 13 0;
#X connect 13 0 1 1;
#X connect 13 1 1 0;
#X connect 14 0 12 0;
#X connect 14 1 13 1;
#X connect 15 0 6 0;
#X connect 16 0 0 0;
#X connect 17 0 9 0;
#X coords 0 -1 1 1 100 100 2 100 100;
#X restore -473 -49 pd string1;
#N canvas 300 219 980 564 string1 0;
#X obj 115 105 grid asp 70 -1.5 1.5 70 -1.5 1.5 1 0.01 0.01 10 10 -215
-9;
#X obj 115 44 pack f f;
#X msg 115 76 values \$1 \$2;
#X obj 230 66 loadbang;
#X text 17 -55 Radius/Distance;
#X text 240 -69 Angle/Azimuth;
#X floatatom 163 181 5 0 0 0 s.contour - -;
#X obj 115 -55 r dist.4;
#X obj 185 -68 r azi.4;
#X obj 115 -35 / 10;
#X obj 115 -15 * 1.41421;
#X obj 185 -29 * 3.142;
#X obj 185 -7 / 180;
#X floatatom 115 7 5 0 0 0 amplitude-> - -;
#X obj 115 27 poltocar;
#X obj 160 10 t b f;
#X obj 54 164 r 4_icr;
#X msg 230 88 color 100 100 100;
#X obj 47 61 s gem_4;
#X connect 1 0 2 0;
#X connect 1 0 18 0;
#X connect 2 0 0 0;
#X connect 3 0 17 0;
#X connect 7 0 9 0;
#X connect 8 0 11 0;
#X connect 9 0 10 0;
#X connect 10 0 13 0;
#X connect 11 0 12 0;
#X connect 12 0 15 0;
#X connect 13 0 14 0;
#X connect 14 0 1 1;
#X connect 14 1 1 0;
#X connect 15 0 13 0;
#X connect 15 1 14 1;
#X connect 16 0 6 0;
#X connect 17 0 0 0;
#X coords 0 -1 1 1 100 100 2 100 100;
#X restore -265 -49 pd string1;
#N canvas 212 33 980 564 string1 0;
#X obj 115 105 grid asp 70 -1.5 1.5 70 -1.5 1.5 1 0.01 0.01 10 10 -14
-11;
#X obj 115 52 pack f f;
#X msg 115 76 values \$1 \$2;
#X obj 232 66 loadbang;
#X text 12 -61 Radius/Distance;
#X text 237 -60 Angle/Azimuth;
#X floatatom 164 181 5 0 0 0 s.contour - -;
#X obj 115 -60 r dist.5;
#X obj 184 -60 r azi.5;
#X obj 115 -38 / 10;
#X obj 115 -21 * 1.41421;
#X obj 184 -21 * 3.142;
#X obj 184 1 / 180;
#X floatatom 115 2 5 0 0 0 amplitude-> - -;
#X obj 115 35 poltocar;
#X obj 159 18 t b f;
#X obj 54 164 r 5_icr;
#X msg 232 88 color 100 100 100;
#X obj 44 69 s gem_5;
#X connect 1 0 2 0;
#X connect 1 0 18 0;
#X connect 2 0 0 0;
#X connect 3 0 17 0;
#X connect 7 0 9 0;
#X connect 8 0 11 0;
#X connect 9 0 10 0;
#X connect 10 0 13 0;
#X connect 11 0 12 0;
#X connect 12 0 15 0;
#X connect 13 0 14 0;
#X connect 14 0 1 1;
#X connect 14 1 1 0;
#X connect 15 0 13 0;
#X connect 15 1 14 1;
#X connect 16 0 6 0;
#X connect 17 0 0 0;
#X coords 0 -1 1 1 100 100 2 100 100;
#X restore -64 -51 pd string1;
#N canvas 212 33 980 564 string1 0;
#X obj 115 105 grid asp 70 -1.5 1.5 70 -1.5 1.5 1 0.01 0.01 10 10 186
-10;
#X obj 114 53 pack f f;
#X msg 115 76 values \$1 \$2;
#X obj 267 66 loadbang;
#X text 17 -65 Radius/Distance;
#X text 238 -70 Angle/Azimuth;
#X floatatom 163 181 5 0 0 0 s.contour - -;
#X obj 114 -64 r dist.6;
#X obj 184 -64 r azi.6;
#X floatatom 184 -39 10 0 0 0 - - -;
#X obj 114 -39 / 10;
#X obj 114 -22 * 1.41421;
#X obj 184 -20 * 3.142;
#X obj 184 2 / 180;
#X floatatom 114 1 5 0 0 0 amplitude-> - -;
#X obj 114 36 poltocar;
#X obj 159 19 t b f;
#X obj 54 164 r 6_icr;
#X msg 267 88 color 100 100 100;
#X obj 36 70 s gem_6;
#X connect 1 0 2 0;
#X connect 1 0 19 0;
#X connect 2 0 0 0;
#X connect 3 0 18 0;
#X connect 7 0 10 0;
#X connect 8 0 9 0;
#X connect 9 0 12 0;
#X connect 10 0 11 0;
#X connect 11 0 14 0;
#X connect 12 0 13 0;
#X connect 13 0 16 0;
#X connect 14 0 15 0;
#X connect 15 0 1 1;
#X connect 15 1 1 0;
#X connect 16 0 14 0;
#X connect 16 1 15 1;
#X connect 17 0 6 0;
#X connect 18 0 0 0;
#X coords 0 -1 1 1 100 100 2 100 100;
#X restore 136 -50 pd string1;
#X obj -676 61 hsl 90 10 0 360 0 0 az.2 \$0-12736 empty -2 -8 0 10
-262144 -1 -1 0 1;
#X obj -676 84 hsl 90 10 0 10 0 0 ad.2 \$0-12736 empty -2 -8 0 10 -262144
-1 -1 0 1;
#X text -646 80 distance;
#X text -646 57 azimuth;
#X floatatom -579 57 5 0 0 1 degrees azi.2 -;
#X floatatom -579 84 5 0 0 1 distance dist.2 -;
#X obj -470 59 hsl 90 10 0 360 0 0 az.3 \$0-12736 empty -2 -8 0 10
-262144 -1 -1 0 1;
#X obj -470 82 hsl 90 10 0 10 0 0 ad.3 \$0-12736 empty -2 -8 0 10 -262144
-1 -1 0 1;
#X text -440 78 distance;
#X text -440 55 azimuth;
#X floatatom -373 55 5 0 0 1 degrees azi.3 -;
#X floatatom -373 82 5 0 0 1 distance dist.3 -;
#X obj -260 61 hsl 90 10 0 360 0 0 az.4 \$0-12736 empty -2 -8 0 10
-262144 -1 -1 0 1;
#X obj -260 84 hsl 90 10 0 10 0 0 ad.4 \$0-12736 empty -2 -8 0 10 -262144
-1 -1 0 1;
#X text -230 80 distance;
#X text -230 57 azimuth;
#X floatatom -163 57 5 0 0 1 degrees azi.4 -;
#X floatatom -163 84 5 0 0 1 distance dist.4 -;
#X obj -60 60 hsl 90 10 0 360 0 0 az.5 \$0-12736 empty -2 -8 0 10 -262144
-1 -1 0 1;
#X obj -60 83 hsl 90 10 0 10 0 0 ad.5 \$0-12736 empty -2 -8 0 10 -262144
-1 -1 0 1;
#X text -30 79 distance;
#X text -30 56 azimuth;
#X floatatom 37 56 5 0 0 1 degrees azi.5 -;
#X floatatom 37 83 5 0 0 1 distance dist.5 -;
#X obj 140 60 hsl 90 10 0 360 0 0 az.6 \$0-12736 empty -2 -8 0 10 -262144
-1 -1 0 1;
#X obj 140 83 hsl 90 10 0 10 0 0 ad.6 \$0-12736 empty -2 -8 0 10 -262144
-1 -1 0 1;
#X text 170 79 distance;
#X text 170 56 azimuth;
#X floatatom 237 56 5 0 0 1 degrees azi.6 -;
#X floatatom 237 83 5 0 0 1 distance dist.6 -;
#X obj -772 -48 cnv 15 20 20 empty empty empty 20 12 0 14 -1 -66577
0;
#X obj -571 -50 cnv 15 20 20 empty empty empty 20 12 0 14 -159808 -66577
0;
#X obj -366 -48 cnv 15 20 20 empty empty empty 20 12 0 14 -4160 -66577
0;
#X obj -160 -49 cnv 15 20 20 empty empty empty 20 12 0 14 -4032 -66577
0;
#X obj 43 -50 cnv 15 20 20 empty empty empty 20 12 0 14 -258113 -66577
0;
#X obj 245 -50 cnv 15 20 20 empty empty empty 20 12 0 14 -4034 -66577
0;
#X obj -911 -76 cnv 15 1250 20 empty empty space 5 10 0 9 -1 -262144
0;
#X obj -911 111 cnv 15 1250 20 empty empty empty 5 10 0 9 -1 -262144
0;
#X obj -772 -21 tgl 10 0 s1.sg.ks \$0-32678 manual 17 5 0 9 -1 -191407
-1 0 1;
#X obj -571 -26 tgl 10 0 s2.sg.ks \$0-32678 manual 17 5 0 9 -1 -191407
-1 0 1;
#X obj -366 -25 tgl 10 0 s3.sg.ks \$0-32678 manual 17 5 0 9 -1 -191407
-1 0 1;
#X obj -160 -27 tgl 10 0 s4.sg.ks \$0-32678 manual 17 5 0 9 -1 -191407
-1 0 1;
#X obj 43 -27 tgl 10 0 s5.sg.ks \$0-32678 manual 17 5 0 9 -1 -191407
-1 0 1;
#X obj 245 -26 tgl 10 0 s6.sg.ks \$0-32678 manual 17 5 0 9 -1 -191407
-1 0 1;
#N canvas 222 351 957 314 default.settings 0;
#X obj 107 105 bng 10 250 50 0 empty empty default 17 5 0 9 -191407
-228856 -262144;
#X obj 107 125 s default.sgp;
#X obj 192 105 bng 10 250 50 0 empty empty rotate 17 5 0 9 -191407
-228856 -262144;
#X obj 213 126 cup;
#X obj 213 147 % 2;
#X obj 213 168 sel 1;
#X msg 213 197 1;
#X msg 247 195 0;
#X obj 213 221 s slw.rot;
#X obj 213 47 loadbang;
#X obj 309 194 s spatial.cntrl;
#X msg 213 67 1;
#X msg 309 173 4;
#X obj 275 105 bng 10 250 50 0 empty empty leroids 17 5 0 9 -191407
-228856 -262144;
#X obj 354 155 s spatial.cntrl;
#X msg 354 134 3;
#X obj 358 105 hsl 90 10 0 6 0 0 dist.fact \$0-12736 glbl.dist.fact
0 5 0 9 -191407 -258113 -262144 0 1;
#X obj 464 105 hsl 90 10 0 10 0 0 cent.fact \$0-12736 glbl.cent.fact
0 5 0 9 -191407 -258113 -262144 0 1;
#X obj 560 105 bng 10 250 50 0 empty empty default 13 5 0 9 -191407
-228856 -262144;
#X msg 461 74 3;
#X obj 628 105 bng 10 250 50 0 empty empty ct 13 5 0 9 -191407 -228856
-262144;
#X msg 355 47 6;
#X msg 355 72 4;
#X msg 513 31 0.005;
#X connect 0 0 1 0;
#X connect 2 0 3 0;
#X connect 2 0 12 0;
#X connect 3 0 4 0;
#X connect 4 0 5 0;
#X connect 5 0 6 0;
#X connect 5 1 7 0;
#X connect 6 0 8 0;
#X connect 7 0 8 0;
#X connect 9 0 11 0;
#X connect 11 0 3 0;
#X connect 12 0 10 0;
#X connect 13 0 15 0;
#X connect 15 0 14 0;
#X connect 18 0 19 0;
#X connect 18 0 22 0;
#X connect 19 0 17 0;
#X connect 20 0 23 0;
#X connect 20 0 21 0;
#X connect 21 0 16 0;
#X connect 22 0 16 0;
#X connect 23 0 17 0;
#X coords 0 -1 1 1 560 20 2 100 100;
#X restore -854 -76 pd default.settings;
#X floatatom 40 40 5 0 0 0 - - -;
#X restore 100 396 pd space;
#X msg 381 70 \; pd-space vis 1 \;;
#N canvas 621 147 659 408 wfc 0;
#N canvas 82 22 1198 650 wfc.d 0;
#X floatatom 908 447 5 0 0 0 - - -;
#X obj 908 427 r gc.fcb;
#X obj 833 377 vradio 10 1 0 25 empty gis6 empty 0 -8 0 10 -262144
-1 -1 0;
#X obj 843 377 vradio 10 1 0 25 empty gis5 empty 0 -8 0 10 -262144
-1 -1 0;
#X obj 852 377 vradio 10 1 0 25 empty gis4 empty 0 -8 0 10 -262144
-1 -1 0;
#X obj 862 377 vradio 10 1 0 25 empty gis3 empty 0 -8 0 10 -262144
-1 -1 0;
#X obj 871 377 vradio 10 1 0 25 empty gis2 empty 0 -8 0 10 -262144
-1 -1 0;
#X obj 881 377 vradio 10 1 0 25 empty gis1 empty 0 -8 0 10 -262144
-1 -1 0;
#X obj 780 379 cnv 15 20 200 empty empty empty 20 12 0 14 -233017 -66577
0;
#X text 785 385 g;
#X text 785 400 u;
#X text 785 416 i;
#X text 784 432 t;
#X text 784 445 a;
#X text 784 458 r;
#X text 907 408 fcb control;
#X text 100 79 wireless foot controller;
#X obj 101 101 cnv 15 650 400 empty empty glbl.cntrl 4 8 0 9 -1 -262144
0;
#X floatatom 130 394 5 0 0 0 - #0-bank -;
#X obj 120 373 cnv 15 1 1 empty empty bank 10 12 0 9 -1 -262144 0;
#X obj 121 347 cnv 15 1 1 empty empty quickmap.matrix 10 12 0 9 -1
-262144 0;
#X obj 568 340 cnv 15 1 1 empty empty wireless.controller 10 12 0 9
-1 -262144 0;
#X obj 129 419 bng 10 250 50 0 save.fc.coll empty empty 17 7 0 10 -128992
-1 -1;
#X obj 144 423 cnv 5 1 1 empty empty save 0 0 0 9 -1 -262144 0;
#X obj 207 390 cnv 15 1 1 empty empty btn.1 10 12 0 9 -1 -262144 0
;
#X obj 207 406 cnv 15 1 1 empty empty btn.2 10 12 0 9 -1 -262144 0
;
#X obj 207 422 cnv 15 1 1 empty empty btn.3 10 12 0 9 -1 -262144 0
;
#X obj 207 438 cnv 15 1 1 empty empty btn.4 10 12 0 9 -1 -262144 0
;
#X obj 351 394 cnv 15 1 1 empty empty btn.5 10 12 0 9 -1 -262144 0
;
#X obj 351 410 cnv 15 1 1 empty empty btn.6 10 12 0 9 -1 -262144 0
;
#X obj 351 426 cnv 15 1 1 empty empty btn.7 10 12 0 9 -1 -262144 0
;
#X text 779 341 create makenotes for echoloop in live;
#X text 779 266 7 buttons/7 processes each radio button produces a
number. a number corresponds to a process. set mapping matrix then
store in coll using appropriate bank number as index. numbers will
be outputted each time bank number is chaned on foot controller;
#X symbolatom 261 394 10 0 0 0 - btn.1 -;
#X symbolatom 261 413 10 0 0 0 - btn.2 -;
#X symbolatom 261 432 10 0 0 0 - btn.3 -;
#X symbolatom 261 451 10 0 0 0 - btn.4 -;
#X symbolatom 400 394 10 0 0 0 - btn.5 -;
#X symbolatom 400 413 10 0 0 0 - btn.6 -;
#X symbolatom 400 432 10 0 0 0 - btn.7 -;
#X text 778 42 Loop IV started with C = 36 = Parameter Button \, which
we dont need any more \, so we start at D = 38: 38RECORD_TOG \, 39OVERDUB_TOG
\, 40MULTIPLY_TOG \, 41INSERT_TOG \, 42MUTE_TOG \, 43UNDO \, 44NEXT_LOOP
\, 45REPLACE_TOG \, 46SUBSTITUTE_TOG \, InsertOnly \, 48HALFSPEED_TOG
\, 49REVERSE_TOG \, 50VB_RECORD_SUS \, 51OVERDUB_SUS \, 52UNRNDMULT_SUS
\, 53UNRNDINSERT_SUS \, 54MUTE_SUS \, 55LONGUNDO \, 56PREV_LOOP \,
57REPLACE_SUS \, 58SUBSTITUTE_SUS \, 59REVERSE_SUS \, 60HALFSPEED_SUS
\, 61RESET \, 62GENERALRESET \, 63Reserved \, 64UNRNDMULT_SUS \, 65UNRNDINSERT_SUS
\, 66Reserved \, 67LONGUNDO \, 68ORIG_LOOP \, 69SET_LOOP \, 70Reserved
\, 71Reserved \, 72PLAYSAMPLE \, 73RETRIGGER \, 74REALIGN \, 75MUTE_REALIGN
\, 76SOONSTARTSONG \, (some of those are not implemented yet...) 77MUTESOONSTARTSONG
\, 78STARTPOINT \, 79SOONSTARTPOINT \, 84 Loop Trigger (Next&) \, set
by the LoopTrig parameter just like in LOOP IV \, but now set to a
;
#N canvas 0 22 880 393 btn.1 0;
#X obj 334 44 inlet;
#X obj 21 158 sel record;
#X obj 97 158 sel overdub;
#X obj 410 158 sel mute;
#X obj 174 158 sel insert;
#X obj 245 158 sel replace;
#X obj 320 158 sel halfspeed;
#X obj 473 158 sel nextloop;
#X obj 565 156 sel substitute;
#X obj 673 157 sel reverse;
#X msg 11 194 38;
#X msg 93 194 39;
#X obj 758 157 sel undo;
#X msg 758 185 55;
#X msg 327 193 48;
#X msg 241 192 57;
#X msg 171 190 53;
#X msg 414 188 42;
#X msg 484 192 44;
#X msg 577 188 58;
#X msg 680 188 49;
#X obj 328 275 s btn1.coll;
#X connect 0 0 1 0;
#X connect 0 0 2 0;
#X connect 0 0 4 0;
#X connect 0 0 5 0;
#X connect 0 0 6 0;
#X connect 0 0 3 0;
#X connect 0 0 7 0;
#X connect 0 0 8 0;
#X connect 0 0 9 0;
#X connect 0 0 12 0;
#X connect 1 0 10 0;
#X connect 2 0 11 0;
#X connect 3 0 17 0;
#X connect 4 0 16 0;
#X connect 5 0 15 0;
#X connect 6 0 14 0;
#X connect 7 0 18 0;
#X connect 8 0 19 0;
#X connect 9 0 20 0;
#X connect 10 0 21 0;
#X connect 11 0 21 0;
#X connect 12 0 13 0;
#X connect 13 0 21 0;
#X connect 14 0 21 0;
#X connect 15 0 21 0;
#X connect 16 0 21 0;
#X connect 17 0 21 0;
#X connect 18 0 21 0;
#X connect 19 0 21 0;
#X connect 20 0 21 0;
#X restore 102 510 pd btn.1;
#N canvas 0 48 1280 752 fc.coll 0;
#X msg 352 143 sort 1 \$1;
#X text 352 162 sort coll by requested bank;
#X obj 112 12 r \$0-bank;
#X obj 220 72 i;
#X obj 258 67 i;
#X obj 292 67 i;
#X obj 325 65 i;
#X obj 360 65 i;
#X obj 407 67 i;
#X obj 459 70 i;
#X obj 527 68 i;
#X obj 237 124 pack 0 0 0 0 0 0 0 0;
#X obj 219 -88 r save.fc.coll;
#X obj 247 -36 t b b b b b b b b;
#X obj 293 -71 bng 15 250 50 0 empty empty empty 17 7 0 10 -262144
-1 -1;
#X obj 468 126 r \$0-bank;
#X obj 97 97 r load.fc.coll;
#X obj 97 120 bng 15 250 50 0 empty empty empty 17 7 0 10 -262144 -1
-1;
#X obj 219 -61 del 5;
#X obj 183 7 r btn1.coll;
#X obj 275 7 r btn2.coll;
#X obj 367 5 r btn3.coll;
#X obj 466 4 r btn4.coll;
#X obj 553 3 r btn5.coll;
#X obj 644 1 r btn6.coll;
#X obj 733 -3 r btn7.coll;
#X msg 603 143 clear;
#X obj 88 273 s \$0-b1;
#X obj 142 273 s \$0-b2;
#X obj 210 273 s \$0-b3;
#X obj 271 274 s \$0-b4;
#X obj 353 273 s \$0-b5;
#X obj 422 270 s \$0-b6;
#X obj 489 268 s \$0-b7;
#X obj 237 183 unpack 0 0 0 0 0 0 0;
#X obj 603 121 r clear.fc.coll;
#X text 312 -72 allow for bank number update;
#X msg 486 199 remove \$1;
#X msg 534 143 write;
#X obj 237 160 coll fcb;
#C restore;
#X obj 97 143 i;
#X obj 153 121 loadbang;
#X msg 153 143 0;
#X connect 0 0 39 0;
#X connect 2 0 3 1;
#X connect 2 0 40 1;
#X connect 2 0 39 0;
#X connect 3 0 11 0;
#X connect 4 0 11 1;
#X connect 5 0 11 2;
#X connect 6 0 11 3;
#X connect 7 0 11 4;
#X connect 8 0 11 5;
#X connect 9 0 11 6;
#X connect 10 0 11 7;
#X connect 11 0 39 0;
#X connect 12 0 14 0;
#X connect 12 0 18 0;
#X connect 13 0 3 0;
#X connect 13 1 4 0;
#X connect 13 2 5 0;
#X connect 13 3 6 0;
#X connect 13 4 7 0;
#X connect 13 5 8 0;
#X connect 13 6 9 0;
#X connect 13 7 10 0;
#X connect 15 0 0 0;
#X connect 16 0 17 0;
#X connect 17 0 40 0;
#X connect 18 0 13 0;
#X connect 19 0 4 1;
#X connect 20 0 5 1;
#X connect 21 0 6 1;
#X connect 22 0 7 1;
#X connect 23 0 8 1;
#X connect 24 0 9 1;
#X connect 25 0 10 1;
#X connect 26 0 39 0;
#X connect 34 0 27 0;
#X connect 34 1 28 0;
#X connect 34 2 29 0;
#X connect 34 3 30 0;
#X connect 34 4 31 0;
#X connect 34 5 32 0;
#X connect 34 6 33 0;
#X connect 35 0 26 0;
#X connect 38 0 39 0;
#X connect 39 0 34 0;
#X connect 40 0 39 0;
#X connect 41 0 42 0;
#X connect 42 0 39 0;
#X restore 103 540 pd fc.coll;
#X obj 129 434 bng 10 250 50 0 load.fc.coll empty empty 17 7 0 10 -128992
-1 -1;
#X obj 144 436 cnv 5 1 1 empty empty load 0 0 0 9 -1 -262144 0;
#N canvas 0 22 880 393 btn.2 0;
#X obj 334 44 inlet;
#X obj 21 158 sel record;
#X obj 97 158 sel overdub;
#X obj 410 158 sel mute;
#X obj 174 158 sel insert;
#X obj 245 158 sel replace;
#X obj 320 158 sel halfspeed;
#X obj 473 158 sel nextloop;
#X obj 565 156 sel substitute;
#X obj 673 157 sel reverse;
#X msg 11 194 38;
#X msg 93 194 39;
#X obj 758 157 sel undo;
#X msg 758 185 55;
#X msg 327 193 48;
#X msg 241 192 57;
#X msg 171 190 53;
#X msg 414 188 42;
#X msg 484 192 44;
#X msg 577 188 58;
#X msg 680 188 49;
#X obj 328 275 s btn2.coll;
#X connect 0 0 1 0;
#X connect 0 0 2 0;
#X connect 0 0 4 0;
#X connect 0 0 5 0;
#X connect 0 0 6 0;
#X connect 0 0 3 0;
#X connect 0 0 7 0;
#X connect 0 0 8 0;
#X connect 0 0 9 0;
#X connect 0 0 12 0;
#X connect 1 0 10 0;
#X connect 2 0 11 0;
#X connect 3 0 17 0;
#X connect 4 0 16 0;
#X connect 5 0 15 0;
#X connect 6 0 14 0;
#X connect 7 0 18 0;
#X connect 8 0 19 0;
#X connect 9 0 20 0;
#X connect 10 0 21 0;
#X connect 11 0 21 0;
#X connect 12 0 13 0;
#X connect 13 0 21 0;
#X connect 14 0 21 0;
#X connect 15 0 21 0;
#X connect 16 0 21 0;
#X connect 17 0 21 0;
#X connect 18 0 21 0;
#X connect 19 0 21 0;
#X connect 20 0 21 0;
#X restore 160 511 pd btn.2;
#N canvas 0 22 880 393 btn.3 0;
#X obj 334 44 inlet;
#X obj 21 158 sel record;
#X obj 97 158 sel overdub;
#X obj 410 158 sel mute;
#X obj 174 158 sel insert;
#X obj 245 158 sel replace;
#X obj 320 158 sel halfspeed;
#X obj 473 158 sel nextloop;
#X obj 565 156 sel substitute;
#X obj 673 157 sel reverse;
#X msg 11 194 38;
#X msg 93 194 39;
#X obj 758 157 sel undo;
#X msg 758 185 55;
#X msg 327 193 48;
#X msg 241 192 57;
#X msg 171 190 53;
#X msg 414 188 42;
#X msg 484 192 44;
#X msg 577 188 58;
#X msg 680 188 49;
#X obj 328 275 s btn3.coll;
#X connect 0 0 1 0;
#X connect 0 0 2 0;
#X connect 0 0 4 0;
#X connect 0 0 5 0;
#X connect 0 0 6 0;
#X connect 0 0 3 0;
#X connect 0 0 7 0;
#X connect 0 0 8 0;
#X connect 0 0 9 0;
#X connect 0 0 12 0;
#X connect 1 0 10 0;
#X connect 2 0 11 0;
#X connect 3 0 17 0;
#X connect 4 0 16 0;
#X connect 5 0 15 0;
#X connect 6 0 14 0;
#X connect 7 0 18 0;
#X connect 8 0 19 0;
#X connect 9 0 20 0;
#X connect 10 0 21 0;
#X connect 11 0 21 0;
#X connect 12 0 13 0;
#X connect 13 0 21 0;
#X connect 14 0 21 0;
#X connect 15 0 21 0;
#X connect 16 0 21 0;
#X connect 17 0 21 0;
#X connect 18 0 21 0;
#X connect 19 0 21 0;
#X connect 20 0 21 0;
#X restore 218 511 pd btn.3;
#N canvas 0 22 880 393 btn.4 0;
#X obj 334 44 inlet;
#X obj 21 158 sel record;
#X obj 97 158 sel overdub;
#X obj 410 158 sel mute;
#X obj 174 158 sel insert;
#X obj 245 158 sel replace;
#X obj 320 158 sel halfspeed;
#X obj 473 158 sel nextloop;
#X obj 565 156 sel substitute;
#X obj 673 157 sel reverse;
#X msg 11 194 38;
#X msg 93 194 39;
#X obj 758 157 sel undo;
#X msg 758 185 55;
#X msg 327 193 48;
#X msg 241 192 57;
#X msg 171 190 53;
#X msg 414 188 42;
#X msg 484 192 44;
#X msg 577 188 58;
#X msg 680 188 49;
#X obj 328 275 s btn4.coll;
#X connect 0 0 1 0;
#X connect 0 0 2 0;
#X connect 0 0 4 0;
#X connect 0 0 5 0;
#X connect 0 0 6 0;
#X connect 0 0 3 0;
#X connect 0 0 7 0;
#X connect 0 0 8 0;
#X connect 0 0 9 0;
#X connect 0 0 12 0;
#X connect 1 0 10 0;
#X connect 2 0 11 0;
#X connect 3 0 17 0;
#X connect 4 0 16 0;
#X connect 5 0 15 0;
#X connect 6 0 14 0;
#X connect 7 0 18 0;
#X connect 8 0 19 0;
#X connect 9 0 20 0;
#X connect 10 0 21 0;
#X connect 11 0 21 0;
#X connect 12 0 13 0;
#X connect 13 0 21 0;
#X connect 14 0 21 0;
#X connect 15 0 21 0;
#X connect 16 0 21 0;
#X connect 17 0 21 0;
#X connect 18 0 21 0;
#X connect 19 0 21 0;
#X connect 20 0 21 0;
#X restore 276 512 pd btn.4;
#N canvas 0 22 880 393 btn.5 0;
#X obj 334 44 inlet;
#X obj 21 158 sel record;
#X obj 97 158 sel overdub;
#X obj 410 158 sel mute;
#X obj 174 158 sel insert;
#X obj 245 158 sel replace;
#X obj 320 158 sel halfspeed;
#X obj 473 158 sel nextloop;
#X obj 565 156 sel substitute;
#X obj 673 157 sel reverse;
#X msg 11 194 38;
#X msg 93 194 39;
#X obj 758 157 sel undo;
#X msg 758 185 55;
#X msg 327 193 48;
#X msg 241 192 57;
#X msg 171 190 53;
#X msg 414 188 42;
#X msg 484 192 44;
#X msg 577 188 58;
#X msg 680 188 49;
#X obj 328 275 s btn5.coll;
#X connect 0 0 1 0;
#X connect 0 0 2 0;
#X connect 0 0 4 0;
#X connect 0 0 5 0;
#X connect 0 0 6 0;
#X connect 0 0 3 0;
#X connect 0 0 7 0;
#X connect 0 0 8 0;
#X connect 0 0 9 0;
#X connect 0 0 12 0;
#X connect 1 0 10 0;
#X connect 2 0 11 0;
#X connect 3 0 17 0;
#X connect 4 0 16 0;
#X connect 5 0 15 0;
#X connect 6 0 14 0;
#X connect 7 0 18 0;
#X connect 8 0 19 0;
#X connect 9 0 20 0;
#X connect 10 0 21 0;
#X connect 11 0 21 0;
#X connect 12 0 13 0;
#X connect 13 0 21 0;
#X connect 14 0 21 0;
#X connect 15 0 21 0;
#X connect 16 0 21 0;
#X connect 17 0 21 0;
#X connect 18 0 21 0;
#X connect 19 0 21 0;
#X connect 20 0 21 0;
#X restore 370 509 pd btn.5;
#N canvas 0 22 880 393 btn.6 0;
#X obj 334 44 inlet;
#X obj 21 158 sel record;
#X obj 97 158 sel overdub;
#X obj 410 158 sel mute;
#X obj 174 158 sel insert;
#X obj 245 158 sel replace;
#X obj 320 158 sel halfspeed;
#X obj 473 158 sel nextloop;
#X obj 565 156 sel substitute;
#X obj 673 157 sel reverse;
#X msg 11 194 38;
#X msg 93 194 39;
#X obj 758 157 sel undo;
#X msg 758 185 55;
#X msg 327 193 48;
#X msg 241 192 57;
#X msg 171 190 53;
#X msg 414 188 42;
#X msg 484 192 44;
#X msg 577 188 58;
#X msg 680 188 49;
#X obj 328 275 s btn6.coll;
#X connect 0 0 1 0;
#X connect 0 0 2 0;
#X connect 0 0 4 0;
#X connect 0 0 5 0;
#X connect 0 0 6 0;
#X connect 0 0 3 0;
#X connect 0 0 7 0;
#X connect 0 0 8 0;
#X connect 0 0 9 0;
#X connect 0 0 12 0;
#X connect 1 0 10 0;
#X connect 2 0 11 0;
#X connect 3 0 17 0;
#X connect 4 0 16 0;
#X connect 5 0 15 0;
#X connect 6 0 14 0;
#X connect 7 0 18 0;
#X connect 8 0 19 0;
#X connect 9 0 20 0;
#X connect 10 0 21 0;
#X connect 11 0 21 0;
#X connect 12 0 13 0;
#X connect 13 0 21 0;
#X connect 14 0 21 0;
#X connect 15 0 21 0;
#X connect 16 0 21 0;
#X connect 17 0 21 0;
#X connect 18 0 21 0;
#X connect 19 0 21 0;
#X connect 20 0 21 0;
#X restore 426 509 pd btn.6;
#N canvas 0 22 880 393 btn.7 0;
#X obj 334 44 inlet;
#X obj 21 158 sel record;
#X obj 97 158 sel overdub;
#X obj 410 158 sel mute;
#X obj 174 158 sel insert;
#X obj 245 158 sel replace;
#X obj 320 158 sel halfspeed;
#X obj 473 158 sel nextloop;
#X obj 565 156 sel substitute;
#X obj 673 157 sel reverse;
#X msg 11 194 38;
#X msg 93 194 39;
#X obj 758 157 sel undo;
#X msg 758 185 55;
#X msg 327 193 48;
#X msg 241 192 57;
#X msg 171 190 53;
#X msg 414 188 42;
#X msg 484 192 44;
#X msg 577 188 58;
#X msg 680 188 49;
#X obj 328 275 s btn7.coll;
#X connect 0 0 1 0;
#X connect 0 0 2 0;
#X connect 0 0 4 0;
#X connect 0 0 5 0;
#X connect 0 0 6 0;
#X connect 0 0 3 0;
#X connect 0 0 7 0;
#X connect 0 0 8 0;
#X connect 0 0 9 0;
#X connect 0 0 12 0;
#X connect 1 0 10 0;
#X connect 2 0 11 0;
#X connect 3 0 17 0;
#X connect 4 0 16 0;
#X connect 5 0 15 0;
#X connect 6 0 14 0;
#X connect 7 0 18 0;
#X connect 8 0 19 0;
#X connect 9 0 20 0;
#X connect 10 0 21 0;
#X connect 11 0 21 0;
#X connect 12 0 13 0;
#X connect 13 0 21 0;
#X connect 14 0 21 0;
#X connect 15 0 21 0;
#X connect 16 0 21 0;
#X connect 17 0 21 0;
#X connect 18 0 21 0;
#X connect 19 0 21 0;
#X connect 20 0 21 0;
#X restore 484 510 pd btn.7;
#X obj 555 356 cnv 15 1 1 empty empty controls.echoloop.vst 10 12 0
9 -1 -262144 0;
#X obj 129 447 bng 10 250 50 0 clear.fc.coll empty empty 17 7 0 10
-128992 -1 -1;
#X obj 146 450 cnv 5 1 1 empty empty clear 0 0 0 9 -1 -262144 0;
#X obj 416 236 image img/fb.gif;
#N canvas 0 48 1280 752 foot.controller 0;
#X text 918 -145 Loop IV started with C = 36 = Parameter Button \,
which we dont need any more \, so we start at D = 38: 38RECORD_TOG
\, 39OVERDUB_TOG \, 40MULTIPLY_TOG \, 41INSERT_TOG \, 42MUTE_TOG \,
43UNDO \, 44NEXT_LOOP \, 45REPLACE_TOG \, 46SUBSTITUTE_TOG \, InsertOnly
\, 48HALFSPEED_TOG \, 49REVERSE_TOG \, 50VB_RECORD_SUS \, 51OVERDUB_SUS
\, 52UNRNDMULT_SUS \, 53UNRNDINSERT_SUS \, 54MUTE_SUS \, 55LONGUNDO
\, 56PREV_LOOP \, 57REPLACE_SUS \, 58SUBSTITUTE_SUS \, 59REVERSE_SUS
\, 60HALFSPEED_SUS \, 61RESET \, 62GENERALRESET \, 63Reserved \, 64UNRNDMULT_SUS
\, 65UNRNDINSERT_SUS \, 66Reserved \, 67LONGUNDO \, 68ORIG_LOOP \,
69SET_LOOP \, 70Reserved \, 71Reserved \, 72PLAYSAMPLE \, 73RETRIGGER
\, 74REALIGN \, 75MUTE_REALIGN \, 76SOONSTARTSONG \, (some of those
are not implemented yet...) 77MUTESOONSTARTSONG \, 78STARTPOINT \,
79SOONSTARTPOINT \, 84 Loop Trigger (Next&) \, set by the LoopTrig
parameter just like in LOOP IV \, but now set to a;
#X floatatom 902 252 5 0 0 0 - - -;
#X obj 33 -69 sel 1;
#X obj 154 -40 sel 1;
#X floatatom 244 -108 5 0 0 0 - - -;
#X obj 241 -32 sel 1;
#X floatatom 300 -103 5 0 0 0 - - -;
#X obj 297 -77 sel 1;
#X obj 354 22 sel 1;
#X floatatom 606 -113 5 0 0 0 - - -;
#X obj 603 -37 sel 1;
#X floatatom 383 -228 5 0 0 0 - - -;
#X obj 604 -139 == 47;
#X floatatom 723 -114 5 0 0 0 - - -;
#X obj 720 -38 sel 1;
#X floatatom 776 -115 5 0 0 0 - - -;
#X obj 773 -39 sel 1;
#X obj 323 -227 key;
#X floatatom 173 -104 5 0 0 0 - - -;
#X obj 390 -161 == 0;
#X obj 440 -60 sel 1;
#X obj 774 -141 == 42;
#X obj 721 -140 == 46;
#X obj 359 -109 == 91;
#X obj 175 222 bng 30 250 50 0 empty empty empty 17 7 0 10 -1 -258113
-1;
#X obj 158 158 bng 30 250 50 0 empty empty empty 17 7 0 10 -1 -258113
-1;
#X obj 246 158 bng 30 250 50 0 empty empty empty 17 7 0 10 -1 -258113
-1;
#X obj 387 229 bng 30 250 50 0 empty empty empty 17 7 0 10 -1 -258113
-1;
#X obj 327 160 bng 30 250 50 0 empty empty empty 17 7 0 10 -1 -258113
-1;
#X obj 406 158 bng 30 250 50 0 empty empty empty 17 7 0 10 -1 -258113
-1;
#X obj 500 184 bng 30 250 50 0 empty empty empty 17 7 0 10 -1 -258113
-1;
#X obj 607 145 bng 30 250 50 0 empty empty empty 17 7 0 10 -1 -258113
-1;
#X obj 587 232 bng 30 250 50 0 empty empty empty 17 7 0 10 -1 -258113
-1;
#X obj 242 -134 == 116;
#X obj 173 -129 == 113;
#X obj 4 -125 == 122;
#X obj 299 -127 == 105;
#X obj 722 158 s \$0-bank;
#X text 720 179 act as index;
#X obj 802 98 bng 15 250 50 0 empty empty empty 17 7 0 10 -262144 -1
-1;
#X floatatom 722 136 10 0 0 0 - - -;
#X obj 709 71 bng 15 250 50 0 empty empty empty 17 7 0 10 -262144 -1
-1;
#X msg 779 70 1;
#X msg 809 71 0;
#X floatatom 738 59 5 0 0 0 - - -;
#X floatatom 785 50 5 0 0 0 - - -;
#X floatatom 759 17 5 0 0 0 - - -;
#X obj 818 -3 loadbang;
#X obj 721 113 counter;
#X msg 818 31 0;
#X msg 858 33 10;
#X obj 139 340 s rec.g.1;
#X obj 185 310 s rec.g.2;
#X obj 235 229 s rec.g.3;
#X obj 320 316 s rec.g.4;
#X obj 412 313 s rec.g.5;
#X obj 490 341 s rec.g.6;
#X obj 524 312 s rec.g;
#X obj 37 103 i;
#X obj 52 67 r \$0-b1;
#X floatatom 68 93 5 0 0 0 - - -;
#X obj 25 320 i;
#X floatatom 80 334 5 0 0 0 - - -;
#X obj 64 309 r \$0-b2;
#X obj 365 355 i;
#X floatatom 280 348 5 0 0 0 - - -;
#X obj 264 322 r \$0-b3;
#X obj 390 385 i;
#X floatatom 421 375 5 0 0 0 - - -;
#X obj 405 349 r \$0-b4;
#X obj 609 361 i;
#X floatatom 640 351 5 0 0 0 - - -;
#X obj 730 324 i;
#X floatatom 761 314 5 0 0 0 - - -;
#X msg 871 285 \$1 100;
#X obj 871 262 i;
#X floatatom 163 193 3 0 0 0 - - b1n;
#X floatatom 179 254 3 0 0 0 - - b2n;
#X floatatom 251 192 3 0 0 0 - - b3n;
#X floatatom 333 192 3 0 0 0 - - b4n;
#X floatatom 393 262 3 0 0 0 - - b5n;
#X floatatom 412 192 3 0 0 0 - - b6n;
#X floatatom 507 217 3 0 0 0 - - b7n;
#X obj 828 119 r save.fc.coll;
#X obj 624 325 r \$0-b5;
#X obj 745 288 r \$0-b6;
#X obj 886 226 r \$0-b7;
#X obj 3 199 noteout 2;
#X obj 36 392 noteout 2;
#X obj 264 419 noteout 2;
#X obj 403 443 noteout 2;
#X obj 576 432 noteout 2;
#X obj 713 396 noteout 2;
#X obj 863 359 noteout 2;
#X obj 713 373 makenote 100 20;
#X obj 863 336 makenote 100 20;
#X obj 576 409 makenote 100 20;
#X obj 403 420 makenote 100 20;
#X obj 264 396 makenote 100 20;
#X obj 36 369 makenote 100 20;
#X obj 3 163 makenote 100 20;
#X msg 3 23 38;
#X obj 3 47 makenote 100 2000;
#N canvas 0 22 557 309 echo.off 0;
#X obj 51 37 == 122;
#X obj 165 37 == 47;
#X obj 57 179 expr if($f1 + $f2 == 2 \, 1 \, 0);
#X floatatom 57 200 5 0 0 0 - - -;
#X obj 57 219 sel 1;
#X obj 57 240 outlet;
#X obj 103 20 inlet;
#X text 54 -12 2 buttons together to stop echoloop;
#X obj 165 57 sel 1;
#X msg 374 95 0;
#X obj 6 63 sel 1;
#X msg 69 103 1;
#X msg -57 119 0;
#X floatatom 9 146 5 0 0 0 - - -;
#X obj -57 98 del 200;
#X obj 374 74 del 200;
#X floatatom 293 145 5 0 0 0 - - -;
#X msg 138 96 1;
#X connect 0 0 10 0;
#X connect 1 0 8 0;
#X connect 2 0 3 0;
#X connect 3 0 4 0;
#X connect 4 0 5 0;
#X connect 6 0 0 0;
#X connect 6 0 1 0;
#X connect 8 0 17 0;
#X connect 8 0 15 0;
#X connect 9 0 16 0;
#X connect 10 0 11 0;
#X connect 10 0 14 0;
#X connect 11 0 13 0;
#X connect 12 0 13 0;
#X connect 13 0 2 0;
#X connect 14 0 12 0;
#X connect 15 0 9 0;
#X connect 16 0 2 1;
#X connect 17 0 16 0;
#X restore 3 0 pd echo.off;
#X connect 2 0 24 0;
#X connect 3 0 25 0;
#X connect 4 0 5 0;
#X connect 5 0 26 0;
#X connect 6 0 7 0;
#X connect 7 0 28 0;
#X connect 8 0 29 0;
#X connect 9 0 10 0;
#X connect 10 0 27 0;
#X connect 11 0 19 0;
#X connect 12 0 9 0;
#X connect 13 0 14 0;
#X connect 14 0 32 0;
#X connect 14 0 42 0;
#X connect 14 0 41 0;
#X connect 15 0 16 0;
#X connect 16 0 31 0;
#X connect 16 0 43 0;
#X connect 16 0 41 0;
#X connect 17 0 11 0;
#X connect 17 0 12 0;
#X connect 17 0 21 0;
#X connect 17 0 22 0;
#X connect 17 0 23 0;
#X connect 17 0 33 0;
#X connect 17 0 34 0;
#X connect 17 0 35 0;
#X connect 17 0 36 0;
#X connect 17 0 103 0;
#X connect 18 0 3 0;
#X connect 19 0 20 0;
#X connect 20 0 30 0;
#X connect 21 0 15 0;
#X connect 22 0 13 0;
#X connect 23 0 8 0;
#X connect 24 0 52 0;
#X connect 24 0 61 0;
#X connect 25 0 51 0;
#X connect 25 0 58 0;
#X connect 26 0 53 0;
#X connect 26 0 64 0;
#X connect 27 0 55 0;
#X connect 27 0 70 0;
#X connect 28 0 54 0;
#X connect 28 0 67 0;
#X connect 29 0 56 0;
#X connect 29 0 72 0;
#X connect 30 0 57 0;
#X connect 30 0 75 0;
#X connect 33 0 4 0;
#X connect 34 0 18 0;
#X connect 35 0 2 0;
#X connect 36 0 6 0;
#X connect 39 0 42 0;
#X connect 39 0 48 3;
#X connect 40 0 37 0;
#X connect 41 0 48 0;
#X connect 42 0 48 1;
#X connect 43 0 48 1;
#X connect 44 0 48 2;
#X connect 45 0 48 4;
#X connect 46 0 48 3;
#X connect 47 0 49 0;
#X connect 47 0 50 0;
#X connect 47 0 41 0;
#X connect 48 0 40 0;
#X connect 49 0 44 0;
#X connect 50 0 45 0;
#X connect 58 0 100 0;
#X connect 59 0 58 1;
#X connect 59 0 60 0;
#X connect 59 0 76 0;
#X connect 61 0 99 0;
#X connect 63 0 61 1;
#X connect 63 0 62 0;
#X connect 63 0 77 0;
#X connect 64 0 98 0;
#X connect 66 0 64 1;
#X connect 66 0 65 0;
#X connect 66 0 78 0;
#X connect 67 0 97 0;
#X connect 69 0 67 1;
#X connect 69 0 68 0;
#X connect 69 0 79 0;
#X connect 70 0 96 0;
#X connect 72 0 94 0;
#X connect 74 0 95 0;
#X connect 75 0 74 0;
#X connect 83 0 40 0;
#X connect 84 0 70 1;
#X connect 84 0 71 0;
#X connect 84 0 80 0;
#X connect 85 0 72 1;
#X connect 85 0 73 0;
#X connect 85 0 81 0;
#X connect 86 0 75 1;
#X connect 86 0 82 0;
#X connect 86 0 1 0;
#X connect 94 0 92 0;
#X connect 94 1 92 1;
#X connect 95 0 93 0;
#X connect 95 1 93 1;
#X connect 96 0 91 0;
#X connect 96 1 91 1;
#X connect 97 0 90 0;
#X connect 97 1 90 1;
#X connect 98 0 89 0;
#X connect 98 1 89 1;
#X connect 99 0 88 0;
#X connect 99 1 88 1;
#X connect 100 0 87 0;
#X connect 100 1 87 1;
#X connect 101 0 102 0;
#X connect 102 0 87 0;
#X connect 102 1 87 1;
#X connect 103 0 101 0;
#X coords 0 -1 1 1 560 205 2 100 100;
#X restore 136 133 pd foot.controller;
#N canvas 92 41 1058 479 fc.display 0;
#X obj 271 -23 r b1n;
#X obj 320 -23 r b2n;
#X obj 366 -23 r b3n;
#X obj 415 -23 r b4n;
#X obj 466 -23 r b5n;
#X obj 512 -23 r b6n;
#X obj 561 -23 r b7n;
#N canvas 0 22 1143 242 fc.display 0;
#X obj 26 70 sel 38;
#X msg 26 98 symbol record;
#X obj 124 76 sel 39;
#X msg 124 98 symbol overdub;
#X obj 970 65 sel 53;
#X msg 970 88 symbol insert;
#X obj 223 75 sel 57;
#X msg 223 98 symbol replace;
#X obj 326 73 sel 48;
#X msg 326 96 symbol halfspeed;
#X obj 669 69 sel 42;
#X msg 669 92 symbol mute;
#X obj 439 70 sel 44;
#X msg 439 93 symbol nextloop;
#X obj 546 70 sel 58;
#X msg 546 93 symbol substitute;
#X obj 762 69 sel 49;
#X obj 875 66 sel 55;
#X msg 875 89 symbol undo;
#X msg 762 90 symbol reverse;
#X obj 481 174 outlet;
#X obj 487 -27 inlet;
#X connect 0 0 1 0;
#X connect 1 0 20 0;
#X connect 2 0 3 0;
#X connect 3 0 20 0;
#X connect 4 0 5 0;
#X connect 5 0 20 0;
#X connect 6 0 7 0;
#X connect 7 0 20 0;
#X connect 8 0 9 0;
#X connect 9 0 20 0;
#X connect 10 0 11 0;
#X connect 11 0 20 0;
#X connect 12 0 13 0;
#X connect 13 0 20 0;
#X connect 14 0 15 0;
#X connect 15 0 20 0;
#X connect 16 0 19 0;
#X connect 17 0 18 0;
#X connect 18 0 20 0;
#X connect 19 0 20 0;
#X connect 21 0 0 0;
#X connect 21 0 2 0;
#X connect 21 0 6 0;
#X connect 21 0 8 0;
#X connect 21 0 12 0;
#X connect 21 0 14 0;
#X connect 21 0 10 0;
#X connect 21 0 16 0;
#X connect 21 0 17 0;
#X connect 21 0 4 0;
#X restore 98 38 pd fc.display;
#X obj 98 84 s btn.1;
#N canvas 0 22 1143 242 fc.display 0;
#X obj 26 70 sel 38;
#X msg 26 98 symbol record;
#X obj 124 76 sel 39;
#X msg 124 98 symbol overdub;
#X obj 970 65 sel 53;
#X msg 970 88 symbol insert;
#X obj 223 75 sel 57;
#X msg 223 98 symbol replace;
#X obj 326 73 sel 48;
#X msg 326 96 symbol halfspeed;
#X obj 669 69 sel 42;
#X msg 669 92 symbol mute;
#X obj 439 70 sel 44;
#X msg 439 93 symbol nextloop;
#X obj 546 70 sel 58;
#X msg 546 93 symbol substitute;
#X obj 762 69 sel 49;
#X obj 875 66 sel 55;
#X msg 875 89 symbol undo;
#X msg 762 90 symbol reverse;
#X obj 481 174 outlet;
#X obj 487 -27 inlet;
#X connect 0 0 1 0;
#X connect 1 0 20 0;
#X connect 2 0 3 0;
#X connect 3 0 20 0;
#X connect 4 0 5 0;
#X connect 5 0 20 0;
#X connect 6 0 7 0;
#X connect 7 0 20 0;
#X connect 8 0 9 0;
#X connect 9 0 20 0;
#X connect 10 0 11 0;
#X connect 11 0 20 0;
#X connect 12 0 13 0;
#X connect 13 0 20 0;
#X connect 14 0 15 0;
#X connect 15 0 20 0;
#X connect 16 0 19 0;
#X connect 17 0 18 0;
#X connect 18 0 20 0;
#X connect 19 0 20 0;
#X connect 21 0 0 0;
#X connect 21 0 2 0;
#X connect 21 0 6 0;
#X connect 21 0 8 0;
#X connect 21 0 12 0;
#X connect 21 0 14 0;
#X connect 21 0 10 0;
#X connect 21 0 16 0;
#X connect 21 0 17 0;
#X connect 21 0 4 0;
#X restore 202 38 pd fc.display;
#X obj 202 84 s btn.2;
#N canvas 0 22 1143 242 fc.display 0;
#X obj 26 70 sel 38;
#X msg 26 98 symbol record;
#X obj 124 76 sel 39;
#X msg 124 98 symbol overdub;
#X obj 970 65 sel 53;
#X msg 970 88 symbol insert;
#X obj 223 75 sel 57;
#X msg 223 98 symbol replace;
#X obj 326 73 sel 48;
#X msg 326 96 symbol halfspeed;
#X obj 669 69 sel 42;
#X msg 669 92 symbol mute;
#X obj 439 70 sel 44;
#X msg 439 93 symbol nextloop;
#X obj 546 70 sel 58;
#X msg 546 93 symbol substitute;
#X obj 762 69 sel 49;
#X obj 875 66 sel 55;
#X msg 875 89 symbol undo;
#X msg 762 90 symbol reverse;
#X obj 481 174 outlet;
#X obj 487 -27 inlet;
#X connect 0 0 1 0;
#X connect 1 0 20 0;
#X connect 2 0 3 0;
#X connect 3 0 20 0;
#X connect 4 0 5 0;
#X connect 5 0 20 0;
#X connect 6 0 7 0;
#X connect 7 0 20 0;
#X connect 8 0 9 0;
#X connect 9 0 20 0;
#X connect 10 0 11 0;
#X connect 11 0 20 0;
#X connect 12 0 13 0;
#X connect 13 0 20 0;
#X connect 14 0 15 0;
#X connect 15 0 20 0;
#X connect 16 0 19 0;
#X connect 17 0 18 0;
#X connect 18 0 20 0;
#X connect 19 0 20 0;
#X connect 21 0 0 0;
#X connect 21 0 2 0;
#X connect 21 0 6 0;
#X connect 21 0 8 0;
#X connect 21 0 12 0;
#X connect 21 0 14 0;
#X connect 21 0 10 0;
#X connect 21 0 16 0;
#X connect 21 0 17 0;
#X connect 21 0 4 0;
#X restore 311 38 pd fc.display;
#N canvas 0 22 1143 242 fc.display 0;
#X obj 26 70 sel 38;
#X msg 26 98 symbol record;
#X obj 124 76 sel 39;
#X msg 124 98 symbol overdub;
#X obj 970 65 sel 53;
#X msg 970 88 symbol insert;
#X obj 223 75 sel 57;
#X msg 223 98 symbol replace;
#X obj 326 73 sel 48;
#X msg 326 96 symbol halfspeed;
#X obj 669 69 sel 42;
#X msg 669 92 symbol mute;
#X obj 439 70 sel 44;
#X msg 439 93 symbol nextloop;
#X obj 546 70 sel 58;
#X msg 546 93 symbol substitute;
#X obj 762 69 sel 49;
#X obj 875 66 sel 55;
#X msg 875 89 symbol undo;
#X msg 762 90 symbol reverse;
#X obj 481 174 outlet;
#X obj 487 -27 inlet;
#X connect 0 0 1 0;
#X connect 1 0 20 0;
#X connect 2 0 3 0;
#X connect 3 0 20 0;
#X connect 4 0 5 0;
#X connect 5 0 20 0;
#X connect 6 0 7 0;
#X connect 7 0 20 0;
#X connect 8 0 9 0;
#X connect 9 0 20 0;
#X connect 10 0 11 0;
#X connect 11 0 20 0;
#X connect 12 0 13 0;
#X connect 13 0 20 0;
#X connect 14 0 15 0;
#X connect 15 0 20 0;
#X connect 16 0 19 0;
#X connect 17 0 18 0;
#X connect 18 0 20 0;
#X connect 19 0 20 0;
#X connect 21 0 0 0;
#X connect 21 0 2 0;
#X connect 21 0 6 0;
#X connect 21 0 8 0;
#X connect 21 0 12 0;
#X connect 21 0 14 0;
#X connect 21 0 10 0;
#X connect 21 0 16 0;
#X connect 21 0 17 0;
#X connect 21 0 4 0;
#X restore 415 38 pd fc.display;
#X obj 311 84 s btn.3;
#X obj 415 84 s btn.4;
#N canvas 0 22 1143 242 fc.display 0;
#X obj 26 70 sel 38;
#X msg 26 98 symbol record;
#X obj 124 76 sel 39;
#X msg 124 98 symbol overdub;
#X obj 970 65 sel 53;
#X msg 970 88 symbol insert;
#X obj 223 75 sel 57;
#X msg 223 98 symbol replace;
#X obj 326 73 sel 48;
#X msg 326 96 symbol halfspeed;
#X obj 669 69 sel 42;
#X msg 669 92 symbol mute;
#X obj 439 70 sel 44;
#X msg 439 93 symbol nextloop;
#X obj 546 70 sel 58;
#X msg 546 93 symbol substitute;
#X obj 762 69 sel 49;
#X obj 875 66 sel 55;
#X msg 875 89 symbol undo;
#X msg 762 90 symbol reverse;
#X obj 481 174 outlet;
#X obj 487 -27 inlet;
#X connect 0 0 1 0;
#X connect 1 0 20 0;
#X connect 2 0 3 0;
#X connect 3 0 20 0;
#X connect 4 0 5 0;
#X connect 5 0 20 0;
#X connect 6 0 7 0;
#X connect 7 0 20 0;
#X connect 8 0 9 0;
#X connect 9 0 20 0;
#X connect 10 0 11 0;
#X connect 11 0 20 0;
#X connect 12 0 13 0;
#X connect 13 0 20 0;
#X connect 14 0 15 0;
#X connect 15 0 20 0;
#X connect 16 0 19 0;
#X connect 17 0 18 0;
#X connect 18 0 20 0;
#X connect 19 0 20 0;
#X connect 21 0 0 0;
#X connect 21 0 2 0;
#X connect 21 0 6 0;
#X connect 21 0 8 0;
#X connect 21 0 12 0;
#X connect 21 0 14 0;
#X connect 21 0 10 0;
#X connect 21 0 16 0;
#X connect 21 0 17 0;
#X connect 21 0 4 0;
#X restore 521 39 pd fc.display;
#N canvas 0 22 1143 242 fc.display 0;
#X obj 26 70 sel 38;
#X msg 26 98 symbol record;
#X obj 124 76 sel 39;
#X msg 124 98 symbol overdub;
#X obj 970 65 sel 53;
#X msg 970 88 symbol insert;
#X obj 223 75 sel 57;
#X msg 223 98 symbol replace;
#X obj 326 73 sel 48;
#X msg 326 96 symbol halfspeed;
#X obj 669 69 sel 42;
#X msg 669 92 symbol mute;
#X obj 439 70 sel 44;
#X msg 439 93 symbol nextloop;
#X obj 546 70 sel 58;
#X msg 546 93 symbol substitute;
#X obj 762 69 sel 49;
#X obj 875 66 sel 55;
#X msg 875 89 symbol undo;
#X msg 762 90 symbol reverse;
#X obj 481 174 outlet;
#X obj 487 -27 inlet;
#X connect 0 0 1 0;
#X connect 1 0 20 0;
#X connect 2 0 3 0;
#X connect 3 0 20 0;
#X connect 4 0 5 0;
#X connect 5 0 20 0;
#X connect 6 0 7 0;
#X connect 7 0 20 0;
#X connect 8 0 9 0;
#X connect 9 0 20 0;
#X connect 10 0 11 0;
#X connect 11 0 20 0;
#X connect 12 0 13 0;
#X connect 13 0 20 0;
#X connect 14 0 15 0;
#X connect 15 0 20 0;
#X connect 16 0 19 0;
#X connect 17 0 18 0;
#X connect 18 0 20 0;
#X connect 19 0 20 0;
#X connect 21 0 0 0;
#X connect 21 0 2 0;
#X connect 21 0 6 0;
#X connect 21 0 8 0;
#X connect 21 0 12 0;
#X connect 21 0 14 0;
#X connect 21 0 10 0;
#X connect 21 0 16 0;
#X connect 21 0 17 0;
#X connect 21 0 4 0;
#X restore 630 39 pd fc.display;
#N canvas 0 22 1143 242 fc.display 0;
#X obj 26 70 sel 38;
#X msg 26 98 symbol record;
#X obj 124 76 sel 39;
#X msg 124 98 symbol overdub;
#X obj 970 65 sel 53;
#X msg 970 88 symbol insert;
#X obj 223 75 sel 57;
#X msg 223 98 symbol replace;
#X obj 326 73 sel 48;
#X msg 326 96 symbol halfspeed;
#X obj 669 69 sel 42;
#X msg 669 92 symbol mute;
#X obj 439 70 sel 44;
#X msg 439 93 symbol nextloop;
#X obj 546 70 sel 58;
#X msg 546 93 symbol substitute;
#X obj 762 69 sel 49;
#X obj 875 66 sel 55;
#X msg 875 89 symbol undo;
#X msg 762 90 symbol reverse;
#X obj 481 174 outlet;
#X obj 487 -27 inlet;
#X connect 0 0 1 0;
#X connect 1 0 20 0;
#X connect 2 0 3 0;
#X connect 3 0 20 0;
#X connect 4 0 5 0;
#X connect 5 0 20 0;
#X connect 6 0 7 0;
#X connect 7 0 20 0;
#X connect 8 0 9 0;
#X connect 9 0 20 0;
#X connect 10 0 11 0;
#X connect 11 0 20 0;
#X connect 12 0 13 0;
#X connect 13 0 20 0;
#X connect 14 0 15 0;
#X connect 15 0 20 0;
#X connect 16 0 19 0;
#X connect 17 0 18 0;
#X connect 18 0 20 0;
#X connect 19 0 20 0;
#X connect 21 0 0 0;
#X connect 21 0 2 0;
#X connect 21 0 6 0;
#X connect 21 0 8 0;
#X connect 21 0 12 0;
#X connect 21 0 14 0;
#X connect 21 0 10 0;
#X connect 21 0 16 0;
#X connect 21 0 17 0;
#X connect 21 0 4 0;
#X restore 734 39 pd fc.display;
#X obj 521 85 s btn.5;
#X obj 630 85 s btn.6;
#X obj 734 85 s btn.7;
#X connect 0 0 7 0;
#X connect 1 0 9 0;
#X connect 2 0 11 0;
#X connect 3 0 12 0;
#X connect 4 0 15 0;
#X connect 5 0 16 0;
#X connect 6 0 17 0;
#X connect 7 0 8 0;
#X connect 9 0 10 0;
#X connect 11 0 13 0;
#X connect 12 0 14 0;
#X connect 15 0 18 0;
#X connect 16 0 19 0;
#X connect 17 0 20 0;
#X restore 103 561 pd fc.display;
#X connect 1 0 0 0;
#X connect 33 0 41 0;
#X connect 34 0 45 0;
#X connect 35 0 46 0;
#X connect 36 0 47 0;
#X connect 37 0 48 0;
#X connect 38 0 49 0;
#X connect 39 0 50 0;
#X coords 0 -1 1 1 652 402 2 100 100;
#X restore -78 -1 pd wfc.d;
#X restore 100 418 pd wfc;
#X msg 422 194 \; pd-wfc vis 1 \;;
#X msg 463 335 \; pd-vu vis 1;
#X msg 476 393 \; pd-pduino vis 1;
#N canvas 0 22 976 309 vu 0;
#X obj 761 -88 vu 30 200 vu.ml empty -1 -8 0 10 -1 -1 0 0;
#X obj 822 -88 vu 30 200 vu.mr empty -1 -8 0 10 -1 -1 0 0;
#X obj 45 -95 cnv 15 20 130 empty empty empty 20 12 0 14 -233017 -66577
0;
#X text 47 -84 m;
#X text 47 -70 o;
#X text 47 -53 n;
#X text 47 -36 i;
#X text 47 -19 t;
#X text 48 -5 o;
#X text 48 12 r;
#X obj 136 -90 vu 20 200 string1.vu empty -1 -8 0 10 -66577 -1 0 0
;
#X obj 225 -90 vu 20 200 string2.vu empty -1 -8 0 10 -66577 -1 0 0
;
#X obj 307 -89 vu 20 200 string3.vu empty -1 -8 0 10 -66577 -1 0 0
;
#X obj 390 -89 vu 20 200 string4.vu empty -1 -8 0 10 -66577 -1 0 0
;
#X obj 474 -89 vu 20 200 string5.vu empty -1 -8 0 10 -66577 -1 0 0
;
#X obj 562 -89 vu 20 200 string6.vu empty -1 -8 0 10 -66577 -1 0 0
;
#X obj 658 -88 vu 20 200 string7.vu empty -1 -8 0 10 -66577 -1 0 0
;
#X obj 107 -93 cnv 15 20 130 empty empty empty 20 12 0 14 -233017 -66577
0;
#X text 109 -82 c;
#X text 109 -68 h;
#X text 109 -51 c;
#X text 109 -35 .;
#X text 109 -18 1;
#X obj 199 -92 cnv 15 20 130 empty empty empty 20 12 0 14 -233017 -66577
0;
#X text 201 -81 c;
#X text 201 -67 h;
#X text 201 -50 c;
#X text 201 -33 .;
#X text 201 -16 2;
#X obj 281 -91 cnv 15 20 130 empty empty empty 20 12 0 14 -233017 -66577
0;
#X text 283 -80 c;
#X text 283 -66 h;
#X text 283 -49 c;
#X text 283 -32 .;
#X text 283 -15 3;
#X obj 363 -91 cnv 15 20 130 empty empty empty 20 12 0 14 -233017 -66577
0;
#X text 365 -80 c;
#X text 365 -66 h;
#X text 365 -49 c;
#X text 365 -32 .;
#X text 365 -15 4;
#X obj 448 -91 cnv 15 20 130 empty empty empty 20 12 0 14 -233017 -66577
0;
#X text 450 -78 c;
#X text 450 -64 h;
#X text 450 -47 c;
#X text 450 -30 .;
#X text 450 -13 5;
#X obj 536 -90 cnv 15 20 130 empty empty empty 20 12 0 14 -233017 -66577
0;
#X text 538 -79 c;
#X text 538 -65 h;
#X text 538 -48 c;
#X text 538 -31 .;
#X text 538 -14 6;
#X obj 632 -89 cnv 15 20 130 empty empty empty 20 12 0 14 -233017 -66577
0;
#X text 634 -78 c;
#X text 634 -64 h;
#X text 634 -47 c;
#X text 634 -30 .;
#X text 634 -13 7;
#X obj 719 -90 cnv 15 20 130 empty empty empty 20 12 0 14 -233017 -66577
0;
#X text 721 -79 m;
#X text 721 -65 a;
#X text 721 -48 i;
#X text 721 -31 n;
#X obj 761 -157 r vu.l;
#X obj 822 -157 r vu.r;
#X obj 761 -140 average;
#X obj 822 -140 average;
#X obj 42 118 cnv 15 900 30 empty empty empty 5 12 0 9 -1 -262144 0
;
#X obj 761 -120 s vu.ml;
#X obj 822 -120 s vu.mr;
#X obj 43 -159 cnv 15 900 60 empty empty vu 5 12 0 9 -1 -262144 0;
#X connect 64 0 66 0;
#X connect 65 0 67 0;
#X connect 66 0 69 0;
#X connect 67 0 70 0;
#X restore 99 440 pd vu;
#N canvas 0 22 566 466 pduino 0;
#X obj 53 240 spigot 0;
#X msg 51 92 analogIns 1 0;
#N canvas 162 133 610 460 serin 0;
#X obj 59 337 outlet;
#X obj 59 266 trigger bang anything;
#X obj 201 286 list;
#X obj 60 61 tgl 15 0 junk_to_hide_inlet junk_to_hide_outlet 0 5 9
1 12 -262130 -1 -1 0 1;
#X obj 75 61 tgl 15 0 junk_to_hide_inlet junk_to_hide_outlet 1 5 9
1 12 -262130 -1 -1 0 1;
#X obj 90 61 tgl 15 0 junk_to_hide_inlet junk_to_hide_outlet 2 5 9
1 12 -262130 -1 -1 0 1;
#X obj 105 61 tgl 15 0 junk_to_hide_inlet junk_to_hide_outlet 3 5 9
1 12 -262130 -1 -1 0 1;
#X obj 120 61 tgl 15 0 junk_to_hide_inlet junk_to_hide_outlet 4 5 9
1 12 -262130 -1 -1 0 1;
#X obj 135 61 tgl 15 0 junk_to_hide_inlet junk_to_hide_outlet 5 5 9
1 12 -262130 -1 -1 0 1;
#X obj 150 61 tgl 15 0 junk_to_hide_inlet junk_to_hide_outlet 6 5 9
1 12 -262130 -1 -1 0 1;
#X obj 165 61 tgl 15 0 junk_to_hide_inlet junk_to_hide_outlet 7 5 9
1 12 -262130 -1 -1 0 1;
#X msg 59 210 analogIns \$1 \$2;
#X msg 35 106 0 \$1;
#X msg 70 106 1 \$1;
#X msg 105 106 2 \$1;
#X msg 140 106 3 \$1;
#X msg 175 106 4 \$1;
#X msg 210 106 5 \$1;
#X msg 245 106 6 \$1;
#X msg 280 106 7 \$1;
#X msg 202 307 set \$1 \$2 \$3;
#X connect 1 0 0 0;
#X connect 1 1 2 0;
#X connect 2 0 20 0;
#X connect 3 0 12 0;
#X connect 4 0 13 0;
#X connect 5 0 14 0;
#X connect 6 0 15 0;
#X connect 7 0 16 0;
#X connect 8 0 17 0;
#X connect 9 0 18 0;
#X connect 10 0 19 0;
#X connect 11 0 1 0;
#X connect 12 0 11 0;
#X connect 13 0 11 0;
#X connect 14 0 11 0;
#X connect 15 0 11 0;
#X connect 16 0 11 0;
#X connect 17 0 11 0;
#X connect 18 0 11 0;
#X connect 19 0 11 0;
#X connect 20 0 0 0;
#X coords 0 -1 1 1 120 16 1 60 60;
#X restore 51 72 pd serin;
#X text 50 55 which analogIns to enable:;
#X obj 137 220 tgl 20 0 empty empty empty 0 -6 0 8 -258699 -1 -1 0
1;
#X obj 53 261 route analog;
#X floatatom 53 302 5 0 0 0 - - -;
#X obj 53 356 * 7;
#X obj 53 281 route 0;
#X obj 51 113 s \$0-arduino;
#X obj 53 195 r \$0-arduino;
#X obj 186 278 route 1;
#X floatatom 186 299 5 0 0 0 - - -;
#X text 168 130 Tilt;
#X obj 185 192 route digital;
#X floatatom 185 234 5 0 0 0 - - -;
#X msg 225 96 digitalIns 2 0;
#X text 224 59 which digital ports to enable:;
#N canvas 162 133 610 460 seri 0;
#X obj 59 337 outlet;
#X obj 59 266 trigger bang anything;
#X obj 201 286 list;
#X obj 60 61 tgl 15 0 junk_to_hide_inlet ARDUINO_TEST_RESET 0 5 9 1
12 -260736 -1 -1 0 1;
#X obj 75 61 tgl 15 0 junk_to_hide_inlet ARDUINO_TEST_RESET 1 5 9 1
12 -260736 -1 -1 0 1;
#X obj 90 61 tgl 15 0 junk_to_hide_inlet ARDUINO_TEST_RESET 2 5 9 1
12 -260736 -1 -1 0 1;
#X msg 35 106 0 \$1;
#X msg 70 106 1 \$1;
#X msg 105 106 2 \$1;
#X msg 202 307 set \$1 \$2 \$3;
#X msg 59 210 digitalIns \$1 \$2;
#X connect 1 0 0 0;
#X connect 1 1 2 0;
#X connect 2 0 9 0;
#X connect 3 0 6 0;
#X connect 4 0 7 0;
#X connect 5 0 8 0;
#X connect 6 0 10 0;
#X connect 7 0 10 0;
#X connect 8 0 10 0;
#X connect 9 0 0 0;
#X connect 10 0 1 0;
#X coords 0 -1 1 1 45 16 1 60 60;
#X restore 225 76 pd seri;
#X obj 185 212 route 2;
#X obj 313 278 send \$0-arduino;
#X msg 313 255 digital 13 \$1;
#X obj 313 237 tgl 15 0 empty empty empty 0 -6 0 8 -262144 -1 -1 1
1;
#X obj 313 193 loadbang;
#X obj 313 214 del 3000;
#X obj 53 326 average;
#X text 185 259 IR Range Sensor;
#X obj 186 323 average;
#X obj 186 349 * 7;
#X obj 53 413 s coll.arduino;
#X obj 53 387 mux _ _ _;
#X obj 254 356 hradio 10 1 0 3 empty empty empty 0 -8 0 10 -191407
-262144 -1 0;
#X obj 254 370 + 1;
#X text 251 338 Potentiometer or IR sensor control coll size;
#X text 331 233 switch LED on \, once loaded;
#X text 49 217 [arduino 2];
#X connect 0 0 5 0;
#X connect 0 0 14 0;
#X connect 1 0 9 0;
#X connect 2 0 1 0;
#X connect 4 0 0 1;
#X connect 5 0 8 0;
#X connect 5 0 11 0;
#X connect 6 0 25 0;
#X connect 7 0 30 1;
#X connect 8 0 6 0;
#X connect 11 0 12 0;
#X connect 12 0 27 0;
#X connect 14 0 19 0;
#X connect 16 0 9 0;
#X connect 18 0 16 0;
#X connect 19 0 15 0;
#X connect 21 0 20 0;
#X connect 22 0 21 0;
#X connect 23 0 24 0;
#X connect 24 0 22 0;
#X connect 25 0 7 0;
#X connect 27 0 28 0;
#X connect 28 0 30 2;
#X connect 30 0 29 0;
#X connect 31 0 32 0;
#X connect 32 0 30 3;
#X restore 99 462 pd pduino;
#X connect 0 0 9 1;
#X connect 9 2 13 0;
#X connect 11 0 12 0;
#X connect 11 0 27 0;
#X connect 12 0 9 1;
#X connect 13 0 16 0;
#X connect 16 0 29 0;
#X connect 16 1 14 0;
#X connect 16 2 23 0;
#X connect 16 3 31 0;
#X connect 16 4 26 0;
#X connect 16 5 15 0;
#X connect 16 6 32 0;
#X connect 16 7 33 0;
#X connect 16 8 21 0;
#X connect 27 0 9 1;
#X coords 0 -1 1 1 196 136 2 100 100;
