#N canvas 746 216 534 584 10;
#X obj 100 100 cnv 15 200 300 empty empty [CONTOUR] 10 12 0 9 -1 -262144
0;
#N canvas 198 229 526 413 g.con.mon 1;
#X obj 100 100 cnv 15 150 110 empty empty empty 15 12 0 14 -1 -66577
0;
#X floatatom 211 182 5 0 0 0 - - -;
#X obj 216 250 bng 15 250 50 0 empty empty empty 17 7 0 10 -262144
-1 -1;
#X obj 216 269 cup;
#X obj 216 290 % 100;
#X obj 293 197 loadbang;
#X obj 124 185 hsl 80 10 0 1 0 0 $-9999 g.cm empty -2 -8 0 10 -228856
-1 -1 0 1;
#X obj 121 197 tgl 9 0 g.c.sw empty cntr:swtch 11 4 0 9 -162280 -262144
-262144 1 1;
#X obj 159 248 s g.cm;
#X obj 117 231 r g.c;
#X obj 121 119 cnv 15 85 60 empty empty empty 20 12 0 14 -262144 -66577
0;
#N canvas 0 22 450 300 (subpatch) 0;
#X array glbl 100 float 4;
#X coords 0 1 99 0 85 62 1;
#X restore 121 118 graph;
#X obj 117 307 tabwrite glbl;
#X msg 257 132 pd \; glbl const 0 \;;
#X obj 257 166 sel 0;
#X obj 117 265 f;
#X obj -5 232 sssad \$1/gcb;
#X msg 81 214 0;
#X obj 108 103 cnv 15 100 15 empty empty glbl.cntr 15 5 0 9 -1 -262144
0;
#X obj 257 233 r metro2;
#X connect 1 0 15 1;
#X connect 2 0 3 0;
#X connect 2 0 15 0;
#X connect 3 0 4 0;
#X connect 4 0 12 1;
#X connect 5 0 17 0;
#X connect 7 0 16 1;
#X connect 9 0 1 0;
#X connect 9 0 8 0;
#X connect 14 0 13 0;
#X connect 15 0 12 0;
#X connect 16 0 7 0;
#X connect 17 0 7 0;
#X connect 19 0 2 0;
#X coords 0 -1 1 1 150 110 2 100 100;
#X restore 106 256 pd g.con.mon;
#X obj 308 341 sssad \$1/gcntr;
#N canvas 0 48 1280 752 con.mon 0;
#X obj 100 100 cnv 15 150 110 empty empty empty 20 12 0 14 -1 -66577
0;
#X obj 126 119 cnv 15 85 60 empty empty empty 20 12 0 14 -262144 -66577
0;
#N canvas 0 22 450 300 (subpatch) 0;
#X array solo 100 float 5;
#A 0 0 0 0 0 0 0 0 0 0 0 0 0 0 0 0 0 0 0 0 0 0 0 0 0 0 0 0 0 0 0 0
0 7.60608e-08 6.3384e-08 4.43688e-08 3.1692e-08 1.26768e-08 0 0 0 0
0 0 0 0 0 0 0 0 0 0 0 0 0 0 0 0 0 0 0 0 0 0 0 0 0 0 0 0 0 0 0 0 0 0
0 0 0 0 0 0 0 0 0 0 0 0 0 0 0 0 0 0 0 0 0 0 0 0 0;
#X coords 0 1 99 0 85 60 1;
#X restore 126 119 graph;
#X floatatom 40 294 5 0 0 0 - - -;
#X floatatom 99 294 5 0 0 0 - - -;
#X floatatom 159 294 5 0 0 0 - - -;
#X floatatom 214 294 5 0 0 0 - - -;
#X floatatom 266 294 5 0 0 0 - - -;
#X floatatom 320 294 5 0 0 0 - - -;
#X obj 130 384 mux - - - - - -;
#X floatatom 215 179 5 0 0 0 - - -;
#X floatatom 231 387 5 0 0 0 - - -;
#X obj 229 449 cup;
#X obj 229 470 % 100;
#X obj 105 121 vradio 10 1 0 6 con.mon.s empty solo.cntr 20 -10 0 9
-99865 -228856 -262144 0;
#X obj 231 367 r con.mon.s;
#X obj 129 182 hsl 80 10 0 1 0 0 $-9999 cm empty -2 -8 0 10 -228856
-1 -1 0 1;
#X obj 125 195 tgl 9 0 empty empty cntr:swtch 11 4 0 9 -162280 -262144
-262144 1 1;
#X obj 130 487 tabwrite solo;
#X obj 130 445 f;
#X obj 40 272 r 1_icr;
#X obj 99 272 r 2_icr;
#X obj 159 272 r 3_icr;
#X obj 214 272 r 4_icr;
#X obj 266 272 r 5_icr;
#X obj 320 272 r 6_icr;
#X obj -86 51 s 1_cs;
#X obj -79 77 s 2_cs;
#X obj -37 52 s 3_cs;
#X obj -30 78 s 4_cs;
#X obj 10 51 s 5_cs;
#X obj 17 77 s 6_cs;
#X obj 84 443 s cm;
#X msg 306 178 0;
#X obj 24 223 sssad \$1/socbt;
#X obj 699 389 sendOSC;
#X obj 699 269 r osc.sw;
#X msg 732 338 disconnect;
#X obj 699 298 sel 1 0;
#X obj 409 347 spigot;
#X obj 521 261 r g.c;
#X obj 538 284 r glbl.it;
#X msg 409 372 send /contour \$1 \$2 \$3 \$4 \$5 \$6 \$7 \$8 \$9;
#X obj 409 310 pack 0 0 0 0 0 0 0 0 0;
#X obj 409 219 tgl 15 0 empty empty empty 17 7 0 10 -262144 -1 -1 0
1;
#X obj 409 239 metro 50;
#X msg 650 315 0;
#X text 407 183 Send solo contour \, global contour and note onset
to Max/MSP;
#X obj 409 272 f;
#X obj 441 272 + 1;
#X msg 699 365 connect 192.168.1.220 5555;
#X obj 306 158 loadbang;
#X obj 84 422 line;
#X msg 84 401 \$1 5;
#X obj 229 428 r metro2;
#X connect 3 0 9 0;
#X connect 3 0 43 1;
#X connect 4 0 9 1;
#X connect 4 0 43 2;
#X connect 5 0 9 2;
#X connect 5 0 43 3;
#X connect 6 0 9 3;
#X connect 6 0 43 4;
#X connect 7 0 9 4;
#X connect 7 0 43 5;
#X connect 8 0 9 5;
#X connect 8 0 43 6;
#X connect 9 0 53 0;
#X connect 10 0 19 1;
#X connect 12 0 13 0;
#X connect 13 0 18 1;
#X connect 15 0 9 6;
#X connect 15 0 11 0;
#X connect 17 0 26 0;
#X connect 17 0 28 0;
#X connect 17 0 30 0;
#X connect 17 0 27 0;
#X connect 17 0 29 0;
#X connect 17 0 31 0;
#X connect 17 0 34 1;
#X connect 19 0 18 0;
#X connect 20 0 3 0;
#X connect 21 0 4 0;
#X connect 22 0 5 0;
#X connect 23 0 6 0;
#X connect 24 0 7 0;
#X connect 25 0 8 0;
#X connect 33 0 17 0;
#X connect 34 0 17 0;
#X connect 36 0 38 0;
#X connect 36 0 39 1;
#X connect 36 0 44 0;
#X connect 37 0 35 0;
#X connect 38 0 50 0;
#X connect 38 1 37 0;
#X connect 38 1 46 0;
#X connect 39 0 42 0;
#X connect 40 0 43 7;
#X connect 41 0 43 8;
#X connect 42 0 35 0;
#X connect 43 0 39 0;
#X connect 44 0 45 0;
#X connect 45 0 48 0;
#X connect 46 0 48 0;
#X connect 48 0 49 0;
#X connect 48 0 43 0;
#X connect 49 0 48 1;
#X connect 50 0 35 0;
#X connect 51 0 33 0;
#X connect 52 0 32 0;
#X connect 53 0 52 0;
#X connect 53 0 10 0;
#X connect 54 0 12 0;
#X connect 54 0 19 0;
#X coords 0 -1 1 1 150 110 2 100 100;
#X restore 104 134 pd con.mon;
#X obj 219 156 vradio 10 1 0 4 g.cms \$0 pc/ic/cne/rnd 0 -8 0 9 -191407
-1 -262144 2;
#X obj 361 196 s 1_cc;
#X obj 361 227 s 2_cc;
#X obj 378 165 s 3_cc;
#X obj 386 255 s 4_cc;
#X obj 392 132 s 5_cc;
#X obj 396 286 s 6_cc;
#X obj 307 57 sssad \$1/scntr;
#X obj 217 282 vradio 10 1 0 4 global.c.mode \$0 pc/ic/cne/rnd 0 -8
0 9 -191407 -1 -262144 2;
#X obj 252 381 tgl 10 0 osc.sw \$0-21567 OSC 17 5 0 9 -191407 -258113
-262144 0 1;
#X connect 2 0 12 0;
#X connect 4 0 9 0;
#X connect 4 0 7 0;
#X connect 4 0 5 0;
#X connect 4 0 6 0;
#X connect 4 0 8 0;
#X connect 4 0 10 0;
#X connect 4 0 11 1;
#X connect 11 0 4 0;
#X connect 12 0 2 1;
#X coords 0 -1 1 1 200 300 2 100 100;
