#N canvas 0 213 1273 167 10;
#N canvas 153 169 980 564 string1 0;
#X obj 115 105 grid asp 70 -1.5 1.5 70 -1.5 1.5 1 0.01 0.01 10 10 -834
14;
#X obj 229 -87 r azi.1;
#X obj 153 -98 r dist.1;
#X text 146 34 X;
#X text 218 33 Y;
#X obj 159 39 pack f f;
#X msg 252 88 color 90 120 200;
#X text 54 -100 Radius/Distance;
#X text 285 -90 Angle/Azimuth;
#X floatatom 153 -81 5 0 0 0 - - -;
#X floatatom 158 181 5 0 0 0 contour - -;
#X obj 54 164 r s1.c;
#X msg 159 59 values \$1 \$2;
#X obj 252 64 loadbang;
#X floatatom 179 207 10 0 0 0 - - -;
#X floatatom 115 208 5 0 0 0 - - -;
#X floatatom 229 -66 10 0 0 0 - - -;
#X obj 153 -65 / 10;
#X obj 153 -48 * 1.41421;
#X obj 229 -47 * 3.142;
#X obj 229 -25 / 180;
#X floatatom 153 -25 5 0 0 0 amplitude-> - -;
#X obj 159 9 poltocar;
#X obj 204 -8 t b f;
#X floatatom 114 26 5 0 0 0 - - -;
#X floatatom 237 26 5 0 0 0 - - -;
#X connect 0 0 15 0;
#X connect 0 1 14 0;
#X connect 1 0 16 0;
#X connect 2 0 9 0;
#X connect 5 0 12 0;
#X connect 6 0 0 0;
#X connect 9 0 17 0;
#X connect 11 0 10 0;
#X connect 12 0 0 0;
#X connect 13 0 6 0;
#X connect 16 0 19 0;
#X connect 17 0 18 0;
#X connect 18 0 21 0;
#X connect 19 0 20 0;
#X connect 20 0 23 0;
#X connect 21 0 22 0;
#X connect 22 0 5 1;
#X connect 22 0 24 0;
#X connect 22 1 5 0;
#X connect 22 1 25 0;
#X connect 23 0 21 0;
#X connect 23 1 22 1;
#X coords 0 -1 1 1 100 100 2 100 100;
#X restore -884 -26 pd string1;
#X obj -880 83 hsl 90 10 0 360 0 0 az.1 \$0-12736 empty -2 -8 0 10
-262144 -1 -1 0 1;
#X obj -880 106 hsl 90 10 0 10 0 0 ad.1 \$0-12736 empty -2 -8 0 10
-262144 -1 -1 0 1;
#X text -850 102 distance;
#X text -850 79 azimuth;
#X floatatom -783 79 5 0 0 1 degrees azi.1 -;
#X floatatom -783 106 5 0 0 1 distance dist.1 -;
#X obj -938 -25 cnv 15 20 100 empty empty empty 20 12 0 14 -233017
-66577 0;
#X text -933 -22 s;
#X text -933 -8 p;
#X text -933 9 a;
#X text -933 26 c;
#X text -933 43 e;
#N canvas 186 125 980 564 string1 0;
#X obj 115 105 grid asp 70 -1.5 1.5 70 -1.5 1.5 1 0.01 0.01 10 10 -633
16;
#X msg 115 73 values \$1 \$2;
#X obj 210 67 loadbang;
#X msg 210 89 color 90 120 200;
#X text 8 -76 Radius/Distance;
#X text 240 -76 Angle/Azimuth;
#X floatatom 158 181 5 0 0 0 contour - -;
#X obj 54 164 r s2.c;
#X obj 107 -74 r dist.2;
#X obj 183 -75 r azi.2;
#X obj 114 50 pack f f;
#X floatatom 183 -54 10 0 0 0 - - -;
#X obj 107 -53 / 10;
#X obj 107 -36 * 1.41421;
#X obj 183 -35 * 3.142;
#X obj 183 -13 / 180;
#X floatatom 107 -13 5 0 0 0 amplitude-> - -;
#X obj 113 21 poltocar;
#X obj 158 4 t b f;
#X connect 1 0 0 0;
#X connect 2 0 3 0;
#X connect 3 0 0 0;
#X connect 7 0 6 0;
#X connect 8 0 12 0;
#X connect 9 0 11 0;
#X connect 10 0 1 0;
#X connect 11 0 14 0;
#X connect 12 0 13 0;
#X connect 13 0 16 0;
#X connect 14 0 15 0;
#X connect 15 0 18 0;
#X connect 16 0 17 0;
#X connect 17 0 10 1;
#X connect 17 1 10 0;
#X connect 18 0 16 0;
#X connect 18 1 17 1;
#X coords 0 -1 1 1 100 100 2 100 100;
#X restore -683 -24 pd string1;
#N canvas 212 33 980 564 string1 0;
#X obj 115 105 grid asp 70 -1.5 1.5 70 -1.5 1.5 1 0.01 0.01 10 10 -428
18;
#X obj 114 57 pack f f;
#X msg 115 80 values \$1 \$2;
#X obj 212 66 loadbang;
#X msg 212 88 color 90 120 200;
#X text 11 -59 Radius/Distance;
#X text 242 -62 Angle/Azimuth;
#X floatatom 158 181 5 0 0 0 contour - -;
#X obj 108 -59 r dist.3;
#X obj 184 -60 r azi.3;
#X obj 54 164 r s3.c;
#X floatatom 184 -40 10 0 0 0 - - -;
#X obj 108 -39 / 10;
#X obj 108 -22 * 1.41421;
#X obj 184 -21 * 3.142;
#X obj 184 1 / 180;
#X floatatom 108 1 5 0 0 0 amplitude-> - -;
#X obj 114 35 poltocar;
#X obj 159 18 t b f;
#X connect 1 0 2 0;
#X connect 2 0 0 0;
#X connect 3 0 4 0;
#X connect 4 0 0 0;
#X connect 8 0 12 0;
#X connect 9 0 11 0;
#X connect 10 0 7 0;
#X connect 11 0 14 0;
#X connect 12 0 13 0;
#X connect 13 0 16 0;
#X connect 14 0 15 0;
#X connect 15 0 18 0;
#X connect 16 0 17 0;
#X connect 17 0 1 1;
#X connect 17 1 1 0;
#X connect 18 0 16 0;
#X connect 18 1 17 1;
#X coords 0 -1 1 1 100 100 2 100 100;
#X restore -478 -22 pd string1;
#N canvas 300 219 980 564 string1 0;
#X obj 115 105 grid asp 70 -1.5 1.5 70 -1.5 1.5 1 0.01 0.01 10 10 -220
15;
#X obj 115 53 pack f f;
#X msg 115 76 values \$1 \$2;
#X obj 230 66 loadbang;
#X msg 230 88 color 90 120 200;
#X text 17 -55 Radius/Distance;
#X text 240 -69 Angle/Azimuth;
#X floatatom 158 181 5 0 0 0 contour - -;
#X obj 54 164 r s4.c;
#X obj 115 -55 r dist.4;
#X obj 185 -68 r azi.4;
#X floatatom 185 -48 10 0 0 0 - - -;
#X obj 115 -35 / 10;
#X obj 115 -18 * 1.41421;
#X obj 185 -29 * 3.142;
#X obj 185 -7 / 180;
#X floatatom 115 7 5 0 0 0 amplitude-> - -;
#X obj 115 27 poltocar;
#X obj 160 10 t b f;
#X connect 1 0 2 0;
#X connect 2 0 0 0;
#X connect 3 0 4 0;
#X connect 4 0 0 0;
#X connect 8 0 7 0;
#X connect 9 0 12 0;
#X connect 10 0 11 0;
#X connect 11 0 14 0;
#X connect 12 0 13 0;
#X connect 13 0 16 0;
#X connect 14 0 15 0;
#X connect 15 0 18 0;
#X connect 16 0 17 0;
#X connect 17 0 1 1;
#X connect 17 1 1 0;
#X connect 18 0 16 0;
#X connect 18 1 17 1;
#X coords 0 -1 1 1 100 100 2 100 100;
#X restore -270 -24 pd string1;
#N canvas 212 33 980 564 string1 0;
#X obj 115 105 grid asp 70 -1.5 1.5 70 -1.5 1.5 1 0.01 0.01 10 10 0
10;
#X obj 114 53 pack f f;
#X msg 115 76 values \$1 \$2;
#X obj 232 66 loadbang;
#X msg 232 88 color 90 120 200;
#X text 12 -68 Radius/Distance;
#X text 237 -67 Angle/Azimuth;
#X floatatom 158 181 5 0 0 0 contour - -;
#X obj 54 164 r s5.c;
#X obj 108 -68 r dist.5;
#X obj 184 -67 r azi.5;
#X floatatom 184 -47 10 0 0 0 - - -;
#X obj 108 -46 / 10;
#X obj 108 -29 * 1.41421;
#X obj 184 -28 * 3.142;
#X obj 184 -6 / 180;
#X floatatom 108 -6 5 0 0 0 amplitude-> - -;
#X obj 114 28 poltocar;
#X obj 159 11 t b f;
#X connect 1 0 2 0;
#X connect 2 0 0 0;
#X connect 3 0 4 0;
#X connect 4 0 0 0;
#X connect 8 0 7 0;
#X connect 9 0 12 0;
#X connect 10 0 11 0;
#X connect 11 0 14 0;
#X connect 12 0 13 0;
#X connect 13 0 16 0;
#X connect 14 0 15 0;
#X connect 15 0 18 0;
#X connect 16 0 17 0;
#X connect 17 0 1 1;
#X connect 17 1 1 0;
#X connect 18 0 16 0;
#X connect 18 1 17 1;
#X coords 0 -1 1 1 100 100 2 100 100;
#X restore -69 -24 pd string1;
#N canvas 212 33 980 564 string1 0;
#X obj 115 105 grid asp 70 -1.5 1.5 70 -1.5 1.5 1 0.01 0.01 10 10 181
17;
#X obj 114 53 pack f f;
#X msg 115 76 values \$1 \$2;
#X obj 267 66 loadbang;
#X msg 267 88 color 90 120 200;
#X text 12 -69 Radius/Distance;
#X text 238 -70 Angle/Azimuth;
#X floatatom 158 181 5 0 0 0 contour - -;
#X obj 109 -68 r dist.6;
#X obj 185 -69 r azi.6;
#X obj 54 164 r s6.c;
#X floatatom 185 -44 10 0 0 0 - - -;
#X obj 109 -43 / 10;
#X obj 109 -26 * 1.41421;
#X obj 185 -25 * 3.142;
#X obj 185 -3 / 180;
#X floatatom 109 -3 5 0 0 0 amplitude-> - -;
#X obj 115 31 poltocar;
#X obj 160 14 t b f;
#X connect 1 0 2 0;
#X connect 2 0 0 0;
#X connect 3 0 4 0;
#X connect 4 0 0 0;
#X connect 8 0 12 0;
#X connect 9 0 11 0;
#X connect 10 0 7 0;
#X connect 11 0 14 0;
#X connect 12 0 13 0;
#X connect 13 0 16 0;
#X connect 14 0 15 0;
#X connect 15 0 18 0;
#X connect 16 0 17 0;
#X connect 17 0 1 1;
#X connect 17 1 1 0;
#X connect 18 0 16 0;
#X connect 18 1 17 1;
#X coords 0 -1 1 1 100 100 2 100 100;
#X restore 131 -23 pd string1;
#X obj -681 86 hsl 90 10 0 360 0 0 az.2 \$0-12736 empty -2 -8 0 10
-262144 -1 -1 0 1;
#X obj -681 109 hsl 90 10 0 10 0 0 ad.2 \$0-12736 empty -2 -8 0 10
-262144 -1 -1 0 1;
#X text -651 105 distance;
#X text -651 82 azimuth;
#X floatatom -584 82 5 0 0 1 degrees azi.2 -;
#X floatatom -584 109 5 0 0 1 distance dist.2 -;
#X obj -475 86 hsl 90 10 0 360 0 0 az.3 \$0-12736 empty -2 -8 0 10
-262144 -1 -1 0 1;
#X obj -475 109 hsl 90 10 0 10 0 0 ad.3 \$0-12736 empty -2 -8 0 10
-262144 -1 -1 0 1;
#X text -445 105 distance;
#X text -445 82 azimuth;
#X floatatom -378 82 5 0 0 1 degrees azi.3 -;
#X floatatom -378 109 5 0 0 1 distance dist.3 -;
#X obj -265 86 hsl 90 10 0 360 0 0 az.4 \$0-12736 empty -2 -8 0 10
-262144 -1 -1 0 1;
#X obj -265 109 hsl 90 10 0 10 0 0 ad.4 \$0-12736 empty -2 -8 0 10
-262144 -1 -1 0 1;
#X text -235 105 distance;
#X text -235 82 azimuth;
#X floatatom -168 82 5 0 0 1 degrees azi.4 -;
#X floatatom -168 109 5 0 0 1 distance dist.4 -;
#X obj -65 87 hsl 90 10 0 360 0 0 az.5 \$0-12736 empty -2 -8 0 10 -262144
-1 -1 0 1;
#X obj -65 110 hsl 90 10 0 10 0 0 ad.5 \$0-12736 empty -2 -8 0 10 -262144
-1 -1 0 1;
#X text -35 106 distance;
#X text -35 83 azimuth;
#X floatatom 32 83 5 0 0 1 degrees azi.5 -;
#X floatatom 32 110 5 0 0 1 distance dist.5 -;
#X obj 135 87 hsl 90 10 0 360 0 0 az.6 \$0-12736 empty -2 -8 0 10 -262144
-1 -1 0 1;
#X obj 135 110 hsl 90 10 0 10 0 0 ad.6 \$0-12736 empty -2 -8 0 10 -262144
-1 -1 0 1;
#X text 165 106 distance;
#X text 165 83 azimuth;
#X floatatom 232 83 5 0 0 1 degrees azi.6 -;
#X floatatom 232 110 5 0 0 1 distance dist.6 -;
