#N canvas 0 22 1204 736 10;
#X obj 100 100 cnv 15 600 300 empty empty [MATRICES] 20 12 0 9 -1 -262144
0;
#X obj 115 374 cnv 15 100 20 empty empty live.input 0 12 0 9 -1 -262144
0;
#X obj 573 318 bng 10 250 50 0 preset.random empty empty 17 7 0 10
-191407 -1 -1;
#X obj 573 249 bng 10 250 50 0 t.lydian empty empty 10 7 0 10 -191407
-1 -262144;
#X obj 573 337 bng 10 250 50 0 m.major empty empty 17 7 0 10 -191407
-1 -1;
#X obj 573 356 bng 10 250 50 0 m.minor empty empty 17 7 0 10 -191407
-1 -1;
#X obj 573 266 bng 10 250 50 0 t.chromatic empty empty 0 7 0 10 -191407
-1 -1;
#X obj 573 283 bng 10 250 50 0 t.dorian empty empty 17 7 0 10 -191407
-1 -1;
#X obj 573 300 bng 10 250 50 0 t.phrygian empty empty 17 7 0 10 -191407
-1 -1;
#X obj 573 373 bng 10 250 50 0 m.altered empty empty 17 7 0 10 -191407
-1 -1;
#X obj 591 238 cnv 15 100 20 empty empty (tetra)_lydian 0 12 0 9 -1
-262144 0;
#X obj 592 258 cnv 15 100 20 empty empty (tetra)_chromatic 0 12 0 9
-1 -262144 0;
#X obj 592 276 cnv 15 100 20 empty empty (tetra)_dorian 0 12 0 9 -1
-262144 0;
#X obj 591 293 cnv 15 100 20 empty empty (tetra)_phrygian 0 12 0 9
-1 -262144 0;
#X obj 590 311 cnv 15 100 20 empty empty (tetra)_random 0 12 0 9 -1
-262144 0;
#X obj 591 330 cnv 15 100 20 empty empty (modal)_major 0 12 0 9 -1
-262144 0;
#X obj 592 349 cnv 15 100 20 empty empty (modal)_minor 0 12 0 9 -1
-262144 0;
#X obj 592 366 cnv 15 100 20 empty empty (modal)_altered 0 12 0 9 -1
-262144 0;
#N canvas 0 22 450 300 pcmc 0;
#X obj 100 100 cnv 15 250 40 empty empty I/\$1 10 12 0 9 -1 -262144
0;
#X obj 111 121 hradio 15 1 0 12 pc.zero.set tcf.p empty 0 -8 0 10 -191407
-262144 -1 3;
#X text 113 120 C;
#X text 126 120 C#;
#X text 144 120 D;
#X text 156 120 D#;
#X msg 111 76 4;
#X text 174 120 E;
#X text 188 120 F;
#X text 201 120 F#;
#X text 218 120 G;
#X text 249 120 A;
#X text 231 120 G#;
#X text 261 120 A#;
#X text 278 120 B;
#X obj 111 53 loadbang;
#X text 112 141 User can manually change PC 0;
#X obj 121 172 sssad \$1/pczero;
#X connect 1 0 17 1;
#X connect 6 0 1 0;
#X connect 15 0 6 0;
#X connect 17 0 1 0;
#X coords 0 -1 1 1 250 40 2 100 100;
#X restore 108 101 pd pcmc;
#X obj 118 246 cnv 15 100 20 empty empty preset 0 12 0 9 -1 -262144
0;
#X text 114 332 s pc.live.\$1;
#X obj 116 280 hradio 15 1 1 12 empty pc.live.1 empty 0 -8 0 10 -191407
-262144 -1 8;
#X obj 116 294 hradio 15 1 1 12 empty pc.live.2 empty 0 -8 0 10 -191407
-262144 -1 8;
#X obj 116 308 hradio 15 1 1 12 empty pc.live.3 empty 0 -8 0 10 -191407
-262144 -1 9;
#X obj 116 322 hradio 15 1 1 12 empty pc.live.4 empty 0 -8 0 10 -191407
-262144 -1 9;
#X obj 116 336 hradio 15 1 1 12 empty pc.live.5 empty 0 -8 0 10 -195568
-262144 -262144 8;
#X obj 116 350 hradio 15 1 1 12 empty pc.live.6 empty 0 -8 0 10 -195568
-262144 -262144 8;
#X obj 116 364 hradio 15 1 1 12 $ pc.live.7 empty 0 -8 0 10 -195568
-262144 -262144 8;
#X obj 117 152 hradio 15 1 1 12 set1 m1 empty 0 -8 0 10 -191407 -262144
-1 0;
#X obj 117 166 hradio 15 1 1 12 set2 m2 empty 0 -8 0 10 -191407 -262144
-1 2;
#X obj 117 180 hradio 15 1 1 12 set3 m3 empty 0 -8 0 10 -191407 -262144
-1 3;
#X obj 117 194 hradio 15 1 1 12 set4 m4 empty 0 -8 0 10 -191407 -262144
-1 5;
#X obj 117 208 hradio 15 1 1 12 set5 m5 empty 0 -8 0 10 -191407 -262144
-262144 7;
#X obj 117 223 hradio 15 1 1 12 set6 m6 empty 0 -8 0 10 -191407 -262144
-262144 9;
#X obj 117 236 hradio 15 1 1 12 set7 m7 empty 0 -8 0 10 -191407 -262144
-262144 11;
#X obj 708 99 tgl 9 0 tcf \$0-86721 find.tonalcentre 11 5 0 9 -162280
-262144 -262144 0 1;
#X obj 711 122 hsl 100 10 1 4 0 0 sbs \$0-1221 bs.thres(1-4) -2 -8
0 9 -191407 -1 -262144 0 1;
#X obj 711 147 hsl 100 10 100 5000 0 0 stf \$0-1221 stf.thres(ms) -2
-8 0 9 -191407 -1 -262144 0 1;
#X floatatom 709 161 5 0 0 2 - stf -;
#X obj 556 216 cnv 15 100 20 empty empty presets 20 12 0 9 -1 -262144
0;
#X floatatom 319 245 5 0 0 2 - ma.1 -;
#X floatatom 319 266 5 0 0 2 - ma.2 -;
#X floatatom 319 287 5 0 0 2 - ma.3 -;
#X obj 299 215 cnv 15 1 1 empty empty attraction 10 12 0 9 -1 -262144
0;
#X floatatom 319 307 5 0 0 2 - ma.4 -;
#X floatatom 319 327 5 0 0 2 - ma.5 -;
#X floatatom 319 346 5 0 0 2 - ma.6 -;
#X floatatom 319 366 5 0 0 2 - ma.7 -;
#X obj 369 215 cnv 15 1 1 empty empty asymm.ratio 10 12 0 9 -1 -262144
0;
#X floatatom 459 246 5 0 0 2 ma.tc.1 tend.1 -;
#X floatatom 459 267 5 0 0 2 - tend.2 -;
#X floatatom 459 288 5 0 0 2 - tend.3 -;
#X obj 448 215 cnv 15 1 1 empty empty tendency 10 12 0 9 -1 -262144
0;
#X floatatom 459 308 5 0 0 2 - tend.4 -;
#X floatatom 459 328 5 0 0 2 - tend.5 -;
#X floatatom 459 347 5 0 0 2 - tend.6 -;
#X floatatom 459 367 5 0 0 2 - tend.7 -;
#X floatatom 388 245 2 0 0 0 - ar.1a -;
#X floatatom 415 245 2 0 0 0 - ar.1b -;
#X floatatom 388 266 2 0 0 0 - ar.2a -;
#X floatatom 415 266 2 0 0 0 - ar.2b -;
#X floatatom 388 288 2 0 0 0 - ar.3a -;
#X floatatom 415 288 2 0 0 0 - ar.3b -;
#X floatatom 388 309 2 0 0 0 - ar.4a -;
#X floatatom 415 309 2 0 0 0 - ar.4b -;
#X floatatom 388 329 2 0 0 0 - ar.5a -;
#X floatatom 415 329 2 0 0 0 - ar.5b -;
#X floatatom 388 350 2 0 0 0 - ar.6a -;
#X floatatom 415 350 2 0 0 0 - ar.6b -;
#X floatatom 388 369 2 0 0 0 - ar.7a -;
#X floatatom 415 369 2 0 0 0 - ar.7b -;
#X obj 405 253 cnv 5 1 1 empty empty : 0 0 0 9 -1 -262144 0;
#X obj 405 275 cnv 5 1 1 empty empty : 0 0 0 9 -1 -262144 0;
#X obj 405 297 cnv 5 1 1 empty empty : 0 0 0 9 -1 -262144 0;
#X obj 405 318 cnv 5 1 1 empty empty : 0 0 0 9 -1 -262144 0;
#X obj 405 335 cnv 5 1 1 empty empty : 0 0 0 9 -1 -262144 0;
#X obj 405 357 cnv 5 1 1 empty empty : 0 0 0 9 -1 -262144 0;
#X obj 405 383 cnv 5 1 1 empty empty : 0 0 0 9 -1 -262144 0;
#X obj 509 215 cnv 15 1 1 empty empty denial 10 12 0 9 -1 -262144 0
;
#X floatatom 520 245 5 0 0 2 ma.tc.1 deni.1 -;
#X floatatom 520 266 5 0 0 2 - deni.2 -;
#X floatatom 520 287 5 0 0 2 - deni.3 -;
#X floatatom 520 307 5 0 0 2 - deni.4 -;
#X floatatom 520 327 5 0 0 2 - deni.5 -;
#X floatatom 520 346 5 0 0 2 - deni.6 -;
#X floatatom 520 366 5 0 0 2 - deni.7 -;
#X obj 309 157 cnv 15 10 10 empty empty projected.note: 10 12 0 9 -1
-262144 0;
#X obj 309 184 cnv 15 10 10 empty empty bs 10 12 0 9 -1 -262144 0;
#X obj 373 185 cnv 15 10 10 empty empty pcd 10 12 0 9 -1 -262144 0
;
#X obj 449 185 cnv 15 10 10 empty empty attraction 10 12 0 9 -1 -262144
0;
#X floatatom 343 188 3 0 0 0 - pbs -;
#X floatatom 417 188 3 0 0 0 - ppcd -;
#X floatatom 527 188 3 0 0 0 - pmav -;
#X floatatom 399 136 3 0 0 0 - counter -;
#X symbolatom 319 135 3 0 0 0 - note.name -;
#X obj 389 114 cnv 15 10 10 empty empty note.counter 10 12 0 9 -1 -262144
0;
#X obj 318 113 cnv 15 10 20 empty empty note.name 0 12 0 9 -1 -262144
0;
#X coords 0 -1 1 1 600 300 2 100 100;
