#N canvas 0 48 1280 752 10;
#X obj 116 375 s s1.v;
#X obj 177 374 s s2.v;
#X obj 239 376 s s3.v;
#X obj 302 374 s s4.v;
#X obj 363 375 s s5.v;
#X obj 428 375 s s6.v;
#X obj 490 377 s s7.v;
#X obj 534 213 bng 10 250 50 0 empty empty default 12 5 0 9 -191407
-191407 -1;
#X obj 490 76 r fd.7;
#X msg 684 306 1;
#X obj 115 79 r fd.1;
#X obj 177 79 r fd.2;
#X obj 238 78 r fd.3;
#X obj 302 78 r fd.4;
#X obj 363 77 r fd.5;
#X obj 428 77 r fd.6;
#X obj 100 100 cnv 10 550 10 empty empty empty 10 6 0 8 -1 -262144
0;
#X obj 831 196 loadbang;
#X obj 534 131 bng 36 300 50 0 \$0-8621 rec.g punch.rec 0 -10 0 9 -262144
-1 -1;
#X obj 139 231 tgl 10 0 \$0-solo.1 \$0-81276 solo 12 4 0 9 -191407
-262144 -1 0 1;
#X obj 201 231 tgl 10 0 \$0-solo.2 \$0-81276 solo 12 4 0 9 -191407
-262144 -1 0 1;
#X obj 263 231 tgl 10 0 \$0-solo.3 \$0-81276 solo 12 4 0 9 -191407
-262144 -1 0 1;
#X obj 326 232 tgl 10 0 \$0-solo.4 \$0-81276 solo 12 4 0 9 -191407
-262144 -1 0 1;
#X obj 388 233 tgl 10 0 \$0-solo.5 \$0-81276 solo 12 4 0 9 -191407
-262144 -1 0 1;
#X obj 452 234 tgl 10 0 \$0-solo.6 \$0-81276 solo 12 4 0 9 -191407
-262144 -1 0 1;
#N canvas 0 22 1280 752 solo.buttons 0;
#X msg 48 94 1;
#X obj 48 71 sel 1;
#X obj 48 54 r \$0-solo.1;
#X obj 101 116 s s2.v;
#X obj 154 116 s s3.v;
#X obj 207 116 s s4.v;
#X obj 260 116 s s5.v;
#X obj 314 116 s s6.v;
#X obj 367 116 s s7.v;
#X msg 394 88 1;
#X msg 49 209 1;
#X obj 49 186 sel 1;
#X obj 155 231 s s3.v;
#X obj 155 252 s s3.ov;
#X obj 208 231 s s4.v;
#X obj 208 252 s s4.ov;
#X obj 261 231 s s5.v;
#X obj 261 252 s s5.ov;
#X obj 315 231 s s6.v;
#X obj 315 252 s s6.ov;
#X obj 368 231 s s7.v;
#X obj 368 252 s s7.ov;
#X msg 395 203 1;
#X obj 49 169 r \$0-solo.2;
#X obj 49 253 s s2.ov;
#X obj 102 231 s s1.v;
#X obj 102 252 s s1.ov;
#X msg 49 327 1;
#X obj 49 304 sel 1;
#X obj 102 349 s s2.v;
#X obj 208 349 s s4.v;
#X obj 261 349 s s5.v;
#X obj 315 349 s s6.v;
#X obj 368 349 s s7.v;
#X msg 395 321 1;
#X msg 50 442 1;
#X obj 50 419 sel 1;
#X obj 156 521 s s3.v;
#X obj 262 521 s s5.v;
#X obj 316 521 s s6.v;
#X obj 369 521 s s7.v;
#X msg 396 436 1;
#X obj 103 521 s s1.v;
#X obj 49 287 r \$0-solo.3;
#X obj 50 402 r \$0-solo.4;
#X obj 155 349 s s1.v;
#X obj 209 521 s s2.v;
#X msg 468 94 1;
#X obj 468 71 sel 1;
#X obj 574 116 s s3.v;
#X obj 627 116 s s4.v;
#X obj 734 116 s s6.v;
#X obj 787 116 s s7.v;
#X msg 814 88 1;
#X obj 521 116 s s1.v;
#X msg 468 212 1;
#X obj 468 189 sel 1;
#X obj 521 234 s s2.v;
#X obj 627 234 s s4.v;
#X obj 680 234 s s5.v;
#X obj 787 234 s s7.v;
#X msg 814 206 1;
#X msg 469 327 1;
#X obj 469 304 sel 1;
#X obj 575 349 s s3.v;
#X obj 681 349 s s5.v;
#X obj 735 349 s s6.v;
#X msg 815 321 1;
#X obj 522 349 s s1.v;
#X obj 574 234 s s1.v;
#X obj 628 349 s s2.v;
#X obj 468 54 r \$0-solo.5;
#X obj 468 172 r \$0-solo.6;
#X obj 469 287 r \$0-solo.7;
#X obj 680 116 s s2.v;
#X obj 734 234 s s3.v;
#X obj 788 349 s s4.v;
#X obj 49 232 s s2.v;
#X obj 49 350 s s3.v;
#X obj 50 522 s s4.v;
#X obj 48 117 s s1.v;
#X obj 468 117 s s5.v;
#X obj 468 235 s s6.v;
#X obj 469 350 s s7.v;
#X msg 102 210 0;
#X msg 101 95 0;
#X msg 521 95 0;
#X msg 521 213 0;
#X msg 522 328 0;
#X msg 103 443 0;
#X msg 102 328 0;
#X connect 0 0 80 0;
#X connect 1 0 0 0;
#X connect 1 0 85 0;
#X connect 1 1 9 0;
#X connect 2 0 1 0;
#X connect 9 0 3 0;
#X connect 9 0 4 0;
#X connect 9 0 5 0;
#X connect 9 0 6 0;
#X connect 9 0 7 0;
#X connect 9 0 8 0;
#X connect 9 0 80 0;
#X connect 10 0 24 0;
#X connect 10 0 77 0;
#X connect 11 0 10 0;
#X connect 11 0 84 0;
#X connect 11 1 22 0;
#X connect 22 0 12 0;
#X connect 22 0 13 0;
#X connect 22 0 14 0;
#X connect 22 0 15 0;
#X connect 22 0 16 0;
#X connect 22 0 17 0;
#X connect 22 0 18 0;
#X connect 22 0 19 0;
#X connect 22 0 20 0;
#X connect 22 0 21 0;
#X connect 22 0 24 0;
#X connect 22 0 25 0;
#X connect 22 0 26 0;
#X connect 22 0 77 0;
#X connect 23 0 11 0;
#X connect 27 0 78 0;
#X connect 28 0 27 0;
#X connect 28 0 90 0;
#X connect 28 1 34 0;
#X connect 34 0 29 0;
#X connect 34 0 30 0;
#X connect 34 0 31 0;
#X connect 34 0 32 0;
#X connect 34 0 33 0;
#X connect 34 0 45 0;
#X connect 34 0 78 0;
#X connect 35 0 79 0;
#X connect 36 0 35 0;
#X connect 36 0 89 0;
#X connect 36 1 41 0;
#X connect 41 0 37 0;
#X connect 41 0 38 0;
#X connect 41 0 39 0;
#X connect 41 0 40 0;
#X connect 41 0 42 0;
#X connect 41 0 46 0;
#X connect 41 0 79 0;
#X connect 43 0 28 0;
#X connect 44 0 36 0;
#X connect 47 0 81 0;
#X connect 48 0 47 0;
#X connect 48 0 86 0;
#X connect 48 1 53 0;
#X connect 53 0 49 0;
#X connect 53 0 50 0;
#X connect 53 0 51 0;
#X connect 53 0 52 0;
#X connect 53 0 54 0;
#X connect 53 0 74 0;
#X connect 53 0 81 0;
#X connect 55 0 82 0;
#X connect 56 0 55 0;
#X connect 56 0 87 0;
#X connect 56 1 61 0;
#X connect 61 0 57 0;
#X connect 61 0 58 0;
#X connect 61 0 59 0;
#X connect 61 0 60 0;
#X connect 61 0 69 0;
#X connect 61 0 75 0;
#X connect 61 0 82 0;
#X connect 62 0 83 0;
#X connect 63 0 62 0;
#X connect 63 0 88 0;
#X connect 63 1 67 0;
#X connect 67 0 64 0;
#X connect 67 0 65 0;
#X connect 67 0 66 0;
#X connect 67 0 68 0;
#X connect 67 0 70 0;
#X connect 67 0 76 0;
#X connect 67 0 83 0;
#X connect 71 0 48 0;
#X connect 72 0 56 0;
#X connect 73 0 63 0;
#X connect 84 0 12 0;
#X connect 84 0 13 0;
#X connect 84 0 14 0;
#X connect 84 0 15 0;
#X connect 84 0 16 0;
#X connect 84 0 17 0;
#X connect 84 0 18 0;
#X connect 84 0 19 0;
#X connect 84 0 20 0;
#X connect 84 0 21 0;
#X connect 84 0 25 0;
#X connect 84 0 26 0;
#X connect 85 0 3 0;
#X connect 85 0 4 0;
#X connect 85 0 5 0;
#X connect 85 0 6 0;
#X connect 85 0 7 0;
#X connect 85 0 8 0;
#X connect 86 0 49 0;
#X connect 86 0 50 0;
#X connect 86 0 51 0;
#X connect 86 0 52 0;
#X connect 86 0 54 0;
#X connect 86 0 74 0;
#X connect 87 0 57 0;
#X connect 87 0 58 0;
#X connect 87 0 59 0;
#X connect 87 0 60 0;
#X connect 87 0 69 0;
#X connect 87 0 75 0;
#X connect 88 0 64 0;
#X connect 88 0 65 0;
#X connect 88 0 66 0;
#X connect 88 0 68 0;
#X connect 88 0 70 0;
#X connect 88 0 76 0;
#X connect 89 0 37 0;
#X connect 89 0 38 0;
#X connect 89 0 39 0;
#X connect 89 0 40 0;
#X connect 89 0 42 0;
#X connect 89 0 46 0;
#X connect 90 0 29 0;
#X connect 90 0 30 0;
#X connect 90 0 31 0;
#X connect 90 0 32 0;
#X connect 90 0 33 0;
#X connect 90 0 45 0;
#X restore -27 335 pd solo.buttons;
#X obj 534 191 tgl 10 0 \$0-solo.7 \$0-81276 solo 12 4 0 9 -191407
-262144 -1 0 1;
#N canvas 0 22 450 300 gtcc 0;
#X obj 100 100 cnv 15 80 100 empty empty empty 20 12 0 14 -262144 -66577
0;
#X obj 111 106 cnv 15 50 20 empty empty coll.size 10 12 0 9 -262144
-1 0;
#X obj 210 125 i;
#X obj 109 156 cnv 15 50 20 empty empty glbl.tmpo 10 12 0 9 -262144
-1 0;
#X obj 122 177 knob 15 15 60 500 0 0 empty empty empty 0 -8 1 9 -262144
-1 -262144 191 1;
#X obj 122 247 s global.bpm;
#X obj 122 226 expr 60 / $f1 * 1000;
#X obj 130 201 i;
#X floatatom 143 177 4 0 0 0 - - -;
#X obj 122 127 knob 15 15 4 7 0 1 empty empty empty 0 -8 2 4 -262144
-1 -1 1400 1;
#X obj 210 145 s coll.size;
#X floatatom 144 128 4 0 0 0 - - -;
#X obj 10 116 loadbang;
#X msg 25 139 120;
#X msg 10 164 7;
#X obj 122 74 r coll.arduino;
#X obj 22 212 r glbl.tmpo1;
#X obj 22 260 s glbl.tmpo2;
#X connect 2 0 10 0;
#X connect 2 0 11 0;
#X connect 4 0 6 0;
#X connect 4 0 7 0;
#X connect 4 0 17 0;
#X connect 6 0 5 0;
#X connect 7 0 8 0;
#X connect 9 0 2 0;
#X connect 12 0 13 0;
#X connect 12 0 14 0;
#X connect 13 0 4 0;
#X connect 14 0 9 0;
#X connect 15 0 9 0;
#X connect 16 0 4 0;
#X coords 0 -1 1 1 80 100 2 100 100;
#X restore 515 229 pd gtcc;
#X obj -26 307 sssad \$1/s1;
#X obj 141 48 sssad \$1/s2;
#X obj 226 47 sssad \$1/s3;
#X obj 305 46 sssad \$1/s4;
#X obj 390 46 sssad \$1/s5;
#X obj 477 47 sssad \$1/s6;
#X obj 562 47 sssad \$1/s7;
#X obj 642 44 sssad \$1/s8;
#X obj 217 466 sssad \$1/coll1;
#X obj 217 486 s coll.arduino;
#X obj 298 447 r coll.size;
#X obj 115 133 colorFader;
#X obj 382 490 s glbl.tmpo1;
#X obj 382 468 sssad \$1/tmpo;
#X obj 457 447 r glbl.tmpo2;
#X obj 553 149 image img/punch_tn.gif;
#X obj 100 339 cnv 10 550 30 empty empty STRINGS_(1_to_6)_&_MONOAURAL_PICK-UP
10 6 0 9 -1 -262144 0;
#X obj 617 322 cnv 15 20 40 empty empty MONO.VOL -15 25 0 9 -1 -262144
0;
#X obj 490 133 colorFader;
#X obj 302 133 colorFader;
#X obj 363 133 colorFader;
#X obj 428 133 colorFader;
#X obj 617 133 colorFader;
#X obj 177 133 colorFader;
#X obj 239 133 colorFader;
#X obj 675 476 ctlin;
#X floatatom 675 503 5 0 0 0 - - -;
#X floatatom 712 502 5 0 0 0 - - -;
#X obj 675 547 spigot;
#X obj 712 522 == 3;
#X obj 675 569 / 127;
#X obj 3 90 bng 15 250 50 0 empty empty empty 17 7 0 10 -262144 -1
-1;
#X obj 3 64 init.string;
#X obj -84 73 r init.scene;
#X obj 3 116 del 100;
#X obj 25 152 sssad \$1/b1;
#X obj 143 190 sssad \$1/b2;
#X obj 249 190 sssad \$1/b3;
#X obj 325 190 sssad \$1/b4;
#X obj 413 191 sssad \$1/b5;
#X obj 725 224 sssad \$1/b7;
#X obj 445 297 sssad \$1/b6;
#X obj 558 325 bng 10 250 50 0 empty metro empty 12 4 0 9 -228856 -258113
-1;
#X obj 572 325 tgl 10 0 met.sw \$0-81276 0_1 12 4 0 9 -191407 -262144
-1 0 1;
#X obj 580 167 s rec;
#X obj 593 117 bng 10 250 50 0 empty empty empty 12 4 0 9 -228856 -258113
-1;
#X obj 617 384 s mono.vol;
#X connect 7 0 9 0;
#X connect 8 0 46 0;
#X connect 9 0 39 0;
#X connect 9 0 46 0;
#X connect 9 0 47 0;
#X connect 9 0 48 0;
#X connect 9 0 49 0;
#X connect 9 0 50 0;
#X connect 9 0 51 0;
#X connect 9 0 52 0;
#X connect 10 0 39 0;
#X connect 11 0 51 0;
#X connect 12 0 52 0;
#X connect 13 0 47 0;
#X connect 14 0 48 0;
#X connect 15 0 49 0;
#X connect 17 0 7 0;
#X connect 18 0 73 0;
#X connect 28 0 39 0;
#X connect 29 0 51 0;
#X connect 30 0 52 0;
#X connect 31 0 47 0;
#X connect 32 0 48 0;
#X connect 33 0 49 0;
#X connect 34 0 46 0;
#X connect 35 0 50 0;
#X connect 36 0 37 0;
#X connect 38 0 36 1;
#X connect 39 0 0 0;
#X connect 39 0 28 1;
#X connect 41 0 40 0;
#X connect 42 0 41 1;
#X connect 46 0 34 1;
#X connect 46 0 6 0;
#X connect 47 0 3 0;
#X connect 47 0 31 1;
#X connect 48 0 4 0;
#X connect 48 0 32 1;
#X connect 49 0 5 0;
#X connect 49 0 33 1;
#X connect 50 0 35 1;
#X connect 50 0 74 0;
#X connect 51 0 1 0;
#X connect 51 0 29 1;
#X connect 52 0 2 0;
#X connect 52 0 30 1;
#X connect 53 0 54 0;
#X connect 53 1 55 0;
#X connect 54 0 56 0;
#X connect 55 0 57 0;
#X connect 56 0 58 0;
#X connect 57 0 56 1;
#X connect 58 0 46 0;
#X connect 59 0 62 0;
#X connect 60 0 59 0;
#X connect 61 0 59 0;
#X connect 62 0 39 0;
#X connect 62 0 51 0;
#X connect 62 0 52 0;
#X connect 62 0 47 0;
#X connect 62 0 48 0;
#X connect 62 0 49 0;
#X connect 62 0 46 0;
#X connect 73 0 72 0;
#X coords 0 -1 1 1 550 270 2 100 100;
