#N canvas 0 22 606 428 10;
#X obj 3 142 loadbang;
#X obj 100 100 cnv 15 250 40 empty empty empty 10 12 0 9 -1 -262144
0;
#X obj 107 122 hradio 10 1 0 3 \$0-12465 \$0-2y19 pick-up.select.(GT/RLD/RMC)
0 -8 0 9 -99865 -262144 -262144 0;
#X symbolatom 279 113 10 0 0 0 - #0-pickup.select #0-12345;
#X msg 3 166 symbol Graphtech;
#X msg 330 164 symbol RMC;
#X obj 3 43 s \$0-pickup.select;
#X text 12 344 Add relevant volume values;
#X obj 3 321 s fd.1;
#X obj 56 321 s fd.2;
#X obj 109 321 s fd.3;
#X obj 161 321 s fd.4;
#X obj 218 321 s fd.5;
#X obj 274 321 s fd.6;
#X obj 328 321 s fd.7;
#X msg 4 187 1;
#X obj 107 141 sel 0 1 2;
#X msg 518 190 1;
#X msg 36 188 0.6;
#X msg 69 188 0.6;
#X msg 450 204 0;
#X msg 145 213 1;
#X msg 183 214 1;
#X msg 236 209 0.8;
#X msg 340 203 0.5;
#X msg 283 203 0.6;
#X msg 396 203 0.5;
#X msg 124 165 symbol Roland;
#X connect 0 0 4 0;
#X connect 2 0 16 0;
#X connect 4 0 6 0;
#X connect 4 0 15 0;
#X connect 4 0 18 0;
#X connect 4 0 19 0;
#X connect 5 0 17 0;
#X connect 5 0 6 0;
#X connect 15 0 8 0;
#X connect 15 0 9 0;
#X connect 15 0 10 0;
#X connect 15 0 11 0;
#X connect 15 0 14 0;
#X connect 16 0 4 0;
#X connect 16 1 27 0;
#X connect 16 2 5 0;
#X connect 17 0 14 0;
#X connect 17 0 13 0;
#X connect 17 0 12 0;
#X connect 17 0 11 0;
#X connect 17 0 10 0;
#X connect 17 0 9 0;
#X connect 17 0 8 0;
#X connect 18 0 12 0;
#X connect 19 0 13 0;
#X connect 20 0 14 0;
#X connect 21 0 8 0;
#X connect 22 0 9 0;
#X connect 23 0 10 0;
#X connect 24 0 12 0;
#X connect 25 0 11 0;
#X connect 26 0 13 0;
#X connect 27 0 6 0;
#X connect 27 0 22 0;
#X connect 27 0 23 0;
#X connect 27 0 25 0;
#X connect 27 0 24 0;
#X connect 27 0 26 0;
#X connect 27 0 20 0;
#X connect 27 0 21 0;
#X coords 0 -1 1 1 250 40 2 100 100;
