#N canvas 60 71 939 469 10;
#X obj 100 100 cnv 15 250 40 empty empty empty 10 12 0 9 -1 -262144
0;
#X obj 107 122 hradio 10 1 0 10 \$0-12465 \$0-2y19 scene.presets 0
-8 0 9 -99865 -262144 -262144 0;
#X symbolatom 214 117 8 0 0 0 - #0-preset.select #0-12345;
#N canvas 0 22 1030 474 preset.display 0;
#X obj 17 153 loadbang;
#X obj 81 391 s \$0-preset.select;
#X obj 107 141 sel 0 1 2 3 4 5 6 7 8 9;
#X obj 107 118 inlet;
#X msg 17 182 symbol scene1;
#X msg 80 205 symbol scene2;
#X msg 134 245 symbol scene3;
#X msg 168 179 symbol scene4;
#X msg 230 200 symbol scene5;
#X msg 289 232 symbol scene6;
#X msg 312 177 symbol scene7;
#X msg 374 201 symbol scene8;
#X msg 236 291 symbol scene9;
#X msg 209 358 symbol scene10;
#X text 40 70 GUI display;
#X obj 171 93 s \$2-preset.select;
#X connect 0 0 4 0;
#X connect 2 0 4 0;
#X connect 2 1 5 0;
#X connect 2 2 6 0;
#X connect 2 3 7 0;
#X connect 2 4 8 0;
#X connect 2 5 9 0;
#X connect 2 6 10 0;
#X connect 2 7 11 0;
#X connect 2 8 12 0;
#X connect 2 9 13 0;
#X connect 3 0 2 0;
#X connect 3 0 15 0;
#X connect 4 0 1 0;
#X connect 5 0 1 0;
#X connect 6 0 1 0;
#X connect 7 0 1 0;
#X connect 8 0 1 0;
#X connect 9 0 1 0;
#X connect 10 0 1 0;
#X connect 11 0 1 0;
#X connect 12 0 1 0;
#X connect 13 0 1 0;
#X restore 107 143 pd preset.display;
#N canvas 250 22 1030 688 sssad 1;
#X obj 23 325 cnv 15 400 300 empty empty Restore 300 12 0 14 -233017
-123526 0;
#X obj 23 22 cnv 15 400 300 empty empty Save 300 12 0 14 -233017 -123526
0;
#X obj 249 247 textfile;
#X msg 138 148 clear;
#X msg 323 230 print;
#X obj 249 171 list prepend add;
#X obj 249 197 list trim;
#X obj 96 530 textfile;
#X obj 96 560 s SSSAD;
#X obj 96 472 until;
#X msg 96 451 100;
#X msg 40 513 print;
#X text 91 582 also received inside sssad;
#X obj 116 248 s SSSAD_ADMIN;
#X obj 249 103 r SSSAD_ADMIN;
#X obj 249 147 route persist;
#X obj 249 125 list trim;
#X msg 116 182 save;
#X msg 130 221 set;
#X obj 164 557 s SSSAD_ADMIN;
#X msg 164 532 set;
#X obj 94 69 savepanel;
#X obj 94 112 t a b b;
#X msg 94 295 write \$1;
#X obj 94 41 bng 24 250 50 0 empty empty save 0 -6 0 8 -262144 -1 -1
;
#X obj 96 428 t b a;
#X msg 143 473 read \$1 \, rewind;
#X obj 96 347 bng 24 250 50 0 empty empty load 0 -6 0 8 -262144 -1
-1;
#X obj 96 375 openpanel;
#X text 128 451 Avoid loops. A bang normally also works.;
#X obj 94 91 symbol;
#X msg 41 74 bang;
#X text 35 53 again;
#X obj 96 405 symbol;
#X msg 39 388 bang;
#X text 37 368 again;
#X obj 191 330 inlet;
#X obj 31 24 inlet;
#X obj 455 86 r \$2-preset.select;
#X obj 455 109 sel 0 1 2 3 4 5 6 7 8 9;
#X obj 293 514 del 200;
#X obj 540 294 r preset.dir;
#X msg 556 188 /presets/scene2;
#X msg 556 215 /presets/scene3;
#X msg 556 159 /presets/scene1;
#X msg 556 244 /presets/scene4;
#X obj 495 359 pack s s;
#X obj 495 415 print preset;
#X obj 495 294 symbol;
#X obj 540 336 symbol;
#X msg 495 388 symbol \$2\$1;
#X text 452 469 Now dynamic! Should update location on system start-up
;
#X text 452 490 Use default parameter on main GUI to intialise;
#X msg 665 158 /presets/scene5;
#X msg 665 188 /presets/scene6;
#X msg 665 215 /presets/scene7;
#X msg 665 244 /presets/scene8;
#X msg 773 158 /presets/scene9;
#X msg 773 187 /presets/scene10;
#X connect 3 0 2 0;
#X connect 4 0 2 0;
#X connect 5 0 6 0;
#X connect 6 0 2 0;
#X connect 7 0 8 0;
#X connect 7 1 9 1;
#X connect 7 1 20 0;
#X connect 9 0 7 0;
#X connect 10 0 9 0;
#X connect 11 0 7 0;
#X connect 14 0 16 0;
#X connect 15 0 5 0;
#X connect 16 0 15 0;
#X connect 17 0 13 0;
#X connect 18 0 13 0;
#X connect 20 0 19 0;
#X connect 21 0 30 0;
#X connect 22 0 23 0;
#X connect 22 1 17 0;
#X connect 22 2 3 0;
#X connect 23 0 2 0;
#X connect 24 0 21 0;
#X connect 25 0 10 0;
#X connect 25 1 26 0;
#X connect 26 0 7 0;
#X connect 27 0 28 0;
#X connect 28 0 33 0;
#X connect 30 0 22 0;
#X connect 31 0 30 0;
#X connect 33 0 25 0;
#X connect 34 0 33 0;
#X connect 36 0 27 0;
#X connect 37 0 24 0;
#X connect 38 0 39 0;
#X connect 39 0 44 0;
#X connect 39 0 40 0;
#X connect 39 1 42 0;
#X connect 39 1 40 0;
#X connect 39 2 43 0;
#X connect 39 2 40 0;
#X connect 39 3 40 0;
#X connect 39 3 45 0;
#X connect 39 4 53 0;
#X connect 39 5 54 0;
#X connect 39 6 55 0;
#X connect 39 7 56 0;
#X connect 39 8 57 0;
#X connect 39 9 58 0;
#X connect 40 0 20 0;
#X connect 41 0 49 0;
#X connect 42 0 48 0;
#X connect 43 0 48 0;
#X connect 44 0 48 0;
#X connect 45 0 48 0;
#X connect 46 0 50 0;
#X connect 48 0 46 0;
#X connect 49 0 46 1;
#X connect 50 0 33 0;
#X connect 50 0 47 0;
#X connect 53 0 48 0;
#X connect 54 0 48 0;
#X connect 55 0 48 0;
#X connect 56 0 48 0;
#X connect 57 0 48 0;
#X connect 58 0 48 0;
#X restore 231 180 pd sssad;
#X obj 276 106 bng 10 250 50 0 empty empty empty 17 7 0 10 -128992
-1 -1;
#X obj 276 123 bng 10 250 50 0 empty empty empty 17 7 0 10 -128992
-1 -1;
#X obj 292 110 cnv 5 1 1 empty empty save 0 0 0 9 -1 -262144 0;
#X obj 292 126 cnv 5 1 1 empty empty load 0 0 0 9 -1 -262144 0;
#X obj -88 -96 ctlin;
#X floatatom -88 -69 5 0 0 0 - - -;
#X floatatom -51 -70 5 0 0 0 - - -;
#X obj -88 -25 spigot;
#X obj -51 -50 == 67;
#X obj -88 -2 sel 127;
#X obj -88 19 bng 15 250 50 0 empty empty empty 17 7 0 10 -262144 -1
-1;
#X msg -88 38 0;
#X obj -7 -96 ctlin;
#X floatatom -7 -69 5 0 0 0 - - -;
#X floatatom 30 -70 5 0 0 0 - - -;
#X obj -7 -25 spigot;
#X obj -7 -2 sel 127;
#X obj -7 19 bng 15 250 50 0 empty empty empty 17 7 0 10 -262144 -1
-1;
#X obj 30 -50 == 68;
#X msg -7 38 1;
#X obj 76 -93 ctlin;
#X floatatom 76 -66 5 0 0 0 - - -;
#X floatatom 113 -67 5 0 0 0 - - -;
#X obj 76 -22 spigot;
#X obj 76 1 sel 127;
#X obj 76 22 bng 15 250 50 0 empty empty empty 17 7 0 10 -262144 -1
-1;
#X obj 113 -47 == 69;
#X msg 76 41 2;
#X obj 158 -93 ctlin;
#X floatatom 158 -66 5 0 0 0 - - -;
#X floatatom 195 -67 5 0 0 0 - - -;
#X obj 158 -22 spigot;
#X obj 158 1 sel 127;
#X obj 158 22 bng 15 250 50 0 empty empty empty 17 7 0 10 -262144 -1
-1;
#X msg 158 41 3;
#X obj 195 -47 == 70;
#X obj 244 -92 ctlin;
#X floatatom 244 -65 5 0 0 0 - - -;
#X floatatom 281 -66 5 0 0 0 - - -;
#X obj 244 -21 spigot;
#X obj 244 2 sel 127;
#X obj 244 23 bng 15 250 50 0 empty empty empty 17 7 0 10 -262144 -1
-1;
#X obj 325 -92 ctlin;
#X floatatom 325 -65 5 0 0 0 - - -;
#X floatatom 362 -66 5 0 0 0 - - -;
#X obj 325 -21 spigot;
#X obj 325 2 sel 127;
#X obj 325 23 bng 15 250 50 0 empty empty empty 17 7 0 10 -262144 -1
-1;
#X obj 408 -89 ctlin;
#X floatatom 408 -62 5 0 0 0 - - -;
#X floatatom 445 -63 5 0 0 0 - - -;
#X obj 408 -18 spigot;
#X obj 408 5 sel 127;
#X obj 408 26 bng 15 250 50 0 empty empty empty 17 7 0 10 -262144 -1
-1;
#X obj 490 -89 ctlin;
#X floatatom 490 -62 5 0 0 0 - - -;
#X floatatom 527 -63 5 0 0 0 - - -;
#X obj 490 -18 spigot;
#X obj 490 5 sel 127;
#X obj 490 26 bng 15 250 50 0 empty empty empty 17 7 0 10 -262144 -1
-1;
#X obj 281 -46 == 71;
#X msg 244 42 4;
#X obj 362 -46 == 72;
#X msg 325 42 5;
#X msg 408 45 6;
#X obj 445 -43 == 73;
#X obj 527 -43 == 74;
#X msg 490 45 7;
#X obj 574 -90 ctlin;
#X floatatom 574 -63 5 0 0 0 - - -;
#X floatatom 611 -64 5 0 0 0 - - -;
#X obj 574 -19 spigot;
#X obj 574 4 sel 127;
#X obj 574 25 bng 15 250 50 0 empty empty empty 17 7 0 10 -262144 -1
-1;
#X msg 574 44 8;
#X obj 611 -44 == 75;
#X text 660 -70 control using korg nano;
#X obj -26 110 init.string;
#X obj 47 127 i;
#X obj 60 163 bng 15 250 50 0 empty empty empty 17 7 0 10 -262144 -1
-1;
#X obj 60 183 s init.scene;
#X connect 1 0 3 0;
#X connect 1 0 83 1;
#X connect 1 0 84 0;
#X connect 5 0 4 0;
#X connect 6 0 4 1;
#X connect 9 0 10 0;
#X connect 9 1 11 0;
#X connect 10 0 12 0;
#X connect 11 0 13 0;
#X connect 12 0 14 0;
#X connect 13 0 12 1;
#X connect 14 0 15 0;
#X connect 15 0 16 0;
#X connect 16 0 1 0;
#X connect 17 0 18 0;
#X connect 17 1 19 0;
#X connect 18 0 20 0;
#X connect 19 0 23 0;
#X connect 20 0 21 0;
#X connect 21 0 22 0;
#X connect 22 0 24 0;
#X connect 23 0 20 1;
#X connect 24 0 1 0;
#X connect 25 0 26 0;
#X connect 25 1 27 0;
#X connect 26 0 28 0;
#X connect 27 0 31 0;
#X connect 28 0 29 0;
#X connect 29 0 30 0;
#X connect 30 0 32 0;
#X connect 31 0 28 1;
#X connect 32 0 1 0;
#X connect 33 0 34 0;
#X connect 33 1 35 0;
#X connect 34 0 36 0;
#X connect 35 0 40 0;
#X connect 36 0 37 0;
#X connect 37 0 38 0;
#X connect 38 0 39 0;
#X connect 39 0 1 0;
#X connect 40 0 36 1;
#X connect 41 0 42 0;
#X connect 41 1 43 0;
#X connect 42 0 44 0;
#X connect 43 0 65 0;
#X connect 44 0 45 0;
#X connect 45 0 46 0;
#X connect 46 0 66 0;
#X connect 47 0 48 0;
#X connect 47 1 49 0;
#X connect 48 0 50 0;
#X connect 49 0 67 0;
#X connect 50 0 51 0;
#X connect 51 0 52 0;
#X connect 52 0 68 0;
#X connect 53 0 54 0;
#X connect 53 1 55 0;
#X connect 54 0 56 0;
#X connect 55 0 70 0;
#X connect 56 0 57 0;
#X connect 57 0 58 0;
#X connect 58 0 69 0;
#X connect 59 0 60 0;
#X connect 59 1 61 0;
#X connect 60 0 62 0;
#X connect 61 0 71 0;
#X connect 62 0 63 0;
#X connect 63 0 64 0;
#X connect 64 0 72 0;
#X connect 65 0 44 1;
#X connect 66 0 1 0;
#X connect 67 0 50 1;
#X connect 68 0 1 0;
#X connect 69 0 1 0;
#X connect 70 0 56 1;
#X connect 71 0 62 1;
#X connect 72 0 1 0;
#X connect 73 0 74 0;
#X connect 73 1 75 0;
#X connect 74 0 76 0;
#X connect 75 0 80 0;
#X connect 76 0 77 0;
#X connect 77 0 78 0;
#X connect 78 0 79 0;
#X connect 79 0 1 0;
#X connect 80 0 76 1;
#X connect 82 0 83 0;
#X connect 83 0 1 0;
#X connect 84 0 85 0;
#X coords 0 -1 1 1 250 40 2 100 100;
