#N canvas 237 196 652 516 10;
#X obj 100 100 cnv 15 200 300 empty empty [SPACE] 10 12 0 9 -1 -262144
0;
#X obj 466 335 tgl 10 0 lrds.sw empty leroids 11 4 0 9 -162280 -262144
-1 0 1;
#X obj 113 146 vradio 10 1 0 3 array.config \$0-92781 array.config
0 -10 0 9 -191407 -262144 -262144 0;
#X obj 131 143 cnv 15 10 10 empty empty stereo 0 7 0 9 -1 -262144 0
;
#X obj 131 154 cnv 15 10 10 empty empty quad 0 7 0 9 -1 -262144 0;
#X obj 131 166 cnv 15 10 10 empty empty octagon 0 7 0 9 -1 -262144
0;
#X obj 102 220 cnv 15 1 1 empty empty TPS_(Lerdahl) 10 12 0 9 -1 -262144
0;
#X obj 102 353 cnv 15 1 1 empty empty Euclidean 10 12 0 9 -1 -262144
0;
#X obj 112 203 hradio 10 1 0 5 sp.c.sw spatial.cntrl glbl/solo/car2pol/ler/rot
0 -7 0 9 -99865 -262144 -262144 3;
#X text 99 449 trigger circular grain gesture;
#X text 99 465 using polygate~ 1 2 3 4 5 6 7 8;
#X obj 110 379 tgl 10 0 euclid.sw sssad.euclid my[___] 11 4 0 9 -162280
-262144 -262144 1 1;
#X text 102 31 Send polar data to ambipanner~;
#X obj 110 250 hradio 10 1 0 2 empty empty tendency/leroids 25 4 0
9 -99865 -262144 -262144 0;
#X obj 439 313 tgl 10 0 ldhl.sw empty grapul 11 4 0 9 -162280 -262144
-1 1 1;
#X obj 190 155 sssad \$1/saconfig;
#X obj 321 223 sssad \$1/sgconfig;
#X obj -7 392 sssad \$1/euclid;
#X obj 322 244 sssad \$1/grapler;
#X msg 507 296 0;
#X msg 394 289 0;
#X obj 439 272 sel 0;
#X text 196 421 deactivated to conserve CPU;
#X text 445 125 Based on Cognitive Model;
#X obj 111 275 tgl 10 0 ao.sw \$0-8721 asymm.offset 11 4 0 9 -162280
-262144 -262144 0 1;
#X obj 111 331 bng 10 250 50 0 boids.vis empty boids_parameters 15
5 0 9 -191407 -191407 -262144;
#X text 272 61 String 7 is at a constant center point;
#X obj 111 315 tgl 10 0 lrds.msw \$0-8721 model_data_2_leroids 11 4
0 9 -162280 -262144 -262144 0 1;
#N canvas 597 89 562 344 s.s2 0;
#X obj 84 68 * 360;
#X obj 278 75 pack 0 0;
#X obj 84 91 pack 0 0;
#X text 82 29 Initial 0 to 1;
#X text 277 27 Lerdahl;
#X obj 313 138 r sp.c.sw;
#X obj 1 52 r g.c;
#X obj 1 69 * 360;
#X obj 1 91 pack 0 0;
#X obj 164 276 unpack 0 0;
#X text 2 32 Global;
#X obj 84 51 r 2_icr;
#X obj 278 50 r laz.2;
#X obj 333 49 r ld.2;
#X obj 164 304 s az.2;
#X obj 221 303 s ad.2;
#X obj 46 69 * 7;
#X obj 129 68 * 7;
#X obj 300 103 r lrds.2;
#X obj 164 194 spigot;
#X obj 219 177 r mto.sw;
#X text 164 38 Car to Pol;
#X obj 168 115 pack 0 0;
#X obj 168 90 bng 15 250 50 0 empty empty empty 17 7 0 10 -262144 -1
-1;
#X obj 168 58 r 2_tcp_a;
#X obj 213 73 r 2_tcp_d;
#X obj 164 238 spigot;
#X obj 214 219 sel 1;
#X msg 214 240 0;
#X msg 241 240 1;
#X obj 295 202 r s2.sg.ks;
#X obj 55 204 loadbang;
#X msg 125 221 1;
#X obj 398 88 r s2.fsp;
#X text 394 64 Rotations;
#X obj 164 155 mux _ _ _ _ _;
#X connect 0 0 2 0;
#X connect 1 0 35 3;
#X connect 2 0 35 1;
#X connect 5 0 35 5;
#X connect 6 0 7 0;
#X connect 6 0 16 0;
#X connect 7 0 8 0;
#X connect 8 0 35 0;
#X connect 9 0 14 0;
#X connect 9 1 15 0;
#X connect 11 0 0 0;
#X connect 11 0 17 0;
#X connect 12 0 1 0;
#X connect 13 0 1 1;
#X connect 16 0 8 1;
#X connect 17 0 2 1;
#X connect 18 0 35 3;
#X connect 19 0 26 0;
#X connect 20 0 19 1;
#X connect 22 0 35 2;
#X connect 23 0 22 0;
#X connect 24 0 22 0;
#X connect 25 0 22 1;
#X connect 25 0 23 0;
#X connect 26 0 9 0;
#X connect 27 0 28 0;
#X connect 27 1 29 0;
#X connect 28 0 26 1;
#X connect 29 0 26 1;
#X connect 30 0 27 0;
#X connect 31 0 32 0;
#X connect 32 0 26 1;
#X connect 33 0 35 4;
#X connect 35 0 19 0;
#X restore 154 52 pd s.s2;
#N canvas 597 89 450 300 s.s5 0;
#X obj 106 62 * 360;
#X obj 291 70 pack 0 0;
#X obj 106 85 pack 0 0;
#X text 104 23 Initial 0 to 1;
#X text 290 22 Lerdahl;
#X obj 280 132 r sp.c.sw;
#X obj 23 46 r g.c;
#X obj 23 63 * 360;
#X obj 23 85 pack 0 0;
#X obj 186 246 unpack 0 0;
#X text 24 26 Global;
#X obj 106 45 r 5_icr;
#X obj 291 45 r laz.5;
#X obj 346 44 r ld.5;
#X obj 186 273 s az.5;
#X obj 243 273 s ad.5;
#X obj 68 63 * 7;
#X obj 151 62 * 7;
#X obj 286 103 r lrds.5;
#X obj 186 189 spigot;
#X obj 241 172 r mto.sw;
#X text 182 27 Car to Pol;
#X obj 186 104 pack 0 0;
#X obj 186 79 bng 15 250 50 0 empty empty empty 17 7 0 10 -262144 -1
-1;
#X obj 186 47 r 5_tcp_a;
#X obj 231 62 r 5_tcp_d;
#X obj 186 220 spigot;
#X obj 233 200 sel 1;
#X msg 233 221 0;
#X msg 260 221 1;
#X obj 273 183 r s5.sg.ks;
#X obj 72 186 loadbang;
#X msg 142 203 1;
#X obj 113 237 s gem_5;
#X obj 392 80 r s5.fsp;
#X obj 186 149 mux _ _ _ _ _;
#X connect 0 0 2 0;
#X connect 1 0 35 3;
#X connect 2 0 35 1;
#X connect 5 0 35 5;
#X connect 6 0 7 0;
#X connect 6 0 16 0;
#X connect 7 0 8 0;
#X connect 8 0 35 0;
#X connect 9 0 14 0;
#X connect 9 1 15 0;
#X connect 11 0 0 0;
#X connect 11 0 17 0;
#X connect 12 0 1 0;
#X connect 13 0 1 1;
#X connect 16 0 8 1;
#X connect 17 0 2 1;
#X connect 18 0 35 3;
#X connect 19 0 26 0;
#X connect 20 0 19 1;
#X connect 22 0 35 2;
#X connect 23 0 22 0;
#X connect 24 0 22 0;
#X connect 25 0 22 1;
#X connect 25 0 23 0;
#X connect 26 0 9 0;
#X connect 26 0 33 0;
#X connect 27 0 28 0;
#X connect 27 1 29 0;
#X connect 28 0 26 1;
#X connect 29 0 26 1;
#X connect 30 0 27 0;
#X connect 31 0 32 0;
#X connect 32 0 26 1;
#X connect 34 0 35 4;
#X connect 35 0 19 0;
#X restore 154 73 pd s.s5;
#N canvas 597 89 569 318 s.s3 0;
#X obj 106 62 * 360;
#X obj 291 70 pack 0 0;
#X obj 106 85 pack 0 0;
#X text 104 23 Initial 0 to 1;
#X text 290 22 Lerdahl;
#X obj 334 132 r sp.c.sw;
#X obj 23 46 r g.c;
#X obj 23 63 * 360;
#X obj 23 85 pack 0 0;
#X obj 186 260 unpack 0 0;
#X text 24 26 Global;
#X obj 106 45 r 3_icr;
#X obj 291 43 r laz.3;
#X obj 341 43 r ld.3;
#X obj 186 288 s az.3;
#X obj 243 287 s ad.3;
#X obj 68 63 * 7;
#X obj 151 62 * 7;
#X obj 291 101 r lrds.3;
#X obj 186 189 spigot;
#X obj 241 172 r mto.sw;
#X text 180 35 Car to Pol;
#X obj 184 112 pack 0 0;
#X obj 184 87 bng 15 250 50 0 empty empty empty 17 7 0 10 -262144 -1
-1;
#X obj 184 55 r 3_tcp_a;
#X obj 229 70 r 3_tcp_d;
#X obj 186 227 spigot;
#X obj 242 201 sel 1;
#X msg 242 222 0;
#X msg 269 222 1;
#X obj 282 184 r s3.sg.ks;
#X obj 74 193 loadbang;
#X msg 144 210 1;
#X obj 88 244 s gem_3;
#X obj 397 59 r s3.fsp;
#X obj 186 149 mux _ _ _ _ _;
#X text 393 37 Rotations;
#X connect 0 0 2 0;
#X connect 1 0 35 3;
#X connect 2 0 35 1;
#X connect 5 0 35 5;
#X connect 6 0 7 0;
#X connect 6 0 16 0;
#X connect 7 0 8 0;
#X connect 8 0 35 0;
#X connect 9 0 14 0;
#X connect 9 1 15 0;
#X connect 11 0 0 0;
#X connect 11 0 17 0;
#X connect 12 0 1 0;
#X connect 13 0 1 1;
#X connect 16 0 8 1;
#X connect 17 0 2 1;
#X connect 18 0 35 3;
#X connect 19 0 26 0;
#X connect 20 0 19 1;
#X connect 22 0 35 2;
#X connect 23 0 22 0;
#X connect 24 0 22 0;
#X connect 25 0 22 1;
#X connect 25 0 23 0;
#X connect 26 0 9 0;
#X connect 26 0 33 0;
#X connect 27 0 28 0;
#X connect 27 1 29 0;
#X connect 28 0 26 1;
#X connect 29 0 26 1;
#X connect 30 0 27 0;
#X connect 31 0 32 0;
#X connect 32 0 26 1;
#X connect 34 0 35 4;
#X connect 35 0 19 0;
#X restore 208 52 pd s.s3;
#N canvas 597 89 484 371 s.s6 0;
#X obj 106 62 * 360;
#X obj 303 63 pack 0 0;
#X obj 106 85 pack 0 0;
#X text 104 23 Initial 0 to 1;
#X text 302 15 Lerdahl;
#X obj 280 132 r sp.c.sw;
#X obj 23 46 r g.c;
#X obj 23 63 * 360;
#X obj 23 85 pack 0 0;
#X obj 186 250 unpack 0 0;
#X text 24 26 Global;
#X obj 106 45 r 6_icr;
#X obj 303 36 r laz.6;
#X obj 353 35 r ld.6;
#X obj 186 280 s az.6;
#X obj 243 279 s ad.6;
#X obj 68 63 * 7;
#X obj 151 62 * 7;
#X obj 291 100 r lrds.6;
#X obj 186 192 spigot;
#X obj 240 175 r mto.sw;
#X text 185 25 Car to Pol;
#X obj 189 102 pack 0 0;
#X obj 189 77 bng 15 250 50 0 empty empty empty 17 7 0 10 -262144 -1
-1;
#X obj 189 45 r 6_tcp_a;
#X obj 234 60 r 6_tcp_d;
#X obj 186 224 spigot;
#X obj 236 202 sel 1;
#X msg 236 223 0;
#X msg 263 223 1;
#X obj 276 185 r s6.sg.ks;
#X obj 68 190 loadbang;
#X msg 138 207 1;
#X obj 104 241 s gem_6;
#X obj 186 149 mux _ _ _ _ _;
#X obj 379 86 r s6.fsp;
#X connect 0 0 2 0;
#X connect 1 0 34 3;
#X connect 2 0 34 1;
#X connect 5 0 34 5;
#X connect 6 0 7 0;
#X connect 6 0 16 0;
#X connect 7 0 8 0;
#X connect 8 0 34 0;
#X connect 9 0 14 0;
#X connect 9 1 15 0;
#X connect 11 0 0 0;
#X connect 11 0 17 0;
#X connect 12 0 1 0;
#X connect 13 0 1 1;
#X connect 16 0 8 1;
#X connect 17 0 2 1;
#X connect 18 0 34 3;
#X connect 19 0 26 0;
#X connect 20 0 19 1;
#X connect 22 0 34 2;
#X connect 23 0 22 0;
#X connect 24 0 22 0;
#X connect 25 0 22 1;
#X connect 25 0 23 0;
#X connect 26 0 9 0;
#X connect 26 0 33 0;
#X connect 27 0 28 0;
#X connect 27 1 29 0;
#X connect 28 0 26 1;
#X connect 29 0 26 1;
#X connect 30 0 27 0;
#X connect 31 0 32 0;
#X connect 32 0 26 1;
#X connect 34 0 19 0;
#X connect 35 0 34 4;
#X restore 208 73 pd s.s6;
#N canvas 428 108 644 331 s.s1 0;
#X obj 93 -71 * 360;
#X obj 320 -71 pack 0 0;
#X obj 93 -48 pack 0 0;
#X text 172 -98 Car to Pol;
#X obj 311 -1 r sp.c.sw;
#X obj 10 -87 r g.c;
#X obj 10 -70 * 360;
#X obj 10 -48 pack 0 0;
#X text 11 -107 Global;
#X obj 55 -70 * 7;
#X obj 138 -71 * 7;
#X obj 93 -88 r 1_icr;
#X obj 320 -96 r laz.1;
#X obj 375 -97 r ld.1;
#X obj 389 -54 r lrds.1;
#X obj 173 168 s az.1;
#X obj 230 168 s ad.1;
#X obj 173 56 spigot;
#X obj 228 39 r mto.sw;
#X obj 221 -63 r 1_tcp_d;
#X obj 176 -78 r 1_tcp_a;
#X obj 176 -21 pack 0 0;
#X obj 173 124 unpack f f;
#X obj 176 -46 bng 15 250 50 0 empty empty empty 17 7 0 10 -262144
-1 -1;
#X obj 173 94 spigot;
#X obj 268 59 r s1.sg.ks;
#X obj 228 76 sel 1;
#X msg 228 97 0;
#X msg 255 97 1;
#X obj 47 60 loadbang;
#X msg 117 77 1;
#X obj 506 -51 r s1.fsp;
#X obj 173 16 mux _ _ _ _ _;
#X text 504 -73 Rotation;
#X text 91 -110 Solo;
#X text 319 -119 Lerdahl (deni & amp);
#X text 390 -72 boids;
#X connect 0 0 2 0;
#X connect 1 0 32 3;
#X connect 2 0 32 1;
#X connect 4 0 32 5;
#X connect 5 0 6 0;
#X connect 5 0 9 0;
#X connect 6 0 7 0;
#X connect 7 0 32 0;
#X connect 9 0 7 1;
#X connect 10 0 2 1;
#X connect 11 0 0 0;
#X connect 11 0 10 0;
#X connect 12 0 1 0;
#X connect 13 0 1 1;
#X connect 14 0 32 3;
#X connect 17 0 24 0;
#X connect 18 0 17 1;
#X connect 19 0 21 1;
#X connect 19 0 23 0;
#X connect 20 0 21 0;
#X connect 21 0 32 2;
#X connect 22 0 15 0;
#X connect 22 1 16 0;
#X connect 23 0 21 0;
#X connect 24 0 22 0;
#X connect 25 0 26 0;
#X connect 26 0 27 0;
#X connect 26 1 28 0;
#X connect 27 0 24 1;
#X connect 28 0 24 1;
#X connect 29 0 30 0;
#X connect 30 0 24 1;
#X connect 31 0 32 4;
#X connect 32 0 17 0;
#X restore 102 52 pd s.s1;
#N canvas 597 89 450 300 s.s4 0;
#X obj 106 62 * 360;
#X obj 306 67 pack 0 0;
#X obj 106 85 pack 0 0;
#X text 104 23 Initial 0 to 1;
#X text 305 19 Lerdahl;
#X obj 280 132 r sp.c.sw;
#X obj 23 46 r g.c;
#X obj 23 63 * 360;
#X obj 23 85 pack 0 0;
#X obj 186 252 unpack 0 0;
#X text 24 26 Global;
#X obj 106 45 r 4_icr;
#X obj 306 42 r laz.4;
#X obj 361 41 r ld.4;
#X obj 186 280 s az.4;
#X obj 243 279 s ad.4;
#X obj 68 63 * 7;
#X obj 151 62 * 7;
#X obj 290 105 r lrds.4;
#X obj 186 190 spigot;
#X obj 241 173 r mto.sw;
#X text 183 26 Car to Pol;
#X obj 187 103 pack 0 0;
#X obj 187 78 bng 15 250 50 0 empty empty empty 17 7 0 10 -262144 -1
-1;
#X obj 187 46 r 4_tcp_a;
#X obj 232 61 r 4_tcp_d;
#X obj 186 222 spigot;
#X obj 237 197 sel 1;
#X msg 237 218 0;
#X msg 264 218 1;
#X obj 277 180 r s4.sg.ks;
#X obj 77 188 loadbang;
#X msg 147 205 1;
#X obj 106 239 s gem_4;
#X obj 186 149 mux _ _ _ _ _;
#X obj 377 90 r s4.fsp;
#X connect 0 0 2 0;
#X connect 1 0 34 3;
#X connect 2 0 34 1;
#X connect 5 0 34 5;
#X connect 6 0 7 0;
#X connect 6 0 16 0;
#X connect 7 0 8 0;
#X connect 8 0 34 0;
#X connect 9 0 14 0;
#X connect 9 1 15 0;
#X connect 11 0 0 0;
#X connect 11 0 17 0;
#X connect 12 0 1 0;
#X connect 13 0 1 1;
#X connect 16 0 8 1;
#X connect 17 0 2 1;
#X connect 18 0 34 3;
#X connect 19 0 26 0;
#X connect 20 0 19 1;
#X connect 22 0 34 2;
#X connect 23 0 22 0;
#X connect 24 0 22 0;
#X connect 25 0 22 1;
#X connect 25 0 23 0;
#X connect 26 0 9 0;
#X connect 26 0 33 0;
#X connect 27 0 28 0;
#X connect 27 1 29 0;
#X connect 28 0 26 1;
#X connect 29 0 26 1;
#X connect 30 0 27 0;
#X connect 31 0 32 0;
#X connect 32 0 26 1;
#X connect 34 0 19 0;
#X connect 35 0 34 4;
#X restore 102 73 pd s.s4;
#X obj 5 226 != 3;
#X obj 5 247 sel 1;
#X obj 5 290 s lrds.sw;
#X msg 5 266 0;
#X msg 32 267 1;
#X text 439 101 Simple Rotation Gestures;
#N canvas 417 22 467 282 cognitive.gestures 0;
#N canvas 0 48 1280 752 leroids 0;
#X obj -144 170 tgl 15 0 empty lrds.sw empty 17 7 0 10 -262144 -1 -1
0 1;
#X obj -150 363 s lrds.1;
#N canvas 29 440 310 307 lrds_para 0;
#N canvas 0 48 1280 752 leroids_gui 0;
#X msg 102 530 neighbors \$1;
#X floatatom 102 515 5 0 4 0 - neighbors -;
#X floatatom 102 550 5 0 0 0 - maxspeed -;
#X msg 102 565 maxspeed \$1;
#X floatatom 102 585 5 0 0 0 - minspeed -;
#X msg 102 600 minspeed \$1;
#X floatatom 102 620 5 0 0 0 - center -;
#X msg 102 635 center \$1;
#X floatatom 102 655 5 0 0 0 - attract -;
#X msg 102 670 attract \$1;
#X floatatom 646 81 5 0 0 0 - match -;
#X msg 646 96 match \$1;
#X floatatom 646 116 5 0 0 0 - avoid -;
#X msg 646 131 avoid \$1;
#X floatatom 646 151 5 0 0 0 - repel -;
#X msg 646 166 repel \$1;
#X floatatom 646 186 5 0 0 0 - edgedist -;
#X msg 646 201 edgedist \$1;
#X floatatom 646 221 5 0 0 0 - speed -;
#X msg 646 236 speed \$1;
#X floatatom 646 256 5 0 0 0 - inertia -;
#X msg 646 271 inertia \$1;
#X floatatom 646 291 5 0 0 0 - accel -;
#X msg 646 306 accel \$1;
#X floatatom 646 326 5 0 0 0 - prefdist -;
#X msg 646 341 prefdist \$1;
#X text 193 565 maximum speed of speed range;
#X text 195 599 minimum speed of speed range;
#X text 192 634 strength of centering instinct;
#X text 738 236 overall speed;
#X text 739 307 speed of acceleration;
#X text 739 338 preferred distance from neighbors;
#X floatatom 690 459 5 0 0 0 - - -;
#X floatatom 730 459 5 0 0 0 - - -;
#X floatatom 102 474 5 0 0 0 - - -;
#X msg 102 495 number \$1;
#X text 193 493 number of boids;
#X obj 535 512 s boidParam;
#X text 193 528 number of neighbors each boid consults when flocking
;
#X text 736 96 strength of neighbor speed matching instinct;
#X text 736 131 strength of neighbor avoidance instinct;
#X text 736 163 strength of wall avoidance instinct;
#X text 738 199 distance of vision for avoiding wall edges;
#X text 739 270 willingness to change speed and direction;
#X text 191 668 strength of attraction to 'attractpt';
#X obj 690 475 pack 0 0 0;
#X msg 690 495 attractpt \$1 \$2;
#N canvas 754 114 315 528 init 0;
#X obj 181 225 loadbang;
#X obj 181 261 b;
#X msg 15 408 \; accel 2.5;
#X obj 233 271 r boids_r;
#X msg 15 379 \; inertia 5;
#X msg 15 348 \; speed 2;
#X msg 15 197 \; attract 3;
#X msg 15 78 \; neighbors 4;
#X msg 15 138 \; minspeed 1;
#X msg 15 438 \; prefdist 4;
#X msg 15 169 \; center 1;
#X msg 174 350 \; edgedist 0;
#X msg 15 259 \; avoid 1;
#X msg 15 228 \; match 0.3;
#X msg 15 300 \; repel 30;
#X msg 15 108 \; maxspeed 4;
#X connect 0 0 1 0;
#X connect 1 0 7 0;
#X connect 1 0 15 0;
#X connect 1 0 8 0;
#X connect 1 0 10 0;
#X connect 1 0 6 0;
#X connect 1 0 13 0;
#X connect 1 0 12 0;
#X connect 1 0 14 0;
#X connect 1 0 5 0;
#X connect 1 0 4 0;
#X connect 1 0 2 0;
#X connect 1 0 9 0;
#X connect 1 0 11 0;
#X connect 3 0 1 0;
#X restore 102 72 pd init;
#X msg 690 442 0;
#X obj 102 27 loadbang;
#X msg 102 448 6;
#X obj 102 47 s \$0-b;
#X obj 102 412 r \$0-b;
#X obj 690 420 r \$0-b;
#X obj 100 100 cnv 15 300 30 empty empty leriods_parameters 2 12 0
9 -1 -262144 0;
#X obj 100 370 cnv 15 300 30 empty empty manual_controls 4 12 0 9 -1
-262144 0;
#X obj 110 189 hsl 100 10 0 7 0 0 attract \$0-2178 attrack_(0_to_7)
-2 -8 0 9 -191407 -258113 -1 0 1;
#X obj 111 226 hsl 100 10 0 10 0 0 inertia \$0-2178 inertia_(0_to_10)
-2 -8 0 9 -191407 -258113 -1 0 1;
#X obj 112 262 hsl 100 10 0 5 0 0 speed \$0-2178 speed_(0_to_5) -2
-8 0 9 -191407 -258113 -1 0 1;
#X obj 258 188 hsl 100 10 0 5 0 0 accel \$0-2178 accel_(0_to_5) -2
-8 0 9 -191407 -258113 -1 0 1;
#X floatatom 220 184 3 0 0 0 - attract #0-721;
#X floatatom 220 221 3 0 0 0 - inertia #0-721;
#X floatatom 220 257 3 0 0 0 - speed #0-721;
#X floatatom 365 183 3 0 0 0 - accel #0-721;
#X obj 111 150 hsl 100 10 0 5 0 0 center \$0-2178 center_(0_to_5) -2
-8 0 9 -191407 -258113 -1 0 1;
#X floatatom 218 146 3 0 0 0 - center #0-721;
#X obj 121 353 bng 10 250 50 0 boids_r empty boids_reset 17 5 0 9 -262144
-258113 -1;
#N canvas 0 48 1280 752 lerdahl_to_boids_mapping 0;
#X floatatom 77 426 5 0 0 0 - - -;
#X obj 77 402 r pcd;
#X obj 77 448 abs;
#X obj 77 472 % 12;
#X text 75 692 cf. Snyder 2000 - speed and tension;
#X obj 385 424 r glbl.it;
#X floatatom 385 511 5 0 0 0 - - -;
#X obj 363 146 mux 0 1 2 3 4 5 6;
#X obj 500 85 r counter;
#X obj 500 129 - 1;
#X floatatom 512 102 5 0 0 0 - - -;
#X obj 78 176 mux 0 1 2 3 4 5 6;
#X obj 215 115 r counter;
#X obj 215 159 - 1;
#X floatatom 227 132 5 0 0 0 - - -;
#X floatatom 206 193 5 0 0 0 - - -;
#X obj 328 129 r ma.1;
#X obj 377 129 r ma.2;
#X obj 391 111 r ma.3;
#X obj 405 95 r ma.4;
#X obj 419 78 r ma.5;
#X obj 447 112 r ma.7;
#X obj 433 129 r ma.6;
#X obj 14 159 r deni.1;
#X obj 92 94 r deni.2;
#X obj 106 154 r deni.3;
#X obj 120 125 r deni.4;
#X obj 134 108 r deni.5;
#X obj 148 159 r deni.6;
#X obj 162 142 r deni.7;
#X obj 620 148 mux 0 1 2 3 4 5 6;
#X obj 757 87 r counter;
#X obj 757 131 - 1;
#X floatatom 769 104 5 0 0 0 - - -;
#X obj 385 600 s speed;
#X obj 78 287 spigot;
#X obj 77 535 spigot;
#X obj 385 535 spigot;
#X obj 363 184 spigot;
#X obj 620 189 spigot;
#X obj 129 270 r lrds.msw;
#X obj 125 518 r lrds.msw;
#X obj 433 518 r lrds.msw;
#X obj 409 167 r lrds.msw;
#X obj 669 172 r lrds.msw;
#X obj 585 131 r ar.1;
#X obj 634 131 r ar.2;
#X obj 648 113 r ar.3;
#X obj 662 97 r ar.4;
#X obj 676 80 r ar.5;
#X obj 690 131 r ar.6;
#X obj 704 114 r ar.7;
#X obj 674 491 mux 0 1 2 3 4 5 6;
#X obj 811 430 r counter;
#X obj 811 474 - 1;
#X floatatom 823 447 5 0 0 0 - - -;
#X obj 674 617 spigot;
#X obj 720 600 r lrds.msw;
#X obj 78 201 abs;
#X text 66 67 Denial values control Inertia;
#X text 674 352 Tendency controls match;
#X obj 639 474 r tend.1;
#X obj 688 474 r tend.2;
#X obj 702 456 r tend.3;
#X obj 716 440 r tend.4;
#X obj 730 423 r tend.5;
#X obj 758 457 r tend.7;
#X obj 744 474 r tend.6;
#X floatatom 480 467 5 0 0 0 - - -;
#X obj 78 266 line;
#X obj 363 250 line;
#X floatatom 78 312 5 0 0 0 - - -;
#X obj 77 601 line;
#X floatatom 35 618 5 0 0 0 - - -;
#X floatatom 459 441 5 0 0 0 - - -;
#X text 75 658 Based pcd of current note (larger pcd == perception
of longer time elapsed);
#X text 74 384 Smaller PCD will produce faster accel;
#X text 384 396 Based on Note Onset;
#X text 108 219 keep inertia at min of 5;
#X text 617 47 Scaled asymmetry ratio value controls centeredness of
each boid;
#X text 51 16 SONIFICATION OF COGNITIVE DATA;
#X floatatom 322 267 5 0 0 0 - - -;
#X obj 77 496 expr 12 - $f1;
#X obj 385 578 line;
#X obj 674 597 line;
#X obj 363 206 + 0;
#X floatatom 316 201 5 0 0 0 - - -;
#X text 316 18 MA controls attraction to defined point in space;
#X obj 78 335 s inertia;
#X floatatom 620 212 5 0 0 0 - - -;
#X obj 363 294 s center;
#X obj 620 245 s attract;
#X floatatom 564 252 5 0 0 0 - - -;
#X obj 564 228 * 2;
#X obj 77 626 s accel;
#X msg 78 244 \$1 1;
#X msg 363 228 \$1 1;
#X msg 77 579 \$1 1;
#X obj 78 221 + 5;
#X floatatom 563 508 5 0 0 0 - - -;
#X text 316 37 includes asymmetry offset (note to note);
#X text 530 278 Ratios represent all hierachical levels of the basic
space;
#X text 595 381 melodic phrase level (2 note events + motion);
#X obj 385 494 moses 0;
#X obj 385 450 / 1000;
#X text 677 725 greater tendency = match behaviour;
#X msg 385 556 \$1 150;
#X obj 77 557 split 0 5;
#X obj 674 637 s match;
#X obj 385 472 expr 4 - $f1;
#X msg 674 573 \$1 50;
#X floatatom 625 634 5 0 0 0 - - -;
#X obj 674 515 expr 3 + $f1;
#X obj 674 539 / 10;
#X connect 0 0 2 0;
#X connect 1 0 0 0;
#X connect 2 0 3 0;
#X connect 3 0 82 0;
#X connect 5 0 74 0;
#X connect 5 0 104 0;
#X connect 6 0 37 0;
#X connect 7 0 38 0;
#X connect 8 0 9 0;
#X connect 8 0 10 0;
#X connect 9 0 7 7;
#X connect 11 0 15 0;
#X connect 11 0 58 0;
#X connect 12 0 13 0;
#X connect 12 0 14 0;
#X connect 13 0 11 7;
#X connect 16 0 7 0;
#X connect 17 0 7 1;
#X connect 18 0 7 2;
#X connect 19 0 7 3;
#X connect 20 0 7 4;
#X connect 21 0 7 6;
#X connect 22 0 7 5;
#X connect 23 0 11 0;
#X connect 24 0 11 1;
#X connect 25 0 11 2;
#X connect 26 0 11 3;
#X connect 27 0 11 4;
#X connect 28 0 11 5;
#X connect 29 0 11 6;
#X connect 30 0 39 0;
#X connect 31 0 32 0;
#X connect 31 0 33 0;
#X connect 32 0 30 7;
#X connect 35 0 71 0;
#X connect 36 0 107 0;
#X connect 37 0 106 0;
#X connect 38 0 85 0;
#X connect 38 0 86 0;
#X connect 39 0 89 0;
#X connect 40 0 35 1;
#X connect 41 0 36 1;
#X connect 42 0 37 1;
#X connect 43 0 38 1;
#X connect 44 0 39 1;
#X connect 45 0 30 0;
#X connect 46 0 30 1;
#X connect 47 0 30 2;
#X connect 48 0 30 3;
#X connect 49 0 30 4;
#X connect 50 0 30 5;
#X connect 51 0 30 6;
#X connect 52 0 99 0;
#X connect 52 0 112 0;
#X connect 53 0 54 0;
#X connect 53 0 55 0;
#X connect 54 0 52 7;
#X connect 56 0 108 0;
#X connect 56 0 111 0;
#X connect 57 0 56 1;
#X connect 58 0 98 0;
#X connect 61 0 52 0;
#X connect 62 0 52 1;
#X connect 63 0 52 2;
#X connect 64 0 52 3;
#X connect 65 0 52 4;
#X connect 66 0 52 6;
#X connect 67 0 52 5;
#X connect 69 0 35 0;
#X connect 70 0 81 0;
#X connect 70 0 90 0;
#X connect 71 0 88 0;
#X connect 72 0 73 0;
#X connect 72 0 94 0;
#X connect 82 0 36 0;
#X connect 83 0 34 0;
#X connect 84 0 56 0;
#X connect 85 0 96 0;
#X connect 89 0 93 0;
#X connect 93 0 92 0;
#X connect 93 0 91 0;
#X connect 95 0 69 0;
#X connect 96 0 70 0;
#X connect 97 0 72 0;
#X connect 98 0 95 0;
#X connect 103 1 6 0;
#X connect 104 0 68 0;
#X connect 104 0 109 0;
#X connect 106 0 83 0;
#X connect 107 0 97 0;
#X connect 109 0 103 0;
#X connect 110 0 84 0;
#X connect 112 0 113 0;
#X connect 113 0 110 0;
#X restore 234 74 pd lerdahl_to_boids_mapping;
#X text 741 416 The user can dictate point of attraction (default is
center);
#X obj 259 225 hsl 100 10 0 10 0 0 avoid \$0-2178 avoid_(0_to_10) -2
-8 0 9 -191407 -258113 -1 0 1;
#X floatatom 366 220 3 0 0 0 - avoid #0-721;
#X obj 259 150 hsl 100 10 0 10 0 0 match \$0-2178 match_(0_to_10) -2
-8 0 9 -191407 -258113 -1 0 1;
#X floatatom 366 146 3 0 0 0 - center #0-721;
#X connect 0 0 37 0;
#X connect 1 0 0 0;
#X connect 2 0 3 0;
#X connect 3 0 37 0;
#X connect 4 0 5 0;
#X connect 5 0 37 0;
#X connect 6 0 7 0;
#X connect 7 0 37 0;
#X connect 8 0 9 0;
#X connect 9 0 37 0;
#X connect 10 0 11 0;
#X connect 11 0 37 0;
#X connect 12 0 13 0;
#X connect 13 0 37 0;
#X connect 14 0 15 0;
#X connect 15 0 37 0;
#X connect 16 0 17 0;
#X connect 17 0 37 0;
#X connect 18 0 19 0;
#X connect 19 0 37 0;
#X connect 20 0 21 0;
#X connect 21 0 37 0;
#X connect 22 0 23 0;
#X connect 23 0 37 0;
#X connect 24 0 25 0;
#X connect 25 0 37 0;
#X connect 32 0 45 0;
#X connect 33 0 45 1;
#X connect 34 0 35 0;
#X connect 35 0 37 0;
#X connect 45 0 46 0;
#X connect 46 0 37 0;
#X connect 48 0 32 0;
#X connect 48 0 33 0;
#X connect 49 0 51 0;
#X connect 50 0 34 0;
#X connect 52 0 50 0;
#X connect 53 0 48 0;
#X coords 0 -1 1 1 300 300 2 100 100;
#X restore 5 -189 pd leroids_gui;
#X restore -142 140 pd lrds_para;
#X text 39 251 arguments: <float> number of boids \, <float> output
mode;
#X text 39 270 based on (c) 1995-98 Eric L. Singer (eric@ericsinger.com)
;
#X obj -66 208 r boidParam;
#X obj -92 207 bng 15 250 50 0 empty empty empty 0 -6 0 8 -262144 -1
-1;
#X obj -92 260 route 0 1 2 3 4 5;
#X text -89 27 6 boids floc together based on current melodic attraction
value. Each boid is assigned a string;
#X obj -150 311 g_boid;
#X msg 97 165 \; pd-lrds_para vis 1;
#X obj 97 137 bng 15 250 50 0 empty boids.vis empty 17 7 0 10 -262144
-1 -1;
#X obj -92 235 boids2d 1 0;
#X obj -76 363 s lrds.2;
#X obj -7 363 s lrds.3;
#X obj 59 362 s lrds.4;
#X obj 126 361 s lrds.5;
#X obj 194 360 s lrds.6;
#X obj -171 252 s gem_boids;
#X obj -76 311 g_boid;
#X obj -7 311 g_boid;
#X obj 59 310 g_boid;
#X obj 126 309 g_boid;
#X obj 194 308 g_boid;
#X obj -144 190 metro 20;
#X connect 0 0 24 0;
#X connect 5 0 12 0;
#X connect 6 0 12 0;
#X connect 7 0 9 0;
#X connect 7 1 19 0;
#X connect 7 2 20 0;
#X connect 7 3 21 0;
#X connect 7 4 22 0;
#X connect 7 5 23 0;
#X connect 9 0 1 0;
#X connect 11 0 10 0;
#X connect 12 0 7 0;
#X connect 12 0 18 0;
#X connect 19 0 13 0;
#X connect 20 0 14 0;
#X connect 21 0 15 0;
#X connect 22 0 16 0;
#X connect 23 0 17 0;
#X connect 24 0 6 0;
#X restore 22 158 pd leroids;
#N canvas 0 48 1280 752 mag_old 0;
#X text 616 258 what string note was played on;
#X obj 159 272 line;
#X obj 450 275 line;
#X obj 549 306 - 1;
#X floatatom 583 290 5 0 0 0 - - -;
#X obj 258 306 - 1;
#X obj 159 365 demux - - - - - -;
#X obj 450 365 demux - - - - - -;
#X obj 450 338 spigot;
#X obj 159 338 spigot;
#X floatatom 159 51 5 0 0 0 - - -;
#X floatatom 159 145 5 0 0 0 - - -;
#X text 165 95 divide by max value;
#X obj 159 75 * 0.25;
#X obj 159 120 expr abs(1 - $f1);
#X text 203 46 e.g. melodic attraction value of 4 will return a distance
to zero (centre);
#X msg 94 27 1;
#X text 48 142 8ves produce zero;
#X text 167 226 distance;
#X obj 465 161 * 360;
#X obj 159 212 f;
#X obj 450 212 f;
#X obj 81 233 speedlim;
#X text 137 232 ->;
#X obj 322 70 r counter;
#X floatatom 322 91 5 0 0 0 - - -;
#X obj 322 172 sel 1;
#X obj 322 197 bng 15 250 50 0 empty empty empty 17 7 0 10 -262144
-1 -1;
#X obj 192 4 !=;
#X obj 159 30 spigot;
#X obj 94 4 sel 0;
#X obj 322 132 pipe 150;
#X obj 174 179 * 5;
#X obj 322 111 == 2;
#X obj 159 -13 r ma.c2;
#X obj 583 258 r s2;
#X msg 159 252 \$1 500;
#X msg 450 254 \$1 500;
#X text 148 507 Develop so that if tones are attracted to one another
they follow the same trajectory \, regardless of central "gravitational"
pull;
#X text 147 446 Greater values for less attraction now == greater distance
from CENTRE 0 \, 0 \, larger the contour of spatial movement - further
entertaining the gravitational field analogy (Lerdahl 2001);
#X obj 450 397 s laz.1;
#X obj 159 397 s ld.1;
#X text 156 421 Output to space GUI;
#X obj 203 397 s ld.2;
#X obj 501 397 s laz.2;
#X obj 247 397 s ld.3;
#X obj 291 397 s ld.4;
#X obj 551 397 s laz.3;
#X obj 604 397 s laz.4;
#X obj 336 397 s ld.5;
#X obj 379 397 s ld.6;
#X obj 655 397 s laz.5;
#X obj 707 397 s laz.6;
#X connect 1 0 9 0;
#X connect 2 0 8 0;
#X connect 3 0 7 1;
#X connect 4 0 3 0;
#X connect 4 0 5 0;
#X connect 5 0 6 1;
#X connect 8 0 7 0;
#X connect 9 0 6 0;
#X connect 10 0 13 0;
#X connect 11 0 19 0;
#X connect 11 0 32 0;
#X connect 13 0 14 0;
#X connect 14 0 11 0;
#X connect 16 0 14 0;
#X connect 19 0 21 1;
#X connect 20 0 36 0;
#X connect 21 0 37 0;
#X connect 24 0 25 0;
#X connect 25 0 33 0;
#X connect 26 0 27 0;
#X connect 27 0 20 0;
#X connect 27 0 21 0;
#X connect 29 0 10 0;
#X connect 30 0 16 0;
#X connect 31 0 26 0;
#X connect 32 0 20 1;
#X connect 33 0 31 0;
#X connect 34 0 28 0;
#X connect 35 0 4 0;
#X connect 36 0 1 0;
#X connect 37 0 2 0;
#X restore 22 215 pd mag_old;
#X text 17 27 Spatial gestures based on data produced by (sequential)
tonal pitch space quantification model;
#X text 22 134 Melodic Attraction & BOIDS;
#X text 22 72 Denial & Amplitude Gestures;
#N canvas 614 22 1280 752 dg.1 1;
#X text 181 305 what string note was played on;
#X obj 120 179 line;
#X obj 411 179 line;
#X floatatom 260 265 5 0 0 0 - - -;
#X obj 411 242 spigot;
#X obj 120 242 spigot;
#X obj 260 227 tgl 15 0 empty ldhl.sw empty 17 7 0 10 -262144 -1 -1
1 1;
#X floatatom 426 46 5 0 0 0 - - -;
#X obj 120 116 f;
#X obj 411 116 f;
#X text 107 78 ->;
#X obj 283 101 bng 15 250 50 0 empty empty empty 17 7 0 10 -262144
-1 -1;
#X obj 411 298 s;
#X msg 155 281 symbol ld.\$1;
#X obj 120 298 s;
#X obj 260 246 r s;
#X obj 135 76 r c_amp;
#X floatatom 135 97 5 0 0 0 - - -;
#X text 443 115 < - azimuth;
#X text 25 51 controlled by current string amplitude;
#X msg 316 281 symbol laz.\$1;
#X obj 426 2 sel 1;
#X obj 426 26 random 360;
#X obj 383 11 bng 15 250 50 0 empty empty empty 17 7 0 10 -262144 -1
-1;
#X text 25 38 Distance;
#X floatatom 157 196 5 0 0 0 - - -;
#X text 503 2 If denial is != 0 == randomise azimuth \, reflecting
how negation of expectancy constructs through reduced inertia (high
denial value) results in seemingly random structure - random location
encouraged in spatial processes.;
#X obj 426 -19 != 0;
#X text 456 -131 (r) = current/next note;
#X obj 426 -43 mux 0 1 2 3 4 5 6;
#X obj 563 -104 r counter;
#X obj 563 -60 - 1;
#X floatatom 591 -60 5 0 0 0 - - -;
#X obj 367 -60 r deni.1;
#X obj 440 -60 r deni.2;
#X obj 454 -78 r deni.3;
#X obj 468 -94 r deni.4;
#X obj 482 -111 r deni.5;
#X obj 510 -77 r deni.7;
#X obj 496 -60 r deni.6;
#X obj 283 -26 r g.i;
#X obj 283 40 del 50;
#X obj 283 11 spigot;
#X msg 120 156 \$1 1000;
#X obj 120 215 spigot;
#X obj 206 200 tgl 15 0 empty empty empty 17 7 0 10 -262144 -1 -1 1
1;
#X msg 411 158 \$1 5;
#X connect 1 0 25 0;
#X connect 1 0 44 0;
#X connect 2 0 4 0;
#X connect 3 0 13 0;
#X connect 3 0 20 0;
#X connect 4 0 12 0;
#X connect 5 0 14 0;
#X connect 6 0 4 1;
#X connect 6 0 5 1;
#X connect 6 0 42 1;
#X connect 7 0 9 1;
#X connect 8 0 43 0;
#X connect 9 0 46 0;
#X connect 11 0 8 0;
#X connect 11 0 9 0;
#X connect 13 0 14 1;
#X connect 15 0 3 0;
#X connect 16 0 17 0;
#X connect 17 0 8 1;
#X connect 20 0 12 1;
#X connect 21 0 22 0;
#X connect 22 0 7 0;
#X connect 23 0 22 0;
#X connect 27 0 21 0;
#X connect 27 0 45 0;
#X connect 29 0 27 0;
#X connect 30 0 31 0;
#X connect 30 0 32 0;
#X connect 31 0 29 7;
#X connect 33 0 29 0;
#X connect 34 0 29 1;
#X connect 35 0 29 2;
#X connect 36 0 29 3;
#X connect 37 0 29 4;
#X connect 38 0 29 6;
#X connect 39 0 29 5;
#X connect 40 0 42 0;
#X connect 41 0 11 0;
#X connect 42 0 41 0;
#X connect 43 0 1 0;
#X connect 44 0 5 0;
#X connect 45 0 44 1;
#X connect 46 0 2 0;
#X restore 23 94 pd dg.1;
#X text 19 4 SONIFICATION OF COGNITIVE DATA;
#X text 94 209 old melodic attraction gesture \, relative to perceptual
findings (NULL) - develop/improve further based on perceptual findings
(future work);
#X restore 310 125 pd cognitive.gestures;
#N canvas 575 164 677 636 rotation.gestures 0;
#X obj 97 286 pack 0 0;
#X obj 263 288 pack 0 0;
#X obj 95 495 pack 0 0;
#X obj 265 495 pack 0 0;
#X obj 434 291 pack 0 0;
#X obj 435 493 pack 0 0;
#X obj 97 310 s s1.fsp;
#X obj 263 311 s s2.fsp;
#X obj 434 313 s s3.fsp;
#X obj 95 516 s s4.fsp;
#X obj 265 516 s s5.fsp;
#X obj 435 516 s s6.fsp;
#X msg 97 198 \$1;
#X obj 97 221 % 360;
#X msg 263 199 \$1;
#X obj 263 222 % 360;
#X msg 434 200 \$1;
#X obj 434 223 % 360;
#X msg 95 409 \$1;
#X obj 95 432 % 360;
#X msg 265 411 \$1;
#X obj 265 434 % 360;
#X msg 435 410 \$1;
#X obj 435 433 % 360;
#X obj 97 78 r default.sgp;
#X obj 263 148 r \$0-bang;
#X obj 434 150 r \$0-bang;
#X obj 95 357 r \$0-bang;
#X obj 265 355 r \$0-bang;
#X obj 435 357 r \$0-bang;
#X msg 97 175 0;
#X msg 263 175 60;
#X msg 434 177 120;
#X msg 95 384 180;
#X msg 265 381 240;
#X msg 435 383 300;
#X obj 278 91 cup;
#X obj 278 26 r slw.rot;
#X obj 180 204 + 0;
#X obj 340 205 + 60;
#X obj 509 206 + 120;
#X obj 180 415 + 180;
#X obj 343 417 + 240;
#X obj 510 416 + 300;
#X floatatom 350 108 5 0 0 0 - - -;
#X msg 140 410 6;
#X msg 142 198 6;
#X msg 308 194 6;
#X msg 479 200 6;
#X msg 310 412 6;
#X msg 480 422 6;
#X obj 323 49 r global.bpm;
#X obj 97 138 r \$0-bang;
#X obj 97 104 s \$0-bang;
#X text 102 19 MUST BE SWITCHED OFF;
#X obj 278 70 metro 10;
#X connect 0 0 6 0;
#X connect 1 0 7 0;
#X connect 2 0 9 0;
#X connect 3 0 10 0;
#X connect 4 0 8 0;
#X connect 5 0 11 0;
#X connect 12 0 13 0;
#X connect 13 0 0 0;
#X connect 14 0 15 0;
#X connect 15 0 1 0;
#X connect 16 0 17 0;
#X connect 17 0 4 0;
#X connect 18 0 19 0;
#X connect 19 0 2 0;
#X connect 20 0 21 0;
#X connect 21 0 3 0;
#X connect 22 0 23 0;
#X connect 23 0 5 0;
#X connect 24 0 53 0;
#X connect 25 0 31 0;
#X connect 25 0 47 0;
#X connect 26 0 32 0;
#X connect 26 0 48 0;
#X connect 27 0 33 0;
#X connect 27 0 45 0;
#X connect 28 0 34 0;
#X connect 28 0 49 0;
#X connect 29 0 35 0;
#X connect 29 0 50 0;
#X connect 30 0 12 0;
#X connect 31 0 14 0;
#X connect 32 0 16 0;
#X connect 33 0 18 0;
#X connect 34 0 20 0;
#X connect 35 0 22 0;
#X connect 36 0 38 0;
#X connect 36 0 39 0;
#X connect 36 0 40 0;
#X connect 36 0 41 0;
#X connect 36 0 42 0;
#X connect 36 0 43 0;
#X connect 36 0 44 0;
#X connect 37 0 55 0;
#X connect 38 0 13 0;
#X connect 39 0 15 0;
#X connect 40 0 17 0;
#X connect 41 0 19 0;
#X connect 42 0 21 0;
#X connect 43 0 23 0;
#X connect 45 0 2 1;
#X connect 46 0 0 1;
#X connect 47 0 1 1;
#X connect 48 0 4 1;
#X connect 49 0 3 1;
#X connect 50 0 5 1;
#X connect 52 0 30 0;
#X connect 52 0 46 0;
#X connect 55 0 36 0;
#X restore 310 102 pd rotation.gestures;
#X obj 114 294 hsl 80 10 0 16 0 0 empty empty scale.offset 2 5 0 9
-262144 -1 -1 494 1;
#N canvas 0 22 450 300 scale 0;
#X obj 163 135 i;
#X msg 163 156 \$1;
#X obj 364 202 outlet;
#X obj 163 109 inlet;
#X obj 163 178 route 2 3 5 6 7 9 10 11 13 14 15;
#X connect 0 0 1 0;
#X connect 1 0 4 0;
#X connect 3 0 0 0;
#X connect 4 11 2 0;
#X restore 311 304 pd scale;
#X floatatom 203 291 3 0 0 0 - - -;
#X obj 311 328 s asymm.scale;
#X obj 544 255 loadbang;
#X msg 468 227 1;
#X obj 101 423 rg.euclidean;
#X connect 2 0 15 1;
#X connect 8 0 16 1;
#X connect 8 0 34 0;
#X connect 11 0 17 1;
#X connect 13 0 18 1;
#X connect 13 0 21 0;
#X connect 15 0 2 0;
#X connect 16 0 8 0;
#X connect 17 0 11 0;
#X connect 18 0 13 0;
#X connect 19 0 14 0;
#X connect 20 0 1 0;
#X connect 21 0 14 0;
#X connect 21 0 20 0;
#X connect 21 1 1 0;
#X connect 21 1 19 0;
#X connect 34 0 35 0;
#X connect 35 0 37 0;
#X connect 35 1 38 0;
#X connect 37 0 36 0;
#X connect 38 0 36 0;
#X connect 42 0 43 0;
#X connect 43 0 44 0;
#X connect 43 0 45 0;
#X connect 46 0 47 0;
#X connect 47 0 42 0;
#X coords 0 -1 1 1 200 300 2 100 100;
