#N canvas 647 134 632 488 10;
#X obj 89 133 / 1.41421;
#X obj 89 153 * 10;
#X obj 156 133 * 180;
#X obj 156 152 / 3.142;
#X obj 106 116 cartopol;
#X floatatom 106 71 6 0 0 0 - - -;
#X floatatom 226 72 6 0 0 1 - - -;
#X obj 157 88 t b f;
#X floatatom 156 248 5 0 0 0 - - -;
#X floatatom 156 175 5 0 0 0 - - -;
#X obj 156 196 moses 1;
#X obj 156 217 + 360;
#X obj 99 282 pack 0 0;
#X obj 106 45 inlet;
#X obj 226 49 inlet;
#X obj 99 305 outlet;
#X connect 0 0 1 0;
#X connect 1 0 12 1;
#X connect 2 0 3 0;
#X connect 3 0 9 0;
#X connect 4 0 0 0;
#X connect 4 1 2 0;
#X connect 5 0 4 0;
#X connect 6 0 7 0;
#X connect 7 0 5 0;
#X connect 7 1 4 1;
#X connect 8 0 12 0;
#X connect 9 0 10 0;
#X connect 10 0 11 0;
#X connect 10 1 8 0;
#X connect 11 0 8 0;
#X connect 12 0 15 0;
#X connect 13 0 5 0;
#X connect 14 0 6 0;
